<?xml version="1.0" encoding="UTF-8"?>
<svg version="1.1" xmlns="http://www.w3.org/2000/svg" width="512" height="512">
<path d="M0 0 C1.87315807 -0.00647952 3.74630966 -0.01513452 5.61944872 -0.0257743 C10.76045867 -0.04858382 15.90101592 -0.04020507 21.04204118 -0.02663505 C26.58885683 -0.01738383 32.13558235 -0.03686842 37.68237305 -0.0526123 C48.54632736 -0.07871021 59.41011624 -0.07760832 70.27408998 -0.06657412 C79.10345331 -0.05801819 87.93276874 -0.05884452 96.76213264 -0.06637001 C98.01846422 -0.0674249 99.2747958 -0.06847979 100.56919803 -0.06956664 C103.12137219 -0.07173755 105.67354634 -0.07392433 108.22572047 -0.07612679 C125.36262691 -0.09004008 142.4995149 -0.09468983 159.63642025 -0.07988262 C160.64136545 -0.07901447 160.64136545 -0.07901447 161.66661257 -0.07812878 C167.10704352 -0.07336416 172.5474742 -0.06830615 177.98790487 -0.06323105 C199.20990657 -0.04363824 220.431718 -0.05284249 241.65370178 -0.08564758 C265.50267023 -0.12243539 289.35152799 -0.13943502 313.20053488 -0.12623531 C315.74366063 -0.1248942 318.2867864 -0.12358522 320.82991219 -0.12230873 C322.08119194 -0.12167807 323.33247169 -0.1210474 324.62166901 -0.12039762 C333.44012448 -0.11736921 342.25849532 -0.12863589 351.07693291 -0.14555931 C361.82424717 -0.16587357 372.57130773 -0.16503079 383.31860869 -0.13692691 C388.80232894 -0.12314407 394.28560613 -0.11899262 399.76931 -0.14087677 C404.78995629 -0.16064837 409.80976875 -0.15269065 414.83035726 -0.12268243 C416.64587417 -0.1166775 418.46145873 -0.12077903 420.27692138 -0.13604566 C436.66166147 -0.26377863 436.66166147 -0.26377863 443.28919083 5.06435186 C449.12125579 10.90959492 449.33220067 15.78640398 449.40504456 23.82391357 C449.39726875 25.18519828 449.38907616 26.54648066 449.38050842 27.90776062 C449.38593468 29.35566917 449.39306016 30.80357219 449.40174866 32.25146484 C449.41993517 36.17135819 449.41293145 40.09082887 449.40023232 44.01072931 C449.39006866 48.1272863 449.39950839 52.24380833 449.40577698 56.36036682 C449.41304853 63.2787369 449.4034838 70.19693605 449.38441467 77.11528015 C449.36269843 85.08543805 449.36966086 93.05518576 449.39172029 101.02533352 C449.40995028 107.88935072 449.41239418 114.75324531 449.40196562 121.61727893 C449.39576555 125.70722778 449.39479688 129.79698481 449.40811157 133.88692093 C449.4197788 137.73996809 449.41144927 141.59249441 449.38853455 145.44548607 C449.38330259 146.84939782 449.38466505 148.25335438 449.39358521 149.65724754 C449.46563812 162.16323681 447.63171065 175.06344111 438.8629303 184.64164734 C432.13862951 190.17311564 427.27734808 191.76484871 418.61514664 191.7730751 C417.51268746 191.77615405 417.51268746 191.77615405 416.38795638 191.77929521 C413.91176319 191.78497411 411.43562546 191.78350686 408.95942688 191.78208923 C407.17151219 191.78467236 405.38359808 191.78768537 403.59568477 191.79109263 C398.67188115 191.79917205 393.74809211 191.80095273 388.82428265 191.8016901 C383.51807958 191.80353901 378.21188411 191.81108551 372.90568542 191.81782532 C361.29831833 191.83141567 349.69095469 191.8374344 338.08358097 191.84183598 C330.83836608 191.84459711 323.59315253 191.84883421 316.34793854 191.85334015 C296.29502064 191.86553353 276.24210381 191.87583284 256.18918228 191.87921524 C254.26349683 191.87954459 254.26349683 191.87954459 252.29890864 191.87988059 C251.01201728 191.88009887 249.72512593 191.88031715 248.39923787 191.88054204 C245.79143222 191.88098551 243.18362657 191.88143207 240.57582092 191.88188171 C239.2822546 191.88210314 237.98868828 191.88232457 236.65592298 191.88255271 C215.69062045 191.8865016 194.72535266 191.9039581 173.76006356 191.92724124 C152.2444608 191.95094302 130.72887549 191.96341655 109.21325946 191.96458316 C97.12933381 191.96550056 85.04545342 191.97126925 72.96154022 191.98940277 C62.67274321 192.00478789 52.38400546 192.00993359 42.09519914 192.00166467 C36.84464472 191.9977526 31.59420969 191.99871498 26.34366989 192.01272202 C21.5371758 192.02542733 16.73089122 192.02429306 11.92439756 192.0121313 C10.18548793 192.01016846 8.44656364 192.01327974 6.70767465 192.02197567 C4.34288867 192.03305297 1.97884406 192.02559055 -0.38592148 192.01358414 C-1.69910441 192.01418123 -3.01228734 192.01477831 -4.3652637 192.0153935 C-11.83928652 191.27479674 -18.28128717 188.45266578 -23.1370697 182.64164734 C-30.11037239 171.24390432 -31.43910096 161.28616996 -31.44346619 148.18266296 C-31.45109802 146.72649719 -31.45952726 145.27033542 -31.46868896 143.81417847 C-31.49053233 139.87828222 -31.4994184 135.94246359 -31.50451541 132.0065136 C-31.50816923 129.54400601 -31.51441438 127.08151846 -31.5215168 124.61901855 C-31.54597014 116.01864231 -31.55905553 107.41832609 -31.56260681 98.81791687 C-31.56624509 90.815234 -31.5961717 82.8129339 -31.6380114 74.81036806 C-31.67274069 67.92519973 -31.68815566 61.04015823 -31.68885285 54.15490294 C-31.68964437 50.04882736 -31.69832636 45.94314283 -31.72685051 41.8371582 C-31.75307891 37.9758759 -31.75521045 34.11530776 -31.73919487 30.25397682 C-31.73738449 28.84148916 -31.74403406 27.42895994 -31.76001358 26.01656151 C-31.84590711 17.92828976 -31.76163111 11.76272321 -26.1370697 5.64164734 C-19.11189996 -1.39557552 -9.18959401 -0.05771293 0 0 Z M-20.1370697 14.64164734 C-21.46042262 17.28835318 -21.26902811 19.2785641 -21.2775116 22.24369812 C-21.28322174 23.43521988 -21.28893188 24.62674164 -21.29481506 25.85437012 C-21.29593292 27.16862473 -21.29705078 28.48287933 -21.29820251 29.83695984 C-21.30283012 31.22988008 -21.3078547 32.62279906 -21.31324768 34.01571655 C-21.32638611 37.80747046 -21.33282036 41.59920664 -21.33725834 45.39097977 C-21.34018896 47.76200346 -21.34429393 50.13302232 -21.34876251 52.50404358 C-21.36244613 59.92790295 -21.37210647 67.35175126 -21.3759644 74.77562237 C-21.38043641 83.33384874 -21.39794063 91.8919147 -21.426965 100.45009232 C-21.4486331 107.07019499 -21.45867154 113.69025274 -21.46000552 120.31039047 C-21.46105062 124.26114312 -21.46689413 128.21174515 -21.48482513 132.16246033 C-21.50139294 135.88563665 -21.50341949 139.60855065 -21.49468613 143.33175087 C-21.49355731 145.33608545 -21.50721042 147.34041165 -21.5214386 149.34469604 C-21.47392128 159.70351366 -20.0060079 169.47419753 -13.1370697 177.64164734 C-7.18531988 182.50021862 -1.60173927 182.08290859 5.8629303 181.64164734 C5.51359436 180.74961609 5.16425842 179.85758484 4.80433655 178.93852234 C4.34929749 177.76805359 3.89425842 176.59758484 3.4254303 175.39164734 C2.74673889 173.65141296 2.74673889 173.65141296 2.05433655 171.87602234 C0.54685342 167.78357635 -0.26205712 164.43495327 -0.26646423 160.07255554 C-0.26961639 159.17515152 -0.27276855 158.2777475 -0.27601624 157.35314941 C-0.273992 156.39261154 -0.27196777 155.43207367 -0.2698822 154.44242859 C-0.27131729 152.95624275 -0.27131729 152.95624275 -0.27278137 151.44003296 C-0.27346109 149.34960364 -0.27162132 147.2591722 -0.2674408 145.16874695 C-0.26207261 141.95589005 -0.26740156 138.74317187 -0.27378845 135.53031921 C-0.27312797 133.50102203 -0.27184742 131.47172493 -0.2698822 129.44242859 C-0.27190643 128.47581802 -0.27393066 127.50920746 -0.27601624 126.51330566 C-0.27286407 125.62535812 -0.26971191 124.73741058 -0.26646423 123.82255554 C-0.26566864 123.03742081 -0.26487305 122.25228607 -0.26405334 121.44335938 C-0.1370697 119.64164734 -0.1370697 119.64164734 0.8629303 118.64164734 C3.06680025 118.54264787 5.27391861 118.51608983 7.48001099 118.5158062 C8.18322869 118.51435276 8.88644639 118.51289932 9.61097372 118.51140183 C11.99714502 118.50771582 14.38325347 118.5112402 16.76942444 118.5146637 C18.48549209 118.5135129 20.2015595 118.51192566 21.91762638 118.50993645 C26.65649775 118.50573738 31.39534914 118.50783641 36.1342206 118.51092267 C41.23583904 118.51317421 46.33745391 118.50969839 51.43907166 118.50694275 C61.4423225 118.50248341 71.44556587 118.50346224 81.44881701 118.50635539 C89.57473992 118.50860878 97.70066073 118.50892222 105.82658386 118.50783157 C106.98070993 118.50767834 108.13483599 118.50752511 109.32393557 118.50736723 C111.66812031 118.50704752 114.01230504 118.50672331 116.35648978 118.50639464 C138.36609203 118.50353937 160.37569013 118.50682761 182.3852917 118.51219501 C201.29287904 118.51666309 220.20046025 118.51588717 239.10804749 118.51127625 C261.03596695 118.50593131 282.96388276 118.50381406 304.89180279 118.50688851 C307.22762744 118.50720708 309.56345208 118.50752145 311.89927673 118.50783157 C313.0487109 118.50798585 314.19814508 118.50814012 315.38241059 118.50829908 C323.50369514 118.50916447 331.6249774 118.50770086 339.7462616 118.50535202 C349.63603577 118.50255472 359.52580201 118.5032908 369.41557527 118.50863276 C374.46672519 118.51127073 379.51786185 118.51227325 384.56901169 118.50898361 C389.18522176 118.50602258 393.80140615 118.5076102 398.41761386 118.51296116 C400.09524856 118.51408618 401.77288538 118.51349232 403.45051873 118.51108538 C405.71566069 118.50808267 407.98071251 118.51112451 410.24584961 118.5158062 C412.14003081 118.51604973 412.14003081 118.51604973 414.07247829 118.51629817 C416.8629303 118.64164734 416.8629303 118.64164734 417.8629303 119.64164734 C418.00182965 122.72597921 418.07625326 125.78611824 418.10121155 128.87211609 C418.10928329 129.81412369 418.11735504 130.75613129 418.12567139 131.72668457 C418.13954401 133.73339485 418.15025185 135.74012905 418.15809631 137.74687195 C418.17510624 140.77152488 418.21893626 143.79502554 418.26332092 146.81938171 C418.36289851 159.24062521 417.82472522 170.41027602 411.8629303 181.64164734 C422.11939017 182.29156361 422.11939017 182.29156361 430.8629303 177.64164734 C438.70047948 168.32247927 439.30760692 157.13024683 439.26698303 145.45878601 C439.27269693 144.05656901 439.27966511 142.65435665 439.28778076 141.25215149 C439.3056045 137.47353477 439.30456561 133.69515158 439.29883838 129.91650558 C439.29573408 126.75512076 439.30185195 123.59378 439.30787712 120.43240148 C439.32188214 112.97680303 439.32039171 105.5213193 439.30897522 98.0657196 C439.29746794 90.38107152 439.31162234 82.69677137 439.33837169 75.01216906 C439.36052224 68.40045411 439.36716844 61.78884847 439.36129528 55.17709905 C439.35792656 51.23386838 439.36033639 47.29086131 439.37754631 43.34766197 C439.39300577 39.64481474 439.38907172 35.94248507 439.37024117 32.23965836 C439.36479713 30.23564094 439.3790725 28.2316003 439.39393616 26.22763062 C439.38410202 25.03198486 439.37426788 23.83633911 439.36413574 22.60446167 C439.36382182 21.04906064 439.36382182 21.04906064 439.36350155 19.46223736 C438.73249872 15.90669899 437.33348935 14.22566379 434.8629303 11.64164734 C431.89796795 10.15916617 428.88505361 10.50065297 425.63421917 10.50742626 C424.87701805 10.50507403 424.11981694 10.5027218 423.33967033 10.50029829 C420.7758509 10.49358601 418.21208189 10.49406718 415.64825439 10.49447632 C413.80218039 10.49117909 411.95610711 10.48745382 410.11003476 10.48333484 C405.01630038 10.47329084 399.92257778 10.4695942 394.82883489 10.46694553 C389.34337382 10.46304961 383.85792214 10.45347085 378.37246704 10.44473267 C365.11546998 10.42494887 351.85847214 10.41489998 338.601464 10.40600488 C332.36441861 10.40162543 326.12737408 10.39625777 319.89032936 10.39101601 C299.16751757 10.37400242 278.44470625 10.35948189 257.72188854 10.35226727 C256.38132108 10.35179251 255.04075361 10.35131662 253.70018615 10.3508396 C253.035373 10.35060323 252.37055985 10.35036685 251.68560084 10.35012331 C248.31722042 10.34892209 244.94884001 10.34770665 241.58045959 10.34648132 C240.57775466 10.3461211 240.57775466 10.3461211 239.55479305 10.3457536 C217.87427124 10.3378581 196.1938041 10.31442142 174.51330616 10.28192538 C151.6018047 10.2476468 128.69032531 10.22791914 105.77879602 10.22462302 C93.28523711 10.22245427 80.79175855 10.2136523 68.2982235 10.18816185 C57.661237 10.1665099 47.02435036 10.15837724 36.38734432 10.16812863 C30.95689339 10.17268924 25.5266487 10.17068526 20.09622574 10.15136719 C15.12877363 10.13384811 10.16167995 10.13464104 5.19422463 10.15026448 C3.39339552 10.15265776 1.59254231 10.14822881 -0.20824979 10.13643583 C-2.64955244 10.12143356 -5.08956576 10.13090722 -7.53083515 10.14666271 C-8.23587515 10.13644051 -8.94091514 10.1262183 -9.66731998 10.11568633 C-14.40986849 10.18284376 -16.80236077 11.29582897 -20.1370697 14.64164734 Z M8.8629303 127.64164734 C8.8629303 131.93164734 8.8629303 136.22164734 8.8629303 140.64164734 C140.8629303 140.64164734 272.8629303 140.64164734 408.8629303 140.64164734 C408.8629303 136.35164734 408.8629303 132.06164734 408.8629303 127.64164734 C276.8629303 127.64164734 144.8629303 127.64164734 8.8629303 127.64164734 Z M8.8629303 150.64164734 C8.8629303 153.61164734 8.8629303 156.58164734 8.8629303 159.64164734 C140.8629303 159.64164734 272.8629303 159.64164734 408.8629303 159.64164734 C408.8629303 156.67164734 408.8629303 153.70164734 408.8629303 150.64164734 C276.8629303 150.64164734 144.8629303 150.64164734 8.8629303 150.64164734 Z M11.8629303 170.64164734 C14.67135427 176.403415 14.67135427 176.403415 18.8629303 180.64164734 C22.15995229 181.74065467 24.58644973 181.76925224 28.05900383 181.7730751 C29.36468343 181.77691625 30.67036302 181.78075739 32.01560867 181.78471494 C33.47325068 181.78393464 34.93089264 181.78305585 36.38853455 181.78208923 C37.93023634 181.78467203 39.47193747 181.78768495 41.01363766 181.79109263 C45.2613985 181.79917583 49.50914246 181.80095294 53.75691009 181.8016901 C58.33368749 181.80353834 62.91045607 181.81108446 67.48722839 181.81782532 C77.49946265 181.83141798 87.5116929 181.83743466 97.52393484 181.84183598 C103.77227075 181.84459652 110.02060511 181.84883349 116.26893997 181.85334015 C133.55959158 181.86553346 150.85024194 181.87583303 168.14089775 181.87921524 C169.8014329 181.87954459 169.8014329 181.87954459 171.49551422 181.87988059 C173.16007765 181.88020801 173.16007765 181.88020801 174.85826862 181.88054204 C177.10705559 181.88098551 179.35584255 181.88143207 181.60462952 181.88188171 C182.72011138 181.88210314 183.83559325 181.88232457 184.9848776 181.88255271 C203.06820215 181.88650251 221.15148644 181.90396178 239.23479544 181.92724124 C257.78858977 181.95093416 276.34236388 181.96341613 294.8961736 181.96458316 C305.31837157 181.96550102 315.74051709 181.97128128 326.16270065 181.98940277 C335.03564137 182.00477591 343.90851342 182.0099407 352.78146492 182.00166467 C357.31065291 181.99774841 361.83970249 181.99873517 366.3688736 182.01272202 C370.5128105 182.0254025 374.65650416 182.0243153 378.80044045 182.0121313 C380.301778 182.01016411 381.80313244 182.01329958 383.30444621 182.02197567 C385.3413277 182.03300414 387.37828887 182.02382352 389.41517448 182.01358414 C391.1140721 182.01447977 391.1140721 182.01447977 392.84729087 182.0153935 C397.49709909 181.43911507 400.0243051 179.57345311 403.1129303 176.14164734 C405.004336 173.69238068 405.004336 173.69238068 405.8629303 170.64164734 C275.8429303 170.64164734 145.8229303 170.64164734 11.8629303 170.64164734 Z " fill="#636363" transform="translate(47.13706970214844,53.35835266113281)"/>
<path d="M0 0 C0.33 9.9 0.66 19.8 1 30 C8.92118333 21.34385467 8.92118333 21.34385467 16.33203125 12.36328125 C18 11 18 11 20.578125 10.69140625 C23 11 23 11 24.9375 12.625 C26 15 26 15 25.3515625 17.82421875 C23.84123204 21.37305883 22.11120846 23.42173898 19.4375 26.1875 C14.34922877 31.58504386 9.63714693 37.20807719 5 43 C3.96673584 44.11048706 3.96673584 44.11048706 2.91259766 45.2434082 C0.58049571 48.60462381 0.46477828 50.55338892 0.390625 54.61328125 C0.35839844 55.86044922 0.32617188 57.10761719 0.29296875 58.39257812 C0.27878906 59.68615234 0.26460938 60.97972656 0.25 62.3125 C0.20552734 64.28186523 0.20552734 64.28186523 0.16015625 66.29101562 C0.08954411 69.52740535 0.03680123 72.76307811 0 76 C3.7789024 73.93105876 7.54656359 71.84243581 11.3125 69.75 C12.38435547 69.16347656 13.45621094 68.57695312 14.56054688 67.97265625 C15.58857422 67.39902344 16.61660156 66.82539063 17.67578125 66.234375 C19.0975769 65.44885254 19.0975769 65.44885254 20.5480957 64.64746094 C25.57862798 61.26739205 26.99717589 56.773728 28.8828125 51.20703125 C29.14254852 50.46039719 29.40228455 49.71376312 29.66989136 48.94450378 C30.4950195 46.56944506 31.31052144 44.19122961 32.125 41.8125 C32.94809438 39.42360655 33.77321314 37.03544823 34.60153198 34.64836121 C35.11576017 33.16492106 35.62669517 31.68033457 36.13406372 30.1945343 C37.88877397 25.11122603 37.88877397 25.11122603 39 24 C44.37535411 23.5325779 44.37535411 23.5325779 46.72265625 25.2890625 C48 27 48 27 47.5625 30.625 C45.57535218 38.23185249 42.693949 45.62129062 40 53 C40.6705542 52.61142822 41.3411084 52.22285645 42.03198242 51.82250977 C45.07967706 50.06188306 48.13346871 48.31211001 51.1875 46.5625 C52.24259766 45.95083984 53.29769531 45.33917969 54.38476562 44.70898438 C55.40634766 44.12568359 56.42792969 43.54238281 57.48046875 42.94140625 C58.41785889 42.40201416 59.35524902 41.86262207 60.32104492 41.30688477 C62.95157816 40.02362181 65.09641353 39.31470365 68 39 C69.8125 40.125 69.8125 40.125 71 42 C71.5 44.4375 71.5 44.4375 71 47 C66.50314802 51.2175444 60.96835956 54.130001 55.6875 57.25 C54.75615234 57.80429687 53.82480469 58.35859375 52.86523438 58.9296875 C50.57879425 60.28982624 48.29035964 61.64647544 46 63 C47.12027588 63.21148682 47.12027588 63.21148682 48.26318359 63.42724609 C51.6353692 64.06849179 55.0051518 64.72158717 58.375 65.375 C59.550625 65.59671875 60.72625 65.8184375 61.9375 66.046875 C63.05898437 66.26601563 64.18046875 66.48515625 65.3359375 66.7109375 C66.37282715 66.90993652 67.4097168 67.10893555 68.47802734 67.31396484 C71 68 71 68 73 70 C72.625 73.625 72.625 73.625 72 77 C67.15745149 78.10954571 63.16637023 77.74104836 58.37109375 76.75 C57.65897232 76.61303711 56.94685089 76.47607422 56.21315002 76.33496094 C53.95256117 75.89974914 51.69490171 75.45143211 49.4375 75 C46.4590329 74.40576677 43.47844655 73.82436999 40.49609375 73.25 C39.81888779 73.11045898 39.14168182 72.97091797 38.44395447 72.82714844 C32.11285467 71.60795152 28.41278975 72.52015321 22.91796875 75.72265625 C21.98662109 76.26083984 21.05527344 76.79902344 20.09570312 77.35351562 C19.13599609 77.91748047 18.17628906 78.48144531 17.1875 79.0625 C16.20845703 79.63033203 15.22941406 80.19816406 14.22070312 80.78320312 C11.81006652 82.18254827 9.4034149 83.58829929 7 85 C19.15462003 94.48720015 19.15462003 94.48720015 33.3671875 99.4140625 C36.69562877 98.87550834 39.76977262 97.97217089 43 97 C46.77750437 96.19170991 50.57505685 95.50614784 54.375 94.8125 C55.31512939 94.62228271 56.25525879 94.43206543 57.22387695 94.23608398 C62.51491601 93.21336686 66.71802487 92.85775469 72 94 C72.625 97.375 72.625 97.375 73 101 C70.70890215 103.29109785 69.71621941 103.45603769 66.60546875 104.0703125 C65.29545898 104.33134766 65.29545898 104.33134766 63.95898438 104.59765625 C63.04439453 104.77167969 62.12980469 104.94570313 61.1875 105.125 C60.28451172 105.30675781 59.38152344 105.48851562 58.45117188 105.67578125 C54.21869298 106.50299608 50.32695387 107.09889632 46 107 C48.40148468 109.67852178 50.95289907 111.21815102 54.10546875 112.92578125 C55.08837891 113.47556641 56.07128906 114.02535156 57.08398438 114.59179688 C59.15703538 115.74117254 61.2378882 116.87658526 63.32617188 117.99804688 C64.30521484 118.55169922 65.28425781 119.10535156 66.29296875 119.67578125 C67.64684692 120.4169519 67.64684692 120.4169519 69.02807617 121.1730957 C71 123 71 123 71.39575195 126.08276367 C71 129 71 129 69.375 131 C67 132 67 132 64.53125 131.4453125 C59.46428606 129.37144452 54.84684162 126.63260669 50.125 123.875 C49.15046875 123.31167969 48.1759375 122.74835938 47.171875 122.16796875 C44.77838038 120.78349637 42.3879162 119.39406459 40 118 C40.24758057 118.67579102 40.49516113 119.35158203 40.75024414 120.04785156 C41.86549413 123.11130305 42.96413837 126.18045514 44.0625 129.25 C44.45244141 130.31347656 44.84238281 131.37695312 45.24414062 132.47265625 C45.79038086 134.00986328 45.79038086 134.00986328 46.34765625 135.578125 C46.68804932 136.52075195 47.02844238 137.46337891 47.37915039 138.43457031 C48.03543514 141.14642251 48.04375383 142.44012638 47 145 C45 147 45 147 42.625 147.5 C40 147 40 147 38.01074219 144.42480469 C35.96946875 140.94799753 34.50539966 137.49714322 33.203125 133.703125 C32.9646283 133.02828064 32.72613159 132.35343628 32.48040771 131.65814209 C31.9825234 130.24433735 31.48861129 128.82912794 30.99853516 127.41259766 C30.24628229 125.23925913 29.48163313 123.07059119 28.71484375 120.90234375 C28.23104895 119.52369061 27.74795079 118.14479276 27.265625 116.765625 C27.03756165 116.11668274 26.80949829 115.46774048 26.57452393 114.7991333 C25 110.23373288 25 110.23373288 25 108 C24.21367187 107.78601563 23.42734375 107.57203125 22.6171875 107.3515625 C17.78808819 105.54716902 13.54900831 103.00008927 9.125 100.375 C8.24585937 99.859375 7.36671875 99.34375 6.4609375 98.8125 C4.3042944 97.54664427 2.15082012 96.27571593 0 95 C-1.48247831 112.84037638 -1.48247831 112.84037638 4.39746094 128.90917969 C6.30928485 130.88961288 8.28741663 132.74671273 10.37695312 134.53857422 C13.3854956 137.24752958 15.93814379 140.36338025 18.5625 143.4375 C19.07466064 144.00581543 19.58682129 144.57413086 20.11450195 145.15966797 C23.11647445 148.56900415 25.01326508 151.44933436 26 156 C24.9375 158.375 24.9375 158.375 23 160 C20.75390625 160.484375 20.75390625 160.484375 18 160 C15.7769851 158.00756377 13.92525434 156.12275888 12 153.875 C11.49210937 153.30523437 10.98421875 152.73546875 10.4609375 152.1484375 C7.22691267 148.4997941 4.10641178 144.75738778 1 141 C0.96241577 142.30203369 0.96241577 142.30203369 0.92407227 143.63037109 C0.82900516 146.84713163 0.72976797 150.06372849 0.62768555 153.28027344 C0.58434154 154.6731259 0.54266604 156.06603131 0.50268555 157.45898438 C0.44497068 159.45976651 0.38078131 161.46035859 0.31640625 163.4609375 C0.27974854 164.66540527 0.24309082 165.86987305 0.20532227 167.11083984 C0 170 0 170 -1 172 C-4.375 172.125 -4.375 172.125 -8 172 C-10.79177569 169.20822431 -10.31213484 167.36816428 -10.4140625 163.4609375 C-10.45273438 162.15898437 -10.49140625 160.85703125 -10.53125 159.515625 C-10.56270763 158.13542138 -10.59395491 156.75521296 -10.625 155.375 C-10.66317934 153.98695459 -10.70223105 152.59893289 -10.7421875 151.2109375 C-10.83672943 147.80742815 -10.92227897 144.40392835 -11 141 C-11.37286133 141.43344727 -11.74572266 141.86689453 -12.12988281 142.31347656 C-13.83495495 144.29373104 -15.54245358 146.27187877 -17.25 148.25 C-17.83652344 148.93191406 -18.42304687 149.61382812 -19.02734375 150.31640625 C-25.74869792 158.09505208 -25.74869792 158.09505208 -28 160 C-33.3125 159.6875 -33.3125 159.6875 -35 158 C-35.60755552 153.86862244 -35.21816836 152.31255326 -32.796875 148.84375 C-31.79345678 147.71816481 -30.77694663 146.60416066 -29.75 145.5 C-29.21656982 144.88455322 -28.68313965 144.26910645 -28.13354492 143.63500977 C-25.43057192 140.53736711 -22.68835268 137.67243132 -19.56640625 134.99609375 C-12.13507902 128.23376144 -10.33812447 122.80073322 -9.82495117 112.67407227 C-9.68005001 106.77848971 -9.76178994 100.89275083 -10 95 C-13.94423093 97.07652687 -17.84871167 99.21902487 -21.75 101.375 C-22.86117187 101.95894531 -23.97234375 102.54289062 -25.1171875 103.14453125 C-31.39766612 106.66311265 -35.13506995 109.22512158 -37.25 116.22949219 C-37.4975 117.14375977 -37.745 118.05802734 -38 119 C-38.74953384 121.11810232 -39.51329732 123.2312075 -40.2890625 125.33984375 C-41.47142526 128.67069455 -42.64817504 132.00342768 -43.8203125 135.33789062 C-44.39265625 136.94760742 -44.39265625 136.94760742 -44.9765625 138.58984375 C-45.31768066 139.55784912 -45.65879883 140.52585449 -46.01025391 141.52319336 C-47 144 -47 144 -49 147 C-52 147.3125 -52 147.3125 -55 147 C-57 145 -57 145 -57.08422852 143.17211914 C-56.37014184 137.30775552 -54.90963526 131.99699963 -52.9375 126.4375 C-52.65583984 125.61958984 -52.37417969 124.80167969 -52.08398438 123.95898438 C-51.39764559 121.96976517 -50.7000155 119.9844476 -50 118 C-50.64026123 118.38857178 -51.28052246 118.77714355 -51.94018555 119.17749023 C-54.85141693 120.93846233 -57.76932507 122.68806054 -60.6875 124.4375 C-61.69490234 125.04916016 -62.70230469 125.66082031 -63.74023438 126.29101562 C-64.71669922 126.87431641 -65.69316406 127.45761719 -66.69921875 128.05859375 C-68.04246216 128.86768188 -68.04246216 128.86768188 -69.4128418 129.69311523 C-72.01751126 131.00884569 -74.10447775 131.69226481 -77 132 C-79.3125 130.875 -79.3125 130.875 -81 129 C-81.5625 126.5625 -81.5625 126.5625 -81 124 C-76.66452957 119.95414601 -71.42610386 117.18637237 -66.3125 114.25 C-65.44560547 113.74339844 -64.57871094 113.23679687 -63.68554688 112.71484375 C-62.85732422 112.23660156 -62.02910156 111.75835937 -61.17578125 111.265625 C-60.42208252 110.83024414 -59.66838379 110.39486328 -58.8918457 109.94628906 C-57 109 -57 109 -55 109 C-55 108.34 -55 107.68 -55 107 C-55.62003906 106.96261719 -56.24007812 106.92523438 -56.87890625 106.88671875 C-62.67375948 106.45653314 -68.35505926 105.69260364 -74.0625 104.625 C-75.33222656 104.39039063 -76.60195312 104.15578125 -77.91015625 103.9140625 C-81 103 -81 103 -83 100 C-82.6758631 96.67759676 -82.39223697 95.39223697 -80 93 C-70.5508225 92.6827379 -60.76803356 95.50962287 -51.58789062 97.44726562 C-50.43869141 97.67478516 -49.28949219 97.90230469 -48.10546875 98.13671875 C-47.07574951 98.35030029 -46.04603027 98.56388184 -44.98510742 98.78393555 C-39.73537022 99.16391571 -35.68735846 97.0076221 -31.2578125 94.3984375 C-30.41992188 93.90859375 -29.58203125 93.41875 -28.71875 92.9140625 C-27.43484375 92.15222656 -27.43484375 92.15222656 -26.125 91.375 C-25.24585938 90.859375 -24.36671875 90.34375 -23.4609375 89.8125 C-21.3042944 88.54664427 -19.15082012 87.27571593 -17 86 C-21.18614588 82.48133014 -25.60243002 79.54596118 -30.25 76.6875 C-31.31927734 75.98657227 -31.31927734 75.98657227 -32.41015625 75.27148438 C-38.07050848 71.81917946 -41.61894264 71.63254355 -48 73 C-50.20311207 73.39720715 -52.40623816 73.79433651 -54.609375 74.19140625 C-58.20848572 74.87742459 -61.80557685 75.57328845 -65.40234375 76.27148438 C-66.56378906 76.49255859 -67.72523437 76.71363281 -68.921875 76.94140625 C-70.49340332 77.24606812 -70.49340332 77.24606812 -72.09667969 77.55688477 C-74.81542066 77.97182883 -77.25847608 78.21031114 -80 78 C-81.875 76.3125 -81.875 76.3125 -83 74 C-82.9375 71.375 -82.9375 71.375 -82 69 C-79.05429336 67.16204501 -76.19196553 66.52185445 -72.796875 65.9296875 C-71.32734375 65.66865234 -71.32734375 65.66865234 -69.828125 65.40234375 C-68.30445313 65.14130859 -68.30445313 65.14130859 -66.75 64.875 C-65.71875 64.69324219 -64.6875 64.51148438 -63.625 64.32421875 C-61.08425433 63.87723572 -58.54264178 63.43604466 -56 63 C-57.95786633 61.79091013 -59.91632266 60.58277563 -61.875 59.375 C-62.46128174 59.01325684 -63.04756348 58.65151367 -63.65161133 58.27880859 C-68.09541173 55.54239802 -72.57135721 52.86490036 -77.07421875 50.2265625 C-79 49 -79 49 -81 47 C-81.3633156 44.16613833 -81.3568671 42.59477849 -79.875 40.125 C-77.0335829 38.42014974 -75.16438286 39.25892505 -72 40 C-69.29931641 41.30688477 -69.29931641 41.30688477 -66.6015625 42.94140625 C-65.62832031 43.52470703 -64.65507813 44.10800781 -63.65234375 44.70898438 C-62.65332031 45.32064453 -61.65429688 45.93230469 -60.625 46.5625 C-59.60277344 47.17802734 -58.58054687 47.79355469 -57.52734375 48.42773438 C-55.01296926 49.94340872 -52.5042376 51.46765568 -50 53 C-50.21205078 52.39526855 -50.42410156 51.79053711 -50.64257812 51.16748047 C-51.60464615 48.40655669 -52.55241424 45.640926 -53.5 42.875 C-54.00080078 41.44800781 -54.00080078 41.44800781 -54.51171875 39.9921875 C-57.66448605 30.72691216 -57.66448605 30.72691216 -57 26 C-55 24 -55 24 -51.875 23.875 C-50.92625 23.91625 -49.9775 23.9575 -49 24 C-46.30380397 28.84214797 -44.45252914 33.5236469 -42.87890625 38.84375 C-42.49927734 40.09027344 -42.11964844 41.33679688 -41.72851562 42.62109375 C-41.13891527 44.55740882 -40.56452323 46.49255876 -40.03344727 48.44580078 C-37.91219205 56.16105056 -35.85135014 61.16436771 -28.90234375 65.46875 C-26.61592362 66.67349169 -24.3146201 67.85036817 -22 69 C-19.70740038 70.2988247 -17.45114381 71.65049104 -15.1875 73 C-13.45926798 74.00161442 -11.7304676 75.00225292 -10 76 C-8.67374622 58.87263382 -8.67374622 58.87263382 -12.9765625 43.01171875 C-15.49644352 40.37871614 -18.11757854 38.22381458 -21 36 C-22.65254469 34.10359472 -24.25808313 32.16513625 -25.8125 30.1875 C-28.15438893 27.26429113 -30.51716878 24.43302581 -33.0625 21.6875 C-35.3660692 18.4922266 -35.61366667 16.85733335 -35 13 C-34.34 12.34 -33.68 11.68 -33 11 C-28.79838194 11.06879842 -26.68200008 11.36928633 -23.55859375 14.2578125 C-22.85863281 15.20398438 -22.15867188 16.15015625 -21.4375 17.125 C-18.09235311 21.55655239 -14.65020454 25.81887063 -11 30 C-10.9906543 29.13721436 -10.98130859 28.27442871 -10.97167969 27.38549805 C-10.92764278 24.1813816 -10.86602106 20.97822272 -10.79248047 17.7746582 C-10.76427203 16.38871604 -10.74305667 15.00261304 -10.72900391 13.61645508 C-10.70757579 11.62292596 -10.65882986 9.62974954 -10.609375 7.63671875 C-10.58842773 6.43748779 -10.56748047 5.23825684 -10.54589844 4.00268555 C-10 1 -10 1 -8.33691406 -1.03979492 C-6 -2 -6 -2 0 0 Z " fill="#636363" transform="translate(118,286)"/>
<path d="M0 0 C1.78700317 -0.01418472 1.78700317 -0.01418472 3.61010742 -0.02865601 C5.54140503 -0.01954697 5.54140503 -0.01954697 7.51171875 -0.01025391 C8.8454606 -0.01227496 10.17920138 -0.01518666 11.51293945 -0.01895142 C14.30723601 -0.02337336 17.10124473 -0.01694831 19.89550781 -0.00292969 C23.4769634 0.01416265 27.05774457 0.0043207 30.63917542 -0.01364708 C33.39299601 -0.02448872 36.14665676 -0.02103695 38.90048218 -0.0132637 C40.8631026 -0.01028969 42.82572923 -0.01939932 44.78833008 -0.02865601 C45.97966553 -0.01919952 47.17100098 -0.00974304 48.3984375 0 C49.44862061 0.00238678 50.49880371 0.00477356 51.58081055 0.00723267 C54.19921875 0.38818359 54.19921875 0.38818359 56.03849792 1.72676086 C57.88478285 4.36948052 57.57048333 6.77700825 57.5625 9.95458984 C57.5615332 11.88915039 57.5615332 11.88915039 57.56054688 13.86279297 C57.55224854 14.53334717 57.5439502 15.20390137 57.53540039 15.89477539 C57.51176104 17.94701247 57.51484727 19.99795392 57.52148438 22.05029297 C57.46606593 32.12133642 57.46606593 32.12133642 55.19921875 34.38818359 C52.6184082 34.64215088 52.6184082 34.64215088 49.3125 34.64697266 C48.07781982 34.65327698 46.84313965 34.6595813 45.57104492 34.66607666 C44.21793475 34.66249698 42.86482588 34.65839504 41.51171875 34.65380859 C40.12931246 34.65515534 38.74690662 34.65709595 37.36450195 34.65960693 C34.46593724 34.66255777 31.56749572 34.65826195 28.66894531 34.64892578 C24.94961238 34.63753114 21.23056807 34.64409085 17.51124573 34.65607071 C14.65626848 34.66329047 11.8013599 34.66100087 8.94638062 34.65581512 C7.57481858 34.65447894 6.20325036 34.65612526 4.83169556 34.66077423 C2.91644405 34.66584107 1.00117074 34.65675191 -0.9140625 34.64697266 C-2.00501221 34.64538147 -3.09596191 34.64379028 -4.2199707 34.64215088 C-6.80078125 34.38818359 -6.80078125 34.38818359 -8.80078125 32.38818359 C-9.19878663 28.27050842 -9.12982842 24.14729697 -9.11645508 20.01196289 C-9.11329821 17.96169746 -9.13673885 15.91287955 -9.16210938 13.86279297 C-9.16275391 12.57308594 -9.16339844 11.28337891 -9.1640625 9.95458984 C-9.16704346 8.76808838 -9.17002441 7.58158691 -9.1730957 6.35913086 C-8.80078125 3.38818359 -8.80078125 3.38818359 -7.64006042 1.72676086 C-5.04847117 -0.15932718 -3.18819865 0.00724591 0 0 Z M1.19921875 10.38818359 C1.19921875 15.00818359 1.19921875 19.62818359 1.19921875 24.38818359 C16.37921875 24.38818359 31.55921875 24.38818359 47.19921875 24.38818359 C47.19921875 19.76818359 47.19921875 15.14818359 47.19921875 10.38818359 C32.01921875 10.38818359 16.83921875 10.38818359 1.19921875 10.38818359 Z " fill="#636363" transform="translate(231.80078125,119.61181640625)"/>
<path d="M0 0 C3.0625 0.1875 3.0625 0.1875 5.0625 2.1875 C4.93854923 5.07083098 4.71885508 7.88229836 4.4375 10.75 C3.55311592 22.89895818 6.99609884 28.26163482 14.8125 37.4921875 C22.42333769 46.60933681 26.78517312 54.9999364 26.40234375 67.08203125 C25.26474089 77.47736773 20.49768494 86.07414568 14.0625 94.1875 C11.0625 96.1875 11.0625 96.1875 8.5 96 C6.0625 95.1875 6.0625 95.1875 4.0625 92.1875 C4.37571868 88.31611716 5.68449898 85.91738201 7.9375 82.8125 C13.48278621 74.68119089 15.27371249 68.04183074 14.0625 58.1875 C11.9111251 50.97467787 7.3629048 46.20124096 2.28515625 40.84375 C-5.70117751 31.29944955 -7.78741507 21.2879858 -6.9375 9.1875 C-4.75666729 0.30361706 -4.75666729 0.30361706 0 0 Z " fill="#636363" transform="translate(413.9375,267.8125)"/>
<path d="M0 0 C1.175625 0.0825 2.35125 0.165 3.5625 0.25 C5.5625 3.25 5.5625 3.25 5.2109375 6.046875 C4.99695313 7.10390625 4.78296875 8.1609375 4.5625 9.25 C3.77919217 18.06780817 4.36139059 24.90032146 9.5625 32.25 C11.21118758 34.03966799 12.93537046 35.68553355 14.72265625 37.3359375 C22.71443415 45.65010134 25.99666092 54.70522698 25.92382812 66.07104492 C25.6253058 77.34926973 20.84458725 85.77167665 13.5625 94.25 C10.5625 96.25 10.5625 96.25 7.9375 95.9375 C5.5625 95.25 5.5625 95.25 4.5625 94.25 C4.07556365 89.31712307 5.02364315 86.92231548 7.875 82.9375 C12.5438032 75.96264826 15.94798283 68.86899203 14.5625 60.25 C12.73167248 52.84125129 8.9943152 48.20454231 3.8125 42.75 C-3.09563222 35.07429753 -8.14885904 24.95161628 -7.73828125 14.40625 C-5.78742679 0.42090377 -5.78742679 0.42090377 0 0 Z " fill="#636363" transform="translate(301.4375,267.75)"/>
<path d="M0 0 C3.0625 0.1875 3.0625 0.1875 5.0625 2.1875 C4.9651768 4.93024465 4.77051272 7.58691867 4.5 10.3125 C3.64326598 21.20266737 6.32633237 27.56330094 13.5 36.08203125 C14.345625 37.04496094 15.19125 38.00789063 16.0625 39 C23.62645281 47.83357201 26.52789185 56.05300757 26.3984375 67.61328125 C25.44596553 77.74714005 20.28691211 88.01781829 13.0625 95.1875 C10.4609375 96.0859375 10.4609375 96.0859375 8.0625 96.1875 C5.6875 94.5625 5.6875 94.5625 4.0625 92.1875 C4.4186812 88.32038984 5.68194888 85.92089632 7.9375 82.8125 C13.1355345 75.27098712 15.82336016 68.42898111 14.5 59.3125 C12.26612542 51.78786984 7.75153197 45.77170613 2.4375 40.125 C-5.02962558 32.14246676 -7.23366944 24.03485278 -7.16796875 13.3125 C-6.78027588 8.05564757 -6.13937958 0.39187529 0 0 Z " fill="#636363" transform="translate(244.9375,267.8125)"/>
<path d="M0 0 C3.375 -0.125 3.375 -0.125 7 0 C7.66 0.66 8.32 1.32 9 2 C8.7961289 3.86881843 8.58165556 5.73711842 8.3125 7.59765625 C7.13281935 16.66645123 7.74598008 23.33835639 13 31 C15.24368574 33.76671007 17.60671517 36.42844926 19.9675293 39.09521484 C26.49560971 46.62684422 30.44893787 55.46532533 30.27734375 65.5703125 C29.07082235 76.14011973 24.40514573 86.19004499 17.4375 94.1875 C15 96 15 96 12.3125 95.9375 C10 95 10 95 8 93 C7.54906114 89.84342801 7.78324618 88.36402765 9.42578125 85.60546875 C10.04839844 84.80753906 10.67101562 84.00960937 11.3125 83.1875 C17.01169896 75.36552248 19.20656349 68.77877621 18 59 C16.24014809 52.0427188 11.81465377 47.0792462 7.25390625 41.70703125 C0.57248857 33.68238229 -3.39340398 26.8043251 -3.3125 16.125 C-3.31121094 15.42117188 -3.30992187 14.71734375 -3.30859375 13.9921875 C-3.21007811 8.67234273 -2.3635847 4.7271694 0 0 Z " fill="#636363" transform="translate(354,268)"/>
<path d="M0 0 C3.8425303 0.72047443 5.45767292 1.57152696 8 4.5625 C8.94237143 8.56143269 8.61136591 11.54355682 6.5 15.0625 C2.9683809 17.18147146 0.01676563 17.36091448 -4 16.5625 C-6.5 15 -6.5 15 -8 12.5625 C-8.5625 9.125 -8.5625 9.125 -8 5.5625 C-5.54999553 2.17572911 -4.13607554 0.77551416 0 0 Z " fill="#636363" transform="translate(459,80.4375)"/>
</svg>
