<svg width="51" height="51" viewBox="0 0 51 51" fill="none" xmlns="http://www.w3.org/2000/svg">
<path d="M18.4688 9.09375H16.9062V10.6562H18.4688V9.09375Z" fill="#646464"/>
<path d="M21.5938 9.09375H20.0312V10.6562H21.5938V9.09375Z" fill="#646464"/>
<path d="M24.7188 9.09375H23.1562V10.6562H24.7188V9.09375Z" fill="#646464"/>
<path d="M27.8438 9.09375H26.2812V10.6562H27.8438V9.09375Z" fill="#646464"/>
<path d="M30.9688 9.09375H29.4062V10.6562H30.9688V9.09375Z" fill="#646464"/>
<path d="M34.0938 9.09375H32.5312V10.6562H34.0938V9.09375Z" fill="#646464"/>
<path d="M18.4688 12.2188H16.9062V13.7812H18.4688V12.2188Z" fill="#646464"/>
<path d="M21.5938 12.2188H20.0312V13.7812H21.5938V12.2188Z" fill="#646464"/>
<path d="M24.7188 12.2188H23.1562V13.7812H24.7188V12.2188Z" fill="#646464"/>
<path d="M27.8438 12.2188H26.2812V13.7812H27.8438V12.2188Z" fill="#646464"/>
<path d="M30.9688 12.2188H29.4062V13.7812H30.9688V12.2188Z" fill="#646464"/>
<path d="M34.0938 12.2188H32.5312V13.7812H34.0938V12.2188Z" fill="#646464"/>
<path d="M18.4688 15.3438H16.9062V16.9062H18.4688V15.3438Z" fill="#646464"/>
<path d="M21.5938 15.3438H20.0312V16.9062H21.5938V15.3438Z" fill="#646464"/>
<path d="M24.7188 15.3438H23.1562V16.9062H24.7188V15.3438Z" fill="#646464"/>
<path d="M27.8438 15.3438H26.2812V16.9062H27.8438V15.3438Z" fill="#646464"/>
<path d="M30.9688 15.3438H29.4062V16.9062H30.9688V15.3438Z" fill="#646464"/>
<path d="M34.0938 15.3438H32.5312V16.9062H34.0938V15.3438Z" fill="#646464"/>
<path d="M18.4688 18.4688H16.9062V20.0312H18.4688V18.4688Z" fill="#646464"/>
<path d="M21.5938 18.4688H20.0312V20.0312H21.5938V18.4688Z" fill="#646464"/>
<path d="M24.7188 18.4688H23.1562V20.0312H24.7188V18.4688Z" fill="#646464"/>
<path d="M27.8438 18.4688H26.2812V20.0312H27.8438V18.4688Z" fill="#646464"/>
<path d="M30.9688 18.4688H29.4062V20.0312H30.9688V18.4688Z" fill="#646464"/>
<path d="M34.0938 18.4688H32.5312V20.0312H34.0938V18.4688Z" fill="#646464"/>
<path d="M18.4688 21.5938H16.9062V23.1562H18.4688V21.5938Z" fill="#646464"/>
<path d="M21.5938 21.5938H20.0312V23.1562H21.5938V21.5938Z" fill="#646464"/>
<path d="M24.7188 21.5938H23.1562V23.1562H24.7188V21.5938Z" fill="#646464"/>
<path d="M27.8438 21.5938H26.2812V23.1562H27.8438V21.5938Z" fill="#646464"/>
<path d="M30.9688 21.5938H29.4062V23.1562H30.9688V21.5938Z" fill="#646464"/>
<path d="M34.0938 21.5938H32.5312V23.1562H34.0938V21.5938Z" fill="#646464"/>
<path d="M18.4688 24.7188H16.9062V26.2812H18.4688V24.7188Z" fill="#646464"/>
<path d="M21.5938 24.7188H20.0312V26.2812H21.5938V24.7188Z" fill="#646464"/>
<path d="M24.7188 24.7188H23.1562V26.2812H24.7188V24.7188Z" fill="#646464"/>
<path d="M27.8438 24.7188H26.2812V26.2812H27.8438V24.7188Z" fill="#646464"/>
<path d="M30.9688 24.7188H29.4062V26.2812H30.9688V24.7188Z" fill="#646464"/>
<path d="M34.0938 24.7188H32.5312V26.2812H34.0938V24.7188Z" fill="#646464"/>
<path d="M18.4688 27.8438H16.9062V29.4062H18.4688V27.8438Z" fill="#646464"/>
<path d="M21.5938 27.8438H20.0312V29.4062H21.5938V27.8438Z" fill="#646464"/>
<path d="M24.7188 27.8438H23.1562V29.4062H24.7188V27.8438Z" fill="#646464"/>
<path d="M27.8438 27.8438H26.2812V29.4062H27.8438V27.8438Z" fill="#646464"/>
<path d="M30.9688 27.8438H29.4062V29.4062H30.9688V27.8438Z" fill="#646464"/>
<path d="M34.0938 27.8438H32.5312V29.4062H34.0938V27.8438Z" fill="#646464"/>
<path d="M18.4688 30.9688H16.9062V32.5312H18.4688V30.9688Z" fill="#646464"/>
<path d="M21.5938 30.9688H20.0312V32.5312H21.5938V30.9688Z" fill="#646464"/>
<path d="M24.7188 30.9688H23.1562V32.5312H24.7188V30.9688Z" fill="#646464"/>
<path d="M27.8438 30.9688H26.2812V32.5312H27.8438V30.9688Z" fill="#646464"/>
<path d="M30.9688 30.9688H29.4062V32.5312H30.9688V30.9688Z" fill="#646464"/>
<path d="M34.0938 30.9688H32.5312V32.5312H34.0938V30.9688Z" fill="#646464"/>
<path d="M18.4688 34.0938H16.9062V35.6562H18.4688V34.0938Z" fill="#646464"/>
<path d="M21.5938 34.0938H20.0312V35.6562H21.5938V34.0938Z" fill="#646464"/>
<path d="M24.7188 34.0938H23.1562V35.6562H24.7188V34.0938Z" fill="#646464"/>
<path d="M27.8438 34.0938H26.2812V35.6562H27.8438V34.0938Z" fill="#646464"/>
<path d="M30.9688 34.0938H29.4062V35.6562H30.9688V34.0938Z" fill="#646464"/>
<path d="M34.0938 34.0938H32.5312V35.6562H34.0938V34.0938Z" fill="#646464"/>
<path d="M18.4688 37.2188H16.9062V38.7812H18.4688V37.2188Z" fill="#646464"/>
<path d="M21.5938 37.2188H20.0312V38.7812H21.5938V37.2188Z" fill="#646464"/>
<path d="M24.7188 37.2188H23.1562V38.7812H24.7188V37.2188Z" fill="#646464"/>
<path d="M27.8438 37.2188H26.2812V38.7812H27.8438V37.2188Z" fill="#646464"/>
<path d="M30.9688 37.2188H29.4062V38.7812H30.9688V37.2188Z" fill="#646464"/>
<path d="M34.0938 37.2188H32.5312V38.7812H34.0938V37.2188Z" fill="#646464"/>
<path d="M11.4375 48.9375H48.9375V47.375H47.375V22.375C47.375 22.1678 47.2927 21.9691 47.1462 21.8226C46.9997 21.6761 46.8009 21.5938 46.5938 21.5938H37.2188V6.75C37.2188 6.5428 37.1364 6.34409 36.9899 6.19757C36.8434 6.05106 36.6447 5.96875 36.4375 5.96875H32.5312V2.84375H30.9688V5.96875H23.9375V4.40625H22.375V5.96875H20.8125V2.0625H19.25V5.96875H14.5625C14.3553 5.96875 14.1566 6.05106 14.0101 6.19757C13.8636 6.34409 13.7812 6.5428 13.7812 6.75V47.375H12.2188V16.9062C12.2187 16.6991 12.1364 16.5004 11.9898 16.3539L10.5336 14.8977L8.24922 9.56719C8.18896 9.42672 8.08882 9.30702 7.9612 9.2229C7.83358 9.13879 7.6841 9.09395 7.53125 9.09395C7.3784 9.09395 7.22892 9.13879 7.1013 9.2229C6.97368 9.30702 6.87354 9.42672 6.81328 9.56719L4.52891 14.8977L3.07266 16.3539C2.92613 16.5004 2.84379 16.6991 2.84375 16.9062V47.375H2.0625V48.9375H11.4375ZM23.1562 47.375V42.6875H24.7188V47.375H23.1562ZM26.2812 47.375V42.6875H27.8438V47.375H26.2812ZM45.8125 23.1562V47.375H37.2188V23.1562H45.8125ZM15.3438 7.53125H35.6562V47.375H29.4062V41.9062C29.4062 41.6991 29.3239 41.5003 29.1774 41.3538C29.0309 41.2073 28.8322 41.125 28.625 41.125H22.375C22.1678 41.125 21.9691 41.2073 21.8226 41.3538C21.6761 41.5003 21.5938 41.6991 21.5938 41.9062V47.375H15.3438V7.53125ZM4.40625 17.2297L5.73984 15.8961C5.8101 15.8259 5.86631 15.7429 5.90547 15.6516L7.53125 11.8586L9.15703 15.6516C9.19619 15.7429 9.2524 15.8259 9.32266 15.8961L10.6562 17.2297V47.375H4.40625V17.2297Z" fill="#646464"/>
<path d="M9.09375 17.6875H5.96875V19.25H9.09375V17.6875Z" fill="#646464"/>
<path d="M9.09375 20.8125H5.96875V22.375H9.09375V20.8125Z" fill="#646464"/>
<path d="M9.09375 23.9375H5.96875V25.5H9.09375V23.9375Z" fill="#646464"/>
<path d="M9.09375 27.0625H5.96875V28.625H9.09375V27.0625Z" fill="#646464"/>
<path d="M9.09375 30.1875H5.96875V31.75H9.09375V30.1875Z" fill="#646464"/>
<path d="M9.09375 33.3125H5.96875V34.875H9.09375V33.3125Z" fill="#646464"/>
<path d="M9.09375 36.4375H5.96875V38H9.09375V36.4375Z" fill="#646464"/>
<path d="M9.09375 39.5625H5.96875V41.125H9.09375V39.5625Z" fill="#646464"/>
<path d="M9.09375 42.6875H5.96875V44.25H9.09375V42.6875Z" fill="#646464"/>
<path d="M44.25 24.7188H38V26.2812H44.25V24.7188Z" fill="#646464"/>
<path d="M44.25 27.8438H38V29.4062H44.25V27.8438Z" fill="#646464"/>
<path d="M44.25 30.9688H38V32.5312H44.25V30.9688Z" fill="#646464"/>
<path d="M44.25 34.0938H38V35.6562H44.25V34.0938Z" fill="#646464"/>
<path d="M44.25 37.2188H38V38.7812H44.25V37.2188Z" fill="#646464"/>
<path d="M44.25 40.3438H38V41.9062H44.25V40.3438Z" fill="#646464"/>
<path d="M44.25 43.4688H38V45.0312H44.25V43.4688Z" fill="#646464"/>
</svg>
