<svg width="51" height="50" viewBox="0 0 51 50" fill="none" xmlns="http://www.w3.org/2000/svg">
<path d="M45.9688 17.1875H5.03125C3.15625 14.375 3.15625 10.625 5.03125 7.8125H45.9688C47.8438 10.625 47.8438 14.375 45.9688 17.1875Z" stroke="#646464" stroke-miterlimit="10" stroke-linecap="round" stroke-linejoin="round"/>
<path d="M25.5 42.1875C15.1875 42.1875 6.75 33.75 6.75 23.4375V17.1875H44.25V23.4375C44.25 33.75 35.8125 42.1875 25.5 42.1875Z" stroke="#646464" stroke-miterlimit="10" stroke-linecap="round" stroke-linejoin="round"/>
<path d="M25.5 37.5C29.8147 37.5 33.3125 34.0022 33.3125 29.6875C33.3125 25.3728 29.8147 21.875 25.5 21.875C21.1853 21.875 17.6875 25.3728 17.6875 29.6875C17.6875 34.0022 21.1853 37.5 25.5 37.5Z" stroke="#646464" stroke-miterlimit="10" stroke-linecap="round" stroke-linejoin="round"/>
<path d="M34.875 21.875H38" stroke="#646464" stroke-miterlimit="10" stroke-linecap="round" stroke-linejoin="round"/>
<path d="M25.5 31.25C26.3629 31.25 27.0625 30.5504 27.0625 29.6875C27.0625 28.8246 26.3629 28.125 25.5 28.125C24.6371 28.125 23.9375 28.8246 23.9375 29.6875C23.9375 30.5504 24.6371 31.25 25.5 31.25Z" stroke="#646464" stroke-miterlimit="10" stroke-linecap="round" stroke-linejoin="round"/>
</svg>
