<?xml version="1.0" encoding="UTF-8"?>
<svg version="1.1" xmlns="http://www.w3.org/2000/svg" width="512" height="512">
<path d="M0 0 C1.46602064 -0.00542746 2.93203582 -0.01255361 4.39804077 -0.02124023 C8.360925 -0.03940263 12.32339048 -0.03243566 16.28628159 -0.01972389 C20.44387649 -0.00955929 24.60143681 -0.01899915 28.7590332 -0.02526855 C35.73948569 -0.03253493 42.7197686 -0.02298388 49.70019531 -0.00390625 C57.75738141 0.01786063 65.81416256 0.01080854 73.87133884 -0.01121187 C80.80323775 -0.02939477 87.73501513 -0.03191011 94.6669302 -0.0214572 C98.80085826 -0.0152381 102.9345963 -0.01434278 107.06851196 -0.02760315 C110.95602898 -0.03920329 114.8430266 -0.03106076 118.73048782 -0.00802612 C120.15262619 -0.00276112 121.57480867 -0.00421482 122.99692917 -0.01307678 C132.52002754 -0.06692487 138.73740322 0.55536962 146.19921875 6.83007812 C151.20918919 12.81420948 153.3674375 17.66501688 153.44921875 25.51757812 C152.96579925 30.41614657 152.11527059 35.24369844 151.2578125 40.08789062 C151.00163073 41.58831963 150.7465199 43.08893181 150.49237061 44.58970642 C149.78718961 48.73441572 149.06648469 52.87629873 148.34331894 57.01790237 C147.56973269 61.46470971 146.81092623 65.91404107 146.05004883 70.36303711 C144.08031427 81.85870533 142.08512255 93.34991437 140.08804321 104.84085846 C139.05898825 110.76352865 138.03134715 116.68644412 137.00360978 122.60934305 C136.63657841 124.72446656 136.26949627 126.83958125 135.9023962 128.95469284 C134.77624759 135.44321922 133.65022175 141.9317668 132.52478713 148.42041707 C131.89755521 152.03664127 131.27019886 155.65284387 130.64282227 159.26904297 C130.51862415 159.9849902 130.39442604 160.70093743 130.26646435 161.43858004 C128.76786704 170.07647781 127.26552827 178.71370948 125.75724208 187.34992093 C124.79736773 192.84623317 123.8397271 198.34293135 122.88371956 203.83991748 C122.32536201 207.04959886 121.76531346 210.25897056 121.20287323 213.46793938 C120.58535162 216.9918192 119.97224618 220.51644149 119.36010742 224.04125977 C119.17995307 225.0626259 118.99979872 226.08399204 118.81418514 227.13630867 C118.64795934 228.09853277 118.48173353 229.06075687 118.31047058 230.05213928 C118.09577511 231.28142198 118.09577511 231.28142198 117.87674236 232.53553867 C116.77943122 240.18944365 116.30231366 247.73465483 116.31791687 255.46286011 C116.31580116 256.41188269 116.31368544 257.36090527 116.31150562 258.33868611 C116.30555625 261.49061384 116.30650209 264.64250096 116.30737305 267.79443359 C116.3043384 270.06525235 116.3008161 272.3360705 116.29684448 274.60688782 C116.28898217 279.48221783 116.28382083 284.35754061 116.28055382 289.23287582 C116.27462803 296.93873062 116.25807567 304.64453963 116.23921204 312.35037231 C116.23287571 314.99092672 116.22655007 317.63148115 116.22023487 320.2720356 C116.21865111 320.93170278 116.21706735 321.59136996 116.21543559 322.27102705 C116.19753585 329.76271285 116.18128828 337.25440166 116.16625977 344.74609375 C116.16488389 345.43022151 116.16350802 346.11434926 116.16209046 346.81920816 C116.14011596 357.9285937 116.1293913 369.03796783 116.12188902 380.14737128 C116.11382299 391.56540965 116.09029118 402.98332727 116.05393535 414.40131485 C116.03414096 420.807607 116.02178173 427.21372764 116.02676964 433.62005234 C116.03139792 439.63661484 116.01771057 445.65285108 115.98975754 451.66934776 C115.98281739 453.88009381 115.9827493 456.09087339 115.98995781 458.30161858 C115.99878742 461.31287129 115.98324844 464.32303417 115.96147156 467.334198 C115.96991409 468.21453449 115.97835663 469.09487098 115.987055 470.00188434 C115.90813645 475.87811216 115.90813645 475.87811216 113.62521076 479.05919075 C110.46164597 481.17946643 107.98123678 481.0356438 104.19921875 481.04882812 C103.5040918 481.05265503 102.80896484 481.05648193 102.09277344 481.0604248 C100.62693834 481.06313992 99.16105447 481.05580648 97.6953125 481.0390625 C95.455929 481.01764231 93.21975288 481.03887255 90.98046875 481.06445312 C89.55337836 481.06180977 88.12628996 481.05668463 86.69921875 481.04882812 C85.405 481.04431641 84.11078125 481.03980469 82.77734375 481.03515625 C79.44921875 480.51757812 79.44921875 480.51757812 77.12109375 479.171875 C72.07794706 471.16529047 72.50384124 458.91068059 71.29443359 449.61645508 C71.08746533 448.04159696 70.88026997 446.46676868 70.67286682 444.89196777 C70.11454684 440.6466966 69.55975714 436.40097152 69.00591993 432.15511346 C68.54208104 428.60116276 68.07668112 425.04741711 67.6113497 421.49366158 C66.51364417 413.10964408 65.41901588 404.72522863 64.32617188 396.34057617 C63.20057139 387.70513406 62.06909787 379.0704753 60.9348644 370.43616325 C59.9587539 363.00366053 58.98661469 355.57064544 58.01757014 348.13721818 C57.43980898 343.70574638 56.86048893 339.27449252 56.27720261 334.84374428 C55.72926176 330.68036311 55.18628538 326.51636373 54.6470623 322.35184479 C54.44889637 320.82786982 54.24899362 319.30411948 54.0471859 317.78062248 C53.77101387 315.69359628 53.50125298 313.60583345 53.23300171 311.51777649 C53.08073812 310.35216847 52.92847454 309.18656046 52.77159691 307.98563099 C52.41763904 304.17785257 52.44921875 300.34177251 52.44921875 296.51757812 C46.83921875 296.84757812 41.22921875 297.17757813 35.44921875 297.51757812 C35.02699287 300.80500473 35.02699287 300.80500473 34.59623718 304.15884399 C31.94531426 324.79054185 29.28231947 345.42065571 26.60817242 366.04935646 C25.23358711 376.65535901 23.86308914 387.26185987 22.50219727 397.86962891 C21.31604931 407.11523625 20.12224806 416.3598175 18.9192422 425.60324705 C18.282515 430.49770164 17.64963398 435.39258461 17.02591515 440.28871536 C16.43863634 444.89783013 15.84112714 449.5055032 15.23577499 454.11227798 C15.01550971 455.80244817 14.79897354 457.49310922 14.58646965 459.18427277 C14.29544783 461.49576468 13.99097594 463.80510492 13.68315125 466.1144104 C13.51630672 467.40676416 13.34946218 468.69911793 13.17756176 470.03063393 C12.42392675 473.63866365 11.33097159 476.35700541 9.44921875 479.51757812 C4.95571987 481.76432757 -1.15626705 480.78614415 -6.15380859 480.81274414 C-8.41044816 480.82996114 -10.66562362 480.87384935 -12.921875 480.91796875 C-14.35806215 480.92809572 -15.79426175 480.93661182 -17.23046875 480.94335938 C-19.19089111 480.96523315 -19.19089111 480.96523315 -21.19091797 480.98754883 C-24.55078125 480.51757812 -24.55078125 480.51757812 -26.73070908 478.94536209 C-29.13891997 475.73306321 -29.09707715 473.06167631 -29.03179932 469.20306396 C-29.03521702 468.46460684 -29.03863472 467.72614972 -29.04215598 466.9653151 C-29.04874689 464.4898287 -29.02673998 462.01542562 -29.00488281 459.54003906 C-29.00375459 457.76607285 -29.0043877 455.99210477 -29.00665283 454.21813965 C-29.0078019 449.40018513 -28.98426142 444.58262783 -28.956357 439.76476574 C-28.93137545 434.7305877 -28.92900391 429.69640087 -28.92425537 424.66217041 C-28.91181605 415.12823727 -28.87898147 405.59448729 -28.83885741 396.06063485 C-28.79416948 385.20708642 -28.77216015 374.3535293 -28.75207567 363.49991179 C-28.71024966 341.17234225 -28.63688531 318.84502384 -28.55078125 296.51757812 C-52.31078125 296.84757812 -76.07078125 297.17757813 -100.55078125 297.51757812 C-101.23180908 302.81771973 -101.91283691 308.11786133 -102.61450195 313.57861328 C-104.86364709 331.07015325 -107.12465976 348.56014382 -109.39182758 366.04935646 C-110.76641289 376.65535901 -112.13691086 387.26185987 -113.49780273 397.86962891 C-114.68395069 407.11523625 -115.87775194 416.3598175 -117.0807578 425.60324705 C-117.717485 430.49770164 -118.35036602 435.39258461 -118.97408485 440.28871536 C-119.56136366 444.89783013 -120.15887286 449.5055032 -120.76422501 454.11227798 C-120.98449029 455.80244817 -121.20102646 457.49310922 -121.41353035 459.18427277 C-121.70455217 461.49576468 -122.00902406 463.80510492 -122.31684875 466.1144104 C-122.56711555 468.05294105 -122.56711555 468.05294105 -122.82243824 470.03063393 C-123.57607325 473.63866365 -124.66902841 476.35700541 -126.55078125 479.51757812 C-131.04428013 481.76432757 -137.15626705 480.78614415 -142.15380859 480.81274414 C-144.41044816 480.82996114 -146.66562362 480.87384935 -148.921875 480.91796875 C-150.35806215 480.92809572 -151.79426175 480.93661182 -153.23046875 480.94335938 C-155.19089111 480.96523315 -155.19089111 480.96523315 -157.19091797 480.98754883 C-160.55078125 480.51757812 -160.55078125 480.51757812 -162.72902679 479.03606606 C-165.33801065 475.42927134 -165.10437426 472.03747476 -165.05871582 467.75180054 C-165.06495578 466.85705698 -165.07119575 465.96231342 -165.0776248 465.04045641 C-165.0936074 462.03565644 -165.08092961 459.03166178 -165.06835938 456.02685547 C-165.07377837 453.87502569 -165.08089978 451.72319963 -165.08959961 449.57138062 C-165.10786873 443.71980085 -165.10074878 437.86850253 -165.08808327 432.01691771 C-165.07796642 425.89299471 -165.08734602 419.76909605 -165.09362793 413.64517212 C-165.10091146 403.35373608 -165.09130153 393.06241473 -165.07226562 382.77099609 C-165.05053029 370.88313458 -165.05752125 358.99554784 -165.07957125 347.10769308 C-165.09774651 336.89944881 -165.10027209 326.6912871 -165.08981657 316.48303187 C-165.0835889 310.38721571 -165.08272542 304.29152848 -165.09596252 298.19572067 C-165.10754997 292.45828335 -165.09944205 286.7211984 -165.0763855 280.98379898 C-165.07111242 278.8820021 -165.07258808 276.78017538 -165.08143616 274.6783905 C-165.1734277 250.59902281 -165.1734277 250.59902281 -156.25390625 241.04882812 C-149.44528926 234.92731927 -142.33198058 232.25881965 -133.16845703 232.29052734 C-132.45557022 232.29023529 -131.74268341 232.28994324 -131.00819397 232.28964233 C-128.67069993 232.29102674 -126.33353156 232.30654552 -123.99609375 232.32226562 C-122.3679929 232.32599893 -120.73988979 232.3288444 -119.11178589 232.33084106 C-114.84071577 232.33845257 -110.56978314 232.35807957 -106.29876709 232.38024902 C-101.93487406 232.4007611 -97.57095867 232.40985422 -93.20703125 232.41992188 C-84.65488505 232.44132795 -76.10285028 232.4754337 -67.55078125 232.51757812 C-67.40471939 230.65028549 -67.40471939 230.65028549 -67.25570679 228.74526978 C-66.38078557 220.05786542 -64.75525699 211.47396 -63.27197266 202.87451172 C-62.93159299 200.88608959 -62.59149742 198.89761882 -62.25166321 196.90910339 C-61.3314483 191.53063448 -60.40669292 186.15295609 -59.48066378 180.77548552 C-58.90180873 177.41290766 -58.32391314 174.05016635 -57.74634933 170.68736649 C-55.73007121 158.94817142 -53.70999598 147.20963673 -51.68652344 135.47167969 C-49.80221552 124.54037697 -47.92643047 113.60763467 -46.05455077 102.67419755 C-44.44481432 93.27425516 -42.82901329 83.87536824 -41.20852983 74.47727263 C-40.24173913 68.86965447 -39.27742151 63.26163853 -38.31926346 57.6525383 C-37.41841684 52.38014243 -36.51002456 47.10910154 -35.59586143 41.83899879 C-35.26217936 39.90775579 -34.93117345 37.97604813 -34.60307884 36.04384804 C-34.15386436 33.40090685 -33.69490975 30.75983235 -33.23355103 28.11898804 C-33.10678848 27.35924946 -32.98002593 26.59951089 -32.8494221 25.81674993 C-31.7236259 19.47559121 -30.16544738 12.74773605 -25.86328125 7.76757812 C-25.42628906 7.23648437 -24.98929688 6.70539062 -24.5390625 6.15820312 C-16.88843975 -0.15468794 -9.52963098 -0.05938404 0 0 Z M-13.26745605 20.18667603 C-14.97210606 23.2828299 -15.5240608 26.36676757 -16.08398438 29.81201172 C-16.21741241 30.57501209 -16.35084045 31.33801247 -16.48831177 32.12413406 C-16.94676124 34.76138788 -17.38906312 37.40112029 -17.83203125 40.04101562 C-18.16897939 41.99760998 -18.50703898 43.95401317 -18.84606934 45.9102478 C-19.6319867 50.45559278 -20.41104867 55.00205643 -21.18652344 59.54919434 C-22.71336221 68.48761593 -24.2686358 77.42103575 -25.82421875 86.35449219 C-28.61259014 102.37470334 -31.38926197 118.39691142 -34.15927124 134.42030716 C-34.47857556 136.26734689 -34.79788098 138.11438643 -35.1171875 139.96142578 C-35.27575541 140.87870414 -35.43432331 141.79598249 -35.5976963 142.74105716 C-36.90351381 150.29369323 -38.2120616 157.8458546 -39.52111292 165.39793074 C-40.79692971 172.75902586 -42.07082642 180.12045159 -43.34322119 187.48213899 C-44.09756521 191.84632797 -44.85269566 196.21037723 -45.6098175 200.57408524 C-46.31471716 204.63715163 -47.01723869 208.70062192 -47.71788788 212.76442337 C-47.97502178 214.25335694 -48.23302012 215.74214152 -48.49193573 217.2307663 C-48.84415416 219.2566111 -49.19328645 221.28296395 -49.54162598 223.30947876 C-49.73771706 224.44291025 -49.93380814 225.57634174 -50.13584137 226.74411964 C-50.62476334 229.54468674 -50.62476334 229.54468674 -50.55078125 232.51757812 C-11.28078125 232.51757812 27.98921875 232.51757812 68.44921875 232.51757812 C76.92329445 184.23025916 76.92329445 184.23025916 85.33203125 135.93164062 C85.62365043 134.24975872 85.91527525 132.56787778 86.20690536 130.88599777 C87.56689107 123.04224038 88.9263266 115.19838791 90.28500569 107.35440409 C91.83316668 98.41662195 93.38348156 89.47921648 94.9354068 80.5420872 C96.15604279 73.51195468 97.37476777 66.48149256 98.59203231 59.4507755 C99.31164792 55.29467237 100.03208064 51.13871496 100.75458145 46.98311234 C101.42501794 43.12672009 102.09309688 39.26992706 102.75931358 35.41280365 C103.00354664 34.00126199 103.24864573 32.58986987 103.49466515 31.17863846 C103.82926111 29.25854383 104.16046758 27.33785946 104.4914856 25.41714478 C104.67760469 24.34354517 104.86372379 23.26994556 105.05548286 22.16381264 C105.52280417 19.46891697 105.52280417 19.46891697 105.44921875 16.51757812 C90.93260176 16.47084007 76.41599645 16.43571343 61.89931965 16.41395378 C55.15884701 16.40364488 48.41842114 16.38959193 41.67797852 16.36669922 C35.1746507 16.34462237 28.67135326 16.33301327 22.16798973 16.32782364 C19.68525616 16.32412464 17.2025253 16.31690157 14.71981239 16.30611801 C11.24584806 16.29162737 7.77208534 16.28959919 4.2980957 16.29052734 C3.26878937 16.28333679 2.23948303 16.27614624 1.1789856 16.26873779 C0.22972702 16.27148712 -0.71953156 16.27423645 -1.69755554 16.27706909 C-2.51887309 16.27522551 -3.34019064 16.27338192 -4.1863966 16.27148247 C-7.80778792 16.64841296 -10.64476981 17.6366764 -13.26745605 20.18667603 Z M123.33967018 19.00697041 C120.75304548 22.44212871 120.24329851 25.91603313 119.57699585 30.06230164 C119.42389784 30.93324945 119.27079984 31.80419726 119.1130625 32.70153743 C118.60352534 35.62306836 118.11706486 38.54797238 117.63037109 41.47338867 C117.269885 43.56796265 116.90797766 45.66229244 116.54475403 47.75639343 C115.56156745 53.44841498 114.59818846 59.14363407 113.63812971 64.83959556 C112.62983566 70.80049991 111.6030149 76.7582095 110.57803345 82.71626282 C108.63768995 94.01158312 106.71336911 105.30957012 104.79507029 116.60865289 C101.98158508 133.17589563 99.14301531 149.73884326 96.30581093 166.30203724 C95.88685238 168.74813393 95.46790885 171.19423319 95.04898071 173.64033508 C94.74205746 175.43227247 94.74205746 175.43227247 94.42893374 177.26041061 C93.2144831 184.35397095 92.00420456 191.44822755 90.79775596 198.54315317 C90.04599788 202.96325148 89.29263933 207.38307628 88.539114 211.80287361 C88.19082195 213.84851815 87.84332275 215.89429786 87.49668694 217.94022369 C87.02231496 220.73981149 86.54518975 223.53891748 86.06747437 226.3379364 C85.93206344 227.14165528 85.79665251 227.94537417 85.65713823 228.77344817 C85.27128493 231.02493121 84.86565504 233.27156316 84.44921875 235.51757812 C84.30411086 236.3305006 84.15900298 237.14342307 84.00949788 237.98097956 C83.77490743 239.18027852 83.77490743 239.18027852 83.53557777 240.40380573 C83.39935969 241.12148162 83.26314161 241.83915751 83.1227957 242.57858115 C82.31007028 244.91813883 81.39401152 245.99850696 79.44921875 247.51757812 C76.39302063 247.91630554 76.39302063 247.91630554 72.59106445 247.94995117 C71.89812286 247.96014282 71.20518127 247.97033447 70.49124146 247.98083496 C68.20241257 248.01101256 65.91400185 248.02023776 63.625 248.02929688 C62.03743595 248.04614011 60.44988527 248.06428987 58.86235046 248.08369446 C54.68505021 248.13123956 50.50780414 248.16101954 46.33032227 248.18713379 C42.06711118 248.2169167 37.80408688 248.26345476 33.54101562 248.30859375 C25.177175 248.39467811 16.81331745 248.46200034 8.44921875 248.51757812 C9.10921875 251.15757812 9.76921875 253.79757812 10.44921875 256.51757812 C10.77921875 264.43757812 11.10921875 272.35757813 11.44921875 280.51757812 C40.48921875 280.51757812 69.52921875 280.51757812 99.44921875 280.51757812 C99.44833252 273.79656738 99.44744629 267.07555664 99.4465332 260.15087891 C99.79793031 235.15587932 103.37858744 211.25156094 107.88592315 186.71354055 C108.92613141 181.00213898 109.92254173 175.2830862 110.92366028 169.56472778 C112.81156786 158.81505492 114.7323024 148.07157316 116.66809493 137.33043015 C120.15171274 117.9958993 123.58252865 98.65197963 126.99287969 79.30440247 C128.18788594 72.53311366 129.3994033 65.76505138 130.62488019 58.99921298 C131.37927095 54.82134077 132.12259055 50.64155081 132.86327553 46.46122932 C133.20907972 44.52410352 133.55974224 42.58783787 133.91557312 40.65252876 C134.39974487 38.01612272 134.86678425 35.37722804 135.32975769 32.73703003 C135.54758424 31.58715349 135.54758424 31.58715349 135.76981133 30.41404712 C136.49511235 26.1572275 136.60213516 23.32138285 134.44921875 19.51757812 C132.51754477 17.16944078 132.51754477 17.16944078 129.07421875 17.14257812 C125.51729883 17.21154586 125.51729883 17.21154586 123.33967018 19.00697041 Z M-144.48828125 254.26757812 C-149.98045067 262.9219057 -148.55078125 269.95845418 -148.55078125 280.51757812 C-101.03078125 280.51757812 -53.51078125 280.51757812 -4.55078125 280.51757812 C-3.62053574 266.4012056 -3.62053574 266.4012056 -8.83984375 253.93945312 C-15.28203707 247.94511282 -23.24639049 248.2226737 -31.48388672 248.24291992 C-32.56285217 248.23780899 -33.64181763 248.23269806 -34.753479 248.22743225 C-38.30836587 248.21357027 -41.86305812 248.21449055 -45.41796875 248.21679688 C-47.89747184 248.21290802 -50.37697426 248.20857295 -52.85647583 248.20381165 C-58.04968425 248.19635667 -63.24282468 248.19663547 -68.43603516 248.2019043 C-75.07923712 248.20769708 -81.72215305 248.19076875 -88.36532402 248.16755962 C-93.48525612 248.15280214 -98.60512135 248.15195336 -103.72507095 248.15506935 C-106.17379433 248.15455713 -108.62252154 248.14933806 -111.07122421 248.13925743 C-114.50062754 248.126872 -117.92949152 248.13369793 -121.35888672 248.14526367 C-122.36281464 248.13761993 -123.36674255 248.1299762 -124.40109253 248.12210083 C-131.56001242 248.17525848 -139.37361646 248.67340877 -144.48828125 254.26757812 Z M-148.55078125 296.51757812 C-148.55078125 351.95757812 -148.55078125 407.39757812 -148.55078125 464.51757812 C-145.58078125 464.51757812 -142.61078125 464.51757812 -139.55078125 464.51757812 C-136.80724852 443.64739597 -134.0688657 422.77654386 -131.33660126 401.90488338 C-130.06782617 392.21369185 -128.79737091 382.52272613 -127.52294922 372.83227539 C-126.41208598 364.38545774 -125.30438633 355.93823227 -124.20047331 347.49050337 C-123.61592741 343.01810513 -123.02980639 338.54592615 -122.43989563 334.0742321 C-121.88443739 329.86331266 -121.33321843 325.65185973 -120.78521156 321.43996429 C-120.5836075 319.8962552 -120.38047048 318.35274539 -120.1756649 316.80945778 C-119.89560789 314.69734034 -119.62114948 312.58456551 -119.34802246 310.47154236 C-119.19316124 309.29072555 -119.03830002 308.10990873 -118.87874603 306.89330959 C-118.54414011 303.44922103 -118.55078125 299.97788261 -118.55078125 296.51757812 C-128.45078125 296.51757812 -138.35078125 296.51757812 -148.55078125 296.51757812 Z M-12.55078125 296.51757812 C-12.55078125 351.95757812 -12.55078125 407.39757812 -12.55078125 464.51757812 C-9.58078125 464.51757812 -6.61078125 464.51757812 -3.55078125 464.51757812 C-0.80724852 443.64739597 1.9311343 422.77654386 4.66339874 401.90488338 C5.93217383 392.21369185 7.20262909 382.52272613 8.47705078 372.83227539 C9.58791402 364.38545774 10.69561367 355.93823227 11.79952669 347.49050337 C12.38407259 343.01810513 12.97019361 338.54592615 13.56010437 334.0742321 C14.11556261 329.86331266 14.66678157 325.65185973 15.21478844 321.43996429 C15.4163925 319.8962552 15.61952952 318.35274539 15.8243351 316.80945778 C16.10439211 314.69734034 16.37885052 312.58456551 16.65197754 310.47154236 C16.80683876 309.29072555 16.96169998 308.10990873 17.12125397 306.89330959 C17.45585989 303.44922103 17.44921875 299.97788261 17.44921875 296.51757812 C7.54921875 296.51757812 -2.35078125 296.51757812 -12.55078125 296.51757812 Z M69.44921875 296.51757812 C70.17741575 307.3058305 70.17741575 307.3058305 71.32202148 318.00288391 C71.49023407 319.30804962 71.65844666 320.61321533 71.83175659 321.95793152 C72.01535862 323.35062744 72.19904671 324.74331201 72.3828125 326.13598633 C72.57871407 327.64375537 72.77427056 329.15156928 72.96951294 330.65942383 C73.49464 334.70655449 74.02483478 338.75300534 74.55626297 342.79931283 C75.00036897 346.18470888 75.44183808 349.57044664 75.88329601 352.95618886 C76.92347215 360.93375096 77.96767902 368.91077796 79.01464844 376.88745117 C80.09502346 385.11906112 81.16930498 393.3514499 82.24053478 401.58425456 C83.16227181 408.666858 84.08731609 415.74902374 85.01514149 422.83083218 C85.56859731 427.05525234 86.12087528 431.27981763 86.6701355 435.50478554 C87.18503839 439.4640871 87.70407232 443.42282502 88.22637558 447.38115692 C88.41773267 448.83669229 88.60761868 450.2924219 88.79596329 451.74835014 C89.05217926 453.72710015 89.31412617 455.70510564 89.57641602 457.68305969 C89.72168228 458.79222905 89.86694855 459.90139841 90.01661682 461.04417896 C90.19390928 463.45383813 90.19390928 463.45383813 91.44921875 464.51757812 C94.08921875 464.51757812 96.72921875 464.51757812 99.44921875 464.51757812 C99.44921875 409.07757813 99.44921875 353.63757813 99.44921875 296.51757812 C89.54921875 296.51757812 79.64921875 296.51757812 69.44921875 296.51757812 Z " fill="#636363" transform="translate(260.55078125,15.482421875)"/>
</svg>
