<?xml version="1.0" encoding="UTF-8"?>
<svg version="1.1" xmlns="http://www.w3.org/2000/svg" width="512" height="512">
<path d="M0 0 C5.52954753 4.1109183 8.94823692 8.97470189 11.0859375 15.55078125 C11.49737209 18.3638165 11.53081563 21.12893745 11.51953125 23.96875 C11.5247731 24.74841629 11.53001495 25.52808258 11.53541565 26.33137512 C11.54180018 27.9675681 11.54054544 29.6038072 11.53198242 31.23999023 C11.5234241 33.74219772 11.55235712 36.24215531 11.58398438 38.74414062 C11.58559548 40.33984307 11.5850206 41.93554954 11.58203125 43.53125 C11.59326523 44.27610153 11.60449921 45.02095306 11.61607361 45.78837585 C11.5696862 49.23914579 11.33959012 51.20507149 9.27368164 54.02075195 C6.066945 56.26342783 3.90212872 56.09595142 0.0859375 55.55078125 C-3.11005008 53.19584303 -4.2269688 51.3796397 -4.9140625 47.55078125 C-5.00469421 45.36595986 -5.04559212 43.17886897 -5.0546875 40.9921875 C-5.07402344 39.71923828 -5.09335937 38.44628906 -5.11328125 37.13476562 C-5.14225114 35.12234063 -5.16406304 33.11103589 -5.16455078 31.09838867 C-5.1678957 29.14615295 -5.20467037 27.19406556 -5.2421875 25.2421875 C-5.2515332 24.07888916 -5.26087891 22.91559082 -5.27050781 21.71704102 C-6.09886329 17.64156979 -7.74679777 16.15644687 -10.9140625 13.55078125 C-14.4204845 12.07439304 -15.85472446 12.532366 -19.5390625 13.67578125 C-23.28274257 15.75560351 -24.15696391 16.73232942 -25.9140625 20.55078125 C-26.21093613 23.17495052 -26.35179516 25.56490179 -26.34643555 28.18676758 C-26.3566272 28.93852264 -26.36681885 29.69027771 -26.37731934 30.46481323 C-26.40739607 32.93755599 -26.4167069 35.40991102 -26.42578125 37.8828125 C-26.44263192 39.60203839 -26.46078269 41.32125199 -26.48017883 43.04045105 C-26.52764292 47.55638793 -26.55747545 52.07227497 -26.58361816 56.58837891 C-26.61344184 61.20029543 -26.65996596 65.81204029 -26.70507812 70.42382812 C-26.79107054 79.4660757 -26.85688962 88.50830548 -26.9140625 97.55078125 C-19.6540625 97.55078125 -12.3940625 97.55078125 -4.9140625 97.55078125 C-4.99256734 92.88427513 -4.99256734 92.88427513 -5.09423828 88.21826172 C-5.13026056 83.93393412 -4.66887741 80.46715625 -2.9140625 76.55078125 C0.8065211 74.07039218 2.68390321 74.08740922 7.0859375 74.55078125 C11.0859375 78.55078125 11.0859375 78.55078125 11.0859375 97.55078125 C38.1459375 97.55078125 65.2059375 97.55078125 93.0859375 97.55078125 C92.96740291 72.33120135 92.96740291 72.33120135 92.81567383 47.11181641 C92.80212402 42.20581055 92.80212402 42.20581055 92.79960632 39.90048218 C92.79503527 38.30922927 92.78455902 36.71798599 92.76921082 35.12680054 C92.6547593 22.62341366 92.66871264 11.87082111 101.87109375 2.46875 C108.70619643 -3.45018371 115.50759487 -4.16249558 124.421875 -3.89453125 C131.47036689 -3.03789151 136.71287785 -0.27196978 141.5234375 4.92578125 C146.96935266 12.00239417 148.24434262 19.42334011 148.19946289 28.18676758 C148.19960892 28.93852264 148.19975494 29.69027771 148.1999054 30.46481323 C148.19921145 32.93750951 148.1914434 35.41012946 148.18359375 37.8828125 C148.18172773 39.60202493 148.18030469 41.3212379 148.17930603 43.04045105 C148.17549536 47.55644204 148.16567747 52.07240067 148.15460205 56.58837891 C148.14435674 61.20019086 148.13980173 65.81200806 148.13476562 70.42382812 C148.12405388 79.46616002 148.1069949 88.50846794 148.0859375 97.55078125 C148.91158203 97.53700439 149.73722656 97.52322754 150.58789062 97.5090332 C151.67005859 97.49831787 152.75222656 97.48760254 153.8671875 97.4765625 C154.94033203 97.46278564 156.01347656 97.44900879 157.11914062 97.43481445 C162.2671245 97.63603996 164.96947526 99.34379505 168.3984375 103.05078125 C171.431715 107.54452569 171.23981542 111.67054753 171.24707031 116.89916992 C171.25203522 117.75172867 171.25700012 118.60428741 171.26211548 119.48268127 C171.27674892 122.31137906 171.28354562 125.14002052 171.2890625 127.96875 C171.29481863 129.94395447 171.3005763 131.91915894 171.30633545 133.8943634 C171.31685266 138.04635884 171.32268875 142.19833491 171.32617188 146.3503418 C171.33161913 151.6298384 171.35556244 156.90907218 171.38414383 162.18848705 C171.40293146 166.27672525 171.40798458 170.36490263 171.40950775 174.45318031 C171.41250512 176.39652231 171.42043296 178.339864 171.43369293 180.28316307 C171.65026804 214.5021461 160.39779311 244.70455774 136.4140625 269.3828125 C125.66024965 279.93182178 112.1183633 289.06221449 98.0859375 294.55078125 C98.07191895 296.45754639 98.07191895 296.45754639 98.05761719 298.40283203 C98.017651 303.13316487 97.95187336 307.86285187 97.87841797 312.59277344 C97.85024684 314.6372852 97.82901315 316.68190509 97.81494141 318.7265625 C97.79345863 321.67113447 97.7467806 324.61441166 97.6953125 327.55859375 C97.69408386 328.46819855 97.69285522 329.37780334 97.69158936 330.31497192 C97.53274019 337.24649061 95.69193274 341.01160641 90.6484375 345.92578125 C87.75407274 347.76123207 86.42140172 347.69555933 83.0859375 347.55078125 C83.09704056 348.67973312 83.10814362 349.808685 83.11958313 350.97184753 C83.22093157 361.60997338 83.29588979 372.24800131 83.34499836 382.88650036 C83.37109447 388.3559347 83.40649338 393.82497938 83.46313477 399.29418945 C83.51745313 404.57210941 83.54735793 409.84965452 83.56032372 415.12783241 C83.56956385 417.14171564 83.5876078 419.1555783 83.61458778 421.16930199 C83.65087563 423.98986549 83.65588295 426.80887938 83.65356445 429.62963867 C83.67154083 430.4625795 83.68951721 431.29552032 83.70803833 432.15370178 C83.66989298 436.44123959 83.46123058 438.06831244 80.73796082 441.56929016 C78.0859375 443.55078125 78.0859375 443.55078125 75.0859375 444.17578125 C70.96262397 443.3167576 69.66648733 441.86197565 67.0859375 438.55078125 C66.38660023 435.5999472 66.45238164 432.74197664 66.51831055 429.72143555 C66.51758041 428.84288406 66.51685028 427.96433258 66.51609802 427.05915833 C66.51957327 424.16380435 66.5584311 421.27007188 66.59765625 418.375 C66.60698461 416.36433287 66.61410061 414.35365436 66.61909485 412.3429718 C66.63816278 407.05728644 66.68726227 401.77229077 66.74261475 396.48687744 C66.79381137 391.09095591 66.8166098 385.69492266 66.84179688 380.29882812 C66.89538108 369.71579444 66.98331574 359.13345317 67.0859375 348.55078125 C57.5159375 348.55078125 47.9459375 348.55078125 38.0859375 348.55078125 C38.0859375 396.40078125 38.0859375 444.25078125 38.0859375 493.55078125 C47.6559375 493.55078125 57.2259375 493.55078125 67.0859375 493.55078125 C66.88865162 485.21853172 66.88865162 485.21853172 66.63549805 476.88793945 C66.52072454 467.2995387 66.52072454 467.2995387 69.41796875 464.2578125 C72.72298738 462.14318125 74.23776559 461.74907877 78.0859375 462.55078125 C81.46630184 465.20905044 82.92804645 466.67567637 83.70117188 470.96069336 C83.69053711 472.87507202 83.69053711 472.87507202 83.6796875 474.828125 C83.67972778 475.51709366 83.67976807 476.20606232 83.67980957 476.91590881 C83.67446844 478.36745362 83.65694531 479.81899907 83.62792969 481.27026367 C83.58612056 483.47861226 83.58686095 485.6839008 83.59375 487.89257812 C83.50154091 500.3324463 83.50154091 500.3324463 80.0859375 505.55078125 C75.65084022 509.57008816 70.37301603 509.001605 64.7109375 508.984375 C63.70885254 508.98961685 62.70676758 508.9948587 61.67431641 509.0002594 C59.55957972 509.00667137 57.44480734 509.00535331 55.33007812 508.99682617 C52.09701026 508.98831042 48.8657062 509.01709933 45.6328125 509.04882812 C43.57552136 509.05044014 41.5182271 509.0498626 39.4609375 509.046875 C38.49623535 509.05810898 37.5315332 509.06934296 36.53759766 509.08091736 C32.30417587 509.03700777 29.76576048 508.95124222 26.0625 506.76977539 C22.42963716 502.69133043 21.83441794 499.74383022 21.8074646 494.29925537 C21.79071938 492.37258026 21.79071938 492.37258026 21.77363586 490.40698242 C21.77127097 488.98584014 21.76909531 487.56469753 21.76708984 486.14355469 C21.75779062 484.64544127 21.74762196 483.14733304 21.73664856 481.64923096 C21.70933372 477.58349278 21.69419477 473.51778929 21.68122053 469.45198345 C21.66559649 465.20250658 21.63880395 460.9531006 21.6131897 456.70367432 C21.56638904 448.6573264 21.52965116 440.61096517 21.49651682 432.56455064 C21.45830453 423.40376615 21.40889203 414.24305283 21.35853267 405.08232832 C21.25519367 386.23853137 21.16593966 367.394691 21.0859375 348.55078125 C19.99152344 348.10089844 18.89710938 347.65101563 17.76953125 347.1875 C14.39779537 345.8014743 11.83589306 343.96740886 9.0859375 341.55078125 C8.5290625 342.31261719 7.9721875 343.07445312 7.3984375 343.859375 C-5.53782488 361.36266244 -5.53782488 361.36266244 -9.9140625 363.55078125 C-13.08362948 363.82639577 -15.28960038 363.82081892 -18.2265625 362.55078125 C-20.74760736 359.56287623 -21.15856904 356.35266115 -20.9140625 352.55078125 C-19.36221352 349.94002355 -18.03957663 348.12213859 -16.0390625 345.92578125 C-15.01089669 344.70709848 -13.98755253 343.48433361 -12.96875 342.2578125 C-12.45280273 341.64244629 -11.93685547 341.02708008 -11.40527344 340.39306641 C-0.0823574 326.40440819 7.25262637 311.67224242 7.0859375 293.55078125 C6.07853516 293.42316406 6.07853516 293.42316406 5.05078125 293.29296875 C1.23881435 292.33872144 -1.96058635 290.60077702 -5.3515625 288.67578125 C-6.05168457 288.27866943 -6.75180664 287.88155762 -7.47314453 287.47241211 C-34.51521166 271.70550161 -54.78944503 245.84217001 -62.9140625 215.55078125 C-65.78618373 203.79395646 -67.08184377 192.24602906 -67.01171875 180.16796875 C-67.00959633 178.75754807 -67.00959633 178.75754807 -67.00743103 177.31863403 C-67.00189258 174.35431557 -66.98935212 171.39007637 -66.9765625 168.42578125 C-66.97153953 166.39974068 -66.96697803 164.37369892 -66.96289062 162.34765625 C-66.95194342 157.41533466 -66.93472231 152.48307133 -66.9140625 147.55078125 C-81.27786205 143.79577781 -94.71945057 141.17178476 -109.6640625 141.23828125 C-110.32458618 141.2404364 -110.98510986 141.24259155 -111.66564941 141.24481201 C-121.77304939 141.29767434 -131.14641485 141.78100791 -140.9140625 144.55078125 C-141.61321777 144.74414062 -142.31237305 144.9375 -143.03271484 145.13671875 C-163.88348816 151.03556228 -181.19414783 161.69993503 -196.9140625 176.55078125 C-197.67589844 177.24816406 -198.43773437 177.94554687 -199.22265625 178.6640625 C-218.18221062 196.63785148 -228.68103569 222.21182357 -232.9140625 247.55078125 C-233.04683594 248.32421875 -233.17960937 249.09765625 -233.31640625 249.89453125 C-237.62748983 280.60361974 -228.57871596 313.11473139 -210.4140625 337.98828125 C-189.50446222 364.50512728 -160.91873612 384.02451724 -126.765625 388.3046875 C-96.06945245 390.26600481 -70.55375288 385.32129362 -43.69140625 370.30859375 C-40.58915628 368.98587618 -38.08894566 369.74262917 -34.9140625 370.55078125 C-32.3510985 372.78304022 -31.97653919 374.13129494 -31.4765625 377.48828125 C-32.03493366 381.39687935 -33.20723403 382.68345173 -35.9140625 385.55078125 C-38.27953458 387.24092509 -40.77150605 388.59169163 -43.3515625 389.92578125 C-44.08802002 390.31008301 -44.82447754 390.69438477 -45.58325195 391.09033203 C-80.23304422 408.50355611 -120.44362616 410.12619334 -157.0234375 398.2734375 C-190.62434045 386.7884953 -219.84819522 361.1634655 -235.94921875 329.52929688 C-252.75485239 295.06754207 -255.88165883 255.35013866 -243.72998047 218.84716797 C-236.62845397 198.860047 -225.80095455 181.61052546 -210.9140625 166.55078125 C-210.07746094 165.64199219 -209.24085938 164.73320312 -208.37890625 163.796875 C-186.58218334 140.68511602 -153.83147296 126.06428844 -122.15380859 124.34692383 C-118.15584896 124.24786067 -114.1627983 124.21775094 -110.1640625 124.23828125 C-109.46295349 124.23943939 -108.76184448 124.24059753 -108.03948975 124.24179077 C-93.71125524 124.28854834 -80.56659834 125.94102736 -66.9140625 130.55078125 C-66.94886719 129.27203125 -66.98367188 127.99328125 -67.01953125 126.67578125 C-67.04769037 124.96746116 -67.07498824 123.25912673 -67.1015625 121.55078125 C-67.12669922 120.71160156 -67.15183594 119.87242188 -67.17773438 119.0078125 C-67.24877464 112.89834998 -66.81748365 106.75129666 -62.49682617 101.98852539 C-57.95593523 98.04300037 -54.57458493 97.42539929 -48.7265625 97.48828125 C-47.63988281 97.49730469 -46.55320312 97.50632812 -45.43359375 97.515625 C-44.18642578 97.53302734 -44.18642578 97.53302734 -42.9140625 97.55078125 C-42.92405525 96.09618248 -42.92405525 96.09618248 -42.93424988 94.61219788 C-42.9952217 85.44687983 -43.04011205 76.28160326 -43.06949902 67.11612797 C-43.08511535 62.40472483 -43.10627953 57.69348621 -43.14038086 52.98217773 C-43.17311868 48.43045383 -43.1909458 43.87888759 -43.19869423 39.32705498 C-43.20421195 37.59562132 -43.21498642 35.86419571 -43.23125267 34.13282967 C-43.34257955 21.78559263 -43.19734187 11.8839156 -34.12890625 2.50390625 C-24.82283312 -5.70250744 -10.60689164 -6.25489457 0 0 Z M113.0859375 14.55078125 C109.0227986 18.88479608 108.94325171 23.1914437 108.97241211 28.86791992 C108.97226608 29.60962936 108.97212006 30.35133881 108.9719696 31.11552429 C108.97266616 33.5666293 108.98044653 36.01765827 108.98828125 38.46875 C108.99014634 40.16840066 108.99156982 41.86805186 108.99256897 43.56770325 C108.99638695 48.04097986 109.00621112 52.51422401 109.01727295 56.98748779 C109.02750251 61.55220094 109.0320699 66.11691932 109.03710938 70.68164062 C109.04783402 79.63803739 109.06542502 88.59440154 109.0859375 97.55078125 C116.6759375 97.55078125 124.2659375 97.55078125 132.0859375 97.55078125 C132.15377542 87.74524452 132.20878944 77.93986424 132.24137402 68.13414574 C132.25701476 63.58071533 132.2782239 59.02745413 132.31225586 54.47412109 C132.34490616 50.07802294 132.36280249 45.6820873 132.37056923 41.28587723 C132.37610257 39.61057605 132.38690789 37.93528353 132.40312767 36.26005173 C132.42497768 33.90933926 132.42790132 31.55929415 132.42651367 29.20849609 C132.4372995 28.51941162 132.44808533 27.83032715 132.459198 27.12036133 C132.43003494 22.53994511 131.45208464 19.45705401 129.0859375 15.55078125 C123.78671503 10.42819953 119.3108827 11.20775512 113.0859375 14.55078125 Z M-50.9140625 113.55078125 C-54.99770104 194.74965424 -54.99770104 194.74965424 -18.9140625 258.55078125 C-18.2746875 259.2159375 -17.6353125 259.88109375 -16.9765625 260.56640625 C-7.83018501 269.35550337 4.43591958 276.45426852 16.140625 281.2578125 C19.00588426 283.16223181 20.69577154 285.45323207 22.0859375 288.55078125 C22.67680822 291.95419012 22.69108149 295.31314123 22.6953125 298.76171875 C22.71094238 299.62063721 22.72657227 300.47955566 22.74267578 301.36450195 C22.79499705 304.55131719 22.81349428 307.73861556 22.8359375 310.92578125 C22.9184375 318.06203125 23.0009375 325.19828125 23.0859375 332.55078125 C42.2259375 332.55078125 61.3659375 332.55078125 81.0859375 332.55078125 C81.29558261 319.74729273 81.29558261 319.74729273 81.47387695 306.94335938 C81.50620091 305.32289387 81.53957939 303.70244891 81.57421875 302.08203125 C81.58046265 301.25928711 81.58670654 300.43654297 81.59313965 299.58886719 C81.75010552 293.20368568 82.59968695 287.14273191 87.19921875 282.34765625 C91.1077192 279.91476016 95.15796715 277.85831545 99.2734375 275.80078125 C106.58434374 272.04327848 112.96717589 268.08940982 119.0859375 262.55078125 C120.30603516 261.54144531 120.30603516 261.54144531 121.55078125 260.51171875 C140.49339185 244.45865892 151.05312309 221.7476677 155.0859375 197.55078125 C155.0859375 169.83078125 155.0859375 142.11078125 155.0859375 113.55078125 C87.1059375 113.55078125 19.1259375 113.55078125 -50.9140625 113.55078125 Z " fill="#636363" transform="translate(334.9140625,3.44921875)"/>
<path d="M0 0 C3.0625 1.875 3.0625 1.875 5 5 C6.09337413 13.16304973 4.16432135 21.61829101 2.84765625 29.65234375 C2.62524349 31.04324329 2.40344769 32.43424162 2.18223572 33.82533264 C1.72036942 36.71970585 1.25349212 39.61320631 0.7824707 42.50610352 C0.17903992 46.21267324 -0.41528123 49.92062923 -1.00635433 53.62918758 C-1.57260581 57.17909571 -2.1436566 60.72822711 -2.71484375 64.27734375 C-2.82290785 64.95178968 -2.93097195 65.62623562 -3.04231071 66.32111931 C-3.34837065 68.22614808 -3.65834693 70.13054641 -3.96850586 72.03491211 C-4.23164833 73.65845863 -4.23164833 73.65845863 -4.50010681 75.31480408 C-5 78 -5 78 -6 81 C-4.97116699 80.97381592 -3.94233398 80.94763184 -2.88232422 80.9206543 C0.95290177 80.82981448 4.78803367 80.77262964 8.62402344 80.7253418 C10.28076189 80.700274 11.93739059 80.6662101 13.59375 80.62280273 C15.98204684 80.56180357 18.36887593 80.53371474 20.7578125 80.51171875 C21.49242706 80.48591232 22.22704163 80.4601059 22.98391724 80.43351746 C26.85274085 80.43143101 29.43859148 80.93740238 32.46777344 83.27490234 C35.82602287 86.88893822 35.82602287 86.88893822 35.7578125 90.08984375 C35.30567853 96.35125334 32.03554667 101.2873161 28.875 106.5625 C28.24190918 107.65457764 27.60881836 108.74665527 26.95654297 109.87182617 C24.98853028 113.25847439 22.99539321 116.62943015 21 120 C19.8365251 121.99361616 18.67498517 123.98836316 17.515625 125.984375 C15.22642974 129.92251652 12.92850374 133.85536867 10.625 137.78515625 C6.74763403 144.41498644 2.93192223 151.07958957 -0.875 157.75 C-1.54123566 158.91594802 -2.20749544 160.08188226 -2.8737793 161.24780273 C-6.02652058 166.76817746 -9.16922012 172.29395073 -12.29077148 177.83203125 C-13.73786231 180.39780874 -15.18941634 182.96104726 -16.64141846 185.52404785 C-17.3299929 186.74242166 -18.01637378 187.96203821 -18.70037842 189.1829834 C-27.39223857 204.69611929 -27.39223857 204.69611929 -32 207 C-36.70327389 207.4626171 -38.92920376 207.64693939 -43 205.1875 C-48.00454456 197.21150711 -44.31139667 185.226647 -42.84765625 176.46875 C-42.6251619 175.10171491 -42.40336808 173.73456564 -42.18223572 172.36730957 C-41.72090437 169.52588328 -41.25401897 166.68545147 -40.7824707 163.84570312 C-40.17841888 160.2076614 -39.58425098 156.56809519 -38.99364567 152.92784882 C-38.42749579 149.44093362 -37.85651737 145.95481441 -37.28515625 142.46875 C-37.17709215 141.80689194 -37.06902805 141.14503387 -36.95768929 140.46311951 C-36.65162746 138.59411446 -36.34165204 136.72575155 -36.03149414 134.85742188 C-35.76835167 133.265047 -35.76835167 133.265047 -35.49989319 131.64050293 C-35 129 -35 129 -34 126 C-35.00377686 126.01571045 -36.00755371 126.0314209 -37.04174805 126.04760742 C-40.77831955 126.10205114 -44.51485621 126.13640226 -48.25170898 126.16479492 C-49.86667789 126.17984876 -51.48160613 126.20029648 -53.09643555 126.22631836 C-55.42246555 126.26285286 -57.74795341 126.27976015 -60.07421875 126.29296875 C-61.15107185 126.31619453 -61.15107185 126.31619453 -62.24967957 126.33988953 C-66.69377329 126.3413697 -69.48338101 125.75629073 -73 123 C-75.54874677 119.17687985 -75.85979787 116.40976087 -75 112 C-73.14037125 107.62979603 -70.7748165 103.59304797 -68.375 99.5 C-67.6866421 98.29826124 -66.99973435 97.09569079 -66.31420898 95.89233398 C-64.56355841 92.82982284 -62.79250637 89.77974563 -61.01275635 86.73406982 C-59.48556556 84.11917093 -57.96832194 81.49850957 -56.44921875 78.87890625 C-54.17340312 74.96451645 -51.88624492 71.0569844 -49.59375 67.15234375 C-45.69916997 60.50555085 -41.877624 53.81756347 -38.0625 47.125 C-36.72550059 44.78111294 -35.38819976 42.43739795 -34.05078125 40.09375 C-33.71923538 39.5127504 -33.38768951 38.93175079 -33.0460968 38.33314514 C-29.29231825 31.75708944 -25.52559666 25.18855108 -21.75 18.625 C-21.1300415 17.5436377 -20.51008301 16.46227539 -19.87133789 15.34814453 C-10.18180904 -1.47460683 -10.18180904 -1.47460683 0 0 Z M-17 43 C-16 45 -16 45 -16 45 Z M-18 45 C-18.40613525 45.7120459 -18.81227051 46.4240918 -19.23071289 47.15771484 C-21.17399863 50.56384399 -23.11804391 53.96953889 -25.0625 57.375 C-25.59747101 58.31205276 -25.59747101 58.31205276 -26.14324951 59.26803589 C-30.14425102 66.27464982 -34.15287606 73.27665541 -38.19140625 80.26171875 C-38.52501663 80.83887634 -38.85862701 81.41603394 -39.2023468 82.01068115 C-40.78267034 84.74382849 -42.36487324 87.47586646 -43.94946289 90.20654297 C-47.73696905 96.74980281 -51.41273518 103.3448304 -55 110 C-54.05680908 110.00410889 -53.11361816 110.00821777 -52.1418457 110.01245117 C-48.62806324 110.03948859 -45.11601318 110.08862841 -41.6027832 110.15258789 C-40.08498832 110.17572451 -38.56703387 110.19015348 -37.04907227 110.19555664 C-34.8611357 110.20487922 -32.67569313 110.24593151 -30.48828125 110.29296875 C-29.17384033 110.3086792 -27.85939941 110.32438965 -26.50512695 110.34057617 C-22.15835673 111.15833938 -20.65977181 112.52210343 -18 116 C-16.99200629 124.2403486 -19.08854627 132.56453645 -20.5 140.6875 C-20.8601199 142.77595372 -21.21796136 144.86470316 -21.56994629 146.95454407 C-21.88827348 148.84259695 -22.21441193 150.72932801 -22.54101562 152.6159668 C-22.9722849 155.79566011 -23.08556259 158.79659781 -23 162 C-20.3091852 158.76733025 -18.06115192 155.57222803 -16.0390625 151.88671875 C-15.4917749 150.89736328 -14.9444873 149.90800781 -14.38061523 148.88867188 C-13.80126221 147.83228516 -13.22190918 146.77589844 -12.625 145.6875 C-7.11324141 135.7334176 -1.47402559 125.86596712 4.29248047 116.05737305 C6.85307583 111.69784002 9.40531233 107.33381786 11.90234375 102.9375 C12.30831787 102.22464844 12.71429199 101.51179688 13.13256836 100.77734375 C14.14620039 99.0300599 14.14620039 99.0300599 14 97 C13.11739502 96.98541748 12.23479004 96.97083496 11.32543945 96.95581055 C8.03561357 96.89457933 4.7466007 96.8203967 1.45727539 96.73754883 C0.03648798 96.70439443 -1.38442813 96.67633308 -2.80541992 96.65356445 C-4.8539082 96.61984153 -6.9012272 96.56752255 -8.94921875 96.51171875 C-10.17987061 96.48553467 -11.41052246 96.45935059 -12.6784668 96.43237305 C-16.22738812 95.97040027 -18.1568715 95.13455453 -21 93 C-24.73632544 85.52734911 -20.8729472 74.21385721 -19.5 66.3125 C-19.1398801 64.22404628 -18.78203864 62.13529684 -18.43005371 60.04545593 C-18.11172652 58.15740305 -17.78558807 56.27067199 -17.45898438 54.3840332 C-17.0277151 51.20433989 -16.91443741 48.20340219 -17 45 C-17.33 45 -17.66 45 -18 45 Z M-24 162 C-23 164 -23 164 -23 164 Z " fill="#636363" transform="translate(245,165)"/>
<path d="M0 0 C2.375 1.0625 2.375 1.0625 4 3 C4.82940442 6.25837452 5.39693315 8.74063095 4.37109375 11.99536133 C2.43870093 14.82066001 0.16052114 15.96035004 -2.8125 17.63671875 C-3.38202393 17.96162796 -3.95154785 18.28653717 -4.53833008 18.62129211 C-6.35333437 19.65354628 -8.17638181 20.67055619 -10 21.6875 C-11.22711564 22.38248779 -12.45368492 23.07844121 -13.6796875 23.77539062 C-25.74697239 30.61800325 -25.74697239 30.61800325 -31 30 C-34.32274404 27.54405875 -35.77618008 26.0743356 -36.625 22 C-35.60623022 17.10990503 -32.44071742 14.96903919 -28.45263672 12.28662109 C-25.37329134 10.36528522 -22.2588868 8.51842905 -19.125 6.6875 C-18.06152344 6.04232422 -16.99804688 5.39714844 -15.90234375 4.73242188 C-6.09862901 -1.02193243 -6.09862901 -1.02193243 0 0 Z " fill="#636363" transform="translate(70,352)"/>
<path d="M0 0 C5.4312128 1.09163067 10.04586572 4.38429293 14.7109375 7.24462891 C15.78601563 7.87884766 16.86109375 8.51306641 17.96875 9.16650391 C29.73051205 16.20596249 29.73051205 16.20596249 31.3984375 21.43212891 C31.47315641 25.09335572 30.67457694 26.6250963 28.4609375 29.49462891 C25.49355986 30.97831773 23.80009052 30.86107571 20.4609375 30.49462891 C17.04006687 29.04672903 13.86360584 27.22333313 10.6484375 25.36962891 C9.79701172 24.89525391 8.94558594 24.42087891 8.06835938 23.93212891 C-7.78882639 14.99510114 -7.78882639 14.99510114 -9.5390625 11.49462891 C-9.94522479 7.83916826 -9.75340503 5.90545209 -8.0390625 2.61962891 C-5.24062829 0.24095983 -3.62989505 -0.10147207 0 0 Z " fill="#636363" transform="translate(43.5390625,154.50537109375)"/>
<path d="M0 0 C5.37493553 5.03008347 8.74659413 12.87439105 12.375 19.25 C13.03677246 20.40230103 13.03677246 20.40230103 13.71191406 21.57788086 C15.99316537 25.68778963 17.76483949 29.20415082 18 34 C15.86956522 38.56521739 15.86956522 38.56521739 13 40 C9.75 40.5 9.75 40.5 6 40 C0.97518366 35.76387241 -2.13696013 29.64358004 -5.1875 23.9375 C-5.82461914 22.77250977 -5.82461914 22.77250977 -6.47460938 21.58398438 C-7.66521462 19.3971962 -8.83529591 17.20066398 -10 15 C-10.89525391 13.33710937 -10.89525391 13.33710937 -11.80859375 11.640625 C-13.32804579 8.27292146 -13.08742263 6.49528701 -12 3 C-8.70248618 -1.34672276 -5.02096019 -1.34629373 0 0 Z " fill="#636363" transform="translate(124,78)"/>
<path d="M0 0 C2.375 1.125 2.375 1.125 4 3 C5.25005572 7.66643837 4.9569861 10.08550567 2.6875 14.3125 C2.13835937 15.33730469 1.58921875 16.36210937 1.0234375 17.41796875 C0.35155996 18.61344505 -0.32316703 19.80732228 -1 21 C-1.4031543 21.71881348 -1.80630859 22.43762695 -2.22167969 23.17822266 C-3.53082907 25.5013981 -4.85526349 27.81499313 -6.1875 30.125 C-6.61522705 30.87177002 -7.0429541 31.61854004 -7.48364258 32.38793945 C-7.89509521 33.08749756 -8.30654785 33.78705566 -8.73046875 34.5078125 C-9.09551514 35.13316895 -9.46056152 35.75852539 -9.83666992 36.40283203 C-11 38 -11 38 -14 40 C-17.49620463 40.54275757 -20.83715034 40.67520303 -23.9375 38.875 C-25.43222746 36.23724566 -25.7287495 34.01674545 -26 31 C-25.13671875 28.38671875 -25.13671875 28.38671875 -23.6875 25.6875 C-23.13835937 24.66269531 -22.58921875 23.63789063 -22.0234375 22.58203125 C-21.35155996 21.38655495 -20.67683297 20.19267772 -20 19 C-19.5968457 18.28118652 -19.19369141 17.56237305 -18.77832031 16.82177734 C-17.46917093 14.4986019 -16.14473651 12.18500687 -14.8125 9.875 C-14.38477295 9.12822998 -13.9570459 8.38145996 -13.51635742 7.61206055 C-13.10490479 6.91250244 -12.69345215 6.21294434 -12.26953125 5.4921875 C-11.90448486 4.86683105 -11.53943848 4.24147461 -11.16333008 3.59716797 C-8.1110893 -0.59333763 -4.78237884 -0.41950692 0 0 Z " fill="#636363" transform="translate(137,419)"/>
<path d="M0 0 C5.47510735 4.2892973 8.41079075 10.4531868 11.75 16.4375 C12.33910156 17.46166016 12.92820312 18.48582031 13.53515625 19.54101562 C14.09589844 20.53681641 14.65664063 21.53261719 15.234375 22.55859375 C15.74194336 23.45892334 16.24951172 24.35925293 16.77246094 25.28686523 C18.11464992 28.25340186 18.72431955 30.75908051 19 34 C17.86220128 36.32731556 16.83159286 38.16840714 15 40 C7.91778203 40.7082218 7.91778203 40.7082218 4.65625 38.19140625 C0.70875161 33.90659276 -1.92953641 28.61715105 -4.75 23.5625 C-5.33910156 22.53833984 -5.92820312 21.51417969 -6.53515625 20.45898438 C-7.37626953 18.9652832 -7.37626953 18.9652832 -8.234375 17.44140625 C-8.74194336 16.54107666 -9.24951172 15.64074707 -9.77246094 14.71313477 C-11.11414972 11.7477037 -11.72001595 9.23905851 -12 6 C-9.20268456 0.00575263 -6.49372018 -0.66037832 0 0 Z " fill="#636363" transform="translate(320,419)"/>
<path d="M0 0 C2.67928518 2.46225458 2.99438561 3.94788152 3.38818359 7.60351562 C3.40790927 9.03762884 3.41032934 10.47205044 3.3984375 11.90625 C3.40130768 12.66796509 3.40417786 13.42968018 3.40713501 14.21447754 C3.40917234 15.82154079 3.40366558 17.42862902 3.39111328 19.03564453 C3.37505377 21.4917764 3.39097196 23.94626289 3.41015625 26.40234375 C3.40817376 27.96614946 3.40432996 29.52995414 3.3984375 31.09375 C3.40754654 32.19233337 3.40754654 32.19233337 3.4168396 33.31311035 C3.3739796 36.42915584 3.17782466 38.67038669 1.68603516 41.43554688 C-1.01590005 43.94264227 -3.39870296 43.93790867 -7 44 C-9.94755732 42.65437601 -11.54277272 41.91445456 -13 39 C-13.12308974 36.42071047 -13.18835973 33.86945066 -13.203125 31.2890625 C-13.20882507 30.52451752 -13.21452515 29.75997253 -13.22039795 28.97225952 C-13.2298497 27.35326523 -13.23638263 25.73425168 -13.24023438 24.11523438 C-13.24993496 21.64158442 -13.28095335 19.16876719 -13.3125 16.6953125 C-13.31903068 15.12240077 -13.3242809 13.54948309 -13.328125 11.9765625 C-13.3404718 11.23789948 -13.3528186 10.49923645 -13.36553955 9.7381897 C-13.35191207 6.58699406 -13.19351434 4.35364214 -11.66699219 1.56396484 C-8.04790765 -1.83144458 -4.52852652 -1.05126509 0 0 Z " fill="#636363" transform="translate(230,444)"/>
<path d="M0 0 C4.09524461 0.85317596 5.41153492 2.36583952 8 5.625 C8.487904 8.49863185 8.68110053 10.76599171 8.62890625 13.62890625 C8.63131821 14.38920639 8.63373016 15.14950653 8.63621521 15.93284607 C8.63523907 17.53397864 8.62190072 19.13514594 8.59692383 20.73608398 C8.5625499 23.18394652 8.5762885 25.62820865 8.59570312 28.07617188 C8.58880574 29.63543199 8.57913431 31.19468283 8.56640625 32.75390625 C8.57136612 33.48315811 8.57632599 34.21240997 8.58143616 34.96376038 C8.50151314 38.41722244 8.25680332 40.29383702 6.11303711 43.05834961 C3.57281802 44.94172176 2.17097733 45.54950054 -1 45.625 C-6.63855422 43.34789157 -6.63855422 43.34789157 -8 40.625 C-8.28354633 35.68447436 -8.31371247 30.74305999 -8.35009766 25.79516602 C-8.36664678 24.14528284 -8.39392356 22.49547105 -8.43212891 20.84594727 C-8.48701149 18.46332742 -8.5087871 16.08238628 -8.5234375 13.69921875 C-8.54610687 12.96571701 -8.56877625 12.23221527 -8.59213257 11.47648621 C-8.57588737 7.52129675 -8.13785344 5.79931873 -5.65478516 2.65942383 C-3 0.625 -3 0.625 0 0 Z " fill="#636363" transform="translate(225,48.375)"/>
<path d="M0 0 C2.23654438 -0.00970091 4.47216746 -0.04073334 6.70849609 -0.07226562 C8.13687607 -0.07879678 9.5652626 -0.08404681 10.99365234 -0.08789062 C12.28899902 -0.09723633 13.5843457 -0.10658203 14.91894531 -0.11621094 C18.59194028 0.26244834 20.46486492 1.01678158 23.37646484 3.24023438 C24.9223336 6.33197189 24.67006006 8.8345299 24.37646484 12.24023438 C22.86474609 14.43359375 22.86474609 14.43359375 20.37646484 16.24023438 C17.53542652 16.63815993 15.0896419 16.80195188 12.25146484 16.77148438 C11.46755371 16.77531128 10.68364258 16.77913818 9.87597656 16.78308105 C8.22182935 16.7857979 6.56763902 16.77845248 4.91357422 16.76171875 C2.38460323 16.74030329 -0.1415273 16.76152535 -2.67041016 16.78710938 C-4.27979141 16.78446606 -5.88917091 16.77934098 -7.49853516 16.77148438 C-8.6299292 16.78362976 -8.6299292 16.78362976 -9.78417969 16.79602051 C-13.25628854 16.73414565 -15.26782942 16.50043172 -18.10400391 14.42578125 C-20.31613675 11.24406318 -20.09648306 9.02381759 -19.62353516 5.24023438 C-15.67479416 -1.90510648 -7.13762425 0.01876265 0 0 Z " fill="#636363" transform="translate(25.62353515625,259.759765625)"/>
</svg>
