<svg width="51" height="50" viewBox="0 0 51 50" fill="none" xmlns="http://www.w3.org/2000/svg">
<path d="M43.4688 21.0938H34.0938C33.8865 21.0938 33.6878 21.1761 33.5413 21.3226C33.3948 21.4691 33.3125 21.6678 33.3125 21.875V30.4688C33.3125 30.676 33.3948 30.8747 33.5413 31.0212C33.6878 31.1677 33.8865 31.25 34.0938 31.25H43.4688C43.6759 31.25 43.8747 31.1677 44.0212 31.0212C44.1677 30.8747 44.25 30.676 44.25 30.4688V21.875C44.25 21.6678 44.1677 21.4691 44.0212 21.3226C43.8747 21.1761 43.6759 21.0938 43.4688 21.0938ZM34.875 22.6562H38V27.3438H34.875V22.6562ZM42.6875 29.6875H34.875V28.9062H42.6875V29.6875ZM42.6875 27.3438H39.5625V22.6562H42.6875V27.3438ZM30.1875 21.0938H20.8125C20.6053 21.0938 20.4066 21.1761 20.2601 21.3226C20.1136 21.4691 20.0312 21.6678 20.0312 21.875V30.4688C20.0312 30.676 20.1136 30.8747 20.2601 31.0212C20.4066 31.1677 20.6053 31.25 20.8125 31.25H30.1875C30.3947 31.25 30.5934 31.1677 30.7399 31.0212C30.8864 30.8747 30.9688 30.676 30.9688 30.4688V21.875C30.9688 21.6678 30.8864 21.4691 30.7399 21.3226C30.5934 21.1761 30.3947 21.0938 30.1875 21.0938ZM21.5938 22.6562H24.7188V27.3438H21.5938V22.6562ZM29.4062 29.6875H21.5938V28.9062H29.4062V29.6875ZM29.4062 27.3438H26.2812V22.6562H29.4062V27.3438ZM48.9375 5.46875V2.34375C48.9375 2.13655 48.8552 1.93784 48.7087 1.79132C48.5622 1.64481 48.3634 1.5625 48.1562 1.5625H2.84375C2.63655 1.5625 2.43784 1.64481 2.29132 1.79132C2.14481 1.93784 2.0625 2.13655 2.0625 2.34375V5.46875C2.0625 5.67595 2.14481 5.87466 2.29132 6.02118C2.43784 6.16769 2.63655 6.25 2.84375 6.25H3.625V43.75H2.84375C2.63655 43.75 2.43784 43.8323 2.29132 43.9788C2.14481 44.1253 2.0625 44.3241 2.0625 44.5312V47.6562C2.0625 47.8634 2.14481 48.0622 2.29132 48.2087C2.43784 48.3552 2.63655 48.4375 2.84375 48.4375H48.1562C48.3634 48.4375 48.5622 48.3552 48.7087 48.2087C48.8552 48.0622 48.9375 47.8634 48.9375 47.6562V44.5312C48.9375 44.3241 48.8552 44.1253 48.7087 43.9788C48.5622 43.8323 48.3634 43.75 48.1562 43.75V6.25C48.3634 6.25 48.5622 6.16769 48.7087 6.02118C48.8552 5.87466 48.9375 5.67595 48.9375 5.46875ZM17.8594 46.875H3.625V45.3125H18.25L17.8594 46.875ZM19.4688 46.875L19.8594 45.3125H31.1406L31.5312 46.875H19.4688ZM20.0312 43.75V35.1562H24.7188V43.75H20.0312ZM26.2812 43.75V35.1562H30.9688V43.75H26.2812ZM31.75 33.5938H19.25C19.0428 33.5938 18.8441 33.6761 18.6976 33.8226C18.5511 33.9691 18.4688 34.1678 18.4688 34.375V43.75H5.1875V6.25H46.5938V43.75H32.5312V34.375C32.5312 34.1678 32.4489 33.9691 32.3024 33.8226C32.1559 33.6761 31.9572 33.5938 31.75 33.5938ZM47.375 46.875H33.1406L32.75 45.3125H47.375V46.875ZM47.375 4.6875H3.625V3.125H47.375V4.6875ZM16.9062 21.0938H7.53125C7.32405 21.0938 7.12534 21.1761 6.97882 21.3226C6.83231 21.4691 6.75 21.6678 6.75 21.875V30.4688C6.75 30.676 6.83231 30.8747 6.97882 31.0212C7.12534 31.1677 7.32405 31.25 7.53125 31.25H16.9062C17.1135 31.25 17.3122 31.1677 17.4587 31.0212C17.6052 30.8747 17.6875 30.676 17.6875 30.4688V21.875C17.6875 21.6678 17.6052 21.4691 17.4587 21.3226C17.3122 21.1761 17.1135 21.0938 16.9062 21.0938ZM8.3125 22.6562H11.4375V27.3438H8.3125V22.6562ZM16.125 29.6875H8.3125V28.9062H16.125V29.6875ZM16.125 27.3438H13V22.6562H16.125V27.3438ZM43.4688 7.8125H34.0938C33.8865 7.8125 33.6878 7.89481 33.5413 8.04132C33.3948 8.18784 33.3125 8.38655 33.3125 8.59375V17.1875C33.3125 17.3947 33.3948 17.5934 33.5413 17.7399C33.6878 17.8864 33.8865 17.9688 34.0938 17.9688H43.4688C43.6759 17.9688 43.8747 17.8864 44.0212 17.7399C44.1677 17.5934 44.25 17.3947 44.25 17.1875V8.59375C44.25 8.38655 44.1677 8.18784 44.0212 8.04132C43.8747 7.89481 43.6759 7.8125 43.4688 7.8125ZM34.875 9.375H38V14.0625H34.875V9.375ZM42.6875 16.4062H34.875V15.625H42.6875V16.4062ZM42.6875 14.0625H39.5625V9.375H42.6875V14.0625ZM30.1875 7.8125H20.8125C20.6053 7.8125 20.4066 7.89481 20.2601 8.04132C20.1136 8.18784 20.0312 8.38655 20.0312 8.59375V17.1875C20.0312 17.3947 20.1136 17.5934 20.2601 17.7399C20.4066 17.8864 20.6053 17.9688 20.8125 17.9688H30.1875C30.3947 17.9688 30.5934 17.8864 30.7399 17.7399C30.8864 17.5934 30.9688 17.3947 30.9688 17.1875V8.59375C30.9688 8.38655 30.8864 8.18784 30.7399 8.04132C30.5934 7.89481 30.3947 7.8125 30.1875 7.8125ZM21.5938 9.375H24.7188V14.0625H21.5938V9.375ZM29.4062 16.4062H21.5938V15.625H29.4062V16.4062ZM29.4062 14.0625H26.2812V9.375H29.4062V14.0625ZM16.9062 7.8125H7.53125C7.32405 7.8125 7.12534 7.89481 6.97882 8.04132C6.83231 8.18784 6.75 8.38655 6.75 8.59375V17.1875C6.75 17.3947 6.83231 17.5934 6.97882 17.7399C7.12534 17.8864 7.32405 17.9688 7.53125 17.9688H16.9062C17.1135 17.9688 17.3122 17.8864 17.4587 17.7399C17.6052 17.5934 17.6875 17.3947 17.6875 17.1875V8.59375C17.6875 8.38655 17.6052 8.18784 17.4587 8.04132C17.3122 7.89481 17.1135 7.8125 16.9062 7.8125ZM8.3125 9.375H11.4375V14.0625H8.3125V9.375ZM16.125 16.4062H8.3125V15.625H16.125V16.4062ZM16.125 14.0625H13V9.375H16.125V14.0625Z" fill="#646464"/>
</svg>
