<svg width="51" height="50" viewBox="0 0 51 50" fill="none" xmlns="http://www.w3.org/2000/svg">
<g clip-path="url(#clip0_475_13841)">
<path fill-rule="evenodd" clip-rule="evenodd" d="M42.562 36.1746H25.5145C25.1044 36.1746 24.7822 35.8524 24.7822 35.4423C24.7822 35.0322 25.1044 34.71 25.5145 34.71H41.8297V2.16754C41.8297 1.81605 41.3903 1.43526 40.8045 1.43526H25.5145C25.1044 1.43526 24.7822 1.11306 24.7822 0.702982C24.7822 0.292906 25.1044 -0.0292969 25.5145 -0.0292969H40.8045C42.1519 -0.0292969 43.2357 0.966602 43.2357 2.13825V35.413C43.2357 35.8524 42.9135 36.1746 42.562 36.1746Z" fill="#646464"/>
<path fill-rule="evenodd" clip-rule="evenodd" d="M25.5146 36.1746C25.1045 36.1746 24.7823 35.8524 24.7823 35.4423V1.40597H10.2246C9.69737 1.40597 9.19942 1.90392 9.19942 2.43116V35.4423C9.19942 35.8524 8.87722 36.1746 8.46714 36.1746C8.05707 36.1746 7.73486 35.8524 7.73486 35.4423V2.43116C7.73486 1.08377 8.84793 -0.0292969 10.1953 -0.0292969H25.4853C25.8954 -0.0292969 26.2176 0.292906 26.2176 0.702982V35.4423C26.2176 35.8524 25.8954 36.1746 25.5146 36.1746Z" fill="#646464"/>
<path fill-rule="evenodd" clip-rule="evenodd" d="M42.562 46.5143H8.43785C8.02777 46.5143 7.70557 46.1921 7.70557 45.782V35.5008C7.70557 35.0908 8.02777 34.7686 8.43785 34.7686H42.562C42.9721 34.7686 43.2943 35.0908 43.2943 35.5008V45.8113C43.2943 46.2214 42.9721 46.5143 42.562 46.5143ZM9.11154 45.079H41.8298V36.1745H9.11154V45.079Z" fill="#646464"/>
<path fill-rule="evenodd" clip-rule="evenodd" d="M16.083 50H11.9822C11.3671 50 10.8398 49.5314 10.8398 48.8577V45.7821C10.8398 45.372 11.162 45.0498 11.5721 45.0498C11.9822 45.0498 12.3044 45.372 12.3044 45.7821V48.594H15.79V45.7821C15.79 45.372 16.1123 45.0498 16.5223 45.0498C16.9324 45.0498 17.2546 45.372 17.2546 45.7821V48.8577C17.1667 49.4728 16.6981 50 16.083 50Z" fill="#646464"/>
<path fill-rule="evenodd" clip-rule="evenodd" d="M39.0473 50H34.9466C34.3314 50 33.8042 49.4728 33.8042 48.8577V45.7821C33.8042 45.372 34.1264 45.0498 34.5365 45.0498C34.9466 45.0498 35.2688 45.372 35.2688 45.7821V48.594H38.7837V45.7821C38.7837 45.372 39.1059 45.0498 39.516 45.0498C39.9261 45.0498 40.2483 45.372 40.2483 45.7821V48.8577C40.1604 49.4728 39.6624 50 39.0473 50Z" fill="#646464"/>
<path fill-rule="evenodd" clip-rule="evenodd" d="M28.151 42.2376H22.8786C21.7656 42.2376 21.4141 41.7104 21.4141 41.2125V39.7186C21.4141 39.3085 21.7363 38.9863 22.1463 38.9863C22.5564 38.9863 22.8786 39.3085 22.8786 39.7186V40.8317H22.9079H28.2096H28.2389V39.7186C28.2389 39.3085 28.5611 38.9863 28.9712 38.9863C29.3813 38.9863 29.7035 39.3085 29.7035 39.7186V41.2125C29.6156 41.7397 29.2641 42.2376 28.151 42.2376Z" fill="#646464"/>
<path fill-rule="evenodd" clip-rule="evenodd" d="M21.7362 22.0268C21.3261 22.0268 21.0039 21.7046 21.0039 21.2945V14.8211C21.0039 14.4111 21.3261 14.0889 21.7362 14.0889C22.1463 14.0889 22.4685 14.4111 22.4685 14.8211V21.2945C22.4685 21.7046 22.1463 22.0268 21.7362 22.0268Z" fill="#646464"/>
<path fill-rule="evenodd" clip-rule="evenodd" d="M29.264 22.0268C28.8539 22.0268 28.5317 21.7046 28.5317 21.2945V14.8211C28.5317 14.4111 28.8539 14.0889 29.264 14.0889C29.6741 14.0889 29.9963 14.4111 29.9963 14.8211V21.2945C29.9963 21.7046 29.6741 22.0268 29.264 22.0268Z" fill="#646464"/>
</g>
<defs>
<clipPath id="clip0_475_13841">
<rect width="50" height="50" fill="white" transform="translate(0.5)"/>
</clipPath>
</defs>
</svg>
