<svg width="51" height="50" viewBox="0 0 51 50" fill="none" xmlns="http://www.w3.org/2000/svg">
<path d="M29.4609 38.75H27.3437V20.4375H39.4453C40.0414 20.4354 40.6125 20.1977 41.034 19.7762C41.4555 19.3547 41.6932 18.7836 41.6953 18.1875V17.7813C41.6953 17.1845 41.4583 16.6122 41.0363 16.1903C40.6143 15.7683 40.042 15.5313 39.4453 15.5312H11.2266C10.6298 15.5312 10.0575 15.7683 9.63557 16.1903C9.21362 16.6122 8.97656 17.1845 8.97656 17.7813V18.1875C8.97862 18.7836 9.21634 19.3547 9.63785 19.7762C10.0594 20.1977 10.6305 20.4354 11.2266 20.4375H23.3359V38.75H21.2187C21.0498 38.7923 20.8999 38.8899 20.7927 39.0272C20.6856 39.1645 20.6274 39.3337 20.6274 39.5078C20.6274 39.682 20.6856 39.8511 20.7927 39.9884C20.8999 40.1257 21.0498 40.2233 21.2187 40.2656H29.4609C29.6299 40.2233 29.7798 40.1257 29.8869 39.9884C29.9941 39.8511 30.0523 39.682 30.0523 39.5078C30.0523 39.3337 29.9941 39.1645 29.8869 39.0272C29.7798 38.8899 29.6299 38.7923 29.4609 38.75ZM10.4844 18.1875V17.7813C10.4844 17.5741 10.5667 17.3753 10.7132 17.2288C10.8597 17.0823 11.0584 17 11.2656 17H39.4453C39.6457 17.01 39.8345 17.0967 39.9727 17.2422C40.1108 17.3876 40.1877 17.5806 40.1875 17.7813V18.1875C40.1875 18.2846 40.1683 18.3807 40.1309 18.4704C40.0935 18.56 40.0387 18.6413 39.9696 18.7096C39.9006 18.7779 39.8187 18.8318 39.7287 18.8682C39.6387 18.9047 39.5424 18.9229 39.4453 18.9219H11.2266C11.0341 18.9126 10.8518 18.8324 10.7148 18.6969C10.5778 18.5613 10.4957 18.3799 10.4844 18.1875ZM25.8281 20.4375V38.75H24.8437V20.4375H25.8281Z" fill="#646464"/>
<path d="M19.1248 22.7422H7.7029L6.62478 10.8594C6.60175 10.6688 6.50938 10.4934 6.36529 10.3666C6.2212 10.2398 6.03547 10.1705 5.84353 10.1719H3.62478C3.51898 10.1733 3.41456 10.1962 3.31787 10.2392C3.22118 10.2821 3.13422 10.3443 3.06228 10.4219C2.9926 10.5002 2.9394 10.5918 2.90584 10.6911C2.87229 10.7904 2.85907 10.8955 2.86697 11L4.00759 23.5V26.7031C4.00759 26.9103 4.0899 27.1091 4.23642 27.2556C4.38293 27.4021 4.58164 27.4844 4.78884 27.4844H4.87478V39.5078C4.91712 39.6768 5.01468 39.8267 5.15198 39.9338C5.28928 40.041 5.45844 40.0992 5.63259 40.0992C5.80674 40.0992 5.9759 40.041 6.1132 39.9338C6.2505 39.8267 6.34807 39.6768 6.3904 39.5078V27.4922H17.5935V39.5078C17.562 39.6237 17.5577 39.7453 17.5808 39.8631C17.6039 39.9809 17.6539 40.0918 17.7268 40.1872C17.7997 40.2826 17.8936 40.3599 18.0013 40.4131C18.1089 40.4663 18.2274 40.494 18.3474 40.494C18.4675 40.494 18.586 40.4663 18.6936 40.4131C18.8012 40.3599 18.8952 40.2826 18.9681 40.1872C19.041 40.0918 19.091 39.9809 19.1141 39.8631C19.1372 39.7453 19.1328 39.6237 19.1013 39.5078V27.4922C19.3085 27.4922 19.5073 27.4099 19.6538 27.2634C19.8003 27.1169 19.8826 26.9182 19.8826 26.711V23.5C19.8767 23.3009 19.795 23.1116 19.6541 22.9707C19.5132 22.8298 19.3239 22.7481 19.1248 22.7422ZM18.3435 25.9766H5.49197V24.2188H18.3748L18.3435 25.9766ZM5.18728 11.7188L6.18728 22.7422H5.40603L4.40603 11.7188H5.18728Z" fill="#646464"/>
<path d="M47.9609 10.4219C47.8877 10.3386 47.7976 10.2718 47.6966 10.226C47.5956 10.1802 47.4859 10.1564 47.375 10.1563H45.125C44.9331 10.1549 44.7473 10.2242 44.6032 10.351C44.4591 10.4778 44.3668 10.6532 44.3437 10.8438L43.2969 22.7422H31.875C31.6678 22.7422 31.4691 22.8245 31.3226 22.971C31.1761 23.1175 31.0938 23.3163 31.0938 23.5235V26.7578C31.0938 26.965 31.1761 27.1637 31.3226 27.3103C31.4691 27.4568 31.6678 27.5391 31.875 27.5391V39.5078C31.8435 39.6237 31.8392 39.7453 31.8623 39.8631C31.8854 39.9809 31.9353 40.0918 32.0083 40.1872C32.0812 40.2826 32.1751 40.3599 32.2827 40.4131C32.3904 40.4663 32.5088 40.494 32.6289 40.494C32.749 40.494 32.8674 40.4663 32.9751 40.4131C33.0827 40.3599 33.1766 40.2826 33.2496 40.1872C33.3225 40.0918 33.3724 39.9809 33.3955 39.8631C33.4187 39.7453 33.4143 39.6237 33.3828 39.5078V27.4922H44.6094V39.5078C44.6517 39.6768 44.7493 39.8267 44.8866 39.9338C45.0239 40.041 45.193 40.0992 45.3672 40.0992C45.5413 40.0992 45.7105 40.041 45.8478 39.9338C45.9851 39.8267 46.0827 39.6768 46.125 39.5078V27.4922H46.2578C46.465 27.4922 46.6637 27.4099 46.8102 27.2634C46.9568 27.1169 47.0391 26.9182 47.0391 26.711V23.5078L48.1797 11.0078C48.1856 10.9004 48.1691 10.7928 48.1315 10.692C48.0939 10.5912 48.0358 10.4992 47.9609 10.4219ZM45.8125 11.7188H46.5938L45.5703 22.7422H44.7891L45.8125 11.7188ZM32.625 24.2188H45.5078V25.9453H32.625V24.2188Z" fill="#646464"/>
</svg>
