<?xml version="1.0" encoding="UTF-8"?>
<svg version="1.1" xmlns="http://www.w3.org/2000/svg" width="512" height="512">
<path d="M0 0 C2.4375 0.9375 2.4375 0.9375 4 3 C5.3489862 10.80954461 4.78775284 18.33065166 4.22265625 26.203125 C4.13072961 27.57153964 4.03963556 28.94001043 3.94932556 30.30853271 C3.71104267 33.89437888 3.46407155 37.47956579 3.2144165 41.06463623 C2.81671469 46.78569423 2.42911435 52.50741331 2.04766655 58.22957611 C1.91430412 60.20420947 1.77500378 62.178439 1.63551331 64.15264893 C1.0967055 72.11586678 0.890199 80.01913763 1 88 C7.43690614 91.25982136 13.8147235 92.60404539 20.88671875 93.63671875 C21.76501343 93.7699353 22.64330811 93.90315186 23.54821777 94.04040527 C25.69799925 94.36568673 27.84889427 94.68359425 30 95 C29.99111755 93.86882751 29.98223511 92.73765503 29.9730835 91.57220459 C29.89204437 80.91901787 29.832057 70.26589358 29.79275131 59.61246872 C29.77186457 54.13523272 29.74352681 48.65824528 29.69824219 43.18115234 C29.65482363 37.8967672 29.63087108 32.61262133 29.62049103 27.32807159 C29.61309251 25.31059247 29.59864513 23.29312664 29.57707977 21.27574921 C29.54809899 18.45274924 29.54404178 15.63074165 29.54589844 12.80761719 C29.53151733 11.97108109 29.51713623 11.13454498 29.50231934 10.2726593 C29.52853786 6.59551142 29.65085523 4.46175334 31.90338135 1.48272705 C34.17147366 -0.12126603 35.2523414 -0.54293217 38 -0.5 C38.66 -0.5103125 39.32 -0.520625 40 -0.53125 C43.04677354 0.27804922 44.09429754 1.47965732 46 4 C46.37388741 7.05917802 46.50663061 9.75204864 46.45410156 12.80761719 C46.45468567 13.69577621 46.45526978 14.58393524 46.45587158 15.49900818 C46.45308686 18.43202927 46.42197651 21.36403164 46.390625 24.296875 C46.38316399 26.33139491 46.3774704 28.365922 46.37347412 30.40045166 C46.35820681 35.75343695 46.31891528 41.10598762 46.2746582 46.45880127 C46.23372932 51.92169312 46.21546818 57.38465525 46.1953125 62.84765625 C46.15242231 73.56529505 46.08415748 84.28261137 46 95 C48.86316484 94.55224132 51.72473397 94.09670903 54.5859375 93.63671875 C55.38894287 93.51196167 56.19194824 93.38720459 57.01928711 93.25866699 C63.33022161 92.23470742 69.12175779 90.550691 75 88 C75.12780641 78.71041794 74.74446149 69.53043541 74.08984375 60.265625 C73.997162 58.89333094 73.90509839 57.520995 73.81361389 56.14862061 C73.4289336 50.39226151 73.03432632 44.63660714 72.63354492 38.88134766 C72.38688238 35.33305318 72.14806149 31.78429784 71.91385078 28.23516083 C71.78073129 26.25355175 71.63876403 24.2725433 71.49656677 22.29156494 C70.36924188 5.15260072 70.36924188 5.15260072 73.5625 0.9375 C77.00631989 -0.38704611 80.3837318 -0.89700403 84 0 C86.53380146 1.64379234 87.76604695 3.01129302 88.46972656 5.98510742 C88.79004838 8.59464438 88.97473657 11.18759973 89.125 13.8125 C89.23110596 15.30233398 89.23110596 15.30233398 89.33935547 16.82226562 C89.49245207 19.01586853 89.63668533 21.21010269 89.7734375 23.40478516 C89.97227908 26.56010966 90.18984553 29.71348926 90.41726685 32.86686707 C90.66009976 36.24410193 90.8926049 39.6220337 91.125 43 C91.21281738 44.26175049 91.30063477 45.52350098 91.39111328 46.82348633 C91.95643775 55.56888449 92.09784257 64.24076005 92 73 C92.69996094 72.41210693 93.39992188 71.82421387 94.12109375 71.21850586 C126.62917097 44.03863435 167.58613857 24.19291573 210.6875 23.76171875 C211.49930725 23.7519249 212.3111145 23.74213104 213.14752197 23.73204041 C270.08581644 23.18676235 318.79267552 41.43643399 360 81 C361.67717246 82.6566989 363.34062033 84.32539667 365 86 C365.01401855 84.93640259 365.01401855 84.93640259 365.02832031 83.85131836 C365.43180142 59.45455616 368.37952997 38.51685104 386.2265625 20.6484375 C401.70467977 5.86792552 418.98197012 -0.57632309 440.35742188 -0.44604492 C442.52566538 -0.43739764 444.69138106 -0.46663726 446.859375 -0.49804688 C448.24999922 -0.49965612 449.64062807 -0.49908667 451.03125 -0.49609375 C452.89620117 -0.49887329 452.89620117 -0.49887329 454.79882812 -0.50170898 C458.69139715 0.10836037 459.62141119 0.91357857 462 4 C462.50139666 6.97315466 462.50139666 6.97315466 462.50336456 10.52379799 C462.50917833 11.18050639 462.51499209 11.83721479 462.52098203 12.51382345 C462.53563164 14.72415446 462.5216749 16.93338355 462.50793457 19.14370728 C462.51254161 20.7404609 462.5188932 22.3372103 462.52684355 23.93395078 C462.54358829 28.32953272 462.53526717 32.72476862 462.52289867 37.12035203 C462.51387102 41.8581011 462.52780683 46.59578949 462.53881836 51.33352661 C462.55663512 60.61952657 462.55274885 69.90539743 462.5411678 79.19140251 C462.53214288 86.73985994 462.5309054 94.28828113 462.53526306 101.8367424 C462.53587599 102.91015337 462.53648893 103.98356435 462.53712043 105.08950292 C462.53839932 107.27003549 462.53969617 109.45056804 462.5410108 111.63110058 C462.55242668 132.09588162 462.53928879 152.56059109 462.51780933 173.02536039 C462.49995274 190.58155874 462.50302865 208.13765124 462.52148438 225.69384766 C462.54289966 246.07491943 462.55131183 266.45592833 462.53903532 286.83700979 C462.53776112 289.01146085 462.53650364 291.18591192 462.53526306 293.36036301 C462.53433741 294.96519457 462.53433741 294.96519457 462.53339306 296.60244698 C462.52994099 304.13796082 462.53576574 311.67343476 462.54518127 319.20894241 C462.5564106 328.39831836 462.55334217 337.58755767 462.5320583 346.77691801 C462.52155814 351.46472795 462.51740823 356.15231024 462.53065491 360.84011841 C462.54260699 365.13485597 462.53596995 369.4291557 462.5147447 373.72385375 C462.51029035 375.27436853 462.51251861 376.82492058 462.52224785 378.37541123 C462.5865136 389.4716563 461.56880912 399.04690639 453.703125 407.46875 C445.47956115 414.86241291 436.76554365 416.58190067 425.98828125 416.3125 C417.60258669 415.83817365 410.597063 412.22530477 405 406 C399.44067906 398.60728598 397.70416421 391.82356076 397.68115234 382.68994141 C397.67110672 381.77222961 397.6610611 380.85451782 397.65071106 379.90899658 C397.61993636 376.88985798 397.60285974 373.87080784 397.5859375 370.8515625 C397.56722127 368.75262697 397.54764752 366.65369893 397.5272522 364.55477905 C397.47597318 359.04095885 397.43632473 353.52711426 397.39910889 348.01318359 C397.35904279 342.38242583 397.30796231 336.75176913 397.2578125 331.12109375 C397.16110325 320.0808002 397.07668239 309.04044954 397 298 C396.39599365 299.15467773 395.7919873 300.30935547 395.16967773 301.49902344 C394.36194958 303.03587729 393.55408078 304.57265723 392.74609375 306.109375 C392.34982788 306.86782715 391.95356201 307.6262793 391.54528809 308.40771484 C382.76024349 325.08715436 370.95847333 339.42975325 358 353 C357.09701172 353.98226562 357.09701172 353.98226562 356.17578125 354.984375 C325.25232183 387.69936985 276.18911506 407.10590593 231.8359375 408.3828125 C175.28724579 409.62397414 126.82231947 390.970305 85.39453125 352.5859375 C81.55062093 348.84126755 78.0736216 344.93432373 74.7421875 340.7265625 C74.03690918 339.83791504 73.33163086 338.94926758 72.60498047 338.03369141 C72.07533691 337.36257324 71.54569336 336.69145508 71 336 C70.99635437 336.67936615 70.99270874 337.3587323 70.98895264 338.0586853 C70.94696298 345.16495293 70.8775021 352.27058459 70.79248047 359.37646484 C70.76435105 362.02418642 70.74309684 364.67199072 70.72900391 367.31982422 C70.70746404 371.13812364 70.66075353 374.9554368 70.609375 378.7734375 C70.60814636 379.94675629 70.60691772 381.12007507 70.60565186 382.32894897 C70.43553291 391.99505866 68.44089594 400.25457101 61.703125 407.46875 C53.47956115 414.86241291 44.76554365 416.58190067 33.98828125 416.3125 C25.60258669 415.83817365 18.597063 412.22530477 13 406 C8.08870012 399.46901611 5.75564235 393.3290964 5.73257446 385.07931519 C5.72804335 384.40730831 5.72351224 383.73530144 5.71884382 383.04293072 C5.70624292 380.80442831 5.70781732 378.56617054 5.70947266 376.32763672 C5.70348497 374.71749562 5.69667887 373.10735738 5.68911743 371.4972229 C5.67148128 367.133797 5.66676325 362.77044958 5.66548586 358.40699148 C5.66406312 355.68086655 5.65979133 352.9547615 5.65449142 350.22864151 C5.63600378 340.71865829 5.62781982 331.20873107 5.62939453 321.69873047 C5.63059776 312.83152229 5.60945679 303.9645568 5.5779072 295.09741008 C5.55177878 287.4828406 5.54102569 279.8683506 5.54230535 272.25373662 C5.54281571 267.70629084 5.53709101 263.15906114 5.51594925 258.61166 C5.49662289 254.33847277 5.49640363 250.06570912 5.51098251 245.79250717 C5.51307824 244.22354516 5.50832438 242.65455699 5.4962616 241.08563995 C5.48087069 238.9454975 5.49007379 236.80682727 5.50552368 234.66671753 C5.50443415 233.46880522 5.50334461 232.27089291 5.50222206 231.03668022 C6 228 6 228 7.78090477 225.58333015 C10 224 10 224 14 224 C14 197.6 14 171.2 14 144 C11.69 143.67 9.38 143.34 7 143 C-4.1018622 138.76140357 -10.42787499 132.35438694 -16 122 C-18.41014121 116.40965207 -18.32097238 111.14940387 -18.27734375 105.16796875 C-18.27274643 104.05093063 -18.26814911 102.93389252 -18.26341248 101.78300476 C-18.07575418 85.16389463 -16.84732118 68.57896505 -15.74047852 52.00134277 C-15.50061153 48.37750871 -15.26915168 44.75315784 -15.03788853 41.12876606 C-14.75921891 36.76920992 -14.4753842 32.40999422 -14.19140625 28.05078125 C-14.13870638 27.23406763 -14.08600651 26.41735401 -14.03170967 25.57589149 C-13.88151634 23.26173807 -13.72759316 20.94786344 -13.57250977 18.6340332 C-13.48590591 17.3245723 -13.39930206 16.01511139 -13.31007385 14.66596985 C-12.46993501 4.73309862 -12.46993501 4.73309862 -10.4375 1.5625 C-6.94234432 -0.67798441 -4.03821563 -0.64677786 0 0 Z M398 33 C383.53158996 48.66697655 381.66271981 67.04417804 381.77294922 87.54248047 C381.77351505 89.04206332 381.77319343 90.54164672 381.77206421 92.04122925 C381.7714964 96.0651153 381.78315672 100.08887921 381.79721212 104.11273718 C381.80981613 108.3354157 381.81089753 112.55809781 381.81326294 116.78079224 C381.81944955 124.75602849 381.83582172 132.73120912 381.85596192 140.70642102 C381.87840929 149.79483577 381.88933646 158.88325335 381.89935279 167.97168899 C381.92019084 186.64783048 381.95683131 205.32389585 382 224 C403.12 224 424.24 224 446 224 C446 155.36 446 86.72 446 16 C427.41384557 16 411.58084581 19.96022374 398 33 Z M103.30859375 86.76953125 C102.54675781 87.50558594 101.78492188 88.24164063 101 89 C100.40356689 89.48605713 99.80713379 89.97211426 99.19262695 90.47290039 C95.56112137 93.63051129 93.58576445 95.79741397 93.23828125 100.70703125 C93.2351392 102.40903108 93.26075868 104.11128393 93.3125 105.8125 C93.23301512 113.29902469 92.93284221 119.41566095 89 126 C88.60039063 126.69996094 88.20078125 127.39992188 87.7890625 128.12109375 C81.6289728 137.53926558 72.43506226 140.86948132 62 144 C62 170.4 62 196.8 62 224 C63.98 224.66 65.96 225.32 68 226 C69.49050429 228.98100857 69.09209434 231.65644885 69.0625 234.98144531 C69.05305006 236.47259363 69.04386687 237.96374365 69.03491211 239.45489502 C69.02861786 240.24806374 69.02232361 241.04123245 69.01583862 241.85843658 C68.98879765 246.0748871 68.99875404 250.2912995 69.00390625 254.5078125 C69.01008834 259.86664499 69.00520003 265.22442748 68.94873047 270.58300781 C68.90404479 274.91719975 68.90415002 279.24946025 68.93286133 283.58376312 C68.93591266 285.22456411 68.92332788 286.8654815 68.89379883 288.50601959 C68.68298377 300.91803586 71.36844887 308.23338381 79 318 C79.88674435 319.26378388 80.77148634 320.5289809 81.65234375 321.796875 C110.89469246 359.58698718 152.42932379 383.83215158 199.76318359 390.53271484 C203.83594947 391.02872454 207.88792536 391.17681481 211.98828125 391.203125 C212.72474884 391.21018463 213.46121643 391.21724426 214.22000122 391.22451782 C236.78391014 391.49287487 236.78391014 391.49287487 259 388 C259.82387207 387.80132324 260.64774414 387.60264648 261.49658203 387.39794922 C285.77829096 381.38494951 308.11235046 371.15631356 328 356 C328.886875 355.33871094 329.77375 354.67742187 330.6875 353.99609375 C345.08565566 342.78045725 358.05618588 329.31051281 368 314 C368.39477539 313.39623535 368.78955078 312.7924707 369.19628906 312.17041016 C382.17478331 292.06175548 396 264.45303184 396 240 C395.22809326 239.98541748 394.45618652 239.97083496 393.66088867 239.95581055 C390.16924907 239.88141967 386.6785751 239.7847291 383.1875 239.6875 C381.36508789 239.65366211 381.36508789 239.65366211 379.50585938 239.61914062 C378.34248047 239.58369141 377.17910156 239.54824219 375.98046875 239.51171875 C374.90692139 239.48553467 373.83337402 239.45935059 372.72729492 239.43237305 C369.59135846 238.93521581 368.8853315 238.48195831 367 236 C366.6515522 233.78584766 366.6515522 233.78584766 366.68875122 231.15327454 C366.69500015 230.15416046 366.70124908 229.15504639 366.70768738 228.12565613 C366.72954605 227.03013931 366.75140472 225.9346225 366.77392578 224.8059082 C366.78461594 223.65098877 366.79530609 222.49606934 366.80632019 221.30615234 C366.83005457 218.79175576 366.85986598 216.27741102 366.89496231 213.76314735 C366.94567712 209.77208704 366.97069077 205.78139797 366.98434448 201.79008484 C366.98941324 200.42061702 366.99450414 199.05114929 366.99961662 197.68168163 C367.00342044 196.65262614 367.00342044 196.65262614 367.00730109 195.60278165 C367.04417282 186.31421815 367.10761136 177.02668941 367.24316406 167.73901367 C367.33437526 161.47119539 367.37816986 155.20489117 367.37017238 148.93639249 C367.36787596 145.62531189 367.39600494 142.31910161 367.46799088 139.00869179 C367.76195106 125.02178252 367.88278056 114.30904218 357.94309425 103.69224262 C356.83124969 102.59095661 355.70229877 101.50657385 354.55407333 100.44327354 C352.42358733 98.46468346 350.51088544 96.3068872 348.57421875 94.140625 C347.28947857 92.83301779 345.99404688 91.53581849 344.6875 90.25 C343.62329834 89.1971582 343.62329834 89.1971582 342.53759766 88.12304688 C279.85241455 27.33909691 177.90136258 25.17462721 103.30859375 86.76953125 Z M-1 107 C-1.30619722 113.14144142 0.29085882 116.25716374 4 121 C11.13138311 127.60957459 18.27225486 128.15455276 27.6171875 128.16796875 C28.43317413 128.17129715 29.24916077 128.17462555 30.08987427 128.17805481 C31.8094222 128.18309774 33.52897984 128.18546395 35.24853516 128.18530273 C37.85986681 128.18748734 40.47077427 128.20566583 43.08203125 128.22460938 C44.76041524 128.22754435 46.43880121 128.22952845 48.1171875 128.23046875 C48.8882785 128.23765427 49.65936951 128.24483978 50.4538269 128.25224304 C58.20762307 128.2200414 64.76893284 126.95653069 71 122 C75.57266784 116.91925796 77.11117238 113.80930838 77 107 C75.81792969 107.28875 74.63585937 107.5775 73.41796875 107.875 C49.2496825 113.2643768 22.99166015 113.24173272 -1 107 Z M30 144 C30 170.4 30 196.8 30 224 C35.28 224 40.56 224 46 224 C46 197.6 46 171.2 46 144 C40.72 144 35.44 144 30 144 Z M22 240 C21.93220807 258.61983476 21.87697463 277.23956917 21.84456348 295.85949612 C21.82911261 304.50557825 21.80805721 313.15157811 21.77368164 321.79760742 C21.74372469 329.33589153 21.72441207 336.87411602 21.71773452 344.412458 C21.7138329 348.40178596 21.70470089 352.39094343 21.68280983 356.3802166 C21.66234503 360.14028181 21.65618623 363.90010739 21.66067696 367.66022301 C21.65946685 369.68744346 21.64337728 371.71463823 21.6267395 373.74179077 C21.52376829 384.92526394 21.52376829 384.92526394 26.45203876 394.61234188 C31.18271137 398.68853826 34.40012247 399.35594222 40.4609375 399.27734375 C44.22460402 398.86623556 46.21790187 397.5171364 49 395 C53.41556082 389.39104437 54.12634548 384.91826015 54.12025452 377.93193054 C54.12162918 376.71341904 54.12300385 375.49490753 54.12442017 374.23947144 C54.12088153 372.89752172 54.11724673 371.55557226 54.11352539 370.21362305 C54.11324318 368.79418439 54.11340191 367.37474558 54.1139679 365.95530701 C54.11425455 362.10860551 54.10837905 358.26193525 54.10139394 354.415241 C54.09513853 350.39269911 54.09455487 346.37015648 54.09336853 342.34761047 C54.09026167 334.73333712 54.08205696 327.11907814 54.07201904 319.50481111 C54.06083789 310.83497092 54.0553424 302.16513004 54.05032361 293.49528444 C54.03987382 275.66351316 54.02153634 257.83176158 54 240 C43.44 240 32.88 240 22 240 Z M414 240 C413.93220807 258.61983476 413.87697463 277.23956917 413.84456348 295.85949612 C413.82911261 304.50557825 413.80805721 313.15157811 413.77368164 321.79760742 C413.74372469 329.33589153 413.72441207 336.87411602 413.71773452 344.412458 C413.7138329 348.40178596 413.70470089 352.39094343 413.68280983 356.3802166 C413.66234503 360.14028181 413.65618623 363.90010739 413.66067696 367.66022301 C413.65946685 369.68744346 413.64337728 371.71463823 413.6267395 373.74179077 C413.52376829 384.92526394 413.52376829 384.92526394 418.45203876 394.61234188 C423.18271137 398.68853826 426.40012247 399.35594222 432.4609375 399.27734375 C436.22460402 398.86623556 438.21790187 397.5171364 441 395 C445.41556082 389.39104437 446.12634548 384.91826015 446.12025452 377.93193054 C446.12162918 376.71341904 446.12300385 375.49490753 446.12442017 374.23947144 C446.12088153 372.89752172 446.11724673 371.55557226 446.11352539 370.21362305 C446.11324318 368.79418439 446.11340191 367.37474558 446.1139679 365.95530701 C446.11425455 362.10860551 446.10837905 358.26193525 446.10139394 354.415241 C446.09513853 350.39269911 446.09455487 346.37015648 446.09336853 342.34761047 C446.09026167 334.73333712 446.08205696 327.11907814 446.07201904 319.50481111 C446.06083789 310.83497092 446.0553424 302.16513004 446.05032361 293.49528444 C446.03987382 275.66351316 446.02153634 257.83176158 446 240 C435.44 240 424.88 240 414 240 Z " fill="#636363" transform="translate(34,40)"/>
<path d="M0 0 C2.45706801 2.17604323 4.84424037 4.40614053 7.21484375 6.67578125 C7.96121094 7.35898438 8.70757812 8.0421875 9.4765625 8.74609375 C16.09721333 15.00855929 21.19447711 22.11926387 26.21484375 29.67578125 C26.84390625 30.6090625 27.47296875 31.54234375 28.12109375 32.50390625 C45.44644484 60.0669648 50.18505229 96.48210862 43.05175781 128.05761719 C41.08205107 135.84676104 38.44501945 143.32536995 35.21484375 150.67578125 C34.78993652 151.65708008 34.78993652 151.65708008 34.35644531 152.65820312 C24.40015965 175.21111541 7.22390163 194.79236408 -13.78515625 207.67578125 C-14.75710938 208.29710937 -15.7290625 208.9184375 -16.73046875 209.55859375 C-44.32937994 226.55952304 -80.62079217 231.64237737 -112.15942383 224.51416016 C-134.77768013 218.81799624 -154.95203199 207.81310069 -171.78515625 191.67578125 C-172.66816406 190.86753906 -173.55117187 190.05929687 -174.4609375 189.2265625 C-191.2663869 173.3243763 -201.54202084 152.72169495 -207.78515625 130.67578125 C-208.12675781 129.49757813 -208.46835938 128.319375 -208.8203125 127.10546875 C-215.0245213 100.84579428 -211.55294972 71.17838361 -200.78515625 46.67578125 C-200.50188477 46.02158203 -200.21861328 45.36738281 -199.92675781 44.69335938 C-186.64088414 14.59828641 -161.06359339 -9.10840464 -130.58886719 -21.1953125 C-125.39021742 -23.15468202 -120.12915274 -24.81086375 -114.78515625 -26.32421875 C-113.60695313 -26.66582031 -112.42875 -27.00742188 -111.21484375 -27.359375 C-72.3502947 -36.54165857 -30.29721751 -25.28309175 0 0 Z M-163.78515625 21.67578125 C-164.52121094 22.40152344 -165.25726563 23.12726563 -166.015625 23.875 C-181.322524 39.91516362 -191.03829839 62.82577556 -193.78515625 84.67578125 C-193.91921875 85.68125 -194.05328125 86.68671875 -194.19140625 87.72265625 C-197.11599391 116.0379822 -188.73965771 144.76996238 -171.11035156 167.046875 C-151.70808197 190.89579592 -125.00672138 206.48047338 -94.32421875 210.08203125 C-63.47249945 212.79156348 -35.10969433 203.48114354 -11.03515625 184.17578125 C-9.27431778 182.68851938 -7.52314113 181.18968632 -5.78515625 179.67578125 C-5.1715625 179.14726562 -4.55796875 178.61875 -3.92578125 178.07421875 C10.37272514 164.79703424 20.03680246 146.250043 25.21484375 127.67578125 C25.53453125 126.58910156 25.85421875 125.50242187 26.18359375 124.3828125 C30.4270574 107.31072956 30.31641126 86.53396861 25.21484375 69.67578125 C25.01084961 69.00047363 24.80685547 68.32516602 24.59667969 67.62939453 C15.50500263 38.24355915 -3.78817783 14.45912105 -30.78515625 -0.32421875 C-75.39192963 -23.77152405 -128.81051624 -13.80372545 -163.78515625 21.67578125 Z " fill="#636363" transform="translate(338.78515625,157.32421875)"/>
</svg>
