<?xml version="1.0" encoding="UTF-8"?>
<svg version="1.1" xmlns="http://www.w3.org/2000/svg" width="512" height="512">
<path d="M0 0 C1.18586763 -0.00623996 2.37173527 -0.01247993 3.59353828 -0.01890898 C6.8541121 -0.03201757 10.11408076 -0.02741684 13.37463856 -0.0149641 C16.90300881 -0.00586155 20.43130129 -0.01990896 23.95965576 -0.03088379 C30.85942096 -0.04861844 37.75901156 -0.0448517 44.65878344 -0.03323323 C50.26913917 -0.02417919 55.87944617 -0.0229834 61.48980713 -0.02732849 C62.28999555 -0.02794142 63.09018397 -0.02855436 63.91462052 -0.02918586 C65.54047061 -0.03046483 67.1663207 -0.03176169 68.79217076 -0.03307623 C84.01787617 -0.04446722 99.24348505 -0.03139162 114.46917462 -0.00987476 C127.51774676 0.00799489 140.56617653 0.00489036 153.61474609 -0.0135498 C168.78803537 -0.03498274 183.96124017 -0.04336872 199.13454247 -0.03110075 C200.7542254 -0.02982663 202.37390835 -0.02856914 203.99359131 -0.02732849 C205.18879023 -0.02640284 205.18879023 -0.02640284 206.40813458 -0.02545848 C212.00813339 -0.02201285 217.60807837 -0.02781693 223.20806885 -0.0372467 C230.03780368 -0.04849505 236.86735476 -0.04536733 243.69706869 -0.02412373 C247.17801869 -0.01365121 250.65866293 -0.00942589 254.13961029 -0.02272034 C257.92117588 -0.03368582 261.70188696 -0.01989808 265.48339844 0 C266.57222887 -0.00892289 267.6610593 -0.01784577 268.7828846 -0.02703905 C280.20934189 0.08920883 289.44313971 3.58586925 297.74169922 11.50793457 C308.17750752 22.43970208 309.32974369 34.12042874 309.13232422 48.55090332 C309.12484755 50.17185258 309.11916138 51.79281099 309.11517334 53.41377258 C309.1000289 57.6438673 309.06084655 61.87339723 309.01635742 66.10327148 C308.97516052 70.43404504 308.95711062 74.76491143 308.93701172 79.0958252 C308.89433897 87.56678515 308.82622694 96.03728926 308.74169922 104.50793457 C309.58911934 104.49615173 309.58911934 104.49615173 310.45365906 104.48413086 C313.05355246 104.45263814 315.65340552 104.43333836 318.25341797 104.41418457 C319.58608704 104.39533203 319.58608704 104.39533203 320.94567871 104.37609863 C338.28140743 104.28056304 354.2246102 111.37653692 366.66503906 123.3079834 C380.58928343 137.21556628 389.0372154 153.89017247 389.11495972 173.87017822 C389.10417389 174.98652649 389.09338806 176.10287476 389.08227539 177.25305176 C389.08271347 178.46424683 389.08315155 179.67544189 389.08360291 180.92333984 C389.08188673 184.20367502 389.0669751 187.4836123 389.04588103 190.76386929 C389.02696356 194.2071245 389.02535205 197.6503898 389.02180481 201.09368896 C389.01252815 207.59573456 388.98797461 214.09762651 388.95775634 220.59960485 C388.92407485 228.00963571 388.90769198 235.41967442 388.89267004 242.82976294 C388.8614204 258.05590755 388.80813298 273.28189984 388.74169922 288.50793457 C383.46169922 288.50793457 378.18169922 288.50793457 372.74169922 288.50793457 C372.74169922 306.98793457 372.74169922 325.46793457 372.74169922 344.50793457 C359.54169922 344.50793457 346.34169922 344.50793457 332.74169922 344.50793457 C332.74169922 326.02793457 332.74169922 307.54793457 332.74169922 288.50793457 C200.74169922 288.50793457 68.74169922 288.50793457 -67.25830078 288.50793457 C-67.25830078 306.98793457 -67.25830078 325.46793457 -67.25830078 344.50793457 C-80.45830078 344.50793457 -93.65830078 344.50793457 -107.25830078 344.50793457 C-107.25830078 326.02793457 -107.25830078 307.54793457 -107.25830078 288.50793457 C-112.53830078 288.50793457 -117.81830078 288.50793457 -123.25830078 288.50793457 C-123.35125496 272.59943857 -123.42246136 256.69104017 -123.46554947 240.78234005 C-123.48609584 233.39414611 -123.51406285 226.00612496 -123.56005859 218.61804199 C-123.60017125 212.17180951 -123.62579104 205.72570227 -123.63465476 199.27934843 C-123.63982866 195.8721343 -123.65181896 192.46527819 -123.68122101 189.05817986 C-123.86446557 165.17293031 -121.6930058 144.55456421 -104.45825195 126.58459473 C-92.0892011 114.20072557 -76.28381028 104.53792368 -58.2668457 104.4041748 C-56.46579085 104.4111668 -54.66475005 104.4237335 -52.86376953 104.44152832 C-51.93834351 104.44632202 -51.01291748 104.45111572 -50.05944824 104.45605469 C-47.79232196 104.46849133 -45.52535082 104.48591277 -43.25830078 104.50793457 C-43.26718323 103.61781174 -43.27606567 102.7276889 -43.28521729 101.81059265 C-43.36569217 93.38172199 -43.42643139 84.95298219 -43.46554947 76.5238142 C-43.48633729 72.19128587 -43.5144917 67.85907759 -43.56005859 63.5267334 C-43.60383353 59.33808096 -43.62750393 55.14973446 -43.63780975 50.96087074 C-43.64514482 49.37062076 -43.65946703 47.78038566 -43.68122101 46.19026756 C-43.86005763 32.56402793 -41.99549578 21.70788735 -32.25830078 11.50793457 C-22.86981866 2.54539493 -12.73201407 -0.10433794 0 0 Z M-20.25830078 23.50793457 C-28.09243088 32.61461373 -27.54209141 44.01834124 -27.45361328 55.38684082 C-27.44987568 56.80887146 -27.44703225 58.23090469 -27.44503784 59.65293884 C-27.4374601 63.3666617 -27.41786317 67.08022411 -27.39562988 70.79388428 C-27.37504404 74.59503002 -27.36600909 78.39620209 -27.35595703 82.1973877 C-27.33461071 89.63431771 -27.29947761 97.07108307 -27.25830078 104.50793457 C-19.33830078 104.50793457 -11.41830078 104.50793457 -3.25830078 104.50793457 C-3.21962891 100.42418457 -3.21962891 100.42418457 -3.18017578 96.25793457 C-3.14168375 93.6001178 -3.09654673 90.94249036 -3.05078125 88.28479004 C-3.02268147 86.44796904 -3.0014126 84.6110296 -2.98730469 82.77404785 C-2.96572181 80.12223143 -2.91899579 77.47182272 -2.86767578 74.82043457 C-2.86644714 74.00864746 -2.86521851 73.19686035 -2.86395264 72.36047363 C-2.69729045 65.7661666 -0.85526033 60.51738658 3.48779297 55.48449707 C4.32503906 54.81547363 4.32503906 54.81547363 5.17919922 54.13293457 C5.73478516 53.6714502 6.29037109 53.20996582 6.86279297 52.73449707 C11.77054396 49.53068457 16.339386 49.21068515 22.0769043 49.21740723 C22.90359116 49.21069 23.73027802 49.20397278 24.58201599 49.197052 C27.30848238 49.17809165 30.0347023 49.17414868 32.76123047 49.17199707 C34.66306152 49.16556734 36.56489159 49.15883884 38.46672058 49.15182495 C42.45203951 49.13985678 46.43727179 49.13614361 50.42260742 49.1373291 C55.51686399 49.13753216 60.61056188 49.11024133 65.70468616 49.07578468 C69.63305691 49.05349108 73.56129378 49.04949233 77.4897213 49.05054855 C79.36711233 49.04819587 81.24450725 49.03939116 83.12183571 49.02388382 C85.75438591 49.00417564 88.38573897 49.01008062 91.01831055 49.02209473 C91.78585663 49.01085571 92.55340271 48.9996167 93.34420776 48.98803711 C99.74637841 49.06187336 104.89663471 51.05283064 109.76513672 55.25402832 C110.21115234 55.81219238 110.65716797 56.37035645 111.11669922 56.94543457 C111.80892578 57.77881348 111.80892578 57.77881348 112.51513672 58.62902832 C115.89120313 63.80064598 116.07205309 68.53244674 116.15576172 74.52746582 C116.18481094 75.81532234 116.18481094 75.81532234 116.21444702 77.12919617 C116.27401478 79.85950931 116.32053656 82.58986514 116.36669922 85.32043457 C116.40490001 87.1765723 116.44395296 89.03269269 116.48388672 90.88879395 C116.58129477 95.42841505 116.66104341 99.96786147 116.74169922 104.50793457 C127.30169922 104.50793457 137.86169922 104.50793457 148.74169922 104.50793457 C148.76748047 101.78543457 148.79326172 99.06293457 148.81982422 96.25793457 C148.85831625 93.6001178 148.90345327 90.94249036 148.94921875 88.28479004 C148.97731853 86.44796904 148.9985874 84.6110296 149.01269531 82.77404785 C149.03427819 80.12223143 149.08100421 77.47182272 149.13232422 74.82043457 C149.13355286 74.00864746 149.13478149 73.19686035 149.13604736 72.36047363 C149.30270955 65.7661666 151.14473967 60.51738658 155.48779297 55.48449707 C156.04595703 55.03848145 156.60412109 54.59246582 157.17919922 54.13293457 C157.73478516 53.6714502 158.29037109 53.20996582 158.86279297 52.73449707 C163.77054396 49.53068457 168.339386 49.21068515 174.0769043 49.21740723 C174.90359116 49.21069 175.73027802 49.20397278 176.58201599 49.197052 C179.30848238 49.17809165 182.0347023 49.17414868 184.76123047 49.17199707 C186.66306152 49.16556734 188.56489159 49.15883884 190.46672058 49.15182495 C194.45203951 49.13985678 198.43727179 49.13614361 202.42260742 49.1373291 C207.51686399 49.13753216 212.61056188 49.11024133 217.70468616 49.07578468 C221.63305691 49.05349108 225.56129378 49.04949233 229.4897213 49.05054855 C231.36711233 49.04819587 233.24450725 49.03939116 235.12183571 49.02388382 C237.75438591 49.00417564 240.38573897 49.01008062 243.01831055 49.02209473 C244.16962967 49.00523621 244.16962967 49.00523621 245.34420776 48.98803711 C251.74637841 49.06187336 256.89663471 51.05283064 261.76513672 55.25402832 C262.21115234 55.81219238 262.65716797 56.37035645 263.11669922 56.94543457 C263.80892578 57.77881348 263.80892578 57.77881348 264.51513672 58.62902832 C267.89120313 63.80064598 268.07205309 68.53244674 268.15576172 74.52746582 C268.18481094 75.81532234 268.18481094 75.81532234 268.21444702 77.12919617 C268.27401478 79.85950931 268.32053656 82.58986514 268.36669922 85.32043457 C268.40490001 87.1765723 268.44395296 89.03269269 268.48388672 90.88879395 C268.58129477 95.42841505 268.66104341 99.96786147 268.74169922 104.50793457 C276.66169922 104.50793457 284.58169922 104.50793457 292.74169922 104.50793457 C292.78704131 96.318805 292.82366755 88.12977447 292.84532356 79.94055271 C292.85572192 76.13720058 292.86980817 72.33393943 292.89257812 68.53063965 C292.91444838 64.85424351 292.92629747 61.17793441 292.9314537 57.5014782 C292.93512418 56.10498626 292.94229108 54.70849861 292.95315933 53.31204414 C293.13847938 37.26947646 293.13847938 37.26947646 285.74169922 23.50793457 C276.80352188 16.53918613 268.53609375 16.35785973 257.63430786 16.3742218 C256.52395074 16.37195625 255.41359361 16.36969069 254.2695893 16.36735648 C250.55341351 16.36103239 246.83727433 16.36184482 243.12109375 16.3626709 C240.45489364 16.35967844 237.78869638 16.35630394 235.12249756 16.35249329 C228.63466246 16.34419986 222.14683644 16.34143905 215.65899648 16.34088091 C210.38416279 16.34040518 205.1093321 16.33834761 199.83449936 16.33518028 C184.86963812 16.32637773 169.90478405 16.32176035 154.9399202 16.32251076 C153.73070951 16.32257069 153.73070951 16.32257069 152.49707031 16.32263184 C151.6899424 16.32267272 150.88281449 16.3227136 150.05122815 16.32275572 C136.96949135 16.3231622 123.88778332 16.31359096 110.80605485 16.29949347 C97.36429022 16.28512259 83.92253963 16.27822366 70.48076713 16.27908725 C62.93803369 16.27941894 55.39533043 16.27668381 47.85260391 16.26590919 C41.43120122 16.25679489 35.00984239 16.25463662 28.58843602 16.26141862 C25.31440623 16.26467897 22.04047786 16.26366664 18.76645279 16.25606537 C15.21191279 16.24834781 11.65759312 16.25298891 8.10305786 16.26069641 C7.07571034 16.25555285 6.04836281 16.25040928 4.98988354 16.24510986 C-4.30501475 16.28958593 -12.99106141 17.25620463 -20.25830078 23.50793457 Z M14.74169922 67.50793457 C10.15452737 78.9758642 12.74169922 92.15659636 12.74169922 104.50793457 C41.78169922 104.50793457 70.82169922 104.50793457 100.74169922 104.50793457 C103.12683839 76.16017893 103.12683839 76.16017893 97.74169922 66.50793457 C93.86409472 64.16254274 90.11702613 64.24970658 85.65991211 64.23327637 C84.96656265 64.22816544 84.2732132 64.2230545 83.55885315 64.2177887 C81.277265 64.20394043 78.99598053 64.20484578 76.71435547 64.20715332 C75.1216165 64.20326385 73.52887857 64.19892866 71.93614197 64.19416809 C68.60151809 64.1867162 65.26700011 64.18698972 61.93237305 64.19226074 C57.66752315 64.19805496 53.40310761 64.18112078 49.13832951 64.15791607 C45.84998558 64.14315627 42.56174574 64.14231006 39.27337456 64.1454258 C37.70136085 64.14491374 36.12934114 64.1396978 34.5573597 64.12961388 C32.35558278 64.11722233 30.1546452 64.12405648 27.95288086 64.13562012 C26.70221329 64.13499069 25.45154572 64.13436127 24.16297913 64.13371277 C20.31382138 64.55473612 17.95843482 65.35579065 14.74169922 67.50793457 Z M166.74169922 67.50793457 C162.15452737 78.9758642 164.74169922 92.15659636 164.74169922 104.50793457 C193.78169922 104.50793457 222.82169922 104.50793457 252.74169922 104.50793457 C255.12683839 76.16017893 255.12683839 76.16017893 249.74169922 66.50793457 C245.86409472 64.16254274 242.11702613 64.24970658 237.65991211 64.23327637 C236.96656265 64.22816544 236.2732132 64.2230545 235.55885315 64.2177887 C233.277265 64.20394043 230.99598053 64.20484578 228.71435547 64.20715332 C227.1216165 64.20326385 225.52887857 64.19892866 223.93614197 64.19416809 C220.60151809 64.1867162 217.26700011 64.18698972 213.93237305 64.19226074 C209.66752315 64.19805496 205.40310761 64.18112078 201.13832951 64.15791607 C197.84998558 64.14315627 194.56174574 64.14231006 191.27337456 64.1454258 C189.70136085 64.14491374 188.12934114 64.1396978 186.5573597 64.12961388 C184.35558278 64.11722233 182.1546452 64.12405648 179.95288086 64.13562012 C178.70221329 64.13499069 177.45154572 64.13436127 176.16297913 64.13371277 C172.31382138 64.55473612 169.95843482 65.35579065 166.74169922 67.50793457 Z M-93.89892578 140.36730957 C-111.41948422 162.29701517 -107.25830078 189.47441164 -107.25830078 216.50793457 C51.14169922 216.50793457 209.54169922 216.50793457 372.74169922 216.50793457 C374.81260439 172.70419599 374.81260439 172.70419599 355.74169922 136.50793457 C340.06889461 122.03414233 321.68361818 120.18514103 301.18164062 120.25396729 C299.6616075 120.25165712 298.1415755 120.2484769 296.62154579 120.2445128 C292.48439512 120.23623239 288.34733778 120.24025901 284.21018696 120.24648523 C279.73295297 120.25103663 275.2557343 120.24401271 270.77850342 120.23852539 C262.02329534 120.22965829 253.26812167 120.23154141 244.51291227 120.23735067 C237.3937982 120.24187775 230.27469372 120.24247555 223.15557861 120.24030304 C222.14018466 120.23999657 221.1247907 120.23969011 220.07862723 120.23937435 C218.01551294 120.23873487 215.95239865 120.23808644 213.88928437 120.23742917 C194.56890155 120.23173374 175.24853775 120.23827141 155.92815804 120.2490299 C139.37055288 120.2579647 122.81297576 120.25641243 106.25537109 120.24719238 C87.00146969 120.23647584 67.74758493 120.23228299 48.49368095 120.23841691 C46.43839391 120.23905397 44.38310687 120.23968271 42.32781982 120.24030304 C41.31672704 120.24061159 40.30563426 120.24092014 39.26390231 120.24123804 C32.15796611 120.24296083 25.05204051 120.24005887 17.94610596 120.23534393 C9.27974072 120.22971971 0.61341169 120.23128388 -8.05294943 120.24190542 C-12.46988256 120.24714143 -16.88675544 120.2492544 -21.30368805 120.24260712 C-25.35509656 120.2366024 -29.40638957 120.23999652 -33.45778775 120.25056222 C-34.91521188 120.25277723 -36.37264598 120.25170327 -37.83006358 120.24681064 C-59.78952667 120.17880649 -78.61541419 123.81770826 -93.89892578 140.36730957 Z M-107.25830078 232.50793457 C-107.25830078 245.70793457 -107.25830078 258.90793457 -107.25830078 272.50793457 C51.14169922 272.50793457 209.54169922 272.50793457 372.74169922 272.50793457 C372.74169922 259.30793457 372.74169922 246.10793457 372.74169922 232.50793457 C214.34169922 232.50793457 55.94169922 232.50793457 -107.25830078 232.50793457 Z M-91.25830078 288.50793457 C-91.25830078 301.70793457 -91.25830078 314.90793457 -91.25830078 328.50793457 C-88.61830078 328.50793457 -85.97830078 328.50793457 -83.25830078 328.50793457 C-83.25830078 315.30793457 -83.25830078 302.10793457 -83.25830078 288.50793457 C-85.89830078 288.50793457 -88.53830078 288.50793457 -91.25830078 288.50793457 Z M348.74169922 288.50793457 C348.74169922 301.70793457 348.74169922 314.90793457 348.74169922 328.50793457 C351.38169922 328.50793457 354.02169922 328.50793457 356.74169922 328.50793457 C356.74169922 315.30793457 356.74169922 302.10793457 356.74169922 288.50793457 C354.10169922 288.50793457 351.46169922 288.50793457 348.74169922 288.50793457 Z " fill="#636363" transform="translate(123.25830078125,83.4920654296875)"/>
</svg>
