<svg width="51" height="50" viewBox="0 0 51 50" fill="none" xmlns="http://www.w3.org/2000/svg">
<g clip-path="url(#clip0_475_13882)">
<path d="M28.05 36.667V36.617H28H27.1913H27.1413V36.667V45.0003V45.0503H27.1913H28H28.05V45.0003V36.667ZM22.95 45.0003V45.0503H23H23.8087H23.8587V45.0003V36.667V36.617H23.8087H23H22.95V36.667V45.0003Z" fill="#646464" stroke="#646464" stroke-width="0.1"/>
<path d="M13.8642 45.6953L13.8642 45.6953C13.302 46.1559 12.95 46.7945 12.95 47.5V49.5354C12.95 49.8284 13.2361 50.05 13.5671 50.05H37.4329C37.7639 50.05 38.05 49.8284 38.05 49.5354V47.5C38.05 46.7945 37.698 46.1559 37.1358 45.6953L37.1041 45.734L37.1358 45.6953C36.5737 45.2348 35.7994 44.95 34.9487 44.95H16.0512C15.2006 44.95 14.4263 45.2348 13.8642 45.6953ZM16.0512 45.9792H34.9487C35.4644 45.9792 35.9323 46.1524 36.2706 46.4296C36.6089 46.7068 36.8159 47.0861 36.8159 47.5V49.0208H14.184V47.5C14.184 47.0861 14.3911 46.7068 14.7293 46.4296C15.0677 46.1524 15.5356 45.9792 16.0512 45.9792Z" fill="#646464" stroke="#646464" stroke-width="0.1"/>
<path d="M26.3837 47.5003C26.3837 47.0125 25.9882 46.617 25.5003 46.617C25.0125 46.617 24.617 47.0125 24.617 47.5003C24.617 47.9882 25.0125 48.3837 25.5003 48.3837C25.9882 48.3837 26.3837 47.9882 26.3837 47.5003Z" fill="#646464" stroke="#646464" stroke-width="0.1"/>
<path d="M28.4776 15.9373C27.7141 15.3265 26.6612 14.95 25.5001 14.95C24.3391 14.95 23.2862 15.3265 22.5227 15.9373C21.7591 16.5482 21.2835 17.395 21.2835 18.3333C21.2835 19.2716 21.7591 20.1185 22.5227 20.7293C23.2862 21.3401 24.3391 21.7167 25.5001 21.7167C26.6612 21.7167 27.7141 21.3402 28.4776 20.7293C29.2412 20.1185 29.7168 19.2717 29.7168 18.3333C29.7168 17.395 29.2412 16.5482 28.4776 15.9373ZM25.5001 15.9816C26.3187 15.9816 27.0581 16.247 27.5918 16.674C28.1255 17.101 28.4523 17.688 28.4523 18.3333C28.4523 18.9787 28.1255 19.5657 27.5918 19.9926C27.0581 20.4196 26.3187 20.6851 25.5001 20.6851C24.6816 20.6851 23.9422 20.4196 23.4085 19.9926C22.8748 19.5657 22.548 18.9787 22.548 18.3333C22.548 17.688 22.8748 17.101 23.4085 16.6741C23.9422 16.2471 24.6816 15.9816 25.5001 15.9816Z" fill="#646464" stroke="#646464" stroke-width="0.1"/>
<path d="M23.4942 16.739L23.4626 16.696C23.3794 16.5829 23.2714 16.4444 23.1427 16.2794L23.1427 16.2794L23.1405 16.2766C22.1417 14.996 20.0025 12.2531 19.6655 9.2005L19.6655 9.20049C19.5649 8.28811 19.6117 7.34352 19.8912 6.48916L19.8912 6.48916C20.1411 5.72508 20.5727 5.03933 21.2429 4.5189C22.5153 3.53077 24.5205 3.06084 26.4693 3.38448C28.1376 3.66149 29.7794 4.51505 30.9083 6.11882C31.167 6.48637 31.3105 6.83462 31.3618 7.17377C31.4131 7.51301 31.3716 7.8402 31.2643 8.16489C31.0513 8.80983 30.5766 9.45022 30.0492 10.1617L30.0454 10.1669C28.9879 11.5936 27.6529 13.3965 28.1832 16.2458L28.1921 16.2937L28.1444 16.3039L27.1476 16.5167L27.0974 16.5274L27.088 16.4769C26.4579 13.0907 27.9821 11.0344 29.1697 9.43221L29.1708 9.43075C29.5648 8.89921 29.9088 8.43458 30.0877 8.00666C30.2651 7.58247 30.2772 7.20228 30.0163 6.83171C29.0794 5.50063 27.7041 4.789 26.298 4.55552C24.633 4.27903 22.9461 4.66626 21.8999 5.47879C21.428 5.84526 21.1221 6.33127 20.9433 6.87771L23.4942 16.739ZM23.4942 16.739L23.5351 16.7046M23.4942 16.739L23.5351 16.7046M23.5351 16.7046L24.3333 16.0322L24.3691 16.002M23.5351 16.7046L24.3691 16.002M24.3691 16.002L24.3414 15.9643M24.3691 16.002L24.3414 15.9643M24.3414 15.9643C24.256 15.8482 24.1384 15.6975 24 15.52C23.5315 14.9193 22.7993 13.9805 22.1467 12.8529C21.4939 11.725 20.9226 10.4114 20.7737 9.0619L24.3414 15.9643ZM23.473 16.6261C23.394 16.5203 23.2959 16.3945 23.1821 16.2487L23.5412 16.6341C23.5418 16.6349 23.5425 16.6358 23.5431 16.6367L23.5028 16.6663L23.4706 16.6281L23.473 16.6261Z" fill="#646464" stroke="#646464" stroke-width="0.1"/>
<path d="M39.0883 5.57845C35.6109 2.10096 30.8066 -0.05 25.5001 -0.05C20.1937 -0.05 15.3894 2.10096 11.9119 5.57845C8.43445 9.05594 6.2835 13.8602 6.2835 19.1667C6.2835 24.4731 8.43445 29.2774 11.9119 32.7549C15.3894 36.2324 20.1937 38.3833 25.5001 38.3833C30.8066 38.3833 35.6108 36.2324 39.0883 32.7549C42.5658 29.2774 44.7168 24.4731 44.7168 19.1667C44.7168 13.8602 42.5658 9.05595 39.0883 5.57845ZM25.5001 1.11341C30.4855 1.11341 34.9988 3.13402 38.2658 6.40101C41.5327 9.66799 43.5534 14.1813 43.5534 19.1666C43.5534 24.152 41.5327 28.6653 38.2658 31.9323C34.9988 35.1993 30.4855 37.2199 25.5001 37.2199C20.5148 37.2199 16.0015 35.1993 12.7345 31.9323C9.46754 28.6653 7.44693 24.1519 7.44693 19.1666C7.44693 14.1813 9.46754 9.668 12.7345 6.40101C16.0015 3.13402 20.5148 1.11341 25.5001 1.11341Z" fill="#646464" stroke="#646464" stroke-width="0.1"/>
<path d="M27.9678 16.0125L27.9319 16.0427L27.9598 16.0805L28.6322 16.9928L28.6638 17.0357L28.7046 17.0014C28.8207 16.9037 28.9714 16.7694 29.149 16.6111C29.7498 16.0756 30.6886 15.2389 31.8162 14.4931C32.9442 13.747 34.2571 13.0947 35.6052 12.9246C36.3594 12.8295 37.1216 12.8696 37.7866 13.1182C38.3321 13.3221 38.8185 13.6715 39.1857 14.2119C39.9997 15.4099 40.3876 17.3413 40.1107 19.2475C39.8768 20.8577 39.1637 22.4314 37.8321 23.5025L37.8634 23.5415L37.8321 23.5025C37.6451 23.653 37.4581 23.7223 37.267 23.7305C37.075 23.7388 36.8748 23.6857 36.662 23.584C36.2344 23.3796 35.7698 22.9866 35.2382 22.5362L35.2358 22.5342C33.6347 21.1779 31.5769 19.4347 28.1882 20.1554L28.1405 20.1656L28.1495 20.2135L28.3623 21.3527L28.3717 21.4031L28.4218 21.3925C31.2679 20.7872 33.0691 22.3108 34.4969 23.5203L34.5024 23.5249C35.2136 24.1274 35.8541 24.67 36.4995 24.9136C36.8248 25.0364 37.1531 25.0841 37.4936 25.0253C37.834 24.9665 38.1827 24.802 38.5501 24.5064C40.1534 23.2166 41.0055 21.342 41.282 19.4389C41.6051 17.2151 41.136 14.9269 40.1493 13.4749L40.108 13.503L40.1493 13.4749C39.6296 12.7102 38.9442 12.2167 38.1791 11.9307C37.3238 11.611 36.3782 11.5574 35.4651 11.6725L35.4651 11.6725C33.9353 11.8655 32.4848 12.5749 31.2583 13.3768C30.0319 14.1786 29.0259 15.0752 28.3853 15.6462L28.3846 15.6468L28.3846 15.6468C28.2195 15.7939 28.0809 15.9174 27.9678 16.0125Z" fill="#646464" stroke="#646464" stroke-width="0.1"/>
<path d="M27.5381 21.6374L27.5065 21.5943L27.4656 21.6288L26.6674 22.3011L26.6316 22.3313L26.6593 22.369C26.7448 22.4852 26.8623 22.6359 27.0009 22.8135C27.4694 23.4142 28.2015 24.3531 28.854 25.4806C29.5068 26.6085 30.078 27.9221 30.2269 29.2715C30.3102 30.0263 30.2751 30.7896 30.0573 31.4556C29.8786 32.0021 29.5726 32.4881 29.1008 32.8545C28.0546 33.667 26.3676 34.0543 24.7027 33.7778C23.2967 33.5444 21.9213 32.8328 20.9844 31.5016L20.9435 31.5304L20.9844 31.5016C20.7235 31.1311 20.7356 30.7509 20.913 30.3267C21.0919 29.8988 21.4359 29.4342 21.8299 28.9026L21.831 28.9011C23.0186 27.2989 24.5428 25.2426 23.9127 21.8565L23.9033 21.806L23.8531 21.8167L22.8563 22.0295L22.8086 22.0397L22.8175 22.0876C23.3478 24.9368 22.0128 26.7397 20.9553 28.1664L20.9515 28.1716C20.424 28.8831 19.9493 29.5235 19.7363 30.1684C19.6291 30.4931 19.5876 30.8203 19.6389 31.1596C19.6901 31.4987 19.8337 31.847 20.0924 32.2145C21.2213 33.8183 22.8631 34.6719 24.5314 34.9489C26.4801 35.2725 28.4854 34.8025 29.7578 33.8144L29.7272 33.7749L29.7578 33.8144C30.4279 33.294 30.8595 32.6083 31.1095 31.8442C31.3889 30.9898 31.4358 30.0453 31.3351 29.1329L31.2854 29.1384L31.3351 29.1329C30.9982 26.0805 28.8592 23.3377 27.8603 22.0569L27.8581 22.0541L27.8187 22.0849L27.8581 22.0541C27.7294 21.889 27.6213 21.7505 27.5381 21.6374Z" fill="#646464" stroke="#646464" stroke-width="0.1"/>
<path d="M23.073 21.1724L23.03 21.2041C22.9168 21.2874 22.7782 21.3954 22.6132 21.5241L22.6105 21.5262C21.3297 22.5251 18.587 24.6642 15.5345 25.0011L15.529 24.9514L15.5345 25.0011C14.622 25.1018 13.6775 25.0549 12.8232 24.7755C12.0591 24.5255 11.3733 24.0939 10.8528 23.4238L10.8923 23.3932L10.8528 23.4238C9.86471 22.1514 9.39483 20.1461 9.71847 18.1974C9.99547 16.5291 10.849 14.8873 12.4528 13.7584C12.4528 13.7584 12.4528 13.7584 12.4528 13.7584M23.073 21.1724L22.5889 16.5326C19.7167 17.0672 17.8981 15.7192 16.4711 14.6615C15.0396 13.6004 13.9312 12.7788 12.4816 13.7993L12.4528 13.7584M23.073 21.1724L23.0386 21.1316L22.3662 20.3334L22.336 20.2975L22.2983 20.3253C22.1822 20.4107 22.0315 20.5283 21.8538 20.6668C21.2531 21.1353 20.3142 21.8675 19.1867 22.52C18.0588 23.1728 16.7453 23.744 15.3959 23.893C14.641 23.9762 13.8778 23.9412 13.2117 23.7233C12.6652 23.5446 12.1792 23.2386 11.8127 22.7668C11.0002 21.7206 10.613 20.0337 10.8895 18.3687C11.1229 16.9627 11.8346 15.5873 13.1657 14.6504L13.1657 14.6504C13.5362 14.3895 13.9164 14.4016 14.3406 14.579C14.7685 14.7579 15.2332 15.1019 15.7647 15.4959L15.7662 15.497C17.3683 16.6846 19.4247 18.2088 22.8108 17.5786L22.8613 17.5692L22.8506 17.519L22.6378 16.5222L22.6276 16.4746L22.5798 16.4835C19.7305 17.0138 17.9276 15.6788 16.5009 14.6213L16.4956 14.6174C15.7841 14.09 15.1437 13.6153 14.4988 13.4023C14.1741 13.2951 13.847 13.2536 13.5077 13.3049C13.1686 13.3561 12.8203 13.4997 12.4528 13.7584M23.073 21.1724L12.4528 13.7584" fill="#646464" stroke="#646464" stroke-width="0.1"/>
</g>
<defs>
<clipPath id="clip0_475_13882">
<rect width="50" height="50" fill="white" transform="translate(0.5)"/>
</clipPath>
</defs>
</svg>
