<svg width="115" height="116" viewBox="0 0 115 116" fill="none" xmlns="http://www.w3.org/2000/svg">
<g clip-path="url(#clip0_333_14020)">
<path d="M62.2737 54.5063L84.6266 32.1054V10.0978C84.6266 8.30014 86.0803 6.84277 87.8744 6.84277C89.6685 6.84277 91.1222 8.30014 91.1222 10.0978V25.5954L108.884 7.79627C110.152 6.52509 112.208 6.52552 113.476 7.79627L160.083 54.5063C161.351 55.7775 161.351 57.8385 160.083 59.1093C158.814 60.3805 156.758 60.3805 155.489 59.1093L147.383 50.9848V89.8386C147.383 91.6362 145.929 93.0936 144.135 93.0936H78.2203C76.4262 93.0936 74.9725 91.6362 74.9725 89.8386V50.9853L66.8656 59.1093C66.2317 59.7447 65.4002 60.0623 64.5692 60.0623C63.7382 60.0623 62.9068 59.7447 62.2724 59.1088C61.0053 57.8381 61.0053 55.7775 62.2737 54.5063ZM81.4685 86.584H140.888V44.4753L111.18 14.7012L81.4685 44.4761V86.584Z" fill="#42A4AE"/>
<path fill-rule="evenodd" clip-rule="evenodd" d="M35.5258 90.5365C35.2878 90.5365 35.0159 90.5025 34.7779 90.4346C34.064 90.2306 33.4521 89.7886 33.0781 89.1087C32.7042 88.4628 32.6362 87.7149 32.8401 86.967L35.7978 76.4964L29.0326 69.5273C28.3187 69.5952 27.5708 69.4933 26.9249 69.2553L15.7063 88.4288C15.2304 89.2787 14.2785 89.8226 13.2927 89.8226C12.7827 89.8226 12.3068 89.6866 11.8648 89.4147C11.2189 89.0407 10.743 88.4288 10.573 87.7149C10.369 86.967 10.471 86.2191 10.845 85.5732C14.1425 79.9639 17.4061 74.2186 20.6017 68.6774C23.1514 64.1899 25.803 59.5665 28.4547 55.0111L23.8653 55.2491L19.4459 63.0681C18.9359 63.952 18.018 64.4959 16.9982 64.4959C16.5222 64.4959 16.0463 64.3939 15.6044 64.1559C14.2785 63.374 13.8026 61.6743 14.5505 60.3144L19.7518 51.1356C20.2278 50.2857 21.0777 49.7418 22.0635 49.7078C24.2392 49.6058 26.075 49.4698 27.6728 49.3679C30.0865 49.2319 31.8203 49.1299 33.2481 49.1299C37.5655 49.1299 38.6874 50.2517 42.3249 53.9573C43.8887 55.589 46.0984 57.8328 49.294 60.7564C50.4499 61.7763 50.5518 63.544 49.498 64.6999C48.9881 65.2778 48.2062 65.6178 47.4243 65.6178C46.7443 65.6178 46.0644 65.3798 45.5545 64.9038L38.0755 58.1387L33.4861 66.0257L40.8971 73.6747C41.645 74.3886 41.951 75.4765 41.645 76.4624L38.2454 88.4968C37.9055 89.7206 36.7836 90.5365 35.5258 90.5365Z" fill="#42A4AE"/>
<path fill-rule="evenodd" clip-rule="evenodd" d="M40.7955 48.7563C37.464 48.7563 34.7783 46.0707 34.7783 42.7731C34.7783 39.4415 37.464 36.7559 40.7955 36.7559C44.0931 36.7559 46.7788 39.4415 46.7788 42.7731C46.7788 46.0707 44.0931 48.7563 40.7955 48.7563Z" fill="#42A4AE"/>
<path d="M8.47559 92.3457H72.7898" stroke="#42A4AE" stroke-width="1.49568" stroke-linecap="round"/>
</g>
<defs>
<clipPath id="clip0_333_14020">
<rect width="114.799" height="114.799" fill="white" transform="translate(0 0.361328)"/>
</clipPath>
</defs>
</svg>
