<svg width="51" height="50" viewBox="0 0 51 50" fill="none" xmlns="http://www.w3.org/2000/svg">
<path d="M27.5833 22.9167H23.4167V18.75H27.5833V22.9167ZM27.5833 12.5H23.4167V16.6667H27.5833V12.5ZM33.8333 31.25H29.6667V35.4167H33.8333V31.25ZM33.8333 12.5H29.6667V16.6667H33.8333V12.5ZM33.8333 25H29.6667V29.1667H33.8333V25ZM33.8333 6.25H29.6667V10.4167H33.8333V6.25ZM33.8333 18.75H29.6667V22.9167H33.8333V18.75ZM27.5833 6.25H23.4167V10.4167H27.5833V6.25ZM21.3333 18.75H17.1667V22.9167H21.3333V18.75ZM21.3333 31.25H17.1667V35.4167H21.3333V31.25ZM21.3333 25H17.1667V29.1667H21.3333V25ZM38.2083 4.16667V47.9167H41.125V50H38.2083H30.7083H20.2917H12.7917H9.875V47.9167H12.7917V4.16667H9.875V2.08333H12.7917H15.7083V0H35.2917V2.08333H38.2083H41.125V4.16667H38.2083ZM28.625 42.7083C28.625 40.9854 27.2229 39.5833 25.5 39.5833C23.7771 39.5833 22.375 40.9854 22.375 42.7083V47.9167H28.625V42.7083ZM36.125 4.16667H14.875V47.9167H20.2917V42.7083C20.2917 39.8354 22.6281 37.5 25.5 37.5C28.3719 37.5 30.7083 39.8354 30.7083 42.7083V47.9167H36.125V4.16667ZM27.5833 31.25H23.4167V35.4167H27.5833V31.25ZM27.5833 25H23.4167V29.1667H27.5833V25ZM21.3333 12.5H17.1667V16.6667H21.3333V12.5ZM21.3333 6.25H17.1667V10.4167H21.3333V6.25Z" fill="#646464"/>
</svg>
