<?xml version="1.0" encoding="UTF-8"?>
<svg version="1.1" xmlns="http://www.w3.org/2000/svg" width="512" height="512">
<path d="M0 0 C0.790278 -0.00644889 1.58055601 -0.01289778 2.39478183 -0.0195421 C3.25702782 -0.01644489 4.11927381 -0.01334769 5.00764847 -0.01015663 C5.92830447 -0.01468774 6.84896048 -0.01921886 7.79751515 -0.02388728 C10.88968466 -0.03657103 13.98167893 -0.03490833 17.07387161 -0.03325844 C19.28805646 -0.03924127 21.50223922 -0.04604624 23.71641922 -0.05361366 C29.73719977 -0.07130742 35.7579235 -0.07597051 41.77872753 -0.07724524 C46.80351401 -0.07914295 51.82828721 -0.08649916 56.85306859 -0.09358943 C68.03142807 -0.10895324 79.20976654 -0.1149262 90.38813433 -0.11357872 C91.05883193 -0.11349881 91.72952953 -0.1134189 92.4205513 -0.11333656 C93.09206975 -0.1132548 93.7635882 -0.11317304 94.45545569 -0.1130888 C105.33302045 -0.11227628 116.21044661 -0.13140485 127.0879713 -0.1596133 C138.26170214 -0.18836073 149.43538226 -0.20178648 160.60915494 -0.20042574 C166.88042351 -0.19991574 173.15153531 -0.20562035 179.42277145 -0.22678185 C185.32268465 -0.24614597 191.22229126 -0.24630092 197.12221527 -0.23174858 C199.28613991 -0.22965703 201.45008364 -0.23438194 203.61397552 -0.2464695 C206.57156896 -0.26191878 209.52810495 -0.25261541 212.48567581 -0.23720741 C213.33899892 -0.24749454 214.19232202 -0.25778167 215.0715034 -0.26838052 C221.85812177 -0.19042393 226.99941116 1.72880891 232.20766068 6.11664391 C232.73746536 6.74055016 233.26727005 7.36445641 233.81312943 8.00726891 C234.35582474 8.62086266 234.89852005 9.23445641 235.45766068 9.86664391 C239.85282892 16.67637293 240.46770382 23.02859024 240.46937943 30.92523766 C240.47699295 31.92307777 240.48460648 32.92091789 240.49245071 33.94899559 C240.50320165 36.04578727 240.50612533 38.14263227 240.50160599 40.23944664 C240.500629 43.44615726 240.54240545 46.65050956 240.58656693 49.85687828 C240.59177111 51.90049311 240.59446216 53.94411621 240.59437943 55.98773766 C240.61077469 56.94302864 240.62716995 57.89831963 240.64406204 58.88255882 C240.59611783 63.49259674 240.50692501 65.58867885 237.65102005 69.36005211 C235.00062943 71.25726891 235.00062943 71.25726891 232.00062943 71.88226891 C227.83793748 71.01504142 226.57558655 69.63735196 224.00062943 66.25726891 C223.30142792 62.94078027 223.37376551 59.69815717 223.43422318 56.31976891 C223.42577126 54.8832296 223.42577126 54.8832296 223.41714859 53.4176693 C223.40070985 50.36370269 223.41623324 47.31118507 223.43812943 44.25726891 C223.45473129 41.20348871 223.46381002 38.1506635 223.44839859 35.09686852 C223.43912956 33.19924175 223.44824658 31.30141307 223.47803116 29.40399742 C223.46079488 25.24246714 223.34982769 22.85827946 221.22352982 19.19867516 C216.95708005 15.47250179 211.98167712 16.11098415 206.55633926 16.11682701 C205.69623098 16.11385589 204.83612269 16.11088477 203.94995052 16.10782361 C201.06278093 16.09913978 198.17565283 16.09762863 195.28847122 16.09613609 C193.22044664 16.09150773 191.15242291 16.08648304 189.08440018 16.08109093 C183.46244583 16.06796742 177.84050342 16.06152215 172.21853614 16.05708027 C168.70678468 16.05414969 165.19503648 16.05004493 161.68328667 16.0455761 C150.69755337 16.0319018 139.71182754 16.0222346 128.72608632 16.0183742 C116.04126574 16.01389234 103.35655286 15.99633814 90.67176503 15.96737361 C80.86868146 15.94576548 71.06562822 15.9356704 61.26252109 15.93433309 C55.40657812 15.93328451 49.55073641 15.92736541 43.6948185 15.90951347 C38.18646318 15.8930477 32.67828539 15.89087009 27.16991425 15.89965248 C25.14908689 15.90042363 23.12825004 15.8960699 21.10744667 15.88619423 C18.34670963 15.87349452 15.58660323 15.87934085 12.82587051 15.88977623 C11.62906293 15.87769162 11.62906293 15.87769162 10.40807742 15.86536288 C5.2318235 15.91105908 1.59235596 16.8141334 -2.99937057 19.25726891 C-4.41589636 22.09032047 -4.14044427 24.47860548 -4.15758896 27.64792442 C-4.16252694 28.31116876 -4.16746491 28.97441309 -4.17255253 29.65775573 C-4.18796638 31.8903057 -4.19629861 34.12282683 -4.20469284 36.35541344 C-4.21426832 37.95174986 -4.2242782 39.54808373 -4.23469162 41.1444149 C-4.2617826 45.48711688 -4.28276942 49.82982977 -4.30269361 54.17256975 C-4.32452734 58.70764892 -4.35192879 63.24269428 -4.37874985 67.7777462 C-4.42871213 76.36957479 -4.47363782 84.9614221 -4.51677221 93.55328739 C-4.57533478 105.16061018 -4.6416406 116.76788854 -4.70752239 128.37517166 C-4.81115238 146.66917416 -4.90440475 164.96321463 -4.99937057 183.25726891 C46.48062943 182.92726891 97.96062943 182.59726891 151.00062943 182.25726891 C149.35062943 180.27726891 147.70062943 178.29726891 146.00062943 176.25726891 C145.93541245 172.40946748 146.13072583 170.29446165 148.62562943 167.31976891 C152.157561 165.73969425 154.14991417 165.61548303 158.00062943 166.25726891 C161.81723872 168.75753745 165.02710395 171.92881659 167.71962357 175.60297203 C170.97099122 179.70996275 173.8118661 182.35953569 179.10219193 182.98407555 C183.93187392 183.25298369 188.73579605 183.0443946 193.56312943 182.81976891 C195.25638196 182.77455717 196.94975093 182.73350432 198.64320755 182.69672203 C202.76525455 182.59820828 206.8816433 182.44332457 211.00062943 182.25726891 C198.65725489 166.19800142 198.65725489 166.19800142 181.30531693 157.61273766 C176.25111008 157.32787106 171.31792047 157.72560553 166.28871536 158.22015953 C163.12120093 158.27153194 161.34486414 157.33887152 159.00062943 155.25726891 C157.57400724 152.40402453 157.69029075 150.42272342 158.00062943 147.25726891 C159.50062943 144.44476891 159.50062943 144.44476891 162.00062943 142.25726891 C164.73410819 141.5478164 167.15255858 141.39967245 170.00062943 141.25726891 C169.35094193 140.70039391 168.70125443 140.14351891 168.03187943 139.56976891 C161.42027972 133.52954201 161.42027972 133.52954201 160.26234818 130.01898766 C160.14494175 126.73778712 160.83642311 124.519999 162.56312943 121.75726891 C166.10679395 119.57655228 167.89162636 119.50395168 172.00062943 120.25726891 C174.9572897 122.31570328 177.47780179 124.69384405 180.00062943 127.25726891 C180.66062943 127.91726891 181.32062943 128.57726891 182.00062943 129.25726891 C182.06250443 128.01976891 182.12437943 126.78226891 182.18812943 125.50726891 C182.61181657 122.23965436 182.93084616 121.34141931 185.12562943 118.69476891 C188.91538281 116.79989222 190.96194711 117.13541271 195.00062943 118.25726891 C197.58518227 120.15260766 197.96338448 121.14553407 199.00062943 124.25726891 C198.88512277 125.76697975 198.71382743 127.27276544 198.50844193 128.77289391 C197.76243656 137.64572959 197.77264033 145.18692897 203.6919136 152.25070763 C209.61521834 158.7732473 216.23939843 164.62251587 223.00062943 170.25726891 C225.5298127 150.68302982 225.5298127 150.68302982 219.69594193 132.86273766 C216.61177747 129.60787543 213.22402051 126.83499056 209.49110794 124.35346031 C208.00062943 123.25726891 208.00062943 123.25726891 207.00062943 121.25726891 C206.54275979 114.04582216 206.54275979 114.04582216 208.12562943 111.31976891 C210.82739107 109.78877064 212.89498448 109.3814947 216.00062943 109.25726891 C218.8793552 110.63120621 220.7505238 112.00716328 223.00062943 114.25726891 C223.02641068 113.00430016 223.05219193 111.75133141 223.07875443 110.46039391 C223.13504111 108.80931767 223.19238833 107.15827735 223.25062943 105.50726891 C223.26480911 104.68226891 223.2789888 103.85726891 223.29359818 103.00726891 C223.53945879 96.90992561 223.53945879 96.90992561 225.79750443 93.71430016 C228.10494218 92.18828193 229.26273188 91.68942145 232.00062943 91.69476891 C232.66062943 91.67285484 233.32062943 91.65094078 234.00062943 91.62836266 C237.27658575 92.65849736 238.26295021 94.34098988 240.00062943 97.25726891 C240.59881014 100.19415016 240.6954715 103.07870517 240.75062943 106.06976891 C240.79510208 107.25216148 240.79510208 107.25216148 240.84047318 108.45844078 C240.91074236 110.39084337 240.95800076 112.32405906 241.00062943 114.25726891 C241.89975052 113.29627281 241.89975052 113.29627281 242.81703568 112.31586266 C245.58928512 109.70231085 247.21681758 109.33448956 251.00062943 109.25726891 C255.56584682 111.38770369 255.56584682 111.38770369 257.00062943 114.25726891 C257.55281846 117.70845034 257.704727 120.17132532 255.75453568 123.17914391 C253.24604504 126.07578436 250.70758207 128.71800414 247.6549263 131.04657555 C243.60531054 134.34584584 241.2933821 136.75623539 240.27382278 141.98383141 C240.00698774 146.2734588 240.21240533 150.53290398 240.43812943 154.81976891 C240.48335443 156.32029899 240.52440496 157.82096099 240.5611763 159.32172203 C240.65955153 162.96968116 240.8143691 166.61261602 241.00062943 170.25726891 C257.19217038 157.86444122 257.19217038 157.86444122 265.61000443 140.30414391 C265.87265246 135.0402553 265.56331639 129.85793027 264.81972122 124.64130211 C265.00062943 122.25726891 265.00062943 122.25726891 266.83974075 120.00018883 C269.39648825 117.93797887 270.71519817 117.33549346 274.00062943 117.25726891 C277.18812943 118.13226891 277.18812943 118.13226891 280.00062943 120.25726891 C281.10312191 123.20944072 281.62109151 126.13589671 282.00062943 129.25726891 C282.71348099 128.47480797 283.42633255 127.69234703 284.16078568 126.88617516 C285.1274009 125.86325224 286.09489599 124.84116026 287.06312943 123.81976891 C287.52912552 123.30349937 287.99512161 122.78722984 288.4752388 122.25531578 C292.11101696 118.47113852 294.79422947 117.43122976 300.00062943 117.25726891 C302.64878953 118.04455975 303.62947472 118.78007 305.31312943 120.94476891 C306.34096651 124.4020391 305.83724089 126.7567104 305.00062943 130.25726891 C303.17607422 132.50878711 301.55468218 134.28432242 299.43812943 136.19476891 C298.65792435 136.93436852 298.65792435 136.93436852 297.86195755 137.68890953 C296.5881511 138.8925982 295.29615894 140.07699243 294.00062943 141.25726891 C294.61551224 141.33203453 295.23039505 141.40680016 295.86391068 141.48383141 C302.42604946 142.55135638 302.42604946 142.55135638 305.18812943 145.94476891 C306.21378642 150.12629359 305.73326058 152.34001587 304.00062943 156.25726891 C300.90400452 158.38384635 298.81547198 158.36298652 295.16859818 157.86273766 C286.10091821 157.10326581 278.21933305 156.89894344 270.95212173 162.94402122 C264.42501004 168.84726797 258.59811984 175.47915657 253.00062943 182.25726891 C272.57486851 184.78645218 272.57486851 184.78645218 290.39516068 178.95258141 C293.6500229 175.86841695 296.42290777 172.48065999 298.90443802 168.74774742 C300.00062943 167.25726891 300.00062943 167.25726891 302.00062943 166.25726891 C305.5431336 165.99486119 308.1332277 165.8463944 311.37562943 167.38226891 C313.65006261 170.00661488 313.93159894 171.80574452 314.00062943 175.25726891 C312.62669212 178.13599468 311.25073505 180.00716328 309.00062943 182.25726891 C310.16980911 182.28305016 311.3389888 182.30883141 312.54359818 182.33539391 C314.09181169 182.39169258 315.63998733 182.44903952 317.18812943 182.50726891 C317.95705521 182.52144859 318.72598099 182.53562828 319.51820755 182.55023766 C323.40593104 182.71709274 325.60537555 183.02144947 329.01234818 185.05414391 C331.10165947 187.36921575 331.68540369 188.19682636 331.62562943 191.25726891 C331.63852005 191.91726891 331.65141068 192.57726891 331.66469193 193.25726891 C330.58384946 196.5125121 328.91750467 197.51698018 326.00062943 199.25726891 C323.06377025 199.855518 320.17918123 199.9521112 317.18812943 200.00726891 C316.39986771 200.03691734 315.61160599 200.06656578 314.79945755 200.09711266 C312.86705496 200.16738184 310.93383927 200.21464024 309.00062943 200.25726891 C309.64129349 200.85668297 310.28195755 201.45609703 310.94203568 202.07367516 C313.55558748 204.8459246 313.92340878 206.47345706 314.00062943 210.25726891 C312.8628307 212.58458447 311.83222228 214.42567605 310.00062943 216.25726891 C306.05773173 216.81065806 303.44431807 217.160282 300.00844193 215.01117516 C297.13115364 212.50943655 294.52874443 209.9519744 292.2174263 206.91156578 C288.91521614 202.86294283 286.50253426 200.55017232 281.27382278 199.53046227 C276.98427885 199.26361845 272.72491144 199.46904918 268.43812943 199.69476891 C266.93759934 199.73999391 265.43693734 199.78104444 263.9361763 199.81781578 C260.28821717 199.91619101 256.64528231 200.07100858 253.00062943 200.25726891 C265.33664231 216.32739137 265.33664231 216.32739137 282.69594193 224.86664391 C287.75283553 225.13046538 292.6804463 224.67653698 297.71254349 224.21332359 C300.00062943 224.25726891 300.00062943 224.25726891 303.11781693 226.06586266 C305.33170943 228.64261307 306.00062943 229.85614196 306.00062943 233.25726891 C305.12562943 236.44476891 305.12562943 236.44476891 303.00062943 239.25726891 C300.04845761 240.35976139 297.12200162 240.87773099 294.00062943 241.25726891 C294.78309036 241.97012047 295.5655513 242.68297203 296.37172318 243.41742516 C297.39464609 244.38404038 298.41673807 245.35153547 299.43812943 246.31976891 C299.95439896 246.785765 300.47066849 247.25176109 301.00258255 247.73187828 C304.78066446 251.36180011 305.88987045 254.04544401 306.00062943 259.25726891 C304.65500543 262.20482622 303.91508398 263.80004163 301.00062943 265.25726891 C298.37562943 265.75726891 298.37562943 265.75726891 295.00062943 265.25726891 C292.05158316 263.20851857 289.54319543 260.78417229 287.00062943 258.25726891 C286.46566849 257.73648766 285.93070755 257.21570641 285.37953568 256.67914391 C284.23799377 255.55377115 283.11654529 254.40805714 282.00062943 253.25726891 C281.87107864 254.17959312 281.87107864 254.17959312 281.73891068 255.12055016 C280.59598615 261.69498755 280.59598615 261.69498755 277.75062943 264.38226891 C274.30598784 265.47829123 272.44120671 265.35532549 269.00062943 264.25726891 C266.8045845 262.51434898 266.8045845 262.51434898 265.00062943 260.25726891 C264.81972122 257.8732357 264.81972122 257.8732357 265.19984818 255.20648766 C266.00185162 245.9261621 266.51487705 237.6488818 260.32294083 230.14916039 C254.43776666 223.62067561 247.79483228 217.81659393 241.00062943 212.25726891 C238.21115116 234.00097733 238.21115116 234.00097733 244.30531693 253.91742516 C247.35907351 257.16391792 250.7297509 259.86589725 254.51015091 262.22455406 C256.00062943 263.25726891 256.00062943 263.25726891 257.00062943 265.25726891 C257.26303714 268.79977308 257.41150393 271.38986718 255.87562943 274.63226891 C253.25128345 276.90670209 251.45215381 277.18823842 248.00062943 277.25726891 C245.12190365 275.8833316 243.25073505 274.50737453 241.00062943 272.25726891 C241.00008466 273.40764074 240.99953989 274.55801258 240.99897861 275.74324417 C240.9849226 303.07477967 240.94511815 330.40617767 240.8737738 357.73762643 C240.86500746 361.10452501 240.85645758 364.47142411 240.84804153 367.83832359 C240.84552294 368.84372142 240.84552294 368.84372142 240.84295347 369.86943032 C240.81631208 380.71028063 240.80719044 391.55107806 240.804588 402.39195774 C240.80152431 413.52269644 240.779159 424.65329615 240.74010485 435.78396904 C240.718787 442.03301487 240.70616823 448.2818032 240.71447563 454.5308857 C240.72202313 460.41608521 240.70616354 466.3007633 240.67256927 472.18586731 C240.66434459 474.34247806 240.66457586 476.49914075 240.67403221 478.65574646 C240.75936183 500.25966559 240.75936183 500.25966559 235.00062943 507.25726891 C228.34808315 513.39480421 220.38140124 512.57409015 211.87562943 512.69476891 C209.9343013 512.76341148 209.9343013 512.76341148 207.95375443 512.83344078 C200.62028156 512.91932157 195.64941479 512.43479392 189.70277786 507.97553062 C186.35342625 504.59447258 184.75689271 500.61802172 183.00062943 496.25726891 C182.38426675 494.81625314 181.76559845 493.37622231 181.14516068 491.93695641 C176.00062943 479.84461651 176.00062943 479.84461651 176.00062943 476.25726891 C174.69406387 476.26615135 173.38749832 476.2750338 172.04133987 476.28418541 C159.73993666 476.36520345 147.43858743 476.42520184 135.13697815 476.46451759 C128.81228152 476.4854096 122.48779993 476.51375725 116.16322708 476.55902672 C110.06187953 476.60242607 103.96073908 476.62639385 97.85924911 476.63677788 C95.52917342 476.64417981 93.1991093 476.6586337 90.86912155 476.68018913 C87.61029772 476.70914377 84.35233422 476.71322813 81.09340286 476.71137047 C80.12595642 476.72575157 79.15850998 476.74013268 78.16174698 476.75494957 C71.62590634 476.71452329 71.62590634 476.71452329 68.40083694 474.35608482 C66.01892746 470.78576437 66.53107583 468.48325126 67.00062943 464.25726891 C68.81226209 461.58295401 69.87824019 461.29806532 73.00062943 460.25726891 C75.03006307 460.165709 77.06243961 460.1353285 79.09393692 460.13701439 C80.36594546 460.13563689 81.63795401 460.1342594 82.94850826 460.13284016 C84.36651697 460.13638699 85.78452545 460.14002489 87.20253372 460.14374352 C88.71475758 460.1440498 90.22698157 460.14391645 91.73920536 460.14337826 C95.79368723 460.14315224 99.84813967 460.14895364 103.90261459 460.15598869 C107.70534738 460.16167805 111.50807297 460.16195151 115.31081009 460.16266441 C126.43658711 460.1679145 137.56235864 460.18187561 148.68812943 460.19476891 C185.96781693 460.22570641 185.96781693 460.22570641 224.00062943 460.25726891 C223.67062943 398.21726891 223.34062943 336.17726891 223.00062943 272.25726891 C221.68062943 273.57726891 220.36062943 274.89726891 219.00062943 276.25726891 C215.28351387 277.44358238 213.72221807 277.61004558 210.18812943 275.88226891 C208.00062943 274.25726891 208.00062943 274.25726891 207.00062943 273.25726891 C206.44724028 269.31437121 206.09761633 266.70095755 208.24672318 263.26508141 C210.74542452 260.39128632 213.26365696 257.79542448 216.34633255 255.54437828 C220.4523045 252.29001533 223.10274833 249.44696571 223.72743607 244.15546227 C223.99635218 239.32586334 223.78775128 234.52201965 223.56312943 229.69476891 C223.51791769 228.00151637 223.47686484 226.3081474 223.44008255 224.61469078 C223.3415688 220.49264378 223.18668509 216.37625503 223.00062943 212.25726891 C207.06096791 224.56295225 207.06096791 224.56295225 198.32094193 241.72992516 C198.01604399 246.55665922 198.35584801 251.26420923 198.88222122 256.06439781 C199.03525686 258.89855479 198.45011117 260.8284076 197.00062943 263.25726891 C194.34089372 265.42446096 192.91225346 265.25261754 189.43812943 265.06976891 C186.00062943 264.25726891 186.00062943 264.25726891 184.12562943 263.19476891 C182.29829957 260.04770081 182.29599736 256.86075774 182.00062943 253.25726891 C181.44375443 253.90695641 180.88687943 254.55664391 180.31312943 255.22601891 C174.27290253 261.83761861 174.27290253 261.83761861 170.76234818 262.99555016 C167.51666607 263.11168567 165.26357702 262.41503746 162.50062943 260.75726891 C160.84286087 257.99432131 160.14621266 255.74123226 160.26234818 252.49555016 C161.85097398 247.67924018 166.24881411 244.47311061 170.00062943 241.25726891 C168.76312943 241.19539391 167.52562943 241.13351891 166.25062943 241.06976891 C162.98301488 240.64608176 162.08477983 240.32705217 159.43812943 238.13226891 C157.54325273 234.34251552 157.87877323 232.29595122 159.00062943 228.25726891 C160.89596818 225.67271606 161.88889459 225.29451385 165.00062943 224.25726891 C166.51034027 224.37277556 168.01612596 224.5440709 169.51625443 224.74945641 C178.38909011 225.49546178 185.93028949 225.485258 192.99406815 219.56598473 C199.51660782 213.64267999 205.36587639 207.0184999 211.00062943 200.25726891 C189.256921 197.46779064 189.256921 197.46779064 169.34047318 203.56195641 C166.09398041 206.61571299 163.39200108 209.98639039 161.03334427 213.76679039 C160.00062943 215.25726891 160.00062943 215.25726891 158.00062943 216.25726891 C150.78918268 216.71513854 150.78918268 216.71513854 148.06312943 215.13226891 C146.53213116 212.43050727 146.12485522 210.36291385 146.00062943 207.25726891 C147.37456673 204.37854313 148.7505238 202.50737453 151.00062943 200.25726891 C99.52062943 199.92726891 48.04062943 199.59726891 -4.99937057 199.25726891 C-4.99937057 285.38726891 -4.99937057 371.51726891 -4.99937057 460.25726891 C9.52062943 460.25726891 24.04062943 460.25726891 39.00062943 460.25726891 C45.03511218 463.87795856 45.03511218 463.87795856 46.00062943 467.25726891 C45.26368056 473.80753373 42.66878494 479.62245069 40.18275833 485.66058922 C39.38319064 487.61379813 38.60772522 489.57548193 37.83266068 491.53851891 C31.380705 507.5076552 31.380705 507.5076552 23.69667435 511.43475914 C18.202125 513.11103703 12.38663002 512.66944224 6.68812943 512.69476891 C5.39455521 512.72764 4.10098099 512.76051109 2.76820755 512.79437828 C-4.69373008 512.83636361 -10.38560085 512.53484572 -15.99937057 507.25726891 C-20.3885235 501.63014977 -21.14734169 497.36588696 -21.13638496 490.41972065 C-21.13903679 489.60883571 -21.14168862 488.79795078 -21.1444208 487.96249357 C-21.15213246 485.22203099 -21.15267369 482.48161308 -21.15327072 479.74114037 C-21.15728412 477.76577307 -21.16172214 475.7904066 -21.16655028 473.81504112 C-21.17853539 468.36837048 -21.18416872 462.9217087 -21.18873143 457.47502744 C-21.19468021 451.60775251 -21.20629188 445.74048821 -21.21702194 439.87322044 C-21.24040261 426.36447177 -21.25495579 412.85571982 -21.26725136 399.34695712 C-21.2721124 394.00673095 -21.27743836 388.66650532 -21.28286695 383.32627969 C-21.3074014 359.14296033 -21.32847725 334.95963994 -21.34056282 310.77631092 C-21.34348416 305.01825457 -21.34645168 299.26019825 -21.34946823 293.50214195 C-21.34983914 292.78677371 -21.35021005 292.07140547 -21.3505922 291.3343594 C-21.36274616 268.14340062 -21.3936873 244.95251777 -21.43538976 221.76159465 C-21.47818227 197.92100108 -21.50480448 174.08044761 -21.51003753 150.23981459 C-21.51077798 146.8720727 -21.51168866 143.50433087 -21.51269531 140.13658905 C-21.51288593 139.47379055 -21.51307654 138.81099205 -21.51327293 138.12810875 C-21.51656818 128.12433738 -21.53395502 118.12065333 -21.55858612 108.11691666 C-21.58656345 96.73532135 -21.59759608 85.35387033 -21.58639066 73.9722433 C-21.58119812 68.16442907 -21.58412991 62.35691713 -21.6088562 56.54914665 C-21.63130874 51.23107402 -21.63063951 45.91352154 -21.61165233 40.59544004 C-21.60884675 38.67274635 -21.61448176 36.7500177 -21.62946527 34.82738035 C-21.77076415 15.51358539 -21.77076415 15.51358539 -15.99937057 8.25726891 C-11.47425302 4.08348928 -6.37335486 0.01319139 0 0 Z M-4.99937057 476.25726891 C-4.99937057 482.52726891 -4.99937057 488.79726891 -4.99937057 495.25726891 C-0.72578734 497.39406052 2.36997495 497.59074107 7.00062943 497.56976891 C7.71219193 497.58588219 8.42375443 497.60199547 9.15687943 497.61859703 C12.08026228 497.62132407 14.55489502 497.44324774 17.26625443 496.31195641 C20.06612572 492.99499177 21.29099351 489.11736361 22.75062943 485.06976891 C24.35937943 480.70758141 24.35937943 480.70758141 26.00062943 476.25726891 C15.77062943 476.25726891 5.54062943 476.25726891 -4.99937057 476.25726891 Z M193.00062943 476.25726891 C193.94937943 478.81476891 194.89812943 481.37226891 195.87562943 484.00726891 C196.1706636 484.80616539 196.46569778 485.60506187 196.76967239 486.42816734 C198.54509735 491.50782361 198.54509735 491.50782361 201.00062943 496.25726891 C204.67721667 497.48279799 208.10814059 497.47983837 211.93812943 497.50726891 C212.65420364 497.52789391 213.37027786 497.54851891 214.1080513 497.56976891 C217.12041133 497.59210336 219.66242337 497.38522441 222.48891068 496.31586266 C225.00768629 492.88590207 224.41505464 489.1894937 224.25062943 485.06976891 C224.16812943 482.16164391 224.08562943 479.25351891 224.00062943 476.25726891 C213.77062943 476.25726891 203.54062943 476.25726891 193.00062943 476.25726891 Z " fill="#636363" transform="translate(100.99937057495117,-0.25726890563964844)"/>
<path d="M0 0 C4.68495175 4.55646151 8.57096 8.89669462 9.27415466 15.62199402 C9.28479446 16.557798 9.29543427 17.49360199 9.30639648 18.45776367 C9.32238388 19.52625046 9.33837128 20.59473724 9.35484314 21.69560242 C9.36020584 22.84148331 9.36556854 23.9873642 9.37109375 25.16796875 C9.38463646 26.95295525 9.38463646 26.95295525 9.39845276 28.77400208 C9.41295062 31.29144783 9.42184083 33.80893123 9.42553711 36.32641602 C9.4374037 40.15641774 9.48657314 43.98479264 9.53710938 47.81445312 C9.54657758 50.26561718 9.55381071 52.71679108 9.55859375 55.16796875 C9.57812607 56.30372849 9.59765839 57.43948822 9.61778259 58.60966492 C9.57656968 65.9619184 8.443693 71.96981809 4 78 C2.0630188 79.32658386 2.0630188 79.32658386 0.23828125 80.25 C-1.63985759 81.28860644 -1.63985759 81.28860644 -3 83 C-3.9893657 87.65914059 -3.88712004 92.25320256 -3.8125 97 C-3.81122168 99.52084142 -3.81743715 102.04170051 -3.83203125 104.5625 C-3.81889893 105.67753906 -3.8057666 106.79257812 -3.79223633 107.94140625 C-4.00685002 111.10084259 -4.52189126 113.20873221 -6 116 C-9.7205836 118.48038907 -11.59796571 118.46337203 -16 118 C-18.19995117 116.40234375 -18.19995117 116.40234375 -20 114 C-20.43481445 110.85546875 -20.43481445 110.85546875 -20.36328125 107.1875 C-20.36314686 105.85156235 -20.36382258 104.51562441 -20.36523438 103.1796875 C-20.34433414 101.08573 -20.31233817 98.99293209 -20.2644043 96.89941406 C-19.68561375 89.07769055 -19.68561375 89.07769055 -22.50415039 82.27514648 C-24.59195911 81.05169941 -24.59195911 81.05169941 -28 80 C-33.25284896 75.30008251 -35.09325466 69.79796386 -36 63 C-36.15272079 59.62883858 -36.16390987 56.26097231 -36.16796875 52.88671875 C-36.17129715 51.91773148 -36.17462555 50.9487442 -36.17805481 49.95039368 C-36.1831038 47.90549187 -36.18546376 45.86058187 -36.18530273 43.81567383 C-36.18748535 40.70835596 -36.20565219 37.60139561 -36.22460938 34.49414062 C-36.2275446 32.5000012 -36.22952853 30.50586011 -36.23046875 28.51171875 C-36.23765427 27.59267258 -36.24483978 26.6736264 -36.25224304 25.72673035 C-36.22206012 17.08488074 -35.3506672 9.56716976 -29.77734375 2.7265625 C-21.82031513 -5.00312244 -9.19778162 -6.19850501 0 0 Z M-19 15 C-19.98441606 17.81023517 -20.13445169 20.45306 -20.16113281 23.41381836 C-20.17074036 24.27829086 -20.1803479 25.14276337 -20.19024658 26.03343201 C-20.19449646 26.95954788 -20.19874634 27.88566376 -20.203125 28.83984375 C-20.20882507 29.79895157 -20.21452515 30.75805939 -20.22039795 31.74623108 C-20.22983399 33.77278545 -20.23637638 35.79935507 -20.24023438 37.82592773 C-20.24995335 40.92263509 -20.28099546 44.01868231 -20.3125 47.11523438 C-20.31902917 49.08593357 -20.32427998 51.05663749 -20.328125 53.02734375 C-20.3404718 53.95143539 -20.3528186 54.87552704 -20.36553955 55.82762146 C-20.34884084 60.6552582 -20.28725079 64.15924412 -17 68 C-14.10293293 69.24677006 -14.10293293 69.24677006 -11 69 C-8.61989035 67.74573185 -8.61989035 67.74573185 -7 65 C-6.37855064 61.34907858 -6.41594227 57.72755987 -6.43359375 54.03125 C-6.42739517 52.95879028 -6.42119659 51.88633057 -6.41481018 50.78137207 C-6.40771019 48.51522733 -6.41088908 46.24903046 -6.42358398 43.98291016 C-6.43745057 40.51237212 -6.40337777 37.04452905 -6.36523438 33.57421875 C-6.36428321 31.37239517 -6.36614187 29.17056821 -6.37109375 26.96875 C-6.35783554 25.93012817 -6.34457733 24.89150635 -6.33091736 23.82141113 C-6.30629553 18.0163914 -6.30629553 18.0163914 -9.41430664 13.31445312 C-13.61837908 11.17728704 -15.27891792 12.32845389 -19 15 Z " fill="#636363" transform="translate(150,220)"/>
<path d="M0 0 C4.90039131 4.95499177 7.24056175 9.5131022 7.2746582 16.50537109 C7.28895622 18.12262589 7.28895622 18.12262589 7.30354309 19.77255249 C7.30263168 20.92784454 7.30172028 22.0831366 7.30078125 23.2734375 C7.30506638 24.47054352 7.3093515 25.66764954 7.31376648 26.90103149 C7.31950466 29.43108488 7.32001382 31.96115477 7.31567383 34.49121094 C7.31251732 38.35380342 7.33596879 42.21562736 7.36132812 46.078125 C7.36360156 48.53906154 7.36430441 51.00000013 7.36328125 53.4609375 C7.372491 54.61218109 7.38170074 55.76342468 7.39118958 56.94955444 C7.33751299 66.29500838 5.50732426 72.18280316 -1 79 C-7.20412553 83.38828391 -13.5708025 83.72128131 -21 83 C-27.94669412 81.02880133 -32.47373762 76.22835405 -36.1015625 70.15625 C-38.54053222 64.30272266 -38.16065072 57.89548285 -38.16796875 51.66796875 C-38.17129715 50.67678543 -38.17462555 49.68560211 -38.17805481 48.66438293 C-38.18310445 46.57240257 -38.18546374 44.48041419 -38.18530273 42.38842773 C-38.18748546 39.20868469 -38.20565192 36.02929096 -38.22460938 32.84960938 C-38.22754456 30.80989701 -38.22952852 28.77018301 -38.23046875 26.73046875 C-38.23765427 25.7895488 -38.24483978 24.84862885 -38.25224304 23.87919617 C-38.2213799 14.84175002 -37.39336027 6.81958429 -31 0 C-21.77092619 -7.76081206 -9.27146723 -7.76215862 0 0 Z M-20 12 C-22.64712538 16.73528896 -22.30599697 21.6671431 -22.30078125 26.9375 C-22.30506638 27.89519287 -22.3093515 28.85288574 -22.31376648 29.83959961 C-22.31949788 31.86018077 -22.32001883 33.88078257 -22.31567383 35.90136719 C-22.31251097 38.98929027 -22.33599809 42.07625756 -22.36132812 45.1640625 C-22.36360097 47.13020713 -22.36430468 49.09635433 -22.36328125 51.0625 C-22.372491 51.98345459 -22.38170074 52.90440918 -22.39118958 53.85327148 C-22.35263251 59.2040071 -21.97944934 63.02055066 -18 67 C-14.51944126 66.82432642 -14.51944126 66.82432642 -11 66 C-8.8555076 62.78326141 -8.74531289 61.91404709 -8.7253418 58.20898438 C-8.71580978 57.2378772 -8.70627777 56.26677002 -8.69645691 55.26623535 C-8.69736832 54.21931519 -8.69827972 53.17239502 -8.69921875 52.09375 C-8.69493362 51.01750366 -8.6906485 49.94125732 -8.68623352 48.83239746 C-8.68048847 46.55607812 -8.67999124 44.27974043 -8.68432617 42.00341797 C-8.68748761 38.51368038 -8.66402328 35.02478906 -8.63867188 31.53515625 C-8.63639912 29.32552191 -8.63569527 27.11588528 -8.63671875 24.90625 C-8.627509 23.85932983 -8.61829926 22.81240967 -8.60881042 21.73376465 C-8.61815361 20.27710388 -8.61815361 20.27710388 -8.62768555 18.79101562 C-8.62705612 17.93624634 -8.6264267 17.08147705 -8.6257782 16.20080566 C-9.08265033 13.51393179 -9.88156837 12.65905879 -12 11 C-15.28599192 9.62200339 -17.12461714 9.8913859 -20 12 Z " fill="#636363" transform="translate(152,73)"/>
</svg>
