<svg width="51" height="50" viewBox="0 0 51 50" fill="none" xmlns="http://www.w3.org/2000/svg">
<path d="M17.3859 48.0916H15.4143C14.5819 48.0916 13.9048 47.4099 13.9048 46.5724V40.2239C13.9048 39.391 14.5819 38.7139 15.4143 38.7139H17.3859C18.2182 38.7139 18.8954 39.391 18.8954 40.2239V46.5724C18.8954 47.4099 18.2182 48.0916 17.3859 48.0916ZM15.4143 39.6573C15.0969 39.6573 14.8482 39.906 14.8482 40.2239V46.5724C14.8482 46.8903 15.102 47.1482 15.4143 47.1482H17.3859C17.6982 47.1482 17.952 46.8903 17.952 46.5724V40.2239C17.952 39.906 17.7032 39.6573 17.3859 39.6573H15.4143Z" fill="#646464"/>
<path d="M19.8858 37.9542V40.0296C19.8858 40.8221 19.2442 41.4636 18.4518 41.4636H14.348C13.5556 41.4636 12.9141 40.8221 12.9141 40.0296V37.9542C12.9141 37.1617 13.5556 36.5107 14.348 36.5107H18.4518C19.2442 36.5107 19.8858 37.1617 19.8858 37.9542Z" fill="#DDDDDD"/>
<path d="M18.4519 41.9353H14.3481C13.2973 41.9353 12.4424 41.0803 12.4424 40.0301V37.9544C12.4424 36.8986 13.2973 36.0391 14.3481 36.0391H18.4519C19.5027 36.0391 20.3576 36.8986 20.3576 37.9544V40.0301C20.3576 41.0803 19.5027 41.9353 18.4519 41.9353ZM14.3481 36.9825C13.8174 36.9825 13.3858 37.4182 13.3858 37.9544V40.0301C13.3858 40.5607 13.8174 40.9919 14.3481 40.9919H18.4519C18.9826 40.9919 19.4142 40.5607 19.4142 40.0301V37.9544C19.4142 37.4182 18.9826 36.9825 18.4519 36.9825H14.3481Z" fill="#646464"/>
<path d="M32.7555 48.0916H30.7835C29.9516 48.0916 29.2744 47.4099 29.2744 46.5724V40.2239C29.2744 39.391 29.9516 38.7139 30.7835 38.7139H32.7555C33.5874 38.7139 34.2646 39.391 34.2646 40.2239V46.5724C34.2646 47.4099 33.5874 48.0916 32.7555 48.0916ZM30.7835 39.6573C30.4661 39.6573 30.2178 39.906 30.2178 40.2239V46.5724C30.2178 46.8903 30.4716 47.1482 30.7835 47.1482H32.7555C33.0673 47.1482 33.3212 46.8903 33.3212 46.5724V40.2239C33.3212 39.906 33.0729 39.6573 32.7555 39.6573H30.7835Z" fill="#646464"/>
<path d="M35.2554 37.9542V40.0296C35.2554 40.8221 34.6138 41.4636 33.8214 41.4636H29.7176C28.9252 41.4636 28.2837 40.8221 28.2837 40.0296V37.9542C28.2837 37.1617 28.9252 36.5107 29.7176 36.5107H33.8214C34.6138 36.5107 35.2554 37.1617 35.2554 37.9542Z" fill="#DDDDDD"/>
<path d="M33.8216 41.9353H29.7177C28.667 41.9353 27.812 41.0803 27.812 40.0301V37.9544C27.812 36.8986 28.667 36.0391 29.7177 36.0391H33.8216C34.8723 36.0391 35.7272 36.8986 35.7272 37.9544V40.0301C35.7272 41.0803 34.8723 41.9353 33.8216 41.9353ZM29.7177 36.9825C29.187 36.9825 28.7554 37.4182 28.7554 37.9544V40.0301C28.7554 40.5607 29.187 40.9919 29.7177 40.9919H33.8216C34.3522 40.9919 34.7838 40.5607 34.7838 40.0301V37.9544C34.7838 37.4182 34.3522 36.9825 33.8216 36.9825H29.7177Z" fill="#646464"/>
<path d="M34.7075 39.0252H13.4622C9.88856 39.0252 6.98145 36.1223 6.98145 32.5532V9.08162C6.98145 5.8433 9.42469 3.07852 12.6649 2.65197C20.1825 1.66158 27.8638 1.66158 35.4948 2.65197C38.7414 3.07944 41.1888 5.84791 41.1888 9.09175V32.5532C41.1888 36.1223 38.2812 39.0252 34.7075 39.0252ZM24.0381 2.85096C20.2655 2.85096 16.5066 3.09695 12.7883 3.58799C10.0157 3.95282 7.92484 6.31408 7.92484 9.08162V32.5532C7.92484 35.6017 10.4091 38.0818 13.4622 38.0818H34.7075C37.7611 38.0818 40.2454 35.6017 40.2454 32.5532V9.09175C40.2454 6.3196 38.1504 3.95374 35.3722 3.58799C31.5982 3.09695 27.8108 2.85096 24.0381 2.85096Z" fill="#646464"/>
<path d="M34.6415 20.7885H13.5284C11.9991 20.7885 10.7549 19.5447 10.7549 18.0154V9.08078C10.7549 7.72926 11.7881 6.57304 13.1585 6.39155C20.3372 5.44447 27.695 5.44263 35.0091 6.39247C36.3809 6.57304 37.415 7.73294 37.415 9.09V18.0154C37.415 19.5447 36.1708 20.7885 34.6415 20.7885ZM24.038 6.62095C20.4514 6.62095 16.8326 6.85864 13.282 7.32758C12.3791 7.44642 11.6983 8.20003 11.6983 9.08078V18.0154C11.6983 19.0242 12.5191 19.8451 13.5284 19.8451H34.6415C35.6508 19.8451 36.4716 19.0242 36.4716 18.0154V9.09C36.4716 8.20464 35.7904 7.44734 34.8866 7.3285C31.2728 6.85864 27.6222 6.62095 24.038 6.62095Z" fill="#646464"/>
<path d="M34.7073 39.0249H13.462C12.4279 39.0249 11.3965 38.7716 10.4798 38.2925C10.302 38.1995 10.2025 38.0041 10.2316 37.8061L11.7881 27.1173C12.1059 24.921 13.9526 23.3271 16.1794 23.3271H31.9905C34.2163 23.3271 36.0635 24.921 36.3818 27.1182L37.9383 37.8061C37.9673 38.0041 37.8678 38.1995 37.69 38.2925C36.7733 38.7716 35.7419 39.0249 34.7073 39.0249ZM11.2146 37.6006C11.9193 37.9157 12.69 38.0815 13.462 38.0815H34.7073C35.4798 38.0815 36.2505 37.9157 36.9553 37.6006L35.4485 27.2537C35.1975 25.5253 33.7432 24.2705 31.9905 24.2705H16.1794C14.4262 24.2705 12.9719 25.5253 12.7213 27.2527L11.2146 37.6006Z" fill="#646464"/>
<path d="M18.6901 35.1849C16.4795 35.1849 14.6807 33.3865 14.6807 31.1754C14.6807 28.9644 16.4795 27.166 18.6901 27.166C20.9007 27.166 22.6995 28.9644 22.6995 31.1754C22.6995 33.3865 20.9007 35.1849 18.6901 35.1849ZM18.6901 28.1094C16.9995 28.1094 15.6241 29.4849 15.6241 31.1754C15.6241 32.866 16.9995 34.2415 18.6901 34.2415C20.3807 34.2415 21.7561 32.866 21.7561 31.1754C21.7561 29.4849 20.3807 28.1094 18.6901 28.1094Z" fill="#646464"/>
<path d="M18.69 31.6471C18.4292 31.6471 18.2183 31.4362 18.2183 31.1754V27.6377C18.2183 27.377 18.4292 27.166 18.69 27.166C18.9507 27.166 19.1617 27.377 19.1617 27.6377V31.1754C19.1617 31.4362 18.9507 31.6471 18.69 31.6471Z" fill="#646464"/>
<path d="M29.4801 35.1849C27.2695 35.1849 25.4707 33.3865 25.4707 31.1754C25.4707 28.9644 27.2695 27.166 29.4801 27.166C31.6908 27.166 33.4896 28.9644 33.4896 31.1754C33.4896 33.3865 31.6908 35.1849 29.4801 35.1849ZM29.4801 28.1094C27.7896 28.1094 26.4141 29.4849 26.4141 31.1754C26.4141 32.866 27.7896 34.2415 29.4801 34.2415C31.1707 34.2415 32.5462 32.866 32.5462 31.1754C32.5462 29.4849 31.1707 28.1094 29.4801 28.1094Z" fill="#646464"/>
<path d="M29.48 35.1852C29.2193 35.1852 29.0083 34.9743 29.0083 34.7135V31.1758C29.0083 30.9151 29.2193 30.7041 29.48 30.7041C29.7407 30.7041 29.9517 30.9151 29.9517 31.1758V34.7135C29.9517 34.9743 29.7407 35.1852 29.48 35.1852Z" fill="#646464"/>
<path d="M24.0851 17.8878C22.1656 17.8878 20.604 16.3262 20.604 14.4072C20.604 13.4334 21.4295 11.6618 23.0569 9.14112C23.5176 8.43542 24.654 8.43726 25.1119 9.13928C26.7407 11.6618 27.5662 13.4334 27.5662 14.4072C27.5662 16.3262 26.0046 17.8878 24.0851 17.8878ZM24.0851 9.52253C24.0289 9.52253 23.9234 9.54004 23.8478 9.6552C22.3862 11.9188 21.5474 13.6517 21.5474 14.4072C21.5474 15.8066 22.6856 16.9444 24.0851 16.9444C25.4845 16.9444 26.6228 15.8066 26.6228 14.4072C26.6228 13.6517 25.7839 11.9188 24.3209 9.65336C24.2468 9.54004 24.1413 9.52253 24.0851 9.52253Z" fill="#646464"/>
</svg>
