<svg width="51" height="50" viewBox="0 0 51 50" fill="none" xmlns="http://www.w3.org/2000/svg">
<path d="M33.3124 21.875V12.5C33.3124 10.428 32.4893 8.44086 31.0242 6.97573C29.5591 5.5106 27.5719 4.6875 25.4999 4.6875C23.4279 4.6875 21.4408 5.5106 19.9756 6.97573C18.5105 8.44086 17.6874 10.428 17.6874 12.5V21.875M41.3457 17.7229L43.977 42.7229C44.1228 44.1083 43.0395 45.3125 41.6457 45.3125H9.35407C9.02534 45.3129 8.70021 45.244 8.3998 45.1105C8.09939 44.9771 7.83043 44.7819 7.61037 44.5376C7.39032 44.2934 7.2241 44.0056 7.12252 43.693C7.02094 43.3804 6.98626 43.0498 7.02074 42.7229L9.65407 17.7229C9.71482 17.147 9.98663 16.614 10.4171 16.2266C10.8476 15.8392 11.4062 15.6249 11.9853 15.625H39.0145C40.2145 15.625 41.2207 16.5312 41.3457 17.7229ZM18.4687 21.875C18.4687 22.0822 18.3863 22.2809 18.2398 22.4274C18.0933 22.5739 17.8946 22.6562 17.6874 22.6562C17.4802 22.6562 17.2815 22.5739 17.135 22.4274C16.9885 22.2809 16.9062 22.0822 16.9062 21.875C16.9062 21.6678 16.9885 21.4691 17.135 21.3226C17.2815 21.1761 17.4802 21.0937 17.6874 21.0937C17.8946 21.0937 18.0933 21.1761 18.2398 21.3226C18.3863 21.4691 18.4687 21.6678 18.4687 21.875ZM34.0937 21.875C34.0937 22.0822 34.0113 22.2809 33.8648 22.4274C33.7183 22.5739 33.5196 22.6562 33.3124 22.6562C33.1052 22.6562 32.9065 22.5739 32.76 22.4274C32.6135 22.2809 32.5312 22.0822 32.5312 21.875C32.5312 21.6678 32.6135 21.4691 32.76 21.3226C32.9065 21.1761 33.1052 21.0937 33.3124 21.0937C33.5196 21.0937 33.7183 21.1761 33.8648 21.3226C34.0113 21.4691 34.0937 21.6678 34.0937 21.875Z" stroke="#646464" stroke-width="1.5" stroke-linecap="round" stroke-linejoin="round"/>
</svg>
