<svg width="51" height="50" viewBox="0 0 51 50" fill="none" xmlns="http://www.w3.org/2000/svg">
<g clip-path="url(#clip0_475_13717)">
<path d="M48.7729 20.368L46.3333 19.1482V17.7087C46.3333 16.8799 46.0041 16.085 45.4181 15.4989C44.832 14.9129 44.0371 14.5837 43.2083 14.5837H41.125V13.542C41.125 12.7132 40.7958 11.9183 40.2097 11.3323C39.6237 10.7462 38.8288 10.417 38 10.417H34.875C34.0462 10.417 33.2514 10.7462 32.6653 11.3323C32.0793 11.9183 31.75 12.7132 31.75 13.542V20.8337H19.25V13.542C19.25 12.7132 18.9208 11.9183 18.3347 11.3323C17.7487 10.7462 16.9538 10.417 16.125 10.417H13C12.1712 10.417 11.3764 10.7462 10.7903 11.3323C10.2043 11.9183 9.87502 12.7132 9.87502 13.542V14.5837H7.79168C6.96288 14.5837 6.16803 14.9129 5.58197 15.4989C4.99592 16.085 4.66668 16.8799 4.66668 17.7087V19.1482L2.2271 20.368C1.70691 20.6261 1.2694 21.0246 0.964145 21.5186C0.658894 22.0126 0.498111 22.5822 0.500017 23.1628V26.8378C0.498111 27.4185 0.658894 27.9881 0.964145 28.482C1.2694 28.976 1.70691 29.3746 2.2271 29.6326L4.66668 30.8524V32.292C4.66668 33.1208 4.99592 33.9156 5.58197 34.5017C6.16803 35.0877 6.96288 35.417 7.79168 35.417H9.87502V36.4587C9.87502 37.2875 10.2043 38.0823 10.7903 38.6684C11.3764 39.2544 12.1712 39.5837 13 39.5837H16.125C16.9538 39.5837 17.7487 39.2544 18.3347 38.6684C18.9208 38.0823 19.25 37.2875 19.25 36.4587V29.167H31.75V36.4587C31.75 37.2875 32.0793 38.0823 32.6653 38.6684C33.2514 39.2544 34.0462 39.5837 34.875 39.5837H38C38.8288 39.5837 39.6237 39.2544 40.2097 38.6684C40.7958 38.0823 41.125 37.2875 41.125 36.4587V35.417H43.2083C44.0371 35.417 44.832 35.0877 45.4181 34.5017C46.0041 33.9156 46.3333 33.1208 46.3333 32.292V30.8524L48.7729 29.6326C49.2931 29.3746 49.7306 28.976 50.0359 28.482C50.3411 27.9881 50.5019 27.4185 50.5 26.8378V23.1628C50.5019 22.5822 50.3411 22.0126 50.0359 21.5186C49.7306 21.0246 49.2931 20.6261 48.7729 20.368ZM3.15939 27.7691C2.98593 27.6832 2.84001 27.5504 2.73819 27.3858C2.63637 27.2212 2.58273 27.0314 2.58335 26.8378V23.1628C2.58273 22.9693 2.63637 22.7794 2.73819 22.6148C2.84001 22.4502 2.98593 22.3174 3.15939 22.2316L4.66668 21.4774V28.5232L3.15939 27.7691ZM7.79168 33.3337C7.51542 33.3337 7.25046 33.2239 7.05511 33.0286C6.85976 32.8332 6.75002 32.5683 6.75002 32.292V17.7087C6.75002 17.4324 6.85976 17.1674 7.05511 16.9721C7.25046 16.7767 7.51542 16.667 7.79168 16.667H9.87502V33.3337H7.79168ZM17.1667 36.4587C17.1667 36.7349 17.0569 36.9999 16.8616 37.1952C16.6662 37.3906 16.4013 37.5003 16.125 37.5003H13C12.7237 37.5003 12.4588 37.3906 12.2634 37.1952C12.0681 36.9999 11.9583 36.7349 11.9583 36.4587V13.542C11.9583 13.2657 12.0681 13.0008 12.2634 12.8054C12.4588 12.6101 12.7237 12.5003 13 12.5003H16.125C16.4013 12.5003 16.6662 12.6101 16.8616 12.8054C17.0569 13.0008 17.1667 13.2657 17.1667 13.542V36.4587ZM19.25 27.0837V22.917H31.75V27.0837H19.25ZM39.0417 36.4587C39.0417 36.7349 38.9319 36.9999 38.7366 37.1952C38.5412 37.3906 38.2763 37.5003 38 37.5003H34.875C34.5987 37.5003 34.3338 37.3906 34.1384 37.1952C33.9431 36.9999 33.8333 36.7349 33.8333 36.4587V13.542C33.8333 13.2657 33.9431 13.0008 34.1384 12.8054C34.3338 12.6101 34.5987 12.5003 34.875 12.5003H38C38.2763 12.5003 38.5412 12.6101 38.7366 12.8054C38.9319 13.0008 39.0417 13.2657 39.0417 13.542V36.4587ZM44.25 32.292C44.25 32.5683 44.1403 32.8332 43.9449 33.0286C43.7496 33.2239 43.4846 33.3337 43.2083 33.3337H41.125V16.667H43.2083C43.4846 16.667 43.7496 16.7767 43.9449 16.9721C44.1403 17.1674 44.25 17.4324 44.25 17.7087V32.292ZM48.4167 26.8378C48.4173 27.0314 48.3637 27.2212 48.2618 27.3858C48.16 27.5504 48.0141 27.6832 47.8406 27.7691L46.3333 28.5232V21.4774L47.8406 22.2316C48.0141 22.3174 48.16 22.4502 48.2618 22.6148C48.3637 22.7794 48.4173 22.9693 48.4167 23.1628V26.8378Z" fill="#646464"/>
</g>
<defs>
<clipPath id="clip0_475_13717">
<rect width="50" height="50" fill="white" transform="translate(0.5)"/>
</clipPath>
</defs>
</svg>
