<svg width="50" height="50" viewBox="0 0 50 50" fill="none" xmlns="http://www.w3.org/2000/svg">
<path fill-rule="evenodd" clip-rule="evenodd" d="M14.0625 10.5177C14.0625 8.09792 25 6.25 25 6.25C25 6.25 35.9375 8.09792 35.9375 10.5177C35.9375 13.7437 33.9479 15.1042 33.9479 15.1042H16.0521C16.0521 15.1042 14.0625 13.7437 14.0625 10.5177ZM26.5625 10.9375C26.5625 11.3519 26.3979 11.7493 26.1049 12.0424C25.8118 12.3354 25.4144 12.5 25 12.5C24.5856 12.5 24.1882 12.3354 23.8951 12.0424C23.6021 11.7493 23.4375 11.3519 23.4375 10.9375C23.4375 10.5231 23.6021 10.1257 23.8951 9.83265C24.1882 9.53962 24.5856 9.375 25 9.375C25.4144 9.375 25.8118 9.53962 26.1049 9.83265C26.3979 10.1257 26.5625 10.5231 26.5625 10.9375ZM33.1396 19.0417C34.5875 17.9115 34.3625 16.6667 34.3625 16.6667H15.6375C15.6375 16.6667 15.4115 17.9115 16.8604 19.0417C16.5937 20.2586 16.6032 21.5199 16.8883 22.7327C17.1734 23.9455 17.7268 25.0789 18.5077 26.0496C19.2887 27.0203 20.2774 27.8035 21.401 28.3417C22.5247 28.8798 23.7547 29.1591 25.0005 29.1591C26.2464 29.1591 27.4764 28.8798 28.6 28.3417C29.7236 27.8035 30.7123 27.0203 31.4933 26.0496C32.2743 25.0789 32.8277 23.9455 33.1127 22.7327C33.3978 21.5199 33.4074 20.2586 33.1406 19.0417M25 20.8333C27.8344 20.8333 29.8167 20.5062 31.2 20.0354C31.2326 20.2965 31.2493 20.5625 31.25 20.8333C31.2488 21.687 31.0727 22.5314 30.7326 23.3144C30.3925 24.0974 29.8955 24.8024 29.2725 25.386C28.6494 25.9695 27.9134 26.4193 27.1098 26.7075C26.3063 26.9957 25.4522 27.1162 24.6003 27.0616C23.7483 27.007 22.9166 26.7784 22.1564 26.39C21.3962 26.0016 20.7236 25.4616 20.1802 24.8033C19.6367 24.1449 19.2339 23.3822 18.9965 22.5622C18.7591 21.7422 18.6922 20.8823 18.8 20.0354C20.1844 20.5062 22.1646 20.8333 25 20.8333ZM26.5625 31.25C26.8388 31.25 27.1037 31.3597 27.2991 31.5551C27.4944 31.7504 27.6042 32.0154 27.6042 32.2917V33.7312C27.6041 33.9246 27.5501 34.1142 27.4484 34.2787C27.3466 34.4431 27.2011 34.5761 27.0281 34.6625L26.5625 34.8958L27.1635 37.901L31.5802 31.276C31.883 31.276 32.1622 31.2774 32.4177 31.2802C38.0479 32.5646 43.75 35.1833 43.75 39.1229V43.75H6.25V39.1229C6.25 35.1833 12.2021 32.5344 17.8312 31.25C17.8115 31.2542 18.0229 31.2573 18.4094 31.2604L22.8719 37.9531L23.4375 34.8958L22.9719 34.6625C22.7989 34.5761 22.6534 34.4431 22.5516 34.2787C22.4499 34.1142 22.3959 33.9246 22.3958 33.7312V32.2917C22.3958 32.0154 22.5056 31.7504 22.7009 31.5551C22.8963 31.3597 23.1612 31.25 23.4375 31.25H26.5625ZM36.4583 36.8052C36.4583 36.8052 35.0698 36.1115 34.375 35.4167C33.6802 36.1115 32.2917 36.8052 32.2917 36.8052C32.2917 36.8052 33.0187 39.5833 34.375 39.5833C35.7312 39.5833 36.4583 36.8052 36.4583 36.8052Z" fill="#646464"/>
</svg>
