<svg width="51" height="50" viewBox="0 0 51 50" fill="none" xmlns="http://www.w3.org/2000/svg">
<path d="M48.1562 43.75H44.25V42.125C45.5505 41.9373 46.7399 41.2876 47.6006 40.2949C48.4614 39.3022 48.936 38.0327 48.9375 36.7188C48.9375 34.2734 46.9375 26.5625 43.4688 26.5625C43.0092 26.5923 42.5615 26.7216 42.1569 26.9415C41.7522 27.1614 41.4001 27.4666 41.125 27.8359V21.6484L44.6953 23.3594C44.7991 23.4127 44.9145 23.4395 45.0312 23.4375C45.1776 23.4385 45.3212 23.3978 45.4453 23.3203C45.5567 23.2486 45.6485 23.1504 45.7126 23.0345C45.7766 22.9186 45.811 22.7887 45.8125 22.6562V17.9688C45.8121 17.8215 45.7701 17.6774 45.6913 17.553C45.6125 17.4285 45.5001 17.3289 45.3672 17.2656L40.3438 14.8516V10.1562H41.9062C42.1134 10.1562 42.3122 10.0739 42.4587 9.92743C42.6052 9.78091 42.6875 9.5822 42.6875 9.375V6.25C42.6875 6.0428 42.6052 5.84409 42.4587 5.69757C42.3122 5.55106 42.1134 5.46875 41.9062 5.46875H33.3125C33.1053 5.46875 32.9066 5.55106 32.7601 5.69757C32.6136 5.84409 32.5312 6.0428 32.5312 6.25V9.375C32.5312 9.5822 32.6136 9.78091 32.7601 9.92743C32.9066 10.0739 33.1053 10.1562 33.3125 10.1562H34.875V12.2266L25.8359 7.89063C25.731 7.84065 25.6162 7.81471 25.5 7.81471C25.3838 7.81471 25.269 7.84065 25.1641 7.89063L5.63281 17.2656C5.49987 17.3289 5.38752 17.4285 5.30873 17.553C5.22994 17.6774 5.18792 17.8215 5.1875 17.9688V22.6562C5.18902 22.7887 5.22336 22.9186 5.28744 23.0345C5.35152 23.1504 5.44335 23.2486 5.55469 23.3203C5.6662 23.3897 5.79349 23.4297 5.92465 23.4365C6.05582 23.4434 6.18657 23.4168 6.30469 23.3594L9.875 21.6484V27.8359C9.5999 27.4666 9.24783 27.1614 8.84315 26.9415C8.43847 26.7216 7.99084 26.5923 7.53125 26.5625C4.0625 26.5625 2.0625 34.2734 2.0625 36.7188C2.06404 38.0327 2.5386 39.3022 3.39936 40.2949C4.26012 41.2876 5.44953 41.9373 6.75 42.125V43.75H2.84375C2.63655 43.75 2.43784 43.8323 2.29132 43.9788C2.14481 44.1253 2.0625 44.3241 2.0625 44.5312V47.6562C2.0625 47.8634 2.14481 48.0622 2.29132 48.2087C2.43784 48.3552 2.63655 48.4375 2.84375 48.4375H48.1562C48.3634 48.4375 48.5622 48.3552 48.7087 48.2087C48.8552 48.0622 48.9375 47.8634 48.9375 47.6562V44.5312C48.9375 44.3241 48.8552 44.1253 48.7087 43.9788C48.5622 43.8323 48.3634 43.75 48.1562 43.75ZM6.75 46.875H3.625V45.3125H6.75V46.875ZM34.0938 8.59375V7.03125H41.125V8.59375H34.0938ZM38.7812 10.1562V14.1016L36.4375 12.9766V10.1562H38.7812ZM6.75 21.4141V18.4609L25.5 9.46094L44.25 18.4609V21.4141L25.8359 12.5781C25.7314 12.5268 25.6165 12.5 25.5 12.5C25.3835 12.5 25.2686 12.5268 25.1641 12.5781L6.75 21.4141ZM3.625 36.7188C3.625 33.9531 5.8125 28.125 7.53125 28.125C9.25 28.125 11.4375 33.9531 11.4375 36.7188C11.4375 37.7548 11.0259 38.7483 10.2934 39.4809C9.56082 40.2135 8.56725 40.625 7.53125 40.625C6.49525 40.625 5.50168 40.2135 4.76911 39.4809C4.03655 38.7483 3.625 37.7548 3.625 36.7188ZM9.875 41.6562V43.75H8.3125V42.125C8.85376 42.0474 9.3804 41.8894 9.875 41.6562ZM13.9531 46.875H8.3125V45.3125H14.3437L13.9531 46.875ZM15.5625 46.875L15.9531 45.3125H22.5469L22.9375 46.875H15.5625ZM22.375 29.6875V43.75H16.125V29.6875H22.375ZM16.125 28.125V26.5625H22.375V28.125H16.125ZM23.1562 25H15.3438C15.1365 25 14.9378 25.0823 14.7913 25.2288C14.6448 25.3753 14.5625 25.574 14.5625 25.7812V43.75H11.4375V40.5391C12.4408 39.5209 13.0022 38.1482 13 36.7188C12.8493 34.5449 12.3206 32.414 11.4375 30.4219V20.8984L25.5 14.1484L39.5625 20.8984V30.4219C38.6794 32.414 38.1507 34.5449 38 36.7188C37.9978 38.1482 38.5592 39.5209 39.5625 40.5391V43.75H23.9375V25.7812C23.9375 25.574 23.8552 25.3753 23.7087 25.2288C23.5622 25.0823 23.3635 25 23.1562 25ZM42.6875 46.875H24.5469L24.1562 45.3125H42.6875V46.875ZM42.6875 43.75H41.125V41.6562C41.6196 41.8894 42.1462 42.0474 42.6875 42.125V43.75ZM39.5625 36.7188C39.5625 33.9531 41.75 28.125 43.4688 28.125C45.1875 28.125 47.375 33.9531 47.375 36.7188C47.375 37.7548 46.9635 38.7483 46.2309 39.4809C45.4983 40.2135 44.5048 40.625 43.4688 40.625C42.4327 40.625 41.4392 40.2135 40.7066 39.4809C39.974 38.7483 39.5625 37.7548 39.5625 36.7188ZM47.375 46.875H44.25V45.3125H47.375V46.875ZM36.4375 25H27.0625C26.8553 25 26.6566 25.0823 26.5101 25.2288C26.3636 25.3753 26.2812 25.574 26.2812 25.7812V35.9375C26.2812 36.1447 26.3636 36.3434 26.5101 36.4899C26.6566 36.6364 26.8553 36.7188 27.0625 36.7188H36.4375C36.6447 36.7188 36.8434 36.6364 36.9899 36.4899C37.1364 36.3434 37.2188 36.1447 37.2188 35.9375V25.7812C37.2188 25.574 37.1364 25.3753 36.9899 25.2288C36.8434 25.0823 36.6447 25 36.4375 25ZM27.8438 26.5625H30.9688V32.8125H27.8438V26.5625ZM35.6562 35.1562H27.8438V34.375H35.6562V35.1562ZM35.6562 32.8125H32.5312V26.5625H35.6562V32.8125Z" fill="white"/>
</svg>
