<?xml version="1.0" encoding="UTF-8"?>
<svg version="1.1" xmlns="http://www.w3.org/2000/svg" width="512" height="512">
<path d="M0 0 C5.91059454 3.50132363 10.37034972 8.12444079 12.16415191 14.89642537 C12.99946556 19.63531124 12.81582193 24.44811384 12.79129028 29.24485779 C12.79299913 30.46773737 12.79470798 31.69061694 12.79646862 32.95055348 C12.79918763 36.33249402 12.79295877 39.71420172 12.78291249 43.09611404 C12.77425914 46.74769506 12.77719949 50.39926915 12.77871704 54.05085754 C12.7797647 60.37336866 12.77350054 66.69583844 12.76224136 73.01833916 C12.74597319 82.1595583 12.74077701 91.3007575 12.73826538 100.44198955 C12.73389035 115.27375631 12.72058644 130.10550105 12.70166016 144.93725586 C12.6832964 159.34317922 12.66914232 173.74909659 12.66064453 188.1550293 C12.66011908 189.04331491 12.65959364 189.93160053 12.65905227 190.8468039 C12.65644215 195.30316265 12.65391475 199.75952145 12.65142846 204.21588027 C12.63070193 241.17388365 12.59548161 278.13186198 12.55078125 315.08984375 C13.37167236 315.0741333 14.19256348 315.05842285 15.03833008 315.04223633 C18.13775212 314.99054658 21.23695163 314.95322467 24.33666992 314.92504883 C26.31639361 314.90286905 28.29591789 314.86471378 30.27539062 314.82617188 C42.32291064 314.73467172 52.87209282 316.52527156 62.55078125 324.08984375 C70.59800213 332.13706463 73.93841384 341.87299109 74.7890625 353.03125 C74.87546997 353.99598236 74.96187744 354.96071472 75.05090332 355.9546814 C75.33656297 359.18613469 75.60002668 362.41899392 75.86328125 365.65234375 C76.06272053 367.96894589 76.26352811 370.28543057 76.46557617 372.60180664 C76.85568209 377.09829653 77.24014588 381.59519294 77.61761951 386.09276104 C78.43850667 395.86715652 79.30680561 405.63705816 80.18120766 415.40679359 C80.75220359 421.79847735 81.31659656 428.19074739 81.88143921 434.58297729 C82.20061855 438.19442248 82.52193515 441.80566817 82.84487915 445.41677856 C83.23031487 449.73243718 83.60881126 454.04865642 83.98252869 458.365345 C84.12159105 459.95954863 84.26285469 461.55356219 84.40660095 463.14735031 C85.10615385 470.91850963 85.68887805 478.67870866 85.82299805 486.48266602 C85.84557175 487.6840773 85.86814545 488.88548859 85.8914032 490.12330627 C85.55078125 493.08984375 85.55078125 493.08984375 84.47829247 494.75228405 C81.59988107 496.74970282 78.74896647 496.49677399 75.36997986 496.45733643 C74.26569251 496.46223969 74.26569251 496.46223969 73.13909632 496.467242 C70.66535832 496.47454119 68.19220795 496.46034837 65.71850586 496.44628906 C63.9479309 496.44707967 62.17735611 496.44917611 60.40678406 496.45248413 C55.59284889 496.45762643 50.77912681 496.44406663 45.96522593 496.42695713 C40.93463194 496.41194538 35.90404099 496.41309575 30.87342834 496.41229248 C22.42559155 496.40859774 13.97783589 496.3936194 5.5300293 496.37109375 C-5.32436931 496.34221062 -16.17870256 496.33187006 -27.03313541 496.32741165 C-36.35145837 496.32343572 -45.66976704 496.31093351 -54.98807979 496.29706478 C-57.99011563 496.2929609 -60.99215097 496.29003777 -63.99418831 496.28726959 C-68.70468662 496.28238521 -73.41514506 496.27219639 -78.1256237 496.25783157 C-79.85828161 496.25329945 -81.59094488 496.25046776 -83.3236084 496.24942398 C-85.68091297 496.24768484 -88.03811697 496.23981937 -90.395401 496.23028564 C-91.43414898 496.23158537 -91.43414898 496.23158537 -92.49388176 496.23291135 C-97.22080265 496.2040518 -97.22080265 496.2040518 -99.44921875 495.08984375 C-99.95261689 479.8611706 -98.50943203 464.78899419 -97.15779591 449.63696408 C-96.96312433 447.44942875 -96.77059691 445.26171509 -96.57878876 443.07392693 C-95.90746302 435.41716556 -95.22845123 427.76113199 -94.54199219 420.10571289 C-93.90544128 413.0045719 -93.28606707 405.90207149 -92.67452455 398.79873711 C-92.14538239 392.6614105 -91.60426644 386.52521462 -91.05396819 380.38974899 C-90.7269662 376.74167254 -90.40464736 373.09333909 -90.09449005 369.44378853 C-89.74860358 365.37955197 -89.37782049 361.31794721 -89.00488281 357.25610352 C-88.90705505 356.06576508 -88.80922729 354.87542664 -88.70843506 353.64901733 C-87.58246607 341.83949632 -83.96976538 332.5375652 -75.44921875 324.08984375 C-67.14491283 317.972212 -58.95660941 314.93657821 -48.61328125 314.9921875 C-47.54980469 314.99541016 -46.48632812 314.99863281 -45.390625 315.00195312 C-44.29621094 315.01033203 -43.20179688 315.01871094 -42.07421875 315.02734375 C-40.95660156 315.03185547 -39.83898437 315.03636719 -38.6875 315.04101562 C-35.94135071 315.05275131 -33.19531289 315.06917012 -30.44921875 315.08984375 C-30.45035791 314.46020658 -30.45149707 313.83056942 -30.45267075 313.18185234 C-30.51980716 275.86320378 -30.57127954 238.54456416 -30.60241474 201.22586757 C-30.60616685 196.74481656 -30.61004982 192.26376567 -30.61401367 187.78271484 C-30.6148006 186.89061951 -30.61558753 185.99852418 -30.61639831 185.07939565 C-30.62945169 170.63532778 -30.65310517 156.19129574 -30.68067714 141.74724913 C-30.7087332 126.92597009 -30.72539544 112.10470981 -30.73148423 97.2834053 C-30.73560026 88.13810561 -30.74859974 78.99290719 -30.77296815 69.84763867 C-30.78882781 63.57611026 -30.79361858 57.3046342 -30.78972288 51.03308719 C-30.78780169 47.41490057 -30.79074375 43.79689089 -30.80683517 40.17873573 C-30.82416479 36.2534506 -30.81817706 32.32839538 -30.8099823 28.40307617 C-30.81872082 27.26298536 -30.82745935 26.12289455 -30.83646268 24.94825554 C-30.79583659 17.75596189 -30.19045596 11.81844602 -25.80078125 5.84765625 C-24.94613281 5.03941406 -24.94613281 5.03941406 -24.07421875 4.21484375 C-23.22730469 3.38339844 -23.22730469 3.38339844 -22.36328125 2.53515625 C-16.20945048 -2.11161392 -7.13694602 -2.65216654 0 0 Z M-14.13820171 13.87643719 C-17.63249082 18.7351515 -17.12485188 23.15863108 -17.05049133 29.00434875 C-17.05476346 30.22551948 -17.05903558 31.44669021 -17.06343716 32.70486611 C-17.07025016 36.09177796 -17.05462389 39.4772456 -17.02954686 42.8639828 C-17.00795636 46.51696206 -17.01526127 50.16989664 -17.01905823 53.82292175 C-17.02168012 60.15101504 -17.00599151 66.47885059 -16.97786903 72.80687904 C-16.93723531 81.95610256 -16.92421196 91.10520144 -16.91792908 100.25450542 C-16.90698568 115.09853325 -16.87371028 129.94242371 -16.82641602 144.78637695 C-16.78052158 159.20596631 -16.74512911 173.62551836 -16.72387695 188.04516602 C-16.72256334 188.93397708 -16.72124972 189.82278815 -16.71989629 190.73853288 C-16.71337111 195.19743271 -16.70705257 199.6563328 -16.70083678 204.11523306 C-16.64900236 241.1068679 -16.56056421 278.09834291 -16.44921875 315.08984375 C-10.83921875 315.08984375 -5.22921875 315.08984375 0.55078125 315.08984375 C0.59638753 277.59370179 0.63179084 240.09756475 0.65291191 202.60140066 C0.65541338 198.17656849 0.65800202 193.75173638 0.66064453 189.3269043 C0.66116915 188.44598449 0.66169377 187.56506469 0.66223429 186.65745034 C0.67094147 172.38596247 0.68671316 158.11449069 0.70508684 143.84301237 C0.7237772 129.20367858 0.73489614 114.56435323 0.73895824 99.925008 C0.74170509 90.88874253 0.75038684 81.85252251 0.76661418 72.81627103 C0.77717039 66.62326302 0.78038497 60.43027858 0.777784 54.23726223 C0.77650059 50.66201617 0.77849461 47.08684965 0.7891922 43.51161766 C0.80069854 39.63786785 0.79676598 35.76422223 0.79129028 31.89045715 C0.79711597 30.75719161 0.80294165 29.62392607 0.80894387 28.45631915 C0.80496177 27.41876222 0.80097967 26.38120528 0.79687691 25.31220722 C0.79801607 23.97084516 0.79801607 23.97084516 0.79917824 22.60238487 C0.449743 19.0678396 -0.69744913 16.23728159 -2.63671875 13.27734375 C-6.60796184 10.67549483 -10.35007179 11.35955696 -14.13820171 13.87643719 Z M-69.57421875 337.27734375 C-70.41339844 338.31955078 -70.41339844 338.31955078 -71.26953125 339.3828125 C-72.54397284 340.88112174 -72.54397284 340.88112174 -72.44921875 342.08984375 C-29.87921875 342.08984375 12.69078125 342.08984375 56.55078125 342.08984375 C52.93014334 334.84856794 48.03990215 331.60051402 40.55078125 329.08984375 C37.31053178 328.5730672 34.15176612 328.54103957 30.87524414 328.57226562 C29.95365005 328.56525635 29.03205597 328.55824707 28.08253479 328.55102539 C25.06252117 328.53354613 22.04345921 328.54503334 19.0234375 328.55859375 C16.9079114 328.55589572 14.79238651 328.55201071 12.67686462 328.54699707 C8.25296163 328.54111544 3.82938275 328.54962118 -0.59448242 328.56835938 C-6.24447697 328.59113382 -11.89371073 328.57802648 -17.54367733 328.55406952 C-21.90964918 328.53956357 -26.27544293 328.54423976 -30.64142036 328.55458069 C-32.72368016 328.55723545 -34.8059565 328.55402259 -36.88819695 328.54466248 C-39.80732458 328.53441926 -42.72524834 328.55010671 -45.64428711 328.57226562 C-46.49186584 328.5641687 -47.33944458 328.55607178 -48.21270752 328.54772949 C-56.16579716 328.65868233 -64.50203541 330.74721399 -69.57421875 337.27734375 Z M-75.44921875 355.08984375 C-78.50933437 385.38955916 -78.50933437 385.38955916 -81.37109375 415.70703125 C-81.5222842 417.37468776 -81.67351013 419.04234106 -81.82476807 420.70999146 C-82.13180565 424.10097048 -82.43728643 427.49208518 -82.74169922 430.88330078 C-83.12946496 435.19968264 -83.52332596 439.51548782 -83.91840744 443.83120537 C-84.22857129 447.23000156 -84.53469523 450.62915289 -84.83969879 454.02841568 C-84.9833642 455.62236762 -85.12845372 457.21619198 -85.27510834 458.80987167 C-85.47770788 461.01595432 -85.67457614 463.22248119 -85.87011719 465.42919922 C-85.98240662 466.67200653 -86.09469604 467.91481384 -86.21038818 469.19528198 C-86.49392142 473.81880117 -86.44921875 478.45763901 -86.44921875 483.08984375 C-76.87921875 483.08984375 -67.30921875 483.08984375 -57.44921875 483.08984375 C-57.41183594 480.30933594 -57.37445313 477.52882813 -57.3359375 474.6640625 C-57.2897358 471.97330829 -57.23849728 469.28269395 -57.18676758 466.59204102 C-57.15349873 464.72103361 -57.1254729 462.84992537 -57.1027832 460.97875977 C-57.06927287 458.29008992 -57.0169601 455.60234577 -56.9609375 452.9140625 C-56.95454758 452.07646896 -56.94815765 451.23887543 -56.9415741 450.37590027 C-56.79292609 444.51396573 -56.79292609 444.51396573 -55.04988098 442.3631134 C-52.15554262 440.06077058 -49.01284851 440.91458327 -45.44921875 441.08984375 C-44.27847385 445.30404135 -44.22246271 449.4449203 -44.1328125 453.79296875 C-44.1120314 454.63075867 -44.09125031 455.46854858 -44.06983948 456.33172607 C-44.00459325 459.00101731 -43.94557517 461.67040473 -43.88671875 464.33984375 C-43.84350981 466.15235359 -43.79989476 467.9648538 -43.75585938 469.77734375 C-43.64817515 474.21474671 -43.54891668 478.65222543 -43.44921875 483.08984375 C-33.87921875 483.08984375 -24.30921875 483.08984375 -14.44921875 483.08984375 C-14.41183594 480.30933594 -14.37445313 477.52882813 -14.3359375 474.6640625 C-14.2897358 471.97330829 -14.23849728 469.28269395 -14.18676758 466.59204102 C-14.15349873 464.72103361 -14.1254729 462.84992537 -14.1027832 460.97875977 C-14.06927287 458.29008992 -14.0169601 455.60234577 -13.9609375 452.9140625 C-13.95454758 452.07646896 -13.94815765 451.23887543 -13.9415741 450.37590027 C-13.79338804 444.53218246 -13.79338804 444.53218246 -12.10969543 442.36824036 C-9.5467817 440.39505985 -7.57790335 440.69875817 -4.44921875 441.08984375 C-2.78874207 442.36824036 -2.78874207 442.36824036 -1.44921875 444.08984375 C-1.11778407 447.09521336 -0.96046119 449.90430103 -0.9375 452.9140625 C-0.9195488 453.77546341 -0.9015976 454.63686432 -0.88310242 455.52436829 C-0.82892577 458.27531033 -0.79508052 461.02607816 -0.76171875 463.77734375 C-0.72855212 465.64260241 -0.69406308 467.50783805 -0.65820312 469.37304688 C-0.57070489 473.94533858 -0.51070106 478.51683176 -0.44921875 483.08984375 C9.12078125 483.08984375 18.69078125 483.08984375 28.55078125 483.08984375 C28.59976563 478.79339844 28.64875 474.49695313 28.69921875 470.0703125 C28.74375114 466.64602142 28.79024709 463.22176954 28.83807373 459.7975235 C28.88803189 456.18202973 28.93452371 452.56656721 28.97265625 448.95092773 C29.00951249 445.46893247 29.05587295 441.98718198 29.10884476 438.50539589 C29.13641511 436.52957261 29.15412375 434.55361975 29.17172241 432.5776825 C29.1915921 431.37666397 29.21146179 430.17564545 29.23193359 428.93823242 C29.24525726 427.8790007 29.25858093 426.81976898 29.27230835 425.72843933 C29.55078125 423.08984375 29.55078125 423.08984375 31.55078125 420.08984375 C34.85078125 420.08984375 38.15078125 420.08984375 41.55078125 420.08984375 C41.88078125 440.87984375 42.21078125 461.66984375 42.55078125 483.08984375 C52.12078125 483.08984375 61.69078125 483.08984375 71.55078125 483.08984375 C71.59868636 475.35391247 71.59868636 475.35391247 71.1778717 467.72041321 C71.05382713 466.31401077 71.05382713 466.31401077 70.92727661 464.87919617 C70.83534027 463.88821426 70.74340393 462.89723236 70.64868164 461.8762207 C70.55275223 460.80335815 70.45682281 459.73049561 70.35798645 458.62512207 C70.04246997 455.10905032 69.720576 451.59359572 69.3984375 448.078125 C69.17629246 445.62056989 68.954491 443.16298371 68.73301697 440.70536804 C68.26917244 435.5685436 67.80237905 430.43199895 67.33325195 425.2956543 C66.73263957 418.71897421 66.13754863 412.1418097 65.54442692 405.56445026 C65.08699704 400.49509298 64.62758468 395.42591702 64.16747856 390.35680199 C63.94741031 387.93158714 63.72773747 385.50633639 63.50847054 383.08104897 C63.20160909 379.69228689 62.89230743 376.30375649 62.58227539 372.9152832 C62.49236328 371.91822861 62.40245117 370.92117401 62.30981445 369.89390564 C62.22429825 368.96476349 62.13878204 368.03562134 62.05067444 367.07832336 C61.97785279 366.27921193 61.90503115 365.4801005 61.83000278 364.65677357 C61.48208224 361.45828233 61.00578443 358.27486604 60.55078125 355.08984375 C15.67078125 355.08984375 -29.20921875 355.08984375 -75.44921875 355.08984375 Z " fill="#636363" transform="translate(419.44921875,8.91015625)"/>
<path d="M0 0 C3.92366458 3.33794551 7.60325147 6.89506743 11.21289062 10.56738281 C11.9734375 11.32921875 12.73398437 12.09105469 13.51757812 12.87597656 C34.74611827 35.38483722 38.58332379 63.42558792 38.33789062 92.87988281 C38.32783907 94.98860251 38.31871707 97.09732686 38.31054688 99.20605469 C38.28870971 104.32661392 38.25430007 109.44694599 38.21289062 114.56738281 C38.88400879 114.54780518 39.55512695 114.52822754 40.24658203 114.50805664 C41.57955322 114.48521606 41.57955322 114.48521606 42.93945312 114.46191406 C43.81682129 114.44233643 44.69418945 114.42275879 45.59814453 114.40258789 C50.89647623 114.73651636 54.7436589 117.17756902 58.52539062 120.75488281 C62.77888984 127.84404817 64.237544 134.44103435 62.21289062 142.56738281 C59.88861447 147.12985082 56.69680039 150.99040906 52.21289062 153.56738281 C49.9206543 154.22460938 49.9206543 154.22460938 47.50585938 154.70800781 C46.70043701 154.87333008 45.89501465 155.03865234 45.06518555 155.20898438 C44.45392822 155.32725586 43.8426709 155.44552734 43.21289062 155.56738281 C43.0868127 156.19814948 42.96073477 156.82891615 42.8308363 157.47879696 C39.75699354 172.85514027 36.67677881 188.23019139 33.58954144 203.60385036 C32.09670521 211.03858523 30.60599703 218.47373476 29.12036133 225.90991211 C27.82487123 232.39430916 26.52532396 238.87787781 25.22097999 245.36049992 C24.53103634 248.79025897 23.84307569 252.220388 23.15997887 255.65151787 C22.39572434 259.48989659 21.62240935 263.32641993 20.84838867 267.1628418 C20.62540604 268.28997589 20.4024234 269.41710999 20.17268372 270.57839966 C16.68055989 287.76772619 16.68055989 287.76772619 11.27539062 293.50488281 C10.60636719 294.23578125 9.93734375 294.96667969 9.24804688 295.71972656 C5.78060208 298.86771387 3.96029941 299.56738281 -0.78710938 299.56738281 C-0.86751465 300.19306152 -0.94791992 300.81874023 -1.03076172 301.46337891 C-1.39911655 304.29093577 -1.78044428 307.11659316 -2.16210938 309.94238281 C-2.2884375 310.92722656 -2.41476563 311.91207031 -2.54492188 312.92675781 C-2.67382812 313.86777344 -2.80273438 314.80878906 -2.93554688 315.77832031 C-3.10836182 317.0822876 -3.10836182 317.0822876 -3.28466797 318.41259766 C-3.78710938 320.56738281 -3.78710938 320.56738281 -5.78710938 322.56738281 C-7.68026638 322.82185841 -7.68026638 322.82185841 -10.03160095 322.82807922 C-11.36707222 322.83870644 -11.36707222 322.83870644 -12.72952271 322.84954834 C-13.7087973 322.84707092 -14.6880719 322.84459351 -15.69702148 322.84204102 C-17.24104897 322.84970741 -17.24104897 322.84970741 -18.81626892 322.85752869 C-22.23238882 322.87147398 -25.64830808 322.8704642 -29.06445312 322.86816406 C-31.43095475 322.87204828 -33.79745568 322.87638238 -36.16395569 322.88114929 C-41.12975319 322.88862214 -46.09547961 322.88831251 -51.0612793 322.88305664 C-57.43506176 322.87726072 -63.80855376 322.89419106 -70.18228817 322.91740131 C-75.07123017 322.93211011 -79.96010176 322.93301424 -84.84906197 322.92989159 C-87.19947447 322.93040624 -89.54989076 322.93567079 -91.90028191 322.94570351 C-95.18298262 322.95799515 -98.46511165 322.95131977 -101.74780273 322.93969727 C-102.7250531 322.947341 -103.70230347 322.95498474 -104.70916748 322.96286011 C-106.04886848 322.95233864 -106.04886848 322.95233864 -107.41563416 322.94160461 C-108.19195159 322.94177236 -108.96826902 322.9419401 -109.76811123 322.94211292 C-112.32461723 322.46762028 -113.2007229 321.58928624 -114.78710938 319.56738281 C-115.40307617 317.39086914 -115.40307617 317.39086914 -115.73632812 314.89941406 C-115.86201172 314.00673828 -115.98769531 313.1140625 -116.1171875 312.19433594 C-116.29411133 310.80118164 -116.29411133 310.80118164 -116.47460938 309.37988281 C-116.60416016 308.43951172 -116.73371094 307.49914062 -116.8671875 306.53027344 C-117.18511342 304.21059172 -117.49127701 301.8899681 -117.78710938 299.56738281 C-118.69203125 299.46296875 -119.59695312 299.35855469 -120.52929688 299.25097656 C-123.88751172 298.54631517 -125.35025448 297.83390777 -127.91210938 295.62988281 C-128.5540625 295.10523438 -129.19601563 294.58058594 -129.85742188 294.04003906 C-135.38146825 286.96165575 -136.86432459 277.59832769 -138.53613281 268.98925781 C-138.78055618 267.77181381 -139.02497955 266.55436981 -139.27680969 265.30003357 C-139.93853663 261.99405624 -140.59173046 258.68661836 -141.24091244 255.37817001 C-141.9241616 251.90645267 -142.61815037 248.43688225 -143.31085205 244.96704102 C-144.47026535 239.15163807 -145.62264565 233.33487961 -146.77001953 227.51708984 C-148.38940097 219.3060801 -150.02220496 211.09778029 -151.65734434 202.88989639 C-152.79033716 197.20005292 -153.92016243 191.50957982 -155.04937458 185.81898499 C-155.32303257 184.43997 -155.59677752 183.06097226 -155.87060833 181.68199158 C-156.76867889 177.15871144 -157.66308796 172.63471988 -158.55566406 168.11035156 C-158.78314835 166.96441025 -159.01063263 165.81846893 -159.24501038 164.63780212 C-159.44958359 163.59773514 -159.6541568 162.55766815 -159.8649292 161.48608398 C-160.04409252 160.57912277 -160.22325584 159.67216156 -160.40784836 158.73771667 C-160.78710938 156.56738281 -160.78710938 156.56738281 -160.78710938 154.56738281 C-161.77710938 154.64988281 -162.76710938 154.73238281 -163.78710938 154.81738281 C-169.24128215 154.77321947 -173.41291551 152.74659458 -177.40429688 149.08300781 C-180.90156264 144.61757243 -181.26393792 139.96819189 -181.34960938 134.44238281 C-181.36443359 133.76143555 -181.37925781 133.08048828 -181.39453125 132.37890625 C-181.29154371 127.33987304 -179.90004762 124.46142733 -176.78710938 120.56738281 C-172.14357698 116.28104521 -168.41382943 114.45229198 -162.11523438 114.52050781 C-160.8994873 114.53065918 -160.8994873 114.53065918 -159.65917969 114.54101562 C-159.04139648 114.5497168 -158.42361328 114.55841797 -157.78710938 114.56738281 C-157.79599182 113.99347809 -157.80487427 113.41957336 -157.81402588 112.82827759 C-157.90373668 106.75931953 -157.96334596 100.69055485 -158.00683594 94.62109375 C-158.02673438 92.36743498 -158.05386304 90.11382632 -158.08886719 87.86035156 C-158.56553699 56.34406556 -150.94121143 30.74795826 -128.78710938 7.56738281 C-116.93050734 -3.94340166 -102.60277903 -11.78094964 -86.78710938 -16.43261719 C-85.76230469 -16.75101563 -84.7375 -17.06941406 -83.68164062 -17.39746094 C-55.73528828 -24.78401205 -22.6088139 -18.12411475 0 0 Z M-124.78710938 23.56738281 C-146.96119818 50.47010753 -144.78710938 80.33078176 -144.78710938 114.56738281 C-88.35710937 114.56738281 -31.92710937 114.56738281 26.21289062 114.56738281 C27.29542234 63.70282484 27.29542234 63.70282484 4.21289062 21.56738281 C3.47425781 20.73464844 2.735625 19.90191406 1.97460938 19.04394531 C-12.3402062 3.81541811 -32.31590492 -5.74360391 -53.22070312 -6.74902344 C-81.31364259 -7.57130139 -106.11510136 2.23755744 -124.78710938 23.56738281 Z M-166.75546932 128.94275475 C-168.18971868 131.20141246 -168.59621882 132.89491498 -168.78710938 135.56738281 C-167.7873387 138.85543969 -167.7873387 138.85543969 -165.78710938 141.56738281 C-163.0502704 141.67413189 -160.33836137 141.71516649 -157.60073853 141.71455383 C-156.73220415 141.71823052 -155.86366976 141.72190721 -154.96881616 141.72569531 C-152.03535728 141.73677836 -149.10193376 141.74058376 -146.16845703 141.74438477 C-144.07468044 141.75064586 -141.98090497 141.75729233 -139.88713074 141.76429749 C-134.18262887 141.78173859 -128.4781354 141.79226736 -122.77361345 141.80050302 C-119.21383421 141.80564577 -115.65405762 141.81172177 -112.09428024 141.81801414 C-100.96865573 141.83707348 -89.8430379 141.85130395 -78.71740019 141.85962611 C-65.85192725 141.86940724 -52.98662597 141.89574656 -40.12121356 141.93612701 C-30.19171549 141.96622894 -20.2622668 141.98108929 -10.33272398 141.98440713 C-4.39522728 141.9867641 1.54208618 141.99580847 7.47953415 142.0208683 C13.06256379 142.04405102 18.64528831 142.04842191 24.2283535 142.03810692 C26.28150252 142.03760907 28.33466607 142.04400208 30.3877697 142.05766296 C33.18306896 142.07522679 35.97725461 142.06835285 38.77255249 142.05513 C39.59190383 142.06609925 40.41125518 142.0770685 41.25543535 142.08837014 C45.64848685 142.05523275 45.64848685 142.05523275 49.24431801 139.75955486 C50.73753935 136.37994447 50.16817988 134.07011007 49.21289062 130.56738281 C46.71509439 127.80942342 45.19455324 127.56554334 41.44943142 127.18985939 C39.89292401 127.17335114 38.33618878 127.17346623 36.77964783 127.18643188 C35.92080083 127.18175191 35.06195383 127.17707194 34.17708117 127.17225015 C31.29424875 127.16026752 28.41188883 127.16977012 25.52905273 127.17919922 C23.46438824 127.175135 21.39972593 127.16979397 19.33506775 127.16326904 C13.72365782 127.1495727 8.11241305 127.15490347 2.50100017 127.1644063 C-3.3646078 127.17198985 -9.23020142 127.16496102 -15.09580994 127.1602478 C-24.9458165 127.15478688 -34.79575562 127.16199117 -44.64575195 127.17626953 C-56.04406576 127.19260118 -67.44221863 127.1873051 -78.84052855 127.17079031 C-88.61723463 127.15719046 -98.39389217 127.1552483 -108.17060465 127.16310632 C-114.01410877 127.16779051 -119.85753716 127.16838713 -125.70103645 127.15849686 C-131.19298679 127.14985114 -136.68472895 127.15580522 -142.17665672 127.17317963 C-144.19593077 127.1771571 -146.21522225 127.175989 -148.23448944 127.16939163 C-150.98351546 127.16123589 -153.73186755 127.17142505 -156.48085022 127.18643188 C-157.68929843 127.17639364 -157.68929843 127.17639364 -158.92215973 127.1661526 C-163.08962702 127.17555097 -163.08962702 127.17555097 -166.75546932 128.94275475 Z M-146.78710938 154.56738281 C-146.00626216 161.82395145 -146.00626216 161.82395145 -144.80714417 168.94390869 C-144.61513428 169.90826843 -144.42312439 170.87262817 -144.22529602 171.86621094 C-144.0169664 172.89198242 -143.80863678 173.91775391 -143.59399414 174.97460938 C-143.37272858 176.07979919 -143.15146301 177.18498901 -142.92349243 178.32366943 C-142.19580229 181.95259275 -141.46239542 185.58033157 -140.72851562 189.20800781 C-140.21886576 191.7390335 -139.70942369 194.27010104 -139.20018005 196.8012085 C-138.13434417 202.09391251 -137.06566773 207.38603167 -135.99487305 212.67773438 C-134.75867642 218.78714419 -133.52882159 224.89780608 -132.30211979 231.00912881 C-131.11839565 236.9051842 -129.92934073 242.80015019 -128.7381115 248.69469452 C-128.23310862 251.19666181 -127.72956663 253.69892443 -127.22751045 256.20148468 C-126.52611812 259.69451049 -125.81866667 263.18625562 -125.10961914 266.67773438 C-124.80016106 268.22853699 -124.80016106 268.22853699 -124.48445129 269.81066895 C-124.28962158 270.76374939 -124.09479187 271.71682983 -123.89405823 272.6987915 C-123.72759072 273.52316837 -123.56112322 274.34754524 -123.38961124 275.19690323 C-122.43534251 278.95137216 -121.36970347 281.88279077 -118.84667969 284.84753418 C-114.25129115 287.43069845 -110.02287946 287.12535317 -104.83398438 287.08496094 C-103.72937866 287.09197021 -102.62477295 287.09897949 -101.48669434 287.10620117 C-97.83657672 287.12380156 -94.18723483 287.11215037 -90.53710938 287.09863281 C-88.00032401 287.10132712 -85.46353964 287.10520902 -82.92675781 287.11022949 C-77.61056735 287.11612736 -72.29465474 287.10793383 -66.97851562 287.08886719 C-60.83841494 287.06709922 -54.69884559 287.07415103 -48.55875778 287.09617281 C-42.64431091 287.11653366 -36.73002867 287.11435104 -30.81555176 287.10264587 C-28.30212327 287.09997638 -25.78868123 287.10325613 -23.27526855 287.11256409 C-19.76322441 287.12271577 -16.25220234 287.10724614 -12.74023438 287.08496094 C-11.70008179 287.09305786 -10.6599292 287.10115479 -9.58825684 287.10949707 C-5.34599646 287.05959441 -2.51849664 286.95347947 1.27325439 284.951828 C3.70721204 281.95970067 4.37069659 279.6687411 5.20019531 275.89868164 C5.35648785 275.20867223 5.51278038 274.51866282 5.67380905 273.80774403 C6.21030605 271.39877637 6.71315696 268.9842353 7.21289062 266.56738281 C7.40452286 265.66325527 7.59615509 264.75912773 7.79359436 263.82760239 C9.38477024 256.3173162 10.90425619 248.79320629 12.41601562 241.26660156 C12.90330467 238.85280098 13.39083741 236.43904957 13.87860107 234.02534485 C14.89277951 229.00247587 15.90438976 223.97909884 16.9140625 218.95532227 C18.20972622 212.50937988 19.51136058 206.06466029 20.81480789 199.6202879 C21.81894027 194.65291103 22.8202405 189.68496668 23.82064056 184.71683693 C24.2998819 182.33835291 24.77994541 179.96003441 25.26084137 177.58188438 C25.92901782 174.27512496 26.59344902 170.96763522 27.25683594 167.65991211 C27.55598404 166.18495018 27.55598404 166.18495018 27.86117554 164.68019104 C28.04050629 163.78204681 28.21983704 162.88390259 28.40460205 161.95854187 C28.64016249 160.78815636 28.64016249 160.78815636 28.88048172 159.5941267 C29.29381508 157.41627877 29.29381508 157.41627877 29.21289062 154.56738281 C-28.86710938 154.56738281 -86.94710938 154.56738281 -146.78710938 154.56738281 Z M-104.78710938 300.56738281 C-104.45710938 303.86738281 -104.12710938 307.16738281 -103.78710938 310.56738281 C-74.41710937 310.56738281 -45.04710937 310.56738281 -14.78710938 310.56738281 C-14.45710938 307.26738281 -14.12710938 303.96738281 -13.78710938 300.56738281 C-43.81710938 300.56738281 -73.84710938 300.56738281 -104.78710938 300.56738281 Z " fill="#636363" transform="translate(248.787109375,182.4326171875)"/>
<path d="M0 0 C14.99349926 12.8095722 25.67227016 31.05247027 28.1640625 50.7578125 C29.23887271 64.51584454 29.00111753 77.72155271 24.1640625 90.7578125 C23.80183594 91.79679687 23.43960938 92.83578125 23.06640625 93.90625 C15.06573355 115.00632919 -1.30720707 130.84658825 -21.53930664 140.14550781 C-41.73440955 149.00002173 -64.48931499 148.90081062 -85.10546875 141.2890625 C-96.85679445 136.6338592 -106.00648648 129.69284739 -114.8359375 120.7578125 C-115.50238281 120.10167969 -116.16882813 119.44554687 -116.85546875 118.76953125 C-132.65678266 102.11216421 -137.51113749 79.95982353 -137.15234375 57.765625 C-136.86033814 49.98776858 -135.36463447 43.12005155 -132.8359375 35.7578125 C-132.47371094 34.695625 -132.11148438 33.6334375 -131.73828125 32.5390625 C-123.90910436 11.94434633 -108.08212238 -3.36007988 -88.43359375 -12.73828125 C-58.2259421 -25.36580121 -25.44134231 -20.11478028 0 0 Z M-106.9609375 17.8828125 C-121.06224676 34.46755071 -125.21508193 53.51345594 -123.8359375 74.7578125 C-121.6729754 92.53428787 -111.50151566 107.82017717 -98.0390625 119.1015625 C-82.11889675 131.15411736 -63.77309614 136.4884021 -43.90991211 133.86157227 C-25.62003068 131.0143463 -9.90560103 121.05610278 1.73046875 106.75 C13.60372964 90.25037315 17.95309502 71.33623685 14.765625 51.24658203 C10.69395801 32.57563984 0.01296501 16.51382946 -15.8359375 5.7578125 C-46.45921202 -12.61132458 -82.16524343 -8.01384868 -106.9609375 17.8828125 Z " fill="#636363" transform="translate(143.8359375,25.2421875)"/>
<path d="M0 0 C2 2 2 2 2.59765625 5.625 C2.46639839 10.51352809 0.06510961 12.73886812 -3.34570312 16 C-4.07724609 16.66 -4.80878906 17.32 -5.5625 18 C-6.98290572 19.33073692 -8.40088876 20.6640646 -9.81640625 22 C-10.52764648 22.66628418 -11.23888672 23.33256836 -11.97167969 24.01904297 C-13.83845444 25.84222668 -15.54554807 27.71146242 -17.23828125 29.6953125 C-21.87326334 35.10929986 -26.90645512 40.12911891 -31.93457031 45.17480469 C-33.6355049 46.88556559 -35.32547742 48.60671457 -37.015625 50.328125 C-38.10611268 51.4251338 -39.19723606 52.52151113 -40.2890625 53.6171875 C-40.78814117 54.12861298 -41.28721985 54.64003845 -41.80142212 55.16696167 C-44.66302897 58.01058503 -47.04081646 60.05492439 -51 61 C-58.38654932 60.69506717 -61.95125785 55.85806435 -66.875 50.875 C-67.75414062 50.03195313 -68.63328125 49.18890625 -69.5390625 48.3203125 C-76.5639242 41.2954508 -76.5639242 41.2954508 -76.63671875 37.00390625 C-76 34 -76 34 -74.9375 32.0625 C-71.61175268 30.23870308 -69.74510037 30.32465403 -66 31 C-63.78127189 32.80462365 -61.92348886 34.77163237 -60 36.88671875 C-57.27373971 39.76739612 -54.29202906 41.80531396 -51 44 C-50.54826416 43.48260254 -50.09652832 42.96520508 -49.63110352 42.43212891 C-42.41546084 34.28733466 -34.86606513 26.47296309 -27.23413086 18.71923828 C-25.69319675 17.14636177 -24.1603824 15.5654922 -22.63549805 13.97705078 C-20.41007615 11.66059646 -18.15968037 9.37124976 -15.90234375 7.0859375 C-14.89106667 6.01743057 -14.89106667 6.01743057 -13.85935974 4.92733765 C-9.22590809 0.31255669 -6.56304771 -1.02640012 0 0 Z " fill="#636363" transform="translate(127,59)"/>
</svg>
