<svg width="51" height="50" viewBox="0 0 51 50" fill="none" xmlns="http://www.w3.org/2000/svg">
<path d="M44.0157 9.05469H6.98438C6.77717 9.05469 6.57846 9.13703 6.43195 9.28352C6.28544 9.43008 6.20312 9.62875 6.20312 9.83594V46.875C6.20312 47.0823 6.28544 47.2809 6.43195 47.4275C6.57846 47.574 6.77717 47.6562 6.98438 47.6562H44.0157C44.2229 47.6562 44.4215 47.574 44.5681 47.4275C44.7146 47.2809 44.7969 47.0823 44.7969 46.875V9.83594C44.7969 9.62875 44.7146 9.43008 44.5681 9.28352C44.4215 9.13703 44.2229 9.05469 44.0157 9.05469ZM13.0546 46.0938V15.9141H37.9453V46.0938H13.0546ZM43.2344 46.0938H39.5078V15.1328C39.5078 14.9256 39.4255 14.727 39.279 14.5804C39.1325 14.4339 38.9338 14.3516 38.7265 14.3516H12.2734C12.0662 14.3516 11.8675 14.4339 11.721 14.5804C11.5745 14.727 11.4921 14.9256 11.4921 15.1328V46.0938H7.76563V10.6172H43.2344V46.0938Z" fill="#646464"/>
<path d="M16.2422 7.8125H34.7578C34.965 7.8125 35.1637 7.73019 35.3102 7.58368C35.4568 7.43716 35.5391 7.23845 35.5391 7.03125V3.125C35.5391 2.9178 35.4568 2.71909 35.3102 2.57257C35.1637 2.42606 34.965 2.34375 34.7578 2.34375H16.2422C16.035 2.34375 15.8363 2.42606 15.6898 2.57257C15.5433 2.71909 15.4609 2.9178 15.4609 3.125V7.03125C15.4609 7.23845 15.5433 7.43716 15.6898 7.58368C15.8363 7.73019 16.035 7.8125 16.2422 7.8125ZM17.0234 3.90625H33.9766V6.25H17.0234V3.90625Z" fill="#646464"/>
<path d="M25.5 17.7344C25.2928 17.7344 25.0941 17.8167 24.9476 17.9632C24.8011 18.1097 24.7188 18.3084 24.7188 18.5156V23.2031C24.7188 23.4103 24.8011 23.6091 24.9476 23.7555C25.0941 23.902 25.2928 23.9844 25.5 23.9844C25.7072 23.9844 25.9059 23.902 26.0524 23.7555C26.1989 23.6091 26.2812 23.4103 26.2812 23.2031V18.5156C26.2812 18.3084 26.1989 18.1097 26.0524 17.9632C25.9059 17.8167 25.7072 17.7344 25.5 17.7344Z" fill="#646464"/>
<path d="M25.5 27.9453C25.2928 27.9453 25.0941 28.0277 24.9476 28.1741C24.8011 28.3206 24.7188 28.5194 24.7188 28.7266V34.2422C24.7188 34.4494 24.8011 34.6481 24.9476 34.7946C25.0941 34.9412 25.2928 35.0234 25.5 35.0234C25.7072 35.0234 25.9059 34.9412 26.0524 34.7946C26.1989 34.6481 26.2812 34.4494 26.2812 34.2422V28.7266C26.2812 28.5194 26.1989 28.3206 26.0524 28.1741C25.9059 28.0277 25.7072 27.9453 25.5 27.9453Z" fill="#646464"/>
<path d="M25.5 38.9766C25.2928 38.9766 25.0941 39.0589 24.9476 39.2054C24.8011 39.352 24.7188 39.5506 24.7188 39.7578V44.4453C24.7188 44.6526 24.8011 44.8512 24.9476 44.9977C25.0941 45.1443 25.2928 45.2266 25.5 45.2266C25.7072 45.2266 25.9059 45.1443 26.0524 44.9977C26.1989 44.8512 26.2812 44.6526 26.2812 44.4453V39.7578C26.2812 39.5506 26.1989 39.352 26.0524 39.2054C25.9059 39.0589 25.7072 38.9766 25.5 38.9766Z" fill="#646464"/>
<path d="M31.1094 28.5934C31.0367 28.5202 30.9503 28.4621 30.8552 28.4224C30.7599 28.3827 30.6578 28.3623 30.5547 28.3623C30.4516 28.3623 30.3495 28.3827 30.2542 28.4224C30.1591 28.4621 30.0727 28.5202 30 28.5934C29.8545 28.7398 29.7728 28.9378 29.7728 29.1442C29.7728 29.3506 29.8545 29.5486 30 29.695L30.9688 30.7028H29.4062C29.1991 30.7028 29.0003 30.7851 28.8538 30.9316C28.7073 31.0781 28.625 31.2768 28.625 31.484C28.625 31.6912 28.7073 31.89 28.8538 32.0364C29.0003 32.1829 29.1991 32.2653 29.4062 32.2653H30.9688L29.9688 33.2653C29.8586 33.3746 29.7834 33.5142 29.7529 33.6663C29.7224 33.8185 29.7379 33.9762 29.7973 34.1196C29.8569 34.2629 29.9577 34.3852 30.087 34.471C30.2163 34.5568 30.3683 34.6022 30.5234 34.6012C30.6268 34.6007 30.7291 34.5798 30.8243 34.5396C30.9195 34.4994 31.0058 34.4407 31.0781 34.3668L33.4219 32.0231C33.5674 31.8767 33.6491 31.6787 33.6491 31.4723C33.6491 31.2659 33.5674 31.0679 33.4219 30.9215L31.1094 28.5934Z" fill="#646464"/>
<path d="M21.547 30.7038H20.0314L21.0001 29.6881C21.1456 29.5418 21.2273 29.3438 21.2273 29.1373C21.2273 28.9309 21.1456 28.733 21.0001 28.5866C20.9275 28.5134 20.8411 28.4552 20.7459 28.4155C20.6507 28.3759 20.5486 28.3555 20.4454 28.3555C20.3423 28.3555 20.2402 28.3759 20.145 28.4155C20.0498 28.4552 19.9634 28.5134 19.8908 28.5866L17.547 30.9303C17.4015 31.0767 17.3198 31.2747 17.3198 31.4811C17.3198 31.6875 17.4015 31.8855 17.547 32.0319L19.8908 34.3756C19.9631 34.4495 20.0494 34.5082 20.1446 34.5484C20.2398 34.5887 20.3421 34.6096 20.4454 34.61C20.6006 34.6109 20.7526 34.5656 20.8819 34.4798C21.0112 34.3941 21.112 34.2717 21.1715 34.1284C21.231 33.9851 21.2465 33.8273 21.216 33.6751C21.1854 33.523 21.1103 33.3834 21.0001 33.2741L20.0314 32.2663H21.5939C21.8011 32.2663 21.9998 32.184 22.1463 32.0374C22.2928 31.8909 22.3751 31.6922 22.3751 31.485C22.3751 31.2778 22.2928 31.0791 22.1463 30.9326C21.9998 30.7861 21.8011 30.7038 21.5939 30.7038H21.547Z" fill="#646464"/>
</svg>
