<svg width="51" height="50" viewBox="0 0 51 50" fill="none" xmlns="http://www.w3.org/2000/svg">
<path d="M31.75 14.0623C31.7511 12.8593 31.4049 11.6815 30.7531 10.6704C30.1013 9.65919 29.1715 8.85763 28.0754 8.36193C26.9792 7.86622 25.7633 7.69736 24.5735 7.87568C23.3837 8.05404 22.2708 8.57193 21.3681 9.36724C20.4655 10.1626 19.8116 11.2015 19.4848 12.3593C19.1582 13.5172 19.1726 14.7447 19.5263 15.8946C19.8801 17.0444 20.5582 18.0677 21.4793 18.8416C22.4003 19.6156 23.5251 20.1072 24.7187 20.2576V23.4373H23.1562C22.7423 23.4386 22.3455 23.6036 22.0527 23.8963C21.76 24.1891 21.595 24.5858 21.5937 24.9998V26.5623C21.595 26.9763 21.76 27.373 22.0527 27.6658C22.3455 27.9586 22.7423 28.1236 23.1562 28.1248H27.8437C28.2577 28.1236 28.6544 27.9586 28.9473 27.6658C29.24 27.373 29.405 26.9763 29.4062 26.5623V24.9998C29.405 24.5858 29.24 24.1891 28.9473 23.8963C28.6544 23.6036 28.2577 23.4386 27.8437 23.4373H26.2812V20.2576C27.7906 20.0675 29.1788 19.3333 30.1856 18.1928C31.1924 17.0522 31.7486 15.5836 31.75 14.0623ZM27.8437 24.9998V26.5623H23.1562V24.9998H27.8437ZM25.5 18.7498C24.5729 18.7498 23.6666 18.4749 22.8958 17.9598C22.1249 17.4447 21.5241 16.7127 21.1693 15.8561C20.8145 14.9996 20.7217 14.0571 20.9026 13.1479C21.0834 12.2386 21.5298 11.4033 22.1855 10.7478C22.841 10.0922 23.6762 9.64575 24.5855 9.4649C25.4948 9.28404 26.4373 9.37685 27.2938 9.73161C28.1504 10.0864 28.8824 10.6872 29.3975 11.4581C29.9126 12.229 30.1875 13.1352 30.1875 14.0623C30.1875 15.3055 29.6937 16.4978 28.8145 17.3768C27.9355 18.256 26.7432 18.7498 25.5 18.7498Z" fill="#646464"/>
<path d="M36.7888 6.0623C35.1742 4.52086 33.2596 3.32802 31.1643 2.55791C29.0691 1.7878 26.8377 1.45688 24.6092 1.58573C20.4934 1.82357 16.6166 3.59688 13.7451 6.55513C10.8737 9.51333 9.21658 13.4412 9.10135 17.5623C9.02533 20.1304 9.56002 22.6799 10.6615 25.0011C11.763 27.3222 13.3998 29.3487 15.4373 30.9139C18.3278 33.165 20.6281 36.0847 22.1404 39.4217C18.9763 40.1326 16.906 41.8045 16.906 43.7498C16.906 46.3748 20.6795 48.4373 25.4998 48.4373C30.3201 48.4373 34.0935 46.3748 34.0935 43.7498C34.0935 41.8045 32.0232 40.1326 28.8592 39.4217C30.4233 36.055 32.7634 33.1073 35.6873 30.8201C37.5298 29.3612 39.0372 27.5232 40.1074 25.4309C41.1776 23.3385 41.7855 21.0405 41.8899 18.6927C41.9944 16.3448 41.593 14.0019 40.7129 11.8228C39.8327 9.64364 38.4945 7.67908 36.7888 6.0623ZM32.531 43.7498C32.531 45.2264 29.6404 46.8748 25.4998 46.8748C21.3592 46.8748 18.4685 45.2264 18.4685 43.7498C18.4685 42.5545 20.2342 41.3983 22.7498 40.8904C22.7576 40.9139 22.7654 40.9295 22.7732 40.9529L23.3045 42.3826C23.4697 42.8318 23.7688 43.2197 24.1613 43.4936C24.5539 43.7675 25.0211 43.9143 25.4998 43.9143C25.9785 43.9143 26.4456 43.7675 26.8382 43.4936C27.2308 43.2197 27.5299 42.8318 27.6951 42.3826L28.2263 40.9529C28.2342 40.9295 28.242 40.9139 28.2498 40.8904C30.7263 41.3904 32.531 42.5701 32.531 43.7498ZM34.7107 29.5936C31.1178 32.403 28.3665 36.1461 26.7576 40.4139L26.2342 41.8436C26.1794 41.9943 26.0795 42.1247 25.9481 42.2168C25.8168 42.3089 25.6602 42.3582 25.4998 42.3582C25.3393 42.3582 25.1828 42.3089 25.0513 42.2168C24.92 42.1247 24.8202 41.9943 24.7654 41.8436L24.242 40.4061C22.6772 36.1678 19.9574 32.4522 16.3904 29.6795C14.5495 28.2619 13.0707 26.4282 12.0753 24.3288C11.0799 22.2293 10.5962 19.9239 10.6638 17.6014C10.7663 13.8736 12.264 10.3201 14.8608 7.64374C17.4576 4.96737 20.9643 3.36308 24.6873 3.14823C24.9607 3.13261 25.2342 3.1248 25.5076 3.1248C28.5887 3.12436 31.5934 4.08334 34.1045 5.86857C36.6157 7.6538 38.5087 10.1767 39.5206 13.0868C40.5324 15.997 40.613 19.15 39.751 22.1081C38.8891 25.0661 37.1274 27.6824 34.7107 29.5936Z" fill="#646464"/>
<path d="M25.5 4.6875C22.8732 4.6875 20.3054 5.46643 18.1214 6.9258C15.9372 8.38516 14.235 10.4594 13.2297 12.8863C12.2245 15.313 11.9615 17.9835 12.4739 20.5598C12.9864 23.1361 14.2514 25.5026 16.1088 27.36C17.9662 29.2174 20.3327 30.4823 22.9089 30.9948C25.4853 31.5073 28.1557 31.2442 30.5825 30.2391C33.0093 29.2338 35.0836 27.5315 36.543 25.3474C38.0023 23.1634 38.7813 20.5955 38.7813 17.9688C38.7763 14.4479 37.3754 11.0726 34.8858 8.58297C32.3961 6.09332 29.0209 4.69246 25.5 4.6875ZM25.5 29.6875C23.1823 29.6875 20.9166 29.0002 18.9894 27.7125C17.0623 26.4248 15.5603 24.5946 14.6733 22.4534C13.7864 20.312 13.5542 17.9558 14.0064 15.6825C14.4586 13.4093 15.5747 11.3213 17.2136 9.68234C18.8525 8.04344 20.9406 6.92734 23.2138 6.47517C25.487 6.023 27.8432 6.25507 29.9846 7.14204C32.1259 8.02899 33.9561 9.53102 35.2438 11.4581C36.5314 13.3853 37.2188 15.651 37.2188 17.9688C37.215 21.0756 35.9792 24.0541 33.7823 26.251C31.5854 28.448 28.6069 29.6838 25.5 29.6875Z" fill="#646464"/>
<path d="M25.5 10.9375H23.9375C23.7303 10.9375 23.5316 11.0198 23.3851 11.1663C23.2386 11.3128 23.1562 11.5116 23.1562 11.7188V17.1875H24.7188V15.625H25.5C26.1216 15.625 26.7177 15.378 27.1573 14.9385C27.5968 14.499 27.8438 13.9028 27.8438 13.2812C27.8438 12.6597 27.5968 12.0635 27.1573 11.624C26.7177 11.1845 26.1216 10.9375 25.5 10.9375ZM25.5 14.0625H24.7188V12.5H25.5C25.7072 12.5 25.9059 12.5823 26.0524 12.7288C26.1989 12.8753 26.2812 13.0741 26.2812 13.2812C26.2812 13.4884 26.1989 13.6872 26.0524 13.8337C25.9059 13.9802 25.7072 14.0625 25.5 14.0625Z" fill="#646464"/>
<path d="M24.7188 32.8125H23.1562V34.375H24.7188V32.8125Z" fill="#646464"/>
<path d="M27.8438 32.8125H26.2812V34.375H27.8438V32.8125Z" fill="#646464"/>
</svg>
