<svg width="146" height="52" viewBox="0 0 146 52" fill="none" xmlns="http://www.w3.org/2000/svg">
<path d="M5.76018 13.2521C5.61027 13.2521 5.46647 13.3081 5.36045 13.4077C5.25443 13.5074 5.19487 13.6425 5.19487 13.7834V31.8458C5.19487 32.1369 5.44813 32.3771 5.76018 32.3771H9.71742V34.5021H5.76018C4.1999 34.5021 2.93359 33.3121 2.93359 31.8437L2.93812 13.7812C2.93812 12.315 4.20443 11.125 5.76471 11.125H15.9472C17.5075 11.125 18.7738 12.315 18.7738 13.7855L18.7693 18.0312C18.7693 18.3245 19.0203 18.5625 19.3346 18.5625H20.4584C21.1886 18.5619 21.8907 18.8269 22.4174 19.3018C22.9444 19.7767 23.2553 20.4248 23.2851 21.1104C22.2445 20.5467 21.0079 20.3946 19.8479 20.6875H19.3346C18.9628 20.6886 18.5944 20.6206 18.2507 20.4874C17.9069 20.3542 17.5946 20.1585 17.3317 19.9114C17.0688 19.6643 16.8604 19.3708 16.7187 19.0478C16.5769 18.7247 16.5046 18.3786 16.5058 18.0291L16.5103 13.7812C16.5103 13.6404 16.4507 13.5052 16.3447 13.4056C16.2387 13.306 16.0949 13.25 15.945 13.25H5.76018V13.2521ZM22.5615 23.2375C22.1431 22.8725 21.5936 22.6696 21.0226 22.6696C20.4518 22.6696 19.9021 22.8725 19.4839 23.2375L13.0619 28.8411C12.7195 29.1396 12.4463 29.5012 12.2595 29.9034C12.0728 30.3056 11.9764 30.7398 11.9764 31.1786V38.7499C11.9764 39.3135 12.2147 39.8541 12.6387 40.2525C13.0628 40.6512 13.638 40.8749 14.2377 40.8749H17.6296C18.2294 40.8749 18.8045 40.6512 19.2286 40.2525C19.6527 39.8541 19.8908 39.3135 19.8908 38.7499V36.6249H22.1522V38.7499C22.1522 39.3135 22.3905 39.8541 22.8146 40.2525C23.2385 40.6512 23.8138 40.8749 24.4135 40.8749H27.8054C28.4051 40.8749 28.9803 40.6512 29.4044 40.2525C29.8284 39.8541 30.0666 39.3135 30.0666 38.7499V31.1765C30.0664 30.7381 29.9699 30.3043 29.7831 29.9024C29.5963 29.5006 29.3233 29.1393 28.9811 28.8411L22.5615 23.2375ZM14.5995 30.3987L21.0215 24.7951L27.4435 30.3987C27.5576 30.4981 27.6486 30.6184 27.7108 30.7523C27.7729 30.886 27.8052 31.0305 27.8054 31.1765V38.7521H24.4135V36.6271C24.4135 36.0635 24.1752 35.5231 23.7511 35.1245C23.3272 34.7261 22.7519 34.5021 22.1522 34.5021H19.8908C19.2912 34.5021 18.716 34.7261 18.2919 35.1245C17.8679 35.5231 17.6296 36.0635 17.6296 36.6271V38.7521H14.2377V31.1786C14.2379 31.0326 14.2701 30.8881 14.3324 30.7544C14.3946 30.6206 14.4856 30.4981 14.5995 30.3987ZM9.71517 16.4375C9.71517 16.7193 9.59604 16.9895 9.38401 17.1888C9.17198 17.388 8.88438 17.5 8.58452 17.5C8.28466 17.5 7.99709 17.388 7.78505 17.1888C7.573 16.9895 7.45389 16.7193 7.45389 16.4375C7.45389 16.1557 7.573 15.8855 7.78505 15.6862C7.99709 15.4869 8.28466 15.375 8.58452 15.375C8.88438 15.375 9.17198 15.4869 9.38401 15.6862C9.59604 15.8855 9.71517 16.1557 9.71517 16.4375ZM8.58452 21.75C8.88438 21.75 9.17198 21.6381 9.38401 21.4388C9.59604 21.2395 9.71517 20.9693 9.71517 20.6875C9.71517 20.4057 9.59604 20.1355 9.38401 19.9362C9.17198 19.7369 8.88438 19.625 8.58452 19.625C8.28466 19.625 7.99709 19.7369 7.78505 19.9362C7.573 20.1355 7.45389 20.4057 7.45389 20.6875C7.45389 20.9693 7.573 21.2395 7.78505 21.4388C7.99709 21.6381 8.28466 21.75 8.58452 21.75ZM9.71517 24.9375C9.71517 25.2193 9.59604 25.4895 9.38401 25.6888C9.17198 25.888 8.88438 26 8.58452 26C8.28466 26 7.99709 25.888 7.78505 25.6888C7.573 25.4895 7.45389 25.2193 7.45389 24.9375C7.45389 24.6557 7.573 24.3855 7.78505 24.1862C7.99709 23.9869 8.28466 23.875 8.58452 23.875C8.88438 23.875 9.17198 23.9869 9.38401 24.1862C9.59604 24.3855 9.71517 24.6557 9.71517 24.9375ZM13.1071 17.5C13.407 17.5 13.6945 17.388 13.9066 17.1888C14.1186 16.9895 14.2377 16.7193 14.2377 16.4375C14.2377 16.1557 14.1186 15.8855 13.9066 15.6862C13.6945 15.4869 13.407 15.375 13.1071 15.375C12.8072 15.375 12.5196 15.4869 12.3076 15.6862C12.0956 15.8855 11.9764 16.1557 11.9764 16.4375C11.9764 16.7193 12.0956 16.9895 12.3076 17.1888C12.5196 17.388 12.8072 17.5 13.1071 17.5ZM14.2377 20.6875C14.2377 20.9693 14.1186 21.2395 13.9066 21.4388C13.6945 21.6381 13.407 21.75 13.1071 21.75C12.8072 21.75 12.5196 21.6381 12.3076 21.4388C12.0956 21.2395 11.9764 20.9693 11.9764 20.6875C11.9764 20.4057 12.0956 20.1355 12.3076 19.9362C12.5196 19.7369 12.8072 19.625 13.1071 19.625C13.407 19.625 13.6945 19.7369 13.9066 19.9362C14.1186 20.1355 14.2377 20.4057 14.2377 20.6875ZM13.1071 26C13.407 26 13.6945 25.888 13.9066 25.6888C14.1186 25.4895 14.2377 25.2193 14.2377 24.9375C14.2377 24.6557 14.1186 24.3855 13.9066 24.1862C13.6945 23.9869 13.407 23.875 13.1071 23.875C12.8072 23.875 12.5196 23.9869 12.3076 24.1862C12.0956 24.3855 11.9764 24.6557 11.9764 24.9375C11.9764 25.2193 12.0956 25.4895 12.3076 25.6888C12.5196 25.888 12.8072 26 13.1071 26Z" fill="#42A4AE"/>
<path d="M56.2264 14.76V37H52.5784V27.272H42.1144V37H38.4664V14.76H42.1144V24.296H52.5784V14.76H56.2264ZM68.6769 37.288C67.0129 37.288 65.5089 36.9147 64.1649 36.168C62.8209 35.4 61.7649 34.3333 60.9969 32.968C60.2289 31.5813 59.8449 29.9813 59.8449 28.168C59.8449 26.376 60.2396 24.7867 61.0289 23.4C61.8182 22.0133 62.8956 20.9467 64.2609 20.2C65.6262 19.4533 67.1516 19.08 68.8369 19.08C70.5222 19.08 72.0476 19.4533 73.4129 20.2C74.7782 20.9467 75.8556 22.0133 76.6449 23.4C77.4342 24.7867 77.8289 26.376 77.8289 28.168C77.8289 29.96 77.4236 31.5493 76.6129 32.936C75.8022 34.3227 74.6929 35.4 73.2849 36.168C71.8982 36.9147 70.3622 37.288 68.6769 37.288ZM68.6769 34.12C69.6156 34.12 70.4902 33.896 71.3009 33.448C72.1329 33 72.8049 32.328 73.3169 31.432C73.8289 30.536 74.0849 29.448 74.0849 28.168C74.0849 26.888 73.8396 25.8107 73.3489 24.936C72.8582 24.04 72.2076 23.368 71.3969 22.92C70.5862 22.472 69.7116 22.248 68.7729 22.248C67.8342 22.248 66.9596 22.472 66.1489 22.92C65.3596 23.368 64.7302 24.04 64.2609 24.936C63.7916 25.8107 63.5569 26.888 63.5569 28.168C63.5569 30.0667 64.0369 31.5387 64.9969 32.584C65.9782 33.608 67.2049 34.12 68.6769 34.12ZM97.4032 19.368V37H93.7552V34.92C93.1792 35.6453 92.4218 36.2213 91.4832 36.648C90.5658 37.0533 89.5845 37.256 88.5392 37.256C87.1525 37.256 85.9045 36.968 84.7952 36.392C83.7072 35.816 82.8432 34.9627 82.2032 33.832C81.5845 32.7013 81.2752 31.336 81.2752 29.736V19.368H84.8912V29.192C84.8912 30.7707 85.2858 31.9867 86.0752 32.84C86.8645 33.672 87.9418 34.088 89.3072 34.088C90.6725 34.088 91.7498 33.672 92.5392 32.84C93.3498 31.9867 93.7552 30.7707 93.7552 29.192V19.368H97.4032ZM105.448 34.024H113.448V37H101.224V34.024L109.256 22.344H101.224V19.368H113.448V22.344L105.448 34.024ZM119.135 17.032C118.474 17.032 117.919 16.808 117.471 16.36C117.023 15.912 116.799 15.3573 116.799 14.696C116.799 14.0347 117.023 13.48 117.471 13.032C117.919 12.584 118.474 12.36 119.135 12.36C119.775 12.36 120.319 12.584 120.767 13.032C121.215 13.48 121.439 14.0347 121.439 14.696C121.439 15.3573 121.215 15.912 120.767 16.36C120.319 16.808 119.775 17.032 119.135 17.032ZM120.927 19.368V37H117.279V19.368H120.927ZM141.876 27.752C141.876 28.4133 141.834 29.0107 141.748 29.544H128.276C128.383 30.952 128.906 32.0827 129.844 32.936C130.783 33.7893 131.935 34.216 133.3 34.216C135.263 34.216 136.65 33.3947 137.46 31.752H141.396C140.863 33.3733 139.892 34.7067 138.484 35.752C137.098 36.776 135.37 37.288 133.3 37.288C131.615 37.288 130.1 36.9147 128.756 36.168C127.434 35.4 126.388 34.3333 125.62 32.968C124.874 31.5813 124.5 29.9813 124.5 28.168C124.5 26.3547 124.863 24.7653 125.588 23.4C126.335 22.0133 127.37 20.9467 128.692 20.2C130.036 19.4533 131.572 19.08 133.3 19.08C134.964 19.08 136.447 19.4427 137.748 20.168C139.05 20.8933 140.063 21.9173 140.788 23.24C141.514 24.5413 141.876 26.0453 141.876 27.752ZM138.068 26.6C138.047 25.256 137.567 24.1787 136.628 23.368C135.69 22.5573 134.527 22.152 133.14 22.152C131.882 22.152 130.804 22.5573 129.908 23.368C129.012 24.1573 128.479 25.2347 128.308 26.6H138.068Z" fill="#42A4AE"/>
</svg>
