<svg width="28" height="30" viewBox="0 0 28 30" fill="none" xmlns="http://www.w3.org/2000/svg">
<path id="Vector" d="M2.82659 2.25212C2.67667 2.25212 2.53287 2.30809 2.42686 2.40773C2.32084 2.50735 2.26128 2.64248 2.26128 2.78337V20.8458C2.26128 21.1369 2.51453 21.3771 2.82659 21.3771H6.78383V23.5021H2.82659C1.26631 23.5021 0 22.3121 0 20.8437L0.00452632 2.78124C0.00452632 1.31499 1.27084 0.125 2.83112 0.125H13.0136C14.5739 0.125 15.8402 1.31499 15.8402 2.78549L15.8357 7.03124C15.8357 7.32449 16.0867 7.56249 16.401 7.56249H17.5248C18.255 7.56192 18.9571 7.82687 19.4838 8.3018C20.0108 8.77674 20.3217 9.42484 20.3515 10.1104C19.3109 9.54669 18.0743 9.39458 16.9143 9.68749H16.401C16.0292 9.68862 15.6608 9.62062 15.3171 9.48742C14.9733 9.35423 14.661 9.15845 14.3981 8.91138C14.1352 8.66431 13.9268 8.3708 13.7851 8.04776C13.6434 7.72474 13.571 7.37855 13.5722 7.02912L13.5767 2.78124C13.5767 2.64036 13.5171 2.50523 13.4111 2.40561C13.3051 2.30597 13.1613 2.24999 13.0114 2.24999H2.82659V2.25212ZM19.6279 12.2375C19.2095 11.8725 18.66 11.6696 18.089 11.6696C17.5182 11.6696 16.9685 11.8725 16.5503 12.2375L10.1283 17.8411C9.78586 18.1396 9.51271 18.5012 9.32595 18.9034C9.13916 19.3056 9.04279 19.7398 9.04285 20.1786V27.7499C9.04285 28.3135 9.28109 28.8541 9.70515 29.2525C10.1292 29.6512 10.7044 29.8749 11.3041 29.8749H14.696C15.2958 29.8749 15.8709 29.6512 16.295 29.2525C16.7191 28.8541 16.9572 28.3135 16.9572 27.7499V25.6249H19.2186V27.7499C19.2186 28.3135 19.4569 28.8541 19.881 29.2525C20.3049 29.6512 20.8802 29.8749 21.4799 29.8749H24.8718C25.4715 29.8749 26.0467 29.6512 26.4708 29.2525C26.8948 28.8541 27.133 28.3135 27.133 27.7499V20.1765C27.1328 19.7381 27.0363 19.3043 26.8495 18.9024C26.6627 18.5006 26.3897 18.1393 26.0476 17.8411L19.6279 12.2375ZM11.6659 19.3987L18.0879 13.7951L24.5099 19.3987C24.624 19.4981 24.715 19.6184 24.7772 19.7523C24.8393 19.886 24.8716 20.0305 24.8718 20.1765V27.7521H21.4799V25.6271C21.4799 25.0635 21.2416 24.5231 20.8175 24.1245C20.3936 23.7261 19.8183 23.5021 19.2186 23.5021H16.9572C16.3576 23.5021 15.7824 23.7261 15.3584 24.1245C14.9343 24.5231 14.696 25.0635 14.696 25.6271V27.7521H11.3041V20.1786C11.3043 20.0326 11.3365 19.8881 11.3988 19.7544C11.461 19.6206 11.552 19.4981 11.6659 19.3987ZM6.78158 5.43749C6.78158 5.71929 6.66245 5.98955 6.45042 6.18881C6.23838 6.38805 5.95079 6.49999 5.65093 6.49999C5.35107 6.49999 5.06349 6.38805 4.85146 6.18881C4.63941 5.98955 4.5203 5.71929 4.5203 5.43749C4.5203 5.15572 4.63941 4.88546 4.85146 4.6862C5.06349 4.48694 5.35107 4.37499 5.65093 4.37499C5.95079 4.37499 6.23838 4.48694 6.45042 4.6862C6.66245 4.88546 6.78158 5.15572 6.78158 5.43749ZM5.65093 10.75C5.95079 10.75 6.23838 10.6381 6.45042 10.4388C6.66245 10.2395 6.78158 9.96929 6.78158 9.68749C6.78158 9.40572 6.66245 9.13546 6.45042 8.9362C6.23838 8.73694 5.95079 8.62499 5.65093 8.62499C5.35107 8.62499 5.06349 8.73694 4.85146 8.9362C4.63941 9.13546 4.5203 9.40572 4.5203 9.68749C4.5203 9.96929 4.63941 10.2395 4.85146 10.4388C5.06349 10.6381 5.35107 10.75 5.65093 10.75ZM6.78158 13.9375C6.78158 14.2193 6.66245 14.4895 6.45042 14.6888C6.23838 14.888 5.95079 15 5.65093 15C5.35107 15 5.06349 14.888 4.85146 14.6888C4.63941 14.4895 4.5203 14.2193 4.5203 13.9375C4.5203 13.6557 4.63941 13.3855 4.85146 13.1862C5.06349 12.9869 5.35107 12.875 5.65093 12.875C5.95079 12.875 6.23838 12.9869 6.45042 13.1862C6.66245 13.3855 6.78158 13.6557 6.78158 13.9375ZM10.1735 6.49999C10.4734 6.49999 10.7609 6.38805 10.973 6.18881C11.185 5.98955 11.3041 5.71929 11.3041 5.43749C11.3041 5.15572 11.185 4.88546 10.973 4.6862C10.7609 4.48694 10.4734 4.37499 10.1735 4.37499C9.87362 4.37499 9.58604 4.48694 9.37401 4.6862C9.16196 4.88546 9.04285 5.15572 9.04285 5.43749C9.04285 5.71929 9.16196 5.98955 9.37401 6.18881C9.58604 6.38805 9.87362 6.49999 10.1735 6.49999ZM11.3041 9.68749C11.3041 9.96929 11.185 10.2395 10.973 10.4388C10.7609 10.6381 10.4734 10.75 10.1735 10.75C9.87362 10.75 9.58604 10.6381 9.37401 10.4388C9.16196 10.2395 9.04285 9.96929 9.04285 9.68749C9.04285 9.40572 9.16196 9.13546 9.37401 8.9362C9.58604 8.73694 9.87362 8.62499 10.1735 8.62499C10.4734 8.62499 10.7609 8.73694 10.973 8.9362C11.185 9.13546 11.3041 9.40572 11.3041 9.68749ZM10.1735 15C10.4734 15 10.7609 14.888 10.973 14.6888C11.185 14.4895 11.3041 14.2193 11.3041 13.9375C11.3041 13.6557 11.185 13.3855 10.973 13.1862C10.7609 12.9869 10.4734 12.875 10.1735 12.875C9.87362 12.875 9.58604 12.9869 9.37401 13.1862C9.16196 13.3855 9.04285 13.6557 9.04285 13.9375C9.04285 14.2193 9.16196 14.4895 9.37401 14.6888C9.58604 14.888 9.87362 15 10.1735 15Z" fill="white"/>
</svg>
