<svg width="145" height="52" viewBox="0 0 145 52" fill="none" xmlns="http://www.w3.org/2000/svg">
<path d="M4.82659 13.2521C4.67667 13.2521 4.53287 13.3081 4.42686 13.4077C4.32084 13.5074 4.26128 13.6425 4.26128 13.7834V31.8458C4.26128 32.1369 4.51453 32.3771 4.82659 32.3771H8.78383V34.5021H4.82659C3.26631 34.5021 2 33.3121 2 31.8437L2.00453 13.7812C2.00453 12.315 3.27084 11.125 4.83112 11.125H15.0136C16.5739 11.125 17.8402 12.315 17.8402 13.7855L17.8357 18.0312C17.8357 18.3245 18.0867 18.5625 18.401 18.5625H19.5248C20.255 18.5619 20.9571 18.8269 21.4838 19.3018C22.0108 19.7767 22.3217 20.4248 22.3515 21.1104C21.3109 20.5467 20.0743 20.3946 18.9143 20.6875H18.401C18.0292 20.6886 17.6608 20.6206 17.3171 20.4874C16.9733 20.3542 16.661 20.1585 16.3981 19.9114C16.1352 19.6643 15.9268 19.3708 15.7851 19.0478C15.6434 18.7247 15.571 18.3786 15.5722 18.0291L15.5767 13.7812C15.5767 13.6404 15.5171 13.5052 15.4111 13.4056C15.3051 13.306 15.1613 13.25 15.0114 13.25H4.82659V13.2521ZM21.6279 23.2375C21.2095 22.8725 20.66 22.6696 20.089 22.6696C19.5182 22.6696 18.9685 22.8725 18.5503 23.2375L12.1283 28.8411C11.7859 29.1396 11.5127 29.5012 11.3259 29.9034C11.1392 30.3056 11.0428 30.7398 11.0429 31.1786V38.7499C11.0429 39.3135 11.2811 39.8541 11.7052 40.2525C12.1292 40.6512 12.7044 40.8749 13.3041 40.8749H16.696C17.2958 40.8749 17.8709 40.6512 18.295 40.2525C18.7191 39.8541 18.9572 39.3135 18.9572 38.7499V36.6249H21.2186V38.7499C21.2186 39.3135 21.4569 39.8541 21.881 40.2525C22.3049 40.6512 22.8802 40.8749 23.4799 40.8749H26.8718C27.4715 40.8749 28.0467 40.6512 28.4708 40.2525C28.8948 39.8541 29.133 39.3135 29.133 38.7499V31.1765C29.1328 30.7381 29.0363 30.3043 28.8495 29.9024C28.6627 29.5006 28.3897 29.1393 28.0476 28.8411L21.6279 23.2375ZM13.6659 30.3987L20.0879 24.7951L26.5099 30.3987C26.624 30.4981 26.715 30.6184 26.7772 30.7523C26.8393 30.886 26.8716 31.0305 26.8718 31.1765V38.7521H23.4799V36.6271C23.4799 36.0635 23.2416 35.5231 22.8175 35.1245C22.3936 34.7261 21.8183 34.5021 21.2186 34.5021H18.9572C18.3576 34.5021 17.7824 34.7261 17.3584 35.1245C16.9343 35.5231 16.696 36.0635 16.696 36.6271V38.7521H13.3041V31.1786C13.3043 31.0326 13.3365 30.8881 13.3988 30.7544C13.461 30.6206 13.552 30.4981 13.6659 30.3987ZM8.78158 16.4375C8.78158 16.7193 8.66245 16.9895 8.45042 17.1888C8.23838 17.388 7.95079 17.5 7.65093 17.5C7.35107 17.5 7.06349 17.388 6.85146 17.1888C6.63941 16.9895 6.5203 16.7193 6.5203 16.4375C6.5203 16.1557 6.63941 15.8855 6.85146 15.6862C7.06349 15.4869 7.35107 15.375 7.65093 15.375C7.95079 15.375 8.23838 15.4869 8.45042 15.6862C8.66245 15.8855 8.78158 16.1557 8.78158 16.4375ZM7.65093 21.75C7.95079 21.75 8.23838 21.6381 8.45042 21.4388C8.66245 21.2395 8.78158 20.9693 8.78158 20.6875C8.78158 20.4057 8.66245 20.1355 8.45042 19.9362C8.23838 19.7369 7.95079 19.625 7.65093 19.625C7.35107 19.625 7.06349 19.7369 6.85146 19.9362C6.63941 20.1355 6.5203 20.4057 6.5203 20.6875C6.5203 20.9693 6.63941 21.2395 6.85146 21.4388C7.06349 21.6381 7.35107 21.75 7.65093 21.75ZM8.78158 24.9375C8.78158 25.2193 8.66245 25.4895 8.45042 25.6888C8.23838 25.888 7.95079 26 7.65093 26C7.35107 26 7.06349 25.888 6.85146 25.6888C6.63941 25.4895 6.5203 25.2193 6.5203 24.9375C6.5203 24.6557 6.63941 24.3855 6.85146 24.1862C7.06349 23.9869 7.35107 23.875 7.65093 23.875C7.95079 23.875 8.23838 23.9869 8.45042 24.1862C8.66245 24.3855 8.78158 24.6557 8.78158 24.9375ZM12.1735 17.5C12.4734 17.5 12.7609 17.388 12.973 17.1888C13.185 16.9895 13.3041 16.7193 13.3041 16.4375C13.3041 16.1557 13.185 15.8855 12.973 15.6862C12.7609 15.4869 12.4734 15.375 12.1735 15.375C11.8736 15.375 11.586 15.4869 11.374 15.6862C11.162 15.8855 11.0429 16.1557 11.0429 16.4375C11.0429 16.7193 11.162 16.9895 11.374 17.1888C11.586 17.388 11.8736 17.5 12.1735 17.5ZM13.3041 20.6875C13.3041 20.9693 13.185 21.2395 12.973 21.4388C12.7609 21.6381 12.4734 21.75 12.1735 21.75C11.8736 21.75 11.586 21.6381 11.374 21.4388C11.162 21.2395 11.0429 20.9693 11.0429 20.6875C11.0429 20.4057 11.162 20.1355 11.374 19.9362C11.586 19.7369 11.8736 19.625 12.1735 19.625C12.4734 19.625 12.7609 19.7369 12.973 19.9362C13.185 20.1355 13.3041 20.4057 13.3041 20.6875ZM12.1735 26C12.4734 26 12.7609 25.888 12.973 25.6888C13.185 25.4895 13.3041 25.2193 13.3041 24.9375C13.3041 24.6557 13.185 24.3855 12.973 24.1862C12.7609 23.9869 12.4734 23.875 12.1735 23.875C11.8736 23.875 11.586 23.9869 11.374 24.1862C11.162 24.3855 11.0429 24.6557 11.0429 24.9375C11.0429 25.2193 11.162 25.4895 11.374 25.6888C11.586 25.888 11.8736 26 12.1735 26Z" fill="white"/>
<path d="M55.2928 14.76V37H51.6448V27.272H41.1808V37H37.5328V14.76H41.1808V24.296H51.6448V14.76H55.2928ZM67.7433 37.288C66.0793 37.288 64.5753 36.9147 63.2313 36.168C61.8873 35.4 60.8313 34.3333 60.0633 32.968C59.2953 31.5813 58.9113 29.9813 58.9113 28.168C58.9113 26.376 59.306 24.7867 60.0953 23.4C60.8846 22.0133 61.962 20.9467 63.3273 20.2C64.6926 19.4533 66.218 19.08 67.9033 19.08C69.5886 19.08 71.114 19.4533 72.4793 20.2C73.8446 20.9467 74.922 22.0133 75.7113 23.4C76.5006 24.7867 76.8953 26.376 76.8953 28.168C76.8953 29.96 76.49 31.5493 75.6793 32.936C74.8686 34.3227 73.7593 35.4 72.3513 36.168C70.9646 36.9147 69.4286 37.288 67.7433 37.288ZM67.7433 34.12C68.682 34.12 69.5566 33.896 70.3673 33.448C71.1993 33 71.8713 32.328 72.3833 31.432C72.8953 30.536 73.1513 29.448 73.1513 28.168C73.1513 26.888 72.906 25.8107 72.4153 24.936C71.9246 24.04 71.274 23.368 70.4633 22.92C69.6526 22.472 68.778 22.248 67.8393 22.248C66.9006 22.248 66.026 22.472 65.2153 22.92C64.426 23.368 63.7966 24.04 63.3273 24.936C62.858 25.8107 62.6233 26.888 62.6233 28.168C62.6233 30.0667 63.1033 31.5387 64.0633 32.584C65.0446 33.608 66.2713 34.12 67.7433 34.12ZM96.4696 19.368V37H92.8216V34.92C92.2456 35.6453 91.4882 36.2213 90.5496 36.648C89.6322 37.0533 88.6509 37.256 87.6056 37.256C86.2189 37.256 84.9709 36.968 83.8616 36.392C82.7736 35.816 81.9096 34.9627 81.2696 33.832C80.6509 32.7013 80.3416 31.336 80.3416 29.736V19.368H83.9576V29.192C83.9576 30.7707 84.3522 31.9867 85.1416 32.84C85.9309 33.672 87.0082 34.088 88.3736 34.088C89.7389 34.088 90.8162 33.672 91.6056 32.84C92.4162 31.9867 92.8216 30.7707 92.8216 29.192V19.368H96.4696ZM104.515 34.024H112.515V37H100.291V34.024L108.323 22.344H100.291V19.368H112.515V22.344L104.515 34.024ZM118.201 17.032C117.54 17.032 116.985 16.808 116.537 16.36C116.089 15.912 115.865 15.3573 115.865 14.696C115.865 14.0347 116.089 13.48 116.537 13.032C116.985 12.584 117.54 12.36 118.201 12.36C118.841 12.36 119.385 12.584 119.833 13.032C120.281 13.48 120.505 14.0347 120.505 14.696C120.505 15.3573 120.281 15.912 119.833 16.36C119.385 16.808 118.841 17.032 118.201 17.032ZM119.993 19.368V37H116.345V19.368H119.993ZM140.943 27.752C140.943 28.4133 140.9 29.0107 140.815 29.544H127.343C127.449 30.952 127.972 32.0827 128.911 32.936C129.849 33.7893 131.001 34.216 132.367 34.216C134.329 34.216 135.716 33.3947 136.527 31.752H140.463C139.929 33.3733 138.959 34.7067 137.551 35.752C136.164 36.776 134.436 37.288 132.367 37.288C130.681 37.288 129.167 36.9147 127.823 36.168C126.5 35.4 125.455 34.3333 124.687 32.968C123.94 31.5813 123.567 29.9813 123.567 28.168C123.567 26.3547 123.929 24.7653 124.655 23.4C125.401 22.0133 126.436 20.9467 127.759 20.2C129.103 19.4533 130.639 19.08 132.367 19.08C134.031 19.08 135.513 19.4427 136.815 20.168C138.116 20.8933 139.129 21.9173 139.855 23.24C140.58 24.5413 140.943 26.0453 140.943 27.752ZM137.135 26.6C137.113 25.256 136.633 24.1787 135.695 23.368C134.756 22.5573 133.593 22.152 132.207 22.152C130.948 22.152 129.871 22.5573 128.975 23.368C128.079 24.1573 127.545 25.2347 127.375 26.6H137.135Z" fill="white"/>
</svg>
