<svg width="51" height="50" viewBox="0 0 51 50" fill="none" xmlns="http://www.w3.org/2000/svg">
<path d="M44.9297 7.5625H6.07031C5.21593 7.5625 4.39642 7.90134 3.79155 8.50477C3.18667 9.10821 2.84582 9.92688 2.84375 10.7813V35.7813C2.84375 36.637 3.18369 37.4577 3.78879 38.0627C4.39388 38.6679 5.21458 39.0078 6.07031 39.0078H9.09375V41.6875C9.09375 41.8947 9.17609 42.0934 9.32258 42.2399C9.46906 42.3864 9.66781 42.4688 9.875 42.4688H15.6719C15.8791 42.4688 16.0778 42.3864 16.2243 42.2399C16.3708 42.0934 16.4531 41.8947 16.4531 41.6875V38.9766H34.5469V41.6563C34.5469 41.8634 34.6292 42.0622 34.7757 42.2087C34.9222 42.3552 35.1209 42.4375 35.3281 42.4375H41.125C41.3322 42.4375 41.5309 42.3552 41.6774 42.2087C41.8239 42.0622 41.9062 41.8634 41.9062 41.6563V38.9766H44.9297C45.7854 38.9766 46.6061 38.6367 47.2113 38.0315C47.8163 37.4264 48.1562 36.6057 48.1562 35.75V10.75C48.1459 9.90102 47.8015 9.0904 47.1975 8.49368C46.5935 7.89704 45.7787 7.56244 44.9297 7.5625ZM4.40625 13.5625H26.9844C27.3663 13.5625 27.7328 13.7137 28.0036 13.9831C28.2745 14.2524 28.4277 14.6181 28.4297 15V31.5313C28.4297 31.7207 28.3923 31.9083 28.3195 32.0831C28.2468 32.2581 28.1402 32.4169 28.0059 32.5505C27.8716 32.6841 27.7122 32.7898 27.5369 32.8616C27.3616 32.9334 27.1738 32.9698 26.9844 32.9688H4.40625V13.5625ZM4.40625 35.75V34.5313H26.9844C27.7808 34.5313 28.5446 34.2154 29.1084 33.6531C29.6723 33.0906 29.9902 32.3276 29.9922 31.5313V15C29.9902 14.2036 29.6723 13.4406 29.1084 12.8782C28.5446 12.3158 27.7808 12 26.9844 12H4.40625V10.7813C4.40625 10.5631 4.44934 10.3471 4.53307 10.1456C4.61679 9.94415 4.73948 9.76126 4.89411 9.60735C5.04874 9.45345 5.23224 9.33157 5.43409 9.24884C5.63595 9.16602 5.85216 9.12399 6.07031 9.12501H32.2578V37.4141H6.07031C5.62898 37.4141 5.20572 37.2388 4.89364 36.9267C4.58157 36.6146 4.40625 36.1913 4.40625 35.75ZM14.8906 40.875H10.6562V38.9766H14.8906V40.875ZM40.3438 40.875H36.1094V38.9766H40.3438V40.875ZM46.5938 35.75C46.5938 36.1913 46.4184 36.6146 46.1063 36.9267C45.7943 37.2388 45.371 37.4141 44.9297 37.4141H33.8203V9.12501H44.9297C45.1478 9.12399 45.3641 9.16602 45.5659 9.24884C45.7677 9.33157 45.9512 9.45345 46.1059 9.60735C46.2605 9.76126 46.3832 9.94415 46.467 10.1456C46.5506 10.3471 46.5938 10.5631 46.5938 10.7813V35.75Z" fill="#646464"/>
<path d="M43.8672 12H36.3906C36.1834 12 35.9848 12.0823 35.8382 12.2288C35.6917 12.3753 35.6094 12.5741 35.6094 12.7813V16.4609C35.6094 16.6681 35.6917 16.8669 35.8382 17.0134C35.9848 17.1598 36.1834 17.2422 36.3906 17.2422H43.8672C44.0745 17.2422 44.2731 17.1598 44.4196 17.0134C44.5662 16.8669 44.6484 16.6681 44.6484 16.4609V12.7813C44.6484 12.5741 44.5662 12.3753 44.4196 12.2288C44.2731 12.0823 44.0745 12 43.8672 12ZM43.0859 15.6797H37.1719V13.5625H43.0859V15.6797Z" fill="#646464"/>
<path d="M40.125 26.1797C39.3014 26.1797 38.4964 26.4239 37.8116 26.8815C37.1268 27.339 36.5931 27.9894 36.2779 28.7502C35.9628 29.5111 35.8803 30.3484 36.041 31.1561C36.2017 31.9639 36.5982 32.7059 37.1806 33.2882C37.7629 33.8705 38.5049 34.2671 39.3127 34.4278C40.1204 34.5885 40.9577 34.506 41.7185 34.1909C42.4794 33.8757 43.1298 33.342 43.5873 32.6572C44.0449 31.9724 44.2891 31.1673 44.2891 30.3438C44.2891 29.2394 43.8503 28.1802 43.0695 27.3993C42.2885 26.6184 41.2294 26.1797 40.125 26.1797ZM40.125 32.9375C39.5082 32.9341 38.9126 32.711 38.4454 32.3081C37.9782 31.9053 37.6699 31.3491 37.5757 30.7394C37.4817 30.1297 37.608 29.5064 37.932 28.9814C38.256 28.4565 38.7566 28.0642 39.3438 27.875V29.5C39.3438 29.7072 39.4261 29.9059 39.5726 30.0524C39.7191 30.199 39.9178 30.2813 40.125 30.2813C40.3322 30.2813 40.531 30.199 40.6774 30.0524C40.8239 29.9059 40.9063 29.7072 40.9063 29.5V27.875C41.504 28.0544 42.0167 28.4438 42.3498 28.9715C42.6829 29.4991 42.8139 30.1295 42.7188 30.7463C42.6236 31.363 42.3086 31.9245 41.8319 32.3272C41.3553 32.7299 40.749 32.9467 40.125 32.9375Z" fill="#646464"/>
<path d="M37.8047 20.1797H42.4453C42.6525 20.1797 42.8512 20.0974 42.9977 19.9509C43.1442 19.8044 43.2266 19.6056 43.2266 19.3984C43.2266 19.1913 43.1442 18.9925 42.9977 18.846C42.8512 18.6995 42.6525 18.6172 42.4453 18.6172H37.8047C37.5975 18.6172 37.3988 18.6995 37.2523 18.846C37.1058 18.9925 37.0234 19.1913 37.0234 19.3984C37.0234 19.6056 37.1058 19.8044 37.2523 19.9509C37.3988 20.0974 37.5975 20.1797 37.8047 20.1797Z" fill="#646464"/>
</svg>
