<?xml version="1.0" encoding="UTF-8"?>
<svg version="1.1" xmlns="http://www.w3.org/2000/svg" width="512" height="512">
<path d="M0 0 C1.23805968 -0.00523668 2.47611935 -0.01047336 3.75169599 -0.01586872 C7.18111658 -0.02826632 10.61033199 -0.03171251 14.03976083 -0.03127182 C17.74136996 -0.03292234 21.44294195 -0.04599335 25.14453125 -0.0574646 C33.23563221 -0.08029663 41.32670691 -0.08823344 49.41783571 -0.09329104 C54.47307379 -0.09655049 59.52830427 -0.10307452 64.58353806 -0.11029243 C78.58878395 -0.1298569 92.59402278 -0.14626171 106.59928322 -0.14916897 C107.49520757 -0.14935654 108.39113192 -0.14954411 109.31420549 -0.14973736 C111.1303548 -0.15010361 112.94650411 -0.1504673 114.76265343 -0.15082847 C115.66415498 -0.15101128 116.56565653 -0.1511941 117.49447632 -0.15138245 C118.39708247 -0.151563 119.29968863 -0.15174354 120.22964649 -0.15192956 C134.84850729 -0.15546969 149.46722064 -0.1824826 164.08603032 -0.21988034 C179.10641093 -0.25799681 194.12671845 -0.27732669 209.14714849 -0.27762848 C217.57593178 -0.27821234 226.00453921 -0.28665792 234.43327713 -0.31562614 C241.61188317 -0.34018489 248.79024924 -0.34739281 255.96888597 -0.33237862 C259.62822144 -0.32522766 263.28708349 -0.32598764 266.94636536 -0.34878922 C270.9226218 -0.37332734 274.89820941 -0.35869224 278.87451172 -0.34057617 C280.59021392 -0.36037612 280.59021392 -0.36037612 282.34057677 -0.38057607 C292.85887036 -0.27152174 302.3561818 2.89215999 310.06820679 10.25071716 C320.11720881 21.86987576 320.97347566 34.10720055 320.83404541 48.82151222 C320.80663965 52.3962052 320.81696578 55.97087022 320.82211304 59.54563904 C320.82830449 64.06853412 320.82302072 68.59017751 320.76693726 73.11277771 C320.72231872 76.79262791 320.72230206 80.47020301 320.75106812 84.15018272 C320.75411913 85.5394832 320.74153674 86.92892121 320.71200562 88.31791115 C320.52116734 97.81597359 322.06950203 103.08413627 328.62512207 110.07141113 C329.34884003 110.7983165 330.07255798 111.52522186 330.81820679 112.27415466 C331.73030484 113.36542785 332.62756726 114.46959789 333.49789429 115.59446716 C334.22234741 116.52001404 334.94680054 117.44556091 335.69320679 118.39915466 C351.82737638 139.45502242 364.40383196 163.12371024 372.81820679 188.27415466 C373.09744995 189.10753357 373.37669312 189.94091248 373.66439819 190.79954529 C376.65958909 199.90323322 379.14574802 209.07181675 381.06820679 218.46165466 C381.21934937 219.19585632 381.37049194 219.93005798 381.5262146 220.68650818 C384.4799917 236.08715524 385.19170238 251.31703639 385.13070679 266.96165466 C385.12797256 268.41840607 385.12797256 268.41840607 385.12518311 269.90458679 C385.08092106 283.90667496 384.66692449 297.52279741 381.81820679 311.27415466 C381.65723511 312.12316345 381.49626343 312.97217224 381.33041382 313.84690857 C373.11105522 356.94919346 353.69465642 397.65317251 323.90414429 430.00462341 C321.97666003 432.10175516 320.11059322 434.23791821 318.25570679 436.39915466 C312.23868402 443.26985114 305.78652211 449.28230467 298.65805054 454.99290466 C296.81916836 456.470081 294.99741856 457.96895006 293.19711304 459.49290466 C280.51213543 470.19879958 266.49123725 478.59434706 251.81820679 486.27415466 C250.72113403 486.85229919 250.72113403 486.85229919 249.60189819 487.44212341 C228.99772829 498.15318446 206.58122925 504.95829597 183.81820679 509.27415466 C183.03494019 509.43641541 182.25167358 509.59867615 181.44467163 509.76585388 C154.58395418 515.21218893 122.61864687 514.82610759 95.81820679 509.27415466 C94.969198 509.11318298 94.12018921 508.9522113 93.24545288 508.78636169 C39.37940014 498.51441429 -13.60569272 469.3384385 -48.01773071 425.98899841 C-49.40689782 424.24627073 -50.82673566 422.5273161 -52.28335571 420.84056091 C-84.63740924 383.13338217 -105.12400429 329.153943 -105.38491821 279.48118591 C-105.39197784 278.58073547 -105.39903748 277.68028503 -105.40631104 276.75254822 C-105.63517199 238.99496171 -105.63517199 238.99496171 -102.18179321 222.27415466 C-101.98311646 221.29108337 -101.7844397 220.30801208 -101.57974243 219.29515076 C-93.6955957 181.38628343 -77.80934173 146.89359683 -54.26382446 116.18040466 C-53.8225975 115.59840805 -53.38137054 115.01641144 -52.92677307 114.41677856 C-51.18179321 112.27415466 -51.18179321 112.27415466 -48.94818115 110.01048279 C-41.83127512 102.43585213 -40.91530634 96.47842901 -41.15444946 86.36790466 C-41.15387256 84.95265424 -41.14902084 83.53739987 -41.14015198 82.12217712 C-41.12696097 78.42333203 -41.16523853 74.72692777 -41.21682739 71.02848816 C-41.28018845 65.82795312 -41.27392413 60.62698046 -41.27345276 55.4261322 C-41.27323434 52.66639232 -41.29306389 49.9080232 -41.33000183 47.14854431 C-41.43125564 33.19495853 -39.7389531 20.53575966 -29.98257446 9.87181091 C-20.8787271 1.79486173 -11.79423125 -0.02461494 0 0 Z " fill="#D3DBFA" transform="translate(116.18179321289063,-0.2741546630859375)"/>
<path d="M0 0 C0.84348043 -0.00199105 1.68696086 -0.0039821 2.55600131 -0.00603348 C3.48789416 -0.00312064 4.41978702 -0.0002078 5.37991905 0.00279331 C6.36576402 0.00193889 7.35160899 0.00108446 8.36732805 0.00020415 C11.69164205 -0.00145127 15.01590628 0.00407175 18.34021568 0.00952244 C20.71486472 0.00980432 23.08951384 0.00964655 25.46416283 0.00907993 C31.25650692 0.00882195 37.04883454 0.01316996 42.84117486 0.01951759 C49.57940679 0.02665563 56.31763635 0.02816184 63.05587153 0.02930576 C75.07301968 0.03149589 87.09016106 0.03815492 99.10730553 0.04760838 C110.78276091 0.0567835 122.45821445 0.06386385 134.13367271 0.06811619 C134.8530132 0.06837891 135.57235369 0.06864164 136.31349237 0.06891232 C139.92211226 0.07021733 143.53073217 0.07148105 147.13935208 0.07272422 C177.08961215 0.08309562 207.0398643 0.10078706 236.99011803 0.12304783 C237.01662437 1.28352634 237.04313072 2.44400486 237.07044029 3.63964939 C237.12733283 5.1810266 237.18524832 6.72236629 237.24402428 8.26367283 C237.26607933 9.40763523 237.26607933 9.40763523 237.28857994 10.57470798 C237.63555872 18.58323672 241.51920272 22.52835616 246.99011803 28.12304783 C265.49142503 50.6334663 279.74826133 76.49927209 288.99011803 104.12304783 C289.40898277 105.37311619 289.40898277 105.37311619 289.83630943 106.64843845 C292.83150033 115.75212638 295.31765926 124.92070992 297.24011803 134.31054783 C297.3912606 135.04474949 297.54240318 135.77895115 297.69812584 136.53540134 C300.65190294 151.93604841 301.36361362 167.16592955 301.30261803 182.81054783 C301.2998838 184.26729923 301.2998838 184.26729923 301.29709435 185.75347996 C301.2528323 199.75556812 300.83883573 213.37169058 297.99011803 227.12304783 C297.82914635 227.97205662 297.66817467 228.82106541 297.50232506 229.69580173 C289.28296646 272.79808663 269.86656766 313.50206568 240.07605553 345.85351658 C238.14857127 347.95064832 236.28250446 350.08681138 234.42761803 352.24804783 C228.41059526 359.11874431 221.95843335 365.13119783 214.82996178 370.84179783 C212.99107959 372.31897416 211.1693298 373.81784323 209.36902428 375.34179783 C188.16113461 393.24087856 162.61463995 406.49673586 136.55261803 415.74804783 C135.56302086 416.10334568 134.57342369 416.45864353 133.55383873 416.82470798 C132.62659996 417.14230076 131.69936119 417.45989353 130.74402428 417.78711033 C129.9223275 418.07022068 129.10063072 418.35333103 128.25403404 418.64502048 C125.74624955 419.17454082 124.37955193 418.99210806 121.99011803 418.12304783 C115.56469445 413.75652342 111.99242995 408.71914881 110.34558678 401.14648533 C108.87536425 392.77752632 111.29929175 384.15928724 115.99011803 377.12304783 C117.96534648 376.07496742 119.96493311 375.07100672 121.99011803 374.12304783 C123.42622077 372.8988475 123.42622077 372.8988475 123.36511803 369.24804783 C123.39365049 367.08369483 123.39365049 367.08369483 122.99011803 365.12304783 C120.86403624 363.29579777 120.86403624 363.29579777 117.99011803 362.12304783 C112.34604089 358.10706987 112.34604089 358.10706987 110.92761803 354.18554783 C111.00547388 350.37061103 111.93043631 348.31910567 113.99011803 345.12304783 C116.16962791 343.16148893 118.04001515 342.10150135 120.74011803 340.93554783 C123.12441352 339.39013321 123.12441352 339.39013321 123.44714928 337.25976658 C123.55864242 335.00099799 123.62700188 333.30162984 122.99011803 331.12304783 C120.24038269 328.43496575 118.05734654 327.78419362 114.30261803 327.37304783 C107.26675982 326.13448699 102.26503543 322.10887691 97.99011803 316.49804783 C94.73975259 308.77842992 95.36425378 300.94103444 98.04089928 293.16601658 C100.37438372 288.14374347 102.91017286 286.4094668 107.99011803 284.24804783 C140.27348605 269.91180134 163.78187598 244.80469133 176.76746178 212.16943455 C182.15646657 198.04514427 184.5195632 183.74560251 184.38123131 168.69580173 C184.36511536 166.62270495 184.38121971 164.55155615 184.40027428 162.47851658 C184.45392697 128.59796126 168.74330234 96.99610795 145.15027428 73.21679783 C120.82047466 49.54533881 87.28906117 37.47757266 53.62170982 37.83935642 C38.17176163 38.22062428 22.41094009 40.41950178 8.17761803 46.77148533 C4.05527449 48.51943982 2.24884897 48.54262481 -2.00988197 47.12304783 C-8.15246595 42.33160524 -12.3543825 36.81032362 -14.00988197 29.12304783 C-15.03634151 18.9768901 -11.75733078 9.45020964 -6.00988197 1.12304783 C-3.74053286 -0.01162673 -2.51872635 -0.00130775 0 0 Z " fill="#DDEDFE" transform="translate(200.0098819732666,83.87695217132568)"/>
<path d="M0 0 C24.14122558 21.27881147 40.56346045 50.03212492 44.625 82.15234375 C46.45316365 118.3701569 40.38091476 153.0924481 15.625 181.15234375 C14.92761719 181.96960938 14.23023438 182.786875 13.51171875 183.62890625 C-7.17508879 207.36545628 -33.55058027 221.44268903 -64.375 227.15234375 C-65.30094971 227.32435303 -66.22689941 227.4963623 -67.1809082 227.67358398 C-99.81384306 232.56490748 -133.39988052 223.50960639 -160.12109375 204.55859375 C-188.4093086 183.58274039 -207.16075146 153.70214106 -212.92407227 118.83007812 C-215.3255721 99.24361707 -214.83781833 77.86252277 -208.375 59.15234375 C-208.14506348 58.46881836 -207.91512695 57.78529297 -207.67822266 57.08105469 C-201.04492074 37.86184871 -190.26542201 21.89524653 -176.375 7.15234375 C-175.76398438 6.476875 -175.15296875 5.80140625 -174.5234375 5.10546875 C-129.257418 -43.04987114 -48.47859312 -41.49081447 0 0 Z " fill="#FE4155" transform="translate(340.375,151.84765625)"/>
<path d="M0 0 C1.23805968 -0.00523668 2.47611935 -0.01047336 3.75169599 -0.01586872 C7.18111658 -0.02826632 10.61033199 -0.03171251 14.03976083 -0.03127182 C17.74136996 -0.03292234 21.44294195 -0.04599335 25.14453125 -0.0574646 C33.23563221 -0.08029663 41.32670691 -0.08823344 49.41783571 -0.09329104 C54.47307379 -0.09655049 59.52830427 -0.10307452 64.58353806 -0.11029243 C78.58878395 -0.1298569 92.59402278 -0.14626171 106.59928322 -0.14916897 C107.49520757 -0.14935654 108.39113192 -0.14954411 109.31420549 -0.14973736 C111.1303548 -0.15010361 112.94650411 -0.1504673 114.76265343 -0.15082847 C115.66415498 -0.15101128 116.56565653 -0.1511941 117.49447632 -0.15138245 C118.39708247 -0.151563 119.29968863 -0.15174354 120.22964649 -0.15192956 C134.84850729 -0.15546969 149.46722064 -0.1824826 164.08603032 -0.21988034 C179.10641093 -0.25799681 194.12671845 -0.27732669 209.14714849 -0.27762848 C217.57593178 -0.27821234 226.00453921 -0.28665792 234.43327713 -0.31562614 C241.61188317 -0.34018489 248.79024924 -0.34739281 255.96888597 -0.33237862 C259.62822144 -0.32522766 263.28708349 -0.32598764 266.94636536 -0.34878922 C270.9226218 -0.37332734 274.89820941 -0.35869224 278.87451172 -0.34057617 C280.59021392 -0.36037612 280.59021392 -0.36037612 282.34057677 -0.38057607 C292.85887036 -0.27152174 302.3561818 2.89215999 310.06820679 10.25071716 C319.31773572 20.94548499 321.00672356 32.51422084 320.94320679 46.14915466 C320.94707397 47.00251404 320.95094116 47.85587341 320.95492554 48.73509216 C320.95299194 49.95712341 320.95299194 49.95712341 320.95101929 51.20384216 C320.94989136 51.93844666 320.94876343 52.67305115 320.94760132 53.42991638 C320.81820679 55.27415466 320.81820679 55.27415466 319.81820679 57.27415466 C201.01820679 57.27415466 82.21820679 57.27415466 -40.18179321 57.27415466 C-44.04480573 49.54812963 -41.68040385 33.28783333 -39.18179321 25.27415466 C-34.50651648 13.36543092 -27.45731228 6.37956303 -15.78299904 1.21243191 C-10.52076512 -0.1586184 -5.41670951 -0.01130485 0 0 Z " fill="#3B58A0" transform="translate(116.18179321289063,-0.2741546630859375)"/>
<path d="M0 0 C-0.33 0.7425 -0.66 1.485 -1 2.25 C-2.65994904 8.47480891 -3.46583855 15.23745812 -0.375 21.0625 C3.74174271 24.42089537 7.74836551 26.22770081 13 27 C12.67 27.66 12.34 28.32 12 29 C11.34 29 10.68 29 10 29 C7.5638396 35.26441246 5.36916983 41.243412 7.65625 47.9140625 C10.05814344 52.77996732 13.18142908 54.68337937 18 57 C16.4770534 60.64573179 14.31548842 62.85089676 11.46484375 65.5546875 C10.57345703 66.41707031 9.68207031 67.27945313 8.76367188 68.16796875 C6.88141308 69.97087869 4.99338416 71.76778401 3.09960938 73.55859375 C2.20951172 74.42355469 1.31941406 75.28851563 0.40234375 76.1796875 C-0.41758057 76.96069824 -1.23750488 77.74170898 -2.08227539 78.54638672 C-4.37539652 81.48029727 -4.94075767 83.2884065 -5 87 C-3.96575878 89.10885778 -3.96575878 89.10885778 -2.15234375 90.80859375 C-1.50378418 91.48647949 -0.85522461 92.16436523 -0.18701172 92.86279297 C4.4748945 97.41853388 9.15474458 101.95410937 13.94335938 106.37695312 C14.72388672 107.13041016 15.50441406 107.88386719 16.30859375 108.66015625 C17.01814209 109.32668213 17.72769043 109.99320801 18.45874023 110.67993164 C20.68098411 114.02508982 20.61110344 116.06267123 20 120 C18.29922246 122.25700906 16.84566733 123.86673887 14.78515625 125.72265625 C14.25482285 126.23122665 13.72448944 126.73979706 13.17808533 127.26377869 C11.48874003 128.88112465 9.77837921 130.47336598 8.0625 132.0625 C6.35205012 133.65681566 4.64763739 135.25595469 2.95762634 136.87193298 C1.90824105 137.87455339 0.84692347 138.8648762 -0.2275238 139.84059143 C-2.6661667 142.16263014 -3.96456799 143.89121274 -5.01391602 147.11303711 C-4.99736458 150.54673346 -4.5015392 151.37566421 -2.125 153.78125 C-1.15046875 154.79638672 -1.15046875 154.79638672 -0.15625 155.83203125 C0.91109375 156.90517578 0.91109375 156.90517578 2 158 C3.45882267 159.57246284 4.91714204 161.14539273 6.375 162.71875 C7.91387188 164.31519872 9.45557077 165.90892693 11 167.5 C12.15242188 168.73363281 12.15242188 168.73363281 13.328125 169.9921875 C14.08609375 170.76820313 14.8440625 171.54421875 15.625 172.34375 C16.29789062 173.04693359 16.97078125 173.75011719 17.6640625 174.47460938 C21.03259484 176.67429479 23.05291488 176.62845699 27 176 C29.31337257 174.20524005 30.99468704 172.64711412 32.90625 170.49609375 C33.99086889 169.35219787 35.07550483 168.20831815 36.16015625 167.06445312 C37.83756045 165.25001253 39.50765447 163.4291305 41.17529297 161.60571289 C42.7980022 159.84424751 44.44440945 158.10758832 46.09375 156.37109375 C46.82688416 155.5430851 46.82688416 155.5430851 47.5748291 154.698349 C50.25853849 151.88423026 51.58827033 151.01563386 55.5234375 150.86621094 C59.58111824 152.18951637 61.52155487 153.76119625 64.53125 156.76953125 C65.01203003 157.2469426 65.49281006 157.72435394 65.98815918 158.2162323 C66.99356423 159.2219347 67.99158816 160.23506558 68.98242188 161.25512695 C70.50462303 162.81724426 72.05430803 164.34762418 73.609375 165.87695312 C74.58509882 166.86023038 75.55912074 167.84520004 76.53125 168.83203125 C77.41361328 169.72639893 78.29597656 170.6207666 79.20507812 171.54223633 C81 174 81 174 80.84008789 176.21118164 C79.96110547 178.08281901 78.9929975 179.84692177 77.9375 181.625 C75.50952175 186.39201957 75.14840855 190.73964863 76 196 C78.6216671 201.57104258 83.3149938 205.1564755 88 209 C87.47731534 211.76276177 86.89130413 214.3260876 86 217 C85.48747777 221.88156423 85.48927106 225.85085989 87.5 230.375 C90.62363081 233.65481235 93.85238589 235.28860583 98 237 C98 237.66 98 238.32 98 239 C95.60787164 239.80454125 93.21214002 240.59341551 90.8125 241.375 C90.15830078 241.59671875 89.50410156 241.8184375 88.83007812 242.046875 C58.74263625 251.74330177 24.17921233 246.62404421 -3.69921875 232.7109375 C-33.49954249 217.15558232 -57.2431446 191.12673048 -67.99365234 159.03369141 C-75.95540414 133.07072583 -77.98549982 103.01346682 -69 77 C-68.77006348 76.31647461 -68.54012695 75.63294922 -68.30322266 74.92871094 C-61.66992074 55.70950496 -50.89042201 39.74290278 -37 25 C-36.38898438 24.32453125 -35.77796875 23.6490625 -35.1484375 22.953125 C-27.77906101 15.11336278 -11.08844392 0 0 0 Z " fill="#FE4155" transform="translate(201,134)"/>
<path d="M0 0 C0.66 0 1.32 0 2 0 C2 109.89 2 219.78 2 333 C-7.50201199 323.49798801 -15.68159544 313.27429892 -23 302 C-23.41717285 301.36562012 -23.8343457 300.73124023 -24.26416016 300.07763672 C-50.48479866 259.90633616 -63.50380008 214.18416396 -63.3125 166.375 C-63.31034485 165.40444672 -63.3081897 164.43389343 -63.30596924 163.43392944 C-63.2549334 149.10569102 -62.90758438 135.07814218 -60 121 C-59.80132324 120.01692871 -59.60264648 119.03385742 -59.39794922 118.02099609 C-51.13553322 78.29331947 -34.00379104 42.84042496 -9 11 C-8.54898926 10.42121094 -8.09797852 9.84242187 -7.63330078 9.24609375 C-2.32900412 2.46477566 -2.32900412 2.46477566 0 0 Z " fill="#816AE2" transform="translate(74,101)"/>
<path d="M0 0 C0.66 0 1.32 0 2 0 C4.76141875 2.96971542 7.21750309 6.1926467 9.72363281 9.37939453 C10.94966819 10.93609362 12.18940316 12.48197339 13.4296875 14.02734375 C30.70094107 35.90610426 44.1528775 60.55607907 53 87 C53.27924316 87.83337891 53.55848633 88.66675781 53.84619141 89.52539062 C56.8413823 98.62907856 59.32754123 107.79766209 61.25 117.1875 C61.40114258 117.92170166 61.55228516 118.65590332 61.70800781 119.41235352 C64.66178491 134.81300058 65.3734956 150.04288172 65.3125 165.6875 C65.30976578 167.1442514 65.30976578 167.1442514 65.30697632 168.63043213 C65.26271428 182.6325203 64.8487177 196.24864275 62 210 C61.83902832 210.84900879 61.67805664 211.69801758 61.51220703 212.57275391 C53.00336709 257.19307786 32.32063787 300.67936213 0 333 C0 223.11 0 113.22 0 0 Z " fill="#816AE2" transform="translate(436,101)"/>
<path d="M0 0 C24.14122558 21.27881147 40.56346045 50.03212492 44.625 82.15234375 C46.45316365 118.3701569 40.38091476 153.0924481 15.625 181.15234375 C14.92761719 181.96960938 14.23023438 182.786875 13.51171875 183.62890625 C-1.07714366 200.36852457 -19.91649194 214.53955236 -41.375 221.15234375 C-41.375 220.49234375 -41.375 219.83234375 -41.375 219.15234375 C-42.07625 219.09046875 -42.7775 219.02859375 -43.5 218.96484375 C-47.83880272 217.73866037 -51.14924301 215.1426407 -53.52734375 211.28125 C-55.56025203 206.17555869 -55.06434029 200.02982719 -53.25 194.90234375 C-50.72754228 190.42990098 -46.61657994 189.20935133 -42 187.42944336 C-20.00545253 178.92409302 -3.62381085 158.8346351 6.09375 138.00390625 C14.75998291 117.02528147 16.08825243 95.12360569 10.625 73.15234375 C10.35816406 72.04761719 10.09132813 70.94289063 9.81640625 69.8046875 C3.52544307 46.7937422 -12.85217261 26.09933467 -33.375 14.15234375 C-50.18529433 5.1568816 -65.8650971 0.75085178 -85.0625 0.77734375 C-86.28622314 0.77895508 -87.50994629 0.78056641 -88.77075195 0.78222656 C-101.31910362 0.95122793 -112.24601278 2.92257691 -123.6015625 8.3828125 C-126.45597872 9.6214028 -128.32177691 9.73700349 -131.375 9.15234375 C-135.89259963 6.96277918 -139.79947139 4.56529216 -142.375 0.15234375 C-143.14749315 -5.81163563 -143.10158379 -12.39448868 -140.375 -17.84765625 C-98.86462818 -45.52123746 -35.37373606 -30.27491158 0 0 Z " fill="#FB9DAF" transform="translate(340.375,151.84765625)"/>
<path d="M0 0 C2.01733398 1.19726562 2.01733398 1.19726562 3.80859375 2.90625 C4.82542236 3.8653125 4.82542236 3.8653125 5.86279297 4.84375 C10.46048987 9.48241336 14.9697619 14.21123327 19.37695312 19.03125 C20.13041016 19.815 20.88386719 20.59875 21.66015625 21.40625 C22.32668213 22.12103516 22.99320801 22.83582031 23.67993164 23.57226562 C26.03064298 25.29039384 26.03064298 25.29039384 29.41357422 25.05883789 C33.64433026 23.80977125 35.84860714 21.8308463 38.72265625 18.65234375 C39.23122665 18.12105362 39.73979706 17.58976349 40.26377869 17.04237366 C41.87870345 15.35453431 43.47259569 13.64890723 45.0625 11.9375 C47.16092839 9.67923967 49.27859708 7.44180705 51.41015625 5.21484375 C51.88219986 4.6930101 52.35424347 4.17117645 52.84059143 3.63352966 C55.23079926 1.13976466 56.6666472 0.05453913 60.11279297 -0.50927734 C63.3182147 0.05613021 64.47200692 0.69844781 66.78515625 2.93359375 C67.4620752 3.57409668 68.13899414 4.21459961 68.83642578 4.87451172 C69.55040527 5.57592285 70.26438477 6.27733398 71 7 C71.7616748 7.71559082 72.52334961 8.43118164 73.30810547 9.16845703 C75.71347814 11.43835753 78.07775417 13.74527211 80.4375 16.0625 C81.25154297 16.83916016 82.06558594 17.61582031 82.90429688 18.41601562 C84.06348633 19.55780273 84.06348633 19.55780273 85.24609375 20.72265625 C85.94404053 21.40078369 86.6419873 22.07891113 87.36108398 22.77758789 C89.43351655 25.58785955 89.89764756 27.52116055 90 31 C88.89819336 33.01733398 88.89819336 33.01733398 87.15234375 34.80859375 C86.17950439 35.82542236 86.17950439 35.82542236 85.18701172 36.86279297 C80.5251055 41.41853388 75.84525542 45.95410937 71.05664062 50.37695312 C70.27611328 51.13041016 69.49558594 51.88386719 68.69140625 52.66015625 C67.62708374 53.65994507 67.62708374 53.65994507 66.54125977 54.67993164 C64.31901589 58.02508982 64.38889656 60.06267123 65 64 C66.70077754 66.25700906 68.15433267 67.86673887 70.21484375 69.72265625 C70.74517715 70.23122665 71.27551056 70.73979706 71.82191467 71.26377869 C73.51125997 72.88112465 75.22162079 74.47336598 76.9375 76.0625 C78.64794988 77.65681566 80.35236261 79.25595469 82.04237366 80.87193298 C83.09175895 81.87455339 84.15307653 82.8648762 85.2275238 83.84059143 C87.66742377 86.1638271 88.96445121 87.89057492 90.01196289 91.11499023 C89.99778023 94.53532687 89.52273509 95.35436448 87.15625 97.75 C86.5065625 98.42675781 85.856875 99.10351562 85.1875 99.80078125 C84.465625 100.52652344 83.74375 101.25226563 83 102 C81.46861471 103.64570745 79.93737014 105.29154585 78.40625 106.9375 C76.7736634 108.62773813 75.13820711 110.3152088 73.5 112 C72.68402344 112.87011719 71.86804688 113.74023438 71.02734375 114.63671875 C69.82271484 115.86841797 69.82271484 115.86841797 68.59375 117.125 C67.87896484 117.87007813 67.16417969 118.61515625 66.42773438 119.3828125 C63.01762753 121.65438809 61.02044933 121.64009206 57 121 C54.75352326 119.29785309 53.15634579 117.84601982 51.3125 115.78515625 C50.80630127 115.25482285 50.30010254 114.72448944 49.77856445 114.17808533 C48.16782676 112.48875121 46.58200111 110.77874466 45 109.0625 C43.41722859 107.35072452 41.82975183 105.64544392 40.22143555 103.95762634 C39.22339761 102.91011738 38.23950909 101.84887982 37.27270508 100.7724762 C34.81064937 98.18635817 32.91464263 96.97135627 29.51367188 95.83007812 C25.60210353 96.01924235 24.24549323 96.89790943 21.5748291 99.698349 C20.84169495 100.52635765 20.84169495 100.52635765 20.09375 101.37109375 C19.56535522 101.92740982 19.03696045 102.48372589 18.49255371 103.05690002 C16.80791073 104.83248498 15.15182144 106.63137696 13.5 108.4375 C11.84741937 110.23915486 10.18965712 112.03334174 8.50744629 113.80738831 C7.46248427 114.90945997 6.43401873 116.02748043 5.4251709 117.16270447 C2.85132803 119.87861256 1.21535359 120.95845826 -2.48681641 121.67260742 C-6.89105598 120.8294052 -9.11111694 118.86933349 -12.1171875 115.7421875 C-12.65981232 115.20151642 -13.20243713 114.66084534 -13.76150513 114.10379028 C-14.90091455 112.9603931 -16.03173275 111.80837747 -17.15429688 110.6484375 C-18.86991617 108.88023963 -20.61531186 107.1462652 -22.3671875 105.4140625 C-23.47327082 104.29616398 -24.57750298 103.1764302 -25.6796875 102.0546875 C-26.19941132 101.53881073 -26.71913513 101.02293396 -27.25460815 100.49142456 C-30.44774946 97.14982766 -32.0171769 94.67890807 -32 90 C-30.89819336 87.98266602 -30.89819336 87.98266602 -29.15234375 86.19140625 C-28.17950439 85.17457764 -28.17950439 85.17457764 -27.18701172 84.13720703 C-22.5251055 79.58146612 -17.84525542 75.04589063 -13.05664062 70.62304688 C-12.27611328 69.86958984 -11.49558594 69.11613281 -10.69140625 68.33984375 C-9.98185791 67.67331787 -9.27230957 67.00679199 -8.54125977 66.32006836 C-6.31901589 62.97491018 -6.38889656 60.93732877 -7 57 C-8.70077754 54.74299094 -10.15433267 53.13326113 -12.21484375 51.27734375 C-13.01034386 50.51448814 -13.01034386 50.51448814 -13.82191467 49.73622131 C-15.51125997 48.11887535 -17.22162079 46.52663402 -18.9375 44.9375 C-20.64794988 43.34318434 -22.35236261 41.74404531 -24.04237366 40.12806702 C-25.09175895 39.12544661 -26.15307653 38.1351238 -27.2275238 37.15940857 C-29.66746611 34.83613259 -30.96441419 33.10956548 -32.01171875 29.88500977 C-31.99783085 26.46598311 -31.52460435 25.64592107 -29.16015625 23.25 C-28.51062988 22.57324219 -27.86110352 21.89648438 -27.19189453 21.19921875 C-26.46856934 20.47347656 -25.74524414 19.74773437 -25 19 C-24.25218262 18.20207031 -23.50436523 17.40414062 -22.73388672 16.58203125 C-20.33336841 14.02227211 -17.89077494 11.50916259 -15.4375 9 C-14.61314453 8.12988281 -13.78878906 7.25976562 -12.93945312 6.36328125 C-12.13314453 5.54214844 -11.32683594 4.72101563 -10.49609375 3.875 C-9.77607178 3.12992188 -9.0560498 2.38484375 -8.31420898 1.6171875 C-5.30026362 -0.4889813 -3.60735726 -0.51703866 0 0 Z " fill="#BEC7F6" transform="translate(227,190)"/>
<path d="M0 0 C0.66 0.33 1.32 0.66 2 1 C1.566875 1.8353125 1.566875 1.8353125 1.125 2.6875 C-1.73626873 8.56899684 -3.58077189 13.41669689 -1.33984375 19.9140625 C1.05309196 24.78280616 4.18457904 26.68489377 9 29 C7.4770534 32.64573179 5.31548842 34.85089676 2.46484375 37.5546875 C1.57345703 38.41707031 0.68207031 39.27945313 -0.23632812 40.16796875 C-2.11858692 41.97087869 -4.00661584 43.76778401 -5.90039062 45.55859375 C-6.79048828 46.42355469 -7.68058594 47.28851563 -8.59765625 48.1796875 C-9.41758057 48.96069824 -10.23750488 49.74170898 -11.08227539 50.54638672 C-13.37539652 53.48029727 -13.94075767 55.2884065 -14 59 C-12.96575878 61.10885778 -12.96575878 61.10885778 -11.15234375 62.80859375 C-10.50378418 63.48647949 -9.85522461 64.16436523 -9.18701172 64.86279297 C-4.5251055 69.41853388 0.15474458 73.95410937 4.94335938 78.37695312 C5.72388672 79.13041016 6.50441406 79.88386719 7.30859375 80.66015625 C8.01814209 81.32668213 8.72769043 81.99320801 9.45874023 82.67993164 C11.68098411 86.02508982 11.61110344 88.06267123 11 92 C9.29922246 94.25700906 7.84566733 95.86673887 5.78515625 97.72265625 C5.25482285 98.23122665 4.72448944 98.73979706 4.17808533 99.26377869 C2.48874003 100.88112465 0.77837921 102.47336598 -0.9375 104.0625 C-2.64794988 105.65681566 -4.35236261 107.25595469 -6.04237366 108.87193298 C-7.09175895 109.87455339 -8.15307653 110.8648762 -9.2275238 111.84059143 C-11.6661667 114.16263014 -12.96456799 115.89121274 -14.01391602 119.11303711 C-13.99736458 122.54673346 -13.5015392 123.37566421 -11.125 125.78125 C-10.15046875 126.79638672 -10.15046875 126.79638672 -9.15625 127.83203125 C-8.08890625 128.90517578 -8.08890625 128.90517578 -7 130 C-5.54117733 131.57246284 -4.08285796 133.14539273 -2.625 134.71875 C-1.08612812 136.31519872 0.45557077 137.90892693 2 139.5 C3.15242188 140.73363281 3.15242188 140.73363281 4.328125 141.9921875 C5.08609375 142.76820313 5.8440625 143.54421875 6.625 144.34375 C7.29789063 145.04693359 7.97078125 145.75011719 8.6640625 146.47460938 C12.03259484 148.67429479 14.05291488 148.62845699 18 148 C20.31337257 146.20524005 21.99468704 144.64711412 23.90625 142.49609375 C24.99086889 141.35219787 26.07550483 140.20831815 27.16015625 139.06445312 C28.83756045 137.25001253 30.50765447 135.4291305 32.17529297 133.60571289 C33.7980022 131.84424751 35.44440945 130.10758832 37.09375 128.37109375 C37.82688416 127.5430851 37.82688416 127.5430851 38.5748291 126.698349 C41.25853849 123.88423026 42.58827033 123.01563386 46.5234375 122.86621094 C50.58111824 124.18951637 52.52155487 125.76119625 55.53125 128.76953125 C56.01203003 129.2469426 56.49281006 129.72435394 56.98815918 130.2162323 C57.99356423 131.2219347 58.99158816 132.23506558 59.98242188 133.25512695 C61.50462303 134.81724426 63.05430803 136.34762418 64.609375 137.87695312 C65.58509882 138.86023038 66.55912074 139.84520004 67.53125 140.83203125 C68.41361328 141.72639893 69.29597656 142.6207666 70.20507812 143.54223633 C72 146 72 146 71.84008789 148.21118164 C70.96110547 150.08281901 69.9929975 151.84692177 68.9375 153.625 C66.50952175 158.39201957 66.14840855 162.73964863 67 168 C69.6216671 173.57104258 74.3149938 177.1564755 79 181 C76.20555502 183.79444498 72.98303435 184.18276162 69.25 185.0625 C68.54617188 185.23587891 67.84234375 185.40925781 67.1171875 185.58789062 C53.60334151 188.86587743 39.56720715 189.35325859 26 186 C24.865625 185.75507813 23.73125 185.51015625 22.5625 185.2578125 C-2.31522776 179.40118076 -24.59857664 163.16447142 -38.25 141.5625 C-52.07717494 118.13312024 -57.51740621 91.13709266 -50.97705078 64.35888672 C-43.50944139 37.40460969 -25.82757595 15.19098815 -1.9609375 0.86328125 C-1.31382812 0.57839844 -0.66671875 0.29351562 0 0 Z " fill="#E80054" transform="translate(210,162)"/>
<path d="M0 0 C1.44971947 -0.00043808 1.44971947 -0.00043808 2.9287262 -0.00088501 C6.11029159 0.00050379 9.29162025 0.01604394 12.47314453 0.03173828 C14.68417228 0.03547001 16.89520169 0.03831623 19.10623169 0.04031372 C24.91606234 0.04793759 30.72579247 0.06757546 36.5355835 0.08972168 C42.46788168 0.11020691 48.40019615 0.11932117 54.33251953 0.12939453 C65.96537612 0.15082246 77.5981582 0.18494344 89.23095703 0.22705078 C88.74240234 1.14228516 88.25384766 2.05751953 87.75048828 3.00048828 C85.98586614 6.74747515 85.85150859 9.12900757 86.23095703 13.22705078 C87.25856807 15.94287996 88.16327137 17.15936512 90.23095703 19.22705078 C89.28220703 19.82517578 88.33345703 20.42330078 87.35595703 21.03955078 C84.09131506 23.04267604 84.09131506 23.04267604 82.23095703 26.22705078 C82.37347782 30.14637255 82.60840196 32.45923285 85.10595703 35.53955078 C87.32524825 37.34988889 87.32524825 37.34988889 90.23095703 39.22705078 C89.57095703 40.09330078 88.91095703 40.95955078 88.23095703 41.85205078 C86.04085831 45.54784237 85.61949656 47.03417898 86.23095703 51.22705078 C87.22095703 53.20705078 88.21095703 55.18705078 89.23095703 57.22705078 C47.32095703 57.22705078 5.41095703 57.22705078 -37.76904297 57.22705078 C-41.63205549 49.50102575 -39.2676536 33.24072945 -36.76904297 25.22705078 C-32.47550699 14.29068554 -26.32300277 7.42358892 -15.76904297 2.22705078 C-10.43460812 -0.00052033 -5.67921692 -0.04516578 0 0 Z " fill="#2A428C" transform="translate(113.76904296875,-0.22705078125)"/>
<path d="M0 0 C5.53734971 20.09136397 10.09372332 39.8969395 10.203125 60.828125 C10.21364647 62.18310593 10.21364647 62.18310593 10.22438049 63.56546021 C10.24177133 66.46035819 10.24823161 69.35505171 10.25 72.25 C10.25067474 73.23865051 10.25134949 74.22730103 10.25204468 75.24591064 C10.23669958 89.37458505 9.92487142 103.12822528 7 117 C6.80712402 117.95003906 6.61424805 118.90007812 6.41552734 119.87890625 C4.50641645 129.1624259 2.51910484 138.181778 -1 147 C-7.97674601 145.03779019 -14.03438755 138.88004604 -18 133 C-22.28944264 125.18708662 -24.14693019 119.50194273 -24.17700195 110.56640625 C-24.18685875 109.29234169 -24.18685875 109.29234169 -24.19691467 107.99253845 C-24.21661617 105.18252465 -24.22830653 102.37256437 -24.23828125 99.5625 C-24.24235678 98.59924805 -24.2464323 97.63599609 -24.25063133 96.64355469 C-24.27148391 91.5398785 -24.2857862 86.43622909 -24.29516602 81.33251953 C-24.30619705 76.08508852 -24.34056104 70.83808544 -24.38033772 65.59080505 C-24.40661057 61.53618637 -24.41486754 57.48166773 -24.41844749 53.42697144 C-24.42329004 51.49426399 -24.4348367 49.56156031 -24.45348549 47.62893677 C-24.5879824 32.76022271 -23.75955834 20.32356745 -13 9 C-3.62068966 0 -3.62068966 0 0 0 Z " fill="#9080F1" transform="translate(491,194)"/>
<path d="M0 0 C8.52694222 2.90311223 14.80462424 10.06951941 19.74609375 17.37109375 C24.81997025 28.00884728 24.45727372 38.51639187 24.43359375 50.05859375 C24.43816244 52.01335327 24.44347005 53.96811119 24.44947815 55.92286682 C24.45838048 60.00699414 24.45601887 64.09092561 24.44604492 68.17504883 C24.4345568 73.38435469 24.45477929 78.5929825 24.48396206 83.80219936 C24.50239029 87.83535488 24.50201847 91.86834985 24.49632454 95.90153694 C24.49617215 97.82109593 24.50214795 99.74066636 24.51461601 101.66018486 C24.59687335 116.39749182 23.47699384 127.73987732 13 139 C6.09249031 145.868776 6.09249031 145.868776 1 147 C-2.87930963 137.2791718 -4.92231233 127.23395698 -7 117 C-7.17096191 116.18917969 -7.34192383 115.37835938 -7.51806641 114.54296875 C-14.89871873 78.06123973 -11.7301083 35.1903249 0 0 Z " fill="#9080F1" transform="translate(21,194)"/>
<path d="M0 0 C0.68835938 0.61488281 0.68835938 0.61488281 1.390625 1.2421875 C2.00421875 1.78101563 2.6178125 2.31984375 3.25 2.875 C3.85328125 3.40867187 4.4565625 3.94234375 5.078125 4.4921875 C10.12513302 8.45183201 14.75469815 8.67969373 21 8 C24.40241824 6.6351132 24.40241824 6.6351132 27 5 C27.66 5 28.32 5 29 5 C27.42299035 38.71537876 10.34315459 66.89033174 -13.75 89.625 C-25.82995622 100.16161796 -40.63572092 109.26524528 -56 114 C-56 113.34 -56 112.68 -56 112 C-57.051875 111.9071875 -57.051875 111.9071875 -58.125 111.8125 C-62.46380272 110.58631662 -65.77424301 107.99029695 -68.15234375 104.12890625 C-70.18525203 99.02321494 -69.68934029 92.87748344 -67.875 87.75 C-65.35254228 83.27755723 -61.24157994 82.05700758 -56.625 80.27709961 C-34.6329807 71.77272692 -18.35607501 51.73673686 -8.56640625 30.95703125 C-4.44342078 21.02847123 -2.30816256 10.46614421 0 0 Z " fill="#FE7186" transform="translate(355,259)"/>
<path d="M0 0 C0.33 0.66 0.66 1.32 1 2 C119.8 2 238.6 2 361 2 C361.33 1.34 361.66 0.68 362 0 C362 0.99 362 1.98 362 3 C285.11 3 208.22 3 129 3 C129 9.6 129 16.2 129 23 C126 28 126 28 124 29 C122.36545388 29.09281235 120.72711348 29.1219217 119.0899353 29.12025452 C118.05224503 29.12162918 117.01455475 29.12300385 115.94541931 29.12442017 C114.23099388 29.11902725 114.23099388 29.11902725 112.48193359 29.11352539 C110.68196175 29.11374443 110.68196175 29.11374443 108.84562683 29.1139679 C105.55037139 29.11338957 102.25517818 29.10836565 98.95993376 29.10139394 C95.51793824 29.09515327 92.07594195 29.09455604 88.63394165 29.09336853 C82.11392065 29.09025732 75.59391636 29.08204676 69.07390273 29.07201904 C61.65199262 29.06085138 54.23008173 29.05534581 46.80816531 29.05032361 C31.53876554 29.03986398 16.2693888 29.0215211 1 29 C0.67 19.43 0.34 9.86 0 0 Z " fill="#B9C3F3" transform="translate(75,55)"/>
<path d="M0 0 C-5 5 -5 5 -7.1875 7.0625 C-10.73524388 10.85491587 -11.25827341 13.85284318 -11.1875 19 C-11.18105469 20.03125 -11.17460937 21.0625 -11.16796875 22.125 C-11.02357492 24.59648501 -10.63782345 26.62812387 -10 29 C-11.1859375 28.45730469 -12.371875 27.91460937 -13.59375 27.35546875 C-37.39955224 16.71013447 -64.85722429 13.38627128 -90 22 C-92.45106853 23.00766151 -94.83902546 24.08243849 -97.2265625 25.23046875 C-100.08097872 26.46905905 -101.94677691 26.58465974 -105 26 C-109.51759963 23.81043543 -113.42447139 21.41294841 -116 17 C-116.77249315 11.03602062 -116.72658379 4.45316757 -114 -1 C-83.39036646 -21.40642236 -30.63624073 -18.83714801 0 0 Z " fill="#FE7186" transform="translate(314,135)"/>
<path d="M0 0 C1.22948868 -0.00571014 2.45897736 -0.01142029 3.72572327 -0.01730347 C5.07499685 -0.01854854 6.42427054 -0.0196737 7.77354431 -0.02069092 C9.20472337 -0.02532379 10.63590121 -0.03034908 12.06707764 -0.03573608 C15.94296706 -0.04881087 19.8188392 -0.05529457 23.69474721 -0.05974674 C26.1173464 -0.06268346 28.53994093 -0.06678924 30.96253777 -0.07125092 C38.54601997 -0.08490852 46.12949145 -0.0945855 53.7129851 -0.09845281 C62.4613912 -0.10293925 71.20964151 -0.1205215 79.95800024 -0.1494534 C86.72672408 -0.17106088 93.49540404 -0.18115647 100.264162 -0.18249393 C104.30467921 -0.18354198 108.34504962 -0.18945061 112.38553047 -0.20731354 C116.1834335 -0.2237797 119.98107907 -0.22595696 123.77900505 -0.21717453 C125.17177901 -0.21640356 126.56456676 -0.22075485 127.95730591 -0.23063278 C129.86008574 -0.24333611 131.76296886 -0.23568962 133.66577148 -0.22705078 C134.73002381 -0.22851734 135.79427614 -0.2299839 136.89077854 -0.2314949 C140.83700574 0.27838464 143.62119733 1.73129153 146.14439392 4.82794189 C147.088945 8.3227809 147.08863713 11.74620811 145.76939392 15.14044189 C142.01741489 18.78850128 139.62232927 19.64197623 134.43125916 19.65510559 C133.15266022 19.66783005 131.87406128 19.6805545 130.55671692 19.69366455 C129.14713865 19.68748266 127.73756218 19.68087667 126.32798767 19.67388916 C124.83783616 19.68094938 123.34769183 19.68969484 121.8575592 19.69999695 C117.8162085 19.72248807 113.77524946 19.71955222 109.73386002 19.71067548 C106.35897764 19.70556389 102.98416875 19.71285942 99.60929394 19.72014755 C91.64794675 19.73714526 83.68679126 19.73358159 75.72544861 19.71685791 C67.51313307 19.69993012 59.30134882 19.71578017 51.0890913 19.74808079 C44.03585216 19.77477131 36.98277847 19.78205437 29.9294939 19.77356571 C25.71787536 19.76863567 21.5065766 19.77085623 17.29499817 19.79135323 C13.33522505 19.80970258 9.37621679 19.80376171 5.41648483 19.77915382 C3.96405799 19.77414374 2.51157295 19.777641 1.05919266 19.79030228 C-0.92464457 19.80622748 -2.90866732 19.78826417 -4.89247131 19.76863098 C-6.00226852 19.76804467 -7.11206573 19.76745836 -8.25549316 19.76685429 C-12.21833595 18.93247458 -13.71000809 17.24233287 -16.23060608 14.14044189 C-17.35560608 10.70294189 -17.35560608 10.70294189 -17.23060608 7.14044189 C-15.16810608 3.76544189 -15.16810608 3.76544189 -12.23060608 1.14044189 C-8.139753 0.18106442 -4.19014771 0.01170762 0 0 Z " fill="#4E70B5" transform="translate(212.23060607910156,18.85955810546875)"/>
<path d="M0 0 C2.00415039 1.21264648 2.00415039 1.21264648 3.78515625 2.93359375 C4.4620752 3.57409668 5.13899414 4.21459961 5.83642578 4.87451172 C6.55040527 5.57592285 7.26438477 6.27733398 8 7 C8.7616748 7.71559082 9.52334961 8.43118164 10.30810547 9.16845703 C12.71347814 11.43835753 15.07775417 13.74527211 17.4375 16.0625 C18.25154297 16.83916016 19.06558594 17.61582031 19.90429688 18.41601562 C20.67708984 19.17720703 21.44988281 19.93839844 22.24609375 20.72265625 C22.94404053 21.40078369 23.6419873 22.07891113 24.36108398 22.77758789 C26.43356732 25.5879284 26.89765313 27.52106397 27 31 C25.89819336 33.01953125 25.89819336 33.01953125 24.15234375 34.8125 C23.17950439 35.82957031 23.17950439 35.82957031 22.18701172 36.8671875 C17.53591992 41.40301447 12.85346949 45.90723598 8.05664062 50.2890625 C3.76557042 54.19845245 3.76557042 54.19845245 1.46826172 59.34375 C1.40706586 61.77692659 1.40706586 61.77692659 2 65 C-1.88065543 66.25344168 -5.77878874 66.18377543 -9.8125 66.1875 C-10.49892578 66.19974609 -11.18535156 66.21199219 -11.89257812 66.22460938 C-20.45805497 66.24892009 -25.83560339 63.9317924 -32.05078125 58.0859375 C-34.40976913 55.56148954 -35.80263755 53.23992193 -37 50 C-37.34933594 49.154375 -37.69867188 48.30875 -38.05859375 47.4375 C-39.29292085 42.9304135 -39.2159594 38.77092604 -39.125 34.125 C-39.11597656 33.24585938 -39.10695312 32.36671875 -39.09765625 31.4609375 C-39.07424577 29.3071729 -39.0383801 27.15354986 -39 25 C-38.01 25.144375 -37.02 25.28875 -36 25.4375 C-31.4569678 25.41526935 -29.27758846 23.18469093 -26.10644531 20.15185547 C-25.06375488 19.08668701 -25.06375488 19.08668701 -24 18 C-23.26620117 17.25250488 -22.53240234 16.50500977 -21.77636719 15.73486328 C-18.67093846 12.53185054 -15.57993001 9.31744591 -12.53515625 6.05664062 C-11.77847656 5.27611328 -11.02179688 4.49558594 -10.2421875 3.69140625 C-9.5704248 2.98185791 -8.89866211 2.27230957 -8.20654297 1.54125977 C-5.26041898 -0.51659382 -3.52399251 -0.49106 0 0 Z " fill="#DEECFE" transform="translate(290,190)"/>
<path d="M0 0 C1.21189499 -0.00540298 2.42378998 -0.01080597 3.67240906 -0.01637268 C6.98882131 -0.02672643 10.30423352 -0.0191704 13.62055779 -0.00266147 C17.09490215 0.0112116 20.56921702 0.00472639 24.0435791 0.00120544 C29.87760777 -0.00149491 35.7114305 0.01196369 41.54541016 0.03515625 C48.28528 0.06176505 55.02480557 0.06351253 61.76470995 0.05176789 C68.25473964 0.04097947 74.74464508 0.04718547 81.23466492 0.06132317 C83.99373825 0.06707379 86.7527204 0.0670076 89.51179504 0.06225777 C93.36606824 0.05658867 97.21999855 0.07582888 101.07421875 0.09765625 C102.78873482 0.09090378 102.78873482 0.09090378 104.53788757 0.08401489 C105.58930435 0.09391953 106.64072113 0.10382416 107.72399902 0.11402893 C109.09003391 0.11767377 109.09003391 0.11767377 110.48366547 0.12139225 C113.88599248 0.62814389 116.5903412 2.05494081 119.03710938 4.50170898 C119.60092424 10.2338268 119.60092424 10.2338268 119.03710938 12.50170898 C116.82928154 15.10653989 114.98135817 16.35873336 111.57925415 16.87387085 C108.37424886 17.02427503 105.19095216 17.04183145 101.98242188 17.01928711 C100.76077332 17.02629639 99.53912476 17.03330566 98.28045654 17.04052734 C94.93719901 17.05510177 91.59493352 17.05170673 88.25173187 17.039011 C84.74935088 17.02886732 81.2470116 17.03828046 77.74462891 17.04455566 C71.86352956 17.05182813 65.9826313 17.04225507 60.1015625 17.02319336 C53.3071004 17.00142515 46.51311845 17.00847682 39.71866798 17.03049898 C33.87985443 17.04866458 28.04118522 17.05120571 22.20235252 17.0407443 C18.71736152 17.03451566 15.23259604 17.03365615 11.74761963 17.04689026 C7.86215626 17.06061518 3.97722853 17.04157999 0.09179688 17.01928711 C-1.6367453 17.0314325 -1.6367453 17.0314325 -3.40020752 17.04382324 C-11.1895865 16.96092444 -11.1895865 16.96092444 -15.17480469 14.59436035 C-17.095412 12.34661518 -17.64494425 11.4228544 -17.58789062 8.50170898 C-17.60078125 7.84170898 -17.61367187 7.18170898 -17.62695312 6.50170898 C-15.05027212 -1.25864792 -6.62297127 -0.05601932 0 0 Z " fill="#BEC8F7" transform="translate(204.962890625,444.498291015625)"/>
<path d="M0 0 C1.22164856 -0.00700928 2.44329712 -0.01401855 3.70196533 -0.02124023 C7.04522287 -0.03581466 10.38748836 -0.03241962 13.73069 -0.01972389 C17.23307099 -0.00958021 20.73541027 -0.01899335 24.23779297 -0.02526855 C30.11889231 -0.03254102 35.99979058 -0.02296796 41.88085938 -0.00390625 C48.67532147 0.01786196 55.46930343 0.01081029 62.26375389 -0.01121187 C68.10256745 -0.02937747 73.94123666 -0.0319186 79.78006935 -0.0214572 C83.26506035 -0.01522855 86.74982583 -0.01436904 90.23480225 -0.02760315 C94.12026562 -0.04132807 98.00519335 -0.02229288 101.890625 0 C103.04298645 -0.00809692 104.1953479 -0.01619385 105.38262939 -0.02453613 C113.17002155 0.05834153 113.17002155 0.05834153 117.16162109 2.42272949 C119.11192992 4.71326123 119.58244842 5.61451391 119.4453125 8.58007812 C118.9453125 12.51757812 118.9453125 12.51757812 117.6328125 14.45507812 C114.39313934 16.49487234 111.59445952 16.64731984 107.87271118 16.66474915 C106.29971001 16.6754821 106.29971001 16.6754821 104.69493103 16.68643188 C102.96962914 16.69046524 102.96962914 16.69046524 101.20947266 16.69458008 C99.39206825 16.70443687 99.39206825 16.70443687 97.53794861 16.7144928 C93.52008824 16.73423822 89.50226777 16.74589122 85.484375 16.75585938 C84.10045731 16.75990756 82.71653981 16.7640245 81.33262253 16.76820946 C74.83195571 16.78725377 68.33130021 16.80148766 61.83061087 16.80982143 C54.32841077 16.8195983 46.82650537 16.84593237 39.32440913 16.88632232 C33.52389132 16.91647927 27.72345804 16.93128979 21.92286336 16.93460244 C18.45902828 16.936953 14.9955083 16.94591383 11.53175735 16.97106361 C7.66772257 16.99866769 3.80407613 16.99451446 -0.06005859 16.98754883 C-1.7792878 17.00676392 -1.7792878 17.00676392 -3.5332489 17.02636719 C-11.28355843 16.97532254 -11.28355843 16.97532254 -15.2628479 14.61320496 C-17.18628603 12.36366847 -17.73679562 11.44151384 -17.6796875 8.51757812 C-17.69257813 7.85757812 -17.70546875 7.19757813 -17.71875 6.51757812 C-15.13478321 -1.26472185 -6.64037762 -0.04665778 0 0 Z " fill="#BEC8F7" transform="translate(205.0546875,410.482421875)"/>
<path d="M0 0 C1.31613281 -0.02578125 2.63226563 -0.0515625 3.98828125 -0.078125 C7.82855867 0.26251207 9.64753765 0.95451823 12.6875 3.25 C15.23194917 6.37273308 14.76989355 9.44059762 14.46484375 13.25 C13.23091922 16.42472041 11.59124042 17.51004516 8.6875 19.25 C5.83522186 19.81226796 3.08656714 19.81008429 0.1875 19.75 C-0.55886719 19.76546875 -1.30523437 19.7809375 -2.07421875 19.796875 C-5.99209884 19.7691378 -7.90321541 19.51280379 -11.28125 17.34375 C-13.90014257 14.64427612 -14.25902673 13.72234725 -14.6875 9.9375 C-14.3125 6.25 -14.3125 6.25 -11.9375 3.375 C-7.89926299 0.105951 -5.03460345 0.03839545 0 0 Z " fill="#4E70B5" transform="translate(388.3125,18.75)"/>
<path d="M0 0 C3.6578218 2.03993908 5.66946174 3.50419262 8 7 C8.43492196 10.29298055 8.69293789 12.80334957 6.984375 15.75390625 C4.82268515 18.45601856 3.31001789 19.8966607 0 21 C-3.375 21.375 -3.375 21.375 -7 21 C-10.84554163 17.82324822 -12.80224739 15.71385593 -13.375 10.75 C-12.88072704 5.80727042 -11.46171699 4.46171699 -8 1 C-5.13391871 -0.43304064 -3.18699217 -0.30644155 0 0 Z " fill="#85C966" transform="translate(174,18)"/>
<path d="M0 0 C5.57894737 3.15789474 5.57894737 3.15789474 7 6 C7.55512815 10.63213493 7.6364242 13.98172127 5.125 18 C1.85159987 21.08084718 -0.46126475 21.33387487 -4.9609375 21.29296875 C-8.13134567 20.83745033 -9.8192402 19.24684343 -12 17 C-13.76713963 13.46572073 -13.78419127 9.837395 -13 6 C-9.76094576 1.38481578 -5.69747567 -1.21222887 0 0 Z " fill="#F9D941" transform="translate(145,18)"/>
<path d="M0 0 C3.49406769 1.66762322 4.82670681 2.74006022 7 6 C7.73446576 10.56051995 7.59262059 14.01911074 5.1875 18 C2.33756556 20.60565434 0.45051314 20.95828582 -3.375 21.3125 C-7.59334314 20.94884973 -9.04884992 19.95115008 -12 17 C-13.73631636 13.52736727 -13.60190402 9.78806987 -13 6 C-9.04831125 1.00839315 -6.3017294 -0.49425329 0 0 Z " fill="#F78ECC" transform="translate(116,18)"/>
</svg>
