<?xml version="1.0" encoding="UTF-8"?>
<svg version="1.1" xmlns="http://www.w3.org/2000/svg" width="512" height="512">
<path d="M0 0 C0.67538388 -0.00453111 1.35076775 -0.00906223 2.04661781 -0.01373065 C4.2909815 -0.02630674 6.5351004 -0.02475871 8.77949524 -0.02310181 C10.39650786 -0.02909143 12.01351763 -0.03589797 13.63052368 -0.04345703 C18.01095586 -0.0610829 22.39130984 -0.06581105 26.77177405 -0.0670886 C29.51321007 -0.06851302 32.2546264 -0.07278817 34.99605751 -0.07808304 C44.57362244 -0.09657401 54.1511318 -0.10475507 63.72871399 -0.10317993 C72.63384237 -0.10197969 81.53872793 -0.12306131 90.44379491 -0.15466726 C98.10691671 -0.18088876 105.76995951 -0.19154473 113.43312579 -0.19026911 C118.00205042 -0.18976108 122.57075926 -0.19535545 127.1396389 -0.21662521 C131.44158983 -0.23610618 135.74312138 -0.23606533 140.04508781 -0.22159195 C141.61552804 -0.21951472 143.1859952 -0.22413933 144.75638962 -0.23631287 C160.11295939 -0.34755411 172.8435662 2.9915712 184.41352844 13.52133179 C193.32787136 22.8083479 199.16810363 34.31560891 199.20439148 47.33045959 C199.20892259 48.00584347 199.21345371 48.68122735 199.21812212 49.3770774 C199.23069822 51.62144109 199.22915019 53.86556 199.22749329 56.10995483 C199.2334829 57.72696746 199.24028945 59.34397723 199.24784851 60.96098328 C199.26547438 65.34141546 199.27020253 69.72176943 199.27148008 74.10223365 C199.27290449 76.84366967 199.27717965 79.58508599 199.28247452 82.32651711 C199.30096549 91.90408204 199.30914655 101.4815914 199.30757141 111.05917358 C199.30637117 119.96430197 199.32745279 128.86918752 199.35905874 137.7742545 C199.38528024 145.43737631 199.39593621 153.10041911 199.39466059 160.76358539 C199.39415256 165.33251001 199.39974693 169.90121885 199.42101669 174.4700985 C199.44049766 178.77204943 199.44045681 183.07358097 199.42598343 187.37554741 C199.42390619 188.94598764 199.42853081 190.5164548 199.44070435 192.08684921 C199.55633996 208.05005137 195.6824403 221.04448532 184.74946594 233.01742554 C158.75344734 257.31932158 113.45345019 247.26742554 83.93696594 247.26742554 C83.93696594 329.76742554 83.93696594 412.26742554 83.93696594 497.26742554 C99.11696594 497.26742554 114.29696594 497.26742554 129.93696594 497.26742554 C133.93696594 501.26742554 133.93696594 501.26742554 134.43696594 504.76742554 C133.93696594 508.26742554 133.93696594 508.26742554 132.36543185 510.45488983 C129.14395956 512.85930224 126.44707639 512.82170764 122.5815115 512.76799679 C121.83491049 512.77351095 121.08830948 512.77902512 120.3190842 512.78470638 C117.80306903 512.79836339 115.28803129 512.78337173 112.77203369 512.76863098 C110.95580295 512.77252163 109.13957525 512.77816017 107.32335478 512.78540188 C102.32138388 512.80020833 97.31972612 512.78994458 92.31776512 512.77566516 C86.92780027 512.76458875 81.53788055 512.77648687 76.1479187 512.7855072 C65.58489305 512.79946415 55.02198667 512.79186551 44.45896666 512.77683162 C32.16767875 512.76000143 19.87642079 512.76317797 7.58512492 512.7669257 C-14.33936695 512.77280871 -36.26380145 512.75861506 -58.1882782 512.73397827 C-79.48160991 512.71005327 -100.77481825 512.70297459 -122.06816101 512.71347046 C-145.23510253 512.72486934 -168.40200856 512.72682271 -191.56894964 512.71237236 C-194.03732423 512.71084646 -196.50569882 512.70932611 -198.97407341 512.70781136 C-200.79598306 512.70667463 -200.79598306 512.70667463 -202.65469896 512.70551495 C-211.23043761 512.70076438 -219.80616046 512.702629 -228.38189888 512.70687675 C-238.82639263 512.71179387 -249.27081377 512.70586172 -259.71529085 512.68598246 C-265.04825195 512.67608352 -270.38110229 512.6710333 -275.71406937 512.67887497 C-280.59001568 512.68589816 -285.46573786 512.67920649 -290.34165447 512.66127134 C-292.11142425 512.65720492 -293.88121425 512.6582631 -295.65097667 512.66479021 C-298.04539744 512.67286951 -300.43904989 512.66271591 -302.83342075 512.64774227 C-303.8787521 512.65784875 -303.8787521 512.65784875 -304.94520125 512.6681594 C-307.7994482 512.6333266 -309.63639237 512.57496208 -311.98998255 510.87842137 C-313.40771548 508.74994773 -313.46346948 507.31096745 -313.43803406 504.76742554 C-313.44576843 503.99398804 -313.45350281 503.22055054 -313.46147156 502.42367554 C-312.96148977 499.71789175 -312.19524796 498.96894287 -310.06303406 497.26742554 C-308.0853014 496.88266468 -308.0853014 496.88266468 -305.79199219 496.86869812 C-304.4858194 496.8498909 -304.4858194 496.8498909 -303.15325928 496.83070374 C-301.72474892 496.83285637 -301.72474892 496.83285637 -300.26737976 496.83505249 C-299.26232391 496.82486084 -298.25726807 496.81466919 -297.22175598 496.8041687 C-293.89405316 496.77393343 -290.56663769 496.76475655 -287.23881531 496.75570679 C-284.93380773 496.73886794 -282.62880938 496.72071879 -280.32382202 496.7013092 C-274.25262841 496.65371702 -268.18147219 496.62396722 -262.1101532 496.59786987 C-255.91663728 496.56811087 -249.72325036 496.52156458 -243.52983093 496.47640991 C-231.37429932 496.39027188 -219.21874124 496.32297329 -207.06303406 496.26742554 C-207.54393494 495.16100708 -208.02483582 494.05458862 -208.52030945 492.91464233 C-211.10797915 486.79702916 -211.19267812 481.49888934 -211.12553406 474.95492554 C-211.12102234 474.11896851 -211.11651062 473.28301147 -211.11186218 472.42172241 C-211.10013953 470.37025905 -211.08220609 468.31883281 -211.06303406 466.26742554 C-211.83792175 466.28313599 -212.61280945 466.29884644 -213.41117859 466.31503296 C-255.77000016 467.06120813 -255.77000016 467.06120813 -272.81303406 450.67367554 C-284.18451136 438.51251231 -288.21261033 424.85591796 -288.23100281 408.53305054 C-288.23433121 407.4998468 -288.23765961 406.46664307 -288.24108887 405.40213013 C-288.24614013 403.22018884 -288.24849775 401.03823986 -288.24833679 398.85629272 C-288.25051744 395.54268437 -288.26867649 392.22941232 -288.28764343 388.91586304 C-288.29057901 386.78826 -288.29256271 384.66065539 -288.29350281 382.53305054 C-288.30068832 381.55354431 -288.30787384 380.57403809 -288.3152771 379.56484985 C-288.26234563 363.37769637 -283.26261298 349.89241851 -272.03569031 338.14633179 C-265.72115456 332.10584461 -258.34574166 328.02832807 -250.06303406 325.26742554 C-249.84389343 323.98609741 -249.62475281 322.70476929 -249.39897156 321.38461304 C-246.30724587 304.16810819 -241.62038955 288.09114932 -227.56303406 276.51742554 C-224.75292706 273.8606967 -224.11416644 272.65371133 -223.59819031 268.75570679 C-223.61645759 266.13304681 -223.70934656 263.50987865 -223.87553406 260.89242554 C-224.03940406 257.72427221 -223.80489229 255.38703757 -223.12553406 252.32992554 C-222.75242252 249.56786373 -222.86028254 248.59566046 -224.34428406 246.19320679 C-226.15879057 244.10413679 -228.0798232 242.19587317 -230.06303406 240.26742554 C-231.1587085 238.96521016 -232.2430134 237.65330121 -233.31303406 236.32992554 C-235.32467163 233.84928257 -235.89304489 233.32408859 -239.06303406 232.26742554 C-239.00115906 233.48430054 -238.93928406 234.70117554 -238.87553406 235.95492554 C-238.89635994 239.87713246 -239.38869044 242.23650277 -242.06303406 245.26742554 C-245.41012308 246.94097005 -247.16078887 247.49298683 -250.81303406 246.57992554 C-253.06303406 245.26742554 -253.06303406 245.26742554 -255.06303406 242.26742554 C-255.25834656 239.78695679 -255.25834656 239.78695679 -255.18803406 237.07992554 C-255.16998718 236.17887085 -255.15194031 235.27781616 -255.13334656 234.34945679 C-255.11014343 233.66238647 -255.08694031 232.97531616 -255.06303406 232.26742554 C-255.8035199 232.2883728 -256.54400574 232.30932007 -257.30693054 232.3309021 C-260.70465687 232.41472453 -264.10216477 232.46629478 -267.50053406 232.51742554 C-268.66520203 232.55094116 -269.82987 232.58445679 -271.02983093 232.61898804 C-279.43245388 232.71366548 -285.80761912 231.77689962 -292.40287781 226.33773804 C-297.55164431 220.0685798 -299.58885203 215.0351904 -299.36772156 206.85336304 C-298.47927799 199.31298304 -294.91105474 194.5178562 -289.25834656 189.67758179 C-284.65067454 186.7178494 -280.18926026 186.01865102 -274.78959656 186.07211304 C-273.05903015 186.08178101 -273.05903015 186.08178101 -271.29350281 186.09164429 C-269.50879578 186.11678101 -269.50879578 186.11678101 -267.68803406 186.14242554 C-266.47502625 186.15144897 -265.26201843 186.16047241 -264.01225281 186.16976929 C-261.02897633 186.19325965 -258.04610811 186.22610872 -255.06303406 186.26742554 C-255.09526062 185.16269897 -255.12748718 184.05797241 -255.16069031 182.91976929 C-255.06303406 179.26742554 -255.06303406 179.26742554 -253.50053406 176.82992554 C-250.14451 174.67862806 -247.97881734 174.77795263 -244.06303406 175.26742554 C-241.68803406 176.26742554 -241.68803406 176.26742554 -240.06303406 178.26742554 C-239.43378241 180.97107459 -239.24596796 183.47768352 -239.06303406 186.26742554 C-237.41303406 186.26742554 -235.76303406 186.26742554 -234.06303406 186.26742554 C-234.14371341 181.82916955 -234.25657541 177.39230756 -234.37553406 172.95492554 C-234.39809265 171.69228882 -234.42065125 170.4296521 -234.44389343 169.12875366 C-234.47934265 167.92025757 -234.51479187 166.71176147 -234.55131531 165.46664429 C-234.57749939 164.35120239 -234.60368347 163.2357605 -234.63066101 162.08651733 C-234.84205435 159.26378398 -234.84205435 159.26378398 -236.45048523 157.36825562 C-238.05804767 156.02311068 -238.05804767 156.02311068 -240.37553406 156.45492554 C-243.08045893 157.23559994 -243.08045893 157.23559994 -245.71537781 158.29476929 C-254.26444038 160.77868595 -265.69487982 160.65349458 -273.78959656 156.71664429 C-283.54433285 150.49841892 -289.34856329 143.0064957 -292.43803406 131.89242554 C-294.47566707 120.80299974 -291.58564333 111.2053361 -285.37553406 102.07992554 C-280.06845402 95.38607081 -272.45345865 90.8487984 -264.06303406 89.26742554 C-253.52617096 88.1815656 -244.51299588 89.94344632 -235.75053406 96.01742554 C-228.32583962 102.05759703 -223.65488358 109.82902574 -222.06303406 119.26742554 C-221.40293883 127.53131007 -222.7374449 134.56007505 -225.85380554 142.20809937 C-225.92285095 142.887677 -225.99189636 143.56725464 -226.06303406 144.26742554 C-224.39398852 145.88462933 -224.39398852 145.88462933 -222.16459656 147.40805054 C-218.5471721 150.80361468 -217.53985609 153.32659026 -217.29515076 158.29708862 C-217.25861256 162.2084661 -217.31460081 166.10791486 -217.43803406 170.01742554 C-217.5026074 172.4196503 -217.55492432 174.81925449 -217.57051086 177.22232056 C-217.58092574 178.70975663 -217.61950761 180.19733847 -217.69007874 181.68313599 C-217.77575596 183.99192248 -217.77575596 183.99192248 -217.06303406 187.26742554 C-214.2770092 189.69198881 -214.2770092 189.69198881 -211.06303406 191.26742554 C-206.20945804 195.67840344 -201.70025075 200.46380696 -197.37553406 205.39242554 C-196.80963562 206.02406616 -196.24373718 206.65570679 -195.66069031 207.30648804 C-194.06303406 209.26742554 -194.06303406 209.26742554 -192.74662781 211.54086304 C-190.67734776 214.75473124 -188.86984632 216.74152861 -185.10697937 217.83676147 C-178.80640788 219.01828917 -171.70656828 219.51172164 -166.06303406 216.03549194 C-161.70727922 212.35915037 -158.39614991 207.85509415 -155.06303406 203.26742554 C-153.48279505 201.22600861 -151.86914743 199.21651295 -150.25053406 197.20492554 C-149.62533875 196.36832397 -149.00014343 195.53172241 -148.35600281 194.66976929 C-146.06303406 192.26742554 -146.06303406 192.26742554 -144.04008484 191.45639038 C-141.36579834 190.34254798 -139.92239145 189.51822659 -138.06303406 187.26742554 C-136.94043545 180.75743434 -137.40327685 174.20272262 -137.65434265 167.62533569 C-138.09922908 153.87352782 -138.09922908 153.87352782 -135.19779968 149.37631226 C-133.75157206 147.89164773 -132.26679465 146.44302168 -130.73686218 145.04476929 C-128.67027226 143.2692585 -128.67027226 143.2692585 -129.15678406 139.93148804 C-129.62084656 138.92859741 -130.08490906 137.92570679 -130.56303406 136.89242554 C-134.31426289 127.33068795 -134.1452933 118.75177221 -130.06303406 109.26742554 C-124.62596467 99.0852774 -117.16119347 93.08710304 -106.17240906 89.68148804 C-95.98206604 87.68116144 -86.30540487 89.33920465 -77.55522156 94.84555054 C-69.42188365 100.80462979 -64.40319354 107.89101054 -62.59037781 117.86898804 C-61.21729801 129.0745818 -63.69180577 139.22453947 -70.59428406 148.27523804 C-76.22490138 154.41048616 -84.41692451 159.01444366 -92.79350281 159.47055054 C-94.27904831 159.4957519 -95.76478908 159.51091399 -97.25053406 159.51742554 C-98.01776794 159.52137329 -98.78500183 159.52532104 -99.57548523 159.52938843 C-105.06393412 159.47268595 -109.03870912 158.53329757 -114.06303406 156.26742554 C-117.021487 156.67414317 -117.90114443 157.10553591 -120.06303406 159.26742554 C-120.43542632 162.08145237 -120.43542632 162.08145237 -120.47709656 165.36898804 C-120.53510437 167.18656616 -120.53510437 167.18656616 -120.59428406 169.04086304 C-120.62522156 170.31187866 -120.65615906 171.58289429 -120.68803406 172.89242554 C-120.74604187 174.81055054 -120.74604187 174.81055054 -120.80522156 176.76742554 C-120.89974455 179.93394571 -120.98529763 183.10045593 -121.06303406 186.26742554 C-119.41303406 186.26742554 -117.76303406 186.26742554 -116.06303406 186.26742554 C-115.98053406 185.00930054 -115.89803406 183.75117554 -115.81303406 182.45492554 C-115.4434358 179.63299288 -115.26605635 178.51729913 -113.43803406 176.26742554 C-110.08407693 174.85523306 -107.66457418 174.81723302 -104.06303406 175.26742554 C-101.62553406 176.82992554 -101.62553406 176.82992554 -100.06303406 179.26742554 C-100.00066776 181.59992525 -99.9949961 183.93508438 -100.06303406 186.26742554 C-99.32254822 186.24647827 -98.58206238 186.22553101 -97.81913757 186.20394897 C-94.42141124 186.12012654 -91.02390334 186.06855629 -87.62553406 186.01742554 C-86.46086609 185.98390991 -85.29619812 185.95039429 -84.09623718 185.91586304 C-75.69361424 185.8211856 -69.31844899 186.75795145 -62.72319031 192.19711304 C-57.62134538 198.40913938 -55.5004483 203.48863486 -55.68412781 211.60726929 C-56.53684934 217.5939019 -59.42486188 223.15277633 -63.93803406 227.20492554 C-71.93480343 232.48279332 -78.03557012 232.65630775 -87.50053406 232.45492554 C-88.70903015 232.44139038 -89.91752625 232.42785522 -91.16264343 232.41390991 C-94.12990488 232.37872499 -97.09623343 232.3294925 -100.06303406 232.26742554 C-100.04273132 232.95957153 -100.02242859 233.65171753 -100.00151062 234.36483765 C-99.9857196 235.26984009 -99.96992859 236.17484253 -99.95365906 237.10726929 C-99.93335632 238.00566528 -99.91305359 238.90406128 -99.89213562 239.8296814 C-100.06303406 242.26742554 -100.06303406 242.26742554 -101.81303406 244.82992554 C-104.08129484 246.27909215 -105.3831315 247.1050072 -108.06303406 247.26742554 C-110.88193665 246.5111346 -112.66677945 245.60902433 -114.87553406 243.70492554 C-116.68895433 239.98264183 -116.29775888 236.33598921 -116.06303406 232.26742554 C-120.20589839 234.4953328 -123.1265137 237.13104198 -126.31303406 240.57992554 C-127.62014343 241.96631226 -127.62014343 241.96631226 -128.95365906 243.38070679 C-131.29219597 246.58103786 -131.88016743 248.34087257 -132.06303406 252.26742554 C-131.7447635 254.26987778 -131.41087503 256.26989762 -131.06303406 258.26742554 C-131.21219563 260.53947585 -131.37963661 262.81038215 -131.56303406 265.07992554 C-131.62996943 270.22428822 -131.62996943 270.22428822 -129.37944031 274.68539429 C-127.83056377 276.11615892 -126.25011447 277.51325545 -124.64506531 278.88070679 C-115.38129801 287.44373526 -108.91833436 301.12334404 -107.52006531 313.52914429 C-107.03971679 317.66864579 -106.5222905 321.33970727 -105.06303406 325.26742554 C-102.17659976 327.40223057 -99.6576707 328.2664868 -96.21928406 329.25961304 C-90.54352779 331.07192135 -86.22489994 335.10555966 -82.06303406 339.26742554 C-81.392643 346.19479984 -81.392643 346.19479984 -83.62553406 349.76742554 C-87.20793583 351.97198047 -88.88671309 352.00838571 -93.06303406 351.26742554 C-95.79700107 349.6303693 -98.30268093 347.8378833 -100.82865906 345.89633179 C-103.05172056 344.10267852 -103.05172056 344.10267852 -106.06303406 343.26742554 C-106.05859283 344.15532776 -106.05415161 345.04322998 -106.04957581 345.95803833 C-106.0093138 354.37192289 -105.97895614 362.78577456 -105.95940971 371.19973373 C-105.94902254 375.52426044 -105.9349572 379.84870678 -105.91215515 384.17318726 C-105.89024442 388.35533679 -105.87842745 392.53740957 -105.87327957 396.71961212 C-105.86961624 398.30620784 -105.86246386 399.89279991 -105.85157394 401.47936249 C-105.73201085 419.63951003 -107.68484065 435.1413028 -120.06303406 449.26742554 C-109.91871303 448.62334166 -101.5224631 445.33185426 -94.06303406 438.26742554 C-85.4868183 428.48813342 -83.56151418 418.15223711 -83.91069031 405.43148804 C-83.93885483 403.2114381 -83.96684458 400.99138594 -83.99467468 398.77133179 C-84.05707386 395.31496023 -84.12625097 391.85882723 -84.19999695 388.40267944 C-84.2662594 385.03730686 -84.3082539 381.67226017 -84.34819031 378.30648804 C-84.37824661 377.2731131 -84.40830292 376.23973816 -84.43927002 375.17504883 C-84.51332557 368.01694339 -84.51332557 368.01694339 -82.17021179 364.11679077 C-79.90106342 362.12527195 -79.03659396 361.60619406 -76.06303406 361.70492554 C-73.11285861 361.90270266 -72.13453782 362.21792293 -69.62553406 363.95492554 C-67.1237769 367.65752612 -66.94168804 371.51068059 -66.8860321 375.89559937 C-66.87319687 376.78455399 -66.86036163 377.67350861 -66.84713745 378.58940125 C-66.83975052 379.54146957 -66.83236359 380.4935379 -66.82475281 381.47445679 C-66.81668106 382.47264938 -66.80860931 383.47084198 -66.80029297 384.49928284 C-66.78647705 386.61493204 -66.77574378 388.7306033 -66.76786804 390.84628296 C-66.75641726 392.98241842 -66.73607687 395.11852686 -66.7063446 397.25448608 C-66.44537301 416.02840345 -67.15021016 433.95944202 -80.29350281 448.78305054 C-82.16731685 450.68007998 -84.08595775 452.48039059 -86.06303406 454.26742554 C-83.46392252 463.63618659 -80.01612235 472.68187265 -76.59794617 481.77304077 C-75.8490848 483.76834502 -75.10614616 485.76577806 -74.36381531 487.76351929 C-73.9220697 488.94099731 -73.4803241 490.11847534 -73.02519226 491.33163452 C-72.06303406 494.26742554 -72.06303406 494.26742554 -72.06303406 497.26742554 C-25.86303406 497.26742554 20.33696594 497.26742554 67.93696594 497.26742554 C67.93696594 414.76742554 67.93696594 332.26742554 67.93696594 247.26742554 C45.82696594 247.26742554 23.71696594 247.26742554 0.93696594 247.26742554 C-15.44790688 244.74667587 -27.11187236 239.97720399 -37.83256531 227.15023804 C-47.47725522 213.81859072 -48.214821 199.49900712 -48.20829773 183.66659546 C-48.21129493 182.20692357 -48.21469875 180.74725247 -48.21847534 179.2875824 C-48.22726207 175.34528231 -48.22965119 171.40300396 -48.23029113 167.46069503 C-48.23100462 164.99162495 -48.23314457 162.52256031 -48.23578835 160.05349159 C-48.24502389 151.42256955 -48.24912545 142.7916629 -48.24833679 134.16073608 C-48.24773637 126.14291341 -48.25828587 118.12515808 -48.27408046 110.10735244 C-48.28719771 103.20003101 -48.29251894 96.2927315 -48.29188138 89.38539773 C-48.29162764 85.27040343 -48.29441004 81.15546907 -48.30505943 77.04048729 C-48.3148113 73.16705211 -48.31477156 69.29373333 -48.3075428 65.42029381 C-48.30650573 64.00788704 -48.30880692 62.59547275 -48.31490326 61.18307877 C-48.39012685 42.53071814 -45.41406224 27.20811752 -32.25834656 13.36898804 C-23.55684729 5.10075844 -12.00722508 0.0334784 0 0 Z M-24.06303406 28.26742554 C-32.2969352 38.14384064 -32.5094763 50.93569815 -32.45121765 63.20883179 C-32.45529323 64.66894928 -32.46064059 66.12906368 -32.46714783 67.58917236 C-32.48071023 71.5189726 -32.47556913 75.44853397 -32.46601057 79.37833786 C-32.45835601 83.51267844 -32.46547554 87.64700008 -32.47016907 91.78134155 C-32.47560988 98.72107574 -32.46847919 105.6607138 -32.45414734 112.60043335 C-32.43782404 120.59621543 -32.44311374 128.59176792 -32.45962656 136.58754444 C-32.47328938 143.48220424 -32.47513775 150.37679537 -32.46731055 157.27146435 C-32.46266028 161.37636764 -32.46193558 165.48116341 -32.47192001 169.58605957 C-32.48065766 173.44729353 -32.47444539 177.3082347 -32.45723724 181.16943741 C-32.45330836 182.57700238 -32.4543438 183.98459247 -32.46102524 185.39214706 C-32.52066546 199.24543526 -30.87182599 210.80370267 -21.24662781 221.23617554 C-13.21759595 228.89214127 -3.62611454 231.37798897 7.27232361 231.40786743 C8.52535278 231.41357758 9.77838196 231.41928772 11.06938171 231.4251709 C12.44532766 231.42641604 13.82127372 231.42754118 15.19721985 231.42855835 C16.65644963 231.43319134 18.11567821 231.43821665 19.5749054 231.44360352 C23.52977471 231.45668522 27.48462708 231.46316446 31.43951464 231.46761417 C33.91510143 231.4705524 36.39068367 231.47465866 38.86626816 231.47911835 C46.62542976 231.49278361 54.38458085 231.50245439 62.14375365 231.50632024 C71.07490021 231.51079544 80.00589331 231.52832238 88.93699324 231.55732083 C95.85699287 231.5790027 102.77694954 231.58902802 109.69698274 231.59036136 C113.82211812 231.59140495 117.94710905 231.59721693 122.0722084 231.61518097 C125.9579542 231.6317741 129.84344872 231.63376327 133.72921753 231.62504196 C135.14646457 231.62427749 136.56372575 231.62853531 137.98093796 231.63850021 C151.28395772 231.72646762 162.7188441 230.40716427 172.93696594 221.26742554 C182.40128495 211.32096198 183.38429575 201.91655221 183.34101868 188.73861694 C183.34672776 187.16747046 183.3536941 185.59632812 183.36181641 184.02519226 C183.37970474 179.77506989 183.37858747 175.52515447 183.37287402 171.27500582 C183.36977551 167.71902727 183.37588207 164.16308809 183.38191277 160.60711515 C183.39594255 152.21357829 183.39440996 143.82014324 183.38301086 135.42660522 C183.37153447 126.78553775 183.38560074 118.14478082 183.41240734 109.50375426 C183.43460518 102.06823189 183.44119243 94.63280671 183.43533093 87.19725358 C183.4319695 82.76367591 183.43432187 78.3302972 183.45158195 73.89674759 C183.46711404 69.72526912 183.46302669 65.5542485 183.44427681 61.3827877 C183.440608 59.85827786 183.44364922 58.33373361 183.4541626 56.8092556 C183.53282722 44.45218354 181.58845412 34.53687716 172.93696594 25.26742554 C161.73340636 15.01686583 149.29802727 15.11718155 134.80097961 15.12216187 C133.37924105 15.11916537 131.9575033 15.11576172 130.5357666 15.11198425 C126.69264472 15.10319002 122.84954514 15.10080808 119.00641418 15.10016847 C116.60017337 15.09945538 114.19393816 15.09731617 111.78769875 15.09467125 C103.37838509 15.08543305 94.96908724 15.08133446 86.55976868 15.0821228 C78.74473553 15.08272322 70.92977148 15.07217452 63.11475581 15.05637914 C56.38496332 15.04326617 49.65519331 15.03794048 42.92538816 15.03857821 C38.91492707 15.03883209 34.90452747 15.03604208 30.89407921 15.02540016 C27.11915251 15.01565566 23.34434527 15.0156831 19.56941414 15.02291679 C17.54029378 15.02444596 15.51117327 15.01616055 13.48207092 15.00747681 C-1.5642762 15.05870276 -13.37441568 17.09713123 -24.06303406 28.26742554 Z M-273.50053406 113.51742554 C-276.4460379 118.43464642 -277.87408443 122.53659385 -276.61381531 128.33383179 C-274.66653077 134.26573323 -271.5527628 138.48904786 -266.43803406 142.14242554 C-260.52477654 144.11351138 -254.6845173 144.10827865 -248.75053406 142.20492554 C-243.90492294 138.71157799 -239.54444196 134.19305716 -238.06303406 128.26742554 C-237.44983447 121.64487003 -239.25986847 117.1391337 -242.75053406 111.57992554 C-246.96878682 107.36167278 -251.55907498 105.06814197 -257.56303406 104.76742554 C-264.6466911 105.1697675 -269.33903944 107.78050795 -273.50053406 113.51742554 Z M-112.93803406 112.20492554 C-116.55811575 117.4221021 -117.99734653 121.86915909 -117.06303406 128.26742554 C-115.12740729 134.4452044 -111.3998672 138.68889937 -106.06303406 142.26742554 C-100.81309272 144.01740598 -94.91302243 144.40458977 -89.70365906 142.32601929 C-83.923748 138.86024555 -80.33554632 135.14244312 -78.62553406 128.51742554 C-77.51173719 121.90364061 -79.37204326 117.08574353 -82.75053406 111.45492554 C-87.0554531 107.38270482 -91.58720823 105.06673288 -97.56303406 104.76742554 C-103.78871873 105.08944371 -108.81212706 107.53613604 -112.93803406 112.20492554 Z M-281.29740906 204.59164429 C-283.33926029 207.16803871 -283.33926029 207.16803871 -283.12553406 210.39242554 C-281.89617734 213.71892017 -281.07323358 214.49422786 -278.06303406 216.26742554 C-275.45686822 216.67785015 -275.45686822 216.67785015 -272.64115906 216.56039429 C-271.61635437 216.55072632 -270.59154968 216.54105835 -269.53569031 216.53109741 C-268.47221375 216.50596069 -267.40873718 216.48082397 -266.31303406 216.45492554 C-265.23408875 216.44139038 -264.15514343 216.42785522 -263.04350281 216.41390991 C-260.38313285 216.37859527 -257.72301993 216.32478945 -255.06303406 216.26742554 C-255.06303406 211.64742554 -255.06303406 207.02742554 -255.06303406 202.26742554 C-258.79341253 202.13237563 -262.51889818 202.03327422 -266.25053406 201.95492554 C-267.30563171 201.91303101 -268.36072937 201.87113647 -269.44779968 201.82797241 C-275.79713946 201.67948973 -275.79713946 201.67948973 -281.29740906 204.59164429 Z M-239.06303406 202.26742554 C-239.06303406 206.88742554 -239.06303406 211.50742554 -239.06303406 216.26742554 C-237.47490906 216.41180054 -235.88678406 216.55617554 -234.25053406 216.70492554 C-231.27406779 216.97551338 -228.91386202 217.31714955 -226.06303406 218.26742554 C-225.38663532 219.59584828 -224.72241487 220.93047409 -224.06303406 222.26742554 C-222.38716062 224.23451632 -220.70230511 226.13454802 -218.93803406 228.01742554 C-218.47010437 228.5240271 -218.00217468 229.03062866 -217.52006531 229.55258179 C-216.37176865 230.79461695 -215.21794734 232.03154048 -214.06303406 233.26742554 C-211.07083137 231.90372254 -208.77276877 230.31834471 -206.31303406 228.14242554 C-205.22970072 227.1840922 -204.14636739 226.22575887 -203.06303406 225.26742554 C-205.04775734 222.58907308 -207.05128096 219.92552957 -209.06303406 217.26742554 C-209.5744696 216.58551147 -210.08590515 215.90359741 -210.61283875 215.20101929 C-216.70824514 206.82741992 -216.70824514 206.82741992 -225.27006531 201.59213257 C-229.96310646 200.99131793 -234.42338022 201.45397973 -239.06303406 202.26742554 Z M-142.06303406 212.26742554 C-143.35274109 213.75629272 -143.35274109 213.75629272 -144.66850281 215.27523804 C-149.39713481 220.13125686 -149.39713481 220.13125686 -151.06303406 226.26742554 C-149.30046474 228.1742811 -149.30046474 228.1742811 -147.06303406 229.95492554 C-146.32053406 230.57754272 -145.57803406 231.20015991 -144.81303406 231.84164429 C-144.23553406 232.3121521 -143.65803406 232.78265991 -143.06303406 233.26742554 C-139.01494371 231.6784555 -136.68740052 228.96116606 -133.81303406 225.76742554 C-133.35412781 225.26855835 -132.89522156 224.76969116 -132.42240906 224.25570679 C-129.83372956 221.66601894 -129.83372956 221.66601894 -129.06303406 218.26742554 C-124.77303406 217.60742554 -120.48303406 216.94742554 -116.06303406 216.26742554 C-116.06303406 211.64742554 -116.06303406 207.02742554 -116.06303406 202.26742554 C-128.37294677 200.89286953 -134.15694379 201.97175704 -142.06303406 212.26742554 Z M-100.06303406 202.26742554 C-100.06303406 206.88742554 -100.06303406 211.50742554 -100.06303406 216.26742554 C-96.33265559 216.40247544 -92.60716993 216.50157685 -88.87553406 216.57992554 C-87.8204364 216.62182007 -86.76533875 216.6637146 -85.67826843 216.70687866 C-79.32892866 216.85536134 -79.32892866 216.85536134 -73.82865906 213.94320679 C-71.78680782 211.36681237 -71.78680782 211.36681237 -72.00053406 208.14242554 C-73.22989077 204.8159309 -74.05283454 204.04062321 -77.06303406 202.26742554 C-79.66919989 201.85700092 -79.66919989 201.85700092 -82.48490906 201.97445679 C-83.50971375 201.98412476 -84.53451843 201.99379272 -85.59037781 202.00375366 C-87.18559265 202.04145874 -87.18559265 202.04145874 -88.81303406 202.07992554 C-89.89197937 202.09346069 -90.97092468 202.10699585 -92.08256531 202.12094116 C-94.74293527 202.15625581 -97.40304819 202.21006162 -100.06303406 202.26742554 Z M-201.06303406 244.26742554 C-206.57823763 251.41467915 -209.19799294 259.23085419 -208.06303406 268.26742554 C-205.79431001 277.79063246 -201.21995306 284.70447954 -193.06303406 290.14242554 C-185.8041113 294.28042949 -178.48300932 295.50493434 -170.35990906 293.65023804 C-162.31838233 291.11199078 -155.96209921 286.88651021 -151.43022156 279.66586304 C-146.93331442 270.95471149 -145.53774101 263.26977772 -148.56303406 253.76742554 C-152.17728969 244.74442372 -158.00952907 239.1582049 -166.76615906 235.14242554 C-179.35058829 230.34835726 -192.19288592 234.34898716 -201.06303406 244.26742554 Z M-218.06303406 289.26742554 C-232.98454837 304.48962527 -233.53583551 324.78392392 -233.49662781 344.74008179 C-233.50120032 346.79643423 -233.50650903 348.85278515 -233.51251221 350.90913391 C-233.52139438 355.19635266 -233.5190751 359.48338463 -233.50907898 363.77059937 C-233.49757634 369.23292744 -233.51784614 374.69461024 -233.54699612 380.15685368 C-233.5654383 384.39596061 -233.56505005 388.63491502 -233.5593586 392.87405205 C-233.55920647 394.8868545 -233.56516002 396.89966801 -233.57765007 398.91243172 C-233.6540601 413.23652819 -233.60763927 427.26540594 -223.06303406 438.26742554 C-217.80812569 443.55413476 -217.80812569 443.55413476 -211.06303406 446.26742554 C-211.05716782 445.61311554 -211.05130157 444.95880554 -211.04525757 444.28466797 C-210.98102888 437.43798628 -210.89653461 430.59176188 -210.80058289 423.74545288 C-210.76745036 421.19473319 -210.73938259 418.64394225 -210.71659851 416.09310913 C-210.68283797 412.41392825 -210.63050991 408.73539356 -210.57475281 405.05648804 C-210.56516792 403.3621312 -210.56516792 403.3621312 -210.5553894 401.63354492 C-210.35934227 390.9332912 -208.26401621 381.47465847 -201.06303406 373.26742554 C-193.89503275 366.97825964 -184.90754284 363.58209418 -175.34428406 363.98617554 C-166.45955149 365.08155353 -158.25819597 368.48604013 -152.27397156 375.30648804 C-145.71651905 384.44815828 -144.61360076 394.04604879 -144.55131531 405.05648804 C-144.53336411 406.24092499 -144.5154129 407.42536194 -144.49691772 408.64569092 C-144.44313417 412.39456724 -144.40902113 416.14331858 -144.37553406 419.89242554 C-144.34233285 422.44843239 -144.30784064 425.00442282 -144.27201843 427.56039429 C-144.18742613 433.7959592 -144.11894212 440.03154096 -144.06303406 446.26742554 C-135.33335623 442.91331107 -129.35849527 436.49953008 -125.06303406 428.26742554 C-121.01067674 417.70594666 -121.64281524 406.50398048 -121.69975281 395.39242554 C-121.70027263 393.37566122 -121.69975022 391.35889639 -121.69824219 389.34213257 C-121.69833146 385.13290761 -121.70866871 380.92387596 -121.72685242 376.71469116 C-121.74953763 371.34877427 -121.75007864 365.98313916 -121.74333477 360.6171875 C-121.7399759 356.45791162 -121.74666084 352.2986987 -121.756464 348.13943481 C-121.76028327 346.16210256 -121.76147798 344.18476327 -121.75987816 342.20742798 C-121.75708907 321.59575603 -123.85641044 305.91498087 -137.06303406 289.26742554 C-140.44637957 290.39520737 -141.04004345 291.2310244 -143.18803406 293.95492554 C-150.91529246 303.0105596 -162.07435911 308.52244025 -173.93803406 309.50570679 C-187.06728272 309.81752644 -199.16648937 306.16589395 -209.16459656 297.43148804 C-211.82849523 294.83336464 -213.99236362 292.37343119 -216.06303406 289.26742554 C-216.72303406 289.26742554 -217.38303406 289.26742554 -218.06303406 289.26742554 Z M-262.14115906 351.16195679 C-270.49283395 360.07646195 -272.20652751 370.3662531 -272.30131531 382.14242554 C-272.30938705 383.10334106 -272.3174588 384.06425659 -272.32577515 385.05429077 C-272.33958489 387.08837092 -272.35032091 389.12247393 -272.35820007 391.15658569 C-272.36967664 393.21622613 -272.39005918 395.27583785 -272.41972351 397.33529663 C-272.84995062 418.7468673 -272.84995062 418.7468673 -263.02787781 437.27133179 C-255.58230335 444.83532492 -247.11115165 449.99552967 -236.17240906 450.36508179 C-235.12826843 450.31674194 -235.12826843 450.31674194 -234.06303406 450.26742554 C-234.43815125 449.73375366 -234.81326843 449.20008179 -235.19975281 448.65023804 C-243.53581919 436.51359731 -248.14346709 425.37078766 -248.26835632 410.4961853 C-248.27825592 409.75389175 -248.28815552 409.01159821 -248.2983551 408.24681091 C-248.32969203 405.81751587 -248.35461629 403.38820135 -248.37944031 400.95883179 C-248.40003392 399.26489279 -248.42103099 397.57095865 -248.44241333 395.87702942 C-248.49738556 391.4367468 -248.54690354 386.99641972 -248.59526062 382.55606079 C-248.64565805 378.01775191 -248.70124853 373.4795069 -248.75639343 368.94125366 C-248.86367068 360.0500323 -248.96518215 351.15875527 -249.06303406 342.26742554 C-253.25603472 342.26742554 -259.18600362 348.46787711 -262.14115906 351.16195679 Z M-192.06303406 387.26742554 C-194.87483803 392.70235886 -195.4980463 396.96262079 -195.45121765 403.02914429 C-195.45647461 403.87723663 -195.46173157 404.72532898 -195.46714783 405.59912109 C-195.48028218 408.38458017 -195.47163313 411.1694613 -195.46147156 413.95492554 C-195.46349418 415.90113433 -195.46640719 417.84734238 -195.47016907 419.79354858 C-195.47458353 423.86531821 -195.46818962 427.93688992 -195.45414734 432.00863647 C-195.43705605 437.21720638 -195.44690193 442.42531245 -195.46486473 447.63386536 C-195.47572627 451.65055816 -195.47224534 455.66714173 -195.46448135 459.68383789 C-195.4624859 461.60390275 -195.46491553 463.52397765 -195.47192001 465.44403076 C-195.47957354 468.13152179 -195.46787591 470.81827075 -195.45121765 473.50570679 C-195.45729034 474.29240753 -195.46336304 475.07910828 -195.46961975 475.88964844 C-195.40230721 481.77749214 -194.36376154 486.69511998 -190.30912781 491.22836304 C-189.71229187 491.69500366 -189.11545593 492.16164429 -188.50053406 492.64242554 C-187.90112 493.12453491 -187.30170593 493.60664429 -186.68412781 494.10336304 C-182.26936113 497.27348465 -177.30471373 496.80123167 -172.06303406 496.26742554 C-166.93556544 493.75030458 -163.57767595 490.21672292 -160.9708252 485.14068604 C-159.76690287 481.33013719 -159.77603461 477.687525 -159.78837585 473.73275757 C-159.78326492 472.88495728 -159.77815399 472.03715698 -159.77288818 471.16366577 C-159.7590144 468.36745091 -159.75994742 465.57148318 -159.76225281 462.77523804 C-159.75836441 460.82617095 -159.75402944 458.8771047 -159.74926758 456.92803955 C-159.74180994 452.84436292 -159.74209317 448.76077275 -159.74736023 444.67709351 C-159.75315146 439.4527945 -159.73622996 434.22885041 -159.71301556 429.00461006 C-159.69825817 424.97934919 -159.6974093 420.95417336 -159.70052528 416.92889023 C-159.70001299 415.00323662 -159.69479254 413.07757814 -159.68471336 411.15195084 C-159.67232868 408.454696 -159.67915297 405.75812704 -159.6907196 403.06088257 C-159.68307587 402.27103973 -159.67543213 401.4811969 -159.66755676 400.66741943 C-159.72842475 394.22126786 -161.1461059 389.61033773 -165.31303406 384.51742554 C-169.07247703 381.44151765 -172.73595517 379.61648737 -177.56303406 378.89242554 C-183.7414856 379.81919327 -188.14081488 382.4736021 -192.06303406 387.26742554 Z M-104.23881531 462.88851929 C-117.26702972 466.27942441 -130.67967393 466.01556567 -144.06303406 466.26742554 C-144.08881531 467.33219116 -144.11459656 468.39695679 -144.14115906 469.49398804 C-144.19755062 470.96016877 -144.25489511 472.42631306 -144.31303406 473.89242554 C-144.32721375 474.58594116 -144.34139343 475.27945679 -144.35600281 475.99398804 C-144.70488806 483.80901762 -146.75684973 489.1957804 -149.06303406 497.26742554 C-129.26303406 497.26742554 -109.46303406 497.26742554 -89.06303406 497.26742554 C-91.54219826 488.97698325 -91.54219826 488.97698325 -94.32475281 480.82211304 C-94.72113953 479.72640991 -95.11752625 478.63070679 -95.52592468 477.50180054 C-95.93004578 476.39320679 -96.33416687 475.28461304 -96.75053406 474.14242554 C-97.16625671 472.99515991 -97.58197937 471.84789429 -98.01029968 470.66586304 C-99.02543604 467.86548689 -100.04305834 465.06604187 -101.06303406 462.26742554 C-102.27988478 462.22167669 -102.27988478 462.22167669 -104.23881531 462.88851929 Z " fill="#636363" transform="translate(313.0630340576172,-0.267425537109375)"/>
<path d="M0 0 C1.62901497 -0.01925285 1.62901497 -0.01925285 3.29093933 -0.03889465 C4.46376968 -0.04628159 5.63660004 -0.05366852 6.8449707 -0.0612793 C8.06416702 -0.06935104 9.28336334 -0.07742279 10.539505 -0.08573914 C13.12772198 -0.09957788 15.71595719 -0.11030097 18.30419922 -0.11816406 C20.92534817 -0.12961858 23.54647502 -0.14996493 26.16748047 -0.1796875 C53.73284992 -0.4921567 75.06712027 2.45869282 95.7590332 22.2590332 C110.81433636 38.01594272 115.11763471 57.02363537 114.8605957 78.1262207 C114.36128371 94.23089564 107.16855282 108.28114003 96.58325195 120.17700195 C95.97868164 120.87567383 95.37411133 121.5743457 94.7512207 122.29418945 C83.83787262 134.10358085 66.59924775 142.5305321 50.42749023 143.33374023 C46.95631769 143.37299902 43.49175469 143.35194444 40.02075195 143.30200195 C38.8212793 143.29297852 37.62180664 143.28395508 36.38598633 143.2746582 C33.45152887 143.25127607 30.51749961 143.21850475 27.58325195 143.17700195 C27.60419922 144.07418945 27.62514648 144.97137695 27.64672852 145.89575195 C27.71532811 149.25800054 27.7652549 152.6194943 27.80297852 155.98217773 C27.82296491 157.43119113 27.85016393 158.8801252 27.88500977 160.32885742 C28.23987883 175.47341651 28.23987883 175.47341651 23.58325195 182.17700195 C21.6184082 184.20043945 21.6184082 184.20043945 19.64575195 185.55200195 C18.6731543 186.24422852 18.6731543 186.24422852 17.6809082 186.95043945 C11.71687592 190.43778794 6.52331937 190.54304035 -0.22924805 190.55200195 C-1.18895508 190.57649414 -2.14866211 190.60098633 -3.13745117 190.6262207 C-10.96935815 190.65829677 -16.12042746 188.87399153 -22.16674805 183.92700195 C-28.82340922 175.79108274 -28.99750421 168.75101228 -28.93432617 158.56616211 C-28.93975367 157.09353445 -28.94687984 155.62091222 -28.95556641 154.14830017 C-28.97373157 150.16668788 -28.96675982 146.18549231 -28.95405006 142.20387316 C-28.94388309 138.0245255 -28.95332632 133.84521218 -28.95959473 129.66586304 C-28.96686202 122.6467248 -28.9573093 115.62775518 -28.93823242 108.60864258 C-28.91648234 100.51287029 -28.92350505 92.4175013 -28.94553804 84.32173884 C-28.96373859 77.35329113 -28.9662272 70.38496427 -28.95578337 63.41650045 C-28.94957174 59.26238809 -28.94864779 55.10846473 -28.96192932 50.95436478 C-28.97355467 47.04550289 -28.96534155 43.13715638 -28.94235229 39.22834969 C-28.93709988 37.80060109 -28.93851899 36.37280851 -28.94740295 34.9450779 C-29.0048842 24.76197164 -28.22009462 16.09732322 -21.16674805 8.30200195 C-15.01251857 2.69040346 -8.26573453 0.08543271 0 0 Z M-9.41674805 20.17700195 C-12.15320113 23.9801263 -12.79374537 26.59826642 -12.8044281 31.25611877 C-12.81433273 32.47726379 -12.82423737 33.69840881 -12.83444214 34.95655823 C-12.83020447 36.30160624 -12.82564665 37.64665326 -12.82080078 38.99169922 C-12.82650574 40.41450537 -12.83347049 41.83730695 -12.84159851 43.26010132 C-12.8595283 47.11745492 -12.85836231 50.97458103 -12.85265613 54.83196378 C-12.84956496 58.0528397 -12.85565569 61.27367189 -12.86169487 64.49454159 C-12.87573698 72.0914502 -12.87418057 79.68824634 -12.86279297 87.28515625 C-12.85130294 95.12365569 -12.8654028 102.96181334 -12.89218944 110.80026776 C-12.91433175 117.53161008 -12.92098743 124.26284499 -12.91511303 130.99422115 C-12.9117398 135.01406381 -12.91418303 139.03368718 -12.93136406 143.05349922 C-12.94680865 146.83178504 -12.94290595 150.60956325 -12.92405891 154.38782883 C-12.92036652 155.77456374 -12.92350052 157.16133607 -12.9339447 158.54803658 C-12.947109 160.44027569 -12.93322723 162.33264551 -12.91795349 164.22486877 C-12.91774421 165.28396737 -12.91753492 166.34306597 -12.9173193 167.43425846 C-12.28524452 170.89753964 -11.20163069 172.0770799 -8.41674805 174.17700195 C-5.5860952 174.57801111 -3.23328146 174.73823094 -0.41674805 174.67700195 C0.29481445 174.6924707 1.00637695 174.70793945 1.73950195 174.72387695 C4.94556551 174.69995111 7.12400789 174.49546478 9.78613281 172.64941406 C12.26963714 169.23269782 12.13144586 166.15260165 12.0871582 162.0871582 C12.09657944 161.30561874 12.10600067 160.52407928 12.1157074 159.71885681 C12.14434126 157.2254711 12.14743661 154.73303871 12.14575195 152.23950195 C12.14936424 149.74967491 12.15895319 147.26054154 12.18650818 144.77085876 C12.20324234 143.22387924 12.2062146 141.67667169 12.1934967 140.12965393 C12.23704512 135.65385198 12.72936885 132.6898277 15.58325195 129.17700195 C19.0898624 128.0081318 21.90295489 128.03364873 25.6027832 128.0012207 C27.03313572 127.97797684 28.46347423 127.95385782 29.89379883 127.92895508 C32.12687938 127.89424147 34.35945935 127.86472377 36.59277344 127.85107422 C54.9890715 127.7169152 69.55049013 123.4613857 83.26293945 110.5871582 C95.31650634 98.06687072 99.12068226 83.92139786 98.8605957 67.0559082 C98.27478 51.99665586 90.35748933 39.28742375 79.58325195 29.17700195 C66.88917185 19.2458647 53.36308079 16.04357114 37.61450195 15.9387207 C36.4608313 15.93064896 35.30716064 15.92257721 34.11853027 15.91426086 C31.68442267 15.90046204 29.25029605 15.88972121 26.81616211 15.88183594 C24.32749767 15.87027968 21.83885871 15.84977107 19.3503418 15.8203125 C15.75072419 15.77771488 12.15184004 15.76148073 8.55200195 15.7512207 C6.88772156 15.72495857 6.88772156 15.72495857 5.18981934 15.69816589 C-0.8125947 15.71503019 -4.82460003 15.87393131 -9.41674805 20.17700195 Z " fill="#636363" transform="translate(355.416748046875,27.822998046875)"/>
<path d="M0 0 C0.75410156 -0.00807175 1.50820313 -0.01614349 2.28515625 -0.02445984 C3.88913665 -0.03832469 5.49314685 -0.04903605 7.09716797 -0.05688477 C9.52500755 -0.07395514 11.95143383 -0.11779798 14.37890625 -0.16210938 C26.02753745 -0.2803031 33.98084119 1.13293331 42.7734375 9.3125 C49.24956933 16.28353273 52.0902837 23.81114578 51.87109375 33.30078125 C50.95902719 41.98273132 47.38180767 49.69078052 40.5625 55.23828125 C30.60340647 61.21634788 23.19649397 62.46720709 11.71801758 62.53344727 C10.32435979 62.54498928 8.93074698 62.56547658 7.53735352 62.5949707 C5.51610843 62.63771174 3.49431242 62.65122345 1.47265625 62.6640625 C0.26746338 62.67864502 -0.93772949 62.69322754 -2.17944336 62.70825195 C-6.10342106 62.14222295 -7.73788642 61.11200306 -10.4375 58.23828125 C-11.09692383 56.13305664 -11.09692383 56.13305664 -11.14453125 53.8359375 C-11.17385742 52.95921387 -11.20318359 52.08249023 -11.23339844 51.17919922 C-11.23887695 50.22932129 -11.24435547 49.27944336 -11.25 48.30078125 C-11.27223633 47.30965332 -11.29447266 46.31852539 -11.31738281 45.29736328 C-11.35949294 43.12601784 -11.38865418 40.95439329 -11.40673828 38.78271484 C-11.43954436 35.00272547 -11.51473221 31.22468282 -11.58984375 27.4453125 C-11.62523842 24.83467241 -11.65783096 22.22399269 -11.6875 19.61328125 C-11.70917236 18.36297119 -11.73084473 17.11266113 -11.75317383 15.82446289 C-11.75728271 14.64875732 -11.7613916 13.47305176 -11.765625 12.26171875 C-11.7749707 11.21935059 -11.78431641 10.17698242 -11.79394531 9.10302734 C-10.78740545 1.01348025 -7.12454437 0.07187848 0 0 Z M4.5625 15.23828125 C4.53341367 19.46743342 4.51567208 23.69655977 4.5 27.92578125 C4.49162109 29.12396484 4.48324219 30.32214844 4.47460938 31.55664062 C4.47138672 32.71357422 4.46816406 33.87050781 4.46484375 35.0625 C4.45960693 36.12557373 4.45437012 37.18864746 4.44897461 38.28393555 C4.55533156 41.05173215 4.93355212 43.54621022 5.5625 46.23828125 C18.90362107 47.42883426 18.90362107 47.42883426 30.5625 42.23828125 C33.45642612 39.13414257 35.30994213 36.22461474 35.8515625 31.96484375 C35.62527192 26.86460215 33.97773491 23.30555477 30.40234375 19.6796875 C22.96379817 13.85203714 13.50319642 14.92023276 4.5625 15.23828125 Z " fill="#636363" transform="translate(378.4375,68.76171875)"/>
<path d="M0 0 C4.63781003 3.47237068 7.45691376 8.26136629 9.26953125 13.69921875 C9.85599069 20.04876995 9.69117553 26.16488136 6.26953125 31.69921875 C1.65712259 37.09118944 -3.68780729 40.56443775 -10.73046875 41.69921875 C-18.48098967 42.2004354 -23.92384807 39.73399824 -29.73046875 34.69921875 C-34.16767231 29.80691739 -35.28994399 24.15107103 -35.73046875 17.69921875 C-35.15507442 10.71057516 -31.8269268 5.70452645 -26.85546875 0.94921875 C-18.42758503 -5.11885753 -8.94345049 -4.91537673 0 0 Z M-18.73046875 15.69921875 C-19.81615378 17.54189743 -19.81615378 17.54189743 -19.73046875 19.69921875 C-18.39658359 22.88572219 -17.53921497 24.33741123 -14.35546875 25.76171875 C-11.56817936 25.90526621 -11.56817936 25.90526621 -8.91796875 24.07421875 C-6.55926056 21.91010373 -6.55926056 21.91010373 -6.16796875 19.19921875 C-6.90530163 15.92218374 -8.06184381 14.70068745 -10.73046875 12.69921875 C-14.979416 12.69921875 -15.80351644 12.87319583 -18.73046875 15.69921875 Z " fill="#636363" transform="translate(116.73046875,319.30078125)"/>
<path d="M0 0 C4.63575874 3.04027772 7.82198292 7.3010433 10.04296875 12.33984375 C11.44655538 19.24081136 11.25545499 25.24130368 7.8515625 31.546875 C3.93156355 37.30403967 -0.4488737 40.18472865 -7.15234375 41.90234375 C-13.91228988 43.03292708 -19.53180744 41.65919251 -25.1953125 37.82421875 C-30.41192309 33.58989498 -33.37363883 29.64236282 -34.30078125 22.8046875 C-34.69889475 15.72822002 -33.2807713 10.02531342 -28.95703125 4.33984375 C-20.27843263 -3.13803807 -10.47510036 -5.20974018 0 0 Z M-16.20703125 15.02734375 C-18.10865301 17.20885363 -18.10865301 17.20885363 -18.51953125 19.83984375 C-18.11937542 22.54373028 -18.11937542 22.54373028 -15.83203125 24.77734375 C-13.00793625 26.70622598 -13.00793625 26.70622598 -9.70703125 25.71484375 C-6.85286458 24.63151042 -6.85286458 24.63151042 -5.95703125 22.33984375 C-5.54027605 19.38195806 -5.54027605 19.38195806 -5.95703125 16.33984375 C-7.61076621 14.34950734 -7.61076621 14.34950734 -9.95703125 13.33984375 C-13.89244792 12.93984375 -13.89244792 12.93984375 -16.20703125 15.02734375 Z " fill="#636363" transform="translate(178.95703125,318.66015625)"/>
<path d="M0 0 C0.87115448 -0.00960754 1.74230896 -0.01921509 2.63986206 -0.02911377 C4.06167282 -0.03548859 4.06167282 -0.03548859 5.51220703 -0.04199219 C6.96435104 -0.0505423 6.96435104 -0.0505423 8.4458313 -0.05926514 C10.49870709 -0.06873101 12.55159818 -0.07525539 14.60449219 -0.07910156 C17.74978088 -0.08880475 20.89441571 -0.1198123 24.03955078 -0.15136719 C26.0304323 -0.1578971 28.02131851 -0.16314762 30.01220703 -0.16699219 C30.95603241 -0.17933899 31.89985779 -0.19168579 32.87228394 -0.20440674 C33.74974274 -0.20140564 34.62720154 -0.19840454 35.53125 -0.1953125 C36.30322723 -0.19895813 37.07520447 -0.20260376 37.87057495 -0.20635986 C40.43388161 0.25895118 41.31544246 1.12701974 42.89501953 3.16113281 C43.29345703 5.31738281 43.29345703 5.31738281 43.27001953 7.66113281 C43.28162109 8.82128906 43.28162109 8.82128906 43.29345703 10.00488281 C42.79319371 12.71219018 42.03107576 13.46107729 39.89501953 15.16113281 C37.8840332 15.54208374 37.8840332 15.54208374 35.56298828 15.54931641 C34.69198486 15.55877289 33.82098145 15.56822937 32.92358398 15.57797241 C31.98603271 15.57189972 31.04848145 15.56582703 30.08251953 15.55957031 C28.63462036 15.56387558 28.63462036 15.56387558 27.1574707 15.56826782 C25.11653049 15.57030942 23.07557076 15.56477288 21.03466797 15.55224609 C17.90694513 15.53619402 14.78051458 15.55209177 11.65283203 15.57128906 C9.67105834 15.56930665 7.68928545 15.56546301 5.70751953 15.55957031 C4.76996826 15.56564301 3.83241699 15.5717157 2.86645508 15.57797241 C1.99545166 15.56851593 1.12444824 15.55905945 0.22705078 15.54931641 C-0.53889404 15.54692963 -1.30483887 15.54454285 -2.09399414 15.54208374 C-4.65788115 15.05639415 -5.5217136 14.20249789 -7.10498047 12.16113281 C-8.2280118 8.47117272 -8.44236894 6.85124559 -6.72998047 3.34863281 C-4.35985167 0.15807482 -3.92694644 0.03480489 0 0 Z " fill="#646464" transform="translate(469.10498046875,496.8388671875)"/>
</svg>
