<?xml version="1.0" encoding="UTF-8"?>
<svg version="1.1" xmlns="http://www.w3.org/2000/svg" width="512" height="512">
<path d="M0 0 C0.71897461 -0.01853027 1.43794922 -0.03706055 2.17871094 -0.05615234 C5.58396214 -0.01482255 7.50189561 0.27087371 10.26953125 2.3125 C12.52960567 5.51665614 12.35865122 7.67694145 11.8125 11.5 C10.14699551 13.90966606 8.75472833 15.23778967 5.89648438 16.03320312 C3.53964252 16.43121974 1.187188 16.72844821 -1.1875 17 C-18.4822932 19.387293 -35.43970426 25.72689388 -46.42724609 40.12451172 C-57.5380291 55.76531093 -63.47287149 72.60869592 -60.68359375 92.00390625 C-57.30430611 109.59551218 -48.95888288 124.90400378 -34.3203125 135.59375 C-19.44491738 145.34095267 -1.82084746 150.13096812 15.92578125 146.81640625 C32.63338396 143.18857235 47.78206032 134.63106031 57.8125 120.5 C68.00481889 103.37969032 72.33104096 85.90303031 67.8203125 66.2578125 C65.1847602 56.43067564 60.99826381 48.53571186 54.8125 40.5 C54.07 39.46875 53.3275 38.4375 52.5625 37.375 C47.7706662 32.36535557 42.01496991 28.39154384 36.0546875 24.87109375 C33.41766473 23.25855892 32.638218 22.4725848 31.8125 19.5 C31.98892395 16.14794489 32.24980713 13.52608699 33.875 10.5625 C37.24242621 8.71584692 40.17010499 8.68121368 43.8125 9.5 C62.05709207 18.11166827 74.38345028 35.27446711 81.8125 53.5 C84.54313874 61.22169097 86.45941453 69.30227641 86.8125 77.5 C86.85246094 78.25023438 86.89242187 79.00046875 86.93359375 79.7734375 C87.54851115 102.12749355 79.37428087 121.84584673 64.8125 138.5 C63.92498047 139.53060547 63.92498047 139.53060547 63.01953125 140.58203125 C50.02391177 154.6306007 31.38708481 161.84648788 12.8125 164.5 C12.8125 243.7 12.8125 322.9 12.8125 404.5 C16.1125 405.82 19.4125 407.14 22.8125 408.5 C30.2742207 413.90704399 34.90286432 420.37076999 36.8125 429.5 C36.89678482 431.08773306 36.93029948 432.67859182 36.92602539 434.26855469 C36.92591209 435.67956451 36.92591209 435.67956451 36.92579651 437.11907959 C36.92063522 438.12650208 36.91547394 439.13392456 36.91015625 440.171875 C36.9087413 441.20942932 36.90732635 442.24698364 36.90586853 443.315979 C36.90027447 446.62734876 36.88772303 449.93865071 36.875 453.25 C36.86998423 455.49609277 36.86542146 457.74218661 36.86132812 459.98828125 C36.85115822 465.49223459 36.83158152 470.99604146 36.8125 476.5 C46.7125 476.5 56.6125 476.5 66.8125 476.5 C66.78436878 469.66667203 66.7411933 462.83682368 66.65991211 456.00439453 C66.63678077 453.68252547 66.62234788 451.36055221 66.61694336 449.03857422 C66.60761866 445.69172594 66.56654804 442.3465057 66.51953125 439 C66.52543022 437.45421265 66.52543022 437.45421265 66.53144836 435.87719727 C66.41389035 430.00972355 65.7250561 426.21082125 62.07670593 421.52929688 C58.8701814 416.38220014 58.55665896 410.82645742 58.52197266 404.90673828 C58.51525543 404.18199814 58.50853821 403.457258 58.50161743 402.71055603 C58.48272996 400.33040359 58.47871651 397.9505351 58.4765625 395.5703125 C58.47012303 393.89468272 58.46339385 392.21905403 58.45639038 390.54342651 C58.44443691 387.03152875 58.44070705 383.51972915 58.44189453 380.0078125 C58.44209643 375.55567774 58.41492066 371.10419061 58.38035011 366.65220833 C58.35785384 363.18756354 58.35406402 359.72306827 58.35511398 356.258358 C58.35278714 354.62006294 58.34413291 352.98176183 58.32844925 351.34354019 C58.18660969 334.98258371 61.40871693 320.59088223 67.8125 305.5 C66.66652344 305.47421875 65.52054688 305.4484375 64.33984375 305.421875 C62.8098597 305.36555657 61.27991325 305.3082101 59.75 305.25 C58.99783203 305.23582031 58.24566406 305.22164063 57.47070312 305.20703125 C51.1443779 304.93316436 46.6260463 303.3766303 42.0703125 298.71875 C41.69648437 298.1515625 41.32265625 297.584375 40.9375 297 C40.54820313 296.4328125 40.15890625 295.865625 39.7578125 295.28125 C36.3182576 288.80010522 36.62528129 278.82947691 38.53125 271.87890625 C40.47555133 267.73158607 42.91264931 264.99990429 46.8125 262.5 C51.73652511 260.8586583 56.83114291 261.19660717 61.98950195 261.14990234 C63.97580491 261.12529968 65.96162783 261.0687039 67.94726562 261.01171875 C75.44685866 260.94315975 81.17375439 261.17593126 86.8125 266.5 C89.27657328 269.67735765 91.03942122 272.91529725 92.8125 276.5 C101.08083556 264.88914581 106.5374106 251.83843893 112.21069336 238.83447266 C118.40819262 224.65476846 123.6960949 213.67958895 138.45703125 207.34765625 C140.8125 206.5 140.8125 206.5 142.8125 206.5 C142.77125 205.4275 142.73 204.355 142.6875 203.25 C142.85787522 198.13874346 142.85787522 198.13874346 144.8125 195.5 C147.48883026 193.4184098 148.93003668 193.50412409 152.375 193.625 C155.8125 194.5 155.8125 194.5 157.75 196.125 C158.8125 198.5 158.8125 198.5 158.8125 205.5 C207.9825 205.5 257.1525 205.5 307.8125 205.5 C308.1425 202.86 308.4725 200.22 308.8125 197.5 C310.47068738 194.79453638 311.62935723 194.5557391 314.6875 193.625 C318.40092999 193.4764628 319.87146353 194.31523005 322.8125 196.5 C323.8125 197.5 323.8125 197.5 323.91015625 199.34765625 C323.87760417 201.3984375 323.84505208 203.44921875 323.8125 205.5 C324.4415625 205.59796875 325.070625 205.6959375 325.71875 205.796875 C335.13469774 207.44182973 343.64686766 210.72928481 349.421875 218.72949219 C353.98117976 225.7697489 357.46757363 232.98079066 360.75 240.6875 C361.78904111 243.07276002 362.83070152 245.45688079 363.875 247.83984375 C364.37515625 248.98179199 364.8753125 250.12374023 365.390625 251.30029297 C367.25508437 255.49596682 369.2058972 259.63915482 371.25 263.75 C371.82621094 264.91015625 372.40242188 266.0703125 372.99609375 267.265625 C375.03831847 270.90210257 377.33312292 274.1488008 379.8125 277.5 C380.1425 276.324375 380.4725 275.14875 380.8125 273.9375 C382.73851479 268.73355621 386.32624975 265.62047648 390.8125 262.5 C395.76672837 260.84859054 400.91019665 261.2357557 406.09936523 261.20483398 C408.10749192 261.18764982 410.11533174 261.14374576 412.12304688 261.09960938 C413.39857422 261.09123047 414.67410156 261.08285156 415.98828125 261.07421875 C417.15270752 261.05963623 418.31713379 261.04505371 419.5168457 261.0300293 C424.64810102 261.7617625 427.71451831 264.28331758 431.125 268.0625 C434.24254676 272.5656231 434.06124906 276.96292208 434.125 282.25 C434.15400391 283.03632813 434.18300781 283.82265625 434.21289062 284.6328125 C434.28366406 291.18752137 432.73125113 295.31720537 428.21484375 300.2421875 C424.3983455 303.19361281 421.58438076 304.56463785 416.80078125 304.81640625 C416.04345703 304.85830078 415.28613281 304.90019531 414.50585938 304.94335938 C413.72017578 304.98267578 412.93449219 305.02199219 412.125 305.0625 C411.32771484 305.10568359 410.53042969 305.14886719 409.70898438 305.19335938 C407.74368553 305.29927368 405.77811504 305.40012551 403.8125 305.5 C404.12703125 306.2528125 404.4415625 307.005625 404.765625 307.78125 C410.88829443 322.97727291 413.43535952 336.71255846 413.34375 352.9921875 C413.34645436 354.71656512 413.35034455 356.44094124 413.35534668 358.16531372 C413.36118799 361.74707826 413.35284844 365.32843923 413.33398438 368.91015625 C413.31109333 373.47599989 413.32441567 378.04090786 413.34827423 382.60671806 C413.36279024 386.15517114 413.35810156 389.7034054 413.34776306 393.25186539 C413.34511716 394.935 413.34828927 396.61815523 413.35768127 398.30126572 C413.40361411 408.8322603 412.81528429 417.49582356 406.8125 426.5 C406.48527829 428.82160672 406.48527829 428.82160672 406.49365234 431.43041992 C406.46384781 432.93163643 406.46384781 432.93163643 406.43344116 434.46318054 C406.42188995 435.54138565 406.41033875 436.61959076 406.3984375 437.73046875 C406.36938828 439.38880486 406.36938828 439.38880486 406.3397522 441.0806427 C406.27991164 444.61618301 406.2335527 448.15175579 406.1875 451.6875 C406.14932438 454.08269659 406.1102729 456.4778794 406.0703125 458.87304688 C405.97420642 464.74857564 405.88917196 470.62418725 405.8125 476.5 C406.8183313 476.4685791 406.8183313 476.4685791 407.84448242 476.43652344 C410.8961678 476.35313973 413.94761317 476.30126984 417 476.25 C418.05509766 476.21648437 419.11019531 476.18296875 420.19726562 476.1484375 C428.04999049 476.04934949 428.04999049 476.04934949 432.01147461 478.390625 C433.95024264 480.66132526 434.4727628 481.55561448 434.375 484.5 C434.37628906 485.16 434.37757813 485.82 434.37890625 486.5 C433.52735423 489.50685955 432.2968094 490.59530388 429.8125 492.5 C426.90179519 492.89191054 424.37032986 493.03755941 421.46032715 493.00336456 C420.60596982 493.00917833 419.75161249 493.01499209 418.87136555 493.02098203 C415.98883135 493.03565972 413.10713833 493.02166066 410.22460938 493.00793457 C408.14510409 493.01254041 406.06560205 493.01889118 403.98610687 493.02684355 C398.25638556 493.04360347 392.52692937 493.03526025 386.79720688 493.02289867 C380.6239819 493.01387771 374.45080369 493.0278032 368.27758789 493.03881836 C356.87811315 493.05560886 345.47874697 493.05410901 334.07927489 493.04317249 C323.54917871 493.03311935 313.01911367 493.03047921 302.48901367 493.03526306 C301.79115035 493.0355686 301.09328703 493.03587414 300.37427634 493.03618894 C297.5415851 493.03743425 294.70889388 493.03870784 291.87620267 493.040028 C265.2909206 493.05227032 238.70569263 493.04116014 212.12041891 493.01964041 C188.48910445 493.00065727 164.8578762 493.00235576 141.2265625 493.02148438 C114.69062222 493.04289226 88.15472976 493.05140218 61.61878204 493.03903532 C58.79118348 493.03775241 55.96358491 493.03650105 53.13598633 493.03526306 C52.43973418 493.03494675 51.74348203 493.03463044 51.02613133 493.03430455 C40.50137589 493.02975025 29.97665496 493.03508395 19.4519043 493.04518127 C7.4875269 493.05660237 -4.47674863 493.0534069 -16.44112206 493.0320583 C-22.54990802 493.02151871 -28.65851865 493.01747552 -34.76730347 493.03065491 C-40.35328634 493.04252444 -45.93893043 493.03610639 -51.52488232 493.0147447 C-53.55173499 493.01025548 -55.57861596 493.01259643 -57.60545063 493.02224785 C-60.34915651 493.03431639 -63.09168405 493.02203461 -65.83532715 493.00336456 C-67.03073514 493.01741156 -67.03073514 493.01741156 -68.25029278 493.03174233 C-71.82204731 492.9827726 -73.79824088 492.79844122 -76.67411041 490.59353971 C-78.30400767 488.33882971 -78.75537642 487.25272697 -78.75 484.5 C-78.77191406 483.84 -78.79382813 483.18 -78.81640625 482.5 C-77.78195067 479.21030275 -76.11349078 478.28907641 -73.1875 476.5 C-69.73859518 475.9495547 -66.34034093 476.03431537 -62.85546875 476.109375 C-61.86372147 476.11503479 -60.87197418 476.12069458 -59.85017395 476.12652588 C-56.69128586 476.14886656 -53.53354364 476.19905962 -50.375 476.25 C-48.22983412 476.27006794 -46.08465041 476.2883182 -43.93945312 476.3046875 C-38.68841297 476.34872355 -33.43803836 476.4156125 -28.1875 476.5 C-28.20082367 475.63128769 -28.20082367 475.63128769 -28.2144165 474.74502563 C-28.30341527 468.67728621 -28.36345055 462.60973441 -28.40722656 456.54150391 C-28.42725089 454.28166157 -28.45447862 452.02187045 -28.48925781 449.76220703 C-28.53818078 446.50019638 -28.56056132 443.23887513 -28.578125 439.9765625 C-28.59877014 438.97823395 -28.61941528 437.9799054 -28.64068604 436.95132446 C-28.64373947 427.24660545 -25.89176122 419.3849963 -19.1875 412.26171875 C-14.65140711 408.2660588 -10.28801886 405.5 -4.1875 405.5 C-4.5175 325.97 -4.8475 246.44 -5.1875 164.5 C-11.1275 163.18 -17.0675 161.86 -23.1875 160.5 C-26.27919673 159.31984952 -28.81218222 158.3176304 -31.625 156.75 C-32.2742041 156.40565918 -32.9234082 156.06131836 -33.59228516 155.70654297 C-53.22892092 145.02611704 -68.62795085 128.04740348 -75.1171875 106.3984375 C-81.01895987 83.74687307 -78.87410717 60.81268606 -67.40625 40.31640625 C-54.61316061 20.15680432 -36.51431757 6.97336897 -13.18359375 1.1953125 C-8.80323027 0.335728 -4.45733169 0.0717074 0 0 Z M137.66149902 226.20610046 C133.5379508 231.17615239 130.73545637 236.14845289 128.21875 242.08203125 C127.82353149 242.97685715 127.42831299 243.87168304 127.02111816 244.79362488 C125.77115089 247.62745501 124.54030168 250.46900424 123.3125 253.3125 C110.7253732 282.29960617 110.7253732 282.29960617 101.25 291.375 C100.30511719 292.29023438 99.36023438 293.20546875 98.38671875 294.1484375 C96.48639484 295.88439349 94.61920183 297.46712304 92.5625 299 C81.34511276 309.19762476 75.58504174 326.65384744 74.53253174 341.43063354 C74.38373823 345.79608666 74.39436739 350.15995866 74.4140625 354.52734375 C74.41203586 356.13106925 74.40911954 357.73479385 74.40536499 359.33851624 C74.40097827 362.67246417 74.40725935 366.00616857 74.42138672 369.34008789 C74.43857465 373.60249145 74.42855419 377.86433212 74.41066933 382.12671566 C74.39981509 385.42707039 74.40328364 388.72729205 74.4110527 392.02765083 C74.41304514 393.59965648 74.41062926 395.17167444 74.40361404 396.7436657 C74.39596124 398.93742749 74.40765156 401.13028026 74.42431641 403.32397461 C74.42670319 404.56827744 74.42908997 405.81258026 74.43154907 407.09458923 C74.9229291 411.48715196 76.32016601 414.86387342 79.3125 418.14453125 C84.20961507 421.9576495 87.32878815 422.62924762 93.44848633 422.72460938 C94.11893982 422.73599945 94.78939331 422.74738953 95.48016357 422.75912476 C102.52094563 422.87016621 109.56277457 422.917288 116.60424805 422.95996094 C119.93225508 422.982125 123.25912098 423.02372512 126.58666992 423.08300781 C130.62330298 423.15476442 134.65887364 423.19089111 138.69611168 423.20307922 C140.22256086 423.21337467 141.74898491 423.23554309 143.27506447 423.27067566 C151.10677593 423.44148166 157.17330035 423.25513385 164.05737305 419.01318359 C174.61628937 413.13999053 186.85648926 414.48053515 198.61789703 414.55972147 C202.12404514 414.57766391 205.63007618 414.56094792 209.13623047 414.55001831 C215.02009439 414.53734584 220.90333976 414.55389885 226.78710938 414.58740234 C233.55295073 414.62548795 240.31731471 414.61314351 247.08312035 414.57461751 C252.93168305 414.54266996 258.77980558 414.53845649 264.62842751 414.55668819 C268.10423556 414.56750315 271.57935332 414.56933412 275.05511475 414.54593277 C300.09394822 414.39974612 300.09394822 414.39974612 310.67773438 420.92105103 C316.85370434 424.03182313 323.74094038 423.41793761 330.5 423.2890625 C332.0574474 423.28360202 333.61490632 423.28083819 335.17236328 423.28060913 C338.40667433 423.27295027 341.63959821 423.24234408 344.87353516 423.19287109 C349.00709319 423.13019332 353.13934265 423.11201527 357.27333069 423.10907936 C360.47683347 423.10437201 363.68006169 423.08357325 366.88345337 423.05720139 C368.40798734 423.04519931 369.93255086 423.03646407 371.4571228 423.031147 C373.58390411 423.01987863 375.70946776 422.98868804 377.8359375 422.95166016 C379.64457275 422.92998276 379.64457275 422.92998276 381.48974609 422.90786743 C385.83133548 422.37493813 389.2411352 420.96685597 392.45703125 417.96484375 C396.2402019 413.01762059 396.94167834 410.85755252 396.98950195 404.6262207 C396.99607315 403.91850525 397.00264435 403.21078979 397.00941467 402.48162842 C397.02918283 400.12967824 397.04082768 397.77779251 397.05078125 395.42578125 C397.05485678 394.61889547 397.0589323 393.8120097 397.06313133 392.98067284 C397.08402253 388.69699738 397.09830219 384.4133541 397.10766602 380.12963867 C397.11864292 375.74109327 397.15293081 371.3530673 397.19283772 366.96470356 C397.21923971 363.56277146 397.22737926 360.16095761 397.23094749 356.75893211 C397.23576528 355.14409121 397.24723858 353.52925381 397.26598549 351.91451454 C397.47326202 332.85179521 393.39835064 313.70145949 379.8125 299.5 C378.71715038 298.48390135 377.61231537 297.4779665 376.5 296.48046875 C375.90372803 295.94478271 375.30745605 295.40909668 374.69311523 294.85717773 C373.53646782 293.83472441 372.36535605 292.82823833 371.17602539 291.84399414 C359.92493208 282.03778826 354.25776079 267.53419961 348.5625 254.125 C347.53809256 251.73132069 346.50997324 249.33941331 345.47442627 246.95053101 C344.83855199 245.48201463 344.20904238 244.01071673 343.58758545 242.53604126 C339.99913053 234.21014507 335.98564564 226.58619718 327.57919025 222.38348103 C324.12585217 221.28073428 321.17244327 221.24507431 317.54545593 221.23930359 C316.82403957 221.23547804 316.1026232 221.23165249 315.35934573 221.22771102 C312.94741565 221.21741084 310.53572495 221.22136748 308.1237793 221.2253418 C306.39219951 221.22099361 304.66062164 221.2158101 302.92904663 221.20985413 C298.22852057 221.19646276 293.52807491 221.19588573 288.82753348 221.19841743 C284.90121146 221.19948728 280.97490569 221.19460326 277.04858714 221.189812 C267.78311148 221.17871582 258.51767636 221.1782797 249.25219727 221.18432617 C239.70064855 221.19036364 230.14924723 221.17806097 220.59772366 221.1567561 C212.39203602 221.13912759 204.18639523 221.13314082 195.98068935 221.13639385 C191.08214964 221.13820523 186.18371502 221.13558512 181.28519249 221.12167931 C176.67636745 221.10908568 172.06777165 221.1110596 167.45895004 221.12409019 C165.77073272 221.12645238 164.08249919 221.12373415 162.39430046 221.11546707 C149.26124712 220.74043056 149.26124712 220.74043056 137.66149902 226.20610046 Z M53.8125 277.5 C53.73159029 279.12418745 53.67335005 280.74951745 53.625 282.375 C53.59019531 283.27992188 53.55539063 284.18484375 53.51953125 285.1171875 C53.61621094 285.90351563 53.71289062 286.68984375 53.8125 287.5 C56.96564785 289.60209857 57.67353081 289.7434761 61.26171875 289.6953125 C62.10927734 289.68886719 62.95683594 289.68242187 63.83007812 289.67578125 C64.71115234 289.65902344 65.59222656 289.64226562 66.5 289.625 C67.39267578 289.61597656 68.28535156 289.60695313 69.20507812 289.59765625 C71.40782314 289.57409748 73.61002588 289.54120329 75.8125 289.5 C75.83937279 287.68757948 75.85883715 285.87504767 75.875 284.0625 C75.89240234 282.54849609 75.89240234 282.54849609 75.91015625 281.00390625 C76.09862676 278.55978933 76.09862676 278.55978933 74.8125 277.5 C73.25077255 277.41314397 71.68520656 277.39297781 70.12109375 277.40234375 C69.17685547 277.40556641 68.23261719 277.40878906 67.25976562 277.41210938 C65.76993164 277.42467773 65.76993164 277.42467773 64.25 277.4375 C63.25291016 277.44201172 62.25582031 277.44652344 61.22851562 277.45117188 C58.75645151 277.46299993 56.28450482 277.47948151 53.8125 277.5 Z M397.8125 277.5 C395.75324319 280.58888522 395.5734626 281.20935927 395.6875 284.6875 C395.72875 285.945625 395.77 287.20375 395.8125 288.5 C399.29164941 288.52887814 402.77076831 288.54675687 406.25 288.5625 C407.24322266 288.57087891 408.23644531 288.57925781 409.25976562 288.58789062 C410.20400391 288.59111328 411.14824219 288.59433594 412.12109375 288.59765625 C412.99564209 288.60289307 413.87019043 288.60812988 414.77124023 288.61352539 C416.80690206 288.72784809 416.80690206 288.72784809 417.8125 287.5 C417.88455511 285.81391034 417.89636068 284.12499341 417.875 282.4375 C417.86597656 281.51839844 417.85695313 280.59929687 417.84765625 279.65234375 C417.83605469 278.94207031 417.82445312 278.23179687 417.8125 277.5 C414.52099875 277.41314713 411.2297904 277.35966105 407.9375 277.3125 C406.53177734 277.27479492 406.53177734 277.27479492 405.09765625 277.23632812 C404.20175781 277.22666016 403.30585938 277.21699219 402.3828125 277.20703125 C401.55539551 277.1913208 400.72797852 277.17561035 399.87548828 277.15942383 C399.19470215 277.27181396 398.51391602 277.3842041 397.8125 277.5 Z M-9.5 426.0625 C-11.78455538 429.36241333 -12.31183766 430.99241754 -12.30102539 434.94970703 C-12.30094986 435.87051056 -12.30087433 436.79131409 -12.30079651 437.74002075 C-12.29563522 438.73589203 -12.29047394 439.73176331 -12.28515625 440.7578125 C-12.2837413 441.77600067 -12.28232635 442.79418884 -12.28086853 443.8432312 C-12.275259 447.10385035 -12.26270488 450.36440151 -12.25 453.625 C-12.24498623 455.83203026 -12.24042311 458.03906159 -12.23632812 460.24609375 C-12.22613622 465.66410994 -12.20656262 471.08197862 -12.1875 476.5 C-1.2975 476.5 9.5925 476.5 20.8125 476.5 C20.90453307 470.21874287 20.9841117 463.93984244 21.03222656 457.65844727 C21.05229182 455.52360082 21.07955058 453.388809 21.11425781 451.25415039 C21.16299943 448.17841075 21.18552006 445.10340031 21.203125 442.02734375 C21.22377014 441.07915268 21.24441528 440.13096161 21.26568604 439.15403748 C21.26773455 433.04895039 20.41528639 429.47838836 16.8125 424.5 C11.79166176 420.50382262 7.76400663 419.91808877 1.3984375 420.1796875 C-3.50577587 420.78715804 -6.22800327 422.43677389 -9.5 426.0625 Z M164.48504639 435.91430664 C160.67564744 438.17452508 158.06141012 438.38355167 153.6640625 438.40234375 C151.82835693 438.43702759 151.82835693 438.43702759 149.95556641 438.47241211 C148.46460449 438.46089111 146.97364258 438.44937012 145.4375 438.4375 C138.198125 438.4684375 138.198125 438.4684375 130.8125 438.5 C130.8125 451.04 130.8125 463.58 130.8125 476.5 C200.4425 476.5 270.0725 476.5 341.8125 476.5 C341.8125 463.96 341.8125 451.42 341.8125 438.5 C331.91180144 438.44793085 331.91180144 438.44793085 322.01123047 438.47241211 C320.1146167 438.43772827 320.1146167 438.43772827 318.1796875 438.40234375 C316.91237793 438.39710693 315.64506836 438.39187012 314.33935547 438.38647461 C310.18619808 437.94851433 307.52061159 436.15422019 303.98486328 434.00170898 C293.27472037 428.03663002 280.56255261 429.49509897 268.6875 429.5703125 C266.05061404 429.56558838 263.41373108 429.5587875 260.77685547 429.55001831 C255.26960276 429.53735156 249.76301124 429.55388323 244.25585938 429.58740234 C237.92623583 429.62548721 231.59819155 429.61314233 225.26860619 429.57461751 C219.13135581 429.53878602 212.99479484 429.54287942 206.85748291 429.56328964 C204.26775892 429.56792927 201.67799407 429.56233511 199.08831787 429.54593277 C180.9603676 429.32265192 180.9603676 429.32265192 164.48504639 435.91430664 Z M82.8125 437.5 C82.74364213 442.57252983 82.68390708 447.64343968 82.64770508 452.71606445 C82.63261484 454.44170627 82.61214025 456.16730972 82.58618164 457.89282227 C82.54980791 460.37265488 82.53277641 462.85198064 82.51953125 465.33203125 C82.50404739 466.10400345 82.48856354 466.87597565 82.47261047 467.67134094 C82.47168974 470.59907455 82.47442805 472.90804691 83.94775391 475.48779297 C86.66336659 476.96186081 88.86210186 476.87160552 91.94140625 476.86328125 C93.14087891 476.86263672 94.34035156 476.86199219 95.57617188 476.86132812 C97.4565918 476.8371582 97.4565918 476.8371582 99.375 476.8125 C101.2612207 476.81733398 101.2612207 476.81733398 103.18554688 476.82226562 C109.58783147 477.27531413 109.58783147 477.27531413 114.8125 474.5 C114.98767747 471.77514272 115.04399133 469.15340638 115.0078125 466.4296875 C115.00356766 465.23534592 115.00356766 465.23534592 114.99923706 464.01687622 C114.9880264 461.46943237 114.96292062 458.92233789 114.9375 456.375 C114.92747133 454.64974465 114.91834528 452.92448381 114.91015625 451.19921875 C114.88978418 446.96590238 114.85063823 442.73334305 114.8125 438.5 C104.2525 438.17 93.6925 437.84 82.8125 437.5 Z M381.0546875 437.71875 C380.06011032 437.75204407 380.06011032 437.75204407 379.04544067 437.78601074 C376.92611651 437.85702827 374.80680824 437.92850873 372.6875 438 C371.25130311 438.04820756 369.8151052 438.09638501 368.37890625 438.14453125 C364.85675904 438.26267151 361.33462594 438.38122696 357.8125 438.5 C357.73835679 443.42957259 357.68390183 448.35882081 357.64770508 453.28881836 C357.63261616 454.9659592 357.61214252 456.64306057 357.58618164 458.32006836 C357.54980189 460.73040504 357.53277514 463.14022019 357.51953125 465.55078125 C357.50404739 466.30087967 357.48856354 467.05097809 357.47261047 467.82380676 C357.47167907 470.7031975 357.49203043 472.94272754 358.94775391 475.47412109 C361.66218106 476.96744695 363.85445044 476.8716262 366.94140625 476.86328125 C368.14087891 476.86263672 369.34035156 476.86199219 370.57617188 476.86132812 C372.4565918 476.8371582 372.4565918 476.8371582 374.375 476.8125 C376.2612207 476.81733398 376.2612207 476.81733398 378.18554688 476.82226562 C384.58783147 477.27531413 384.58783147 477.27531413 389.8125 474.5 C389.98775055 471.70315203 390.04393189 469.0067192 390.0078125 466.2109375 C390.0049826 465.39251373 390.00215271 464.57408997 389.99923706 463.73086548 C389.98802532 461.11209607 389.96291929 458.49366636 389.9375 455.875 C389.92747147 454.10156743 389.9183454 452.32812951 389.91015625 450.5546875 C389.88808278 446.20299374 389.85354644 441.8515545 389.8125 437.5 C386.89065927 437.5 383.97486298 437.62059284 381.0546875 437.71875 Z " fill="#636363" transform="translate(78.1875,-0.5)"/>
<path d="M0 0 C1.2210997 -0.0071553 2.4421994 -0.01431061 3.70030212 -0.02168274 C5.06092809 -0.02452315 6.42155433 -0.02723487 7.78218079 -0.02983093 C9.20952521 -0.03609479 10.63686799 -0.04274152 12.06420898 -0.04974365 C15.94872851 -0.06716329 19.83323572 -0.07770856 23.71778464 -0.08594918 C26.14506796 -0.09109852 28.57234745 -0.09717435 30.99962807 -0.10346031 C38.59487173 -0.12251721 46.19010564 -0.13674589 53.78536862 -0.14507228 C62.55082117 -0.15484009 71.31602089 -0.18114545 80.08138436 -0.22157317 C86.85685174 -0.25174953 93.63224672 -0.26654269 100.40777999 -0.26985329 C104.45406257 -0.27220254 108.50007519 -0.2811459 112.54628563 -0.30631447 C116.35568597 -0.32962627 120.16463925 -0.33381619 123.97409248 -0.32355309 C125.36925622 -0.32305832 126.76444218 -0.32936129 128.15953827 -0.34310913 C141.26522851 -0.46498888 141.26522851 -0.46498888 147.26387024 4.14717102 C150.65587415 7.86743337 150.64096656 11.45069878 150.58296204 16.26289368 C149.98877271 21.63378324 147.83941698 26.35249763 145.70137024 31.27217102 C145.28306946 32.30471008 144.86476868 33.33724915 144.43379211 34.40107727 C141.1807982 42.08107795 137.35432148 48.61109125 130.13887024 53.08467102 C125.94000911 54.63642405 122.05116287 55.27074314 117.58509827 55.28761292 C116.21858376 55.29617813 116.21858376 55.29617813 114.82446289 55.30491638 C113.83734818 55.30603424 112.85023346 55.3071521 111.83320618 55.30830383 C110.25908714 55.31575119 110.25908714 55.31575119 108.65316772 55.323349 C105.18485353 55.3379419 101.71658508 55.34476799 98.24824524 55.35029602 C95.83314513 55.35604998 93.41804504 55.36180768 91.00294495 55.36756897 C85.93903898 55.37807089 80.87514885 55.38391881 75.81123352 55.3874054 C69.33389604 55.39288735 62.85676905 55.41691268 56.37949753 55.44537735 C51.38996272 55.4640342 46.4004783 55.46921097 41.41091156 55.47074127 C39.02358602 55.4737616 36.63626123 55.48176909 34.24897003 55.49492645 C30.90318958 55.51204972 27.55791936 55.51009109 24.21211243 55.50361633 C22.74358574 55.51743851 22.74358574 55.51743851 21.24539185 55.53153992 C13.13903619 55.48259047 5.15630774 54.09418379 -0.98222351 48.39717102 C-4.80260844 43.49618723 -7.25149384 37.72572238 -9.82695007 32.10224915 C-10.63031719 30.37470783 -11.487933 28.67261974 -12.35331726 26.97529602 C-15.18153448 21.31886158 -16.90445416 16.50234221 -15.73612976 10.14717102 C-12.73976854 3.05052603 -7.36640552 0.02953893 0 0 Z M1.26387024 16.14717102 C5.58991183 29.63565951 5.58991183 29.63565951 15.26387024 39.14717102 C17.40954076 39.44672754 17.40954076 39.44672754 19.69744873 39.40786743 C21.02008728 39.41849464 21.02008728 39.41849464 22.3694458 39.42933655 C23.32903702 39.42685913 24.28862823 39.42438171 25.27729797 39.42182922 C26.8023143 39.42949562 26.8023143 39.42949562 28.35813904 39.43731689 C31.72130712 39.45122521 35.08427056 39.4502552 38.44746399 39.44795227 C40.78389563 39.45183843 43.12032657 39.45617294 45.45675659 39.4609375 C50.35513092 39.46840233 55.25343317 39.46810644 60.15180969 39.46284485 C66.43117501 39.45704907 72.71024548 39.4739828 78.98956203 39.49718952 C83.81510139 39.51191585 88.64056955 39.51280006 93.4661274 39.50967979 C95.78139391 39.51019353 98.09666435 39.51544104 100.4119091 39.52549171 C103.64848409 39.53781756 106.88448233 39.53108727 110.12104797 39.51948547 C111.07861496 39.52712921 112.03618195 39.53477295 113.02276611 39.54264832 C117.9087036 39.50390503 121.32364156 39.38300679 125.26387024 36.14717102 C126.63249107 34.21510975 126.63249107 34.21510975 127.50215149 31.98701477 C127.84697571 31.1935968 128.19179993 30.40017883 128.54707336 29.5827179 C128.88674133 28.75836243 129.2264093 27.93400696 129.57637024 27.08467102 C129.93537415 26.25644836 130.29437805 25.42822571 130.66426086 24.5749054 C132.56768008 20.49872958 132.56768008 20.49872958 133.26387024 16.14717102 C89.70387024 16.14717102 46.14387024 16.14717102 1.26387024 16.14717102 Z " fill="#636363" transform="translate(246.7361297607422,342.8528289794922)"/>
<path d="M0 0 C1.27104559 -0.00761181 1.27104559 -0.00761181 2.56776887 -0.0153774 C3.9721651 -0.01612404 3.9721651 -0.01612404 5.40493298 -0.01688576 C6.89065934 -0.02345914 6.89065934 -0.02345914 8.40640038 -0.03016531 C11.7466673 -0.04358842 15.08690781 -0.04974002 18.42719555 -0.0558567 C20.81343742 -0.06375482 23.19967808 -0.07202358 25.58591747 -0.08063698 C32.76202406 -0.10462124 39.93813595 -0.11978872 47.11426929 -0.13269705 C49.14052081 -0.13640826 51.16677165 -0.14038154 53.19302249 -0.14444971 C65.771291 -0.16968418 78.34956058 -0.19174089 90.92784882 -0.20417786 C93.84185636 -0.20710763 96.75586387 -0.21006928 99.66987133 -0.21308327 C100.75628658 -0.21420234 100.75628658 -0.21420234 101.86464962 -0.21534403 C113.60119747 -0.22800148 125.33759396 -0.26122935 137.07407103 -0.3028851 C149.11896169 -0.34528569 161.16377482 -0.36887066 173.20873994 -0.37409842 C179.97350356 -0.37751456 186.73803059 -0.38929336 193.50272083 -0.42220116 C199.8647156 -0.452182 206.22629718 -0.4586291 212.58834743 -0.4468174 C214.92608521 -0.44659584 217.2638416 -0.45496861 219.60151386 -0.47247124 C222.78811737 -0.49503533 225.97320643 -0.48692635 229.15981579 -0.47098732 C230.55417377 -0.49181045 230.55417377 -0.49181045 231.9767006 -0.51305425 C236.44600523 -0.45780408 238.37814862 -0.3108792 242.04710197 2.45235825 C243.97284985 5.13701439 243.97284985 5.13701439 244.59784985 8.69951439 C243.97284985 12.13701439 243.97284985 12.13701439 242.04626083 14.3205328 C237.71425169 16.88088509 234.12043596 16.6894126 229.17327404 16.63821983 C228.17952096 16.64375423 227.18576787 16.64928863 226.16190106 16.65499073 C222.82836676 16.66861584 219.49557874 16.65361747 216.16205883 16.63872337 C213.77374993 16.64250583 211.38544321 16.64800526 208.99714184 16.65509605 C203.18173187 16.6676243 197.3665616 16.66147388 191.55116206 16.64642047 C184.77973028 16.62955947 178.00835258 16.63277069 171.2369063 16.63651455 C159.15608642 16.64239274 147.07537078 16.62822264 134.99457836 16.60356712 C123.26992925 16.57964112 111.54541938 16.57256496 99.82075024 16.58305931 C87.05409851 16.59446582 74.28751119 16.59640232 61.52086025 16.58196121 C60.15987147 16.58043537 58.79888267 16.57891501 57.43789387 16.57740021 C56.43343236 16.57626349 56.43343236 16.57626349 55.40867869 16.5751038 C50.68762708 16.57035931 45.9666042 16.57221353 41.24555302 16.57646561 C34.89341343 16.58122856 28.54146722 16.57116179 22.18936443 16.54951096 C19.85445146 16.54393388 17.51951993 16.54348617 15.1846056 16.54846382 C12.0046679 16.55439409 8.82532593 16.54195458 5.64544201 16.52469444 C4.71500354 16.53070449 3.78456507 16.53671453 2.82593149 16.5429067 C-3.35915749 16.48158992 -3.35915749 16.48158992 -6.57309341 14.82372189 C-8.93596701 12.08278579 -8.96607046 9.67963683 -9.02715015 6.13701439 C-6.83297702 1.33073038 -5.16188491 0.01637458 0 0 Z " fill="#646464" transform="translate(199.02715015411377,291.8629856109619)"/>
<path d="M0 0 C38 0 38 0 46 4 C52.27238807 10.43745092 52.33936065 16.84405705 52.3125 25.375 C52.32861328 26.39078125 52.34472656 27.4065625 52.36132812 28.453125 C52.36619548 35.94884552 51.60550744 40.99364526 46.5625 46.8125 C39.95759138 52.45083663 32.38755734 52.15523843 24.0625 52.0625 C23.28326172 52.05798828 22.50402344 52.05347656 21.70117188 52.04882812 C19.80074732 52.03716908 17.90036294 52.01923877 16 52 C16.00785522 53.1281311 16.00785522 53.1281311 16.01586914 54.27905273 C16.03657227 57.66519342 16.04963877 61.05132084 16.0625 64.4375 C16.07087891 65.62150391 16.07925781 66.80550781 16.08789062 68.02539062 C16.09272461 69.71245117 16.09272461 69.71245117 16.09765625 71.43359375 C16.10551147 72.99678345 16.10551147 72.99678345 16.11352539 74.59155273 C16 77 16 77 15 78 C10.05 78 5.1 78 0 78 C0 52.26 0 26.52 0 0 Z M16 14 C16 21.59 16 29.18 16 37 C18.743125 37.0825 21.48625 37.165 24.3125 37.25 C25.60281128 37.30462402 25.60281128 37.30462402 26.91918945 37.36035156 C31.28570352 37.47126727 31.28570352 37.47126727 35.015625 35.453125 C36.37989614 32.0532747 36.43390007 29.15752958 36.4375 25.5 C36.45683594 24.1903125 36.47617188 22.880625 36.49609375 21.53125 C36.24498386 18.03038294 36.24498386 18.03038294 34.48828125 15.546875 C30.96954953 13.35940599 27.74505767 13.5678937 23.75 13.75 C19.91375 13.87375 19.91375 13.87375 16 14 Z " fill="#646464" transform="translate(64,46)"/>
<path d="M0 0 C5.97049223 4.77417839 9.12636011 9.86058998 10.203125 17.44921875 C10.61489792 25.68467721 8.63170036 32.15150625 3.18359375 38.40625 C-2.16394044 43.39809958 -7.92795223 45.66606251 -15.20703125 45.93359375 C-22.61575632 45.66129758 -28.19916764 43.31151226 -33.66796875 38.3046875 C-38.53347005 32.78468984 -40.54380477 26.04858036 -40.421875 18.7734375 C-39.74355154 11.78053926 -37.1267606 6.4783231 -32.20703125 1.55859375 C-22.52819726 -6.01614589 -10.2876535 -6.71883919 0 0 Z M-22.20703125 14.55859375 C-24.13566964 17.10088981 -24.21605416 18.34204393 -24.08203125 21.55859375 C-23.04891397 25.10071014 -22.21105985 26.42415237 -19.20703125 28.55859375 C-15.7960821 29.72444566 -15.7960821 29.72444566 -12.20703125 29.55859375 C-9.40513679 27.79218203 -7.69178214 26.52809553 -6.20703125 23.55859375 C-5.79882399 19.88472843 -5.9586209 18.00573238 -7.76953125 14.74609375 C-12.49664939 10.50380824 -17.37786634 10.55728568 -22.20703125 14.55859375 Z " fill="#636363" transform="translate(450.20703125,349.44140625)"/>
<path d="M0 0 C5.51308284 4.7683512 9.48642723 10.41636299 10.3125 17.7890625 C10.63215659 25.68058467 9.54842295 31.97269696 4.234375 38.00390625 C-1.48881586 43.40037952 -7.07768603 46.04876113 -14.9375 46.4375 C-22.11934947 46.20547102 -28.98192657 43.15746436 -34 38 C-38.56663041 31.79872348 -40.378234 25.69817439 -40 18 C-38.91181069 12.00541329 -36.36692199 6.3132743 -32 2 C-21.82247232 -5.02777403 -10.95071085 -6.46182442 0 0 Z M-20.375 14.125 C-23.56963486 17.57069532 -23.56963486 17.57069532 -24 22 C-22.83112984 25.13749359 -21.85573818 27.29707221 -19.25 29.4375 C-15.82046336 30.29488416 -13.40138086 29.91108416 -10 29 C-7.10642873 26.40320527 -6.13910092 24.83460553 -5.5 21 C-6.13910092 17.16539447 -7.10642873 15.59679473 -10 13 C-14.62125774 11.45958075 -16.21603294 11.50639111 -20.375 14.125 Z " fill="#636363" transform="translate(205,349)"/>
</svg>
