<?xml version="1.0" encoding="UTF-8"?>
<svg version="1.1" xmlns="http://www.w3.org/2000/svg" width="750" height="500">
<path d="M0 0 C247.5 0 495 0 750 0 C750 165 750 330 750 500 C502.5 500 255 500 0 500 C0 335 0 170 0 0 Z " fill="#E9E9E9" transform="translate(0,0)"/>
<path d="M0 0 C0.85577637 0.22461914 1.71155273 0.44923828 2.59326172 0.68066406 C23.24209934 6.2295596 42.96478065 15.74647169 59 30 C59.99 30.33 60.98 30.66 62 31 C62 31.66 62 32.32 62 33 C62.5775 33.2475 63.155 33.495 63.75 33.75 C66.32939979 35.18299988 68.06121592 36.78424676 70 39 C70 39.66 70 40.32 70 41 C70.99 41 71.98 41 73 41 C74.6484375 42.57421875 74.6484375 42.57421875 76.375 44.6875 C78.46871231 47.20351098 80.5392386 49.58505494 82.9375 51.8125 C85 54 85 54 85 57 C85.5775 57.2475 86.155 57.495 86.75 57.75 C89.37223092 59.20679496 91.09253081 60.68378742 93 63 C93 64.32 93 65.64 93 67 C93.66 67 94.32 67 95 67 C110.01705393 92.56094286 122.55151841 119.71024343 123 150 C123.01369629 150.78084961 123.02739258 151.56169922 123.04150391 152.36621094 C123.13740368 158.58005414 123.10898522 164.78656053 123 171 C122.98324219 172.13179687 122.96648437 173.26359375 122.94921875 174.4296875 C122.25762808 189.32852654 118.34704739 205.11528024 113 219 C112.71769531 219.78246094 112.43539063 220.56492187 112.14453125 221.37109375 C107.89946427 232.66037667 102.28012313 245.3549961 95 255 C94.34 255 93.68 255 93 255 C92.690625 255.99 92.690625 255.99 92.375 257 C89.90838411 262.3817074 86.18368204 266.85118197 82 271 C81.484375 271.721875 80.96875 272.44375 80.4375 273.1875 C79.963125 273.785625 79.48875 274.38375 79 275 C78.34 275 77.68 275 77 275 C77 275.66 77 276.32 77 277 C76.34 277 75.68 277 75 277 C75 277.66 75 278.32 75 279 C73.125 281.125 73.125 281.125 71 283 C70.34 283 69.68 283 69 283 C69 283.66 69 284.32 69 285 C67.50292969 286.37280273 67.50292969 286.37280273 65.421875 287.93359375 C64.67292969 288.50013672 63.92398437 289.06667969 63.15234375 289.65039062 C62.35957031 290.24013672 61.56679688 290.82988281 60.75 291.4375 C59.97269531 292.02337891 59.19539063 292.60925781 58.39453125 293.21289062 C56.267421 294.81458646 54.13462609 296.4083429 52 298 C51.31711914 298.55824463 50.63423828 299.11648926 49.93066406 299.69165039 C48 301 48 301 45 301 C45 301.66 45 302.32 45 303 C17.17168916 318.13469537 -10.72634945 327.68106887 -42.625 327.4375 C-43.86126129 327.43393494 -43.86126129 327.43393494 -45.12249756 327.43029785 C-62.892192 327.35041862 -80.37317428 325.72224352 -97 319 C-97 318.34 -97 317.68 -97 317 C-97.99 317.33 -98.98 317.66 -100 318 C-113.93602619 314.94339946 -129.50768092 305.33442967 -141 297 C-141 296.34 -141 295.68 -141 295 C-141.99 295 -142.98 295 -144 295 C-145.68933922 293.3563186 -147.35259924 291.6857124 -149 290 C-150.6396875 288.9171875 -150.6396875 288.9171875 -152.3125 287.8125 C-153.199375 287.214375 -154.08625 286.61625 -155 286 C-155 285.34 -155 284.68 -155 284 C-155.66 284 -156.32 284 -157 284 C-158.55078125 282.42578125 -158.55078125 282.42578125 -160.3125 280.3125 C-162.43644684 277.80197706 -164.55501344 275.39176579 -166.9375 273.125 C-169 271 -169 271 -169 269 C-169.66 269 -170.32 269 -171 269 C-172.63139937 267.07412421 -174.13723225 265.15673283 -175.625 263.125 C-176.04523438 262.56941406 -176.46546875 262.01382812 -176.8984375 261.44140625 C-180 257.26235288 -180 257.26235288 -180 255 C-180.66 255 -181.32 255 -182 255 C-185.04154369 249.68936817 -188.0437681 244.35862577 -191 239 C-191.33547852 238.39220703 -191.67095703 237.78441406 -192.01660156 237.15820312 C-212.94480459 198.7348146 -214.97423398 152.56639463 -202.9296875 111.1015625 C-200.57206445 103.40189325 -197.55938272 96.21024489 -194 89 C-193.53078125 87.97519531 -193.0615625 86.95039063 -192.578125 85.89453125 C-186.65687831 73.30356569 -178.5838801 62.23100107 -169.4453125 51.8046875 C-167.89636143 50.02809506 -166.38529698 48.21712352 -164.9296875 46.36328125 C-163.08458293 44.10358841 -161.19870993 42.22348812 -159 40.3125 C-158.34 39.73113281 -157.68 39.14976562 -157 38.55078125 C-155.07183136 37.05569736 -153.21653545 36.00436762 -151 35 C-151 34.34 -151 33.68 -151 33 C-147.53846154 30 -147.53846154 30 -145 30 C-145 29.34 -145 28.68 -145 28 C-142.98722996 26.52560006 -140.98986095 25.18922312 -138.875 23.875 C-137.92536377 23.27776123 -137.92536377 23.27776123 -136.95654297 22.66845703 C-134.97815892 21.43362015 -132.99117753 20.21408441 -131 19 C-130.41283203 18.64035156 -129.82566406 18.28070313 -129.22070312 17.91015625 C-113.28446836 8.23523709 -97.09125924 2.41258829 -79 -2 C-77.87440674 -2.28496338 -77.87440674 -2.28496338 -76.72607422 -2.57568359 C-52.39067044 -8.43931075 -23.92860959 -6.46394369 0 0 Z " fill="#F6F6F6" transform="translate(419,89)"/>
<path d="M0 0 C13.86 0 27.72 0 42 0 C42 165 42 330 42 500 C28.14 500 14.28 500 0 500 C0 335 0 170 0 0 Z " fill="#FEFEFE" transform="translate(0,0)"/>
<path d="M0 0 C13.53 0 27.06 0 41 0 C41 165 41 330 41 500 C27.47 500 13.94 500 0 500 C0 335 0 170 0 0 Z " fill="#FEFEFE" transform="translate(709,0)"/>
<path d="M0 0 C1.47906892 -0.02689216 2.95827483 -0.04634621 4.4375 -0.0625 C5.26121094 -0.07410156 6.08492188 -0.08570313 6.93359375 -0.09765625 C9 0 9 0 10 1 C10.07179964 2.51928038 10.08392007 4.04167482 10.0625 5.5625 C10.05347656 6.38878906 10.04445313 7.21507812 10.03515625 8.06640625 C10.02355469 8.70449219 10.01195312 9.34257812 10 10 C11.15628906 9.98259766 11.15628906 9.98259766 12.3359375 9.96484375 C13.33882813 9.95582031 14.34171875 9.94679687 15.375 9.9375 C16.37273437 9.92589844 17.37046875 9.91429687 18.3984375 9.90234375 C21 10 21 10 23 11 C23.02685412 13.31243792 23.04632841 15.6249627 23.0625 17.9375 C23.07410156 19.22527344 23.08570313 20.51304687 23.09765625 21.83984375 C23 25 23 25 22 26 C17.99779347 26.14355117 14.00558317 26.04216403 10 26 C10 31.28 10 36.56 10 42 C6.78548731 43.60725635 3.56387464 43.05748185 0 43 C0.02618408 43.95253662 0.05236816 44.90507324 0.0793457 45.88647461 C0.17062429 49.45898457 0.22752643 53.03139404 0.2746582 56.60473633 C0.29962755 58.1439758 0.33361614 59.68309885 0.37719727 61.22192383 C0.66838319 71.77655727 0.01622916 79.09628415 -7.03125 87.390625 C-16.17308072 94.86370884 -26.47364922 95.03934177 -37.76708984 94.24365234 C-44.48415682 93.51069446 -50.27840492 90.93346496 -54.71786499 85.7571106 C-59.25111499 79.54448748 -59.44628422 72.82600703 -59.3984375 65.4453125 C-59.40130768 64.46255341 -59.40417786 63.47979431 -59.40713501 62.46725464 C-59.40916537 60.40492166 -59.40370795 58.34256896 -59.39111328 56.28027344 C-59.37494128 53.11350102 -59.39105002 49.94798492 -59.41015625 46.78125 C-59.40817566 44.77343468 -59.40433582 42.76562014 -59.3984375 40.7578125 C-59.40451019 39.80891144 -59.41058289 38.86001038 -59.4168396 37.88235474 C-59.40738312 37.00739349 -59.39792664 36.13243225 -59.38818359 35.23095703 C-59.38579681 34.46010773 -59.38341003 33.68925842 -59.38095093 32.89505005 C-59 31 -59 31 -56 29 C-53.44140625 28.734375 -53.44140625 28.734375 -50.5625 28.75 C-49.61503906 28.74484375 -48.66757812 28.7396875 -47.69140625 28.734375 C-44.9437778 29.00554878 -43.39823658 29.71250207 -41 31 C-40.98018066 32.22106445 -40.96036133 33.44212891 -40.93994141 34.70019531 C-40.86383877 39.23279354 -40.77512839 43.7650727 -40.68261719 48.29736328 C-40.64434673 50.2585622 -40.60949046 52.21983084 -40.578125 54.18115234 C-40.5324326 57.00122997 -40.474445 59.82082838 -40.4140625 62.640625 C-40.40251129 63.51680481 -40.39096008 64.39298462 -40.37905884 65.29571533 C-40.35918915 66.11626404 -40.33931946 66.93681274 -40.31884766 67.78222656 C-40.30552399 68.50170471 -40.29220032 69.22118286 -40.2784729 69.96246338 C-39.95330486 72.34166003 -39.25392654 73.95879833 -38 76 C-35.30335792 77.34832104 -33.13412479 77.16910682 -30.125 77.1875 C-28.55105469 77.20876953 -28.55105469 77.20876953 -26.9453125 77.23046875 C-24.01355089 77.00106035 -22.53279844 76.37468503 -20 75 C-19.96241577 73.10725342 -19.96241577 73.10725342 -19.92407227 71.17626953 C-19.83007894 66.50591431 -19.72983869 61.83571063 -19.62768555 57.16552734 C-19.58430605 55.14212584 -19.54263322 53.11868701 -19.50268555 51.09521484 C-19.44505592 48.19096616 -19.3813406 45.28690589 -19.31640625 42.3828125 C-19.29133751 41.02024826 -19.29133751 41.02024826 -19.26576233 39.63015747 C-19.24581711 38.78943695 -19.22587189 37.94871643 -19.20532227 37.08251953 C-19.18977798 36.34083527 -19.1742337 35.599151 -19.15821838 34.83499146 C-19 33 -19 33 -18 31 C-17.34 31 -16.68 31 -16 31 C-16 30.34 -16 29.68 -16 29 C-14.02 29 -12.04 29 -10 29 C-9.855625 28.360625 -9.71125 27.72125 -9.5625 27.0625 C-9 25 -9 25 -8 24 C-5.30345146 23.92680379 -2.63308542 23.90757463 0.0625 23.9375 C0.82111328 23.94201172 1.57972656 23.94652344 2.36132812 23.95117188 C4.24091871 23.9629932 6.12046899 23.98092922 8 24 C8 20.04 8 16.08 8 12 C6.865625 12.020625 5.73125 12.04125 4.5625 12.0625 C1 12 1 12 0 11 C-0.07226502 9.14712498 -0.0838122 7.29166122 -0.0625 5.4375 C-0.05347656 4.42558594 -0.04445313 3.41367188 -0.03515625 2.37109375 C-0.02355469 1.58863281 -0.01195312 0.80617187 0 0 Z " fill="#A6C21D" transform="translate(472,193)"/>
<path d="M0 0 C1.05058594 -0.01160156 2.10117187 -0.02320313 3.18359375 -0.03515625 C10.87437718 -0.00627972 16.4852648 1.05176476 23.0625 5.25 C25.39733527 7.65558785 25.85024783 9.07797393 26.125 12.375 C26.785 12.375 27.445 12.375 28.125 12.375 C29.04423821 29.20727299 29.04423821 29.20727299 24.625 34.89453125 C19.72756975 39.72819287 15.32955437 41.50835743 8.58203125 41.47265625 C7.50888672 41.46943359 6.43574219 41.46621094 5.33007812 41.46289062 C4.21052734 41.45451172 3.09097656 41.44613281 1.9375 41.4375 C0.80634766 41.43298828 -0.32480469 41.42847656 -1.49023438 41.42382812 C-4.28520927 41.41203498 -7.0800782 41.3955765 -9.875 41.375 C-9.86976318 42.0362085 -9.86452637 42.69741699 -9.85913086 43.37866211 C-9.83842344 46.35659851 -9.82535988 49.33451982 -9.8125 52.3125 C-9.80412109 53.35341797 -9.79574219 54.39433594 -9.78710938 55.46679688 C-9.78388672 56.45615234 -9.78066406 57.44550781 -9.77734375 58.46484375 C-9.77210693 59.38128662 -9.76687012 60.29772949 -9.76147461 61.24194336 C-9.875 63.375 -9.875 63.375 -10.875 64.375 C-13.54558851 64.51615161 -16.19932238 64.41747107 -18.875 64.375 C-18.89818417 57.01221284 -18.91594608 49.64943357 -18.92681217 42.28661728 C-18.9320277 38.86766011 -18.9391012 35.44872794 -18.95043945 32.02978516 C-18.9633967 28.09798483 -18.96823922 24.16619458 -18.97265625 20.234375 C-18.97781754 19.00821472 -18.98297882 17.78205444 -18.98829651 16.51873779 C-18.98837204 15.37785706 -18.98844757 14.23697632 -18.98852539 13.06152344 C-18.990746 12.05780701 -18.99296661 11.05409058 -18.99525452 10.0199585 C-18.88548255 7.60556019 -18.70037693 5.64247175 -17.875 3.375 C-12.4845545 -0.63607224 -6.4183988 -0.07036004 0 0 Z " fill="#A5C11D" transform="translate(291.875,221.625)"/>
<path d="M0 0 C1.06927734 0.00580078 1.06927734 0.00580078 2.16015625 0.01171875 C7.17687609 0.09426076 11.50680569 0.66893523 16.25 2.25 C16.25 2.91 16.25 3.57 16.25 4.25 C16.848125 4.311875 17.44625 4.37375 18.0625 4.4375 C21.2400288 5.61772498 21.79869656 7.22589815 23.25 10.25 C23.63818359 13.58398438 23.63818359 13.58398438 23.6484375 17.34375 C23.65130768 18.01289429 23.65417786 18.68203857 23.65713501 19.37145996 C23.65916792 20.78003795 23.65369226 22.18864468 23.64111328 23.59716797 C23.62504632 25.74381085 23.64098592 27.88857139 23.66015625 30.03515625 C23.65817368 31.40885829 23.65432971 32.78255917 23.6484375 34.15625 C23.64505371 35.39697266 23.64166992 36.63769531 23.63818359 37.91601562 C23.21774882 41.526995 22.42444864 43.36951167 20.25 46.25 C12.29920766 52.3399686 3.86764729 51.94805505 -5.75 51.25 C-9.6717141 50.1225072 -11.95115167 48.34245846 -14.38671875 45.01171875 C-16.86166318 39.99800612 -16.48540168 34.69897628 -15.75 29.25 C-12.83654015 24.8356669 -8.75634043 22.75351304 -3.75 21.25 C-0.58992783 20.91314473 2.51436443 20.96278019 5.6875 21.0625 C6.92790039 21.08280273 6.92790039 21.08280273 8.19335938 21.10351562 C10.2125264 21.13853008 12.23135318 21.19232438 14.25 21.25 C14.21682761 19.81152439 14.14726123 18.3738593 14.0625 16.9375 C14.01029297 15.73673828 14.01029297 15.73673828 13.95703125 14.51171875 C13.408829 12.10462535 13.408829 12.10462535 11.34375 10.46875 C6.8562795 8.70095859 2.71059782 8.93094465 -2.0625 9.0625 C-2.99384766 9.07603516 -3.92519531 9.08957031 -4.88476562 9.10351562 C-7.17377646 9.13873118 -9.46158458 9.18797901 -11.75 9.25 C-11.75 6.94 -11.75 4.63 -11.75 2.25 C-8.01692513 -0.1745744 -4.30034726 -0.0556422 0 0 Z " fill="#AEC540" transform="translate(335.75,235.75)"/>
<path d="M0 0 C3.71599191 -0.20086443 4.77208445 -0.1519437 8 2 C9.02734375 4.73046875 9.02734375 4.73046875 9.9375 8.1875 C10.27523438 9.44433594 10.61296875 10.70117188 10.9609375 11.99609375 C11.30771189 13.33062004 11.6540635 14.66525626 12 16 C12.34527086 17.30367281 12.69161433 18.60706204 13.0390625 19.91015625 C13.71215253 22.43552837 14.38279591 24.96155409 15.05078125 27.48828125 C16.27597042 32.020977 17.60738807 36.51621159 19 41 C20.98 41 22.96 41 25 41 C25.36351562 39.38544922 25.36351562 39.38544922 25.734375 37.73828125 C27.5754861 29.67669911 29.59931663 21.76850843 32.12109375 13.88671875 C33.31526533 9.96452855 34.14578835 6.00822391 35 2 C35.33 1.34 35.66 0.68 36 0 C38.64 0 41.28 0 44 0 C43.54139454 7.20388711 42.16372079 13.73178649 40.0625 20.625 C39.53132996 22.40849064 39.00136331 24.19234017 38.47265625 25.9765625 C38.21782471 26.83306396 37.96299316 27.68956543 37.70043945 28.57202148 C36.8995918 31.34805141 36.19757102 34.13910246 35.51196289 36.9453125 C34.4890901 41.05046148 33.34925767 45.11983151 32.1875 49.1875 C31.95224609 50.06341797 31.71699219 50.93933594 31.47460938 51.84179688 C29.6041113 58.3173532 27.02286683 61.56491283 21.75 65.8125 C17.87461423 67.48596204 14.17099287 67.4481232 10 67 C9 66 9 66 8.9375 62.4375 C8.958125 61.303125 8.97875 60.16875 9 59 C9.60328125 58.91363281 10.2065625 58.82726562 10.828125 58.73828125 C16.20030902 57.79723725 16.20030902 57.79723725 20.5 54.5625 C22.10975995 52.01463004 22.10975995 52.01463004 23 49 C21.7625 49.0825 20.525 49.165 19.25 49.25 C16.04759723 49.25565796 15.26654544 49.20341626 12.625 47.1875 C9.52410089 43.01321273 8.11043576 39.27170484 6.8359375 34.296875 C6.63900299 33.54085999 6.44206848 32.78484497 6.23916626 32.00592041 C5.82448085 30.4062341 5.41279939 28.8057665 5.00390625 27.20458984 C4.38019588 24.77027926 3.74150044 22.34024414 3.1015625 19.91015625 C2.6995993 18.35179991 2.29852891 16.79321295 1.8984375 15.234375 C1.7078476 14.51433289 1.51725769 13.79429077 1.32089233 13.0524292 C0.19424839 8.57445872 -0.18353644 4.61786742 0 0 Z " fill="#A8C22B" transform="translate(363,238)"/>
<path d="M0 0 C0.94746094 -0.00515625 1.89492188 -0.0103125 2.87109375 -0.015625 C5.6187222 0.25554878 7.16426342 0.96250207 9.5625 2.25 C9.58755615 3.47106445 9.6126123 4.69212891 9.63842773 5.95019531 C9.73263579 10.48269045 9.83282384 15.01503714 9.93481445 19.54736328 C9.9781126 21.50859096 10.01979131 23.4698551 10.05981445 25.43115234 C10.11764099 28.25108828 10.18129984 31.07084161 10.24609375 33.890625 C10.26280624 34.76680481 10.27951874 35.64298462 10.29673767 36.54571533 C10.31668289 37.36626404 10.33662811 38.18681274 10.35717773 39.03222656 C10.37272202 39.75170471 10.3882663 40.47118286 10.40428162 41.21246338 C10.5678942 43.31946646 10.99249531 45.21835737 11.5625 47.25 C9.9125 46.59 8.2625 45.93 6.5625 45.25 C6.2325 41.95 5.9025 38.65 5.5625 35.25 C5.58570313 35.98605469 5.60890625 36.72210938 5.6328125 37.48046875 C5.65988281 38.94419922 5.65988281 38.94419922 5.6875 40.4375 C5.71070313 41.40042969 5.73390625 42.36335938 5.7578125 43.35546875 C5.55066011 46.42546712 4.99811115 48.53397891 3.5625 51.25 C0.9375 52.0625 0.9375 52.0625 -1.4375 52.25 C-0.7775 52.91 -0.1175 53.57 0.5625 54.25 C3.16530568 53.92958603 3.16530568 53.92958603 5.5625 53.25 C5.8925 54.24 6.2225 55.23 6.5625 56.25 C4.5825 56.745 4.5825 56.745 2.5625 57.25 C2.8925 57.91 3.2225 58.57 3.5625 59.25 C5.8765622 59.98075648 8.21078869 60.65138258 10.5625 61.25 C10.5625 61.91 10.5625 62.57 10.5625 63.25 C17.1625 63.58 23.7625 63.91 30.5625 64.25 C30.5625 64.58 30.5625 64.91 30.5625 65.25 C5.83960911 66.18565526 5.83960911 66.18565526 -2.875 58.5 C-8.44253687 52.00832234 -8.88893928 44.87121019 -8.8359375 36.6953125 C-8.83880768 35.71255341 -8.84167786 34.72979431 -8.84463501 33.71725464 C-8.84666537 31.65492166 -8.84120795 29.59256896 -8.82861328 27.53027344 C-8.81244128 24.36350102 -8.82855002 21.19798492 -8.84765625 18.03125 C-8.84567566 16.02343468 -8.84183582 14.01562014 -8.8359375 12.0078125 C-8.84201019 11.05891144 -8.84808289 10.11001038 -8.8543396 9.13235474 C-8.84488312 8.25739349 -8.83542664 7.38243225 -8.82568359 6.48095703 C-8.82329681 5.71010773 -8.82091003 4.93925842 -8.81845093 4.14505005 C-7.91343793 -0.35696007 -3.72568768 -0.02022083 0 0 Z " fill="#A5C217" transform="translate(421.4375,221.75)"/>
<path d="M0 0 C1.47906892 -0.02689216 2.95827483 -0.04634621 4.4375 -0.0625 C5.26121094 -0.07410156 6.08492188 -0.08570313 6.93359375 -0.09765625 C9 0 9 0 10 1 C10.07179964 2.51928038 10.08392007 4.04167482 10.0625 5.5625 C10.05347656 6.38878906 10.04445313 7.21507812 10.03515625 8.06640625 C10.02355469 8.70449219 10.01195312 9.34257812 10 10 C11.15628906 9.98259766 11.15628906 9.98259766 12.3359375 9.96484375 C13.33882813 9.95582031 14.34171875 9.94679687 15.375 9.9375 C16.37273437 9.92589844 17.37046875 9.91429687 18.3984375 9.90234375 C21 10 21 10 23 11 C23.02685412 13.31243792 23.04632841 15.6249627 23.0625 17.9375 C23.07410156 19.22527344 23.08570313 20.51304687 23.09765625 21.83984375 C23 25 23 25 22 26 C17.99779347 26.14355117 14.00558317 26.04216403 10 26 C10 31.28 10 36.56 10 42 C8 43 8 43 0 43 C0 53.89 0 64.78 0 76 C-0.33 76 -0.66 76 -1 76 C-1 65.44 -1 54.88 -1 44 C-3.64 44 -6.28 44 -9 44 C-10.38226016 41.23547967 -10.09525387 38.9538637 -10.0625 35.875 C-10.05347656 34.77929688 -10.04445313 33.68359375 -10.03515625 32.5546875 C-10.02355469 31.71164063 -10.01195312 30.86859375 -10 30 C-11.98 30 -13.96 30 -16 30 C-16 29.67 -16 29.34 -16 29 C-14.02 29 -12.04 29 -10 29 C-9.855625 28.360625 -9.71125 27.72125 -9.5625 27.0625 C-9 25 -9 25 -8 24 C-5.30345146 23.92680379 -2.63308542 23.90757463 0.0625 23.9375 C0.82111328 23.94201172 1.57972656 23.94652344 2.36132812 23.95117188 C4.24091871 23.9629932 6.12046899 23.98092922 8 24 C8 20.04 8 16.08 8 12 C6.865625 12.020625 5.73125 12.04125 4.5625 12.0625 C1 12 1 12 0 11 C-0.07226502 9.14712498 -0.0838122 7.29166122 -0.0625 5.4375 C-0.05347656 4.42558594 -0.04445313 3.41367188 -0.03515625 2.37109375 C-0.02355469 1.58863281 -0.01195312 0.80617187 0 0 Z " fill="#B5C954" transform="translate(472,193)"/>
<path d="M0 0 C1.06927734 0.00580078 1.06927734 0.00580078 2.16015625 0.01171875 C7.17687609 0.09426076 11.50680569 0.66893523 16.25 2.25 C16.25 2.91 16.25 3.57 16.25 4.25 C16.848125 4.311875 17.44625 4.37375 18.0625 4.4375 C21.2400288 5.61772498 21.79869656 7.22589815 23.25 10.25 C23.63818359 13.58398438 23.63818359 13.58398438 23.6484375 17.34375 C23.65130768 18.01289429 23.65417786 18.68203857 23.65713501 19.37145996 C23.65916792 20.78003795 23.65369226 22.18864468 23.64111328 23.59716797 C23.62504632 25.74381085 23.64098592 27.88857139 23.66015625 30.03515625 C23.65817368 31.40885829 23.65432971 32.78255917 23.6484375 34.15625 C23.64505371 35.39697266 23.64166992 36.63769531 23.63818359 37.91601562 C23.12451152 42.3277803 21.56131509 44.9035604 18.5 48.046875 C15.33854784 49.73737373 12.81203323 49.57546681 9.25 49.5 C8.033125 49.48453125 6.81625 49.4690625 5.5625 49.453125 C2.93590016 49.29205992 0.74588492 49.02372433 -1.75 48.25 C-1.75 47.59 -1.75 46.93 -1.75 46.25 C-4.72 46.745 -4.72 46.745 -7.75 47.25 C-8.08 45.93 -8.41 44.61 -8.75 43.25 C-8.05003906 43.41242188 -7.35007812 43.57484375 -6.62890625 43.7421875 C-3.59001007 44.27822075 -0.77147718 44.38279767 2.3125 44.375 C3.33472656 44.37757813 4.35695313 44.38015625 5.41015625 44.3828125 C8.93094027 44.24936852 8.93094027 44.24936852 12.25 43.25 C15.44277134 39.28141507 14.31150628 33.80099088 14.08398438 29.00585938 C13.94007479 23.66135527 13.94007479 23.66135527 15.75390625 21.25390625 C16.24761719 20.92261719 16.74132812 20.59132813 17.25 20.25 C16.59 20.25 15.93 20.25 15.25 20.25 C14.92 17.28 14.59 14.31 14.25 11.25 C8.7397515 8.92507787 3.73887115 9.01625489 -2.125 9.125 C-3.05183594 9.13402344 -3.97867187 9.14304688 -4.93359375 9.15234375 C-7.20600077 9.17577063 -9.4778618 9.20857252 -11.75 9.25 C-11.75 6.94 -11.75 4.63 -11.75 2.25 C-8.01692513 -0.1745744 -4.30034726 -0.0556422 0 0 Z " fill="#A5C314" transform="translate(335.75,235.75)"/>
<path d="M0 0 C0.96357422 -0.01224609 1.92714844 -0.02449219 2.91992188 -0.03710938 C3.84998047 -0.03904297 4.78003906 -0.04097656 5.73828125 -0.04296875 C6.59075439 -0.04707764 7.44322754 -0.05118652 8.3215332 -0.05541992 C10.89867302 0.20918168 12.4939611 0.83059059 14.6875 2.1875 C17.03026531 5.47781689 17.0167427 8.6669934 17.0625 12.625 C17.09085937 13.73746094 17.11921875 14.84992188 17.1484375 15.99609375 C16.54722022 20.15875916 16.05925289 21.59384393 12.6875 24.1875 C8.58865958 24.80259772 4.5700584 24.65580992 0.4375 24.5 C-0.68914062 24.47744141 -1.81578125 24.45488281 -2.9765625 24.43164062 C-5.75655232 24.37274254 -8.53385332 24.29054201 -11.3125 24.1875 C-11.34137236 20.37501574 -11.35925492 16.5625593 -11.375 12.75 C-11.38337891 11.66138672 -11.39175781 10.57277344 -11.40039062 9.45117188 C-11.40361328 8.41669922 -11.40683594 7.38222656 -11.41015625 6.31640625 C-11.41539307 5.35806885 -11.42062988 4.39973145 -11.42602539 3.41235352 C-11.15175506 -1.96275508 -4.12324261 0.00272521 0 0 Z " fill="#F6F7F3" transform="translate(293.3125,230.8125)"/>
<path d="M0 0 C1.05058594 -0.01160156 2.10117187 -0.02320313 3.18359375 -0.03515625 C10.87437718 -0.00627972 16.4852648 1.05176476 23.0625 5.25 C25.39733527 7.65558785 25.85024783 9.07797393 26.125 12.375 C26.785 12.375 27.445 12.375 28.125 12.375 C28.20612454 14.95896679 28.26554748 17.54037568 28.3125 20.125 C28.33763672 20.85460937 28.36277344 21.58421875 28.38867188 22.3359375 C28.43481636 25.71986604 28.37824128 27.95358557 26.61328125 30.890625 C25.87658203 31.62539062 25.87658203 31.62539062 25.125 32.375 C25.13023682 31.82038086 25.13547363 31.26576172 25.14086914 30.69433594 C25.16171031 28.17123557 25.17468282 25.64815336 25.1875 23.125 C25.20006836 21.81595703 25.20006836 21.81595703 25.21289062 20.48046875 C25.21611328 19.63613281 25.21933594 18.79179687 25.22265625 17.921875 C25.22789307 17.14682617 25.23312988 16.37177734 25.23852539 15.57324219 C25.12536998 13.38216402 24.73052448 11.47862139 24.125 9.375 C23.465 9.375 22.805 9.375 22.125 9.375 C21.93074127 12.16634852 21.74430483 14.95783687 21.5625 17.75 C21.47838867 18.94109375 21.47838867 18.94109375 21.39257812 20.15625 C20.97147196 24.39090885 20.97147196 24.39090885 22.125 28.375 C19.75 29.9375 19.75 29.9375 17.125 31.375 C16.465 31.045 15.805 30.715 15.125 30.375 C15.785 29.715 16.445 29.055 17.125 28.375 C17.44568526 25.38463993 17.44568526 25.38463993 17.375 22 C17.38015625 20.85789063 17.3853125 19.71578125 17.390625 18.5390625 C17.13757729 15.52481771 16.86449833 13.82189432 15.125 11.375 C12.18368109 10.39456036 10.29998335 10.25878798 7.23828125 10.27734375 C5.970448 10.28109009 5.970448 10.28109009 4.67700195 10.28491211 C3.60796631 10.29401611 2.53893066 10.30312012 1.4375 10.3125 C-1.965625 10.333125 -5.36875 10.35375 -8.875 10.375 C-9.205 17.965 -9.535 25.555 -9.875 33.375 C-10.205 33.375 -10.535 33.375 -10.875 33.375 C-10.93296132 29.27089245 -10.96858313 25.16688984 -11 21.0625 C-11.01675781 19.89525391 -11.03351563 18.72800781 -11.05078125 17.52539062 C-11.05722656 16.40712891 -11.06367188 15.28886719 -11.0703125 14.13671875 C-11.08078613 13.10506592 -11.09125977 12.07341309 -11.10205078 11.01049805 C-10.875 8.375 -10.875 8.375 -8.875 5.375 C-10.855 5.375 -12.835 5.375 -14.875 5.375 C-17.57914822 10.36773103 -17.05083871 15.35390934 -16.88671875 20.85546875 C-16.86406448 21.86466873 -16.84141022 22.87386871 -16.81806946 23.91365051 C-16.76821369 26.04110762 -16.71326583 28.16845071 -16.65356445 30.2956543 C-16.56254581 33.56085664 -16.48797487 36.82612438 -16.41601562 40.09179688 C-16.36554678 42.15887791 -16.31414674 44.22593647 -16.26171875 46.29296875 C-16.23873215 47.27315475 -16.21574554 48.25334076 -16.19206238 49.26322937 C-16.16566177 50.16789444 -16.13926117 51.07255951 -16.11206055 52.00463867 C-16.07969551 53.20113289 -16.07969551 53.20113289 -16.04667664 54.42179871 C-15.98851357 56.45395812 -15.98851357 56.45395812 -14.875 58.375 C-13.555 58.375 -12.235 58.375 -10.875 58.375 C-10.875 52.765 -10.875 47.155 -10.875 41.375 C-10.545 41.375 -10.215 41.375 -9.875 41.375 C-9.84612488 45.02081687 -9.82824415 48.66660463 -9.8125 52.3125 C-9.80412109 53.35341797 -9.79574219 54.39433594 -9.78710938 55.46679688 C-9.78388672 56.45615234 -9.78066406 57.44550781 -9.77734375 58.46484375 C-9.77210693 59.38128662 -9.76687012 60.29772949 -9.76147461 61.24194336 C-9.875 63.375 -9.875 63.375 -10.875 64.375 C-13.54558851 64.51615161 -16.19932238 64.41747107 -18.875 64.375 C-18.89818417 57.01221284 -18.91594608 49.64943357 -18.92681217 42.28661728 C-18.9320277 38.86766011 -18.9391012 35.44872794 -18.95043945 32.02978516 C-18.9633967 28.09798483 -18.96823922 24.16619458 -18.97265625 20.234375 C-18.97781754 19.00821472 -18.98297882 17.78205444 -18.98829651 16.51873779 C-18.98837204 15.37785706 -18.98844757 14.23697632 -18.98852539 13.06152344 C-18.990746 12.05780701 -18.99296661 11.05409058 -18.99525452 10.0199585 C-18.88548255 7.60556019 -18.70037693 5.64247175 -17.875 3.375 C-12.4845545 -0.63607224 -6.4183988 -0.07036004 0 0 Z " fill="#ABC338" transform="translate(291.875,221.625)"/>
<path d="M0 0 C0.66 0 1.32 0 2 0 C2 2.31 2 4.62 2 7 C3.0725 6.835 4.145 6.67 5.25 6.5 C20.47097206 4.68540013 20.47097206 4.68540013 25.75 7.4375 C28.32341329 10.3683318 28.26098019 10.94586128 28.140625 14.66015625 C28.1101709 15.87844116 28.1101709 15.87844116 28.07910156 17.12133789 C28.05299805 17.74129639 28.02689453 18.36125488 28 19 C26.17275391 19.05607422 26.17275391 19.05607422 24.30859375 19.11328125 C22.6848671 19.17898117 21.06117051 19.24542709 19.4375 19.3125 C18.63763672 19.33505859 17.83777344 19.35761719 17.01367188 19.38085938 C10.53427449 19.67177109 5.9013411 20.85450989 0.5859375 24.78515625 C-1.56014814 27.78227585 -1.46794849 29.78293427 -1.375 33.4375 C-1.36210937 34.54996094 -1.34921875 35.66242188 -1.3359375 36.80859375 C-1.00625562 39.94057158 -0.4305089 42.20492765 1 45 C1.66 45.33 2.32 45.66 3 46 C1.35 46 -0.3 46 -2 46 C-3.22850645 41.51159349 -3.50349857 37.06557763 -3.8125 32.4375 C-3.88919922 31.57447266 -3.96589844 30.71144531 -4.04492188 29.82226562 C-4.19581601 27.48249748 -4.29892955 25.32609976 -4 23 C-2.01171875 20.91015625 -2.01171875 20.91015625 0 20 C-0.99 19.34 -1.98 18.68 -3 18 C-5.29379749 21.44069624 -6 22.72290301 -6 27 C-6.66 27 -7.32 27 -8 27 C-8 26.34 -8 25.68 -8 25 C-10.64 25 -13.28 25 -16 25 C-13.86597046 23.34019925 -11.82543943 21.90633335 -9.4375 20.625 C-6.62815107 18.75210071 -5.61370263 16.92003333 -4 14 C-3.34 13.67 -2.68 13.34 -2 13 C-1.30662208 9.9600352 -1.30662208 9.9600352 -0.875 6.4375 C-0.70742188 5.23996094 -0.53984375 4.04242188 -0.3671875 2.80859375 C-0.24601562 1.88175781 -0.12484375 0.95492187 0 0 Z " fill="#F6F7F1" transform="translate(322,238)"/>
<path d="M0 0 C0.74507813 0.00451172 1.49015625 0.00902344 2.2578125 0.01367188 C4.0885764 0.02540754 5.91929873 0.0433415 7.75 0.0625 C7.83114106 1.83257714 7.88925505 3.60372098 7.9375 5.375 C7.98970703 6.85419922 7.98970703 6.85419922 8.04296875 8.36328125 C7.75 11.0625 7.75 11.0625 6.48828125 12.85546875 C2.88652377 15.35646439 -0.96377968 15.27320227 -5.25 15.375 C-6.28125 15.41238281 -7.3125 15.44976562 -8.375 15.48828125 C-11.96827615 14.95612486 -13.09402184 13.93713755 -15.25 11.0625 C-15.97592593 5.15138889 -15.97592593 5.15138889 -14 2.1875 C-9.74389146 -0.54856978 -4.88566089 -0.05610741 0 0 Z " fill="#F4F8EB" transform="translate(343.25,263.9375)"/>
<path d="M0 0 C0.94746094 -0.00515625 1.89492188 -0.0103125 2.87109375 -0.015625 C5.6187222 0.25554878 7.16426342 0.96250207 9.5625 2.25 C9.58755615 3.47106445 9.6126123 4.69212891 9.63842773 5.95019531 C9.73263579 10.48269045 9.83282384 15.01503714 9.93481445 19.54736328 C9.9781126 21.50859096 10.01979131 23.4698551 10.05981445 25.43115234 C10.11764099 28.25108828 10.18129984 31.07084161 10.24609375 33.890625 C10.26280624 34.76680481 10.27951874 35.64298462 10.29673767 36.54571533 C10.31668289 37.36626404 10.33662811 38.18681274 10.35717773 39.03222656 C10.37272202 39.75170471 10.3882663 40.47118286 10.40428162 41.21246338 C10.5678942 43.31946646 10.99249531 45.21835737 11.5625 47.25 C9.9125 46.59 8.2625 45.93 6.5625 45.25 C6.8925 31.39 7.2225 17.53 7.5625 3.25 C3.2725 3.25 -1.0175 3.25 -5.4375 3.25 C-6.67497204 6.96241613 -6.59982475 10.41804813 -6.60546875 14.28515625 C-6.60879715 15.07844833 -6.61212555 15.87174042 -6.61555481 16.68907166 C-6.62061845 18.37107769 -6.62296331 20.05309377 -6.62280273 21.73510742 C-6.62497115 24.27865792 -6.64308213 26.82176165 -6.66210938 29.36523438 C-6.68973581 37.59153551 -6.51445386 45.22951018 -4.4375 53.25 C-0.70548075 54.09676067 1.83190301 54.20929637 5.5625 53.25 C5.8925 54.24 6.2225 55.23 6.5625 56.25 C4.5825 56.745 4.5825 56.745 2.5625 57.25 C2.8925 57.91 3.2225 58.57 3.5625 59.25 C5.8765622 59.98075648 8.21078869 60.65138258 10.5625 61.25 C10.5625 61.91 10.5625 62.57 10.5625 63.25 C17.1625 63.58 23.7625 63.91 30.5625 64.25 C30.5625 64.58 30.5625 64.91 30.5625 65.25 C5.83960911 66.18565526 5.83960911 66.18565526 -2.875 58.5 C-8.44253687 52.00832234 -8.88893928 44.87121019 -8.8359375 36.6953125 C-8.83880768 35.71255341 -8.84167786 34.72979431 -8.84463501 33.71725464 C-8.84666537 31.65492166 -8.84120795 29.59256896 -8.82861328 27.53027344 C-8.81244128 24.36350102 -8.82855002 21.19798492 -8.84765625 18.03125 C-8.84567566 16.02343468 -8.84183582 14.01562014 -8.8359375 12.0078125 C-8.84201019 11.05891144 -8.84808289 10.11001038 -8.8543396 9.13235474 C-8.84488312 8.25739349 -8.83542664 7.38243225 -8.82568359 6.48095703 C-8.82329681 5.71010773 -8.82091003 4.93925842 -8.81845093 4.14505005 C-7.91343793 -0.35696007 -3.72568768 -0.02022083 0 0 Z " fill="#ADC43F" transform="translate(421.4375,221.75)"/>
<path d="M0 0 C1.06927734 0.00580078 1.06927734 0.00580078 2.16015625 0.01171875 C7.17687609 0.09426076 11.50680569 0.66893523 16.25 2.25 C16.25 2.91 16.25 3.57 16.25 4.25 C16.848125 4.311875 17.44625 4.37375 18.0625 4.4375 C21.2400288 5.61772498 21.79869656 7.22589815 23.25 10.25 C23.63818359 13.58398438 23.63818359 13.58398438 23.6484375 17.34375 C23.65130768 18.01289429 23.65417786 18.68203857 23.65713501 19.37145996 C23.65916792 20.78003795 23.65369226 22.18864468 23.64111328 23.59716797 C23.62504632 25.74381085 23.64098592 27.88857139 23.66015625 30.03515625 C23.65817368 31.40885829 23.65432971 32.78255917 23.6484375 34.15625 C23.64505371 35.39697266 23.64166992 36.63769531 23.63818359 37.91601562 C23.10998294 42.45256163 21.5921047 45.07057465 18.1875 48.0625 C16.25 49.25 16.25 49.25 14.25 49.25 C14.25 48.26 14.25 47.27 14.25 46.25 C15.57 46.25 16.89 46.25 18.25 46.25 C18.58 45.26 18.91 44.27 19.25 43.25 C19.91 43.25 20.57 43.25 21.25 43.25 C21.19670532 42.13141602 21.19670532 42.13141602 21.14233398 40.99023438 C20.98370093 37.5771079 20.83552024 34.16360254 20.6875 30.75 C20.60338867 28.99042969 20.60338867 28.99042969 20.51757812 27.1953125 C20.25916912 21.06240536 20.23754558 15.3097272 21.25 9.25 C19.93 8.92 18.61 8.59 17.25 8.25 C17.25 7.59 17.25 6.93 17.25 6.25 C16.26 6.25 15.27 6.25 14.25 6.25 C14.25 5.26 14.25 4.27 14.25 3.25 C3.855 3.745 3.855 3.745 -6.75 4.25 C-7.08 4.91 -7.41 5.57 -7.75 6.25 C-6.47382813 6.31058594 -5.19765625 6.37117187 -3.8828125 6.43359375 C-2.21352984 6.51799568 -0.54425963 6.60264386 1.125 6.6875 C1.96675781 6.72681641 2.80851562 6.76613281 3.67578125 6.80664062 C4.48144531 6.84853516 5.28710938 6.89042969 6.1171875 6.93359375 C6.86081543 6.97025146 7.60444336 7.00690918 8.37060547 7.04467773 C10.25 7.25 10.25 7.25 12.25 8.25 C12.25 8.91 12.25 9.57 12.25 10.25 C11.68829102 10.08701416 11.12658203 9.92402832 10.54785156 9.75610352 C8.11446819 9.22014902 5.97377772 9.13638604 3.484375 9.15234375 C2.59492188 9.15556641 1.70546875 9.15878906 0.7890625 9.16210938 C-0.13132812 9.17048828 -1.05171875 9.17886719 -2 9.1875 C-3.40378906 9.19426758 -3.40378906 9.19426758 -4.8359375 9.20117188 C-7.14069041 9.21293082 -9.44531227 9.22936574 -11.75 9.25 C-11.75 6.94 -11.75 4.63 -11.75 2.25 C-8.01692513 -0.1745744 -4.30034726 -0.0556422 0 0 Z " fill="#ADC340" transform="translate(335.75,235.75)"/>
<path d="M0 0 C4.62 0 9.24 0 14 0 C14 4.62 14 9.24 14 14 C9.38 14 4.76 14 0 14 C0 9.38 0 4.76 0 0 Z " fill="#AEC542" transform="translate(481,204)"/>
<path d="M0 0 C1.47906892 -0.02689216 2.95827483 -0.04634621 4.4375 -0.0625 C5.26121094 -0.07410156 6.08492188 -0.08570313 6.93359375 -0.09765625 C9 0 9 0 10 1 C10.14193337 4.00331018 10.04236378 6.99217134 10 10 C13.63 10 17.26 10 21 10 C21 10.33 21 10.66 21 11 C17.04 11 13.08 11 9 11 C9 15.62 9 20.24 9 25 C13.29 25 17.58 25 22 25 C22 25.33 22 25.66 22 26 C18.04 26 14.08 26 10 26 C10 31.28 10 36.56 10 42 C9.67 42 9.34 42 9 42 C8.67 36.72 8.34 31.44 8 26 C2.72 25.67 -2.56 25.34 -8 25 C-8 24.67 -8 24.34 -8 24 C-2.72 24 2.56 24 8 24 C8 20.04 8 16.08 8 12 C6.2984375 12.0309375 6.2984375 12.0309375 4.5625 12.0625 C1 12 1 12 0 11 C-0.07226502 9.14712498 -0.0838122 7.29166122 -0.0625 5.4375 C-0.05347656 4.42558594 -0.04445313 3.41367188 -0.03515625 2.37109375 C-0.02355469 1.58863281 -0.01195312 0.80617187 0 0 Z " fill="#E4EEB4" transform="translate(472,193)"/>
<path d="M0 0 C1.87787986 2.81681979 2.65143573 4.79458015 3.5625 8 C4.33440823 10.68768048 5.11548701 13.34646102 6 16 C7.98 16 9.96 16 12 16 C12.33 14.35 12.66 12.7 13 11 C13.33 11 13.66 11 14 11 C14.1875 13.875 14.1875 13.875 14 17 C10.1496895 19.56687367 8.41430237 18.83288724 4 18 C4 18.99 4 19.98 4 21 C6.64 21 9.28 21 12 21 C11.67 22.65 11.34 24.3 11 26 C10.67 25.34 10.34 24.68 10 24 C8.7625 24.0825 7.525 24.165 6.25 24.25 C3.04759723 24.25565796 2.26654544 24.20341626 -0.375 22.1875 C-3.49229004 17.99114803 -4.41188375 15.19502684 -5 10 C-3.68 10.33 -2.36 10.66 -1 11 C-1 11.66 -1 12.32 -1 13 C-0.34 13 0.32 13 1 13 C0.67 8.71 0.34 4.42 0 0 Z " fill="#A9C32F" transform="translate(376,263)"/>
<path d="M0 0 C5.78461538 3.32307692 5.78461538 3.32307692 6.875 6.75 C6.936875 7.86375 6.936875 7.86375 7 9 C7.66 9 8.32 9 9 9 C9.08112454 11.58396679 9.14054748 14.16537568 9.1875 16.75 C9.21263672 17.47960937 9.23777344 18.20921875 9.26367188 18.9609375 C9.30981636 22.34486604 9.25324128 24.57858557 7.48828125 27.515625 C6.99714844 28.00546875 6.50601562 28.4953125 6 29 C6.00523682 28.44538086 6.01047363 27.89076172 6.01586914 27.31933594 C6.03671031 24.79623557 6.04968282 22.27315336 6.0625 19.75 C6.07087891 18.87730469 6.07925781 18.00460938 6.08789062 17.10546875 C6.09111328 16.26113281 6.09433594 15.41679687 6.09765625 14.546875 C6.10289307 13.77182617 6.10812988 12.99677734 6.11352539 12.19824219 C6.00036998 10.00716402 5.60552448 8.10362139 5 6 C4.34 6 3.68 6 3 6 C2.80574127 8.79134852 2.61930483 11.58283687 2.4375 14.375 C2.38142578 15.1690625 2.32535156 15.963125 2.26757812 16.78125 C1.84647196 21.01590885 1.84647196 21.01590885 3 25 C0.625 26.5625 0.625 26.5625 -2 28 C-2.66 27.67 -3.32 27.34 -4 27 C-3.34 26.34 -2.68 25.68 -2 25 C-1.67931474 22.00963993 -1.67931474 22.00963993 -1.75 18.625 C-1.74484375 17.48289063 -1.7396875 16.34078125 -1.734375 15.1640625 C-1.98926032 12.12792851 -2.29720555 10.4860799 -4 8 C-4.99 7.34 -5.98 6.68 -7 6 C-6.21625 5.938125 -5.4325 5.87625 -4.625 5.8125 C-3.75875 5.544375 -2.8925 5.27625 -2 5 C-0.62533375 2.52363988 -0.62533375 2.52363988 0 0 Z " fill="#ADC537" transform="translate(311,225)"/>
<path d="M0 0 C1.32 0.66 2.64 1.32 4 2 C4.09038099 7.15171623 3.84681133 11.91913204 3 17 C2.01 17 1.02 17 0 17 C0 18.98 0 20.96 0 23 C-0.99 22.67 -1.98 22.34 -3 22 C-3 21.34 -3 20.68 -3 20 C-3.66 20 -4.32 20 -5 20 C-4.33333333 17.33333333 -3.66666667 14.66666667 -3 12 C-5.64 12 -8.28 12 -11 12 C-11 11.01 -11 10.02 -11 9 C-9.88625 9.020625 -8.7725 9.04125 -7.625 9.0625 C-4.16784079 9.26380718 -4.16784079 9.26380718 -2 8 C-1.31527335 6.11235097 -1.31527335 6.11235097 -0.875 3.9375 C-0.70742188 3.20402344 -0.53984375 2.47054688 -0.3671875 1.71484375 C-0.24601562 1.14894531 -0.12484375 0.58304687 0 0 Z " fill="#A5C215" transform="translate(391,272)"/>
<path d="M0 0 C4.95 0 9.9 0 15 0 C15 5.28 15 10.56 15 16 C13.02 16 11.04 16 9 16 C9 12.37 9 8.74 9 5 C6.03 4.01 3.06 3.02 0 2 C0 1.34 0 0.68 0 0 Z " fill="#A5C216" transform="translate(464,219)"/>
<path d="M0 0 C0.99 0 1.98 0 3 0 C2.67 19.47 2.34 38.94 2 59 C1.34 59 0.68 59 0 59 C0 39.53 0 20.06 0 0 Z " fill="#F4FCCE" transform="translate(271,227)"/>
<path d="M0 0 C0.66 0 1.32 0 2 0 C2.0093457 1.28052246 2.01869141 2.56104492 2.02832031 3.88037109 C2.06845203 8.67042734 2.13427398 13.45985689 2.20751953 18.24951172 C2.23559538 20.3151845 2.25687591 22.38096203 2.27099609 24.44677734 C2.29261193 27.43120443 2.33935624 30.41438954 2.390625 33.3984375 C2.39246796 34.76468765 2.39246796 34.76468765 2.39434814 36.15853882 C2.5430046 42.79394667 4.18198621 48.0086226 7 54 C2.125 52.125 2.125 52.125 1 51 C0.0111039 44.91128126 -0.1329998 38.97062212 -0.09765625 32.8125 C-0.0962413 31.86938965 -0.09482635 30.9262793 -0.09336853 29.95458984 C-0.0878124 26.96969303 -0.07526823 23.98487379 -0.0625 21 C-0.05747932 18.96484484 -0.05291741 16.92968849 -0.04882812 14.89453125 C-0.03785737 9.92965803 -0.02062339 4.96484213 0 0 Z " fill="#E8F1BA" transform="translate(411,225)"/>
<path d="M0 0 C2.64 0 5.28 0 8 0 C7.67 0.99 7.34 1.98 7 3 C5.02 2.34 3.04 1.68 1 1 C2.53943885 9.36428441 4.0763832 17.71365072 6 26 C5.34 26.33 4.68 26.66 4 27 C2.38935371 23.34920174 1.55105909 19.9492568 1 16 C0.34 16 -0.32 16 -1 16 C-1.33 23.26 -1.66 30.52 -2 38 C-2.33 38 -2.66 38 -3 38 C-3.02505615 37.13721436 -3.0501123 36.27442871 -3.07592773 35.38549805 C-3.17111385 32.18176231 -3.27034444 28.97818463 -3.37231445 25.7746582 C-3.41560218 24.38864017 -3.45728164 23.00257094 -3.49731445 21.61645508 C-3.55516584 19.62308202 -3.61929776 17.62989435 -3.68359375 15.63671875 C-3.72025146 14.43748779 -3.75690918 13.23825684 -3.79467773 12.00268555 C-3.87733025 8.95005651 -3.87733025 8.95005651 -5 6 C-4.01 6.33 -3.02 6.66 -2 7 C-1.34 4.69 -0.68 2.38 0 0 Z " fill="#E8F1BF" transform="translate(362,237)"/>
<path d="M0 0 C5.75 -0.125 5.75 -0.125 8 1 C8 4.96 8 8.92 8 13 C5.66705225 13.04241723 3.33297433 13.04092937 1 13 C0 12 0 12 -0.09765625 9.27734375 C-0.08605469 8.17519531 -0.07445312 7.07304687 -0.0625 5.9375 C-0.05347656 4.83277344 -0.04445313 3.72804687 -0.03515625 2.58984375 C-0.02355469 1.73519531 -0.01195312 0.88054687 0 0 Z " fill="#F4F9E3" transform="translate(463,223)"/>
<path d="M0 0 C1.66611905 -0.042721 3.33382885 -0.04063832 5 0 C6 1 6 1 6.06591797 4.84545898 C6.0453427 6.56238986 6.02044432 8.27927212 5.9921875 9.99609375 C5.97467123 11.85220808 5.95776295 13.70832822 5.94140625 15.56445312 C5.91040435 18.50545107 5.87486376 21.44616293 5.82861328 24.38696289 C5.78640666 27.21504361 5.7628692 30.04278497 5.7421875 32.87109375 C5.72356659 33.75445908 5.70494568 34.6378244 5.6857605 35.54795837 C5.63886896 38.27832528 5.63886896 38.27832528 6 42 C6.99 42.66 7.98 43.32 9 44 C8.34 44 7.68 44 7 44 C7 44.66 7 45.32 7 46 C12.28 46 17.56 46 23 46 C22.34 46.99 21.68 47.98 21 49 C18.3203125 49.3984375 18.3203125 49.3984375 15.125 49.375 C14.07570313 49.38273437 13.02640625 49.39046875 11.9453125 49.3984375 C8.68125057 48.95688005 7.32101971 48.29942883 5 46 C4.08964496 43.26893489 3.87784287 41.70106761 3.88647461 38.89575195 C3.88655014 38.07512772 3.88662567 37.25450348 3.88670349 36.40901184 C3.89186478 35.52767075 3.89702606 34.64632965 3.90234375 33.73828125 C3.90446617 32.37959175 3.90446617 32.37959175 3.90663147 30.99345398 C3.91222999 28.09976909 3.92478219 25.20616151 3.9375 22.3125 C3.94251519 20.35091258 3.94707807 18.38932394 3.95117188 16.42773438 C3.96219893 11.61845979 3.97946253 6.809243 4 2 C2.68 1.67 1.36 1.34 0 1 C0 0.67 0 0.34 0 0 Z " fill="#ECF5C0" transform="translate(427,222)"/>
<path d="M0 0 C2 1 2 1 2.74609375 2.64453125 C4.53074902 8.24048422 5.97259156 13.86040971 7.25390625 19.59375 C7.50011719 20.3878125 7.74632812 21.181875 8 22 C8.66 22.33 9.32 22.66 10 23 C10 24.65 10 26.3 10 28 C10.66 28 11.32 28 12 28 C11.67 29.98 11.34 31.96 11 34 C11.99 34 12.98 34 14 34 C14 33.01 14 32.02 14 31 C14.66 31 15.32 31 16 31 C16.66 29.68 17.32 28.36 18 27 C17.125 32.75 17.125 32.75 16 35 C14.02 35 12.04 35 10 35 C7.30936226 29.34966075 5.65253124 23.54414169 3.984375 17.51953125 C2.91058411 13.68030271 1.73334379 9.88159287 0.515625 6.0859375 C0 4 0 4 0 0 Z " fill="#EEF6C9" transform="translate(372,244)"/>
<path d="M0 0 C0.33 0 0.66 0 1 0 C1 6.6 1 13.2 1 20 C7.93 20.33 14.86 20.66 22 21 C22.33 20.01 22.66 19.02 23 18 C24.32 18.33 25.64 18.66 27 19 C25.84643555 20.97558594 25.84643555 20.97558594 24 23 C21.45629883 23.45410156 21.45629883 23.45410156 18.45703125 23.390625 C17.38388672 23.37773437 16.31074219 23.36484375 15.20507812 23.3515625 C14.08552734 23.31804687 12.96597656 23.28453125 11.8125 23.25 C10.68134766 23.23195312 9.55019531 23.21390625 8.38476562 23.1953125 C5.58948369 23.14813475 2.79463616 23.07639097 0 23 C0 15.41 0 7.82 0 0 Z " fill="#F1F9CA" transform="translate(282,232)"/>
<path d="M0 0 C2.56800144 -0.08029861 5.092363 -0.02192966 7.65869141 0.10009766 C8.55136719 0.12265625 9.44404297 0.14521484 10.36376953 0.16845703 C12.56793413 0.22739191 14.76871812 0.30958948 16.97119141 0.41259766 C15.92041016 2.39697266 15.92041016 2.39697266 13.97119141 4.41259766 C10.61572266 4.80322266 10.61572266 4.80322266 6.78369141 4.66259766 C4.87523437 4.60845703 4.87523437 4.60845703 2.92822266 4.55322266 C1.46449219 4.48361328 1.46449219 4.48361328 -0.02880859 4.41259766 C-0.02880859 5.07259766 -0.02880859 5.73259766 -0.02880859 6.41259766 C-1.67880859 6.08259766 -3.32880859 5.75259766 -5.02880859 5.41259766 C-3.97300697 2.48493812 -3.20332093 0.65145757 0 0 Z " fill="#A5C216" transform="translate(332.02880859375,258.58740234375)"/>
<path d="M0 0 C5 1 5 1 7 3 C7.625 5.125 7.625 5.125 8 7 C8.66 6.67 9.32 6.34 10 6 C10 7.65 10 9.3 10 11 C6.7 11 3.4 11 0 11 C0 7.37 0 3.74 0 0 Z " fill="#A5C215" transform="translate(483,205)"/>
<path d="M0 0 C0.33 0 0.66 0 1 0 C1 4.95 1 9.9 1 15 C0.01 15.33 -0.98 15.66 -2 16 C-2 16.66 -2 17.32 -2 18 C-2.66 18 -3.32 18 -4 18 C-4.33 18.66 -4.66 19.32 -5 20 C-5.08150744 17.93816367 -5.1394194 15.87538651 -5.1875 13.8125 C-5.22230469 12.66394531 -5.25710938 11.51539063 -5.29296875 10.33203125 C-4.88827165 5.72927618 -3.21682591 3.21682591 0 0 Z " fill="#A5C117" transform="translate(401,246)"/>
<path d="M0 0 C0.66 0 1.32 0 2 0 C4.4223898 3.75854925 4.2671569 7.17462374 4.25 11.5625 C4.25773437 12.23474609 4.26546875 12.90699219 4.2734375 13.59960938 C4.25880148 17.28422836 4.09589902 18.85615148 2 22 C1.67 20.02 1.34 18.04 1 16 C0.01 16.66 -0.98 17.32 -2 18 C-1.03644647 5.33029613 -1.03644647 5.33029613 0 0 Z " fill="#A4C215" transform="translate(314,231)"/>
<path d="M0 0 C2.97 0 5.94 0 9 0 C9.09765625 6.15234375 9.09765625 6.15234375 9 8 C8 9 8 9 6.15234375 9.09765625 C4.1015625 9.06510417 2.05078125 9.03255208 0 9 C0 6.03 0 3.06 0 0 Z " fill="#ABC03D" transform="translate(472,195)"/>
<path d="M0 0 C0.33 0 0.66 0 1 0 C3.17239842 29.47777542 3.17239842 29.47777542 -2 37 C-4.64 36.34 -7.28 35.68 -10 35 C-9.236875 34.443125 -8.47375 33.88625 -7.6875 33.3125 C-4.10320708 30.22834098 -1.201554 26.38557495 -0.79467773 21.56982422 C-0.75802002 20.5748291 -0.7213623 19.57983398 -0.68359375 18.5546875 C-0.64169922 17.47832031 -0.59980469 16.40195312 -0.55664062 15.29296875 C-0.51732422 14.16503906 -0.47800781 13.03710938 -0.4375 11.875 C-0.39431641 10.73933594 -0.35113281 9.60367187 -0.30664062 8.43359375 C-0.2003396 5.62252232 -0.09830595 2.81136055 0 0 Z " fill="#F6F9E8" transform="translate(360,251)"/>
<path d="M0 0 C1.65 0.33 3.3 0.66 5 1 C5 1.66 5 2.32 5 3 C5.99 3.33 6.98 3.66 8 4 C7.34 5.32 6.68 6.64 6 8 C4.02 8 2.04 8 0 8 C0 8.66 0 9.32 0 10 C-0.66 10 -1.32 10 -2 10 C-2 9.34 -2 8.68 -2 8 C-2.99 7.67 -3.98 7.34 -5 7 C-5.33 6.01 -5.66 5.02 -6 4 C-5 3 -5 3 -2.4375 2.9375 C-1.2309375 2.9684375 -1.2309375 2.9684375 0 3 C0 2.01 0 1.02 0 0 Z " fill="#F6F7EE" transform="translate(456,214)"/>
<path d="M0 0 C1.32 0 2.64 0 4 0 C5.29758261 2.59516521 5.13269102 4.54183027 5.125 7.4375 C5.12757813 8.40558594 5.13015625 9.37367188 5.1328125 10.37109375 C5 13 5 13 4 16 C3.34 16 2.68 16 2 16 C2 14.02 2 12.04 2 10 C1.01 10 0.02 10 -1 10 C-1.02689216 8.52093108 -1.04634621 7.04172517 -1.0625 5.5625 C-1.07410156 4.73878906 -1.08570313 3.91507812 -1.09765625 3.06640625 C-1 1 -1 1 0 0 Z " fill="#A5C215" transform="translate(322,264)"/>
<path d="M0 0 C0.79019531 0.03609375 1.58039063 0.0721875 2.39453125 0.109375 C3.28205078 0.17898438 3.28205078 0.17898438 4.1875 0.25 C3.29611328 0.683125 3.29611328 0.683125 2.38671875 1.125 C-3.06175482 3.7846201 -3.06175482 3.7846201 -6.8125 8.25 C-6.93577929 10.35148182 -6.98808006 12.45743907 -7 14.5625 C-7.01417969 15.69300781 -7.02835937 16.82351563 -7.04296875 17.98828125 C-6.81515899 21.21236847 -6.29535228 23.39355823 -4.8125 26.25 C-4.1525 26.58 -3.4925 26.91 -2.8125 27.25 C-4.4625 27.25 -6.1125 27.25 -7.8125 27.25 C-9.02832467 22.78143318 -9.35406343 18.35559259 -9.6875 13.75 C-9.77257812 12.89535156 -9.85765625 12.04070312 -9.9453125 11.16015625 C-10.37427759 4.91091481 -10.37427759 4.91091481 -7.62109375 1.671875 C-4.73015726 0.20831327 -3.1942778 -0.19070315 0 0 Z " fill="#F2F6DF" transform="translate(327.8125,256.75)"/>
<path d="M0 0 C0.74507813 0.00902344 1.49015625 0.01804688 2.2578125 0.02734375 C4.08868059 0.05081642 5.91938238 0.08668475 7.75 0.125 C7.75 0.455 7.75 0.785 7.75 1.125 C6.70199219 1.13917969 5.65398437 1.15335938 4.57421875 1.16796875 C3.19526858 1.21487182 1.81636367 1.26311921 0.4375 1.3125 C-0.59793945 1.32120117 -0.59793945 1.32120117 -1.65429688 1.33007812 C-3.9516326 1.37890458 -3.9516326 1.37890458 -7.25 2.125 C-9.29478968 4.52813516 -9.29478968 4.52813516 -10.25 7.125 C-9.65461426 7.11976318 -9.05922852 7.11452637 -8.44580078 7.10913086 C-5.75554453 7.08838001 -3.06530511 7.07534593 -0.375 7.0625 C0.56214844 7.05412109 1.49929688 7.04574219 2.46484375 7.03710938 C3.80869141 7.03227539 3.80869141 7.03227539 5.1796875 7.02734375 C6.42081299 7.01948853 6.42081299 7.01948853 7.68701172 7.01147461 C9.75 7.125 9.75 7.125 11.75 8.125 C11.75 8.785 11.75 9.445 11.75 10.125 C11.18829102 9.96201416 10.62658203 9.79902832 10.04785156 9.63110352 C7.61446819 9.09514902 5.47377772 9.01138604 2.984375 9.02734375 C2.09492188 9.03056641 1.20546875 9.03378906 0.2890625 9.03710938 C-0.63132812 9.04548828 -1.55171875 9.05386719 -2.5 9.0625 C-3.90378906 9.06926758 -3.90378906 9.06926758 -5.3359375 9.07617188 C-7.64069041 9.08793082 -9.94531227 9.10436574 -12.25 9.125 C-12.25 6.815 -12.25 4.505 -12.25 2.125 C-8.4084024 -0.44280471 -4.4360825 -0.10188882 0 0 Z " fill="#B9CA61" transform="translate(336.25,235.875)"/>
<path d="M0 0 C0.33 0 0.66 0 1 0 C1.08160748 1.89510699 1.13946459 3.79124504 1.1875 5.6875 C1.22230469 6.74324219 1.25710938 7.79898437 1.29296875 8.88671875 C0.96296914 12.39351461 -0.11115271 14.08175522 -2 17 C-2.25461864 18.97329444 -2.5065165 20.94792938 -2.68359375 22.9296875 C-3.1915751 26.25351606 -4.55267399 28.97949354 -6 32 C-6.66 32 -7.32 32 -8 32 C-7.71515154 30.26969709 -7.42180062 28.54079286 -7.125 26.8125 C-6.96257812 25.84957031 -6.80015625 24.88664062 -6.6328125 23.89453125 C-6.0150461 21.06882197 -5.07210776 18.6802694 -4 16 C-3.21959787 13.24653926 -2.54621744 10.46932338 -1.875 7.6875 C-1.69324219 6.94693359 -1.51148438 6.20636719 -1.32421875 5.44335938 C-0.8795787 3.629696 -0.43934255 1.81495392 0 0 Z " fill="#E5EFB7" transform="translate(402,259)"/>
<path d="M0 0 C2.375 -0.1875 2.375 -0.1875 5 0 C5.66 0.99 6.32 1.98 7 3 C7.99 3.33 8.98 3.66 10 4 C10.6875 6.0625 10.6875 6.0625 11 8 C9.68 8.33 8.36 8.66 7 9 C6.67 8.34 6.34 7.68 6 7 C5.67 7.66 5.34 8.32 5 9 C3.68 9 2.36 9 1 9 C0.67 6.03 0.34 3.06 0 0 Z " fill="#F7F5FA" transform="translate(339,246)"/>
<path d="M0 0 C0.66022156 0.0028299 1.32044312 0.00565979 2.00067139 0.00857544 C4.09959397 0.01972835 6.19808242 0.04482304 8.296875 0.0703125 C9.72395215 0.08034866 11.15103602 0.0894734 12.578125 0.09765625 C16.06784828 0.11965139 19.55731923 0.15414714 23.046875 0.1953125 C23.541875 1.6803125 23.541875 1.6803125 24.046875 3.1953125 C24.706875 3.1953125 25.366875 3.1953125 26.046875 3.1953125 C26.046875 3.8553125 26.046875 4.5153125 26.046875 5.1953125 C24.44392578 4.70804688 24.44392578 4.70804688 22.80859375 4.2109375 C17.18479691 2.80901325 11.62468387 2.90305 5.859375 2.9453125 C4.79267578 2.93757812 3.72597656 2.92984375 2.62695312 2.921875 C1.08104492 2.92574219 1.08104492 2.92574219 -0.49609375 2.9296875 C-1.42446045 2.93194336 -2.35282715 2.93419922 -3.30932617 2.93652344 C-6.17079297 3.216619 -8.34747527 4.00843507 -10.953125 5.1953125 C-10.953125 4.2053125 -10.953125 3.2153125 -10.953125 2.1953125 C-7.31095805 -0.10291075 -4.24487493 -0.03597352 0 0 Z " fill="#F0F6D0" transform="translate(285.953125,219.8046875)"/>
<path d="M0 0 C0.33 0.99 0.66 1.98 1 3 C1.66 3.33 2.32 3.66 3 4 C2.125 8.875 2.125 8.875 1 10 C-1.01964199 10.07244053 -3.04167124 10.08377188 -5.0625 10.0625 C-6.16722656 10.05347656 -7.27195312 10.04445313 -8.41015625 10.03515625 C-9.69212891 10.01775391 -9.69212891 10.01775391 -11 10 C-11 8.68 -11 7.36 -11 6 C-9.3603125 6.0928125 -9.3603125 6.0928125 -7.6875 6.1875 C-4.12317404 6.33352473 -4.12317404 6.33352473 -2.125 4.6875 C-0.81453877 2.88214533 -0.81453877 2.88214533 0 0 Z " fill="#A5C114" transform="translate(385,293)"/>
<path d="M0 0 C0.74507813 0.00451172 1.49015625 0.00902344 2.2578125 0.01367188 C4.0885764 0.02540754 5.91929873 0.0433415 7.75 0.0625 C7.75 3.6925 7.75 7.3225 7.75 11.0625 C7.42 11.0625 7.09 11.0625 6.75 11.0625 C6.75 7.7625 6.75 4.4625 6.75 1.0625 C3.76937854 1.34295888 0.79103028 1.63627505 -2.1875 1.9375 C-3.46270508 2.05544922 -3.46270508 2.05544922 -4.76367188 2.17578125 C-5.97700195 2.30146484 -5.97700195 2.30146484 -7.21484375 2.4296875 C-8.33814087 2.53966064 -8.33814087 2.53966064 -9.48413086 2.65185547 C-10.06686768 2.78736816 -10.64960449 2.92288086 -11.25 3.0625 C-11.58 3.7225 -11.91 4.3825 -12.25 5.0625 C-11.26 5.3925 -10.27 5.7225 -9.25 6.0625 C-10.2090625 6.43375 -10.2090625 6.43375 -11.1875 6.8125 C-13.43741541 7.87812433 -13.43741541 7.87812433 -14 10.1875 C-14.0825 10.80625 -14.165 11.425 -14.25 12.0625 C-15.25 11.0625 -15.25 11.0625 -15.5 7.6875 C-15.25 4.0625 -15.25 4.0625 -14 2.1875 C-9.74389146 -0.54856978 -4.88566089 -0.05610741 0 0 Z " fill="#E3EEB6" transform="translate(343.25,263.9375)"/>
<path d="M0 0 C0.99 0.33 1.98 0.66 3 1 C-0.6441774 3.4294516 -2.71241272 3.16179575 -7 3 C-6.67 5.31 -6.34 7.62 -6 10 C-4.58344207 10.0272415 -3.16672955 10.04650467 -1.75 10.0625 C-0.96109375 10.07410156 -0.1721875 10.08570313 0.640625 10.09765625 C2.90691002 10.00385306 4.8288895 9.63241063 7 9 C7 9.66 7 10.32 7 11 C3.05852191 14.10540698 -0.05881007 14.5490211 -5 14 C-7.33409018 12.32186022 -7.92631805 11.35716059 -8.51171875 8.51953125 C-8.56972656 7.62621094 -8.62773437 6.73289062 -8.6875 5.8125 C-8.75324219 4.91144531 -8.81898438 4.01039063 -8.88671875 3.08203125 C-8.92410156 2.39496094 -8.96148437 1.70789063 -9 1 C-7.700625 1.020625 -6.40125 1.04125 -5.0625 1.0625 C-3.70834367 1.08399454 -2.35243917 1.07148199 -1 1 C-0.67 0.67 -0.34 0.34 0 0 Z " fill="#EDF5C3" transform="translate(379,294)"/>
<path d="M0 0 C0.99 0 1.98 0 3 0 C3.96070434 2.88211302 4.10581883 4.69850044 4.0625 7.6875 C4.05347656 8.49574219 4.04445313 9.30398438 4.03515625 10.13671875 C4.02355469 10.75160156 4.01195312 11.36648438 4 12 C3.34 12 2.68 12 2 12 C2 11.34 2 10.68 2 10 C0.68 9.67 -0.64 9.34 -2 9 C-2.125 5.625 -2.125 5.625 -2 2 C-1.34 1.34 -0.68 0.68 0 0 Z " fill="#A4C216" transform="translate(373,264)"/>
<path d="M0 0 C0.99 0 1.98 0 3 0 C4.6290678 4.79137588 5.20577428 8.05632546 4 13 C3.01 13 2.02 13 1 13 C-1.42857143 4.57142857 -1.42857143 4.57142857 0 0 Z " fill="#A5C216" transform="translate(365,239)"/>
<path d="M0 0 C0.99 0 1.98 0 3 0 C3.63625998 9.26111745 3.63625998 9.26111745 1.0625 12.25 C0.381875 12.8275 -0.29875 13.405 -1 14 C-1.80315654 17.14481791 -1.80315654 17.14481791 -2 20 C-2.66 19.67 -3.32 19.34 -4 19 C-2.02 9.595 -2.02 9.595 0 0 Z " fill="#F3F8DE" transform="translate(407,238)"/>
<path d="M0 0 C2.64 0 5.28 0 8 0 C7.54775239 5.91492272 6.8417395 11.35199888 5 17 C4.67 17 4.34 17 4 17 C4 14.03 4 11.06 4 8 C4.66 8 5.32 8 6 8 C6 6.02 6 4.04 6 2 C4.02 2.33 2.04 2.66 0 3 C-0.33 5.31 -0.66 7.62 -1 10 C-1.33 10 -1.66 10 -2 10 C-1.125 2.25 -1.125 2.25 0 0 Z " fill="#AFC24D" transform="translate(399,238)"/>
<path d="M0 0 C10.625 -0.25 10.625 -0.25 14 2 C14 2.66 14 3.32 14 4 C10.04 3.67 6.08 3.34 2 3 C1.67 7.29 1.34 11.58 1 16 C0.67 16 0.34 16 0 16 C0 10.72 0 5.44 0 0 Z " fill="#F6FBE7" transform="translate(482,219)"/>
<path d="M0 0 C0 0.66 0 1.32 0 2 C-2.31 2.33 -4.62 2.66 -7 3 C-7 4.32 -7 5.64 -7 7 C-6.0925 6.79375 -5.185 6.5875 -4.25 6.375 C-0.88972103 5.9872755 0.24075815 6.19588033 3 8 C0.6203388 9.1898306 -0.91485735 9.13349966 -3.5625 9.125 C-4.77099609 9.12886719 -4.77099609 9.12886719 -6.00390625 9.1328125 C-8 9 -8 9 -9 8 C-9.04092937 5.66702567 -9.04241723 3.33294775 -9 1 C-2.25 0 -2.25 0 0 0 Z " fill="#AFC24D" transform="translate(381,296)"/>
<path d="M0 0 C0.61875 0.144375 1.2375 0.28875 1.875 0.4375 C6.22537017 1.22056663 10.60021907 1.59846659 15 2 C15 3.32 15 4.64 15 6 C12.36 5.67 9.72 5.34 7 5 C7 4.34 7 3.68 7 3 C5.02 3.33 3.04 3.66 1 4 C0.67 2.68 0.34 1.36 0 0 Z " fill="#A4C30D" transform="translate(327,279)"/>
<path d="M0 0 C0.66 0 1.32 0 2 0 C2.17443566 4.39533148 2.28090701 8.78977266 2.375 13.1875 C2.45041016 15.05631836 2.45041016 15.05631836 2.52734375 16.96289062 C2.67223516 25.97030646 2.67223516 25.97030646 0.70800781 28.97900391 C-1.40821372 30.80255651 -3.14901311 32 -6 32 C-6 31.01 -6 30.02 -6 29 C-4.68 29 -3.36 29 -2 29 C-1.67 28.01 -1.34 27.02 -1 26 C-0.34 26 0.32 26 1 26 C0.67 17.42 0.34 8.84 0 0 Z " fill="#A2BD27" transform="translate(356,253)"/>
<path d="M0 0 C0.33 0.66 0.66 1.32 1 2 C3.31 2 5.62 2 8 2 C8 2.33 8 2.66 8 3 C5.69 3 3.38 3 1 3 C0.73445313 4.27617187 0.46890625 5.55234375 0.1953125 6.8671875 C-0.16106655 8.53654202 -0.51785884 10.20580836 -0.875 11.875 C-1.04902344 12.71675781 -1.22304688 13.55851563 -1.40234375 14.42578125 C-1.57636719 15.23144531 -1.75039063 16.03710938 -1.9296875 16.8671875 C-2.16534424 17.98262939 -2.16534424 17.98262939 -2.40576172 19.12060547 C-3 21 -3 21 -5 23 C-5 20.36 -5 17.72 -5 15 C-4.34 15 -3.68 15 -3 15 C-2.67 11.37 -2.34 7.74 -2 4 C-1.34 4 -0.68 4 0 4 C-0.33 3.01 -0.66 2.02 -1 1 C-0.67 0.67 -0.34 0.34 0 0 Z " fill="#E9F1C5" transform="translate(398,235)"/>
<path d="M0 0 C1.65 0 3.3 0 5 0 C4.3125 2.4375 4.3125 2.4375 3 5 C-0.49018661 6.03543338 -3.68779828 6.06906325 -7.30078125 5.87890625 C-8.27724609 5.83056641 -9.25371094 5.78222656 -10.25976562 5.73242188 C-11.77086914 5.64831055 -11.77086914 5.64831055 -13.3125 5.5625 C-14.33923828 5.51029297 -15.36597656 5.45808594 -16.42382812 5.40429688 C-18.94956087 5.27507334 -21.47485261 5.14012709 -24 5 C-24 4.67 -24 4.34 -24 4 C-16.08 4 -8.16 4 0 4 C0 2.68 0 1.36 0 0 Z " fill="#A5BF27" transform="translate(306,225)"/>
<path d="M0 0 C0.99 0 1.98 0 3 0 C3 0.99 3 1.98 3 3 C4.32 3 5.64 3 7 3 C7.33 2.01 7.66 1.02 8 0 C8.33 0.99 8.66 1.98 9 3 C10.32 2.67 11.64 2.34 13 2 C13 2.99 13 3.98 13 5 C7.06 5 1.12 5 -5 5 C-5 4.67 -5 4.34 -5 4 C-3.02 4 -1.04 4 1 4 C0.67 2.68 0.34 1.36 0 0 Z " fill="#F1F8D1" transform="translate(337,252)"/>
<path d="M0 0 C0.6875 1.6875 0.6875 1.6875 1 4 C0.03114628 5.68496298 -0.96986723 7.35178756 -2 9 C-2 10.32 -2 11.64 -2 13 C-2.66 13 -3.32 13 -4 13 C-4 12.34 -4 11.68 -4 11 C-6.64 11 -9.28 11 -12 11 C-9.86597046 9.34019925 -7.82543943 7.90633335 -5.4375 6.625 C-2.63893106 4.75928737 -1.52128014 2.96249289 0 0 Z " fill="#EAF1C6" transform="translate(318,252)"/>
<path d="M0 0 C3 2 3 2 3.6953125 4.75 C3.83710938 5.8225 3.97890625 6.895 4.125 8 C4.60475056 12.14083209 4.60475056 12.14083209 6 16 C3.625 17.5625 3.625 17.5625 1 19 C0.34 18.67 -0.32 18.34 -1 18 C-0.34 17.34 0.32 16.68 1 16 C1.28222404 12.97457391 1.28222404 12.97457391 1.1875 9.5625 C1.18105469 8.40878906 1.17460937 7.25507813 1.16796875 6.06640625 C1.13302925 2.9593109 1.13302925 2.9593109 0 0 Z " fill="#C3D66A" transform="translate(308,234)"/>
<path d="M0 0 C1.49080078 0.02707031 1.49080078 0.02707031 3.01171875 0.0546875 C3.77097656 0.07789063 4.53023438 0.10109375 5.3125 0.125 C5.3125 0.455 5.3125 0.785 5.3125 1.125 C4.37277344 1.21587891 4.37277344 1.21587891 3.4140625 1.30859375 C2.59679687 1.39238281 1.77953125 1.47617188 0.9375 1.5625 C0.12539063 1.64371094 -0.68671875 1.72492188 -1.5234375 1.80859375 C-3.73022805 2.01590114 -3.73022805 2.01590114 -5.6875 3.125 C-6.87445553 6.68586658 -7.03845418 10.09831024 -7.25 13.8125 C-7.29318359 14.51439453 -7.33636719 15.21628906 -7.38085938 15.93945312 C-7.4866736 17.66775206 -7.58756581 19.3963511 -7.6875 21.125 C-8.0175 21.125 -8.3475 21.125 -8.6875 21.125 C-8.77437496 18.00017438 -8.82784568 14.87565754 -8.875 11.75 C-8.90013672 10.86054688 -8.92527344 9.97109375 -8.95117188 9.0546875 C-8.96083984 8.20390625 -8.97050781 7.353125 -8.98046875 6.4765625 C-8.9961792 5.69104004 -9.01188965 4.90551758 -9.02807617 4.09619141 C-8.91568604 3.44569824 -8.8032959 2.79520508 -8.6875 2.125 C-5.26655758 -0.15562828 -4.00562778 -0.09425007 0 0 Z " fill="#B2C64B" transform="translate(421.6875,221.875)"/>
<path d="M0 0 C0.98097656 0.31710937 1.96195312 0.63421875 2.97265625 0.9609375 C7.11926782 2.14568366 11.14539137 2.4365085 15.4375 2.625 C16.53481445 2.68300781 16.53481445 2.68300781 17.65429688 2.7421875 C19.43583532 2.83533984 21.21788122 2.91870286 23 3 C23 3.33 23 3.66 23 4 C7.02573529 6.32352941 7.02573529 6.32352941 0 2 C0 1.34 0 0.68 0 0 Z " fill="#EFF7CF" transform="translate(425,284)"/>
<path d="M0 0 C1.98 0 3.96 0 6 0 C6 0.66 6 1.32 6 2 C5.01 2 4.02 2 3 2 C3 2.66 3 3.32 3 4 C3.99 4 4.98 4 6 4 C6 4.99 6 5.98 6 7 C4.02 7 2.04 7 0 7 C0 4.69 0 2.38 0 0 Z " fill="#A5C213" transform="translate(473,196)"/>
<path d="M0 0 C12.66970387 -0.738041 12.66970387 -0.738041 18 4 C17.67 5.32 17.34 6.64 17 8 C16.67 7.34 16.34 6.68 16 6 C15.01 6 14.02 6 13 6 C12.67 4.68 12.34 3.36 12 2 C8.04 1.67 4.08 1.34 0 1 C0 0.67 0 0.34 0 0 Z " fill="#EEF4C7" transform="translate(332,244)"/>
<path d="M0 0 C0.66 0.33 1.32 0.66 2 1 C1.5 2.8125 1.5 2.8125 0 5 C-4.14625912 7.22686726 -8.26918678 8.44351374 -13 8 C-12.42636719 7.72285156 -11.85273438 7.44570313 -11.26171875 7.16015625 C-9.03373807 6.01730606 -6.93194736 4.76961044 -4.8125 3.4375 C-4.11769531 3.00308594 -3.42289062 2.56867188 -2.70703125 2.12109375 C-1.04366897 1.11129361 -1.04366897 1.11129361 0 0 Z " fill="#E5EEB7" transform="translate(466,278)"/>
<path d="M0 0 C1.80476105 3.25641668 2.73948805 6.45336795 3.625 10.0625 C4.01558594 11.62677734 4.01558594 11.62677734 4.4140625 13.22265625 C5 16 5 16 5 19 C4.34 18.67 3.68 18.34 3 18 C3 16.02 3 14.04 3 12 C2.34 12 1.68 12 1 12 C0.03929566 9.11788698 -0.10581883 7.30149956 -0.0625 4.3125 C-0.05347656 3.50425781 -0.04445313 2.69601562 -0.03515625 1.86328125 C-0.02355469 1.24839844 -0.01195312 0.63351562 0 0 Z " fill="#E6F0BC" transform="translate(368,264)"/>
<path d="M0 0 C0.33 0.99 0.66 1.98 1 3 C1.66 3.33 2.32 3.66 3 4 C2.67 5.65 2.34 7.3 2 9 C0.35 9.33 -1.3 9.66 -3 10 C-2.01 6.7 -1.02 3.4 0 0 Z " fill="#A7C124" transform="translate(385,293)"/>
<path d="M0 0 C0.66 0 1.32 0 2 0 C2 4.29 2 8.58 2 13 C0.35 13.33 -1.3 13.66 -3 14 C-2.34 13.01 -1.68 12.02 -1 11 C-0.54227937 8.26127045 -0.54227937 8.26127045 -0.375 5.3125 C-0.30023438 4.31863281 -0.22546875 3.32476562 -0.1484375 2.30078125 C-0.09945313 1.54152344 -0.05046875 0.78226562 0 0 Z " fill="#A6BF33" transform="translate(351,264)"/>
<path d="M0 0 C0.33 0.99 0.66 1.98 1 3 C3.31 3 5.62 3 8 3 C8.33 3.66 8.66 4.32 9 5 C6.36 4.67 3.72 4.34 1 4 C1 7.96 1 11.92 1 16 C0.67 16 0.34 16 0 16 C0 12.04 0 8.08 0 4 C-1.98 4 -3.96 4 -6 4 C-6 3.67 -6 3.34 -6 3 C-4.02 3 -2.04 3 0 3 C0 2.01 0 1.02 0 0 Z " fill="#C7D67B" transform="translate(462,219)"/>
<path d="M0 0 C0 0.66 0 1.32 0 2 C-3.97193147 5.12940055 -7.04230204 5.29162929 -12 5 C-12.33 4.34 -12.66 3.68 -13 3 C-11.2092015 2.49689942 -9.41733089 1.99761372 -7.625 1.5 C-6.62726563 1.2215625 -5.62953125 0.943125 -4.6015625 0.65625 C-2 0 -2 0 0 0 Z " fill="#F4F9D8" transform="translate(386,303)"/>
<path d="M0 0 C0.33 0 0.66 0 1 0 C1.04898437 0.66386719 1.09796875 1.32773437 1.1484375 2.01171875 C1.64050717 8.7431797 1.64050717 8.7431797 4 15 C4.66 15.33 5.32 15.66 6 16 C4.35 16 2.7 16 1 16 C-0.06723961 12.53777385 -0.10173486 9.35960734 -0.0625 5.75 C-0.04896484 4.13351562 -0.04896484 4.13351562 -0.03515625 2.484375 C-0.02355469 1.66453125 -0.01195312 0.8446875 0 0 Z " fill="#E5EDBE" transform="translate(319,268)"/>
<path d="M0 0 C3.63 0 7.26 0 11 0 C11 0.66 11 1.32 11 2 C8.03 2 5.06 2 2 2 C1.67 2.66 1.34 3.32 1 4 C0.34 3.67 -0.32 3.34 -1 3 C-0.67 2.01 -0.34 1.02 0 0 Z " fill="#F6F6FB" transform="translate(332,266)"/>
<path d="M0 0 C2 1 2 1 4 3 C4.36933645 5.75372909 4.18336678 8.20365661 4 11 C1.9656541 9.58480285 1.09589607 8.45017877 0.578125 6.01953125 C0.33726048 4.01823046 0.16467259 2.0090056 0 0 Z " fill="#F5FBDD" transform="translate(378,264)"/>
<path d="M0 0 C6.93 0.495 6.93 0.495 14 1 C14 1.33 14 1.66 14 2 C13.25234375 2.04898438 12.5046875 2.09796875 11.734375 2.1484375 C10.74953125 2.22320312 9.7646875 2.29796875 8.75 2.375 C7.28820312 2.47941406 7.28820312 2.47941406 5.796875 2.5859375 C3.10366811 2.98465249 1.33036721 3.63507063 -1 5 C-0.67 3.35 -0.34 1.7 0 0 Z " fill="#F2F8D4" transform="translate(413,220)"/>
<path d="M0 0 C0.66 0 1.32 0 2 0 C2 0.66 2 1.32 2 2 C4.64 2.33 7.28 2.66 10 3 C10 3.33 10 3.66 10 4 C8.02 4 6.04 4 4 4 C4 4.66 4 5.32 4 6 C3.34 6 2.68 6 2 6 C2 5.34 2 4.68 2 4 C1.01 3.67 0.02 3.34 -1 3 C-0.67 2.01 -0.34 1.02 0 0 Z " fill="#F1F6D8" transform="translate(452,218)"/>
<path d="M0 0 C1.4540625 0.0309375 1.4540625 0.0309375 2.9375 0.0625 C2.9375 1.0525 2.9375 2.0425 2.9375 3.0625 C-0.6925 3.0625 -4.3225 3.0625 -8.0625 3.0625 C-6.7425 2.4025 -5.4225 1.7425 -4.0625 1.0625 C-3.0625 0.0625 -3.0625 0.0625 0 0 Z " fill="#F6F9E8" transform="translate(477.0625,213.9375)"/>
<path d="M0 0 C0.33 3.3 0.66 6.6 1 10 C0.34 9.01 -0.32 8.02 -1 7 C-1.86175198 5.92672708 -2.7369604 4.86412584 -3.625 3.8125 C-4.40875 2.884375 -5.1925 1.95625 -6 1 C-3.92446352 0.4465236 -2.15634036 0 0 0 Z " fill="#EBF3C9" transform="translate(318,224)"/>
<path d="M0 0 C3 3.75 3 3.75 3 6 C0.36 5.34 -2.28 4.68 -5 4 C-3.35 2.68 -1.7 1.36 0 0 Z " fill="#F0F5D1" transform="translate(355,282)"/>
<path d="M0 0 C1.18771723 3.42943519 0.80226223 5.37784675 -0.4375 8.75 C-0.86869141 9.94882813 -0.86869141 9.94882813 -1.30859375 11.171875 C-1.65083984 12.07679688 -1.65083984 12.07679688 -2 13 C-2.33 13 -2.66 13 -3 13 C-3 10.36 -3 7.72 -3 5 C-2.34 5 -1.68 5 -1 5 C-0.67 3.35 -0.34 1.7 0 0 Z " fill="#E2ECB1" transform="translate(396,245)"/>
<path d="M0 0 C3.63 0.33 7.26 0.66 11 1 C10.67 2.65 10.34 4.3 10 6 C9.34 5.01 8.68 4.02 8 3 C5.67182036 2.63239269 3.3381615 2.29758419 1 2 C0.67 1.34 0.34 0.68 0 0 Z " fill="#A7C12B" transform="translate(377,283)"/>
<path d="M0 0 C0.33 0 0.66 0 1 0 C1.04254356 1.99954746 1.04080783 4.00041636 1 6 C0 7 0 7 -3.0625 7.0625 C-4.031875 7.041875 -5.00125 7.02125 -6 7 C-6.33 6.34 -6.66 5.68 -7 5 C-5.02 5 -3.04 5 -1 5 C-0.67 3.35 -0.34 1.7 0 0 Z " fill="#B3C851" transform="translate(389,274)"/>
<path d="M0 0 C0.33 0 0.66 0 1 0 C1.08107583 1.93681161 1.13922475 3.8745934 1.1875 5.8125 C1.23970703 7.43091797 1.23970703 7.43091797 1.29296875 9.08203125 C1 12 1 12 -0.51171875 13.88671875 C-1.00285156 14.25410156 -1.49398438 14.62148438 -2 15 C-1.85930804 12.87465341 -1.71229079 10.74972471 -1.5625 8.625 C-1.48128906 7.44164062 -1.40007812 6.25828125 -1.31640625 5.0390625 C-1 2 -1 2 0 0 Z " fill="#EEF4D0" transform="translate(402,259)"/>
<path d="M0 0 C2.17854707 3.2678206 3.49760034 6.38058265 5 10 C2.525 9.01 2.525 9.01 0 8 C0 5.36 0 2.72 0 0 Z " fill="#E6EFB4" transform="translate(413,269)"/>
<path d="M0 0 C0.99 0.33 1.98 0.66 3 1 C3.33 3.64 3.66 6.28 4 9 C3.34 9 2.68 9 2 9 C1.34 6.03 0.68 3.06 0 0 Z " fill="#AAC03B" transform="translate(368,239)"/>
<path d="M0 0 C0 0.99 0 1.98 0 3 C-4.34285714 7 -4.34285714 7 -7 7 C-7 6.01 -7 5.02 -7 4 C-5.68 4 -4.36 4 -3 4 C-2.67 3.01 -2.34 2.02 -2 1 C-1.34 0.67 -0.68 0.34 0 0 Z " fill="#AFC34B" transform="translate(357,278)"/>
<path d="M0 0 C0.33 0 0.66 0 1 0 C0.125 6.75 0.125 6.75 -1 9 C-1.99 9 -2.98 9 -4 9 C-2.80100302 5.9168649 -1.52299523 2.93720508 0 0 Z " fill="#EAF2BB" transform="translate(471,269)"/>
<path d="M0 0 C3.00617269 3.00617269 2.59585316 5.82381598 3 10 C2.34 10 1.68 10 1 10 C-0.1577506 6.52674819 -0.06866652 3.63932552 0 0 Z " fill="#B0C547" transform="translate(372,248)"/>
<path d="M0 0 C2.31 0 4.62 0 7 0 C6.42655063 2.86724686 6.1385485 3.8614515 4 6 C3.896875 5.38125 3.79375 4.7625 3.6875 4.125 C3.12474627 1.63473516 3.12474627 1.63473516 0 0 Z " fill="#E9F4B1" transform="translate(379,287)"/>
<path d="M0 0 C0.99 0.495 0.99 0.495 2 1 C2 1.66 2 2.32 2 3 C3.98 3.66 5.96 4.32 8 5 C6.02 5.99 6.02 5.99 4 7 C0 2.25 0 2.25 0 0 Z " fill="#F1F7D8" transform="translate(374,283)"/>
<path d="M0 0 C2.18975773 3.28463659 2.99806563 6.20696275 4 10 C2.68 10.33 1.36 10.66 0 11 C0 7.37 0 3.74 0 0 Z " fill="#B7CB57" transform="translate(378,269)"/>
<path d="M0 0 C0.33 0 0.66 0 1 0 C1 2.64 1 5.28 1 8 C0.34 8 -0.32 8 -1 8 C-1.33 8.66 -1.66 9.32 -2 10 C-1.125 2.25 -1.125 2.25 0 0 Z " fill="#B1C74D" transform="translate(394,256)"/>
<path d="M0 0 C1.60080151 4.00200378 0.29279692 7.04556236 -1 11 C-1.33 11 -1.66 11 -2 11 C-2 8.03 -2 5.06 -2 2 C-1.34 2 -0.68 2 0 2 C0 1.34 0 0.68 0 0 Z " fill="#B8CC59" transform="translate(405,244)"/>
<path d="M0 0 C-0.93972656 0.30744141 -0.93972656 0.30744141 -1.8984375 0.62109375 C-2.71570313 0.89050781 -3.53296875 1.15992188 -4.375 1.4375 C-5.18710937 1.70433594 -5.99921875 1.97117188 -6.8359375 2.24609375 C-9.01031799 2.95179729 -9.01031799 2.95179729 -11 4 C-11 2.68 -11 1.36 -11 0 C-6.97959015 -0.69584017 -3.91736581 -1.1700097 0 0 Z " fill="#F7FAE6" transform="translate(336,246)"/>
<path d="M0 0 C2 2 2 2 2.125 4.625 C2.08375 5.40875 2.0425 6.1925 2 7 C1.01 6.67 0.02 6.34 -1 6 C-1.042721 4.33388095 -1.04063832 2.66617115 -1 1 C-0.67 0.67 -0.34 0.34 0 0 Z " fill="#A6C508" transform="translate(389,288)"/>
</svg>
