<?xml version="1.0" encoding="UTF-8"?>
<svg version="1.1" xmlns="http://www.w3.org/2000/svg" width="239" height="158">
<path d="M0 0 C78.87 0 157.74 0 239 0 C239 52.14 239 104.28 239 158 C160.13 158 81.26 158 0 158 C0 105.86 0 53.72 0 0 Z " fill="#F8F8F8" transform="translate(0,0)"/>
<path d="M0 0 C0.99128906 -0.00257812 1.98257813 -0.00515625 3.00390625 -0.0078125 C5.4375 0.125 5.4375 0.125 6.4375 1.125 C6.59746166 3.71653107 6.69688697 6.2845202 6.75390625 8.87890625 C6.77468735 9.65435287 6.79546844 10.4297995 6.81687927 11.22874451 C6.88245802 13.71490308 6.94129799 16.20117045 7 18.6875 C7.04317733 20.36915204 7.08679136 22.05079294 7.13085938 23.73242188 C7.23814779 27.86316871 7.33939132 31.99402536 7.4375 36.125 C12.9140207 37.9505069 17.88481477 37.23553705 23.4375 36.125 C23.7675 24.575 24.0975 13.025 24.4375 1.125 C27.9025 0.63 27.9025 0.63 31.4375 0.125 C31.9325 5.075 31.9325 5.075 32.4375 10.125 C34.4175 10.455 36.3975 10.785 38.4375 11.125 C38.52492801 15.33320145 38.57803641 19.54116776 38.625 23.75 C38.65013672 24.93980469 38.67527344 26.12960938 38.70117188 27.35546875 C38.7935949 38.38461655 38.7935949 38.38461655 35.4375 43.125 C30.31826309 48.10203588 24.57991422 50.49401715 17.4765625 50.53515625 C16.80367187 50.52355469 16.13078125 50.51195312 15.4375 50.5 C14.76460937 50.51160156 14.09171875 50.52320313 13.3984375 50.53515625 C7.07704058 50.49854584 2.53721222 48.89066709 -2.3125 44.8125 C-6.84292031 39.40116463 -8.00195018 34.83246319 -7.85546875 27.8828125 C-7.85122391 27.11444061 -7.84697906 26.34606873 -7.84260559 25.55441284 C-7.82591826 23.11924015 -7.78828641 20.6849192 -7.75 18.25 C-7.73494023 16.59115785 -7.72125409 14.93230263 -7.70898438 13.2734375 C-7.67604759 9.2236341 -7.62433594 5.17446106 -7.5625 1.125 C-4.93920316 -0.18664842 -2.92551375 -0.00762846 0 0 Z " fill="#A5C30A" transform="translate(157.5625,51.875)"/>
<path d="M0 0 C1.60875 -0.0299707 1.60875 -0.0299707 3.25 -0.06054688 C9.74949131 -0.05654473 14.09705394 0.31936688 19.25 4.4375 C22.47545167 9.77771061 21.74173214 16.41567257 21.25 22.4375 C20.02731703 26.04441477 19.3525918 27.67946814 16.25 29.8125 C14.25 30.4375 14.25 30.4375 11.25 30.4375 C11.25 31.0975 11.25 31.7575 11.25 32.4375 C4.98 32.4375 -1.29 32.4375 -7.75 32.4375 C-7.75 38.0475 -7.75 43.6575 -7.75 49.4375 C-10.06 49.4375 -12.37 49.4375 -14.75 49.4375 C-14.82597206 42.94140094 -14.87856672 36.44541615 -14.91479492 29.94897461 C-14.92989525 27.73831908 -14.95037709 25.52769357 -14.97631836 23.31713867 C-15.01264655 20.14234007 -15.02971384 16.96793703 -15.04296875 13.79296875 C-15.05845261 12.80225876 -15.07393646 11.81154877 -15.08988953 10.79081726 C-15.09011612 9.87008926 -15.09034271 8.94936127 -15.09057617 8.00073242 C-15.09723801 7.1902092 -15.10389984 6.37968597 -15.11076355 5.54460144 C-13.85512661 -1.78916167 -5.67356938 -0.03697231 0 0 Z " fill="#A4BC26" transform="translate(55.75,51.5625)"/>
<path d="M0 0 C0.81210938 -0.020625 1.62421875 -0.04125 2.4609375 -0.0625 C7.24767973 -0.09368399 10.34433046 0.17913006 14.25 3.25 C18.52857583 7.52857583 17.46885526 13.94108578 17.5 19.625 C17.520625 20.55828125 17.54125 21.4915625 17.5625 22.453125 C17.59272933 27.78860261 17.36191091 31.69456865 14.25 36.25 C8.19025324 39.96004904 1.82816634 40.24760719 -5.0625 38.74609375 C-8.20660411 37.7346632 -10.47567089 36.52432911 -12.8125 34.1875 C-14.23231387 29.73874986 -14.00083513 25.73784484 -12.75 21.25 C-9.99057156 18.19225497 -7.72981474 16.96140027 -3.75 16.25 C-1.15626086 16.18101758 1.40810197 16.15565248 4 16.1875 C4.69738281 16.19201172 5.39476563 16.19652344 6.11328125 16.20117188 C7.82555803 16.2128998 9.53779033 16.23083347 11.25 16.25 C10.92 13.61 10.59 10.97 10.25 8.25 C7.65742331 7.38580777 5.90962293 7.07419068 3.23828125 6.93359375 C2.48095703 6.89169922 1.72363281 6.84980469 0.94335938 6.80664062 C-0.23516602 6.74766602 -0.23516602 6.74766602 -1.4375 6.6875 C-2.23478516 6.64431641 -3.03207031 6.60113281 -3.85351562 6.55664062 C-5.81881447 6.45072632 -7.78438496 6.34987449 -9.75 6.25 C-9.792721 4.58388095 -9.79063832 2.91617115 -9.75 1.25 C-7.60552692 -0.89447308 -2.96113967 0.01844947 0 0 Z " fill="#A3BD1E" transform="translate(90.75,62.75)"/>
<path d="M0 0 C1.98 0 3.96 0 6 0 C6.20157715 0.75619629 6.4031543 1.51239258 6.61083984 2.29150391 C7.53031925 5.73651493 8.45263213 9.18076126 9.375 12.625 C9.69210938 13.81480469 10.00921875 15.00460938 10.3359375 16.23046875 C10.6453125 17.38417969 10.9546875 18.53789063 11.2734375 19.7265625 C11.55622559 20.78439941 11.83901367 21.84223633 12.13037109 22.93212891 C12.9971265 25.9898629 13.97147227 28.99323118 15 32 C16.65 31.67 18.3 31.34 20 31 C20.95902434 27.33351372 21.91709313 23.66677838 22.875 20 C23.14441406 18.97003906 23.41382813 17.94007812 23.69140625 16.87890625 C25.15876918 11.25997992 26.60426192 5.63715573 28 0 C29.98 0 31.96 0 34 0 C33.34079445 7.43175782 31.92011265 14.545823 30.25 21.8125 C29.89035156 23.46088867 29.89035156 23.46088867 29.5234375 25.14257812 C24.83321037 45.65627772 24.83321037 45.65627772 17 51 C14.54296875 51.609375 14.54296875 51.609375 12.1875 51.75 C11.39730469 51.80671875 10.60710937 51.8634375 9.79296875 51.921875 C9.20128906 51.94765625 8.60960938 51.9734375 8 52 C7.67 50.35 7.34 48.7 7 47 C7.93972656 46.65388672 7.93972656 46.65388672 8.8984375 46.30078125 C14.12227926 44.3765096 14.12227926 44.3765096 17.5625 40.25 C17.706875 39.5075 17.85125 38.765 18 38 C16.02 38 14.04 38 12 38 C11.505 36.515 11.505 36.515 11 35 C10.34 35 9.68 35 9 35 C6.35243076 27.35026099 3.81280317 19.68832681 1.6875 11.875 C1.36136719 10.67617187 1.03523438 9.47734375 0.69921875 8.2421875 C0.07772138 5.36038406 -0.14928803 2.93046871 0 0 Z " fill="#A3BE18" transform="translate(111,64)"/>
<path d="M0 0 C1.32 0 2.64 0 4 0 C4.33 2.97 4.66 5.94 5 9 C7.97 9.495 7.97 9.495 11 10 C11.08678303 13.95819611 11.14031733 17.91614934 11.1875 21.875 C11.21263672 23.00292969 11.23777344 24.13085938 11.26367188 25.29296875 C11.27333984 26.36933594 11.28300781 27.44570312 11.29296875 28.5546875 C11.3086792 29.54968262 11.32438965 30.54467773 11.34057617 31.56982422 C11.17199097 32.77276123 11.17199097 32.77276123 11 34 C10.01 34.66 9.02 35.32 8 36 C8 35.34 8 34.68 8 34 C7.34 34 6.68 34 6 34 C6.33 36.97 6.66 39.94 7 43 C5.02 43.495 5.02 43.495 3 44 C2.01 44.495 2.01 44.495 1 45 C-6.34815446 46.08415394 -13.58233911 46.1031823 -21 46 C-21 42 -21 38 -21 34 C-20.34 34.33 -19.68 34.66 -19 35 C-19 35.66 -19 36.32 -19 37 C-16.54126232 36.85941524 -14.08314825 36.71277001 -11.625 36.5625 C-10.92632812 36.52318359 -10.22765625 36.48386719 -9.5078125 36.44335938 C-5.62639508 36.25719866 -5.62639508 36.25719866 -2 35 C-1.97494385 34.29504395 -1.9498877 33.59008789 -1.92407227 32.86376953 C-1.80681958 29.61738553 -1.6846885 26.37120183 -1.5625 23.125 C-1.52318359 22.01640625 -1.48386719 20.9078125 -1.44335938 19.765625 C-1.19015781 13.1434301 -0.75898051 6.58403955 0 0 Z " fill="#A5C408" transform="translate(184,54)"/>
<path d="M0 0 C0.66 0 1.32 0 2 0 C2.495 2.475 2.495 2.475 3 5 C5.93878727 4.71840367 8.87560413 4.42518615 11.8125 4.125 C12.64587891 4.04636719 13.47925781 3.96773437 14.33789062 3.88671875 C15.14033203 3.80292969 15.94277344 3.71914063 16.76953125 3.6328125 C17.50792236 3.55949707 18.24631348 3.48618164 19.00708008 3.41064453 C21.30638653 3.0668422 21.30638653 3.0668422 24 1 C26.6875 0.875 26.6875 0.875 29 1 C28.01 1.33 27.02 1.66 26 2 C26 2.66 26 3.32 26 4 C26.99 4.33 27.98 4.66 29 5 C29.6875 7.0625 29.6875 7.0625 30 9 C29.36707031 8.67257813 28.73414063 8.34515625 28.08203125 8.0078125 C23.8946475 6.63855394 20.05939028 6.78528481 15.6875 6.875 C14.43356445 6.88853516 14.43356445 6.88853516 13.15429688 6.90234375 C11.10274031 6.92579011 9.05133223 6.96165734 7 7 C6.67 8.65 6.34 10.3 6 12 C7.18078125 11.97679688 8.3615625 11.95359375 9.578125 11.9296875 C11.13541033 11.91092503 12.69270252 11.89272534 14.25 11.875 C15.02730469 11.85824219 15.80460937 11.84148437 16.60546875 11.82421875 C23.72431144 11.76337394 23.72431144 11.76337394 27 14 C27 16.64 27 19.28 27 22 C25.99839844 22.03738281 24.99679688 22.07476562 23.96484375 22.11328125 C14.02355815 22.33861599 14.02355815 22.33861599 5 26 C2.78596898 29.56170207 2.56958707 32.86803589 3 37 C4.40115279 40.62651311 5.36931799 41.71820591 8.9375 43.3125 C14.18315588 44.52216633 19.65502846 44.15797945 25 44 C24.67 44.99 24.34 45.98 24 47 C21.41638482 47.05407567 18.83390745 47.093707 16.25 47.125 C15.52039063 47.14175781 14.79078125 47.15851563 14.0390625 47.17578125 C7.04583739 47.23935602 7.04583739 47.23935602 4 45 C3.6278958 43.67696283 3.29369827 42.34262065 3 41 C2.01 40.34 1.02 39.68 0 39 C0.495 38.01 0.495 38.01 1 37 C-0.32 37.66 -1.64 38.32 -3 39 C-3.25 35.6875 -3.25 35.6875 -3 32 C-1.69855198 30.95884159 -0.36161311 29.96113866 1 29 C2.28842537 25.40932038 2.28842537 25.40932038 3 22 C2.01 22 1.02 22 0 22 C-0.495 24.475 -0.495 24.475 -1 27 C-6.32867983 28.10941367 -11.46281855 28.11548069 -16.875 28.0625 C-17.75414063 28.05798828 -18.63328125 28.05347656 -19.5390625 28.04882812 C-21.69273803 28.03712337 -23.84637817 28.01919069 -26 28 C-26 33.94 -26 39.88 -26 46 C-29.465 46.495 -29.465 46.495 -33 47 C-33.495 45.515 -33.495 45.515 -34 44 C-31.69 44 -29.38 44 -27 44 C-27 38.39 -27 32.78 -27 27 C-20.73 27 -14.46 27 -8 27 C-8 26.34 -8 25.68 -8 25 C-6.88625 24.79375 -5.7725 24.5875 -4.625 24.375 C-0.81006767 23.41473095 -0.81006767 23.41473095 0.21484375 20.328125 C1.02775577 16.88234867 1.23303299 13.91001608 1.1875 10.375 C1.17783203 8.71597656 1.17783203 8.71597656 1.16796875 7.0234375 C1.02802388 4.50442978 0.73166459 2.39985987 0 0 Z " fill="#F8FBDC" transform="translate(75,57)"/>
<path d="M0 0 C2.866875 -0.0825 5.73375 -0.165 8.6875 -0.25 C9.58170654 -0.28641602 10.47591309 -0.32283203 11.3972168 -0.36035156 C15.30754304 -0.41472865 17.55091303 -0.24673841 21.04296875 1.671875 C23.40844302 4.4858923 23.67503189 5.85767861 23.625 9.5 C23.63789062 10.4384375 23.65078125 11.376875 23.6640625 12.34375 C23 15 23 15 21.04296875 17.328125 C16.83202178 19.64171332 13.3967686 19.44178209 8.6875 19.25 C4.3871875 19.12625 4.3871875 19.12625 0 19 C0 12.73 0 6.46 0 0 Z " fill="#F8F9F7" transform="translate(48,58)"/>
<path d="M0 0 C2.64 0 5.28 0 8 0 C8 2.31 8 4.62 8 7 C11.96 7 15.92 7 20 7 C20.87890625 15.49609375 20.87890625 15.49609375 21 18 C19.26043342 19.73956658 16.8063378 19.37190386 14.4375 19.5625 C11.7459375 19.7790625 11.7459375 19.7790625 9 20 C9 23.96 9 27.92 9 32 C6.36 32 3.72 32 1 32 C0.91363281 31.37351562 0.82726562 30.74703125 0.73828125 30.1015625 C0.31373291 27.63217125 -0.14272416 25.35643158 -1 23 C-3.47014472 21.32386813 -3.47014472 21.32386813 -6 21 C-6 20.01 -6 19.02 -6 18 C-1.71 18 2.58 18 7 18 C7 14.7 7 11.4 7 8 C5.5459375 8.0309375 5.5459375 8.0309375 4.0625 8.0625 C1 8 1 8 0 7 C-0.04092937 4.66702567 -0.04241723 2.33294775 0 0 Z " fill="#F5FBCD" transform="translate(196,30)"/>
<path d="M0 0 C0.66 0.66 1.32 1.32 2 2 C1.67 2.99 1.34 3.98 1 5 C-3.29 5 -7.58 5 -12 5 C-11.95559414 9.83870793 -11.88550083 14.67614215 -11.79248047 19.51416016 C-11.76440669 21.15696019 -11.74312505 22.79989189 -11.72900391 24.44287109 C-11.70738379 26.81675973 -11.6606424 29.18908792 -11.609375 31.5625 C-11.60814636 32.28679199 -11.60691772 33.01108398 -11.60565186 33.75732422 C-11.45336237 39.16445642 -10.06054039 43.50132333 -7 48 C-3.86371213 50.48289457 -0.62511925 52.32686804 3 54 C-5.6068477 53.13931523 -5.6068477 53.13931523 -9 51 C-13.10786704 45.67933412 -13.7328359 39.5188041 -14 33 C-17.16115776 34.36983503 -17.9927092 34.9890638 -20 38 C-20.45915507 40.96842658 -20.45915507 40.96842658 -20.625 44.1875 C-20.73714844 45.81751953 -20.73714844 45.81751953 -20.8515625 47.48046875 C-20.90054688 48.31191406 -20.94953125 49.14335938 -21 50 C-21.66 50 -22.32 50 -23 50 C-23.13277344 50.62648437 -23.26554688 51.25296875 -23.40234375 51.8984375 C-23.57894531 52.71570313 -23.75554687 53.53296875 -23.9375 54.375 C-24.11152344 55.18710938 -24.28554687 55.99921875 -24.46484375 56.8359375 C-25 59 -25 59 -26 61 C-26.66 61 -27.32 61 -28 61 C-27.79246094 60.18144531 -27.58492187 59.36289063 -27.37109375 58.51953125 C-23.80816113 44.37215445 -20.41097752 30.18460466 -17 16 C-18.98 16 -20.96 16 -23 16 C-23.19335938 17.10859375 -23.38671875 18.2171875 -23.5859375 19.359375 C-23.84863489 20.82297476 -24.11167367 22.28651327 -24.375 23.75 C-24.50132812 24.47960937 -24.62765625 25.20921875 -24.7578125 25.9609375 C-25.41834074 29.5938428 -26.07447662 32.8187005 -28 36 C-28.21857101 30.53572482 -28.06127631 26.15319077 -26 21 C-25.62875 19.88625 -25.2575 18.7725 -24.875 17.625 C-24.58625 16.75875 -24.2975 15.8925 -24 15 C-22.02 15 -20.04 15 -18 15 C-18 12.69 -18 10.38 -18 8 C-17.34 8 -16.68 8 -16 8 C-16 10.64 -16 13.28 -16 16 C-15.34 16 -14.68 16 -14 16 C-14.03480469 15.24074219 -14.06960937 14.48148438 -14.10546875 13.69921875 C-14.14607422 12.20841797 -14.14607422 12.20841797 -14.1875 10.6875 C-14.23970703 9.20830078 -14.23970703 9.20830078 -14.29296875 7.69921875 C-14 5 -14 5 -12.7734375 3.18359375 C-10.57970196 1.71949272 -9.05768425 1.5390313 -6.4375 1.375 C-3.09224742 1.17127819 -3.09224742 1.17127819 0 0 Z " fill="#FAFBEF" transform="translate(162,48)"/>
<path d="M0 0 C0.99128906 -0.00257812 1.98257813 -0.00515625 3.00390625 -0.0078125 C5.4375 0.125 5.4375 0.125 6.4375 1.125 C6.59746166 3.71653107 6.69688697 6.2845202 6.75390625 8.87890625 C6.77468735 9.65435287 6.79546844 10.4297995 6.81687927 11.22874451 C6.88245802 13.71490308 6.94129799 16.20117045 7 18.6875 C7.04317733 20.36915204 7.08679136 22.05079294 7.13085938 23.73242188 C7.23814779 27.86316871 7.33939132 31.99402536 7.4375 36.125 C12.9140207 37.9505069 17.88481477 37.23553705 23.4375 36.125 C23.7675 24.575 24.0975 13.025 24.4375 1.125 C27.9025 0.63 27.9025 0.63 31.4375 0.125 C31.9325 5.075 31.9325 5.075 32.4375 10.125 C34.4175 10.455 36.3975 10.785 38.4375 11.125 C38.52492801 15.33320145 38.57803641 19.54116776 38.625 23.75 C38.65013672 24.93980469 38.67527344 26.12960938 38.70117188 27.35546875 C38.7944936 38.49186113 38.7944936 38.49186113 35.4375 43.125 C34.4475 43.62 34.4475 43.62 33.4375 44.125 C32.9425 40.165 32.9425 40.165 32.4375 36.125 C33.7575 36.125 35.0775 36.125 36.4375 36.125 C36.7675 28.205 37.0975 20.285 37.4375 12.125 C35.4575 12.125 33.4775 12.125 31.4375 12.125 C30.4375 11.125 30.4375 11.125 30.33984375 9.05859375 C30.35144531 8.23488281 30.36304688 7.41117188 30.375 6.5625 C30.38402344 5.73621094 30.39304688 4.90992188 30.40234375 4.05859375 C30.41394531 3.42050781 30.42554688 2.78242187 30.4375 2.125 C29.1175 2.125 27.7975 2.125 26.4375 2.125 C26.42291748 3.17478027 26.40833496 4.22456055 26.39331055 5.30615234 C26.33542007 9.19403474 26.25818794 13.08133226 26.17504883 16.96875 C26.14175565 18.65257285 26.11373744 20.33650848 26.09106445 22.02050781 C26.05759795 24.43864086 26.00528964 26.85573624 25.94921875 29.2734375 C25.93963387 30.40632706 25.93963387 30.40632706 25.92985535 31.56210327 C25.86987305 33.68505859 25.86987305 33.68505859 25.4375 37.125 C21.8093205 39.54378634 19.06914978 39.45733988 14.875 39.4375 C14.18986328 39.45361328 13.50472656 39.46972656 12.79882812 39.48632812 C10.80859375 39.48828125 10.80859375 39.48828125 7.4375 39.125 C5.0344856 35.52047841 5.10849001 32.8185227 5.05859375 28.6484375 C5.04159927 27.92258453 5.0246048 27.19673157 5.00709534 26.44888306 C4.95400049 24.1326768 4.91367219 21.81648848 4.875 19.5 C4.83110984 17.17645998 4.78446726 14.85306049 4.73219299 12.5296936 C4.70016907 11.08414257 4.67329988 9.63846677 4.65196228 8.19271851 C4.86674375 4.87410909 4.86674375 4.87410909 3.4375 2.125 C1.75141034 2.05294489 0.06249341 2.04113932 -1.625 2.0625 C-2.54410156 2.07152344 -3.46320313 2.08054688 -4.41015625 2.08984375 C-5.12042969 2.10144531 -5.83070313 2.11304688 -6.5625 2.125 C-6.46893557 6.77013161 -6.36283591 11.4147438 -6.24511719 16.05932617 C-6.20683779 17.63932451 -6.17198303 19.21940969 -6.140625 20.79956055 C-6.09495124 23.07111645 -6.03696216 25.34207509 -5.9765625 27.61328125 C-5.96501129 28.31963211 -5.95346008 29.02598297 -5.94155884 29.7537384 C-5.83178952 33.40241393 -5.64107636 35.00713546 -3.5625 38.125 C-3.9375 40.3125 -3.9375 40.3125 -4.5625 42.125 C-7.42814149 37.31918371 -7.97091084 33.35983559 -7.85546875 27.8828125 C-7.85122391 27.11444061 -7.84697906 26.34606873 -7.84260559 25.55441284 C-7.82591826 23.11924015 -7.78828641 20.6849192 -7.75 18.25 C-7.73494023 16.59115785 -7.72125409 14.93230263 -7.70898438 13.2734375 C-7.67604759 9.2236341 -7.62433594 5.17446106 -7.5625 1.125 C-4.93920316 -0.18664842 -2.92551375 -0.00762846 0 0 Z " fill="#9BB226" transform="translate(157.5625,51.875)"/>
<path d="M0 0 C0.33 0.66 0.66 1.32 1 2 C3.52733235 2.65555119 3.52733235 2.65555119 6 3 C8 9.625 8 9.625 8 13 C10.31 13 12.62 13 15 13 C15 13.66 15 14.32 15 15 C14.34 15 13.68 15 13 15 C13.33 20.94 13.66 26.88 14 33 C12.515 33.495 12.515 33.495 11 34 C10.67 28.39 10.34 22.78 10 17 C10.02320313 18.83046875 10.04640625 20.6609375 10.0703125 22.546875 C10.08907061 24.94791259 10.10727076 27.34895459 10.125 29.75 C10.15013672 31.55984375 10.15013672 31.55984375 10.17578125 33.40625 C10.18222656 34.56640625 10.18867188 35.7265625 10.1953125 36.921875 C10.20578613 37.99018555 10.21625977 39.05849609 10.22705078 40.15917969 C9.9968762 43.03908444 9.58561086 44.61127026 8 47 C2.87749708 50.87033554 -1.4993977 53.37146299 -8 53 C-7.42507812 52.72800781 -6.85015625 52.45601562 -6.2578125 52.17578125 C-3.98140225 50.99031501 -1.95657824 49.6873444 0.125 48.1875 C0.80820313 47.70667969 1.49140625 47.22585937 2.1953125 46.73046875 C5.95218272 43.12810185 6.26628863 38.82390132 6.4140625 33.82421875 C6.47207031 32.08881836 6.47207031 32.08881836 6.53125 30.31835938 C6.5621875 29.12017578 6.593125 27.92199219 6.625 26.6875 C6.68300781 24.8612207 6.68300781 24.8612207 6.7421875 22.99804688 C6.83628002 19.99884772 6.92192209 16.99965177 7 14 C5.5459375 14.0309375 5.5459375 14.0309375 4.0625 14.0625 C1 14 1 14 0 13 C-0.07205511 11.31391034 -0.08386068 9.62499341 -0.0625 7.9375 C-0.05347656 7.01839844 -0.04445312 6.09929688 -0.03515625 5.15234375 C-0.02355469 4.44207031 -0.01195312 3.73179688 0 3 C-1.32 2.67 -2.64 2.34 -4 2 C-2.68 2 -1.36 2 0 2 C0 1.34 0 0.68 0 0 Z " fill="#FAFCE7" transform="translate(189,49)"/>
<path d="M0 0 C5.28 0 10.56 0 16 0 C16 1.32 16 2.64 16 4 C10.72 4 5.44 4 0 4 C-0.33 17.86 -0.66 31.72 -1 46 C-2.32 46 -3.64 46 -5 46 C-5.02470049 40.21590487 -5.04286023 34.43184038 -5.05493164 28.64770508 C-5.0599635 26.67960068 -5.06678958 24.71150003 -5.07543945 22.7434082 C-5.08755517 19.91616899 -5.09323976 17.08897916 -5.09765625 14.26171875 C-5.10281754 13.38037766 -5.10797882 12.49903656 -5.11329651 11.59098816 C-5.11340981 10.3600518 -5.11340981 10.3600518 -5.11352539 9.10424805 C-5.115746 8.38254929 -5.11796661 7.66085052 -5.12025452 6.9172821 C-5 5 -5 5 -4 2 C-2.68 2 -1.36 2 0 2 C0 1.34 0 0.68 0 0 Z " fill="#A4C20A" transform="translate(48,53)"/>
<path d="M0 0 C0.81210938 -0.020625 1.62421875 -0.04125 2.4609375 -0.0625 C7.24767973 -0.09368399 10.34433046 0.17913006 14.25 3.25 C16.25 5.25 16.25 5.25 16.47705078 7.31298828 C16.46657715 8.14040527 16.45610352 8.96782227 16.4453125 9.8203125 C16.43886719 10.71621094 16.43242188 11.61210938 16.42578125 12.53515625 C16.40902344 13.47230469 16.39226562 14.40945312 16.375 15.375 C16.36597656 16.31988281 16.35695313 17.26476562 16.34765625 18.23828125 C16.32404522 20.57577292 16.29111516 22.91276123 16.25 25.25 C15.59 25.25 14.93 25.25 14.25 25.25 C13.755 22.775 13.755 22.775 13.25 20.25 C12.59 20.25 11.93 20.25 11.25 20.25 C10.92 16.29 10.59 12.33 10.25 8.25 C7.65742331 7.38580777 5.90962293 7.07419068 3.23828125 6.93359375 C2.48095703 6.89169922 1.72363281 6.84980469 0.94335938 6.80664062 C-0.23516602 6.74766602 -0.23516602 6.74766602 -1.4375 6.6875 C-2.23478516 6.64431641 -3.03207031 6.60113281 -3.85351562 6.55664062 C-5.81881447 6.45072632 -7.78438496 6.34987449 -9.75 6.25 C-9.792721 4.58388095 -9.79063832 2.91617115 -9.75 1.25 C-7.60552692 -0.89447308 -2.96113967 0.01844947 0 0 Z " fill="#A5BF23" transform="translate(90.75,62.75)"/>
<path d="M0 0 C0.98308659 3.87401627 1.96077131 7.74937631 2.9375 11.625 C3.21529297 12.71941406 3.49308594 13.81382813 3.77929688 14.94140625 C4.18051758 16.53662109 4.18051758 16.53662109 4.58984375 18.1640625 C4.83597412 19.13811035 5.08210449 20.1121582 5.33569336 21.11572266 C6.01480346 24.06427348 6.53287543 27.01117809 7 30 C6.01 30 5.02 30 4 30 C3.67 30.66 3.34 31.32 3 32 C2.01 31.67 1.02 31.34 0 31 C-0.33 30.34 -0.66 29.68 -1 29 C-1.66 31.64 -2.32 34.28 -3 37 C-4.32 36.34 -5.64 35.68 -7 35 C-6.51144531 34.2265625 -6.02289063 33.453125 -5.51953125 32.65625 C-3.50828994 27.81686218 -3.59716313 23.68172314 -3.6875 18.5 C-3.68427734 17.57574219 -3.68105469 16.65148437 -3.67773438 15.69921875 C-3.71671427 10.74522906 -4.05861772 6.64075445 -6 2 C-1.125 0 -1.125 0 0 0 Z " fill="#F9FAEE" transform="translate(111,64)"/>
<path d="M0 0 C1.26328125 0.02707031 2.5265625 0.05414063 3.828125 0.08203125 C4.79234375 0.11683594 5.7565625 0.15164062 6.75 0.1875 C6.75 3.1575 6.75 6.1275 6.75 9.1875 C6.09 9.1875 5.43 9.1875 4.75 9.1875 C4.75 9.8475 4.75 10.5075 4.75 11.1875 C1.84458095 12.15597302 -0.21637454 12.38332812 -3.25 12.4375 C-4.549375 12.47617188 -4.549375 12.47617188 -5.875 12.515625 C-8.25 12.1875 -8.25 12.1875 -10.03515625 10.859375 C-11.93608474 8.2433062 -11.70633316 6.31664167 -11.25 3.1875 C-7.88212399 -0.39765833 -4.72503941 -0.13125109 0 0 Z " fill="#F9F9EE" transform="translate(95.25,83.8125)"/>
<path d="M0 0 C0.66 0 1.32 0 2 0 C2.33 1.65 2.66 3.3 3 5 C5.93878727 4.71840367 8.87560413 4.42518615 11.8125 4.125 C12.64587891 4.04636719 13.47925781 3.96773437 14.33789062 3.88671875 C15.14033203 3.80292969 15.94277344 3.71914063 16.76953125 3.6328125 C17.50792236 3.55949707 18.24631348 3.48618164 19.00708008 3.41064453 C21.30638653 3.0668422 21.30638653 3.0668422 24 1 C26.6875 0.875 26.6875 0.875 29 1 C28.01 1.33 27.02 1.66 26 2 C26 2.66 26 3.32 26 4 C26.99 4.33 27.98 4.66 29 5 C29.6875 7.0625 29.6875 7.0625 30 9 C29.36707031 8.67257813 28.73414062 8.34515625 28.08203125 8.0078125 C23.8946475 6.63855394 20.05939028 6.78528481 15.6875 6.875 C14.43356445 6.88853516 14.43356445 6.88853516 13.15429688 6.90234375 C11.10274031 6.92579011 9.05133223 6.96165734 7 7 C6.67 8.65 6.34 10.3 6 12 C7.18078125 11.97679688 8.3615625 11.95359375 9.578125 11.9296875 C11.13541033 11.91092503 12.69270252 11.89272534 14.25 11.875 C15.02730469 11.85824219 15.80460937 11.84148437 16.60546875 11.82421875 C23.72431144 11.76337394 23.72431144 11.76337394 27 14 C27 16.64 27 19.28 27 22 C18.585 22.495 18.585 22.495 10 23 C10.33 22.34 10.66 21.68 11 21 C15.95 21 20.9 21 26 21 C26 19.02 26 17.04 26 15 C21.71 14.34 17.42 13.68 13 13 C13 14.32 13 15.64 13 17 C10.03 16.67 7.06 16.34 4 16 C3.67 16.99 3.34 17.98 3 19 C2.34 19 1.68 19 1 19 C1.01160156 17.96359375 1.02320312 16.9271875 1.03515625 15.859375 C1.04453837 14.48958514 1.05363812 13.11979332 1.0625 11.75 C1.07087891 11.06808594 1.07925781 10.38617188 1.08789062 9.68359375 C1.10428392 6.30657446 1.05628768 3.22708361 0 0 Z " fill="#F0F7C8" transform="translate(75,57)"/>
<path d="M0 0 C0.66 0.66 1.32 1.32 2 2 C1.625 5.125 1.625 5.125 1 8 C3.0745356 8.1490712 3.0745356 8.1490712 5 7 C5.309375 7.804375 5.61875 8.60875 5.9375 9.4375 C7.70576915 12.16111606 7.70576915 12.16111606 10.203125 12.5546875 C12.47431216 12.79037673 14.71758269 12.94736564 17 13 C17 13.66 17 14.32 17 15 C19.64 15.33 22.28 15.66 25 16 C21.85638133 19.14361867 18.56884145 19.16747437 14.25 19.25 C8.32249565 19.17120009 3.29410223 18.29410223 -1.0625 13.9375 C-2.45856954 9.56314879 -1.89292493 5.46462466 -1 1 C-0.67 0.67 -0.34 0.34 0 0 Z " fill="#A4BD24" transform="translate(79,83)"/>
<path d="M0 0 C1.14315747 2.28631494 1.12112732 3.54347406 1.11352539 6.08251953 C1.11344986 6.92324005 1.11337433 7.76396057 1.11329651 8.63015747 C1.10555458 9.99272171 1.10555458 9.99272171 1.09765625 11.3828125 C1.0962413 12.31221649 1.09482635 13.24162048 1.09336853 14.19918823 C1.08776053 17.17449124 1.07520668 20.14971964 1.0625 23.125 C1.05748603 25.13932183 1.05292295 27.15364484 1.04882812 29.16796875 C1.0377885 34.11200802 1.02051849 39.05599135 1 44 C2.32 44.33 3.64 44.66 5 45 C5 32.13 5 19.26 5 6 C5.33 6 5.66 6 6 6 C6 11.61 6 17.22 6 23 C11.94 23 17.88 23 24 23 C24 23.66 24 24.32 24 25 C15.585 25.495 15.585 25.495 7 26 C6.67 26.99 6.34 27.98 6 29 C12.27 29 18.54 29 25 29 C25 29.33 25 29.66 25 30 C18.73 30 12.46 30 6 30 C6 35.61 6 41.22 6 47 C3.69 47 1.38 47 -1 47 C-1.02527002 40.46721214 -1.04283292 33.93443679 -1.05493164 27.40161133 C-1.05997317 25.17732268 -1.06680623 22.95303737 -1.07543945 20.72875977 C-1.08751298 17.53921691 -1.09322996 14.34971771 -1.09765625 11.16015625 C-1.10281754 10.15912369 -1.10797882 9.15809113 -1.11329651 8.12672424 C-1.11337204 7.20584518 -1.11344757 6.28496613 -1.11352539 5.33618164 C-1.115746 4.52121719 -1.11796661 3.70625275 -1.12025452 2.86659241 C-1 1 -1 1 0 0 Z " fill="#B5C94D" transform="translate(42,54)"/>
<path d="M0 0 C1.485 0.2475 1.485 0.2475 3 0.5 C8.05253819 1.15194041 13.10483341 1.05434012 18.1875 0.96289062 C22.24681629 0.91155686 26.01860934 1.20620249 30 2 C30.495 4.475 30.495 4.475 31 7 C30.26265625 6.51144531 29.5253125 6.02289063 28.765625 5.51953125 C23.75888288 3.02057271 18.21022573 3.60643964 12.75 3.6875 C11.64914063 3.68427734 10.54828125 3.68105469 9.4140625 3.67773438 C3.64365291 3.31623499 3.64365291 3.31623499 -1 6 C-1.32997447 8.05907197 -1.32997447 8.05907197 -1.31884766 10.44970703 C-1.33871735 11.37051056 -1.35858704 12.29131409 -1.37905884 13.24002075 C-1.39061005 14.23589203 -1.40216125 15.23176331 -1.4140625 16.2578125 C-1.43342865 17.27600067 -1.4527948 18.29418884 -1.4727478 19.3432312 C-1.53265355 22.60373489 -1.57897299 25.86427367 -1.625 29.125 C-1.66316965 31.33204687 -1.70222077 33.53907869 -1.7421875 35.74609375 C-1.83836394 41.16392911 -1.92337899 46.58185473 -2 52 C-2.66 51.67 -3.32 51.34 -4 51 C-4.09931654 45.02267229 -4.17167995 39.0458312 -4.21972656 33.06787109 C-4.23976836 31.03686143 -4.26700947 29.00590894 -4.30175781 26.97509766 C-4.35060414 24.04575444 -4.37304343 21.117178 -4.390625 18.1875 C-4.41127014 17.28821777 -4.43191528 16.38893555 -4.45318604 15.46240234 C-4.45536991 9.24389327 -3.15366578 5.36887046 0 0 Z " fill="#F9FED1" transform="translate(43,49)"/>
<path d="M0 0 C1.79206547 0.14084796 3.58364917 0.28783701 5.375 0.4375 C6.87160156 0.55931641 6.87160156 0.55931641 8.3984375 0.68359375 C11 1 11 1 13 2 C13 3.98 13 5.96 13 8 C2.11 8.495 2.11 8.495 -9 9 C-9 7.02 -9 5.04 -9 3 C-6.03 3.33 -3.06 3.66 0 4 C0 2.68 0 1.36 0 0 Z " fill="#F9F9F5" transform="translate(88,70)"/>
<path d="M0 0 C-0.061875 0.928125 -0.12375 1.85625 -0.1875 2.8125 C-0.30894264 5.98395103 -0.30894264 5.98395103 1.5 7.875 C1.995 8.24625 2.49 8.6175 3 9 C1.73115998 12.91225672 0.71481455 15.0949669 -3 17 C-5.99092476 17.53206434 -8.96943709 17.81220871 -12 18 C-12.33 16.35 -12.66 14.7 -13 13 C-12.37351562 12.76925781 -11.74703125 12.53851563 -11.1015625 12.30078125 C-5.87772074 10.3765096 -5.87772074 10.3765096 -2.4375 6.25 C-2.2209375 5.13625 -2.2209375 5.13625 -2 4 C-3.98 4 -5.96 4 -8 4 C-8.33 3.34 -8.66 2.68 -9 2 C-3.375 0 -3.375 0 0 0 Z " fill="#A4BC2D" transform="translate(131,98)"/>
<path d="M0 0 C0.99 0.33 1.98 0.66 3 1 C2.34 1 1.68 1 1 1 C1.00523682 1.98919434 1.01047363 2.97838867 1.01586914 3.99755859 C1.03394523 7.66144916 1.04544158 11.32533577 1.05493164 14.98925781 C1.05996588 16.57617861 1.06679369 18.16309477 1.07543945 19.75 C1.08754482 22.02865749 1.09323733 24.30725376 1.09765625 26.5859375 C1.10281754 27.29744965 1.10797882 28.00896179 1.11329651 28.74203491 C1.11387171 33.77225659 1.11387171 33.77225659 0 36 C-0.66 36 -1.32 36 -2 36 C-2.90022134 30.59867195 -3.1100667 25.28306679 -3.125 19.8125 C-3.13176758 18.77899414 -3.13176758 18.77899414 -3.13867188 17.72460938 C-3.12792483 14.02404251 -2.88020288 10.59765462 -2 7 C-2.99 6.67 -3.98 6.34 -5 6 C-5 5.34 -5 4.68 -5 4 C-4.0409375 3.8453125 -4.0409375 3.8453125 -3.0625 3.6875 C-2.381875 3.460625 -1.70125 3.23375 -1 3 C-0.67 2.01 -0.34 1.02 0 0 Z " fill="#F9FCE3" transform="translate(181,52)"/>
<path d="M0 0 C0.33 0.66 0.66 1.32 1 2 C3.52733235 2.65555119 3.52733235 2.65555119 6 3 C8 9.625 8 9.625 8 13 C9.98 13 11.96 13 14 13 C14 13.33 14 13.66 14 14 C12.02 14 10.04 14 8 14 C8 22.58 8 31.16 8 40 C7.67 40 7.34 40 7 40 C7 31.42 7 22.84 7 14 C5.02 14 3.04 14 1 14 C0 13 0 13 -0.09765625 10.71484375 C-0.08605469 9.79832031 -0.07445312 8.88179687 -0.0625 7.9375 C-0.05347656 7.01839844 -0.04445312 6.09929688 -0.03515625 5.15234375 C-0.02355469 4.44207031 -0.01195312 3.73179688 0 3 C-1.32 2.67 -2.64 2.34 -4 2 C-2.68 2 -1.36 2 0 2 C0 1.34 0 0.68 0 0 Z " fill="#F9F9F0" transform="translate(189,49)"/>
<path d="M0 0 C0.66 0 1.32 0 2 0 C2.33 9.57 2.66 19.14 3 29 C5.64 29.33 8.28 29.66 11 30 C11 30.66 11 31.32 11 32 C8.525 32.495 8.525 32.495 6 33 C6 33.33 6 33.66 6 34 C8.97 34.33 11.94 34.66 15 35 C11.78563471 37.14291019 9.82573391 37.30025791 6.03515625 37.4609375 C2.9726763 36.767324 1.91568995 35.47060156 0 33 C-0.34959406 30.31827524 -0.46923774 28.06062042 -0.390625 25.390625 C-0.38496521 24.66381531 -0.37930542 23.93700562 -0.37347412 23.18817139 C-0.35114553 20.87476755 -0.30096048 18.5629328 -0.25 16.25 C-0.22993023 14.67840784 -0.21168029 13.10679132 -0.1953125 11.53515625 C-0.15129293 7.68950283 -0.08229375 3.84501711 0 0 Z " fill="#ECF3BD" transform="translate(164,53)"/>
<path d="M0 0 C4.29 0 8.58 0 13 0 C13 4.62 13 9.24 13 14 C11.02 14 9.04 14 7 14 C6.91363281 13.37351562 6.82726562 12.74703125 6.73828125 12.1015625 C6.31373291 9.63217125 5.85727584 7.35643158 5 5 C2.52985528 3.32386813 2.52985528 3.32386813 0 3 C0 2.01 0 1.02 0 0 Z " fill="#A3BF17" transform="translate(190,48)"/>
<path d="M0 0 C2.866875 -0.0825 5.73375 -0.165 8.6875 -0.25 C9.58170654 -0.28641602 10.47591309 -0.32283203 11.3972168 -0.36035156 C15.30754304 -0.41472865 17.55091303 -0.24673841 21.04296875 1.671875 C23.40844302 4.4858923 23.67503189 5.85767861 23.625 9.5 C23.63789062 10.4384375 23.65078125 11.376875 23.6640625 12.34375 C23 15 23 15 21.04296875 17.328125 C16.83202178 19.64171332 13.3967686 19.44178209 8.6875 19.25 C4.3871875 19.12625 4.3871875 19.12625 0 19 C0 12.73 0 6.46 0 0 Z M1 1 C1 6.28 1 11.56 1 17 C6.94 17 12.88 17 19 17 C19 16.01 19 15.02 19 14 C19.99 14 20.98 14 22 14 C22.08096803 12.54257537 22.13917774 11.08387193 22.1875 9.625 C22.22230469 8.81289062 22.25710937 8.00078125 22.29296875 7.1640625 C22.19628906 6.44992188 22.09960938 5.73578125 22 5 C19.18490007 2.7226499 19.18490007 2.7226499 16 3 C16 2.34 16 1.68 16 1 C11.05 1 6.1 1 1 1 Z " fill="#FAFDD8" transform="translate(48,58)"/>
<path d="M0 0 C1.98 0 3.96 0 6 0 C7.32 5.28 8.64 10.56 10 16 C9.34 16.33 8.68 16.66 8 17 C7.87625 16.195625 7.7525 15.39125 7.625 14.5625 C7.41875 13.716875 7.2125 12.87125 7 12 C6.34 11.67 5.68 11.34 5 11 C5.16371094 11.56203125 5.32742187 12.1240625 5.49609375 12.703125 C6.02864997 15.13059056 6.09898681 17.26889681 6.0625 19.75 C6.05347656 20.54921875 6.04445313 21.3484375 6.03515625 22.171875 C6.01775391 23.07679687 6.01775391 23.07679687 6 24 C3.95701494 20.38336428 2.92757654 16.55059554 1.875 12.5625 C1.69324219 11.90701172 1.51148437 11.25152344 1.32421875 10.57617188 C0.36210633 6.9700588 -0.21577927 3.73298129 0 0 Z " fill="#A7BF2A" transform="translate(111,64)"/>
<path d="M0 0 C1.98 0 3.96 0 6 0 C6 1.65 6 3.3 6 5 C5.34 5 4.68 5 4 5 C3.34 8.63 2.68 12.26 2 16 C1.34 16 0.68 16 0 16 C0 17.32 0 18.64 0 20 C-0.99 20 -1.98 20 -3 20 C-3.40850553 12.91923749 -1.90420731 6.80074041 0 0 Z " fill="#A2BC1E" transform="translate(139,64)"/>
<path d="M0 0 C3.3 0 6.6 0 10 0 C10 3.3 10 6.6 10 10 C6.7 10 3.4 10 0 10 C0 6.7 0 3.4 0 0 Z " fill="#A0BA1E" transform="translate(204,38)"/>
<path d="M0 0 C0.66 0.33 1.32 0.66 2 1 C2 2.65 2 4.3 2 6 C-3.26723095 9.24727345 -7.39949939 9.37334093 -13.375 9.1875 C-14.62216797 9.16719727 -14.62216797 9.16719727 -15.89453125 9.14648438 C-17.92997066 9.11139059 -19.96507291 9.05759228 -22 9 C-21.67 8.01 -21.34 7.02 -21 6 C-15.39 6 -9.78 6 -4 6 C-4 5.01 -4 4.02 -4 3 C-2 1.3125 -2 1.3125 0 0 Z " fill="#A4C113" transform="translate(70,73)"/>
<path d="M0 0 C2.27678571 8.03571429 2.27678571 8.03571429 1 12 C0.01 11.67 -0.98 11.34 -2 11 C-1.98952637 11.68102783 -1.97905273 12.36205566 -1.96826172 13.0637207 C-1.92671122 16.14660966 -1.90067689 19.22943971 -1.875 22.3125 C-1.85824219 23.38435547 -1.84148437 24.45621094 -1.82421875 25.56054688 C-1.81777344 26.58857422 -1.81132813 27.61660156 -1.8046875 28.67578125 C-1.79421387 29.62364502 -1.78374023 30.57150879 -1.77294922 31.5480957 C-2 34 -2 34 -4 37 C-4.99 36.34 -5.98 35.68 -7 35 C-6.51144531 34.2265625 -6.02289063 33.453125 -5.51953125 32.65625 C-3.50828994 27.81686218 -3.59716313 23.68172314 -3.6875 18.5 C-3.68427734 17.57574219 -3.68105469 16.65148437 -3.67773438 15.69921875 C-3.71671427 10.74522906 -4.05861772 6.64075445 -6 2 C-1.125 0 -1.125 0 0 0 Z " fill="#EBF3BA" transform="translate(111,64)"/>
<path d="M0 0 C0.33 0 0.66 0 1 0 C1.2765289 2.07997826 1.52030075 4.1643308 1.75 6.25 C1.88921875 7.41015625 2.0284375 8.5703125 2.171875 9.765625 C1.95743772 13.80094471 0.82609937 14.30235969 -2 17 C-2.69397449 20.03222778 -2.69397449 20.03222778 -2.75 23.25 C-2.80671875 24.32765625 -2.8634375 25.4053125 -2.921875 26.515625 C-2.94765625 27.33546875 -2.9734375 28.1553125 -3 29 C-3.66 29 -4.32 29 -5 29 C-5.13277344 29.62648438 -5.26554688 30.25296875 -5.40234375 30.8984375 C-5.57894531 31.71570313 -5.75554687 32.53296875 -5.9375 33.375 C-6.11152344 34.18710938 -6.28554687 34.99921875 -6.46484375 35.8359375 C-7 38 -7 38 -8 40 C-8.66 40 -9.32 40 -10 40 C-6.66666667 26.66666667 -3.33333333 13.33333333 0 0 Z " fill="#EFF6C0" transform="translate(144,69)"/>
<path d="M0 0 C0.33 0 0.66 0 1 0 C1 1.98 1 3.96 1 6 C16.38055041 6.7453975 16.38055041 6.7453975 31 3 C31 3.66 31 4.32 31 5 C25.49050174 8.82604046 20.76872627 9.20138522 14.1875 9.25 C13.50107422 9.270625 12.81464844 9.29125 12.10742188 9.3125 C5.57481599 9.36194262 -0.08021971 7.52619787 -5 3 C-5 2.34 -5 1.68 -5 1 C-2.525 1.495 -2.525 1.495 0 2 C0 1.34 0 0.68 0 0 Z " fill="#A2B930" transform="translate(159,93)"/>
<path d="M0 0 C0.66 0 1.32 0 2 0 C3.4807848 2.9615696 3.35314037 5.83506295 3.5625 9.125 C3.68818359 11.04699219 3.68818359 11.04699219 3.81640625 13.0078125 C3.87699219 13.99523437 3.93757813 14.98265625 4 16 C4.66 16 5.32 16 6 16 C6.33 12.04 6.66 8.08 7 4 C7.33 4 7.66 4 8 4 C8.59393579 16.3626635 8.59393579 16.3626635 5 21 C-0.73455753 24.14355302 -5.48308221 24.3789238 -11.9375 24.1875 C-13.24944336 24.16719727 -13.24944336 24.16719727 -14.58789062 24.14648438 C-16.72553086 24.11144109 -18.86284984 24.05764541 -21 24 C-21 23.67 -21 23.34 -21 23 C-19.75863281 22.95101562 -18.51726563 22.90203125 -17.23828125 22.8515625 C-15.59633306 22.77650201 -13.95440703 22.70095561 -12.3125 22.625 C-11.49587891 22.5940625 -10.67925781 22.563125 -9.83789062 22.53125 C-5.49873367 22.32044076 -1.95716543 21.98261241 2 20 C1.85919445 17.22882696 1.71256882 14.45817359 1.5625 11.6875 C1.52318359 10.90181641 1.48386719 10.11613281 1.44335938 9.30664062 C1.40146484 8.54931641 1.35957031 7.79199219 1.31640625 7.01171875 C1.27974854 6.31522217 1.24309082 5.61872559 1.20532227 4.90112305 C1.04418847 2.7783428 1.04418847 2.7783428 0 0 Z " fill="#9CB324" transform="translate(69,59)"/>
<path d="M0 0 C1.09570312 0.00902344 2.19140625 0.01804688 3.3203125 0.02734375 C4.16335937 0.03894531 5.00640625 0.05054688 5.875 0.0625 C6.205 1.0525 6.535 2.0425 6.875 3.0625 C6.545 3.7225 6.215 4.3825 5.875 5.0625 C0.925 5.0625 -4.025 5.0625 -9.125 5.0625 C-8.795 3.7425 -8.465 2.4225 -8.125 1.0625 C-5.36047967 -0.31976016 -3.0788637 -0.03275387 0 0 Z " fill="#9EB71E" transform="translate(92.125,62.9375)"/>
<path d="M0 0 C2 3 2 3 2 5 C2.66 5 3.32 5 4 5 C4.33 5.66 4.66 6.32 5 7 C8.02934491 7.65772428 8.02934491 7.65772428 11 8 C10.65930765 11.15140423 10.41923159 12.60781561 8.0625 14.8125 C6 16 6 16 4 16 C4.33 14.35 4.66 12.7 5 11 C3.68 10.67 2.36 10.34 1 10 C0.67 6.7 0.34 3.4 0 0 Z " fill="#F6FAD8" transform="translate(118,94)"/>
<path d="M0 0 C1.50433594 0.01353516 1.50433594 0.01353516 3.0390625 0.02734375 C3.80992187 0.03894531 4.58078125 0.05054688 5.375 0.0625 C5.705 1.0525 6.035 2.0425 6.375 3.0625 C5.385 2.7325 4.395 2.4025 3.375 2.0625 C1.64704648 1.99447033 -0.08335365 1.97754355 -1.8125 2 C-2.71355469 2.00902344 -3.61460937 2.01804688 -4.54296875 2.02734375 C-5.57357422 2.04474609 -5.57357422 2.04474609 -6.625 2.0625 C-6.53143557 6.70763161 -6.42533591 11.3522438 -6.30761719 15.99682617 C-6.26933779 17.57682451 -6.23448303 19.15690969 -6.203125 20.73706055 C-6.15745124 23.00861645 -6.09946216 25.27957509 -6.0390625 27.55078125 C-6.02751129 28.25713211 -6.01596008 28.96348297 -6.00405884 29.6912384 C-5.89428952 33.33991393 -5.70357636 34.94463546 -3.625 38.0625 C-4 40.25 -4 40.25 -4.625 42.0625 C-7.49064149 37.25668371 -8.03341084 33.29733559 -7.91796875 27.8203125 C-7.91372391 27.05194061 -7.90947906 26.28356873 -7.90510559 25.49191284 C-7.88841826 23.05674015 -7.85078641 20.6224192 -7.8125 18.1875 C-7.79744023 16.52865785 -7.78375409 14.86980263 -7.77148438 13.2109375 C-7.73854759 9.1611341 -7.68683594 5.11196106 -7.625 1.0625 C-4.98041621 -0.25979189 -2.94738699 -0.03427194 0 0 Z " fill="#AFC24C" transform="translate(157.625,51.9375)"/>
<path d="M0 0 C0.66 1.32 1.32 2.64 2 4 C1.01 4.495 1.01 4.495 0 5 C0 5.66 0 6.32 0 7 C-0.969375 7.309375 -1.93875 7.61875 -2.9375 7.9375 C-5.84065792 8.69523342 -5.84065792 8.69523342 -7 10 C-11.66478085 10.42407099 -14.18464006 9.69319525 -18 7 C-17 4 -17 4 -15 2 C-14.67 3.65 -14.34 5.3 -14 7 C-7.69280693 6.07934219 -4.08078632 5.0022542 0 0 Z " fill="#F6F9DE" transform="translate(133,109)"/>
<path d="M0 0 C0.66 0 1.32 0 2 0 C2.33 3.96 2.66 7.92 3 12 C2.01 12.495 2.01 12.495 1 13 C1 11.35 1 9.7 1 8 C-0.98 8 -2.96 8 -5 8 C-5.19335938 9.10859375 -5.38671875 10.2171875 -5.5859375 11.359375 C-5.84863489 12.82297476 -6.11167367 14.28651327 -6.375 15.75 C-6.50132812 16.47960937 -6.62765625 17.20921875 -6.7578125 17.9609375 C-7.41834074 21.5938428 -8.07447662 24.8187005 -10 28 C-10.21857101 22.53572482 -10.06127631 18.15319077 -8 13 C-7.62875 11.88625 -7.2575 10.7725 -6.875 9.625 C-6.58625 8.75875 -6.2975 7.8925 -6 7 C-4.02 7 -2.04 7 0 7 C0 4.69 0 2.38 0 0 Z " fill="#F2F7CD" transform="translate(144,56)"/>
<path d="M0 0 C1.32 0 2.64 0 4 0 C6.06810447 5.04100465 6.46244252 9.62276143 6 15 C5.67 15.66 5.34 16.32 5 17 C4.34 17 3.68 17 3 17 C1.67000653 14.34001305 1.7011797 12.02630809 1.5 9.0625 C1.2759354 5.76955062 1.04612306 3.13836918 0 0 Z " fill="#A6C509" transform="translate(70,58)"/>
<path d="M0 0 C1.14315747 2.28631494 1.12112732 3.54347406 1.11352539 6.08251953 C1.11344986 6.92324005 1.11337433 7.76396057 1.11329651 8.63015747 C1.10555458 9.99272171 1.10555458 9.99272171 1.09765625 11.3828125 C1.0962413 12.31221649 1.09482635 13.24162048 1.09336853 14.19918823 C1.08776053 17.17449124 1.07520668 20.14971964 1.0625 23.125 C1.05748603 25.13932183 1.05292295 27.15364484 1.04882812 29.16796875 C1.0377885 34.11200802 1.02051849 39.05599135 1 44 C2.32 44.33 3.64 44.66 5 45 C5 45.66 5 46.32 5 47 C3.02 47 1.04 47 -1 47 C-1.02527002 40.46721214 -1.04283292 33.93443679 -1.05493164 27.40161133 C-1.05997317 25.17732268 -1.06680623 22.95303737 -1.07543945 20.72875977 C-1.08751298 17.53921691 -1.09322996 14.34971771 -1.09765625 11.16015625 C-1.10281754 10.15912369 -1.10797882 9.15809113 -1.11329651 8.12672424 C-1.11337204 7.20584518 -1.11344757 6.28496613 -1.11352539 5.33618164 C-1.115746 4.52121719 -1.11796661 3.70625275 -1.12025452 2.86659241 C-1 1 -1 1 0 0 Z " fill="#A5B64A" transform="translate(42,54)"/>
<path d="M0 0 C-0.99 0.33 -1.98 0.66 -3 1 C-3 1.66 -3 2.32 -3 3 C-2.01 3.33 -1.02 3.66 0 4 C0.6875 6.0625 0.6875 6.0625 1 8 C0.27981689 7.67854004 -0.44036621 7.35708008 -1.18237305 7.02587891 C-3.99006926 6.00361571 -6.11361299 5.69520443 -9.08203125 5.5859375 C-10.01337891 5.54726563 -10.94472656 5.50859375 -11.90429688 5.46875 C-12.86400391 5.4378125 -13.82371094 5.406875 -14.8125 5.375 C-15.79154297 5.33632813 -16.77058594 5.29765625 -17.77929688 5.2578125 C-20.18601374 5.16389184 -22.59273012 5.07821799 -25 5 C-25 4.67 -25 4.34 -25 4 C-23.80761719 3.87882812 -22.61523438 3.75765625 -21.38671875 3.6328125 C-19.82026592 3.46397327 -18.25386212 3.29467868 -16.6875 3.125 C-15.90181641 3.04636719 -15.11613281 2.96773437 -14.30664062 2.88671875 C-13.54931641 2.80292969 -12.79199219 2.71914063 -12.01171875 2.6328125 C-11.31522217 2.55949707 -10.61872559 2.48618164 -9.90112305 2.41064453 C-5.9780425 1.5632551 -4.30393077 -0.23264491 0 0 Z " fill="#F4F8D3" transform="translate(104,58)"/>
<path d="M0 0 C0.350625 0.45375 0.70125 0.9075 1.0625 1.375 C6.88374449 6.25733408 14.87013353 5.21073497 22 5 C21.67 5.99 21.34 6.98 21 8 C18.41638482 8.05407567 15.83390745 8.093707 13.25 8.125 C12.52039063 8.14175781 11.79078125 8.15851563 11.0390625 8.17578125 C3.88942421 8.24077796 3.88942421 8.24077796 1 6 C0.25 2.875 0.25 2.875 0 0 Z " fill="#F3F9CC" transform="translate(78,96)"/>
<path d="M0 0 C0.33 0 0.66 0 1 0 C1.33 10.89 1.66 21.78 2 33 C5.16245541 34.0541518 7.86948218 34.31275672 11.1875 34.5625 C12.27417969 34.64628906 13.36085937 34.73007813 14.48046875 34.81640625 C15.72763672 34.90728516 15.72763672 34.90728516 17 35 C17 35.33 17 35.66 17 36 C14.54101345 36.08076963 12.08466258 36.14037143 9.625 36.1875 C8.92632812 36.21263672 8.22765625 36.23777344 7.5078125 36.26367188 C5.4765625 36.29296875 5.4765625 36.29296875 2 36 C-0.42869909 32.35695136 -0.25675675 29.69277661 -0.1953125 25.48828125 C-0.1924826 24.76005661 -0.18965271 24.03183197 -0.18673706 23.28153992 C-0.17555257 20.95835863 -0.15045166 18.63556453 -0.125 16.3125 C-0.11496794 14.7363337 -0.10584248 13.16016135 -0.09765625 11.58398438 C-0.07561896 7.72250733 -0.04110141 3.86131929 0 0 Z " fill="#9AB126" transform="translate(163,55)"/>
<path d="M0 0 C2.15634036 2.15634036 3.47793991 4.37098712 5 7 C5.6496875 5.5459375 5.6496875 5.5459375 6.3125 4.0625 C8 1 8 1 11 0 C10.69217504 1.64671412 10.37860766 3.29235576 10.0625 4.9375 C9.88847656 5.85402344 9.71445313 6.77054687 9.53515625 7.71484375 C9 10 9 10 8 11 C6.33382885 11.04063832 4.66611905 11.042721 3 11 C0.84694043 7.14243493 -0.39253254 4.44870215 0 0 Z " fill="#F5F9D5" transform="translate(123,85)"/>
<path d="M0 0 C3.63 0 7.26 0 11 0 C11 2.64 11 5.28 11 8 C12.32 8 13.64 8 15 8 C15 7.34 15 6.68 15 6 C15.99 5.67 16.98 5.34 18 5 C18.33 6.32 18.66 7.64 19 9 C15.7 9 12.4 9 9 9 C9 6.69 9 4.38 9 2 C6.36 2 3.72 2 1 2 C1 3.65 1 5.3 1 7 C0.67 7 0.34 7 0 7 C0 4.69 0 2.38 0 0 Z " fill="#F9FCD6" transform="translate(195,28)"/>
<path d="M0 0 C1.26328125 0.02707031 2.5265625 0.05414063 3.828125 0.08203125 C4.79234375 0.11683594 5.7565625 0.15164062 6.75 0.1875 C6.75 3.1575 6.75 6.1275 6.75 9.1875 C6.42 9.1875 6.09 9.1875 5.75 9.1875 C5.75 6.5475 5.75 3.9075 5.75 1.1875 C2.12 1.1875 -1.51 1.1875 -5.25 1.1875 C-5.25 1.8475 -5.25 2.5075 -5.25 3.1875 C-6.24 3.1875 -7.23 3.1875 -8.25 3.1875 C-7.92 5.4975 -7.59 7.8075 -7.25 10.1875 C-8.57 9.8575 -9.89 9.5275 -11.25 9.1875 C-11.5 6.375 -11.5 6.375 -11.25 3.1875 C-7.9123882 -0.41712074 -4.70765855 -0.13076829 0 0 Z " fill="#E9F1B7" transform="translate(95.25,83.8125)"/>
<path d="M0 0 C1.32 0.33 2.64 0.66 4 1 C3.09998917 4.96004764 2.40798144 6.67361485 -0.8125 9.25 C-5.42209101 11.78075585 -8.68257068 13.3038531 -14 13 C-13.42507812 12.72800781 -12.85015625 12.45601562 -12.2578125 12.17578125 C-7.531862 9.71468938 -2.99732079 6.91153151 -0.5 2.125 C-0.335 1.42375 -0.17 0.7225 0 0 Z " fill="#F2F7D2" transform="translate(195,89)"/>
<path d="M0 0 C2.97 0.33 5.94 0.66 9 1 C9 1.66 9 2.32 9 3 C7.35 3.33 5.7 3.66 4 4 C4 4.33 4 4.66 4 5 C6.97 5.33 9.94 5.66 13 6 C10.00261059 7.99825961 9.36652492 8.27550398 6 8.25 C5.319375 8.25515625 4.63875 8.2603125 3.9375 8.265625 C2 8 2 8 -1 6 C-0.67 4.02 -0.34 2.04 0 0 Z " fill="#F3F8D3" transform="translate(166,82)"/>
<path d="M0 0 C4.29 0 8.58 0 13 0 C13 1.32 13 2.64 13 4 C11.35 3.67 9.7 3.34 8 3 C7.67 4.32 7.34 5.64 7 7 C7 6.34 7 5.68 7 5 C4.69 4.34 2.38 3.68 0 3 C0 2.01 0 1.02 0 0 Z " fill="#A5BD2B" transform="translate(190,48)"/>
<path d="M0 0 C0.66 0.66 1.32 1.32 2 2 C1.67 2.99 1.34 3.98 1 5 C-3.29 5 -7.58 5 -12 5 C-12 7.31 -12 9.62 -12 12 C-12.66 11.67 -13.32 11.34 -14 11 C-14.36689387 5.49659202 -14.36689387 5.49659202 -12.7734375 3.33984375 C-10.57673231 1.68021846 -9.16491606 1.54574433 -6.4375 1.375 C-3.09224742 1.17127819 -3.09224742 1.17127819 0 0 Z " fill="#F5F9D2" transform="translate(162,48)"/>
<path d="M0 0 C0.66 0.66 1.32 1.32 2 2 C1.625 5.125 1.625 5.125 1 8 C3.0745356 8.1490712 3.0745356 8.1490712 5 7 C5.66 8.65 6.32 10.3 7 12 C4.03 11.505 4.03 11.505 1 11 C1.99 12.98 2.98 14.96 4 17 C1 16 1 16 -0.75 14.0625 C-2.55768308 9.63367646 -1.92642821 5.63214105 -1 1 C-0.67 0.67 -0.34 0.34 0 0 Z " fill="#AAC03B" transform="translate(79,83)"/>
<path d="M0 0 C2.0625 0.4375 2.0625 0.4375 4 1 C3.01 1.495 3.01 1.495 2 2 C1.67 2.99 1.34 3.98 1 5 C5.95 5 10.9 5 16 5 C16 3.35 16 1.7 16 0 C17.98 0.66 19.96 1.32 22 2 C21.01 2.66 20.02 3.32 19 4 C18.67 4.99 18.34 5.98 18 7 C11.73 6.67 5.46 6.34 -1 6 C-1 1 -1 1 0 0 Z " fill="#B5C55F" transform="translate(82,63)"/>
<path d="M0 0 C2.31 0 4.62 0 7 0 C7 2.31 7 4.62 7 7 C4.69 7 2.38 7 0 7 C0 4.69 0 2.38 0 0 Z " fill="#A5BA36" transform="translate(196,30)"/>
<path d="M0 0 C0.33 0 0.66 0 1 0 C1 2.31 1 4.62 1 7 C4.3 7 7.6 7 11 7 C11 7.33 11 7.66 11 8 C7.7 8 4.4 8 1 8 C1 15.92 1 23.84 1 32 C0.67 32 0.34 32 0 32 C0 24.08 0 16.16 0 8 C-1.98 8 -3.96 8 -6 8 C-6 7.67 -6 7.34 -6 7 C-4.02 7 -2.04 7 0 7 C0 4.69 0 2.38 0 0 Z " fill="#D0DF80" transform="translate(203,30)"/>
<path d="M0 0 C0.33 0 0.66 0 1 0 C1.0246501 5.10863896 1.04283607 10.21724359 1.05493164 15.32592773 C1.05997204 17.06519168 1.0668043 18.80445136 1.07543945 20.54370117 C1.08751792 23.03825937 1.09323108 25.53276173 1.09765625 28.02734375 C1.10281754 28.80963852 1.10797882 29.59193329 1.11329651 30.39793396 C1.11349226 32.26567114 1.06199694 34.13329204 1 36 C0 37 0 37 -3.0625 37.0625 C-4.031875 37.041875 -5.00125 37.02125 -6 37 C-3 35 -3 35 -1 35 C-0.67 23.45 -0.34 11.9 0 0 Z " fill="#ABBE45" transform="translate(182,53)"/>
<path d="M0 0 C1.77155654 0.11429397 3.54226229 0.24183037 5.3125 0.375 C6.79169922 0.47941406 6.79169922 0.47941406 8.30078125 0.5859375 C11 1 11 1 14 3 C8.60539047 5.27141454 3.73842251 5.20413361 -2 5 C-2 4.34 -2 3.68 -2 3 C0.31 3 2.62 3 5 3 C5 2.34 5 1.68 5 1 C3.35 1 1.7 1 0 1 C0 0.67 0 0.34 0 0 Z " fill="#A3BB26" transform="translate(90,97)"/>
<path d="M0 0 C2.89684158 -0.10829314 5.78961019 -0.18743954 8.6875 -0.25 C9.50412109 -0.28351562 10.32074219 -0.31703125 11.16210938 -0.3515625 C15.15974461 -0.41630153 17.4849475 -0.2785488 21.0625 1.65625 C23.48142603 4.58237019 23.53536623 6.00584728 23.3125 9.75 C23.24482422 11.22726563 23.24482422 11.22726563 23.17578125 12.734375 C23.11777344 13.48203125 23.05976562 14.2296875 23 15 C22.01 15.495 22.01 15.495 21 16 C21 12.37 21 8.74 21 5 C19.35 4.34 17.7 3.68 16 3 C16 2.34 16 1.68 16 1 C11.05 1 6.1 1 1 1 C0.67 1.66 0.34 2.32 0 3 C0 2.01 0 1.02 0 0 Z " fill="#E8F1B0" transform="translate(48,58)"/>
<path d="M0 0 C0.66 0.33 1.32 0.66 2 1 C1.71311275 8.00004889 0.49595688 12.91026866 -3 19 C-3.33 19 -3.66 19 -4 19 C-3.24793388 12.48209366 -3.24793388 12.48209366 -1.875 9.8125 C-0.76926687 8.01600461 -0.76926687 8.01600461 -1.5 6 C-2 4 -2 4 -1.0625 1.75 C-0.711875 1.1725 -0.36125 0.595 0 0 Z " fill="#A5C307" transform="translate(136,85)"/>
<path d="M0 0 C1.98 0 3.96 0 6 0 C7.32 5.28 8.64 10.56 10 16 C9.34 16.33 8.68 16.66 8 17 C7.49363393 15.25183142 6.99515381 13.50137737 6.5 11.75 C6.2215625 10.77546875 5.943125 9.8009375 5.65625 8.796875 C5 6 5 6 5 2 C4.01 2 3.02 2 2 2 C2 3.98 2 5.96 2 8 C-0.1519437 4.77208445 -0.20086443 3.71599191 0 0 Z " fill="#A2B833" transform="translate(111,64)"/>
<path d="M0 0 C0.33 1.32 0.66 2.64 1 4 C1.66 4 2.32 4 3 4 C2 6 2 6 0 9 C0.31506627 12.14221967 0.31506627 12.14221967 1 15 C-0.6875 16.5625 -0.6875 16.5625 -3 18 C-5.75 17.6875 -5.75 17.6875 -8 17 C-7.38640625 16.82726562 -6.7728125 16.65453125 -6.140625 16.4765625 C-2.88541584 14.231181 -2.57511112 11.04065759 -1.75 7.375 C-1.57726562 6.66859375 -1.40453125 5.9621875 -1.2265625 5.234375 C-0.80300757 3.4930936 -0.39954503 1.7469469 0 0 Z " fill="#A8C129" transform="translate(135,80)"/>
<path d="M0 0 C0.33 0.99 0.66 1.98 1 3 C2.98 3 4.96 3 7 3 C7 3.33 7 3.66 7 4 C5.02 4 3.04 4 1 4 C1 12.58 1 21.16 1 30 C0.67 30 0.34 30 0 30 C0 21.42 0 12.84 0 4 C-1.98 4 -3.96 4 -6 4 C-6 3.67 -6 3.34 -6 3 C-4.02 3 -2.04 3 0 3 C0 2.01 0 1.02 0 0 Z " fill="#DAE794" transform="translate(196,59)"/>
<path d="M0 0 C1.32 0 2.64 0 4 0 C3.67 0.99 3.34 1.98 3 3 C-0.61867559 4.2062252 -3.92506251 4.10816918 -7.6875 4.0625 C-8.38939453 4.05798828 -9.09128906 4.05347656 -9.81445312 4.04882812 C-11.54300538 4.03706927 -13.27151365 4.01913454 -15 4 C-15 3.34 -15 2.68 -15 2 C-10.05 2 -5.1 2 0 2 C0 1.34 0 0.68 0 0 Z " fill="#F8FBEA" transform="translate(64,90)"/>
<path d="M0 0 C2 2 2 2 3.25 4.875 C5.92944288 9.65971943 10.12991645 11.75226913 15 14 C5.51813472 13.05181347 5.51813472 13.05181347 3 11 C0.93061944 7.00905178 0 4.52370909 0 0 Z " fill="#F2F9C4" transform="translate(150,88)"/>
<path d="M0 0 C0.66 0 1.32 0 2 0 C2.268125 0.78375 2.53625 1.5675 2.8125 2.375 C3.84814432 5.28114923 3.84814432 5.28114923 7 7 C6.625 8.9375 6.625 8.9375 6 11 C5.01 11.495 5.01 11.495 4 12 C3.26924352 14.3140622 2.59861742 16.64828869 2 19 C0.19602023 15.39204047 0.99086508 11.13084645 1.0625 7.1640625 C1.01053813 4.53349301 0.78424047 2.48751273 0 0 Z " fill="#EEF6B8" transform="translate(75,57)"/>
<path d="M0 0 C0.33 1.65 0.66 3.3 1 5 C0.22398438 4.51917969 -0.55203125 4.03835937 -1.3515625 3.54296875 C-6.09274372 1.53786534 -10.27919482 1.4397134 -15.375 1.3125 C-16.30183594 1.27833984 -17.22867188 1.24417969 -18.18359375 1.20898438 C-20.45560812 1.12700448 -22.72726104 1.05769506 -25 1 C-25 0.67 -25 0.34 -25 0 C-8.29157175 -1.33257403 -8.29157175 -1.33257403 0 0 Z " fill="#E5EDB3" transform="translate(73,51)"/>
<path d="M0 0 C1.88391785 3.26545761 2.49287967 6.28111761 3 10 C2.01 10 1.02 10 0 10 C-0.33 10.66 -0.66 11.32 -1 12 C-1.99 11.67 -2.98 11.34 -4 11 C-4.33 8.69 -4.66 6.38 -5 4 C-3.68 4.99 -2.36 5.98 -1 7 C-0.67 4.69 -0.34 2.38 0 0 Z " fill="#F5F6ED" transform="translate(115,84)"/>
<path d="M0 0 C0.66 0 1.32 0 2 0 C2 1.32 2 2.64 2 4 C2.66 4 3.32 4 4 4 C5.00109515 7.31070838 5.10356134 10.30084769 5.0625 13.75 C5.05347656 14.73484375 5.04445313 15.7196875 5.03515625 16.734375 C5.02355469 17.48203125 5.01195313 18.2296875 5 19 C3.19523895 15.74358332 2.26051195 12.54663205 1.375 8.9375 C1.11460938 7.89464844 0.85421875 6.85179688 0.5859375 5.77734375 C0 3 0 3 0 0 Z " fill="#F0F6C5" transform="translate(117,64)"/>
<path d="M0 0 C1 3 1 3 0.4375 5.625 C-1 8 -1 8 -3.375 8.8125 C-8.58605202 9.08203717 -13.78350576 9.07596836 -19 9 C-19 8.67 -19 8.34 -19 8 C-15.37 8 -11.74 8 -8 8 C-8 7.34 -8 6.68 -8 6 C-5.69 5.34 -3.38 4.68 -1 4 C-0.67 2.68 -0.34 1.36 0 0 Z " fill="#F2F8C3" transform="translate(75,76)"/>
<path d="M0 0 C0.33 0 0.66 0 1 0 C1 5.28 1 10.56 1 16 C0.34 16 -0.32 16 -1 16 C-1.33 14.35 -1.66 12.7 -2 11 C-2.66 11 -3.32 11 -4 11 C-4 9.35 -4 7.7 -4 6 C-2.68 6 -1.36 6 0 6 C0 4.02 0 2.04 0 0 Z " fill="#A4C20A" transform="translate(106,72)"/>
<path d="M0 0 C0.33 0 0.66 0 1 0 C3.27678571 8.03571429 3.27678571 8.03571429 2 12 C1.01 11.67 0.02 11.34 -1 11 C-1.22174933 9.54364629 -1.42698698 8.08477044 -1.625 6.625 C-1.74101563 5.81289062 -1.85703125 5.00078125 -1.9765625 4.1640625 C-1.98429687 3.44992188 -1.99203125 2.73578125 -2 2 C-1.34 1.34 -0.68 0.68 0 0 Z " fill="#F2F8D1" transform="translate(110,64)"/>
<path d="M0 0 C0.33 0 0.66 0 1 0 C1 1.98 1 3.96 1 6 C2.299375 6.12375 3.59875 6.2475 4.9375 6.375 C7.15234375 6.5859375 7.15234375 6.5859375 9 7 C9.33 7.66 9.66 8.32 10 9 C3.39521488 8.65237973 0.05241666 7.3156059 -5 3 C-5 2.34 -5 1.68 -5 1 C-2.525 1.495 -2.525 1.495 0 2 C0 1.34 0 0.68 0 0 Z " fill="#AEC43F" transform="translate(159,93)"/>
<path d="M0 0 C0.66 1.32 1.32 2.64 2 4 C1.01 4.495 1.01 4.495 0 5 C0 5.66 0 6.32 0 7 C-4.62 7.33 -9.24 7.66 -14 8 C-14 7.67 -14 7.34 -14 7 C-13.40832031 6.91363281 -12.81664063 6.82726562 -12.20703125 6.73828125 C-6.50235666 5.72391007 -3.6756436 4.50562764 0 0 Z " fill="#EDF5BA" transform="translate(133,109)"/>
<path d="M0 0 C3.96 0 7.92 0 12 0 C12.33 0.66 12.66 1.32 13 2 C11.98679687 2.09087891 11.98679687 2.09087891 10.953125 2.18359375 C10.06109375 2.26738281 9.1690625 2.35117188 8.25 2.4375 C7.36828125 2.51871094 6.4865625 2.59992188 5.578125 2.68359375 C3.30649548 2.96238465 1.20148177 3.38790577 -1 4 C-0.67 2.68 -0.34 1.36 0 0 Z " fill="#A6C310" transform="translate(84,64)"/>
<path d="M0 0 C0.6875 1.625 0.6875 1.625 1 4 C-1.33333333 9.66666667 -1.33333333 9.66666667 -4 11 C-4.33 8.36 -4.66 5.72 -5 3 C-3.68 3 -2.36 3 -1 3 C-0.67 2.01 -0.34 1.02 0 0 Z " fill="#A3BA2C" transform="translate(195,85)"/>
<path d="M0 0 C0 1.65 0 3.3 0 5 C-0.99 5.495 -0.99 5.495 -2 6 C-2 5.34 -2 4.68 -2 4 C-3.98 4 -5.96 4 -8 4 C-8.33 3.34 -8.66 2.68 -9 2 C-3.375 0 -3.375 0 0 0 Z " fill="#AAC035" transform="translate(131,98)"/>
<path d="M0 0 C1.89492187 0.01353516 1.89492187 0.01353516 3.828125 0.02734375 C4.79234375 0.03894531 5.7565625 0.05054687 6.75 0.0625 C6.75 0.3925 6.75 0.7225 6.75 1.0625 C5.84636719 1.11148438 4.94273438 1.16046875 4.01171875 1.2109375 C2.83222656 1.28570312 1.65273437 1.36046875 0.4375 1.4375 C-1.32013672 1.54191406 -1.32013672 1.54191406 -3.11328125 1.6484375 C-6.40699887 1.84863747 -6.40699887 1.84863747 -9.25 4.0625 C-10.44232613 6.11253955 -10.44232613 6.11253955 -11.25 8.0625 C-12.58332095 5.3958581 -11.92102033 3.89569697 -11.25 1.0625 C-7.49600202 -0.1414337 -3.91782588 -0.03627617 0 0 Z " fill="#9BB127" transform="translate(94.25,82.9375)"/>
<path d="M0 0 C1.98 0 3.96 0 6 0 C6 2.64 6 5.28 6 8 C4.35 8 2.7 8 1 8 C1 6.68 1 5.36 1 4 C2.98 4.495 2.98 4.495 5 5 C5 3.68 5 2.36 5 1 C3.35 1 1.7 1 0 1 C0 0.67 0 0.34 0 0 Z " fill="#FAFDE4" transform="translate(197,38)"/>
<path d="M0 0 C4.29 0 8.58 0 13 0 C13 0.66 13 1.32 13 2 C11.58696762 2.2506019 10.16920526 2.47461921 8.75 2.6875 C7.96109375 2.81511719 7.1721875 2.94273438 6.359375 3.07421875 C4 3 4 3 0 0 Z " fill="#F8FDD7" transform="translate(168,102)"/>
<path d="M0 0 C1.31625194 2.63250388 0.74813658 3.80179056 0.0625 6.625 C-0.13214844 7.44226563 -0.32679688 8.25953125 -0.52734375 9.1015625 C-0.68332031 9.72804688 -0.83929688 10.35453125 -1 11 C-1.99 11 -2.98 11 -4 11 C-4 9.68 -4 8.36 -4 7 C-3.34 7 -2.68 7 -2 7 C-2 5.02 -2 3.04 -2 1 C-1.34 0.67 -0.68 0.34 0 0 Z " fill="#A5C506" transform="translate(140,73)"/>
<path d="M0 0 C1.98 0 3.96 0 6 0 C6 1.65 6 3.3 6 5 C5.67 3.68 5.34 2.36 5 1 C4.01 1 3.02 1 2 1 C1.67 3.31 1.34 5.62 1 8 C0.34 7.34 -0.32 6.68 -1 6 C-0.625 2.875 -0.625 2.875 0 0 Z " fill="#A7BB3C" transform="translate(139,64)"/>
<path d="M0 0 C0.33 0.66 0.66 1.32 1 2 C3.52733235 2.65555119 3.52733235 2.65555119 6 3 C5.360625 3.165 4.72125 3.33 4.0625 3.5 C1.83880759 4.781786 1.83880759 4.781786 1.51171875 6.9140625 C1.2724022 8.93575155 1.13106972 10.96841939 1 13 C0.67 13 0.34 13 0 13 C0 9.7 0 6.4 0 3 C-1.32 2.67 -2.64 2.34 -4 2 C-2.68 2 -1.36 2 0 2 C0 1.34 0 0.68 0 0 Z " fill="#E1ED9B" transform="translate(189,49)"/>
<path d="M0 0 C0.33 0 0.66 0 1 0 C1.33 4.29 1.66 8.58 2 13 C1.01 13.33 0.02 13.66 -1 14 C-1.027193 12.41676312 -1.04648306 10.83338938 -1.0625 9.25 C-1.07410156 8.36828125 -1.08570313 7.4865625 -1.09765625 6.578125 C-1.00826198 4.2181162 -0.66912821 2.25501476 0 0 Z " fill="#F1F7CE" transform="translate(144,69)"/>
<path d="M0 0 C2.875 1.0625 2.875 1.0625 6 3 C7.375 6.6875 7.375 6.6875 8 10 C7.01 10.495 7.01 10.495 6 11 C5.67 9.02 5.34 7.04 5 5 C3.68 4.67 2.36 4.34 1 4 C1.33 3.34 1.66 2.68 2 2 C1.34 2 0.68 2 0 2 C0 1.34 0 0.68 0 0 Z " fill="#A7BE32" transform="translate(69,53)"/>
<path d="M0 0 C0.33 1.32 0.66 2.64 1 4 C-2.37097383 5.49821059 -4.20442119 6 -8 6 C-8 5.34 -8 4.68 -8 4 C-4.91190305 2.23537317 -3.76687864 2 0 2 C0 1.34 0 0.68 0 0 Z " fill="#A6C30E" transform="translate(128,109)"/>
<path d="M0 0 C0.66 0.66 1.32 1.32 2 2 C1.67 2.66 1.34 3.32 1 4 C0.77532169 5.53668865 0.59203195 7.07968054 0.4375 8.625 C0.35371094 9.44226563 0.26992187 10.25953125 0.18359375 11.1015625 C0.12300781 11.72804688 0.06242187 12.35453125 0 13 C-2 11 -2 11 -2.01171875 8.65234375 C-1.90472656 7.75644531 -1.79773438 6.86054687 -1.6875 5.9375 C-1.58824219 5.03902344 -1.48898438 4.14054687 -1.38671875 3.21484375 C-1 1 -1 1 0 0 Z " fill="#B0C34E" transform="translate(79,83)"/>
<path d="M0 0 C0.99 0 1.98 0 3 0 C2.74438677 2.3431213 2.40729228 4.67843403 2 7 C1.01 7.495 1.01 7.495 0 8 C-1.125 2.25 -1.125 2.25 0 0 Z " fill="#A4C406" transform="translate(80,85)"/>
<path d="M0 0 C1.65 0 3.3 0 5 0 C5 2.97 5 5.94 5 9 C3.68 7.35 2.36 5.7 1 4 C1.66 3.01 2.32 2.02 3 1 C2.01 0.67 1.02 0.34 0 0 Z " fill="#F9FCDC" transform="translate(191,53)"/>
<path d="M0 0 C1.98 0 3.96 0 6 0 C5.67 1.98 5.34 3.96 5 6 C4.67 5.34 4.34 4.68 4 4 C1.98330173 2.86649466 1.98330173 2.86649466 0 2 C0 1.34 0 0.68 0 0 Z " fill="#A4C402" transform="translate(206,40)"/>
<path d="M0 0 C2 3 2 3 2 5 C2.66 5 3.32 5 4 5 C4.33 5.99 4.66 6.98 5 8 C3.02 8.99 3.02 8.99 1 10 C0.67 6.7 0.34 3.4 0 0 Z " fill="#EAF2BF" transform="translate(118,94)"/>
<path d="M0 0 C3.3 0.33 6.6 0.66 10 1 C10 1.66 10 2.32 10 3 C3.375 3.125 3.375 3.125 0 2 C0 1.34 0 0.68 0 0 Z " fill="#A4C309" transform="translate(85,97)"/>
<path d="M0 0 C0.99 0 1.98 0 3 0 C3.33 1.98 3.66 3.96 4 6 C3.34 6 2.68 6 2 6 C1.67 6.66 1.34 7.32 1 8 C-0.35439668 5.29120665 -0.06501451 2.99066732 0 0 Z " fill="#A6C40C" transform="translate(113,66)"/>
<path d="M0 0 C0.99 0 1.98 0 3 0 C3 2.97 3 5.94 3 9 C2.34 9 1.68 9 1 9 C-1.09230769 4.56923077 -1.09230769 4.56923077 -0.625 1.6875 C-0.41875 1.130625 -0.2125 0.57375 0 0 Z " fill="#A0BF08" transform="translate(101,66)"/>
<path d="M0 0 C1.98 0.66 3.96 1.32 6 2 C5.01 2.66 4.02 3.32 3 4 C2.67 4.99 2.34 5.98 2 7 C0.68 6.34 -0.64 5.68 -2 5 C-1.34 5 -0.68 5 0 5 C0 3.35 0 1.7 0 0 Z " fill="#AFC53A" transform="translate(98,63)"/>
<path d="M0 0 C2.46301423 2.46301423 2.76766521 4.27360036 3.625 7.625 C3.88539062 8.62789062 4.14578125 9.63078125 4.4140625 10.6640625 C4.60742188 11.43492188 4.80078125 12.20578125 5 13 C4.01 12.67 3.02 12.34 2 12 C0.65743047 7.68964518 0 4.52218352 0 0 Z " fill="#A7BD38" transform="translate(121,83)"/>
<path d="M0 0 C0.99 0 1.98 0 3 0 C2.67 2.31 2.34 4.62 2 7 C1.01 7 0.02 7 -1 7 C-0.67 4.69 -0.34 2.38 0 0 Z " fill="#A4C10E" transform="translate(141,65)"/>
<path d="M0 0 C0.33 0 0.66 0 1 0 C1 1.65 1 3.3 1 5 C-0.98 5.99 -0.98 5.99 -3 7 C-3 5.68 -3 4.36 -3 3 C-2.34 3 -1.68 3 -1 3 C-0.67 2.01 -0.34 1.02 0 0 Z " fill="#A6C506" transform="translate(71,74)"/>
<path d="M0 0 C2.64 0.33 5.28 0.66 8 1 C5.01353231 2.99097846 2.40312738 3.94124926 -1 5 C-0.67 3.35 -0.34 1.7 0 0 Z " fill="#F5F9D2" transform="translate(43,49)"/>
<path d="M0 0 C4.29 0.33 8.58 0.66 13 1 C13 1.33 13 1.66 13 2 C9.7 2 6.4 2 3 2 C3 2.66 3 3.32 3 4 C2.34 4 1.68 4 1 4 C0.67 2.68 0.34 1.36 0 0 Z " fill="#F3F4EE" transform="translate(192,26)"/>
<path d="M0 0 C1.98 0 3.96 0 6 0 C6 0.99 6 1.98 6 3 C4.35 3 2.7 3 1 3 C0.67 2.01 0.34 1.02 0 0 Z " fill="#A3C305" transform="translate(92,80)"/>
<path d="M0 0 C3.63 0 7.26 0 11 0 C11.33 0.99 11.66 1.98 12 3 C11.01 2.67 10.02 2.34 9 2 C7.27204648 1.93197033 5.54164635 1.91504355 3.8125 1.9375 C2.91144531 1.94652344 2.01039063 1.95554688 1.08203125 1.96484375 C0.05142578 1.98224609 0.05142578 1.98224609 -1 2 C-0.67 1.34 -0.34 0.68 0 0 Z " fill="#A3B543" transform="translate(152,52)"/>
<path d="M0 0 C1.88391785 3.26545761 2.49287967 6.28111761 3 10 C2.67 9.34 2.34 8.68 2 8 C1.34 8 0.68 8 0 8 C0 5.36 0 2.72 0 0 Z " fill="#EEF4CA" transform="translate(115,84)"/>
<path d="M0 0 C4.455 0.99 4.455 0.99 9 2 C4.75 4.125 4.75 4.125 1 3 C0.01 3.495 0.01 3.495 -1 4 C-0.67 2.68 -0.34 1.36 0 0 Z " fill="#F9FCE2" transform="translate(79,68)"/>
</svg>
