<?xml version="1.0" encoding="UTF-8"?>
<svg version="1.1" xmlns="http://www.w3.org/2000/svg" width="512" height="512">
<path d="M0 0 C1.2759201 -0.0071553 2.55184021 -0.01431061 3.86642456 -0.02168274 C5.28848242 -0.02452312 6.71054055 -0.02723483 8.13259888 -0.02983093 C9.62392333 -0.03609445 11.11524622 -0.04274115 12.60656738 -0.04974365 C16.66443391 -0.0671618 20.72228866 -0.07770727 24.78018332 -0.08594918 C27.31397933 -0.09109681 29.84777167 -0.09717259 32.38156509 -0.10346031 C40.30517332 -0.12251325 48.22877221 -0.1367451 56.15239894 -0.14507228 C65.30670991 -0.1548511 74.4607795 -0.18118686 83.61500537 -0.22157317 C90.68596476 -0.25170108 97.75685482 -0.26653792 104.82787716 -0.26985329 C109.05347019 -0.27220728 113.27880536 -0.28121274 117.50432968 -0.30631447 C121.47869134 -0.3295428 125.45262442 -0.33384984 129.42703629 -0.32355309 C130.88634921 -0.32305636 132.34568286 -0.32941717 133.80493164 -0.34310913 C135.7958205 -0.3607455 137.78689428 -0.35136358 139.77783203 -0.34057617 C140.89244749 -0.34296453 142.00706295 -0.34535288 143.15545464 -0.34781361 C146.67195369 0.26069764 147.84528133 1.37138655 150.01589966 4.14717102 C152.33107835 13.70884423 148.44858676 26.15793554 146.84011841 35.69795227 C146.51050518 37.68559686 146.18139687 39.67332524 145.85276794 41.66113281 C145.16501706 45.80827501 144.47080469 49.95426963 143.77200317 54.0995636 C142.87830439 59.40452284 142.00150804 64.71211508 141.12956524 70.02068806 C140.45451766 74.11826465 139.77026413 78.21426313 139.08326149 82.30985069 C138.75623484 84.26653503 138.43212503 86.22370925 138.11102867 88.1813755 C137.6612144 90.91554464 137.19895314 93.64732838 136.73342896 96.37886047 C136.6039537 97.18157379 136.47447845 97.98428711 136.34107971 98.81132507 C135.54823595 103.37134065 134.44336408 107.12529878 132.01589966 111.14717102 C129.33490913 112.48766629 127.2827876 112.26697623 124.28103638 112.26069641 C123.07994232 112.26062088 121.87884827 112.26054535 120.64135742 112.26046753 C118.68820114 112.2527256 118.68820114 112.2527256 116.69558716 112.24482727 C115.35323133 112.2429624 114.01087482 112.24153882 112.66851807 112.24053955 C109.13394291 112.2367198 105.59940879 112.22689414 102.06484985 112.21583557 C98.45869512 112.2056098 94.85253357 112.20098468 91.24636841 112.19599915 C84.16950924 112.18580194 77.09276278 112.166229 70.01589966 112.14717102 C70.01589966 122.70717102 70.01589966 133.26717102 70.01589966 144.14717102 C73.75128052 144.12622375 77.48666138 144.10527649 81.3352356 144.08369446 C93.66059076 144.01749105 105.98594311 143.97305863 118.31142807 143.93992233 C125.78625294 143.91929281 133.26090942 143.89116501 140.73562622 143.84541321 C147.25023836 143.80555708 153.76472857 143.77974104 160.27945924 143.77081704 C163.72935469 143.76560012 167.1789013 143.75333108 170.628685 143.72425079 C174.47885195 143.69205838 178.32867692 143.69121083 182.1789856 143.69306946 C183.32409607 143.67868835 184.46920654 143.66430725 185.64901733 143.64949036 C186.69787109 143.65498901 187.74672485 143.66048767 188.82736206 143.66615295 C189.73809353 143.66246578 190.648825 143.65877861 191.58715439 143.65497971 C194.92174758 144.33074337 196.04873163 145.3856574 198.01589966 148.14717102 C198.51926422 151.25190735 198.51926422 151.25190735 198.52383423 154.97920227 C198.53319417 156.00915062 198.53319417 156.00915062 198.54274321 157.05990601 C198.55869534 159.36017723 198.54606133 161.65939199 198.53347778 163.95967102 C198.53889796 165.60892861 198.54602003 167.25818136 198.55471802 168.90742493 C198.57296691 173.38677318 198.56587746 177.86575327 198.55320168 182.34510803 C198.54308209 187.03044129 198.55246445 191.71574279 198.55874634 196.40107727 C198.56602578 204.26962449 198.55642726 212.13802159 198.53738403 220.00654602 C198.5156147 229.10662873 198.52266586 238.20635298 198.54468966 247.306427 C198.5628352 255.11630321 198.56540613 262.92607144 198.55493498 270.73596191 C198.54869539 275.40189999 198.54787718 280.06766952 198.56108093 284.7335968 C198.57262655 289.12005919 198.56463753 293.50605896 198.54150391 297.89247131 C198.53620988 299.50334403 198.53774246 301.1142556 198.54655457 302.72511292 C198.55746706 304.92231603 198.54380106 307.11803176 198.52383423 309.31513977 C198.52157207 311.16015076 198.52157207 311.16015076 198.51926422 313.04243469 C197.92161466 316.72871781 196.94087864 317.90276854 194.01589966 320.14717102 C192.01589966 320.67842102 192.01589966 320.67842102 190.01589966 320.64717102 C189.02589966 320.66263977 189.02589966 320.66263977 188.01589966 320.67842102 C185.06538634 319.89469092 183.91879532 318.51148557 182.01589966 316.14717102 C181.52370834 313.21866989 181.52370834 313.21866989 181.53488159 309.74378967 C181.5293716 308.42842098 181.52386162 307.11305229 181.51818466 305.75782394 C181.53237127 304.2961315 181.54692284 302.83444256 181.5617981 301.37275696 C181.56302352 299.81035019 181.56248932 298.2479412 181.56033707 296.68553543 C181.5594338 292.50040926 181.58262095 288.31574031 181.61077881 284.13072205 C181.63355443 280.20406142 181.63463101 276.27751215 181.63748169 272.3507843 C181.65847315 260.86618595 181.71431777 249.38167272 181.76589966 237.89717102 C181.84839966 212.23967102 181.93089966 186.58217102 182.01589966 160.14717102 C94.89589966 160.14717102 7.77589966 160.14717102 -81.98410034 160.14717102 C-81.98410034 165.42717102 -81.98410034 170.70717102 -81.98410034 176.14717102 C-79.58515503 176.10076477 -77.18620972 176.05435852 -74.71456909 176.00654602 C-72.35464588 175.97522529 -69.99474707 175.95100923 -67.63473511 175.92744446 C-66.01223141 175.90750289 -64.38979792 175.88033928 -62.76754761 175.84541321 C-50.01571788 175.57802979 -38.67919505 176.42875588 -28.55050659 185.17842102 C-23.06541028 191.5234335 -19.57247445 199.19563143 -15.787323 206.6295929 C-13.80711788 210.49241382 -11.78301168 214.32982866 -9.74581909 218.16279602 C-9.37527405 218.86012344 -9.004729 219.55745087 -8.62295532 220.27590942 C-7.85948365 221.71249982 -7.09593292 223.1490482 -6.33230591 224.58555603 C-4.77693371 227.51567049 -3.2282723 230.44930767 -1.67959595 233.38296509 C2.80940136 241.88557841 7.33942667 250.3653696 11.89089966 258.83467102 C16.99557865 268.33679082 22.04591812 277.86466056 26.99490356 287.44892883 C29.03744156 291.39835375 31.08923014 295.32741446 33.31277466 299.17842102 C39.31579586 309.64769 39.31579586 309.64769 38.01589966 316.14717102 C36.47903442 318.32881165 36.47903442 318.32881165 34.01589966 320.14717102 C31.18343803 320.5459768 28.74814304 320.70880312 25.91824341 320.67842102 C25.12873795 320.68224792 24.33923248 320.68607483 23.52580261 320.6900177 C21.85395026 320.69273695 20.18205538 320.68537471 18.51028442 320.6686554 C15.98576378 320.64744296 13.4641542 320.6683496 10.93972778 320.69404602 C-1.37997207 320.71630783 -10.85881386 319.10000611 -20.81613159 311.31904602 C-27.44214945 304.68108939 -31.80561623 296.51544563 -36.35910034 288.39717102 C-37.05012373 287.17412495 -37.74170341 285.95139304 -38.43380737 284.72895813 C-39.51184862 282.82448037 -40.58936924 280.91972353 -41.66473389 279.01373291 C-44.2593766 274.4163772 -46.88052457 269.83488086 -49.51535034 265.26045227 C-50.250582 263.9821566 -50.9857714 262.70383663 -51.72091675 261.42549133 C-52.78201208 259.58052106 -53.84387621 257.73602175 -54.90859985 255.8931427 C-55.89251484 254.18919392 -56.87199262 252.48268531 -57.85128784 250.77607727 C-58.40929077 249.80742737 -58.9672937 248.83877747 -59.54220581 247.84077454 C-60.98410034 245.14717102 -60.98410034 245.14717102 -62.98410034 240.14717102 C-82.45410034 240.14717102 -101.92410034 240.14717102 -121.98410034 240.14717102 C-121.98410034 261.26717102 -121.98410034 282.38717102 -121.98410034 304.14717102 C-112.74410034 304.14717102 -103.50410034 304.14717102 -93.98410034 304.14717102 C-89.98410034 308.14717102 -89.98410034 308.14717102 -89.45285034 310.14717102 C-89.46316284 310.80717102 -89.47347534 311.46717102 -89.48410034 312.14717102 C-89.47378784 312.80717102 -89.46347534 313.46717102 -89.45285034 314.14717102 C-90.24233402 317.11934487 -91.58473407 318.24373388 -93.98410034 320.14717102 C-97.17160034 320.65510559 -97.17160034 320.65510559 -100.98410034 320.66474915 C-101.68051636 320.67175842 -102.37693237 320.6787677 -103.0944519 320.68598938 C-105.39140966 320.70356298 -107.68713055 320.69195022 -109.98410034 320.67842102 C-111.58306108 320.68111615 -113.18202021 320.68499875 -114.78097534 320.6900177 C-118.1300926 320.69591184 -121.47878277 320.68735295 -124.82785034 320.6686554 C-129.11888625 320.64586537 -133.40892145 320.65898898 -137.69992065 320.68294525 C-141.001104 320.69740582 -144.30205045 320.69279617 -147.60324097 320.68243408 C-149.18527342 320.67976748 -150.76732745 320.68303424 -152.34933472 320.69235229 C-154.56150197 320.70252281 -156.77205334 320.68701292 -158.98410034 320.66474915 C-160.24222534 320.66156677 -161.50035034 320.6583844 -162.79660034 320.65510559 C-166.53930143 320.0586986 -167.71569963 319.12201752 -169.98410034 316.14717102 C-170.51535034 314.14717102 -170.51535034 314.14717102 -170.48410034 312.14717102 C-170.49441284 311.48717102 -170.50472534 310.82717102 -170.51535034 310.14717102 C-169.98410034 308.14717102 -169.98410034 308.14717102 -165.98410034 304.14717102 C-156.74410034 304.14717102 -147.50410034 304.14717102 -137.98410034 304.14717102 C-137.98410034 283.02717102 -137.98410034 261.90717102 -137.98410034 240.14717102 C-152.28469679 240.30535714 -152.28469679 240.30535714 -166.58468628 240.50752258 C-168.37927297 240.5192065 -170.17387026 240.52939903 -171.96847534 240.53779602 C-172.89805054 240.55825989 -173.82762573 240.57872375 -174.78536987 240.59980774 C-175.67820679 240.60029114 -176.5710437 240.60077454 -177.49093628 240.60127258 C-178.26370911 240.61015503 -179.03648193 240.61903748 -179.83267212 240.62818909 C-182.92074205 239.93775591 -184.01453722 238.59601624 -185.98410034 236.14717102 C-186.4874649 233.29231262 -186.4874649 233.29231262 -186.49203491 229.92256165 C-186.50331421 228.64389221 -186.51459351 227.36522278 -186.5262146 226.04780579 C-186.51843757 224.6330086 -186.51024491 223.21821365 -186.50167847 221.80342102 C-186.50709926 220.31179623 -186.51422168 218.82017679 -186.5229187 217.3285675 C-186.54116038 213.27894474 -186.53408124 209.22972941 -186.52140236 205.18009949 C-186.51127898 200.94320066 -186.52066619 196.70633684 -186.52694702 192.46943665 C-186.53422537 185.35413852 -186.52463086 178.23900644 -186.50558472 171.12373352 C-186.48381553 162.89614302 -186.49086678 154.66894899 -186.51289034 146.4413681 C-186.53103905 139.37882848 -186.53360528 132.31640825 -186.52313566 125.25385284 C-186.51689779 121.03503927 -186.51607308 116.81641209 -186.52928162 112.59761047 C-186.5408319 108.63136729 -186.53282996 104.66563553 -186.50970459 100.69944763 C-186.50441302 99.24338124 -186.505939 97.78727185 -186.51475525 96.33122253 C-186.52567469 94.3447574 -186.50955734 92.35819826 -186.49203491 90.3717804 C-186.49052681 89.25976257 -186.48901871 88.14774475 -186.4874649 87.00202942 C-185.86912463 83.4950803 -184.74893163 82.31883234 -181.98410034 80.14717102 C-179.98410034 79.61592102 -179.98410034 79.61592102 -177.98410034 79.64717102 C-177.32410034 79.63685852 -176.66410034 79.62654602 -175.98410034 79.61592102 C-173.05520942 80.39390767 -171.88848443 81.81895746 -169.98410034 84.14717102 C-169.49190903 86.82579422 -169.49190903 86.82579422 -169.50308228 89.94313049 C-169.49758362 91.12661072 -169.49208496 92.31009094 -169.48641968 93.5294342 C-169.50080078 94.82415649 -169.51518188 96.11887878 -169.52999878 97.45283508 C-169.53112731 98.83271756 -169.53049328 100.21260244 -169.52822876 101.59248352 C-169.52708089 105.33613943 -169.55060144 109.07928291 -169.57852459 112.82281971 C-169.60352636 116.73590308 -169.60587927 120.64899813 -169.61062622 124.56214905 C-169.62305964 131.97114952 -169.65588607 139.37991396 -169.69602418 146.78881049 C-169.7407306 155.22401775 -169.76272607 163.65923626 -169.78280592 172.09453249 C-169.8246185 189.44555239 -169.89578305 206.79632773 -169.98410034 224.14717102 C-162.72410034 223.81717102 -155.46410034 223.48717102 -147.98410034 223.14717102 C-148.78847534 221.57967102 -149.59285034 220.01217102 -150.42160034 218.39717102 C-152.89406617 213.57903248 -154.10312158 209.83149346 -154.13127136 204.41229248 C-154.13842667 203.46347702 -154.14558197 202.51466156 -154.1529541 201.53709412 C-154.15564301 200.50277252 -154.15833191 199.46845093 -154.16110229 198.40278625 C-154.16767349 197.30796432 -154.17424469 196.2131424 -154.18101501 195.08514404 C-154.20073852 191.45868357 -154.21241004 187.83226455 -154.22238159 184.20576477 C-154.22645712 182.96545061 -154.23053265 181.72513645 -154.23473167 180.44723701 C-154.25344078 174.55631551 -154.26800536 168.66540711 -154.27634364 162.77446312 C-154.28609614 155.99791457 -154.31236622 149.2216944 -154.35284454 142.44526142 C-154.38679052 136.55810613 -154.39850085 130.67105968 -154.40254784 124.78381538 C-154.40740617 122.28927958 -154.41899852 119.79474709 -154.43758583 117.3002758 C-154.46204844 113.79902748 -154.46099846 110.29862591 -154.45407104 106.7973175 C-154.4668811 105.77716553 -154.47969116 104.75701355 -154.4928894 103.70594788 C-154.41229849 92.46477136 -150.75801693 83.29054107 -142.98410034 75.14717102 C-132.7589516 65.38592317 -121.89995914 63.46554267 -108.10910034 63.58467102 C-106.81745972 63.56082336 -105.52581909 63.53697571 -104.19503784 63.5124054 C-94.84485309 63.52695444 -94.84485309 63.52695444 -90.86691284 66.39326477 C-90.24558472 67.30205383 -89.62425659 68.2108429 -88.98410034 69.14717102 C-88.27769409 69.90256165 -87.57128784 70.65795227 -86.84347534 71.43623352 C-82.19933083 76.57919355 -77.73602439 81.82988402 -73.37863159 87.21748352 C-70.29745057 90.98728086 -67.14218416 94.69164162 -63.96505737 98.3808136 C-63.53434937 98.88507874 -63.10364136 99.38934387 -62.65988159 99.90888977 C-61.98106934 100.67495544 -61.98106934 100.67495544 -61.2885437 101.45649719 C-59.98410034 103.14717102 -59.98410034 103.14717102 -59.00973511 105.22261047 C-57.31957469 108.43636795 -55.72129471 110.58632218 -52.15057373 111.73912048 C-46.27246356 113.01156298 -40.27817542 113.44355423 -34.29660034 113.95967102 C-32.39681935 114.15121575 -30.49740043 114.34638514 -28.59835815 114.54512024 C-23.91913362 115.02808665 -19.23732818 115.47381584 -14.55325317 115.90687561 C-9.59172045 116.37093268 -4.63539027 116.88103874 0.31985474 117.40766907 C2.55127782 117.64369561 4.78420062 117.86610571 7.01858521 118.07221985 C12.26409599 118.60265511 16.49146589 119.19580197 21.01589966 122.14717102 C22.33256615 124.780504 22.22119899 126.8293767 22.26589966 129.77217102 C22.30457153 131.27650696 22.30457153 131.27650696 22.34402466 132.81123352 C22.01589966 136.14717102 22.01589966 136.14717102 19.01589966 144.14717102 C30.56589966 144.14717102 42.11589966 144.14717102 54.01589966 144.14717102 C54.01589966 133.58717102 54.01589966 123.02717102 54.01589966 112.14717102 C50.59392212 112.17859192 50.59392212 112.17859192 47.10281372 112.21064758 C39.56716474 112.27691278 32.03150292 112.32110444 24.4956398 112.35441971 C19.92639002 112.37529867 15.35743863 112.40362173 10.7883606 112.44892883 C6.37929093 112.4923759 1.97050835 112.5163058 -2.43875885 112.52667999 C-4.12131521 112.53407345 -5.80385577 112.54851119 -7.48628998 112.57009125 C-9.84235135 112.59911105 -12.19722507 112.60312777 -14.55343628 112.60127258 C-15.2497113 112.61565369 -15.94598633 112.63003479 -16.6633606 112.64485168 C-19.9420241 112.6168998 -21.72982818 112.32973401 -24.42048645 110.39788818 C-30.01212831 102.34909533 -24.3406988 85.68511575 -22.80831909 76.59638977 C-22.47870586 74.60874518 -22.14959755 72.6210168 -21.82096863 70.63320923 C-21.13321775 66.48606703 -20.43900538 62.34007241 -19.74020386 58.19477844 C-18.84650508 52.8898192 -17.96970872 47.58222696 -17.09776592 42.27365398 C-16.42271834 38.17607739 -15.73846482 34.08007891 -15.05146217 29.98449135 C-14.72443553 28.02780701 -14.40032571 26.07063279 -14.07922935 24.11296654 C-13.62941509 21.3787974 -13.16715383 18.64701366 -12.70162964 15.91548157 C-12.57215439 15.11276825 -12.44267914 14.31005493 -12.3092804 13.48301697 C-11.51643664 8.92300139 -10.41156477 5.16904326 -7.98410034 1.14717102 C-5.24680162 -0.22147834 -3.06531194 0.01176049 0 0 Z M5.01589966 16.14717102 C2.87089966 28.79029602 0.72589966 41.43342102 -1.48410034 54.45967102 C-2.16279175 58.45230042 -2.84148315 62.44492981 -3.54074097 66.55854797 C-4.14647684 70.13633517 -4.14647684 70.13633517 -4.7515564 73.7142334 C-5.02148314 75.308422 -5.29238587 76.90244553 -5.5640564 78.49633789 C-5.97524443 80.90992172 -6.38333754 83.32401035 -6.79074097 85.73823547 C-6.91252968 86.44880506 -7.03431839 87.15937464 -7.15979767 87.89147663 C-7.6289477 90.68804991 -7.98410034 93.30492687 -7.98410034 96.14717102 C33.92589966 96.14717102 75.83589966 96.14717102 119.01589966 96.14717102 C121.16089966 83.50404602 123.30589966 70.86092102 125.51589966 57.83467102 C126.19459106 53.84204163 126.87328247 49.84941223 127.57254028 45.73579407 C128.17827616 42.15800687 128.17827616 42.15800687 128.78335571 38.58010864 C129.05328245 36.98592004 129.32418519 35.39189651 129.59585571 33.79800415 C130.00704375 31.38442032 130.41513685 28.97033169 130.82254028 26.55610657 C130.94432899 25.84553699 131.06611771 25.1349674 131.19159698 24.40286541 C131.66074702 21.60629213 132.01589966 18.98941517 132.01589966 16.14717102 C90.10589966 16.14717102 48.19589966 16.14717102 5.01589966 16.14717102 Z M-116.47238159 80.45576477 C-122.76999389 81.51080517 -128.31123777 84.04013788 -132.52316284 88.93623352 C-137.6615873 96.47859925 -138.28528078 104.92594884 -138.2428894 113.83857727 C-138.24639404 114.76177765 -138.24989868 115.68497803 -138.25350952 116.63615417 C-138.26224773 119.66073832 -138.25650576 122.68508487 -138.24972534 125.70967102 C-138.25107426 127.82759139 -138.25301669 129.94551147 -138.25552368 132.06343079 C-138.25846424 136.49143944 -138.25421172 140.91936713 -138.24484253 145.34736633 C-138.23344871 151.00623012 -138.2400139 156.66490415 -138.25198746 162.32376099 C-138.25923492 166.69393834 -138.25690488 171.06407114 -138.25173187 175.43424988 C-138.25040336 177.52012657 -138.25201494 179.60600739 -138.25669098 181.69187927 C-138.26180378 184.61328251 -138.2539795 187.53438385 -138.2428894 190.45576477 C-138.24693787 191.30693878 -138.25098633 192.15811279 -138.25515747 193.03507996 C-138.1931946 201.90296218 -136.91776227 210.24966553 -130.98410034 217.14717102 C-122.15612989 224.74153861 -111.17157692 224.42939859 -100.12081909 224.42060852 C-98.12021182 224.43570152 -96.11960441 224.4508173 -94.11900806 224.46729469 C-89.22146855 224.50491431 -84.32391163 224.52225368 -79.42623901 224.5280304 C-76.66302258 224.53207278 -73.90022951 224.54660741 -71.13713074 224.57237244 C-68.54297929 224.59581938 -65.9486221 224.60317825 -63.35438538 224.59281921 C-61.59654472 224.61271408 -61.59654472 224.61271408 -59.80319214 224.63301086 C-58.25839424 224.63728592 -58.25839424 224.63728592 -56.68238831 224.64164734 C-53.27670557 225.27970128 -52.14637359 226.49876764 -49.98410034 229.14717102 C-48.861871 230.92707104 -47.80620229 232.74992831 -46.80441284 234.60029602 C-46.21216919 235.68286682 -45.61992554 236.76543762 -45.00973511 237.8808136 C-44.0689209 239.62141052 -44.0689209 239.62141052 -43.10910034 241.39717102 C-41.77094089 243.84614742 -40.42684044 246.29183596 -39.08175659 248.73701477 C-38.5713105 249.66649178 -38.5713105 249.66649178 -38.05055237 250.61474609 C-34.09022019 257.80607151 -29.94706329 264.88901842 -25.77706909 271.96040344 C-23.32983438 276.11291452 -20.89463015 280.26027413 -18.61300659 284.50654602 C-14.42975285 292.27277038 -10.32709166 298.34846129 -2.35910034 302.52217102 C3.81891362 304.14796417 9.66573344 304.26011864 16.01589966 304.14717102 C7.26503263 286.41379636 -1.8820661 268.89646664 -11.40841675 251.56758118 C-15.24568287 244.56316662 -18.94355171 237.49271806 -22.60910034 230.39717102 C-24.7286557 226.31098547 -26.85344654 222.22758048 -28.98410034 218.14717102 C-29.46185913 217.23193665 -29.93961792 216.31670227 -30.43185425 215.37373352 C-31.74663854 212.87309264 -33.08010724 210.38356355 -34.42160034 207.89717102 C-34.79816772 207.17690735 -35.17473511 206.45664368 -35.56271362 205.71455383 C-38.9005667 199.61113535 -43.11687212 195.20733949 -49.98410034 193.14717102 C-54.94750704 192.13096731 -59.73513634 191.98278343 -64.77706909 191.93623352 C-66.47564691 191.90819337 -68.17421451 191.87952916 -69.87277222 191.85029602 C-72.53252173 191.80888763 -75.1920744 191.77196962 -77.85202026 191.74580383 C-80.43159398 191.71827319 -83.01032016 191.67244226 -85.58956909 191.62373352 C-86.78491524 191.61885422 -86.78491524 191.61885422 -88.00440979 191.61387634 C-93.5207404 191.49058084 -93.5207404 191.49058084 -95.70431519 189.87226868 C-97.28130715 187.74654849 -97.30980497 186.74887573 -97.19430542 184.12910461 C-97.16951614 183.32278091 -97.14472687 182.51645721 -97.1191864 181.68569946 C-97.08105331 180.81446945 -97.04292023 179.94323944 -97.00363159 179.04560852 C-96.96102699 177.18186205 -96.92344618 175.31799536 -96.89035034 173.45405579 C-96.87230347 172.4831601 -96.85425659 171.5122644 -96.83566284 170.51194763 C-95.92068006 151.1744054 -95.92068006 151.1744054 -104.48410034 134.70967102 C-106.33108718 132.93216775 -108.20560276 131.26600446 -110.19992065 129.65596008 C-114.87394831 125.70337512 -120.03599354 119.66544686 -121.63253784 113.74092102 C-121.76606183 110.906104 -121.25117297 108.68131628 -119.98410034 106.14717102 C-116.75679722 104.53351946 -113.42146723 104.19024837 -109.98410034 105.14717102 C-105.76547637 108.81765141 -102.35080096 113.23556275 -98.85910034 117.58467102 C-98.29723022 118.2804425 -97.73536011 118.97621399 -97.15646362 119.69306946 C-81.75293388 138.81200168 -81.75293388 138.81200168 -79.74645996 142.29647827 C-78.06754329 144.42722459 -78.06754329 144.42722459 -75.10235596 144.64837646 C-73.92815094 144.64854263 -72.75394592 144.6487088 -71.54415894 144.64888 C-70.89493469 144.65428299 -70.24571045 144.65968597 -69.57681274 144.66525269 C-67.4282583 144.67776804 -65.28103778 144.66122173 -63.13253784 144.64326477 C-61.63380869 144.64341981 -60.13507914 144.64490959 -58.63635254 144.64767456 C-55.49053275 144.64906018 -52.34516792 144.63648295 -49.19943237 144.61372375 C-45.18809968 144.58548491 -41.17753132 144.58803394 -37.16614342 144.60081387 C-34.06721607 144.60781114 -30.96846168 144.59993352 -27.86955643 144.58755684 C-26.39214367 144.5830711 -24.91471213 144.58268012 -23.43729782 144.58662224 C-10.10385821 144.75464475 -10.10385821 144.75464475 1.57839966 139.08467102 C3.2145153 137.28156041 3.2145153 137.28156041 3.01589966 135.14717102 C2.26723129 135.06613632 1.51856293 134.98510162 0.74720764 134.90161133 C-6.33032744 134.13356889 -13.40657974 133.35492756 -20.48165226 132.56454754 C-24.1184995 132.15863679 -27.75569517 131.7567463 -31.39401245 131.36421204 C-34.90940916 130.98478687 -38.42346063 130.59458165 -41.93685722 130.1970768 C-43.92062871 129.9754264 -45.90561875 129.76477073 -47.89060974 129.55432129 C-62.18658949 127.91574211 -62.18658949 127.91574211 -67.24972534 122.90498352 C-68.23199097 121.60174133 -68.23199097 121.60174133 -69.23410034 120.27217102 C-69.99206909 119.29506165 -70.75003784 118.31795227 -71.53097534 117.31123352 C-71.92736206 116.79464172 -72.32374878 116.27804993 -72.73214722 115.74580383 C-74.90053004 112.97697178 -77.19792885 110.31880859 -79.48410034 107.64717102 C-82.91357354 103.61169128 -86.31477009 99.55604391 -89.67160034 95.45967102 C-90.40120972 94.58310852 -91.13081909 93.70654602 -91.88253784 92.80342102 C-93.98410034 90.14717102 -93.98410034 90.14717102 -95.89816284 87.24092102 C-99.35609695 82.00670615 -99.35609695 82.00670615 -104.83566284 79.45576477 C-108.80743431 79.38035139 -112.54551764 79.96875966 -116.47238159 80.45576477 Z " fill="#636363" transform="translate(249.98410034179688,191.8528289794922)"/>
<path d="M0 0 C2.7734375 1.4765625 2.7734375 1.4765625 5.375 3.625 C6.90447266 4.85283203 6.90447266 4.85283203 8.46484375 6.10546875 C9.02284668 6.5648584 9.58084961 7.02424805 10.15576172 7.49755859 C12.93267975 9.75982409 15.77074758 11.94131298 18.60400391 14.13232422 C20.94779274 15.94546239 23.28511752 17.76665475 25.62109375 19.58984375 C29.23608669 22.4082469 32.86349844 25.2094103 36.5 28 C42.46989171 32.58294717 48.40954493 37.20410487 54.34765625 41.828125 C58.72144077 45.23242429 63.10358707 48.62497594 67.5 52 C72.68315858 55.97899043 77.84434281 59.98545014 83 64 C88.4719542 68.25936315 93.94590501 72.51597394 99.4375 76.75 C100.95150391 77.91789062 100.95150391 77.91789062 102.49609375 79.109375 C104.28910046 80.46322094 106.13061205 81.75374137 108 83 C107.97905273 82.08186523 107.95810547 81.16373047 107.93652344 80.21777344 C107.86825417 76.80344572 107.81815615 73.38984557 107.78027344 69.97509766 C107.76018699 68.4987441 107.73291199 67.02246981 107.69824219 65.54638672 C107.64958816 63.42135038 107.62700327 61.29736766 107.609375 59.171875 C107.58842773 57.8940918 107.56748047 56.61630859 107.54589844 55.29980469 C108 52 108 52 109.59088135 49.82611084 C112.84522707 47.35931827 114.93798695 47.49269656 119 47.48242188 C120.04462402 47.47190796 120.04462402 47.47190796 121.11035156 47.46118164 C123.40730932 47.44360804 125.70303021 47.45522081 128 47.46875 C129.59896073 47.46605487 131.19791987 47.46217227 132.796875 47.45715332 C136.14599226 47.45125918 139.49468243 47.45981808 142.84375 47.47851562 C147.13478591 47.50130565 151.42482111 47.48818204 155.71582031 47.46422577 C159.01700366 47.4497652 162.31795011 47.45437485 165.61914062 47.46473694 C167.20117308 47.46740354 168.78322711 47.46413678 170.36523438 47.45481873 C172.57740163 47.44464821 174.787953 47.4601581 177 47.48242188 C178.8871875 47.48719543 178.8871875 47.48719543 180.8125 47.49206543 C184 48 184 48 186.42123413 49.47854614 C188.7352521 53.17427434 188.42670263 56.65032877 188.26025391 60.86083984 C188.24167831 61.75577148 188.22310272 62.65070312 188.20396423 63.57275391 C188.16307948 65.51648984 188.11407749 67.46006805 188.05794144 69.40342331 C187.94753722 73.55145556 187.90764827 77.69923691 187.86325645 81.84841347 C187.7793837 89.56834516 187.66584235 97.28539372 187.43457031 105.00244141 C187.27622749 110.37668183 187.20765647 115.74588804 187.19578171 121.12236404 C187.17485489 123.16005742 187.12157816 125.19770872 187.0339241 127.2336235 C186.38182028 138.37183926 186.38182028 138.37183926 190.77117729 148.22677612 C195.06555088 152.35707229 199.8425315 155.61540704 204.91796017 158.70840454 C207.51170687 160.31743786 209.87436382 162.15079364 212.23828125 164.078125 C218.75195273 169.14982702 225.26801283 174.21809227 231.8125 179.25 C232.82441406 180.02859375 233.83632813 180.8071875 234.87890625 181.609375 C237.13181756 183.3350092 239.38934348 185.05334171 241.65234375 186.765625 C242.25393311 187.22291992 242.85552246 187.68021484 243.4753418 188.15136719 C244.6318912 189.03027473 245.790802 189.90608623 246.95239258 190.77832031 C250.8874803 193.77496059 250.8874803 193.77496059 252 196 C252.56872038 203.0521327 252.56872038 203.0521327 250.5 206.5 C247.7467556 208.15194664 245.60076331 208.87902965 242.3671875 208.68359375 C237.45247949 207.26432989 233.73391506 203.70471357 229.84423828 200.50244141 C227.06732025 198.24017591 224.22925242 196.05868702 221.39599609 193.86767578 C219.05220726 192.05453761 216.71488248 190.23334525 214.37890625 188.41015625 C210.76391331 185.5917531 207.13650156 182.7905897 203.5 180 C198.20008312 175.92729034 192.90820231 171.84437449 187.625 167.75 C186.87541016 167.17121094 186.12582031 166.59242188 185.35351562 165.99609375 C184.63099609 165.43535156 183.90847656 164.87460938 183.1640625 164.296875 C182.21200928 163.55969238 182.21200928 163.55969238 181.24072266 162.80761719 C180.50128418 162.21110352 179.7618457 161.61458984 179 161 C178.43169621 160.61343798 177.86339243 160.22687595 177.27786732 159.82859993 C172.39061366 156.22666102 172.39061366 156.22666102 171.36306381 152.99980164 C171.13983834 150.62851264 171.13307552 148.34613554 171.20532227 145.96533203 C171.20430008 145.07688095 171.20327789 144.18842987 171.20222473 143.27305603 C171.20708362 140.35007067 171.26144202 137.43024876 171.31640625 134.5078125 C171.32946854 132.47616278 171.33942973 130.44449096 171.34642029 128.41281128 C171.37309602 123.07587373 171.4418151 117.74027834 171.51934814 112.40386963 C171.60368551 105.99554175 171.63571125 99.58676404 171.6765213 93.17803955 C171.74431071 83.45109408 171.87845959 73.72709102 172 64 C156.16 64 140.32 64 124 64 C124.15816266 77.31331466 124.15816266 77.31331466 124.36035156 90.62597656 C124.37203623 92.29751566 124.38222858 93.96906615 124.390625 95.640625 C124.41108887 96.5054248 124.43155273 97.37022461 124.45263672 98.26123047 C124.4561729 104.34700376 124.4561729 104.34700376 122.21704102 107.55224609 C118.89335562 109.72265182 115.77983191 109.76380495 112 109 C108.83203125 107.1640625 108.83203125 107.1640625 105.8125 104.625 C104.67749295 103.69481246 103.5420649 102.76513844 102.40625 101.8359375 C101.55353516 101.12195801 101.55353516 101.12195801 100.68359375 100.39355469 C98.1176615 98.26966529 95.46402896 96.26542984 92.8125 94.25 C86.73686514 89.58680283 80.69642696 84.87837471 74.65356445 80.17285156 C70.27939289 76.76820096 65.8968263 73.3753414 61.5 70 C55.53010829 65.41705283 49.59045507 60.79589513 43.65234375 56.171875 C39.27855923 52.76757571 34.89641293 49.37502406 30.5 46 C23.0466781 40.27758915 15.63442756 34.50256876 8.22070312 28.72900391 C4.48164052 25.81782961 0.74079027 22.90895375 -3 20 C-6.67150048 21.75501747 -9.74939358 23.99393106 -12.9375 26.5 C-14.10929503 27.41156115 -15.28117219 28.32301671 -16.453125 29.234375 C-17.04673828 29.69779297 -17.64035156 30.16121094 -18.25195312 30.63867188 C-20.88615078 32.69010849 -23.53762355 34.71887643 -26.1875 36.75 C-32.26086056 41.4161984 -38.30354343 46.12160223 -44.34643555 50.82714844 C-49.74661635 55.03039666 -55.165597 59.20793305 -60.59375 63.375 C-64.74241368 66.56627975 -68.87032481 69.784213 -73 73 C-79.18146123 77.81351723 -85.37921882 82.60424879 -91.59375 87.375 C-95.74241368 90.56627975 -99.87032481 93.784213 -104 97 C-110.18146123 101.81351723 -116.37921882 106.60424879 -122.59375 111.375 C-126.74241368 114.56627975 -130.87032481 117.784213 -135 121 C-141.18146123 125.81351723 -147.37921882 130.60424879 -153.59375 135.375 C-157.74241368 138.56627975 -161.87032481 141.784213 -166 145 C-172.18146123 149.81351723 -178.37921882 154.60424879 -184.59375 159.375 C-188.74241368 162.56627975 -192.87032481 165.784213 -197 169 C-203.17858444 173.81127707 -209.3725276 178.60095155 -215.5859375 183.3671875 C-218.99035781 185.98549994 -222.37307015 188.6313116 -225.75634766 191.27685547 C-228.81562147 193.66385843 -231.88635279 196.03590021 -234.95703125 198.40820312 C-236.75785698 199.81133216 -238.53792652 201.23584234 -240.3125 202.671875 C-247.6955353 208.45525265 -247.6955353 208.45525265 -252.4375 208.75 C-256 208 -256 208 -258.5 206.5 C-260.18959029 203.68401619 -260.5184812 201.36493864 -260.62890625 198.09765625 C-259.00459407 192.67991935 -252.51770141 188.86424527 -248.1875 185.4375 C-247.53587891 184.91865234 -246.88425781 184.39980469 -246.21289062 183.86523438 C-240.87839855 179.64145794 -235.44469651 175.55902463 -229.9831543 171.50170898 C-225.41096736 168.0932104 -220.93472092 164.58512176 -216.5 161 C-210.75958046 156.35932399 -204.90593132 151.90111727 -198.98046875 147.5 C-194.40945683 144.0917115 -189.9338961 140.58445495 -185.5 137 C-179.75958046 132.35932399 -173.90593132 127.90111727 -167.98046875 123.5 C-163.40945683 120.0917115 -158.9338961 116.58445495 -154.5 113 C-148.75958046 108.35932399 -142.90593132 103.90111727 -136.98046875 99.5 C-132.40945683 96.0917115 -127.9338961 92.58445495 -123.5 89 C-117.75958046 84.35932399 -111.90593132 79.90111727 -105.98046875 75.5 C-101.40945683 72.0917115 -96.9338961 68.58445495 -92.5 65 C-86.75958046 60.35932399 -80.90593132 55.90111727 -74.98046875 51.5 C-70.40945683 48.0917115 -65.9338961 44.58445495 -61.5 41 C-55.76039173 36.35997984 -49.90810335 31.90163549 -43.98266602 27.50219727 C-39.3864763 24.07612945 -34.89444941 20.54225689 -30.4375 16.9375 C-28.5907188 15.45695193 -26.74132982 13.97978581 -24.88964844 12.50537109 C-23.59616659 11.47493065 -22.30526946 10.44123962 -21.01660156 9.40478516 C-19.04729544 7.8323081 -17.05835709 6.28857241 -15.0625 4.75 C-14.47202881 4.27167725 -13.88155762 3.79335449 -13.27319336 3.30053711 C-8.71621503 -0.15032259 -5.70314195 -0.76652058 0 0 Z " fill="#636363" transform="translate(260,0)"/>
<path d="M0 0 C0.66 -0.0103125 1.32 -0.020625 2 -0.03125 C5.12086987 0.79773106 6.14222859 1.83450188 8 4.5 C8.62776681 7.74396247 8.69642098 10.95245457 8.75 14.25 C8.77964844 15.13816406 8.80929687 16.02632813 8.83984375 16.94140625 C8.91036918 19.12769449 8.96314637 21.31292768 9 23.5 C9.73605469 23.00628906 10.47210938 22.51257813 11.23046875 22.00390625 C12.20628906 21.36324219 13.18210937 20.72257812 14.1875 20.0625 C15.15042969 19.42441406 16.11335938 18.78632813 17.10546875 18.12890625 C20.82450056 16.03600981 23.44371331 15.12945555 27.625 16.125 C30.65622768 17.87992129 31.67542538 19.26215093 33 22.5 C33 26.27094237 32.46334969 27.9545608 30.015625 30.8359375 C27.7429023 33.02527253 25.31630939 34.6122411 22.609375 36.2265625 C21.42214844 36.94005859 21.42214844 36.94005859 20.2109375 37.66796875 C18.56883943 38.64019507 16.91220223 39.58826823 15.2421875 40.51171875 C10.48892584 43.42560086 10.48892584 43.42560086 8.23242188 48.35058594 C7.98048441 51.09987553 7.88772724 53.74314843 8 56.5 C8.82725586 56.47905273 9.65451172 56.45810547 10.50683594 56.43652344 C14.2544337 56.35338381 18.00183749 56.30134469 21.75 56.25 C23.05195313 56.21648437 24.35390625 56.18296875 25.6953125 56.1484375 C26.94570313 56.13554687 28.19609375 56.12265625 29.484375 56.109375 C31.21252441 56.0779541 31.21252441 56.0779541 32.97558594 56.04589844 C36 56.5 36 56.5 38.37866211 58.24829102 C43.19289251 64.93427912 39.36950767 76.65988729 38.1267395 84.30270386 C37.81205658 86.1838121 37.49445795 88.06443472 37.17407227 89.94458008 C36.68606692 92.82094676 36.21820044 95.70011375 35.75195312 98.58007812 C35.44390749 100.42467983 35.13470323 102.26908849 34.82421875 104.11328125 C34.68658615 104.96650467 34.54895355 105.81972809 34.40715027 106.69880676 C33.58655768 111.41945113 32.53472318 115.34672357 30 119.5 C27.43314846 120.78342577 25.56998934 120.64808107 22.69580078 120.67700195 C21.5877005 120.68983719 20.47960022 120.70267242 19.33792114 120.71589661 C18.13586029 120.72328354 16.93379944 120.73067047 15.6953125 120.73828125 C14.46465057 120.746353 13.23398865 120.75442474 11.96603394 120.76274109 C9.35839247 120.77659032 6.75073281 120.7873087 4.14306641 120.79516602 C1.46770519 120.80403561 -1.20713822 120.82492948 -3.88232422 120.85668945 C-7.73160586 120.8991954 -11.58020082 120.91551205 -15.4296875 120.92578125 C-17.22670609 120.95204338 -17.22670609 120.95204338 -19.06002808 120.97883606 C-20.73163498 120.97444771 -20.73163498 120.97444771 -22.43701172 120.9699707 C-23.41693085 120.97583694 -24.39684998 120.98170319 -25.40646362 120.98774719 C-28.72961952 120.36278586 -29.89960407 119.08977177 -32 116.5 C-32.7578125 114.49902344 -32.7578125 114.49902344 -33.125 112.359375 C-33.27227539 111.54774902 -33.41955078 110.73612305 -33.57128906 109.89990234 C-33.71276367 109.02543457 -33.85423828 108.1509668 -34 107.25 C-34.15952148 106.33557129 -34.31904297 105.42114258 -34.48339844 104.47900391 C-34.82340394 102.51552183 -35.15617215 100.55077545 -35.48242188 98.58496094 C-36.01010894 95.43974693 -36.57216683 92.30214429 -37.140625 89.1640625 C-37.51155709 87.06790982 -37.88137416 84.97155948 -38.25 82.875 C-38.4253125 81.90530273 -38.600625 80.93560547 -38.78125 79.93652344 C-41.67928468 62.88135563 -41.67928468 62.88135563 -38.38476562 58.20947266 C-35.24464468 55.95853829 -33.32433975 56.03955746 -29.484375 56.109375 C-28.23398437 56.12226563 -26.98359375 56.13515625 -25.6953125 56.1484375 C-23.74238281 56.19871094 -23.74238281 56.19871094 -21.75 56.25 C-20.43257813 56.26804687 -19.11515625 56.28609375 -17.7578125 56.3046875 C-14.50447692 56.35183729 -11.25260375 56.41763956 -8 56.5 C-7.6964264 52.60451142 -7.8481338 49.2499299 -9 45.5 C-12.18764317 42.10608456 -15.94011354 39.90700086 -19.9375 37.5625 C-21.97219313 36.31106805 -24.00237251 35.05225907 -26.02734375 33.78515625 C-26.93218506 33.24769775 -27.83702637 32.71023926 -28.76928711 32.15649414 C-31.15629031 30.38394115 -32.06101707 29.2959697 -33 26.5 C-32.82182521 23.11467902 -32.64641794 20.5206599 -30.8125 17.625 C-28.06246193 15.91807982 -26.26151125 15.56153795 -23 15.5 C-17.86638078 17.3239206 -13.4880067 20.47187048 -9 23.5 C-8.9906543 22.94538086 -8.98130859 22.39076172 -8.97167969 21.81933594 C-8.91784278 19.29533519 -8.83422746 16.77316186 -8.75 14.25 C-8.73582031 13.37730469 -8.72164063 12.50460937 -8.70703125 11.60546875 C-8.46108014 5.16154977 -8.46108014 5.16154977 -6.203125 1.921875 C-3.88447695 0.42544257 -2.73060422 -0.04266569 0 0 Z M-22 72.5 C-20.47320233 83.18758366 -18.93126326 93.87805207 -17 104.5 C-5.78 104.5 5.44 104.5 17 104.5 C17.825 99.776875 18.65 95.05375 19.5 90.1875 C19.76103516 88.70080811 20.02207031 87.21411621 20.29101562 85.68237305 C20.49404297 84.51230713 20.69707031 83.34224121 20.90625 82.13671875 C21.11572266 80.93748779 21.32519531 79.73825684 21.54101562 78.50268555 C22.07555142 75.51200143 22.07555142 75.51200143 22 72.5 C7.48 72.5 -7.04 72.5 -22 72.5 Z " fill="#636363" transform="translate(352,391.5)"/>
<path d="M0 0 C9.00087842 6.48304476 14.95352354 14.68794037 17.58203125 25.4921875 C18.06545496 30.4258894 18.15975977 35.29032981 18.10351562 40.24414062 C18.08205809 42.48937939 18.10341555 44.73142014 18.12890625 46.9765625 C18.1546973 59.82174739 15.64621984 69.99722559 6.58203125 79.4921875 C-2.64510052 88.30069703 -12.26841199 91.11793051 -24.78271484 90.96289062 C-36.60994382 90.49468278 -45.25903982 85.943818 -53.390625 77.42578125 C-61.66874254 67.60100905 -63.08067778 57.17886765 -62.93945312 44.74023438 C-62.91799559 42.49499561 -62.93935305 40.25295486 -62.96484375 38.0078125 C-62.9906348 25.16262761 -60.48215734 14.98714941 -51.41796875 5.4921875 C-37.63784493 -7.66275112 -16.31305228 -10.17259803 0 0 Z M-41.0703125 19.35546875 C-48.02718755 29.4177315 -47.8545447 43.84011369 -45.73046875 55.4921875 C-43.6671776 62.94849482 -39.96940886 67.74573841 -33.28515625 71.58203125 C-27.43705912 74.43267274 -20.34704707 74.53068126 -14.09765625 72.87890625 C-7.82206084 70.08565104 -3.19790179 64.89024148 -0.04296875 58.8671875 C3.05149533 47.10822398 3.39257491 32.24822026 -2.41796875 21.3046875 C-5.76469747 16.46405668 -9.9087595 13.51149926 -15.41796875 11.4921875 C-25.5371754 9.7766748 -34.1134042 11.5104445 -41.0703125 19.35546875 Z " fill="#636363" transform="translate(174.41796875,149.5078125)"/>
</svg>
