<svg width="51" height="50" viewBox="0 0 51 50" fill="none" xmlns="http://www.w3.org/2000/svg">
<path d="M47.375 45.703H44.3047V24.9998C44.3047 24.6891 44.1812 24.3909 43.9615 24.1712C43.7417 23.9514 43.4436 23.828 43.1328 23.828H36.25V10.1561C36.2509 9.91297 36.1763 9.67562 36.0363 9.4768C35.8963 9.27805 35.698 9.12773 35.4688 9.04672L15.3984 2.01547C15.2216 1.95558 15.0331 1.93851 14.8484 1.96568C14.6637 1.99284 14.488 2.06345 14.3359 2.17172C14.183 2.27901 14.0584 2.42176 13.9727 2.58775C13.8869 2.75374 13.8427 2.93803 13.8438 3.12484V15.7655H7.86719C7.55639 15.7655 7.25831 15.8889 7.03855 16.1087C6.81878 16.3284 6.69531 16.6266 6.69531 16.9373V45.703H3.625C3.3142 45.703 3.01613 45.8264 2.79636 46.0462C2.57659 46.2659 2.45312 46.5641 2.45312 46.8748C2.45312 47.1856 2.57659 47.4837 2.79636 47.7035C3.01613 47.9233 3.3142 48.0467 3.625 48.0467H47.375C47.6858 48.0467 47.9839 47.9233 48.2037 47.7035C48.4234 47.4837 48.5469 47.1856 48.5469 46.8748C48.5469 46.5641 48.4234 46.2659 48.2037 46.0462C47.9839 45.8264 47.6858 45.703 47.375 45.703ZM16.1875 4.78109L33.9062 10.9842V23.828H29.4609C29.1502 23.828 28.852 23.9514 28.6323 24.1712C28.4125 24.3909 28.2891 24.6891 28.2891 24.9998V45.703H23.3438V16.9373C23.3438 16.6266 23.2203 16.3284 23.0005 16.1087C22.7808 15.8889 22.4827 15.7655 22.1719 15.7655H16.1875V4.78109ZM9.03906 18.1092H21V45.703H9.03906V18.1092ZM30.6328 45.703V26.1717H41.9609V45.703H30.6328Z" fill="#646464"/>
</svg>
