<svg width="115" height="116" viewBox="0 0 115 116" fill="none" xmlns="http://www.w3.org/2000/svg">
<path d="M79.6729 84.0195H35" stroke="#42A4AE" stroke-width="6" stroke-linecap="round" stroke-linejoin="round"/>
<path d="M57.5498 88.7002C57.0449 88.7002 56.5514 88.8499 56.1316 89.1304C55.7118 89.4109 55.3846 89.8096 55.1914 90.276C54.9982 90.7425 54.9476 91.2558 55.0461 91.7509C55.1446 92.2461 55.3877 92.701 55.7448 93.058C56.1018 93.415 56.5566 93.6581 57.0518 93.7566C57.547 93.8551 58.0602 93.8046 58.5267 93.6113C58.9931 93.4181 59.3918 93.0909 59.6723 92.6712C59.9528 92.2514 60.1025 91.7578 60.1025 91.2529C60.103 90.9176 60.0373 90.5854 59.9091 90.2755C59.781 89.9656 59.593 89.684 59.3559 89.4469C59.1187 89.2097 58.8371 89.0217 58.5272 88.8936C58.2173 88.7655 57.8852 88.6997 57.5498 88.7002Z" fill="#42A4AE"/>
<path d="M72.8001 18.5H41.8727C38.077 18.5 35 21.5974 35 25.4183V91.142C35 94.9628 38.077 98.0602 41.8727 98.0602H72.8001C76.5958 98.0602 79.6729 94.9628 79.6729 91.142V25.4183C79.6729 21.5974 76.5958 18.5 72.8001 18.5Z" stroke="#42A4AE" stroke-width="6" stroke-linecap="round" stroke-linejoin="round"/>
</svg>
