<svg width="51" height="50" viewBox="0 0 51 50" fill="none" xmlns="http://www.w3.org/2000/svg">
<path d="M38.1563 20.3125H12.8438C10.9688 20.3125 9.25 19.375 8.15625 17.8125L6.75 15.625L25.5 6.25L44.25 15.625L42.8438 17.8125C41.75 19.375 40.0313 20.3125 38.1563 20.3125Z" stroke="#646464" stroke-width="2" stroke-miterlimit="10" stroke-linecap="round" stroke-linejoin="round"/>
<path d="M14.2499 27.8128C13.3124 26.7191 12.3749 26.2503 11.4374 26.5628C10.0311 27.1878 9.56239 29.6878 10.3436 32.1878C11.1249 34.6878 12.9999 36.4066 14.4061 35.7816C14.4061 35.7816 14.5624 35.7816 14.5624 35.6253C15.8124 41.0941 20.1874 45.1566 25.4999 45.1566C30.8124 45.1566 35.3436 41.0941 36.4374 35.6253L36.5936 35.7816C37.9999 36.4066 39.8749 34.6878 40.6561 32.1878C41.5936 29.6878 41.1249 27.1878 39.5624 26.5628C38.6249 26.2503 37.5311 26.7191 36.7499 27.8128" stroke="#646464" stroke-width="2" stroke-miterlimit="10" stroke-linecap="round" stroke-linejoin="round"/>
<path d="M34.5625 28.125H16.4375C13.7812 28.125 11.4375 25.7813 11.4375 23.125V20.3125H39.5625V23.125C39.5625 25.7813 37.2187 28.125 34.5625 28.125Z" stroke="#646464" stroke-width="2" stroke-miterlimit="10" stroke-linecap="round" stroke-linejoin="round"/>
</svg>
