<?xml version="1.0" encoding="UTF-8"?>
<svg version="1.1" xmlns="http://www.w3.org/2000/svg" width="512" height="512">
<path d="M0 0 C0.87280552 -0.0060911 1.74561104 -0.01218221 2.64486521 -0.01845789 C5.55729722 -0.03505124 8.46929025 -0.03031728 11.38175964 -0.0255127 C13.47491916 -0.03285519 15.56807462 -0.04144195 17.66122437 -0.05117798 C23.33902206 -0.07338482 29.01667458 -0.07632502 34.69450974 -0.07443047 C39.43842311 -0.07431071 44.18230577 -0.08287688 48.92621058 -0.09120798 C60.12104988 -0.1104395 71.31581461 -0.11332695 82.51066589 -0.10656738 C94.04928149 -0.09992826 105.58757728 -0.12278657 117.12612802 -0.15988111 C127.04143642 -0.1905975 136.95664205 -0.20193598 146.87199706 -0.1980443 C152.79008631 -0.19597864 158.70792675 -0.20142803 164.62597084 -0.22593689 C170.1935894 -0.24823292 175.76068888 -0.24630199 181.32831001 -0.22600937 C183.36722976 -0.2226043 185.40618465 -0.2276666 187.44505692 -0.24199295 C208.90739037 -0.38234837 208.90739037 -0.38234837 216.98339558 7.14981842 C223.4869206 13.92197441 224.5470329 20.8875484 224.53361511 29.91955566 C224.54380676 30.95445633 224.55399841 31.98935699 224.5644989 33.05561829 C224.5945703 36.45896866 224.60388612 39.86203728 224.61296082 43.26550293 C224.62981179 45.63205395 224.6479626 47.99859604 224.6673584 50.36512756 C224.71481873 56.58093476 224.74465397 62.79670575 224.77079773 69.01263428 C224.80062309 75.36066842 224.84714671 81.70857789 224.89225769 88.05651855 C224.97824582 100.50241682 225.04561126 112.94834078 225.10124207 125.39440918 C225.99988983 125.73264206 226.8985376 126.07087494 227.82441711 126.4193573 C229.00003204 126.86576065 230.17564697 127.312164 231.3868866 127.77209473 C232.55365936 128.21345261 233.72043213 128.65481049 234.92256165 129.10954285 C249.22180907 134.88949527 257.30267515 146.74426922 263.10124207 160.39440918 C265.0198652 166.09085222 265.31857676 171.41770517 265.10124207 177.39440918 C265.70452332 177.34800293 266.30780457 177.30159668 266.92936707 177.25378418 C267.72858582 177.21769043 268.52780457 177.18159668 269.35124207 177.14440918 C270.14014832 177.09800293 270.92905457 177.05159668 271.74186707 177.00378418 C275.03157645 177.54843805 276.03629802 178.81257718 278.10124207 181.39440918 C278.60917664 184.20899963 278.60917664 184.20899963 278.61882019 187.49230957 C278.63142883 188.72361099 278.64403748 189.95491241 278.6570282 191.223526 C278.64986913 192.56304498 278.64166533 193.90255873 278.63249207 195.24206543 C278.63518755 196.61921971 278.63907044 197.99637213 278.64408875 199.3735199 C278.64997936 202.25607469 278.64143456 205.13813291 278.62272644 208.02062988 C278.59991453 211.71544603 278.61307515 215.4091014 278.6370163 219.10387516 C278.65146849 221.9460882 278.64687158 224.7880258 278.63650513 227.63024712 C278.63383729 228.99261042 278.63710969 230.35499876 278.64642334 231.71733284 C278.65657957 233.62018481 278.63835483 235.52312452 278.61882019 237.42590332 C278.61563782 238.50860001 278.61245544 239.59129669 278.60917664 240.70680237 C278.10124207 243.39440918 278.10124207 243.39440918 276.29838562 245.24913025 C273.05597178 246.93926481 269.90978527 246.71308421 266.35124207 246.58190918 C265.65385925 246.56837402 264.95647644 246.55483887 264.23796082 246.54089355 C262.52538666 246.50570367 260.81321265 246.45190073 259.10124207 246.39440918 C259.11123482 247.23006157 259.11123482 247.23006157 259.12142944 248.08259583 C259.18772772 253.87356808 259.23301957 259.66443279 259.26603699 265.45568848 C259.28113651 267.61784239 259.30161777 269.77996561 259.32756042 271.9420166 C259.36389224 275.04731818 259.38095669 278.15221532 259.39421082 281.25769043 C259.40969467 282.22652664 259.42517853 283.19536285 259.44113159 284.19355774 C259.44135818 285.09426498 259.44158478 285.99497223 259.44181824 286.92297363 C259.45181099 288.11211113 259.45181099 288.11211113 259.46200562 289.32527161 C259.00063677 291.97142477 258.26957188 292.83624862 256.10124207 294.39440918 C254.20414734 294.77536011 254.20414734 294.77536011 252.04460144 294.78259277 C251.23366028 294.79204926 250.42271912 294.80150574 249.58720398 294.81124878 C248.27930908 294.80213974 248.27930908 294.80213974 246.94499207 294.79284668 C246.04631409 294.79571686 245.14763611 294.79858704 244.22172546 294.80154419 C242.32202016 294.80358533 240.42229386 294.79805196 238.52262878 294.78552246 C235.61215797 294.76946939 232.70307586 294.78536931 229.79264832 294.80456543 C227.94759316 294.80258301 226.10253887 294.79873935 224.25749207 294.79284668 C223.38556213 294.79891937 222.5136322 294.80499207 221.61528015 294.81124878 C220.80433899 294.8017923 219.99339783 294.79233582 219.15788269 294.78259277 C218.44523254 294.78020599 217.7325824 294.77781921 216.99833679 294.77536011 C214.51623829 294.27693601 213.65116103 293.36382384 212.10124207 291.39440918 C207.35665451 277.1606465 211.10124207 261.39811243 211.10124207 246.39440918 C134.87124207 246.39440918 58.64124207 246.39440918 -19.89875793 246.39440918 C-19.89875793 261.24440918 -19.89875793 276.09440918 -19.89875793 291.39440918 C-23.23365778 294.72930902 -24.28987904 294.75285494 -28.80293274 294.81124878 C-29.97958496 294.80213974 -29.97958496 294.80213974 -31.18000793 294.79284668 C-32.39484863 294.79715195 -32.39484863 294.79715195 -33.63423157 294.80154419 C-35.34562378 294.8035846 -37.05703931 294.79805627 -38.76838684 294.78552246 C-41.38919683 294.76946775 -44.00846471 294.78537112 -46.62922668 294.80456543 C-48.29199051 294.80258299 -49.95475337 294.79873931 -51.61750793 294.79284668 C-52.40194275 294.79891937 -53.18637756 294.80499207 -53.99458313 294.81124878 C-59.42281473 294.74101357 -59.42281473 294.74101357 -61.60806274 293.14961243 C-63.24927296 290.91774737 -63.26247676 289.67694966 -63.23933411 286.92297363 C-63.23910751 286.02226639 -63.23888092 285.12155914 -63.23864746 284.19355774 C-63.2231636 283.22472153 -63.20767975 282.25588531 -63.19172668 281.25769043 C-63.18748184 280.26311325 -63.183237 279.26853607 -63.17886353 278.24382019 C-63.16205946 275.06457543 -63.1244037 271.88596262 -63.08625793 268.70690918 C-63.07121335 266.55262145 -63.05752455 264.3983238 -63.04524231 262.24401855 C-63.01215038 256.96059951 -62.96193386 251.67754949 -62.89875793 246.39440918 C-63.93516418 246.42921387 -64.97157043 246.46401855 -66.03938293 246.49987793 C-67.40915835 246.528024 -68.77895135 246.55532328 -70.14875793 246.58190918 C-70.830672 246.6070459 -71.51258606 246.63218262 -72.21516418 246.65808105 C-75.17780606 246.70122632 -77.44299521 246.6319792 -80.09590149 245.24913025 C-82.61679438 242.65571624 -82.40581273 241.00611501 -82.41633606 237.42590332 C-82.4289447 236.19775406 -82.44155334 234.9696048 -82.45454407 233.70423889 C-82.44738364 232.36267525 -82.4391795 231.02111683 -82.43000793 229.67956543 C-82.43270284 228.30337754 -82.43658526 226.92719151 -82.44160461 225.55101013 C-82.44750188 222.66667554 -82.43893165 219.78283653 -82.42024231 216.89855957 C-82.39747289 213.20493305 -82.4105599 209.51247039 -82.43453217 205.81888676 C-82.44900297 202.97663137 -82.44437816 200.13465078 -82.434021 197.29238701 C-82.43135608 195.93085021 -82.43461528 194.56928832 -82.44393921 193.20778084 C-82.4541213 191.30262874 -82.43584425 189.397389 -82.41633606 187.49230957 C-82.41315369 186.40881729 -82.40997131 185.32532501 -82.4066925 184.20899963 C-81.77850518 180.72805909 -80.65924357 179.5391147 -77.89875793 177.39440918 C-75.53938293 177.00378418 -75.53938293 177.00378418 -73.14875793 177.14440918 C-72.34953918 177.18050293 -71.55032043 177.21659668 -70.72688293 177.25378418 C-70.12360168 177.30019043 -69.52032043 177.34659668 -68.89875793 177.39440918 C-68.96063293 176.30128418 -69.02250793 175.20815918 -69.08625793 174.08190918 C-69.0163974 160.83169445 -62.38193327 148.04309969 -53.37922668 138.64831543 C-47.5931675 133.39074669 -41.5309787 129.92544334 -34.20100403 127.29626465 C-33.20861725 126.93918427 -32.21623047 126.58210388 -31.19377136 126.21420288 C-30.43641693 125.94367096 -29.6790625 125.67313904 -28.89875793 125.39440918 C-28.89733292 124.08863922 -28.8959079 122.78286926 -28.8944397 121.43753052 C-28.87774192 109.10834579 -28.8348829 96.77948994 -28.76666737 84.45047951 C-28.73243398 78.11256845 -28.70729297 71.77489752 -28.70320129 65.43688965 C-28.69891067 59.31584772 -28.6703833 53.19534715 -28.62532616 47.07447433 C-28.61237579 44.74384087 -28.60803469 42.41314254 -28.61260414 40.08247757 C-28.61752736 36.80777384 -28.59133902 33.5346419 -28.55818176 30.26013184 C-28.5668074 29.30490631 -28.57543304 28.34968079 -28.58432007 27.36550903 C-28.45621531 19.7764415 -26.34608454 13.16621172 -21.14352131 7.47396278 C-14.83525514 1.56570601 -8.39195237 -0.05551132 0 0 Z M-11.89875793 20.39440918 C-13.04571598 22.68832527 -13.02214446 23.95778067 -13.01901245 26.50723267 C-13.02038712 27.36822571 -13.02176178 28.22921875 -13.0231781 29.11630249 C-13.01958282 30.06288727 -13.01598755 31.00947205 -13.01228333 31.98474121 C-13.01242935 32.97989746 -13.01257538 33.97505371 -13.01272583 35.00036621 C-13.01202725 38.30100661 -13.00423737 41.6015911 -12.99641418 44.90222168 C-12.99454981 47.18622812 -12.993126 49.47023496 -12.99212646 51.75424194 C-12.98830281 57.77452696 -12.97847379 63.79478797 -12.96742249 69.81506348 C-12.95540966 77.03370162 -12.9508054 84.25234777 -12.94496918 91.47099304 C-12.93526198 102.4454818 -12.91610434 113.41991785 -12.89875793 124.39440918 C2.61124207 124.39440918 18.12124207 124.39440918 34.10124207 124.39440918 C34.13862488 119.90460449 34.17600769 115.4147998 34.21452332 110.78894043 C34.25264317 107.20365781 34.29371588 103.61843602 34.33678436 100.03321075 C34.3814036 96.25153124 34.42084726 92.46996147 34.44767761 88.68811035 C34.47373225 85.0439374 34.51414915 81.40017823 34.56442833 77.75626183 C34.5810826 76.36769454 34.59260587 74.9790557 34.59885597 73.5904026 C34.60851178 71.64189898 34.63828467 69.69352676 34.66886902 67.74523926 C34.67997208 66.63715408 34.69107513 65.52906891 34.70251465 64.3874054 C35.41549871 59.03548195 35.41549871 59.03548195 38.10124207 56.39440918 C41.85812819 55.6190164 45.58602336 55.71246295 49.40983582 55.74743652 C50.57588348 55.73867493 51.74193115 55.72991333 52.9433136 55.72088623 C56.80883173 55.69882766 60.67321173 55.71346946 64.53874207 55.73034668 C67.21771171 55.72698043 69.8966464 55.72213759 72.5756073 55.71585083 C78.1946299 55.70675204 83.81332401 55.71874774 89.43229675 55.74255371 C95.93034533 55.76976601 102.42760958 55.76095196 108.92563915 55.73342168 C114.50283876 55.7107377 120.07980213 55.70752685 125.65703297 55.72061503 C128.98892089 55.72841375 132.32035885 55.72747984 135.65223694 55.71293259 C139.36625189 55.70027677 143.078747 55.71953054 146.79264832 55.74743652 C147.89923798 55.73731537 149.00582764 55.72719421 150.14595032 55.71676636 C157.51682515 55.81971256 157.51682515 55.81971256 160.28100586 58.53791809 C161.19793853 61.73115681 161.50028984 64.41937741 161.53361511 67.74523926 C161.55340927 69.00616898 161.57320343 70.26709869 161.59359741 71.5662384 C161.60036613 72.93213756 161.60681311 74.29803834 161.61296082 75.66394043 C161.62981631 77.06928571 161.64796773 78.474616 161.6673584 79.87992859 C161.71477057 83.56728428 161.74463633 87.25457915 161.77079773 90.94213867 C161.80064789 94.70955327 161.84700252 98.4767627 161.89225769 102.24401855 C161.9797445 109.62749822 162.03976235 117.01048375 162.10124207 124.39440918 C177.61124207 124.39440918 193.12124207 124.39440918 209.10124207 124.39440918 C209.24667656 106.41202654 209.24667656 106.41202654 209.34538269 88.42956543 C209.37526993 81.09490878 209.4106231 73.76056427 209.47843933 66.42614746 C209.53277355 60.51280929 209.56266601 54.59980587 209.57562828 48.68623734 C209.58486549 46.4303625 209.60290368 44.17450595 209.62989235 41.91877365 C209.66620018 38.75839426 209.67118652 35.59939724 209.66886902 32.43884277 C209.6868454 31.5066391 209.70482178 30.57443542 209.7233429 29.61398315 C209.6886089 25.2352092 209.49934124 22.30988318 206.69076538 18.82913208 C202.54899609 14.93495569 199.45030614 15.24389987 194.00462341 15.24050903 C192.73434189 15.23393565 192.73434189 15.23393565 191.43839812 15.22722948 C188.5841486 15.21381266 185.72992998 15.20765616 182.87565613 15.20153809 C180.83585977 15.1936394 178.79606483 15.1853706 176.75627136 15.17675781 C170.04315022 15.15051113 163.33002276 15.13522775 156.61686707 15.12097168 C154.30833176 15.11561313 151.99979651 15.11023563 149.69126129 15.10483932 C140.09029812 15.08320692 130.48933664 15.06446919 120.88835526 15.05321693 C107.11635692 15.03697167 93.34464047 15.00378377 79.57274842 14.94681609 C69.89626121 14.9081501 60.21984949 14.8885882 50.54328704 14.88329637 C44.760478 14.87963841 38.97796943 14.86756967 33.19524384 14.83519363 C27.75495707 14.80517195 22.3151535 14.79878025 16.87480164 14.81057739 C14.87773083 14.81079862 12.88063799 14.80245314 10.8836441 14.78492355 C8.15711024 14.76229238 5.43233743 14.77049847 2.70579529 14.78640747 C1.91531933 14.77252538 1.12484337 14.7586433 0.3104136 14.74434054 C-5.40367148 14.82650064 -7.90272328 16.29979276 -11.89875793 20.39440918 Z M49.10124207 70.39440918 C49.10124207 88.21440918 49.10124207 106.03440918 49.10124207 124.39440918 C81.44124207 124.39440918 113.78124207 124.39440918 147.10124207 124.39440918 C147.10124207 106.57440918 147.10124207 88.75440918 147.10124207 70.39440918 C114.76124207 70.39440918 82.42124207 70.39440918 49.10124207 70.39440918 Z M-47.17219543 155.01940918 C-52.34033144 162.12851935 -53.89875793 168.70723789 -53.89875793 177.39440918 C46.42124207 177.39440918 146.74124207 177.39440918 250.10124207 177.39440918 C250.10124207 165.87361719 246.18535733 157.67146679 238.25358582 149.48815918 C229.37917617 141.16068134 220.26552123 139.24275255 208.45593262 139.25396729 C207.47866358 139.25099616 206.50139455 139.24802504 205.49451131 139.24496388 C202.21668438 139.23628567 198.93889402 139.23476937 195.66105652 139.23327637 C193.31204144 139.22864756 190.96302712 139.22362282 188.61401367 139.2182312 C182.22954469 139.20511095 175.84508622 139.19866293 169.46060586 139.19422054 C165.47125561 139.19128913 161.48190824 139.18718418 157.49255943 139.18271637 C146.43916253 139.17052586 135.38576756 139.16022631 124.33236408 139.15684128 C123.62532861 139.15662171 122.91829313 139.15640215 122.18983234 139.15617593 C121.48113992 139.15595765 120.77244749 139.15573937 120.04227954 139.15551448 C118.60628593 139.15507102 117.17029232 139.15462446 115.73429871 139.1541748 C114.66585331 139.15384266 114.66585331 139.15384266 113.57582315 139.15350381 C102.04011773 139.14955776 90.50447556 139.13210867 78.96879456 139.10881528 C67.11475539 139.08507302 55.26074791 139.07263811 43.40668458 139.07147336 C36.75533786 139.07055818 30.10406395 139.06452497 23.45273781 139.04665375 C17.19417727 139.03016501 10.93577294 139.0280216 4.67719841 139.03679276 C2.38349616 139.0375627 0.08978548 139.03322606 -2.20389557 139.0233345 C-5.34229216 139.0105967 -8.48013703 139.0165021 -11.61853027 139.0269165 C-12.51981885 139.0188601 -13.42110743 139.01080369 -14.34970778 139.00250316 C-28.09351398 139.10870049 -38.35623012 144.62289231 -47.17219543 155.01940918 Z M-66.89875793 192.39440918 C-66.89875793 205.26440918 -66.89875793 218.13440918 -66.89875793 231.39440918 C42.00124207 231.39440918 150.90124207 231.39440918 263.10124207 231.39440918 C263.10124207 218.52440918 263.10124207 205.65440918 263.10124207 192.39440918 C154.20124207 192.39440918 45.30124207 192.39440918 -66.89875793 192.39440918 Z M-47.89875793 246.39440918 C-47.89875793 257.28440918 -47.89875793 268.17440918 -47.89875793 279.39440918 C-43.27875793 279.39440918 -38.65875793 279.39440918 -33.89875793 279.39440918 C-33.89875793 268.50440918 -33.89875793 257.61440918 -33.89875793 246.39440918 C-38.51875793 246.39440918 -43.13875793 246.39440918 -47.89875793 246.39440918 Z M226.10124207 246.39440918 C226.10124207 257.28440918 226.10124207 268.17440918 226.10124207 279.39440918 C232.04124207 279.39440918 237.98124207 279.39440918 244.10124207 279.39440918 C244.10124207 268.50440918 244.10124207 257.61440918 244.10124207 246.39440918 C238.16124207 246.39440918 232.22124207 246.39440918 226.10124207 246.39440918 Z " fill="#636363" transform="translate(157.8987579345703,105.6055908203125)"/>
</svg>
