<svg width="51" height="50" viewBox="0 0 51 50" fill="none" xmlns="http://www.w3.org/2000/svg">
<g clip-path="url(#clip0_475_13912)">
<path d="M45.2917 17.7344V14.5833C45.2917 10.65 42.174 6.25 38 6.25H13C8.82605 6.25 5.70834 10.65 5.70834 14.5833V17.7344C4.57861 17.8384 3.5052 18.2755 2.62416 18.9902C1.74312 19.7049 1.09411 20.6652 0.759403 21.7492C0.424697 22.8332 0.41936 23.9921 0.744069 25.0792C1.06878 26.1662 1.70891 27.1324 2.58334 27.8552V34.375C2.58467 35.3873 2.88095 36.3772 3.43594 37.2237C3.99093 38.0703 4.78059 38.7368 5.70834 39.1417V41.6667C5.70834 42.2192 5.92783 42.7491 6.31853 43.1398C6.70923 43.5305 7.23914 43.75 7.79167 43.75H9.875C10.4275 43.75 10.9574 43.5305 11.3481 43.1398C11.7388 42.7491 11.9583 42.2192 11.9583 41.6667V39.5833H39.0417V41.6667C39.0417 42.2192 39.2612 42.7491 39.6519 43.1398C40.0426 43.5305 40.5725 43.75 41.125 43.75H43.2083C43.7609 43.75 44.2908 43.5305 44.6815 43.1398C45.0722 42.7491 45.2917 42.2192 45.2917 41.6667V39.1417C46.2194 38.7368 47.0091 38.0703 47.5641 37.2237C48.1191 36.3772 48.4153 35.3873 48.4167 34.375V27.8552C49.2911 27.1324 49.9312 26.1662 50.2559 25.0792C50.5806 23.9921 50.5753 22.8332 50.2406 21.7492C49.9059 20.6652 49.2569 19.7049 48.3758 18.9902C47.4948 18.2755 46.4214 17.8384 45.2917 17.7344ZM13 8.33333H38C40.8854 8.33333 43.2083 11.7521 43.2083 14.5833V17.9302C42.0099 18.271 40.955 18.9928 40.2032 19.9865C39.4515 20.9801 39.0437 22.1915 39.0417 23.4375V26.9417C34.2016 26.3647 29.3326 26.0642 24.4583 26.0417C20.2764 26.0156 16.0983 26.2997 11.9583 26.8917V23.4375C11.9563 22.1915 11.5486 20.9801 10.7968 19.9865C10.045 18.9928 8.99014 18.271 7.79167 17.9302V14.5833C7.79167 11.7521 10.1146 8.33333 13 8.33333ZM9.875 41.6667H7.79167V39.5833H9.875V41.6667ZM43.2083 41.6667H41.125V39.5833H43.2083V41.6667ZM46.7948 26.4688C46.6529 26.5639 46.5365 26.6926 46.456 26.8434C46.3756 26.9942 46.3334 27.1624 46.3333 27.3333V34.375C46.3333 35.2038 46.0041 35.9987 45.418 36.5847C44.832 37.1708 44.0371 37.5 43.2083 37.5H7.79167C6.96287 37.5 6.16801 37.1708 5.58196 36.5847C4.99591 35.9987 4.66667 35.2038 4.66667 34.375V27.3333C4.66658 27.1624 4.62444 26.9942 4.54397 26.8434C4.46349 26.6926 4.34716 26.5639 4.20521 26.4688C3.68121 26.119 3.25678 25.6395 2.97329 25.0768C2.68981 24.5142 2.55695 23.8878 2.58768 23.2585C2.6184 22.6293 2.81165 22.0187 3.14859 21.4864C3.48553 20.9541 3.95466 20.5182 4.51024 20.2211C5.06581 19.9241 5.68888 19.7761 6.31869 19.7916C6.94849 19.807 7.56354 19.9854 8.10387 20.3094C8.64419 20.6333 9.09136 21.0918 9.40176 21.64C9.71216 22.1882 9.87521 22.8075 9.875 23.4375V28.125C9.87506 28.2791 9.90928 28.4312 9.9752 28.5704C10.0411 28.7097 10.1371 28.8325 10.2563 28.9302C10.375 29.0284 10.5141 29.0987 10.6636 29.136C10.813 29.1733 10.9689 29.1767 11.1198 29.1458C15.5275 28.4155 19.9908 28.074 24.4583 28.125C29.6338 28.146 34.8029 28.4905 39.9354 29.1562C40.0832 29.1775 40.2338 29.1666 40.3771 29.1245C40.5203 29.0824 40.6528 29.01 40.7657 28.9122C40.8785 28.8144 40.9689 28.6935 41.0309 28.5577C41.0929 28.4219 41.125 28.2743 41.125 28.125V23.4375C41.1248 22.8075 41.2878 22.1882 41.5982 21.64C41.9086 21.0918 42.3558 20.6333 42.8961 20.3094C43.4365 19.9854 44.0515 19.807 44.6813 19.7916C45.3111 19.7761 45.9342 19.9241 46.4898 20.2211C47.0453 20.5182 47.5145 20.9541 47.8514 21.4864C48.1884 22.0187 48.3816 22.6293 48.4123 23.2585C48.4431 23.8878 48.3102 24.5142 48.0267 25.0768C47.7432 25.6395 47.3188 26.119 46.7948 26.4688Z" fill="#646464"/>
</g>
<defs>
<clipPath id="clip0_475_13912">
<rect width="50" height="50" fill="white" transform="translate(0.5)"/>
</clipPath>
</defs>
</svg>
