<svg width="170" height="170" viewBox="0 0 170 170" fill="none" xmlns="http://www.w3.org/2000/svg">
<g clip-path="url(#clip0_345_25797)">
<path fill-rule="evenodd" clip-rule="evenodd" d="M85 170C38.1836 170 0 131.816 0 85C0 38.1836 38.1836 0 85 0C131.816 0 170 38.1836 170 85C170 131.816 131.816 170 85 170Z" fill="#5EAC24"/>
<path fill-rule="evenodd" clip-rule="evenodd" d="M85 157.383C45.1562 157.383 12.6172 124.844 12.6172 85C12.6172 45.1562 45.1562 12.6172 85 12.6172C124.844 12.6172 157.383 45.1562 157.383 85C157.383 124.844 125.176 157.383 85 157.383Z" fill="#96C970"/>
<path fill-rule="evenodd" clip-rule="evenodd" d="M67.4023 126.504C66.7383 126.504 66.0742 126.172 65.7422 125.84L30.8789 91.3086C29.8828 90.3125 29.8828 88.6523 30.8789 87.6562L43.8281 75.0391C44.1602 74.375 44.8242 74.375 45.4883 74.375C46.1523 74.375 46.4844 74.375 47.1484 75.0391L67.0703 95.293L118.203 44.1602C119.199 43.1641 120.859 43.1641 121.855 44.1602L134.473 57.1094C135.137 57.4414 135.137 58.1055 135.137 58.7695C135.137 59.1016 135.137 59.7656 134.473 60.4297L69.0625 125.84C68.3984 126.172 68.0664 126.504 67.4023 126.504Z" fill="white"/>
</g>
<defs>
<clipPath id="clip0_345_25797">
<rect width="170" height="170" fill="white"/>
</clipPath>
</defs>
</svg>
