<?xml version="1.0" encoding="UTF-8"?>
<svg version="1.1" xmlns="http://www.w3.org/2000/svg" width="512" height="512">
<path d="M0 0 C1.69626476 -0.00838655 3.39251133 -0.02159057 5.08870572 -0.03917122 C9.7320569 -0.07336342 14.37274238 -0.03923736 19.01590168 0.00642824 C24.02957719 0.04372799 29.04297687 0.01740924 34.05670166 -0.00088501 C43.8699467 -0.02665371 53.68216188 0.00614522 63.49526558 0.05880415 C74.92090396 0.11792786 86.34632697 0.11901793 97.77209129 0.11772943 C118.1537962 0.11741526 138.5350248 0.16984095 158.91654968 0.25195312 C178.70015238 0.33161041 198.48337002 0.37406151 218.26713562 0.375 C220.09595652 0.37509441 220.09595652 0.37509441 221.96172331 0.37519073 C223.17881871 0.37524864 224.39591411 0.37530655 225.6498912 0.37536621 C248.16980614 0.37665594 270.68956266 0.41077393 293.2094177 0.46143627 C301.17714334 0.47868134 309.14484739 0.48651028 317.11258888 0.49157715 C326.8162373 0.49846722 336.5196284 0.52445465 346.2231544 0.57429326 C351.17570123 0.59939639 356.12793486 0.6166144 361.08055115 0.61237717 C365.61115793 0.60878954 370.14105243 0.62820569 374.67149522 0.66629076 C376.31323759 0.67606888 377.95505578 0.67739272 379.59680859 0.66956282 C381.82388175 0.66022637 384.04863189 0.68143546 386.27548695 0.71047974 C388.13273198 0.71657603 388.13273198 0.71657603 390.02749711 0.72279549 C395.41753263 1.77744479 398.08930033 5.85356682 401.14091492 10.14941406 C401.64421326 10.85243652 402.1475116 11.55545898 402.6660614 12.27978516 C403.45798889 13.40054443 403.45798889 13.40054443 404.26591492 14.54394531 C405.42329157 16.16516431 406.58084862 17.78625454 407.73857117 19.40722656 C408.32525574 20.23174316 408.91194031 21.05625977 409.5164032 21.90576172 C411.69793465 24.96161055 413.90362424 27.99946783 416.11039734 31.03710938 C440.50590649 64.6412222 440.50590649 64.6412222 440.55644226 69.58081055 C440.57558182 70.85244301 440.57558182 70.85244301 440.59510803 72.14976501 C440.5984465 73.51857567 440.5984465 73.51857567 440.60185242 74.91503906 C440.60850922 75.85573746 440.61516602 76.79643585 440.62202454 77.76564026 C440.63215014 79.75527999 440.63684158 81.74495367 440.63652039 83.73461914 C440.64089352 86.77905182 440.67721382 89.82203482 440.71513367 92.86621094 C440.72100183 94.79914869 440.72497122 96.73209332 440.72685242 98.66503906 C440.74122345 99.57555527 440.75559448 100.48607147 440.770401 101.42417908 C440.76424774 102.27508621 440.75809448 103.12599335 440.75175476 104.00268555 C440.7546048 104.74864487 440.75745483 105.49460419 440.76039124 106.26316833 C440.03790756 109.32167365 438.7202806 110.42167566 436.26591492 112.35644531 C433.03153992 112.74707031 433.03153992 112.74707031 429.51591492 112.60644531 C428.34544617 112.57035156 427.17497742 112.53425781 425.96903992 112.49707031 C425.07700867 112.45066406 424.18497742 112.40425781 423.26591492 112.35644531 C423.26960209 113.65149868 423.27328926 114.94655205 423.27708817 116.28084946 C423.36367923 147.00791841 423.42965672 177.73495448 423.47017623 208.46211611 C423.47517919 212.24232241 423.48035647 216.02252846 423.48564148 219.80273438 C423.48669072 220.55532006 423.48773996 221.30790574 423.488821 222.08329704 C423.50623648 234.27650366 423.53778042 246.46963501 423.5745261 258.66279694 C423.6119038 271.16978881 423.63414404 283.6767412 423.6422689 296.18378663 C423.64776328 303.90422734 423.66513 311.62445531 423.69758078 319.34483054 C423.7211813 325.26019106 423.72374278 331.17544179 423.71834564 337.09085083 C423.71944937 339.52092043 423.72744924 341.95099782 423.74273682 344.38101959 C423.76254217 347.69049118 423.75788809 350.99904126 423.74693298 354.30853271 C423.75858435 355.27740032 423.77023571 356.24626792 423.78224015 357.24449515 C423.72392352 363.73048713 423.72392352 363.73048713 421.36626053 366.95269394 C418.99076043 368.5403429 417.76349072 368.86187781 414.92802429 368.87402344 C414.08034485 368.88663208 413.23266541 368.89924072 412.35929871 368.91223145 C410.99822998 368.90008606 410.99822998 368.90008606 409.60966492 368.88769531 C408.67038147 368.89152222 407.73109802 368.89534912 406.76335144 368.89929199 C404.77965726 368.90201107 402.79592722 368.89465015 400.81230164 368.87792969 C397.77649476 368.85651993 394.74305446 368.87773138 391.70732117 368.90332031 C389.77893053 368.90067704 387.85054136 368.89555206 385.92216492 368.88769531 C385.01478577 368.89579224 384.10740662 368.90388916 383.17253113 368.91223145 C376.88140647 368.81865534 376.88140647 368.81865534 373.72489929 366.44824219 C371.63230841 363.44802152 371.14106058 361.81541242 371.14286709 358.206007 C371.14087604 357.33117601 371.13888499 356.45634502 371.13683361 355.555004 C371.13974645 354.58809261 371.14265929 353.62118122 371.1456604 352.62496948 C371.14437876 351.09107407 371.14437876 351.09107407 371.14307123 349.52619088 C371.14141565 346.07750172 371.14693911 342.62886051 371.15238953 339.18017578 C371.15267141 336.71685792 371.15251365 334.25353998 371.15194702 331.79022217 C371.15171883 326.47547659 371.15456708 321.16074613 371.16018486 315.84600449 C371.16830202 308.16172331 371.1709153 300.47744807 371.17217285 292.79316308 C371.17436303 280.32678635 371.1810222 267.86041615 371.19047546 255.39404297 C371.19965046 243.28206414 371.20673087 231.17008707 371.21098328 219.05810547 C371.21137736 217.9387703 371.21137736 217.9387703 371.21177941 216.79682229 C371.21308442 213.05334576 371.21434813 209.30986921 371.21559131 205.56639266 C371.22596286 174.49640546 371.24365444 143.42642638 371.26591492 112.35644531 C368.95591492 112.35644531 366.64591492 112.35644531 364.26591492 112.35644531 C364.2686803 113.33104548 364.27144567 114.30564566 364.27429485 115.30977917 C364.34086094 139.01188419 364.39017671 162.7139771 364.42135143 186.41615582 C364.43682757 197.87830106 364.45793141 209.34038459 364.49223328 220.80249023 C364.52211271 230.79157435 364.54148448 240.78061379 364.5481804 250.76974136 C364.55209511 256.06007373 364.56131084 261.35027825 364.58310509 266.64056969 C364.60344719 271.61863836 364.6097533 276.59652635 364.60523796 281.57463264 C364.60606418 283.40279497 364.61204335 285.23096325 364.62353134 287.05908966 C364.6384399 289.55362848 364.63487465 292.04748358 364.62667847 294.54203796 C364.63541699 295.26675393 364.64415552 295.9914699 364.65315884 296.73814696 C364.61420959 301.11877439 363.92296658 303.8546668 361.26591492 307.35644531 C356.55436182 310.81201899 349.98504947 309.68981054 344.4214325 309.67211914 C342.33846129 309.66896055 340.25691371 309.6924305 338.17411804 309.71777344 C336.85476257 309.71841797 335.5354071 309.7190625 334.17607117 309.71972656 C332.9708783 309.72270752 331.76568542 309.72568848 330.52397156 309.72875977 C326.95137801 309.32050161 325.11181462 308.51676926 322.26591492 306.35644531 C319.82311079 302.69223912 319.99180909 299.97911363 320.02540588 295.74458313 C320.02283783 294.5736335 320.02283783 294.5736335 320.0202179 293.37902832 C320.01689927 290.7468156 320.02796782 288.1148556 320.03886414 285.48266602 C320.03947659 283.56994987 320.03921019 281.65723327 320.03813362 279.74451733 C320.03768126 274.61263707 320.04929053 269.48084969 320.06335449 264.34899139 C320.07472671 259.53714193 320.07527977 254.7253153 320.07670593 249.91345215 C320.08720934 235.83193752 320.11513153 221.75044025 320.14091492 207.66894531 C320.18216492 176.21582031 320.22341492 144.76269531 320.26591492 112.35644531 C230.50591492 112.35644531 140.74591492 112.35644531 48.26591492 112.35644531 C48.42432911 174.98969252 48.42432911 174.98969252 48.62626648 237.62280273 C48.64433289 249.72424316 48.64433289 249.72424316 48.64768982 255.38569641 C48.65142324 259.34806742 48.66643989 263.31022504 48.68821716 267.27253723 C48.71561296 272.32388314 48.7238872 277.37491785 48.71820402 282.42633116 C48.71939274 284.28195231 48.7273489 286.13758412 48.74277544 287.99314153 C48.76262922 290.49718133 48.75789248 293.00000728 48.74693298 295.5040741 C48.75858364 296.23247151 48.7702343 296.96086893 48.78223801 297.711339 C48.74029511 301.26909563 48.3353417 303.2461096 46.42335129 306.28471851 C41.6497284 310.86869725 34.71624582 309.57920545 28.49687195 309.59667969 C26.40515786 309.60637927 24.31442955 309.63741294 22.22294617 309.66894531 C20.88571239 309.67547671 19.54847162 309.68072665 18.21122742 309.68457031 C16.39389099 309.69858887 16.39389099 309.69858887 14.5398407 309.71289062 C10.92767887 309.31962021 9.10460229 308.59728121 6.26591492 306.35644531 C3.75562127 302.71550615 3.99132911 298.91848769 4.02540588 294.66229248 C4.02369703 293.88299983 4.02198818 293.10370718 4.02022755 292.30079961 C4.01693117 289.68741894 4.02793875 287.07429455 4.03886414 284.4609375 C4.03942822 282.58845018 4.03911175 280.71596241 4.03797913 278.84347534 C4.0374045 273.75705893 4.04917669 268.67073654 4.06312704 263.584342 C4.07561599 258.26987622 4.07680345 252.95540837 4.07917786 247.64093018 C4.08539802 237.57582466 4.10181611 227.5107625 4.12187684 217.44567609 C4.14421914 205.98752445 4.15522507 194.52937075 4.16526771 183.07120275 C4.18618186 159.49959288 4.22136828 135.92802153 4.26591492 112.35644531 C1.95591492 112.35644531 -0.35408508 112.35644531 -2.73408508 112.35644531 C-2.7313197 113.64026942 -2.72855433 114.92409353 -2.72570515 116.2468214 C-2.66074961 146.7134317 -2.61127257 177.18002333 -2.58088909 207.64668624 C-2.57713692 211.39556113 -2.57325396 215.14443587 -2.56929016 218.89331055 C-2.56850323 219.63965269 -2.5677163 220.38599483 -2.56690552 221.1549534 C-2.55384704 233.24400275 -2.53019077 245.33300935 -2.50262669 257.42203333 C-2.47458479 269.8239409 -2.4579114 282.22582607 -2.4518196 294.62776405 C-2.44770063 302.28213642 -2.43468523 309.936388 -2.41033568 317.59072319 C-2.39262233 323.45734236 -2.3907164 329.32389932 -2.39476204 335.19054604 C-2.39393487 337.59922658 -2.38794321 340.00791159 -2.37646866 342.41656494 C-2.36159371 345.69928191 -2.36511351 348.98147748 -2.37332153 352.26420593 C-2.36458301 353.2223788 -2.35584448 354.18055167 -2.34684116 355.16776007 C-2.37979488 360.02713841 -2.49237659 363.44860857 -5.73408508 367.35644531 C-8.0097413 368.49427342 -9.31575529 368.50013419 -11.84492493 368.53344727 C-12.69275543 368.5462825 -13.54058594 368.55911774 -14.41410828 368.57234192 C-15.79066086 368.58342232 -15.79066086 368.58342232 -17.19502258 368.59472656 C-18.13713593 368.60279831 -19.07924927 368.61087006 -20.0499115 368.6191864 C-22.04552874 368.63302951 -24.04116968 368.64375065 -26.03681946 368.65161133 C-29.09000904 368.66883768 -32.14211966 368.71272312 -35.19502258 368.75683594 C-37.13251461 368.76696157 -39.07001585 368.77547808 -41.00752258 368.78222656 C-42.37800247 368.80848869 -42.37800247 368.80848869 -43.77616882 368.83528137 C-45.05737106 368.83089302 -45.05737106 368.83089302 -46.36445618 368.82641602 C-47.48791946 368.83521538 -47.48791946 368.83521538 -48.63407898 368.8441925 C-51.83201953 368.10143917 -52.78408879 367.02397227 -54.73408508 364.35644531 C-55.33757442 361.0126735 -55.25586456 357.69804187 -55.21510315 354.30853271 C-55.21852085 353.27605982 -55.22193855 352.24358693 -55.22545981 351.17982697 C-55.23206468 347.70944873 -55.21001879 344.23983861 -55.18818665 340.76953125 C-55.18705874 338.28621438 -55.18769092 335.80289617 -55.18995667 333.31958008 C-55.19086845 327.96766984 -55.17950054 322.61600012 -55.15700531 317.26415253 C-55.12450229 309.52631472 -55.11408006 301.78857124 -55.10905334 294.05067256 C-55.10029801 281.49661887 -55.073676 268.94266912 -55.0358429 256.38867188 C-54.99912896 244.19336467 -54.97081419 231.99808569 -54.95381165 219.80273438 C-54.95276075 219.05106238 -54.95170986 218.29939039 -54.95062712 217.52494046 C-54.94540698 213.75403722 -54.94035215 209.98313378 -54.93537951 206.21223021 C-54.89391004 174.92689299 -54.8231579 143.64168493 -54.73408508 112.35644531 C-55.62611633 112.40285156 -56.51814758 112.44925781 -57.43721008 112.49707031 C-58.60767883 112.53316406 -59.77814758 112.56925781 -60.98408508 112.60644531 C-62.14424133 112.65285156 -63.30439758 112.69925781 -64.49971008 112.74707031 C-67.73408508 112.35644531 -67.73408508 112.35644531 -70.12211132 110.46828556 C-71.9153719 108.11894219 -72.25725482 107.04464356 -72.33100891 104.12963867 C-72.35975601 103.30455307 -72.38850311 102.47946747 -72.41812134 101.62937927 C-72.42570969 100.7439595 -72.43329803 99.85853973 -72.44111633 98.94628906 C-72.45680161 98.02360733 -72.47248688 97.1009256 -72.48864746 96.15028381 C-72.5132676 94.19607965 -72.52685337 92.24170985 -72.53022766 90.28735352 C-72.54640787 87.32637441 -72.63173218 84.37266077 -72.72041321 81.41308594 C-72.95068904 65.54488105 -72.95068904 65.54488105 -67.46455383 58.79785156 C-65.92447043 57.27920041 -64.34794444 55.79645094 -62.73408508 54.35644531 C-61.21880916 52.70365475 -59.71677391 51.03853081 -58.23408508 49.35644531 C-57.49158508 48.54175781 -56.74908508 47.72707031 -55.98408508 46.88769531 C-53.65546455 44.26799721 -51.43845561 41.58129222 -49.23408508 38.85644531 C-45.62259374 34.39224074 -41.84747814 30.12642418 -37.98017883 25.88378906 C-35.6722091 23.28682139 -33.47852646 20.62240519 -31.29658508 17.91894531 C-30.58536536 17.06319286 -29.87414564 16.20744041 -29.14137381 15.32575607 C-27.59464035 13.41791168 -26.10406161 11.46235679 -24.68933612 9.45466995 C-17.51575828 0.10215536 -10.90868361 -0.20650698 0 0 Z M-19.59320981 31.74830781 C-21.00106038 33.73276427 -22.55743784 35.55239493 -24.17939758 37.36425781 C-28.97631449 42.94157122 -33.75502192 48.5339183 -38.48408508 54.16894531 C-39.30392883 55.14476562 -40.12377258 56.12058594 -40.96846008 57.12597656 C-42.83752971 59.01300453 -42.83752971 59.01300453 -42.73408508 60.35644531 C107.74591492 60.35644531 258.22591492 60.35644531 413.26591492 60.35644531 C410.03198577 54.64037036 410.03198577 54.64037036 406.41825867 49.29785156 C405.89425476 48.58048828 405.37025085 47.863125 404.83036804 47.12402344 C404.29347351 46.39634766 403.75657898 45.66867188 403.20341492 44.91894531 C402.14782961 43.48436351 401.09454622 42.04808581 400.04325867 40.61035156 C399.45700242 39.86704149 398.87074617 39.12373142 398.26672459 38.3578968 C396.61604404 35.88168047 395.77031005 34.14188497 394.79952145 31.41503716 C392.6499344 26.24127818 390.10444939 22.34227008 385.26591492 19.35644531 C374.26356572 16.29493905 362.1741748 17.15782832 350.85516369 17.29416871 C346.05244018 17.33459964 341.25057182 17.28262228 336.44796753 17.24264526 C327.04862849 17.17928322 317.65138948 17.20195425 308.25206286 17.25529756 C300.61115453 17.29694315 292.97082221 17.30651134 285.32981682 17.29327011 C284.24127955 17.29139583 283.15274229 17.28952155 282.03121905 17.28759047 C279.81968654 17.28361934 277.60815419 17.27956334 275.39662199 17.27542339 C254.66997397 17.24016244 233.94447894 17.30134471 213.21807551 17.39666103 C195.44556944 17.47630581 177.67447889 17.47796144 159.90190125 17.42138672 C139.24988237 17.35570679 118.59866956 17.33507952 97.9465875 17.38848102 C95.74300137 17.39408092 93.53941513 17.3996366 91.33582878 17.40514755 C90.25170275 17.40789739 89.16757671 17.41064722 88.05059837 17.41348038 C80.42212077 17.4298518 72.79408471 17.41454034 65.16565132 17.38718033 C55.86390253 17.35483716 46.56385679 17.37306984 37.26238853 17.45521487 C32.51878386 17.49589925 27.77790519 17.51456512 23.03425217 17.47223663 C18.68544791 17.43409661 14.34198238 17.46129506 9.9937548 17.53926431 C8.42666002 17.55620231 6.85909288 17.54991018 5.29224754 17.51722027 C-7.30473846 17.27563481 -12.65859923 21.83097526 -19.59320981 31.74830781 Z M-53.73408508 78.35644531 C-53.73408508 83.63644531 -53.73408508 88.91644531 -53.73408508 94.35644531 C103.34591492 94.35644531 260.42591492 94.35644531 422.26591492 94.35644531 C422.26591492 89.07644531 422.26591492 83.79644531 422.26591492 78.35644531 C265.18591492 78.35644531 108.10591492 78.35644531 -53.73408508 78.35644531 Z M-36.73408508 112.35644531 C-36.73408508 190.89644531 -36.73408508 269.43644531 -36.73408508 350.35644531 C-31.45408508 350.35644531 -26.17408508 350.35644531 -20.73408508 350.35644531 C-20.73408508 271.81644531 -20.73408508 193.27644531 -20.73408508 112.35644531 C-26.01408508 112.35644531 -31.29408508 112.35644531 -36.73408508 112.35644531 Z M22.26591492 112.35644531 C22.26591492 171.42644531 22.26591492 230.49644531 22.26591492 291.35644531 C24.90591492 291.35644531 27.54591492 291.35644531 30.26591492 291.35644531 C30.26591492 232.28644531 30.26591492 173.21644531 30.26591492 112.35644531 C27.62591492 112.35644531 24.98591492 112.35644531 22.26591492 112.35644531 Z M338.26591492 112.35644531 C338.26591492 171.42644531 338.26591492 230.49644531 338.26591492 291.35644531 C340.90591492 291.35644531 343.54591492 291.35644531 346.26591492 291.35644531 C346.26591492 232.28644531 346.26591492 173.21644531 346.26591492 112.35644531 C343.62591492 112.35644531 340.98591492 112.35644531 338.26591492 112.35644531 Z M389.26591492 112.35644531 C389.26591492 190.89644531 389.26591492 269.43644531 389.26591492 350.35644531 C394.54591492 350.35644531 399.82591492 350.35644531 405.26591492 350.35644531 C405.26591492 271.81644531 405.26591492 193.27644531 405.26591492 112.35644531 C399.98591492 112.35644531 394.70591492 112.35644531 389.26591492 112.35644531 Z " fill="#646464" transform="translate(71.73408508300781,-1.3564453125)"/>
</svg>
