<svg width="115" height="116" viewBox="0 0 115 116" fill="none" xmlns="http://www.w3.org/2000/svg">
<path d="M77.1806 38.4922L73.2578 30.3664C72.4172 28.405 70.4558 27.2842 68.2142 27.2842H47.1992C44.9576 27.2842 42.9962 28.405 42.1556 30.3664L37.9526 38.4922H26.7446C23.6624 38.4922 21.1406 41.014 21.1406 44.0962V83.3242C21.1406 86.4064 23.6624 88.9282 26.7446 88.9282H88.3886C91.4708 88.9282 93.9926 86.4064 93.9926 83.3242V44.0962C93.9926 41.014 91.4708 38.4922 88.3886 38.4922H77.1806Z" stroke="#42A4AE" stroke-width="6" stroke-miterlimit="10" stroke-linejoin="round"/>
<path d="M57.5669 77.7197C66.8519 77.7197 74.3789 70.1927 74.3789 60.9077C74.3789 51.6227 66.8519 44.0957 57.5669 44.0957C48.2819 44.0957 40.7549 51.6227 40.7549 60.9077C40.7549 70.1927 48.2819 77.7197 57.5669 77.7197Z" stroke="#42A4AE" stroke-width="6" stroke-miterlimit="10" stroke-linejoin="round"/>
<path d="M26.7441 46.8984H35.1501" stroke="#42A4AE" stroke-width="6" stroke-miterlimit="10" stroke-linejoin="round"/>
</svg>
