<svg width="91" height="73" viewBox="0 0 91 73" fill="none" xmlns="http://www.w3.org/2000/svg">
<path d="M71.2158 24.2496L80.5708 27.0942C80.8763 27.1897 81.3536 27.0942 81.5827 26.5406L83.3773 19.8776C83.4727 19.5721 83.3009 19.2475 82.9954 19.1521L81.0481 18.5602C80.8954 18.522 80.7426 18.522 80.609 18.5984L79.158 19.3812C79.0244 19.4575 78.8525 19.4766 78.7189 19.4194L73.2205 17.7393C72.915 17.6438 72.5904 17.8156 72.495 18.1211L70.8531 23.505C70.7385 23.8296 70.9104 24.1541 71.2158 24.2496Z" fill="#BF6326"/>
<path d="M76.2949 17.8352L73.8321 17.0906C73.5266 16.9952 73.2021 17.167 73.1066 17.4725L73.0302 17.7016C72.782 17.7016 72.5529 17.8543 72.4766 18.1216L72.9157 16.6706C73.0111 16.3651 73.4693 16.0215 73.7366 16.0215L75.5885 16.8615C75.7413 16.8997 75.8558 17.0143 75.9322 17.1479L76.2949 17.8352Z" fill="#BF6326"/>
<path d="M79.9224 18.9418L79.1396 19.3618C79.006 19.4381 78.8342 19.4572 78.7005 19.4L73.2021 17.7199C73.1448 17.7008 73.0875 17.7008 73.0303 17.7008L73.1066 17.4717C73.2021 17.1662 73.5267 16.9944 73.8321 17.0899L79.9224 18.9418Z" fill="#BF6326"/>
<path d="M71.5391 24.0191L80.894 26.8638C81.1995 26.9592 81.5241 26.7874 81.6195 26.4819L83.7005 19.6471C83.796 19.3416 83.6242 19.0171 83.3187 18.9216L81.3713 18.3298C81.2186 18.2916 81.0659 18.2916 80.9322 18.3679L79.4812 19.1507C79.3476 19.2271 79.1758 19.2462 79.0421 19.1889L73.5437 17.5088C73.2382 17.4133 72.9137 17.5852 72.8182 17.8906L71.1763 23.2745C71.0618 23.5991 71.2336 23.9236 71.5391 24.0191Z" fill="#F7B826"/>
<path d="M76.5986 17.605L74.1358 16.8605C73.8303 16.765 73.5058 16.9368 73.4103 17.2423L73.3339 17.4714C73.0857 17.4714 72.8566 17.6241 72.7803 17.8914L73.2194 16.4404C73.3148 16.135 73.6394 15.9632 73.9449 16.0586L75.8922 16.6505C76.045 16.6886 76.1595 16.8032 76.2359 16.9368L76.5986 17.605Z" fill="#E0912F"/>
<path d="M80.2447 18.7123L79.4619 19.1323C79.3283 19.2087 79.1564 19.2277 79.0228 19.1705L73.5244 17.4904C73.4671 17.4713 73.4098 17.4713 73.3525 17.4713L73.4289 17.2422C73.5244 16.9367 73.8489 16.7649 74.1544 16.8604L80.2447 18.7123Z" fill="#FCE3A8"/>
<path d="M6.72461 22.5875L16.0796 25.4321C16.385 25.5276 16.8623 25.4321 17.0914 24.8785L18.8861 18.2154C18.9815 17.91 18.8097 17.5854 18.5042 17.49L16.5569 16.8981C16.4041 16.8599 16.2514 16.8599 16.1178 16.9363L14.6668 17.7191C14.5331 17.7954 14.3613 17.8145 14.2277 17.7572L8.72925 16.0772C8.42378 15.9817 8.09922 16.1535 8.00376 16.459L6.36187 21.8429C6.24732 22.1674 6.41914 22.492 6.72461 22.5875Z" fill="#BF6326"/>
<path d="M11.7842 16.1721L9.32134 15.4275C9.01587 15.3321 8.69131 15.5039 8.59585 15.8094L8.51948 16.0385C8.27129 16.0385 8.04219 16.1912 7.96582 16.4585L8.40493 15.0075C8.50039 14.702 8.95859 14.3584 9.22588 14.3584L11.0778 15.1984C11.2305 15.2366 11.3451 15.3512 11.4214 15.4848L11.7842 16.1721Z" fill="#BF6326"/>
<path d="M15.4302 17.2787L14.6475 17.6987C14.5138 17.7751 14.342 17.7942 14.2083 17.7369L8.70991 16.0568C8.65264 16.0377 8.59536 16.0377 8.53809 16.0377L8.61445 15.8086C8.70991 15.5031 9.03447 15.3313 9.33994 15.4268L15.4302 17.2787Z" fill="#BF6326"/>
<path d="M7.0293 22.3566L16.3843 25.2012C16.6897 25.2967 17.0143 25.1249 17.1098 24.8194L19.1908 17.9845C19.2862 17.6791 19.1144 17.3545 18.8089 17.2591L16.8616 16.6481C16.7088 16.6099 16.5561 16.6099 16.4224 16.6863L14.9715 17.4691C14.8378 17.5454 14.666 17.5645 14.5324 17.5072L9.03394 15.8272C8.72847 15.7317 8.40391 15.9035 8.30845 16.209L6.66656 21.5929C6.55201 21.9365 6.72383 22.2611 7.0293 22.3566Z" fill="#F7B826"/>
<path d="M12.1074 15.942L9.64458 15.1974C9.33911 15.1019 9.01455 15.2737 8.91909 15.5792L8.84272 15.8083C8.59453 15.8083 8.36543 15.9611 8.28906 16.2283L8.72817 14.7774C8.82363 14.4719 9.14819 14.3001 9.45366 14.3955L11.401 14.9874C11.5538 15.0256 11.6683 15.1401 11.7447 15.2737L12.1074 15.942Z" fill="#E0912F"/>
<path d="M15.7349 17.0492L14.9521 17.4692C14.8185 17.5456 14.6467 17.5647 14.513 17.5074L9.0146 15.8273C8.95732 15.8082 8.90005 15.8082 8.84277 15.8082L8.91914 15.5791C9.0146 15.2737 9.33916 15.1018 9.64463 15.1973L15.7349 17.0492Z" fill="#FCE3A8"/>
<path d="M17.2817 51.0339L20.9282 50.213C21.0428 50.1939 21.1764 50.0602 21.1573 49.8311L20.4891 47.2919C20.47 47.1774 20.3364 47.101 20.2218 47.1201L19.4581 47.2919C19.4009 47.311 19.3436 47.3492 19.3245 47.3874L18.9808 47.922C18.9427 47.9792 18.9045 47.9983 18.8472 48.0174L16.7089 48.4947C16.5944 48.5138 16.518 48.6475 16.5371 48.762L17.0144 50.8621C17.0335 50.9957 17.148 51.0721 17.2817 51.0339Z" fill="#BF6326"/>
<path d="M17.7403 47.9606L16.7857 48.1706C16.6712 48.1897 16.5948 48.3233 16.6139 48.4379L16.633 48.5333C16.5566 48.5715 16.4993 48.6861 16.5184 48.7815L16.3848 48.2278C16.3657 48.1133 16.4421 47.9033 16.5375 47.8651L17.3203 47.7887C17.3776 47.7696 17.4348 47.7887 17.4921 47.8269L17.7403 47.9606Z" fill="#BF6326"/>
<path d="M19.1725 47.6357L19.0006 47.9221C18.9624 47.9794 18.9243 47.9985 18.867 48.0176L16.7287 48.4949C16.7096 48.4949 16.6905 48.514 16.6714 48.514L16.6523 48.4185C16.6332 48.304 16.7096 48.1703 16.8242 48.1512L19.1725 47.6357Z" fill="#BF6326"/>
<path d="M17.3397 50.9011L20.9863 50.0802C21.1008 50.0611 21.1772 49.9274 21.1581 49.8129L20.5662 47.1591C20.5472 47.0446 20.4135 46.9682 20.299 46.9873L19.5353 47.1591C19.478 47.1782 19.4207 47.2164 19.4017 47.2546L19.058 47.7892C19.0198 47.8464 18.9816 47.8655 18.9244 47.8846L16.7861 48.3619C16.6715 48.381 16.5952 48.5146 16.6143 48.6292L17.0915 50.7293C17.0915 50.8629 17.2252 50.9393 17.3397 50.9011Z" fill="#F7B826"/>
<path d="M17.8164 47.8268L16.8619 48.0368C16.7473 48.0559 16.6709 48.1895 16.69 48.3041L16.7091 48.3995C16.6328 48.4377 16.5755 48.5523 16.5946 48.6477L16.4609 48.0941C16.4418 47.9795 16.5182 47.8459 16.6328 47.8268L17.3964 47.655C17.4537 47.6359 17.511 47.655 17.5683 47.6931L17.8164 47.8268Z" fill="#E0912F"/>
<path d="M19.2301 47.502L19.0582 47.7883C19.0201 47.8456 18.9819 47.8647 18.9246 47.8838L16.7863 48.3611C16.7672 48.3611 16.7481 48.3802 16.729 48.3802L16.71 48.2847C16.6909 48.1702 16.7672 48.0365 16.8818 48.0174L19.2301 47.502Z" fill="#FCE3A8"/>
<path d="M41.1357 15.5014L53.4117 11.7213C53.8126 11.5876 54.2517 11.1485 54.1181 10.3658L51.1589 1.77446C51.0252 1.37353 50.6052 1.14443 50.2043 1.25898L47.646 2.04174C47.4551 2.09902 47.2832 2.23266 47.1878 2.42358L46.1759 4.35185C46.0805 4.52367 45.9086 4.65731 45.7177 4.73368L38.501 6.94833C38.1001 7.08197 37.871 7.50199 37.9855 7.90292L40.162 14.986C40.3147 15.406 40.7348 15.6351 41.1357 15.5014Z" fill="#BF6326"/>
<path d="M41.9569 4.79086L38.7304 5.78363C38.3294 5.91727 38.1003 6.33729 38.2149 6.73822L38.3103 7.04369C38.0431 7.23461 37.9094 7.57826 38.0049 7.90282L37.413 6.01273C37.2794 5.61181 37.5276 4.90541 37.833 4.71449L40.4677 4.27538C40.6586 4.21811 40.8686 4.2372 41.0596 4.33266L41.9569 4.79086Z" fill="#BF6326"/>
<path d="M46.7303 3.32031L46.1766 4.35127C46.0812 4.52309 45.9094 4.65673 45.7184 4.7331L38.5017 6.94775C38.4254 6.96684 38.3681 7.00502 38.2917 7.04321L38.1963 6.73774C38.0626 6.33681 38.2917 5.8977 38.7118 5.78315L46.7303 3.32031Z" fill="#BF6326"/>
<path d="M41.3076 15.0253L53.5836 11.2451C53.9845 11.1115 54.2136 10.6915 54.099 10.2906L51.3307 1.31743C51.1971 0.9165 50.7771 0.687398 50.3761 0.801948L47.8179 1.58471C47.6269 1.64199 47.4551 1.77563 47.3597 1.96655L46.3478 3.89482C46.2523 4.06664 46.0805 4.20028 45.8896 4.27665L38.6729 6.4913C38.272 6.62494 38.0429 7.04496 38.1574 7.44588L40.3339 14.5289C40.4866 14.9108 40.9066 15.1399 41.3076 15.0253Z" fill="#F7B826"/>
<path d="M42.1278 4.31527L38.9013 5.30804C38.5004 5.44169 38.2713 5.86171 38.3858 6.26263L38.4813 6.5681C38.214 6.75902 38.0804 7.10267 38.1758 7.42723L37.584 5.53715C37.4503 5.13622 37.6794 4.69711 38.0995 4.58256L40.6578 3.7998C40.8487 3.74252 41.0587 3.76161 41.2496 3.85707L42.1278 4.31527Z" fill="#E0912F"/>
<path d="M46.9002 2.84473L46.3466 3.87568C46.2511 4.04751 46.0793 4.18115 45.8884 4.25752L38.6717 6.47216C38.5953 6.49125 38.538 6.52944 38.4617 6.56762L38.3662 6.26215C38.2326 5.86122 38.4617 5.42211 38.8817 5.30756L46.9002 2.84473Z" fill="#FCE3A8"/>
<g opacity="0.29">
<path d="M72.8396 17.7383C72.8206 17.7383 72.7824 17.7574 72.7633 17.7765C72.7824 17.7574 72.8015 17.7574 72.8396 17.7383ZM72.7442 17.7956C72.7251 17.8146 72.706 17.8146 72.6869 17.8337C72.6869 17.8146 72.706 17.7956 72.7442 17.7956Z" fill="url(#paint0_linear_333_13800)"/>
<path d="M0.176074 20.2962C0.156982 20.3153 0.137891 20.3344 0.118799 20.3535C0.137891 20.3153 0.156982 20.3153 0.176074 20.2962ZM0.271533 20.2198C0.252441 20.2389 0.233349 20.2389 0.195166 20.258C0.233349 20.258 0.252441 20.2389 0.271533 20.2198ZM0.099707 20.3726C0.0806152 20.3917 0.0615234 20.4107 0.0615234 20.4298C0.0806152 20.4107 0.0806152 20.3917 0.099707 20.3726Z" fill="url(#paint1_linear_333_13800)"/>
<path d="M21.1381 49.832L20.5463 47.1591C20.5272 47.0446 20.3935 46.9682 20.279 46.9873L19.5153 47.1591C19.458 47.1782 19.4007 47.2164 19.3817 47.2546L19.1335 47.6364L19.2289 47.5028L17.8161 47.8273L17.5679 47.6746C17.5107 47.6364 17.4534 47.6364 17.3961 47.6364L16.6324 47.8082C16.5943 47.8082 16.5752 47.8273 16.5561 47.8464C16.4606 47.9037 16.3842 48.0946 16.4033 48.2092L16.537 48.7628L17.0143 50.8629C17.0334 50.9775 17.167 51.0538 17.2816 51.0348L20.9281 50.2138C21.0426 50.1947 21.1763 50.0611 21.1381 49.832Z" fill="url(#paint2_linear_333_13800)"/>
</g>
<path d="M24.9387 34.9204L25.7406 35.4931C25.1296 35.8177 24.4614 35.9513 23.755 35.8749C22.9341 35.7795 22.094 35.4358 21.2349 34.844C20.414 34.2521 19.803 33.6221 19.383 32.9157C18.9821 32.2093 18.8294 31.4838 18.9057 30.7393C19.0012 29.9947 19.2685 29.2883 19.7267 28.6583C20.2231 27.9519 20.8531 27.4173 21.6168 27.0545C22.3804 26.6918 23.1632 26.5391 23.946 26.6536C24.7478 26.7491 25.5115 27.0736 26.2561 27.5891C26.8861 28.0282 27.3634 28.5437 27.6688 29.1355C27.9934 29.7274 28.108 30.3383 28.0507 30.9684C27.9934 31.5984 27.7643 32.1902 27.4016 32.7248C26.9434 33.3548 26.3515 33.7939 25.5878 34.0421C24.6333 34.3476 23.7741 34.233 23.0105 33.6794C22.8004 33.5267 22.6668 33.393 22.6095 33.2403C22.5523 33.0875 22.5523 32.9348 22.6286 32.7821C22.1322 32.8584 21.6931 32.763 21.3113 32.4957C20.8913 32.2093 20.6431 31.8084 20.5858 31.3311C20.5094 30.8538 20.6431 30.3765 20.9867 29.8992C21.4067 29.3074 21.9413 28.8874 22.6095 28.6392C23.4305 28.3337 24.156 28.391 24.7669 28.8301C25.206 29.1355 25.416 29.5556 25.3969 30.0329L25.7788 29.6892L26.7715 30.3956L24.3087 32.6866C24.156 32.8393 24.0605 32.9348 24.0223 32.973C23.9841 33.0303 23.965 33.0875 23.965 33.1448C23.965 33.2021 24.0032 33.2403 24.0414 33.2594C24.156 33.3357 24.366 33.3739 24.6523 33.3739C25.0342 33.3548 25.4351 33.2594 25.8169 33.0494C26.1988 32.8393 26.5042 32.5721 26.7524 32.2284C27.1916 31.6175 27.3252 30.9493 27.1725 30.2047C27.0197 29.4792 26.5424 28.8301 25.7406 28.2573C25.0533 27.78 24.3851 27.5127 23.7168 27.4555C23.0486 27.3982 22.4186 27.5318 21.8268 27.8755C21.2349 28.2 20.7385 28.6392 20.3567 29.1928C19.9749 29.7274 19.7839 30.3001 19.7458 30.9111C19.7076 31.5411 19.8603 32.1139 20.204 32.6484C20.5476 33.183 21.0249 33.6794 21.6549 34.1185C22.2468 34.5385 22.8195 34.8249 23.3732 34.9585C23.9269 35.0731 24.4423 35.0731 24.9387 34.9204ZM21.9795 30.5102C21.7504 30.8347 21.6549 31.102 21.674 31.3502C21.6931 31.5984 21.8077 31.7702 21.9986 31.9039C22.1322 31.9993 22.3041 32.0566 22.4759 32.0757C22.6095 32.0948 22.7623 32.0757 22.915 32.0375C23.1632 31.9802 23.4305 31.8275 23.7359 31.6175C24.0414 31.3884 24.2705 31.1593 24.4614 30.892C24.6523 30.6056 24.7478 30.3383 24.7287 30.1092C24.7096 29.861 24.5951 29.6701 24.3851 29.5365C24.1751 29.3837 23.9078 29.3265 23.6214 29.3646C23.3159 29.4028 23.0105 29.5365 22.705 29.7847C22.3804 30.0329 22.1322 30.2811 21.9795 30.5102Z" fill="white"/>
<path d="M82.6526 41.3539L83.0726 40.4757C83.5117 41.0103 83.7408 41.6403 83.7981 42.3658C83.8553 43.1867 83.6644 44.084 83.2253 45.0195C82.8053 45.9359 82.2707 46.6614 81.6598 47.1769C81.0298 47.6924 80.3425 47.9788 79.5979 48.0169C78.8342 48.0551 78.1087 47.9215 77.4023 47.5778C76.6196 47.2151 75.9895 46.6805 75.4741 46.0123C74.9777 45.325 74.7104 44.5804 74.6722 43.7977C74.634 42.9958 74.8058 42.194 75.1877 41.3539C75.5122 40.6475 75.9323 40.0939 76.4668 39.6738C77.0014 39.2538 77.5741 39.0247 78.2042 38.9674C78.8342 38.9102 79.4451 39.0247 80.0561 39.3111C80.7625 39.6357 81.297 40.1511 81.6789 40.8575C82.1371 41.7357 82.1753 42.614 81.7743 43.4731C81.6598 43.7022 81.5452 43.8549 81.4116 43.9313C81.278 44.0077 81.1252 44.0268 80.9534 44.0077C81.1252 44.485 81.1061 44.9432 80.8961 45.3632C80.6861 45.8214 80.3425 46.1269 79.8843 46.2796C79.4261 46.4323 78.9297 46.3941 78.3951 46.1459C77.746 45.8405 77.2305 45.3823 76.8678 44.7713C76.4286 44.0268 76.3523 43.3013 76.6768 42.614C76.9059 42.1176 77.2687 41.8503 77.746 41.7739L77.326 41.4494L77.8414 40.3421L80.5334 42.3658C80.7052 42.4994 80.8197 42.5758 80.877 42.5949C80.9534 42.6331 81.0107 42.6331 81.0489 42.614C81.1061 42.5949 81.1252 42.5758 81.1634 42.5185C81.2207 42.3849 81.2207 42.1749 81.1634 41.8885C81.087 41.5067 80.9152 41.1439 80.6288 40.8003C80.3615 40.4566 80.037 40.2084 79.6552 40.0175C78.9678 39.6929 78.2805 39.6738 77.5932 39.9602C76.9059 40.2466 76.3523 40.8193 75.9323 41.7167C75.5886 42.4612 75.4359 43.1867 75.4931 43.8358C75.5504 44.5041 75.7986 45.0959 76.2377 45.6305C76.6768 46.1459 77.1923 46.566 77.7842 46.8333C78.376 47.1005 78.9678 47.2151 79.5979 47.1387C80.2088 47.0624 80.7625 46.8142 81.2398 46.3941C81.7171 45.955 82.0989 45.4014 82.4235 44.7141C82.7289 44.0459 82.9008 43.4349 82.9389 42.8813C82.9962 42.3467 82.9008 41.8312 82.6526 41.3539ZM78.8533 45.0577C79.197 45.2295 79.5024 45.2677 79.7315 45.2105C79.9606 45.1532 80.1324 45.0004 80.2279 44.7904C80.3043 44.6377 80.3234 44.4659 80.3234 44.294C80.3234 44.1604 80.2852 44.0268 80.2088 43.8549C80.1134 43.6258 79.9224 43.3776 79.6552 43.1295C79.3879 42.8622 79.1015 42.6712 78.8151 42.5376C78.5096 42.3849 78.2233 42.3467 77.9942 42.4231C77.7651 42.4994 77.5932 42.6331 77.4787 42.8622C77.3641 43.1104 77.3641 43.3586 77.4405 43.6449C77.536 43.9313 77.7269 44.2177 78.0133 44.4659C78.2996 44.7523 78.586 44.9432 78.8533 45.0577Z" fill="white"/>
<path d="M90.2125 26.6922L90.6325 26.8068C90.4225 27.0359 90.1743 27.1886 89.8689 27.265C89.5061 27.3604 89.1052 27.3414 88.6661 27.2268C88.227 27.1123 87.8833 26.9404 87.616 26.7113C87.3487 26.4822 87.1578 26.1958 87.0815 25.8713C87.0051 25.5467 87.0051 25.2222 87.1005 24.8785C87.196 24.5158 87.3678 24.1912 87.6351 23.9239C87.9024 23.6566 88.1888 23.4848 88.5324 23.4084C88.8761 23.3321 89.2388 23.3512 89.6207 23.4466C89.9452 23.5421 90.2316 23.6757 90.4416 23.8667C90.6707 24.0576 90.8044 24.3058 90.8807 24.573C90.9571 24.8403 90.9571 25.1267 90.8807 25.394C90.7853 25.7186 90.6134 26.0049 90.3271 26.2149C89.9834 26.4822 89.6016 26.5586 89.2006 26.4631C89.0861 26.4249 89.0097 26.3868 88.9715 26.3486C88.9334 26.2913 88.9143 26.234 88.9143 26.1577C88.7233 26.2722 88.5324 26.2913 88.3224 26.234C88.1124 26.1768 87.9406 26.0622 87.8451 25.8713C87.7497 25.6804 87.7306 25.4704 87.7879 25.2222C87.8642 24.9167 88.036 24.6685 88.2651 24.4585C88.5515 24.2103 88.857 24.1148 89.1815 24.2103C89.4107 24.2676 89.5634 24.4012 89.6207 24.6112L89.7352 24.4012L90.2507 24.5349L89.5825 25.8522C89.5443 25.9286 89.5252 25.9858 89.5061 26.024C89.5061 26.0622 89.5061 26.0813 89.5061 26.1004C89.5252 26.1195 89.5252 26.1386 89.5443 26.1386C89.6016 26.1577 89.697 26.1386 89.8116 26.0813C89.9643 26.024 90.117 25.9095 90.2507 25.7758C90.3843 25.6231 90.4607 25.4704 90.518 25.2985C90.5943 24.974 90.5562 24.6876 90.3843 24.4012C90.2125 24.1148 89.907 23.9239 89.5061 23.8094C89.1434 23.7139 88.8379 23.7139 88.5515 23.7903C88.2651 23.8667 88.036 24.0194 87.826 24.2485C87.6351 24.4776 87.5015 24.7258 87.4251 25.0122C87.3487 25.2794 87.3487 25.5658 87.4251 25.814C87.5015 26.0813 87.6542 26.2913 87.8833 26.4631C88.1124 26.635 88.3797 26.7686 88.7043 26.845C89.0097 26.9213 89.2961 26.9595 89.5443 26.9213C89.8116 26.9022 90.0216 26.8259 90.2125 26.6922ZM88.3033 25.3176C88.2651 25.4895 88.2651 25.6231 88.3033 25.7186C88.3415 25.814 88.4179 25.8713 88.5133 25.9095C88.5897 25.9286 88.6661 25.9286 88.7424 25.9095C88.7997 25.8904 88.857 25.8713 88.9143 25.8331C89.0097 25.7758 89.0861 25.6804 89.1815 25.5276C89.277 25.394 89.3343 25.2604 89.3725 25.1267C89.4107 24.974 89.4107 24.8594 89.3534 24.764C89.3152 24.6685 89.2388 24.6112 89.1243 24.573C89.0097 24.5349 88.8952 24.554 88.7806 24.6112C88.6661 24.6685 88.5515 24.7831 88.4752 24.9167C88.3988 25.0503 88.3415 25.2031 88.3033 25.3176Z" fill="white"/>
<path d="M35.9637 20.279L36.3265 20.5272C36.0592 20.6799 35.7537 20.7372 35.4483 20.699C35.0855 20.6608 34.7037 20.5081 34.3218 20.2408C33.9591 19.9735 33.6727 19.6871 33.5009 19.3817C33.3291 19.0762 33.2527 18.7517 33.2909 18.408C33.3291 18.0834 33.4436 17.7589 33.6536 17.4725C33.8827 17.167 34.15 16.9188 34.4937 16.747C34.8373 16.5752 35.181 16.5179 35.5246 16.5752C35.8683 16.6134 36.2119 16.7661 36.5556 16.9952C36.842 17.1861 37.052 17.4152 37.1856 17.6825C37.3193 17.9498 37.3765 18.2171 37.3574 18.5035C37.3383 18.7898 37.2429 19.038 37.0711 19.2862C36.8801 19.5726 36.5938 19.7635 36.2692 19.8781C35.8492 20.0117 35.4673 19.9544 35.1237 19.7253C35.0282 19.6681 34.971 19.5917 34.9519 19.5344C34.9328 19.4771 34.9328 19.4008 34.9519 19.3244C34.7228 19.3626 34.5319 19.3244 34.36 19.1908C34.1691 19.0571 34.0737 18.8853 34.0355 18.6753C33.9973 18.4653 34.0546 18.2553 34.2073 18.0453C34.3982 17.778 34.6273 17.6061 34.9328 17.4916C35.2955 17.358 35.6201 17.377 35.8874 17.5871C36.0783 17.7207 36.1737 17.9116 36.1737 18.1216L36.3456 17.9689L36.7847 18.2744L35.6964 19.2862C35.6201 19.3435 35.5819 19.4008 35.5628 19.4199C35.5437 19.439 35.5437 19.4771 35.5437 19.4962C35.5437 19.5153 35.5628 19.5344 35.5819 19.5535C35.6392 19.5917 35.7346 19.6108 35.8492 19.6108C36.021 19.6108 36.1928 19.5535 36.3647 19.458C36.5365 19.3626 36.6701 19.248 36.7847 19.0953C36.9756 18.828 37.0329 18.5225 36.9756 18.198C36.8992 17.8734 36.6892 17.5871 36.3456 17.3389C36.0401 17.1289 35.7537 17.0143 35.4483 16.9761C35.1428 16.957 34.8755 17.0143 34.6082 17.167C34.3409 17.3198 34.1309 17.5107 33.9591 17.7589C33.7873 17.988 33.7109 18.2553 33.6918 18.5226C33.6727 18.7898 33.7491 19.0571 33.9018 19.2862C34.0546 19.5344 34.2646 19.7444 34.5509 19.9353C34.8182 20.1263 35.0664 20.2408 35.3146 20.3172C35.5055 20.3554 35.7346 20.3554 35.9637 20.279ZM34.6464 18.3316C34.5509 18.4653 34.4937 18.5989 34.5128 18.6944C34.5319 18.8089 34.57 18.8853 34.6464 18.9426C34.7037 18.9808 34.78 19.0189 34.8564 19.0189C34.9137 19.0189 34.9901 19.0189 35.0473 18.9998C35.1619 18.9808 35.2764 18.9044 35.4101 18.8089C35.5437 18.7135 35.6583 18.5989 35.7346 18.4844C35.8301 18.3507 35.8683 18.2362 35.8492 18.1407C35.8301 18.0262 35.7919 17.9498 35.6964 17.8925C35.601 17.8162 35.4864 17.7971 35.3528 17.8162C35.2192 17.8352 35.0855 17.8925 34.9519 18.0071C34.8182 18.1216 34.7228 18.2171 34.6464 18.3316Z" fill="white"/>
<path opacity="0.48" d="M46.6102 72.2265C63.3436 72.2265 76.9088 70.1751 76.9088 67.6445C76.9088 65.1139 63.3436 63.0625 46.6102 63.0625C29.8767 63.0625 16.3115 65.1139 16.3115 67.6445C16.3115 70.1751 29.8767 72.2265 46.6102 72.2265Z" fill="url(#paint3_radial_333_13800)"/>
<path d="M69.1159 47.2925L23.6584 49.9463C23.3338 49.9654 23.0475 49.7172 23.0284 49.3735L21.3292 20.2395C21.2719 19.2276 22.0356 18.3494 23.0665 18.2921L66.0421 15.7911C67.054 15.7338 67.9322 16.4975 67.9895 17.5285L69.6886 46.6625C69.7077 47.0062 69.4595 47.2734 69.1159 47.2925Z" fill="url(#paint4_linear_333_13800)"/>
<path d="M67.8752 45.7266L24.7278 48.2467L23.0859 19.9527L66.2333 17.4326L67.8752 45.7266Z" fill="url(#paint5_linear_333_13800)"/>
<path d="M80.1125 56.9713L13.9404 60.8279C13.1386 60.8661 12.4513 60.2742 12.4131 59.4724V59.4151L81.4871 55.3867V55.444C81.5253 56.2268 80.9143 56.9141 80.1125 56.9713Z" fill="#939598"/>
<path d="M79.9037 55.8648L14.018 59.7022C12.8152 59.7786 12.147 59.5686 12.5097 59.2631L22.5138 50.4427C22.8766 50.1182 23.8121 49.8318 24.6139 49.7745L68.4104 47.2162C69.2123 47.178 70.1669 47.3499 70.5487 47.6362L81.3547 55.2348C81.7556 55.5211 81.0874 55.7884 79.9037 55.8648Z" fill="#D1D3D4"/>
<path d="M59.571 56.4373L34.2744 57.9074L35.7827 54.5282L57.7382 53.249L59.571 56.4373Z" fill="#BCBEC0"/>
<path d="M27.4768 50.8061L25.453 50.9206C25.3385 50.9206 25.2812 50.9015 25.3194 50.8442L26.0449 50.0997C26.0831 50.0615 26.2167 50.0233 26.3313 50.0042L28.2595 49.8896C28.3741 49.8896 28.4314 49.9087 28.3932 49.966L27.7441 50.7106C27.725 50.7679 27.5913 50.8061 27.4768 50.8061Z" fill="#939598"/>
<path d="M30.3407 50.6522L28.317 50.7667C28.2024 50.7667 28.126 50.7477 28.1642 50.7095L28.7943 49.9649C28.8324 49.9267 28.947 49.8885 29.0615 49.8694L30.9898 49.7549C31.1044 49.7549 31.1616 49.774 31.1425 49.8122L30.608 50.5567C30.5889 50.5949 30.4552 50.6331 30.3407 50.6522Z" fill="#939598"/>
<path d="M33.205 50.4803L31.1812 50.5949C31.0667 50.5949 30.9903 50.5758 31.0285 50.5376L31.544 49.793C31.5821 49.7548 31.6967 49.7167 31.8113 49.6976L33.7395 49.583C33.8541 49.583 33.9304 49.6021 33.8923 49.6403L33.4531 50.3658C33.434 50.423 33.3195 50.4803 33.205 50.4803Z" fill="#939598"/>
<path d="M36.0686 50.3089L34.0449 50.4234C33.9303 50.4234 33.8539 50.4043 33.873 50.3662L34.2931 49.6407C34.3122 49.6025 34.4267 49.5643 34.5413 49.5452L36.4695 49.4307C36.5841 49.4307 36.6604 49.4498 36.6413 49.4879L36.3168 50.2134C36.2977 50.2707 36.1831 50.3089 36.0686 50.3089Z" fill="#939598"/>
<path d="M38.9319 50.137L36.9081 50.2516C36.7936 50.2516 36.7172 50.2325 36.7363 50.1943L37.0609 49.4688C37.08 49.4306 37.1945 49.3924 37.3091 49.3733L39.2373 49.2588C39.3519 49.2588 39.4283 49.2779 39.4092 49.3161L39.1801 50.0416C39.161 50.0988 39.0464 50.137 38.9319 50.137Z" fill="#939598"/>
<path d="M41.8157 49.9847L39.792 50.0992C39.6774 50.0992 39.582 50.0801 39.6011 50.0419L39.8111 49.3165C39.8302 49.2783 39.9256 49.2401 40.0402 49.221L41.9685 49.1064C42.083 49.1064 42.1594 49.1255 42.1594 49.1637L42.0257 49.8701C42.0257 49.9274 41.9303 49.9656 41.8157 49.9847Z" fill="#939598"/>
<path d="M44.679 49.8123L42.6553 49.9268C42.5408 49.9268 42.4453 49.9077 42.4453 49.8695L42.5599 49.1631C42.5599 49.1249 42.6553 49.0868 42.7699 49.0677L44.6981 48.9531C44.8127 48.9531 44.9081 48.9722 44.9081 49.0104L44.8891 49.7168C44.8891 49.755 44.7936 49.7932 44.679 49.8123Z" fill="#939598"/>
<path d="M47.5238 49.6404L45.5 49.7549C45.3855 49.7549 45.29 49.7358 45.29 49.6977L45.3091 48.9913C45.3091 48.9531 45.4046 48.9149 45.5191 48.8958L47.4474 48.7812C47.562 48.7812 47.6574 48.8003 47.6574 48.8385L47.7338 49.5449C47.7529 49.6022 47.6574 49.6404 47.5238 49.6404Z" fill="#939598"/>
<path d="M50.3874 49.4695L48.3636 49.584C48.2491 49.584 48.1536 49.5649 48.1345 49.5268L48.0391 48.8204C48.0391 48.7822 48.1154 48.744 48.23 48.7249L50.1582 48.6104C50.2728 48.6104 50.3683 48.6294 50.3874 48.6676L50.5592 49.3549C50.5974 49.4313 50.521 49.4695 50.3874 49.4695Z" fill="#939598"/>
<path d="M53.2509 49.3166L51.2272 49.4312C51.1126 49.4312 50.998 49.4121 50.998 49.3739L50.8071 48.6866C50.788 48.6484 50.8835 48.6102 50.998 48.5911L52.9263 48.4766C53.0409 48.4766 53.1363 48.4957 53.1554 48.5338L53.4418 49.2211C53.4609 49.2593 53.3845 49.2975 53.2509 49.3166Z" fill="#939598"/>
<path d="M56.2678 49.1256L54.2441 49.2402C54.1295 49.2402 54.015 49.2211 53.9959 49.1829L53.6904 48.4956C53.6713 48.4574 53.7477 48.4192 53.8622 48.4192L55.7905 48.3047C55.9051 48.3047 56.0196 48.3238 56.0387 48.362L56.4205 49.0493C56.4587 49.0875 56.3824 49.1256 56.2678 49.1256Z" fill="#939598"/>
<path d="M59.1314 48.9733L57.1077 49.0878C56.9931 49.0878 56.8786 49.0687 56.8404 49.0306L56.4394 48.3433C56.4204 48.3051 56.4967 48.2669 56.6113 48.2669L58.5395 48.1523C58.6541 48.1523 58.7686 48.1714 58.8068 48.2096L59.3032 48.8969C59.3223 48.916 59.2459 48.9542 59.1314 48.9733Z" fill="#939598"/>
<path d="M61.9951 48.8009L59.9714 48.9154C59.8569 48.9154 59.7232 48.8963 59.7041 48.8582L59.1886 48.1899C59.1505 48.1518 59.2268 48.1136 59.3414 48.1136L61.2696 47.999C61.3842 47.999 61.4987 48.0181 61.5369 48.0563L62.1288 48.7245C62.167 48.7627 62.1097 48.8009 61.9951 48.8009Z" fill="#939598"/>
<path d="M64.8596 48.629L62.8358 48.7436C62.7213 48.7436 62.5877 48.7245 62.5495 48.6863L61.9385 48.0181C61.9004 47.9799 61.9576 47.9417 62.0722 47.9417L64.0004 47.8271C64.115 47.8271 64.2486 47.8462 64.2868 47.8844L64.9932 48.5526C65.0314 48.5908 64.9741 48.629 64.8596 48.629Z" fill="#939598"/>
<path d="M67.7226 48.4571L65.6989 48.5717C65.5843 48.5717 65.4507 48.5526 65.4125 48.5144L64.7061 47.8462C64.6679 47.808 64.7252 47.7698 64.8398 47.7698L66.768 47.6553C66.8826 47.6553 67.0162 47.6744 67.0544 47.7126L67.8563 48.3808C67.8944 48.4189 67.8372 48.4571 67.7226 48.4571Z" fill="#939598"/>
<path d="M27.8209 51.7792L24.4417 51.9701C24.308 51.9701 24.2508 51.951 24.289 51.9128L25.0144 51.1682C25.0526 51.13 25.1863 51.0918 25.3008 51.0728L28.5273 50.8818C28.6419 50.8818 28.7182 50.9009 28.6801 50.9391L28.1264 51.6837C28.0882 51.7219 27.9546 51.7601 27.8209 51.7792Z" fill="#939598"/>
<path d="M30.7995 51.6073L28.6803 51.7218C28.5466 51.7218 28.4894 51.7027 28.5085 51.6645L29.1003 50.92C29.1385 50.8818 29.253 50.8436 29.3867 50.8245L31.4295 50.71C31.5441 50.71 31.6204 50.7291 31.6013 50.7672L31.1049 51.5118C31.0477 51.55 30.9331 51.5882 30.7995 51.6073Z" fill="#939598"/>
<path d="M33.8165 51.4168L31.6973 51.5314C31.5636 51.5314 31.4873 51.5123 31.5255 51.4741L32.0027 50.7295C32.0218 50.6914 32.1555 50.6532 32.27 50.6341L34.3129 50.5195C34.4274 50.5195 34.5038 50.5386 34.4847 50.5768L34.0838 51.3023C34.0647 51.3787 33.931 51.4168 33.8165 51.4168Z" fill="#939598"/>
<path d="M36.813 51.2444L34.6938 51.359C34.5602 51.359 34.4838 51.3399 34.5029 51.3017L34.8847 50.5762C34.9038 50.538 35.0184 50.4999 35.1329 50.4808L37.1758 50.3662C37.2903 50.3662 37.3858 50.3853 37.3667 50.4235L37.0803 51.149C37.0612 51.2062 36.9467 51.2444 36.813 51.2444Z" fill="#939598"/>
<path d="M39.8296 51.0726L37.7104 51.1871C37.5768 51.1871 37.5004 51.168 37.5195 51.1298L37.8059 50.4043C37.825 50.3662 37.9395 50.328 38.0541 50.3089L40.0969 50.1943C40.2114 50.1943 40.3069 50.2134 40.2878 50.2516L40.0969 50.9771C40.0778 51.0344 39.9633 51.0726 39.8296 51.0726Z" fill="#939598"/>
<path d="M42.8458 50.9007L40.7266 51.0152C40.593 51.0152 40.5166 50.9961 40.5166 50.958L40.6884 50.2325C40.7075 50.1943 40.803 50.1561 40.9175 50.137L42.9603 50.0225C43.0749 50.0225 43.1704 50.0416 43.1704 50.0797L43.0749 50.7861C43.0749 50.8434 42.9604 50.8816 42.8458 50.9007Z" fill="#939598"/>
<path d="M45.8433 50.7292L43.7242 50.8438C43.5905 50.8438 43.4951 50.8247 43.5142 50.7865L43.5905 50.0801C43.5905 50.0419 43.686 50.0038 43.8196 49.9847L45.8624 49.8701C45.977 49.8701 46.0724 49.8892 46.0724 49.9274L46.0915 50.6338C46.0724 50.672 45.977 50.7102 45.8433 50.7292Z" fill="#939598"/>
<path d="M48.8611 50.5378L46.7419 50.6524C46.6083 50.6524 46.5128 50.6333 46.5128 50.5951L46.4746 49.8887C46.4746 49.8505 46.5701 49.8124 46.6846 49.7933L48.7274 49.6787C48.842 49.6787 48.9565 49.6978 48.9565 49.736L49.0711 50.4424C49.0711 50.4997 48.9756 50.5378 48.8611 50.5378Z" fill="#939598"/>
<path d="M51.8584 50.366L49.7393 50.4805C49.6056 50.4805 49.5102 50.4614 49.4911 50.4232L49.3574 49.7168C49.3574 49.6787 49.4338 49.6405 49.5674 49.6214L51.6102 49.5068C51.7248 49.5068 51.8393 49.5259 51.8584 49.5641L52.0875 50.2514C52.0685 50.3278 51.9921 50.366 51.8584 50.366Z" fill="#939598"/>
<path d="M55.0077 50.1945L52.8885 50.3091C52.7548 50.3091 52.6594 50.29 52.6403 50.2518L52.3921 49.5645C52.373 49.5263 52.4685 49.4881 52.583 49.469L54.6258 49.3545C54.7404 49.3545 54.8549 49.3736 54.874 49.4118L55.1986 50.0991C55.2177 50.1373 55.1413 50.1754 55.0077 50.1945Z" fill="#939598"/>
<path d="M58.0241 50.0036L55.9049 50.1181C55.7712 50.1181 55.6567 50.099 55.6376 50.0608L55.2939 49.3735C55.2748 49.3354 55.3512 49.2972 55.4658 49.2972L57.5086 49.1826C57.6231 49.1826 57.7377 49.2017 57.7759 49.2399L58.215 49.9272C58.215 49.9654 58.1386 50.0036 58.0241 50.0036Z" fill="#939598"/>
<path d="M61.0219 49.8317L58.9027 49.9462C58.769 49.9462 58.6545 49.9271 58.6354 49.889L58.1963 49.2017C58.1772 49.1635 58.2536 49.1253 58.3681 49.1253L60.3918 49.0107C60.5064 49.0107 60.64 49.0298 60.6591 49.068L61.1937 49.7362C61.2319 49.7935 61.1555 49.8317 61.0219 49.8317Z" fill="#939598"/>
<path d="M64.0385 49.6602L61.9193 49.7748C61.7857 49.7748 61.6711 49.7557 61.6329 49.7175L61.0793 49.0493C61.0411 49.0111 61.1174 48.9729 61.232 48.9729L63.2748 48.8584C63.3894 48.8584 63.523 48.8775 63.5612 48.9157L64.1912 49.5839C64.2294 49.6221 64.153 49.6602 64.0385 49.6602Z" fill="#939598"/>
<path d="M68.8106 49.3736L64.9159 49.6027C64.7822 49.6027 64.6677 49.5836 64.6295 49.5454L63.9804 48.8772C63.9422 48.839 63.9995 48.8008 64.1331 48.8008L67.8751 48.5908C67.9896 48.5908 68.1233 48.6099 68.1806 48.6481L68.9824 49.3163C69.0015 49.3354 68.9442 49.3736 68.8106 49.3736Z" fill="#939598"/>
<path d="M25.2631 54.8909L21.4066 55.12C21.2729 55.12 21.1775 55.1009 21.2347 55.0627L21.9602 54.3182C21.9984 54.28 22.1511 54.2227 22.2848 54.2227L26.0077 54.0127C26.1413 54.0127 26.2368 54.0318 26.1986 54.07L25.6067 54.8145C25.5495 54.8527 25.4158 54.8909 25.2631 54.8909Z" fill="#939598"/>
<path d="M28.6797 54.7L26.2551 54.8337C26.1214 54.8337 26.026 54.8146 26.0641 54.7764L26.656 54.0318C26.6942 53.9936 26.8278 53.9555 26.9615 53.9364L29.3097 53.8027C29.4434 53.8027 29.5388 53.8218 29.5007 53.86L29.0043 54.6046C28.9661 54.6428 28.8134 54.7 28.6797 54.7Z" fill="#939598"/>
<path d="M32.1166 54.4901L29.6919 54.6237C29.5583 54.6237 29.4628 54.6046 29.4819 54.5665L29.9592 53.8219C29.9783 53.7837 30.131 53.7455 30.2647 53.7264L32.613 53.5928C32.7466 53.5928 32.8421 53.6119 32.823 53.65L32.4221 54.3755C32.3839 54.4519 32.2502 54.4901 32.1166 54.4901Z" fill="#939598"/>
<path d="M35.5532 54.2991L33.1286 54.4328C32.9949 54.4328 32.8804 54.4137 32.9186 54.3755L33.3004 53.65C33.3195 53.6118 33.4531 53.5736 33.5868 53.5545L35.9351 53.4209C36.0687 53.4209 36.1642 53.44 36.1451 53.4782L35.8587 54.2037C35.8205 54.2418 35.706 54.2991 35.5532 54.2991Z" fill="#939598"/>
<path d="M54.7594 53.173L36.6413 54.2231C36.5077 54.2231 36.3932 54.204 36.4122 54.1658L36.6795 53.4403C36.6986 53.4022 36.8132 53.364 36.9659 53.3449L54.4349 52.333C54.5685 52.333 54.7022 52.3521 54.7212 52.3903L55.0076 53.0776C55.0076 53.1349 54.8931 53.173 54.7594 53.173Z" fill="#939598"/>
<path d="M58.1967 52.9816L55.772 53.1153C55.6384 53.1153 55.5047 53.0962 55.4856 53.058L55.1802 52.3707C55.1611 52.3325 55.2565 52.2943 55.3902 52.2752L57.7385 52.1416C57.8721 52.1416 58.0057 52.1607 58.0248 52.1989L58.4067 52.8862C58.4449 52.9244 58.3494 52.9625 58.1967 52.9816Z" fill="#939598"/>
<path d="M61.6511 52.7717L59.2264 52.9053C59.0928 52.9053 58.94 52.8862 58.9209 52.848L58.52 52.1607C58.5009 52.1226 58.5964 52.0844 58.73 52.0653L61.0783 51.9316C61.2119 51.9316 61.3456 51.9507 61.3838 51.9889L61.8802 52.6762C61.8802 52.7335 61.7847 52.7717 61.6511 52.7717Z" fill="#939598"/>
<path d="M65.0885 52.5817L62.6639 52.7153C62.5302 52.7153 62.3775 52.6962 62.3584 52.6581L61.862 51.9898C61.8238 51.9517 61.9193 51.9135 62.0529 51.8944L64.4012 51.7607C64.5348 51.7607 64.6876 51.7798 64.7067 51.818L65.2985 52.4862C65.3176 52.5244 65.2221 52.5626 65.0885 52.5817Z" fill="#939598"/>
<path d="M68.5252 52.3708L66.1005 52.5044C65.9669 52.5044 65.8141 52.4853 65.7759 52.4471L65.165 51.7789C65.1268 51.7407 65.2032 51.7025 65.3559 51.6834L67.7042 51.5498C67.8378 51.5498 67.9906 51.5689 68.0288 51.6071L68.7161 52.2753C68.7543 52.3326 68.6588 52.3708 68.5252 52.3708Z" fill="#939598"/>
<path d="M71.9606 52.1798L69.5359 52.3134C69.4023 52.3134 69.2495 52.2943 69.2113 52.2562L68.5049 51.5879C68.4668 51.5498 68.5431 51.5116 68.6768 51.5116L71.0251 51.3779C71.1587 51.3779 71.3114 51.397 71.3496 51.4352L72.1515 52.1034C72.1897 52.1225 72.1133 52.1607 71.9606 52.1798Z" fill="#939598"/>
<path d="M28.7568 52.6961L23.4493 53.0016C23.3157 53.0016 23.2393 52.9825 23.2966 52.9443L24.0221 52.1998C24.0603 52.1616 24.1939 52.1234 24.3275 52.1043L29.425 51.7988C29.5587 51.7988 29.6351 51.8179 29.5969 51.8561L29.0623 52.6007C29.0241 52.658 28.8905 52.6961 28.7568 52.6961Z" fill="#939598"/>
<path d="M31.9256 52.5233L29.711 52.6569C29.5773 52.6569 29.5009 52.6378 29.5391 52.5997L30.0737 51.8551C30.1119 51.8169 30.2264 51.7787 30.3601 51.7596L32.4984 51.626C32.632 51.626 32.7084 51.6451 32.6702 51.6832L32.2311 52.4087C32.1929 52.466 32.0592 52.5042 31.9256 52.5233Z" fill="#939598"/>
<path d="M35.0755 52.3323L32.8608 52.466C32.7272 52.466 32.6508 52.4469 32.6699 52.4087L33.0899 51.6832C33.109 51.645 33.2426 51.6068 33.3572 51.5877L35.4955 51.4541C35.6291 51.4541 35.7055 51.4732 35.6864 51.5114L35.3427 52.2369C35.3237 52.275 35.2091 52.3323 35.0755 52.3323Z" fill="#939598"/>
<path d="M38.2454 52.1419L36.0308 52.2755C35.8972 52.2755 35.8017 52.2564 35.8208 52.2183L36.1454 51.4928C36.1644 51.4546 36.279 51.4164 36.4126 51.3973L38.5509 51.2637C38.6846 51.2637 38.7609 51.2828 38.7609 51.321L38.5318 52.0464C38.4936 52.1037 38.3791 52.1419 38.2454 52.1419Z" fill="#939598"/>
<path d="M41.3949 51.97L39.1802 52.1037C39.0466 52.1037 38.9511 52.0846 38.9702 52.0464L39.1802 51.3209C39.1993 51.2827 39.3139 51.2445 39.4284 51.2254L41.5667 51.0918C41.7003 51.0918 41.7958 51.1109 41.7767 51.1491L41.6431 51.8555C41.624 51.9127 41.5285 51.9509 41.3949 51.97Z" fill="#939598"/>
<path d="M44.5453 51.7791L42.3307 51.9127C42.197 51.9127 42.1016 51.8936 42.1016 51.8554L42.2161 51.149C42.2161 51.1108 42.3307 51.0727 42.4643 51.0536L44.6026 50.9199C44.7362 50.9199 44.8317 50.939 44.8317 50.9772L44.8126 51.6836C44.7744 51.7409 44.679 51.7791 44.5453 51.7791Z" fill="#939598"/>
<path d="M47.6957 51.5876L45.4811 51.7213C45.3474 51.7213 45.252 51.7022 45.252 51.664L45.271 50.9576C45.271 50.9194 45.3665 50.8813 45.5001 50.8622L47.6384 50.7285C47.7721 50.7285 47.8675 50.7476 47.8675 50.7858L47.9439 51.4922C47.9248 51.5495 47.8103 51.5876 47.6957 51.5876Z" fill="#939598"/>
<path d="M50.8454 51.4167L48.6308 51.5504C48.4971 51.5504 48.3826 51.5313 48.3826 51.4931L48.2871 50.7867C48.2871 50.7485 48.3826 50.7103 48.4971 50.6913L50.6354 50.5576C50.769 50.5576 50.8645 50.5767 50.8836 50.6149L51.0554 51.3022C51.0554 51.3595 50.96 51.3977 50.8454 51.4167Z" fill="#939598"/>
<path d="M53.9765 51.2258L51.7619 51.3594C51.6282 51.3594 51.5137 51.3403 51.5137 51.3021L51.3227 50.6148C51.3037 50.5767 51.3991 50.5385 51.5328 50.5194L53.671 50.3857C53.8047 50.3857 53.9192 50.4048 53.9192 50.443L54.2056 51.1303C54.2056 51.1876 54.1101 51.2258 53.9765 51.2258Z" fill="#939598"/>
<path d="M57.1277 51.0539L54.9131 51.1875C54.7794 51.1875 54.6649 51.1685 54.6458 51.1303L54.3403 50.443C54.3212 50.4048 54.4167 50.3666 54.5313 50.3475L56.6695 50.2139C56.8032 50.2139 56.9177 50.233 56.9368 50.2711L57.3187 50.9585C57.3568 50.9966 57.2614 51.0348 57.1277 51.0539Z" fill="#939598"/>
<path d="M60.2769 50.8625L58.0623 50.9961C57.9286 50.9961 57.8141 50.9771 57.7759 50.9389L57.375 50.2516C57.3559 50.2134 57.4322 50.1752 57.5659 50.1561L59.7042 50.0225C59.8378 50.0225 59.9524 50.0416 59.9905 50.0797L60.4869 50.767C60.506 50.8052 60.4106 50.8434 60.2769 50.8625Z" fill="#939598"/>
<path d="M63.4269 50.672L61.2122 50.8056C61.0786 50.8056 60.9449 50.7865 60.9258 50.7483L60.4294 50.0801C60.3913 50.0419 60.4867 50.0038 60.6013 50.0038L62.7395 49.8701C62.8732 49.8701 62.9877 49.8892 63.0259 49.9274L63.6178 50.5956C63.6369 50.6338 63.5605 50.672 63.4269 50.672Z" fill="#939598"/>
<path d="M66.5774 50.4991L64.3628 50.6328C64.2291 50.6328 64.0955 50.6137 64.0573 50.5755L63.4464 49.9073C63.4082 49.8691 63.4845 49.8309 63.6182 49.8309L65.7565 49.6973C65.8901 49.6973 66.0237 49.7164 66.0619 49.7545L66.7492 50.4228C66.7874 50.4418 66.711 50.48 66.5774 50.4991Z" fill="#939598"/>
<path d="M69.7469 50.3087L67.5323 50.4423C67.3986 50.4423 67.265 50.4232 67.2268 50.3851L66.5204 49.7168C66.4822 49.6787 66.5395 49.6405 66.6731 49.6405L68.8114 49.5068C68.9451 49.5068 69.0787 49.5259 69.1169 49.5641L69.9187 50.2323C69.9378 50.2705 69.8806 50.3087 69.7469 50.3087Z" fill="#939598"/>
<path d="M29.8829 53.6312L22.418 54.0703C22.2843 54.0703 22.208 54.0512 22.2462 54.013L22.9716 53.2684C23.0098 53.2302 23.1626 53.1729 23.2962 53.1729L30.4747 52.7529C30.6084 52.7529 30.6847 52.772 30.6656 52.8102L30.1883 53.5548C30.1692 53.593 30.0356 53.6312 29.8829 53.6312Z" fill="#939598"/>
<path d="M33.1858 53.4397L30.8566 53.5734C30.723 53.5734 30.6275 53.5543 30.6657 53.5161L31.1239 52.7906C31.143 52.7524 31.2766 52.7143 31.4103 52.6952L33.644 52.5615C33.7777 52.5615 33.8731 52.5806 33.8349 52.6188L33.4531 53.3443C33.4531 53.4016 33.3195 53.4397 33.1858 53.4397Z" fill="#939598"/>
<path d="M36.4889 53.2493L34.1597 53.383C34.0261 53.383 33.9306 53.3639 33.9497 53.3257L34.3124 52.6002C34.3315 52.562 34.4652 52.5238 34.5797 52.5047L36.8135 52.3711C36.9471 52.3711 37.0426 52.3902 37.0235 52.4284L36.7562 53.1539C36.7562 53.192 36.6225 53.2493 36.4889 53.2493Z" fill="#939598"/>
<path d="M39.7916 53.0579L37.4624 53.1915C37.3288 53.1915 37.2333 53.1725 37.2524 53.1343L37.5197 52.4088C37.5388 52.3706 37.6534 52.3324 37.787 52.3133L40.0207 52.1797C40.1544 52.1797 40.2498 52.1988 40.2307 52.237L40.0589 52.9625C40.0398 53.0006 39.9253 53.0579 39.7916 53.0579Z" fill="#939598"/>
<path d="M43.075 52.8675L40.7458 53.0011C40.6122 53.0011 40.4976 52.982 40.5167 52.9438L40.6695 52.2184C40.6695 52.1802 40.784 52.142 40.9177 52.1229L43.1514 51.9893C43.285 51.9893 43.3805 52.0083 43.3805 52.0465L43.3041 52.7529C43.3232 52.8102 43.2087 52.8484 43.075 52.8675Z" fill="#939598"/>
<path d="M46.3782 52.6765L44.049 52.8102C43.9153 52.8102 43.8008 52.7911 43.8008 52.7529L43.8581 52.0465C43.8581 52.0083 43.9726 51.9701 44.1062 51.951L46.34 51.8174C46.4736 51.8174 46.5882 51.8365 46.5882 51.8747L46.6264 52.5811C46.6073 52.6192 46.5118 52.6574 46.3782 52.6765Z" fill="#939598"/>
<path d="M49.6624 52.4851L47.3333 52.6187C47.1996 52.6187 47.0851 52.5997 47.0851 52.5615L47.0469 51.8551C47.0469 51.8169 47.1423 51.7787 47.276 51.7596L49.5097 51.626C49.6434 51.626 49.7579 51.6451 49.7579 51.6832L49.8915 52.3896C49.9106 52.4278 49.7961 52.466 49.6624 52.4851Z" fill="#939598"/>
<path d="M52.965 52.2937L50.6358 52.4273C50.5022 52.4273 50.3876 52.4082 50.3686 52.3701L50.2158 51.6637C50.2158 51.6255 50.3113 51.5873 50.4449 51.5682L52.6787 51.4346C52.8123 51.4346 52.9268 51.4537 52.9459 51.4918L53.175 52.1791C53.1941 52.2364 53.0987 52.2746 52.965 52.2937Z" fill="#939598"/>
<path d="M56.2485 52.1037L53.9193 52.2374C53.7856 52.2374 53.652 52.2183 53.652 52.1801L53.4038 51.4928C53.3847 51.4546 53.4802 51.4164 53.6138 51.3973L55.8475 51.2637C55.9812 51.2637 56.0957 51.2828 56.1148 51.321L56.4585 52.0083C56.4776 52.0464 56.3821 52.0846 56.2485 52.1037Z" fill="#939598"/>
<path d="M59.5511 51.9123L57.2219 52.0459C57.0882 52.0459 56.9546 52.0269 56.9355 51.9887L56.5728 51.3014C56.5537 51.2632 56.6491 51.225 56.7637 51.2059L58.9974 51.0723C59.1311 51.0723 59.2647 51.0914 59.2838 51.1295L59.7229 51.8168C59.7802 51.855 59.6847 51.8932 59.5511 51.9123Z" fill="#939598"/>
<path d="M62.835 51.7023L60.5058 51.836C60.3722 51.836 60.2385 51.8169 60.2004 51.7787L59.7422 51.0914C59.7231 51.0532 59.7994 51.015 59.9331 50.9959L62.1668 50.8623C62.3005 50.8623 62.4341 50.8814 62.4723 50.9196L63.0259 51.5878C63.0641 51.6642 62.9878 51.7023 62.835 51.7023Z" fill="#939598"/>
<path d="M66.1376 51.5118L63.8084 51.6455C63.6748 51.6455 63.5411 51.6264 63.5029 51.5882L62.9493 50.92C62.9111 50.8818 62.9875 50.8436 63.1211 50.8436L65.3548 50.71C65.4885 50.71 65.6221 50.7291 65.6603 50.7672L66.3094 51.4355C66.3476 51.4736 66.2713 51.5118 66.1376 51.5118Z" fill="#939598"/>
<path d="M70.854 51.2442L67.112 51.4542C66.9783 51.4542 66.8256 51.4352 66.7874 51.397L66.1192 50.7288C66.081 50.6906 66.1574 50.6524 66.291 50.6524L69.8803 50.4424C70.0139 50.4424 70.1476 50.4615 70.2048 50.4997L71.0067 51.1679C71.064 51.2061 70.9876 51.2442 70.854 51.2442Z" fill="#939598"/>
<path d="M81.3923 55.2725C81.2205 55.4443 80.6668 55.5779 79.865 55.6352L13.9984 59.4727C13.1965 59.5108 12.6429 59.4536 12.452 59.3008C12.2038 59.5872 12.872 59.7781 14.0175 59.7018L79.9032 55.8643C81.0296 55.7879 81.6787 55.5397 81.3923 55.2725Z" fill="#F1F2F2"/>
<path d="M51.1989 27.8954C53.043 27.7865 54.6679 29.1886 54.7768 31.0327C54.8857 32.8769 53.4371 34.4604 51.5929 34.5693L39.9135 35.2589C38.0694 35.3678 36.4445 33.9657 36.3356 32.1216C36.2397 30.497 37.3448 29.0658 38.9074 28.6652C38.9022 28.5773 38.8996 28.5334 38.8944 28.4456C38.8114 27.0406 39.9269 25.7851 41.332 25.7021C41.6393 25.684 41.9493 25.7097 42.2179 25.782C42.8297 24.2037 44.3043 23.0592 46.1045 22.9529C48.5633 22.8078 50.6558 24.6669 50.7984 27.0819C50.8139 27.3453 50.7856 27.6114 50.7546 27.8335L51.1937 27.8076L51.1989 27.8954Z" fill="white"/>
<path d="M50.6279 34.0419L48.2932 34.1858L48.5642 38.581L44.5769 38.8268L44.306 34.4316L41.9713 34.5756L46.0094 29.6111L50.6279 34.0419Z" fill="#4DEA00"/>
<path d="M48.5986 39.1419L44.6113 39.3877L44.6852 40.5854L48.6724 40.3396L48.5986 39.1419Z" fill="#4DEA00"/>
<path d="M48.707 40.8997L44.7197 41.1455L44.7936 42.3432L48.7808 42.0974L48.707 40.8997Z" fill="#4DEA00"/>
<defs>
<linearGradient id="paint0_linear_333_13800" x1="72.53" y1="17.869" x2="72.8338" y2="17.869" gradientUnits="userSpaceOnUse">
<stop stop-color="#FF6DBE"/>
<stop offset="0.2606" stop-color="#E966A7"/>
<stop offset="0.4297" stop-color="#E0639E"/>
<stop offset="0.485" stop-color="#E0639E" stop-opacity="0.903"/>
<stop offset="1" stop-color="#E0639E" stop-opacity="0"/>
</linearGradient>
<linearGradient id="paint1_linear_333_13800" x1="0.0615234" y1="20.3054" x2="0.36535" y2="20.3054" gradientUnits="userSpaceOnUse">
<stop stop-color="#E0639E" stop-opacity="0"/>
<stop offset="0.515" stop-color="#E0639E" stop-opacity="0.903"/>
<stop offset="0.5703" stop-color="#E0639E"/>
<stop offset="0.7394" stop-color="#E966A7"/>
<stop offset="1" stop-color="#FF6DBE"/>
</linearGradient>
<linearGradient id="paint2_linear_333_13800" x1="16.4035" y1="49.0132" x2="21.1507" y2="49.0132" gradientUnits="userSpaceOnUse">
<stop stop-color="#E0639E" stop-opacity="0"/>
<stop offset="0.515" stop-color="#E0639E" stop-opacity="0.903"/>
<stop offset="0.5703" stop-color="#E0639E"/>
<stop offset="0.7394" stop-color="#E966A7"/>
<stop offset="1" stop-color="#FF6DBE"/>
</linearGradient>
<radialGradient id="paint3_radial_333_13800" cx="0" cy="0" r="1" gradientUnits="userSpaceOnUse" gradientTransform="translate(46.6008 67.6322) scale(27.8836 4.08745)">
<stop stop-color="#321134"/>
<stop offset="1" stop-color="#321134" stop-opacity="0"/>
</radialGradient>
<linearGradient id="paint4_linear_333_13800" x1="20.4367" y1="50.9348" x2="77.5016" y2="10.3494" gradientUnits="userSpaceOnUse">
<stop offset="0.2296" stop-color="#000F1C"/>
<stop offset="1" stop-color="#0057A7"/>
</linearGradient>
<linearGradient id="paint5_linear_333_13800" x1="5.03984" y1="63.9297" x2="67.2065" y2="16.1304" gradientUnits="userSpaceOnUse">
<stop stop-color="#013B71"/>
<stop offset="0.6745" stop-color="#1890FF"/>
<stop offset="1" stop-color="#68B6FF"/>
</linearGradient>
</defs>
</svg>
