<svg width="51" height="50" viewBox="0 0 51 50" fill="none" xmlns="http://www.w3.org/2000/svg">
<g clip-path="url(#clip0_333_13400)">
<path fill-rule="evenodd" clip-rule="evenodd" d="M33.2148 47.4609H16.7109C16.418 47.4609 16.0273 47.168 16.0273 46.7773V14.1602C16.0273 13.7695 16.418 13.4766 16.7109 13.4766H33.2148C33.6055 13.4766 33.8984 13.7695 33.8984 14.1602V46.7773C33.8984 47.168 33.6055 47.4609 33.2148 47.4609ZM17.3945 46.0938H32.5312V14.8438H17.3945V46.0938Z" fill="#646464"/>
<path fill-rule="evenodd" clip-rule="evenodd" d="M35.9494 14.8438C35.9494 14.8438 35.9494 14.8438 35.8518 14.8438H14.0744C13.7815 14.8438 13.4885 14.6484 13.3909 14.3555C13.2932 14.1602 13.3909 13.8672 13.5862 13.6719L24.5237 2.73438C24.6213 2.63672 24.8166 2.53906 25.0119 2.53906C25.1096 2.53906 25.3049 2.63672 25.5002 2.73438L36.3401 13.5742C36.5354 13.7695 36.633 13.9648 36.633 14.1602C36.633 14.5508 36.2424 14.8438 35.9494 14.8438ZM15.7346 13.4766H34.2893L25.0119 4.19922L15.7346 13.4766Z" fill="#646464"/>
<path fill-rule="evenodd" clip-rule="evenodd" d="M48.7422 26.6602H33.2148C32.8242 26.6602 32.5312 26.3672 32.5312 25.9766V16.9922C32.5312 16.6016 32.8242 16.3086 33.2148 16.3086H46.6914C46.9844 16.3086 47.2773 16.5039 47.375 16.7969L49.4258 25.7812C49.4258 25.8789 49.4258 25.8789 49.4258 25.9766C49.4258 26.3672 49.1328 26.6602 48.7422 26.6602ZM33.8984 25.293H47.8633L46.1055 17.6758H33.8984V25.293ZM16.7109 26.6602H1.18359C0.988281 26.6602 0.792969 26.5625 0.695312 26.3672C0.5 26.2695 0.5 25.9766 0.5 25.7812L2.55078 16.7969C2.64844 16.5039 2.94141 16.3086 3.23438 16.3086H16.7109C17.1016 16.3086 17.3945 16.6016 17.3945 16.9922V25.9766C17.3945 26.3672 17.1016 26.6602 16.7109 26.6602ZM2.0625 25.293H16.0273V17.6758H3.82031L2.0625 25.293Z" fill="#646464"/>
<path fill-rule="evenodd" clip-rule="evenodd" d="M16.7109 47.4609H3.33203C2.94141 47.4609 2.64844 47.168 2.64844 46.7773V25.9766C2.64844 25.5859 2.94141 25.293 3.33203 25.293H16.7109C17.1016 25.293 17.3945 25.5859 17.3945 25.9766C17.3945 26.3672 17.1016 26.6602 16.7109 26.6602H4.01562V46.0938H16.7109C17.1016 46.0938 17.3945 46.3867 17.3945 46.7773C17.3945 47.168 17.1016 47.4609 16.7109 47.4609Z" fill="#646464"/>
<path fill-rule="evenodd" clip-rule="evenodd" d="M13.4883 42.5781H6.65234C6.26172 42.5781 5.96875 42.2852 5.96875 41.8945V30.8594C5.96875 30.4688 6.26172 30.1758 6.65234 30.1758H13.4883C13.8789 30.1758 14.1719 30.4688 14.1719 30.8594V41.8945C14.1719 42.2852 13.8789 42.5781 13.4883 42.5781ZM7.33594 41.2109H12.8047V31.543H7.33594V41.2109Z" fill="#646464"/>
<path fill-rule="evenodd" clip-rule="evenodd" d="M10.0703 42.5781C9.67969 42.5781 9.38672 42.2852 9.38672 41.8945V30.8594C9.38672 30.4688 9.67969 30.1758 10.0703 30.1758C10.4609 30.1758 10.7539 30.4688 10.7539 30.8594V41.8945C10.7539 42.2852 10.4609 42.5781 10.0703 42.5781Z" fill="#646464"/>
<path fill-rule="evenodd" clip-rule="evenodd" d="M46.5938 47.4609H33.2148C32.8242 47.4609 32.5312 47.168 32.5312 46.7773C32.5312 46.3867 32.8242 46.0938 33.2148 46.0938H45.9102V26.6602H33.2148C32.8242 26.6602 32.5312 26.3672 32.5312 25.9766C32.5312 25.5859 32.8242 25.293 33.2148 25.293H46.5938C46.9844 25.293 47.2773 25.5859 47.2773 25.9766V46.7773C47.2773 47.168 46.9844 47.4609 46.5938 47.4609Z" fill="#646464"/>
<path fill-rule="evenodd" clip-rule="evenodd" d="M43.3711 42.5781H36.4375C36.0469 42.5781 35.7539 42.2852 35.7539 41.8945V30.8594C35.7539 30.4688 36.0469 30.1758 36.4375 30.1758H43.3711C43.6641 30.1758 44.0547 30.4688 44.0547 30.8594V41.8945C44.0547 42.2852 43.6641 42.5781 43.3711 42.5781ZM37.1211 41.2109H42.6875V31.543H37.1211V41.2109Z" fill="#646464"/>
<path fill-rule="evenodd" clip-rule="evenodd" d="M39.8555 42.5781C39.5625 42.5781 39.1719 42.2852 39.1719 41.8945V30.8594C39.1719 30.4688 39.5625 30.1758 39.8555 30.1758C40.2461 30.1758 40.5391 30.4688 40.5391 30.8594V41.8945C40.5391 42.2852 40.2461 42.5781 39.8555 42.5781Z" fill="#646464"/>
<path fill-rule="evenodd" clip-rule="evenodd" d="M29.8945 47.4609H20.0312C19.6406 47.4609 19.3477 47.168 19.3477 46.7773V35.6445C19.3477 34.7656 20.1289 34.082 21.0078 34.082H29.0156C29.8945 34.082 30.5781 34.7656 30.5781 35.6445V46.7773C30.5781 47.168 30.2852 47.4609 29.8945 47.4609ZM20.7148 46.0938H29.2109V35.6445C29.2109 35.5469 29.1133 35.4492 29.0156 35.4492H21.0078C20.8125 35.4492 20.7148 35.5469 20.7148 35.6445V46.0938Z" fill="#646464"/>
<path fill-rule="evenodd" clip-rule="evenodd" d="M29.6992 25.8789H20.3242C19.9336 25.8789 19.6406 25.5859 19.6406 25.1953V18.2617C19.6406 17.8711 19.9336 17.5781 20.3242 17.5781H29.6992C29.9922 17.5781 30.3828 17.8711 30.3828 18.2617V25.1953C30.3828 25.5859 29.9922 25.8789 29.6992 25.8789ZM21.0078 24.5117H29.0156V18.9453H21.0078V24.5117Z" fill="#646464"/>
<path fill-rule="evenodd" clip-rule="evenodd" d="M25.0117 25.8789C24.6211 25.8789 24.3281 25.5859 24.3281 25.1953V18.2617C24.3281 17.8711 24.6211 17.5781 25.0117 17.5781C25.4023 17.5781 25.6953 17.8711 25.6953 18.2617V25.1953C25.6953 25.5859 25.4023 25.8789 25.0117 25.8789Z" fill="#646464"/>
<path fill-rule="evenodd" clip-rule="evenodd" d="M29.6992 22.3633H20.3242C19.9336 22.3633 19.6406 22.0703 19.6406 21.6797C19.6406 21.2891 19.9336 20.9961 20.3242 20.9961H29.6992C29.9922 20.9961 30.3828 21.2891 30.3828 21.6797C30.3828 22.0703 29.9922 22.3633 29.6992 22.3633Z" fill="#646464"/>
<path fill-rule="evenodd" clip-rule="evenodd" d="M49.8164 47.4609H1.18359C0.792969 47.4609 0.5 47.168 0.5 46.7773C0.5 46.3867 0.792969 46.0938 1.18359 46.0938H49.8164C50.207 46.0938 50.5 46.3867 50.5 46.7773C50.5 47.168 50.207 47.4609 49.8164 47.4609Z" fill="#646464"/>
</g>
<defs>
<clipPath id="clip0_333_13400">
<rect width="50" height="50" fill="white" transform="translate(0.5)"/>
</clipPath>
</defs>
</svg>
