<?xml version="1.0" encoding="UTF-8"?>
<svg version="1.1" xmlns="http://www.w3.org/2000/svg" width="512" height="512">
<path d="M0 0 C1.97424852 0.00040858 1.97424852 0.00040858 3.98838085 0.00082541 C4.72399737 -0.00584261 5.45961389 -0.01251062 6.21752182 -0.01938069 C8.70238033 -0.03572754 11.18568834 -0.01618155 13.6705088 0.00298452 C15.46184234 -0.00134101 17.25317172 -0.00785384 19.04449022 -0.01637554 C23.98231061 -0.03343909 28.91962729 -0.01913591 33.85742146 0.00013924 C39.17649555 0.01551413 44.49550581 0.00217793 49.81458229 -0.00760508 C60.24041056 -0.02216078 70.66604467 -0.00986849 81.09185458 0.01150817 C93.22173709 0.03546984 105.35157466 0.0338068 117.48147558 0.03120226 C139.11707247 0.02750879 160.75257761 0.04836652 182.38814491 0.0824523 C203.40411902 0.11554986 224.41999683 0.12971029 245.43599647 0.12346792 C268.29748531 0.11671083 291.15893375 0.11914443 314.02041662 0.13882732 C315.22820474 0.13986681 316.43599286 0.1409063 317.68038062 0.14197728 C320.10646862 0.14406825 322.5325566 0.14617922 324.95864456 0.14831045 C333.42312987 0.15521894 341.88760276 0.15587323 350.3520903 0.15442801 C360.6601323 0.15299143 370.96809554 0.16262189 381.27611137 0.18637437 C386.54008003 0.19827131 391.80393864 0.20533508 397.06792015 0.1995368 C401.8797125 0.19439303 406.69127164 0.20295302 411.50302397 0.2228114 C413.25059657 0.22758029 414.99819167 0.22721452 416.7457611 0.22140104 C419.10786762 0.21429816 421.46918446 0.22537803 423.83123058 0.24133444 C425.14723391 0.24290564 426.46323724 0.24447684 427.81911945 0.24609566 C428.81828213 0.37095077 429.81744481 0.49580588 430.84688514 0.62444448 C433.38499876 4.43161491 433.12550825 7.47682208 433.10136074 11.88759756 C433.10456722 12.74447739 433.10777369 13.60135722 433.11107734 14.4842031 C433.11943755 17.38111449 433.11343212 20.27782235 433.10758156 23.17473745 C433.11059949 25.26233892 433.11448716 27.34993928 433.11917412 29.43753767 C433.12950891 35.19418301 433.12725844 40.95076646 433.12299353 46.70741701 C433.12053622 52.90789551 433.12952799 59.10835872 433.13703102 65.30883169 C433.14980752 77.46349206 433.15157394 89.61812343 433.14923076 101.77278805 C433.14740012 111.64731317 433.14915287 121.5218318 433.1534552 131.39635611 C433.15405759 132.81358858 433.15465879 134.23082105 433.1552588 135.64805353 C433.15616602 137.7835179 433.15707469 139.91898226 433.15799115 142.05444663 C433.166424 161.91563966 433.17075405 181.77683024 433.16658443 201.63802481 C433.16642806 202.3871784 433.16627168 203.13633198 433.16611057 203.9081872 C433.16530475 207.70544477 433.16445898 211.50270234 433.16359726 215.2999599 C433.16334063 216.43124019 433.16334063 216.43124019 433.16307882 217.58537462 C433.16273216 219.11052411 433.16238363 220.63567359 433.16203323 222.16082308 C433.15667439 245.89936261 433.1646097 269.63786501 433.18306679 293.37639761 C433.20376502 320.02877481 433.21451374 346.681129 433.2104913 373.33351469 C433.21009593 376.17318741 433.20973439 379.01286014 433.20939392 381.85253286 C433.20930319 382.55176524 433.20921246 383.25099761 433.20911897 383.97141884 C433.20795118 394.54422659 433.21461506 405.11701118 433.22520584 415.68981314 C433.23723198 427.70802685 433.23856724 439.72617533 433.22641567 451.7443943 C433.22050047 457.88137988 433.21950002 464.01826527 433.23141807 470.15524435 C433.24218767 475.76582846 433.23928104 481.37622768 433.22515639 486.98680282 C433.22248466 489.02376505 433.22495253 491.06074136 433.23289225 493.09768987 C433.24289021 495.85245162 433.23466985 498.60655707 433.22161525 501.36129141 C433.2289246 502.16435162 433.23623395 502.96741183 433.24376479 503.7948072 C433.21503128 506.69132579 433.16485611 509.03685252 431.76865733 511.61694717 C428.75746017 513.1955802 426.10752336 513.00350412 422.72380012 513.00755453 C421.99017157 513.01251405 421.25654302 513.01747356 420.50068331 513.02258337 C418.02293438 513.03561827 415.54571742 513.02713014 413.06795448 513.01885366 C411.28146092 513.02373884 409.49497052 513.02992689 407.70848554 513.03731155 C402.78412686 513.05378149 397.85992753 513.05137888 392.93555087 513.04593658 C387.63077297 513.04327507 382.3260384 513.05778153 377.02127784 513.07003164 C366.6232466 513.09112445 356.22527108 513.09562432 345.82722098 513.09384376 C337.37956042 513.09253817 328.9319173 513.09632983 320.48426002 513.10376883 C318.05462704 513.10586792 315.62499406 513.10796553 313.19536108 513.11006165 C311.38165507 513.11162694 311.38165507 513.11162694 309.53130853 513.11322385 C286.64462307 513.13214143 263.75796964 513.13107124 240.8712796 513.12425452 C219.91220128 513.11867673 198.95324511 513.13951191 177.99419534 513.17261499 C156.49558941 513.20630791 134.99704206 513.2215259 113.49840921 513.21689796 C101.41963238 513.21464897 89.34096848 513.21995919 77.26221412 513.24479055 C66.98053017 513.26574684 56.69902108 513.26945218 46.41733009 513.25049096 C41.16732964 513.24129837 35.91765571 513.24029734 30.6676802 513.26084661 C25.86743911 513.27942848 21.06779487 513.27519827 16.26757741 513.2523008 C14.52536333 513.24808247 12.78310462 513.25242225 11.04093754 513.26589674 C8.68321338 513.28289904 6.32761104 513.26949236 3.96997017 513.24806356 C2.65738432 513.24833595 1.34479848 513.24860833 -0.0075627 513.24888897 C-3.15311486 512.62444448 -3.15311486 512.62444448 -5.07471246 510.61304283 C-6.46342889 506.76446493 -6.56649575 503.22065621 -6.53063828 499.18325186 C-6.5349986 498.33141703 -6.53935892 497.4795822 -6.54385138 496.60193419 C-6.55484066 493.73411467 -6.54436846 490.8667726 -6.53406578 487.9989562 C-6.53752089 485.92755209 -6.54228446 483.85614982 -6.54824752 481.78475142 C-6.56080734 476.08206141 -6.55456449 470.37952142 -6.54528886 464.67683077 C-6.53851908 458.53087916 -6.5489693 452.3849539 -6.55722862 446.23900747 C-6.56981753 434.89147942 -6.56869858 423.54401272 -6.56049422 412.19648618 C-6.55295243 401.71411345 -6.55097517 391.23175833 -6.55456215 380.74938345 C-6.55479131 380.05450669 -6.55502046 379.35962993 -6.55525656 378.64369629 C-6.55619055 375.82308151 -6.55714575 373.00246674 -6.55813585 370.18185198 C-6.56731625 343.71344318 -6.55898709 317.24506496 -6.54284516 290.77666089 C-6.52860797 267.25259842 -6.52988183 243.72858466 -6.54422814 220.20452261 C-6.56028631 193.78503373 -6.56666522 167.36557186 -6.55739135 140.94607878 C-6.55642917 138.13055436 -6.55549065 135.31502994 -6.55456215 132.49950552 C-6.55432492 131.8062336 -6.55408769 131.11296167 -6.55384327 130.39868151 C-6.55042848 119.92198751 -6.55442608 109.44531303 -6.56200081 98.96862173 C-6.57056919 87.05811129 -6.56816471 75.1476584 -6.55215858 63.23715019 C-6.54425732 57.1566127 -6.54121583 51.07617425 -6.55110604 44.99563742 C-6.56001504 39.43436809 -6.55518289 33.87329004 -6.53917338 28.31203818 C-6.53580944 26.29529026 -6.53755558 24.27852632 -6.54480074 22.26178861 C-6.55386705 19.52950534 -6.54462395 16.79788522 -6.53063828 14.06563711 C-6.53766178 13.27482001 -6.54468527 12.4840029 -6.55192161 11.66922164 C-6.49262101 5.90911338 -6.28431249 1.24454847 0 0 Z M6.84688514 12.62444448 C6.84688514 40.01444448 6.84688514 67.40444448 6.84688514 95.62444448 C143.13688514 95.62444448 279.42688514 95.62444448 419.84688514 95.62444448 C419.84688514 68.23444448 419.84688514 40.84444448 419.84688514 12.62444448 C283.55688514 12.62444448 147.26688514 12.62444448 6.84688514 12.62444448 Z M6.84688514 108.62444448 C6.84688514 237.98444448 6.84688514 367.34444448 6.84688514 500.62444448 C143.13688514 500.62444448 279.42688514 500.62444448 419.84688514 500.62444448 C419.84688514 371.26444448 419.84688514 241.90444448 419.84688514 108.62444448 C283.55688514 108.62444448 147.26688514 108.62444448 6.84688514 108.62444448 Z " fill="#646464" transform="translate(42.15311485528946,-0.6244444847106934)"/>
<path d="M0 0 C22.08781153 20.93713576 37.27929999 49.45766357 44.09887695 78.95629883 C44.26258789 79.6137207 44.42629883 80.27114258 44.5949707 80.94848633 C49.67967359 101.87561059 49.47149465 128.1205184 44.09887695 148.95629883 C43.92195313 149.65916016 43.7450293 150.36202148 43.56274414 151.08618164 C35.61254188 181.88463357 20.43141286 206.62376292 -1.90112305 228.95629883 C-2.39354492 229.49512695 -2.8859668 230.03395508 -3.39331055 230.58911133 C-26.57703484 255.60657652 -65.69108911 270.96315915 -99.25737 272.27006531 C-116.71563542 272.79955753 -133.94448499 272.56044127 -150.90112305 267.95629883 C-151.75061523 267.73087402 -152.60010742 267.50544922 -153.4753418 267.27319336 C-181.43000008 259.57939447 -204.59986163 244.25756024 -224.90112305 223.95629883 C-225.51213867 223.39168945 -226.1231543 222.82708008 -226.75268555 222.24536133 C-251.2893463 199.2219748 -267.62576469 160.58712456 -269.06225586 127.21264648 C-269.10827396 123.00199015 -269.14778159 118.79221113 -269.15112305 114.58129883 C-269.15179779 113.81930176 -269.15247253 113.05730469 -269.15316772 112.2722168 C-269.13716617 100.90423447 -268.65677245 90.02229251 -265.90112305 78.95629883 C-265.73483398 78.23700195 -265.56854492 77.51770508 -265.3972168 76.77661133 C-262.61452724 64.86257751 -258.26381116 53.93239128 -252.90112305 42.95629883 C-252.33393555 41.79227539 -251.76674805 40.62825195 -251.18237305 39.42895508 C-231.99436613 2.09380012 -197.57285196 -25.2930985 -157.90112305 -38.04370117 C-101.47657078 -55.15537868 -42.74616744 -39.73731866 0 0 Z M-220.46362305 17.64379883 C-243.84646697 44.41546071 -256.12137146 77.93548737 -256.15112305 113.33129883 C-256.15179779 114.04971954 -256.15247253 114.76814026 -256.15316772 115.5083313 C-256.13705451 126.29770828 -255.62893034 136.4647323 -252.90112305 146.95629883 C-252.65966553 147.95161621 -252.65966553 147.95161621 -252.41333008 148.96704102 C-248.43255497 165.21900469 -241.69296579 181.34585075 -231.90112305 194.95629883 C-230.90532227 196.37555664 -230.90532227 196.37555664 -229.8894043 197.82348633 C-207.2853813 229.07141758 -173.29460242 251.69161048 -134.90112305 257.95629883 C-101.38127464 262.61418886 -69.6406221 257.23386061 -39.90112305 240.95629883 C-38.53407227 240.21766602 -38.53407227 240.21766602 -37.1394043 239.46411133 C-2.98110586 219.99223106 20.10689859 186.86020168 30.60449219 149.43066406 C33.63405601 137.78449334 34.47612372 126.20644756 34.41137695 114.20629883 C34.40955414 113.50286346 34.40773132 112.7994281 34.40585327 112.07467651 C34.35938724 101.41216079 33.79902863 91.32139721 31.09887695 80.95629883 C30.93258789 80.28211914 30.76629883 79.60793945 30.5949707 78.91333008 C25.14599419 57.07706125 14.8526214 36.97538199 0.09887695 19.95629883 C-0.5972168 19.1390332 -1.29331055 18.32176758 -2.01049805 17.47973633 C-26.93166926 -11.06472573 -61.76879372 -28.16766944 -99.40112305 -31.79370117 C-101.2333728 -31.89818273 -103.06691843 -31.98247228 -104.90112305 -32.04370117 C-105.79959961 -32.08366211 -106.69807617 -32.12362305 -107.6237793 -32.16479492 C-151.34654877 -33.18719806 -190.87808956 -13.72842762 -220.46362305 17.64379883 Z " fill="#636363" transform="translate(366.901123046875,189.043701171875)"/>
<path d="M0 0 C18.9959112 18.16810056 32.01501603 45.12029908 33.54443359 71.40307617 C34.24595193 108.26493004 25.71123447 139.13018023 -0.12133789 166.19946289 C-20.64511409 187.07138069 -49.75243876 200.19408276 -79.1003418 200.65380859 C-113.68586511 200.84312855 -142.41784034 190.52692517 -167.74975586 166.30273438 C-190.26887963 143.8965828 -201.09322732 112.15969135 -201.64379883 80.93359375 C-201.5257731 53.90057081 -191.19352548 27.76914351 -173.63256836 7.36132812 C-172.89393555 6.47703125 -172.15530273 5.59273437 -171.39428711 4.68164062 C-153.49848121 -15.99665555 -127.712143 -29.89279412 -100.63256836 -33.63867188 C-99.75858398 -33.76242188 -98.88459961 -33.88617188 -97.98413086 -34.01367188 C-61.51428335 -38.0999293 -26.63676087 -24.53601551 0 0 Z M-153.63256836 5.36132812 C-154.55682617 6.204375 -155.48108398 7.04742187 -156.43334961 7.91601562 C-177.29128721 27.82193117 -188.07102027 54.76619248 -188.88256836 83.36132812 C-188.21851523 106.72037359 -180.74244723 130.26745163 -165.63256836 148.36132812 C-164.82174805 149.33457031 -164.01092773 150.3078125 -163.17553711 151.31054688 C-146.08951408 171.14714264 -122.6828561 183.99887082 -96.63256836 187.36132812 C-92.54421267 187.64041509 -88.47955284 187.69569815 -84.38256836 187.67382812 C-83.2857373 187.66891357 -82.18890625 187.66399902 -81.05883789 187.65893555 C-72.56013795 187.53666563 -64.84004026 186.69417687 -56.63256836 184.36132812 C-55.41956055 184.03261719 -54.20655273 183.70390625 -52.95678711 183.36523438 C-38.91680873 179.15178292 -26.66658242 171.97353638 -15.63256836 162.36132812 C-14.97385742 161.84570312 -14.31514648 161.33007812 -13.63647461 160.79882812 C5.81406724 145.14446849 17.38881487 119.70861399 20.36743164 95.36132812 C22.45372812 66.75191427 15.79670605 38.98490753 -2.88256836 16.67382812 C-23.62339186 -7.20856183 -50.16049547 -19.36569127 -81.42163086 -21.86132812 C-107.73806761 -22.79829104 -134.38680555 -12.28304746 -153.63256836 5.36132812 Z " fill="#636363" transform="translate(339.632568359375,220.638671875)"/>
<path d="M0 0 C7.93021421 6.3802178 13.80690701 13.93736803 16 24 C16.81746012 33.96186632 17.62941797 45.22041607 11.11328125 53.35546875 C3.14643281 61.87846717 -6.38895406 67.03944156 -18.078125 68.03125 C-26.08796632 67.94558325 -34.86575838 66.38616338 -41 61 C-41.56976563 60.51789063 -42.13953125 60.03578125 -42.7265625 59.5390625 C-48.32898889 54.46111858 -53.5179816 46.80905211 -54.16113281 39.05810547 C-54.20702722 36.6635912 -54.23530725 34.26991793 -54.25 31.875 C-54.270625 31.05773438 -54.29125 30.24046875 -54.3125 29.3984375 C-54.35825887 22.16853597 -53.21817721 16.01183694 -48.87109375 10.109375 C-37.21528546 -1.1909592 -15.57133237 -9.98858724 0 0 Z M-32.25390625 13.55078125 C-37.9069516 18.24603623 -40.78748436 22.53146653 -41.875 29.875 C-42.36272571 36.21543429 -40.52658555 40.71012167 -37 46 C-33.34755253 44.55926912 -32.10613381 43.01511042 -30.3125 39.5625 C-29.80847656 38.593125 -29.30445313 37.62375 -28.78515625 36.625 C-25.39667544 29.81272127 -22.17029933 22.92033597 -18.95800781 16.02368164 C-18.00035895 14.00075824 -17.00818607 11.99814853 -16 10 C-21.85221823 7.92340644 -27.35612196 10.18090194 -32.25390625 13.55078125 Z M-4 17 C-6.99945004 20.30436401 -8.99333085 23.68382001 -10.875 27.7109375 C-11.38546875 28.79117188 -11.8959375 29.87140625 -12.421875 30.984375 C-12.94265625 32.10328125 -13.4634375 33.2221875 -14 34.375 C-20.32218472 47.86441393 -20.32218472 47.86441393 -24 54 C-20.27138839 55.86430581 -15.98034515 54.76015614 -12 54 C-5.62504724 51.72589405 -0.93160211 46.84213219 2.07421875 40.86328125 C4.15524732 35.46767323 4.64190237 30.58443441 3 25 C1.61750722 22.1097712 0.11502907 19.41811735 -2 17 C-2.66 17 -3.32 17 -4 17 Z " fill="#636363" transform="translate(417,22)"/>
<path d="M0 0 C0.7354303 -0.00335861 1.4708606 -0.00671722 2.22857666 -0.01017761 C4.65500587 -0.01966203 7.08136592 -0.02162928 9.5078125 -0.02270508 C11.19645211 -0.02591875 12.88509144 -0.0292829 14.57373047 -0.03279114 C18.11100917 -0.03877565 21.64826347 -0.04063167 25.18554688 -0.04003906 C29.71843805 -0.03993733 34.25117299 -0.05360421 38.7840271 -0.07081127 C42.27043376 -0.08192651 45.75680253 -0.08395844 49.2432251 -0.08342934 C50.91457662 -0.08460961 52.58592911 -0.08903401 54.25726318 -0.0967617 C56.59349554 -0.10655462 58.92938721 -0.10368672 61.265625 -0.09765625 C61.95561584 -0.10327576 62.64560669 -0.10889526 63.35650635 -0.11468506 C66.93001665 -0.09123513 69.64920369 0.07837458 72.6328125 2.14526367 C74.03216263 4.94396394 73.88546655 7.05025159 73.6328125 10.14526367 C72.41015625 11.82495117 72.41015625 11.82495117 70.6328125 13.14526367 C68.37109375 13.43823242 68.37109375 13.43823242 65.9453125 13.33276367 C64.73294922 13.2921582 64.73294922 13.2921582 63.49609375 13.25073242 C62.88121094 13.21592773 62.26632813 13.18112305 61.6328125 13.14526367 C61.79265625 13.70600586 61.9525 14.26674805 62.1171875 14.84448242 C62.66107797 17.27138764 62.83583961 19.47211517 62.8828125 21.95776367 C62.90859375 22.76858398 62.934375 23.5794043 62.9609375 24.41479492 C62.6328125 27.14526367 62.6328125 27.14526367 59.6328125 34.14526367 C39.8328125 34.14526367 20.0328125 34.14526367 -0.3671875 34.14526367 C-3.08566601 28.70830666 -3.77057553 25.98299315 -3.5546875 20.27026367 C-3.54115234 19.5819043 -3.52761719 18.89354492 -3.51367188 18.18432617 C-3.4786712 16.50429366 -3.42487704 14.82467017 -3.3671875 13.14526367 C-4.470625 13.1787793 -5.5740625 13.21229492 -6.7109375 13.24682617 C-10.3671875 13.14526367 -10.3671875 13.14526367 -12.8671875 11.52026367 C-14.3671875 9.14526367 -14.3671875 9.14526367 -14.2421875 6.02026367 C-13.3671875 3.14526367 -13.3671875 3.14526367 -11.3671875 1.14526367 C-7.69953771 -0.21184878 -3.85825333 -0.0025341 0 0 Z M9.6328125 13.14526367 C9.6328125 15.78526367 9.6328125 18.42526367 9.6328125 21.14526367 C22.5028125 21.14526367 35.3728125 21.14526367 48.6328125 21.14526367 C48.6328125 18.50526367 48.6328125 15.86526367 48.6328125 13.14526367 C35.7628125 13.14526367 22.8928125 13.14526367 9.6328125 13.14526367 Z " fill="#636363" transform="translate(68.3671875,35.854736328125)"/>
<path d="M0 0 C0.8146875 -0.020625 1.629375 -0.04125 2.46875 -0.0625 C4.828125 -0.078125 4.828125 -0.078125 8.75 0.25 C11.06332486 3.71998729 11.08957563 5.17509248 10.75 9.25 C8.75 12.25 8.75 12.25 5.75 13.25 C3.66510116 13.44104651 1.57981891 13.62897265 -0.50732422 13.79370117 C-22.53911953 15.61709657 -42.27144919 24.57717653 -57.0078125 41.28515625 C-69.43174315 56.19247263 -76.45495276 74.05342332 -76.87890625 93.48046875 C-77.32080807 96.77845184 -78.17752345 98.65237102 -80.25 101.25 C-83.11871255 102.0623285 -85.2160907 101.58710103 -88.25 101.25 C-90.78562479 98.71437521 -90.55942835 97.0061145 -90.63061523 93.53857422 C-90.56887517 67.68827601 -80.69881615 45.64986232 -62.9609375 26.875 C-46.10443715 10.55285557 -23.61334012 0.15234413 0 0 Z " fill="#636363" transform="translate(251.25,208.75)"/>
<path d="M0 0 C4.96609601 2.8697522 8.42562757 7.06781871 10.625 12.375 C11.54848334 18.51083643 11.43812901 23.94667149 8.125 29.3125 C4.13701006 34.41341736 0.21473493 37.88849645 -6.34375 38.77734375 C-11.98831373 38.9519899 -16.70246833 38.82377337 -21.375 35.375 C-26.26059046 30.48940954 -29.64840648 26.23654663 -29.75 19.125 C-29.60529454 12.73242351 -28.11387085 8.22591557 -23.65625 3.5859375 C-16.97783041 -2.38502239 -8.36043791 -3.83783912 0 0 Z M-14.8125 12.9375 C-16.68123981 15.38369993 -16.68123981 15.38369993 -16.4375 18.875 C-15.20707737 22.92815691 -13.88376757 24.12579002 -10.375 26.375 C-6.5031583 25.11926756 -4.34661329 24.00691921 -2.375 20.375 C-1.79166667 17.875 -1.79166667 17.875 -2.375 15.375 C-3.89518248 12.93804526 -3.89518248 12.93804526 -6.375 11.375 C-10.03352292 10.76524618 -11.68012879 10.92956974 -14.8125 12.9375 Z " fill="#636363" transform="translate(233.375,34.625)"/>
<path d="M0 0 C4.96032072 2.86641484 8.43895934 7.06740784 10.625 12.375 C11.56618685 19.31006101 11.26045046 25.0313217 7.0546875 30.7578125 C3.40123401 34.89040743 -0.61586081 38.07910346 -6.1796875 38.67578125 C-16.88467129 38.71663997 -16.88467129 38.71663997 -21.375 35.375 C-26.73201609 30.01798391 -29.50063282 26.37507038 -29.6875 18.625 C-29.60728857 11.9674515 -28.45722799 8.45722799 -23.65625 3.65625 C-16.96389858 -2.35552331 -8.42079864 -3.86554757 0 0 Z M-16.375 15.375 C-16.86866687 18.76014427 -16.75266945 20.63953845 -15.1875 23.6875 C-12.80401509 25.90660664 -11.65224319 26.45121496 -8.375 26.375 C-4.93819759 24.4416006 -4.93819759 24.4416006 -2.375 21.375 C-1.4581537 18.33125267 -1.4581537 18.33125267 -2.375 15.375 C-4.79595091 12.74653902 -6.42114692 11.56111767 -9.9375 10.875 C-13.26412957 11.55738555 -14.41578918 12.61759218 -16.375 15.375 Z " fill="#636363" transform="translate(327.375,34.625)"/>
<path d="M0 0 C4.96032072 2.86641484 8.43895934 7.06740784 10.625 12.375 C11.56618685 19.31006101 11.26045046 25.0313217 7.0546875 30.7578125 C3.40123401 34.89040743 -0.61586081 38.07910346 -6.1796875 38.67578125 C-17.95492565 38.72072491 -17.95492565 38.72072491 -22.9921875 33.79296875 C-28.11356881 28.169251 -29.8762422 23.56020576 -29.68359375 15.93359375 C-28.85593305 9.07134368 -25.27518152 4.7677987 -20.05859375 0.50390625 C-14.47207291 -3.24204392 -5.92365709 -2.71924068 0 0 Z M-14.25 12.4375 C-16.54068031 15.2016255 -16.54068031 15.2016255 -17.0625 18.375 C-16.06718635 22.71818685 -13.96119301 23.83477995 -10.375 26.375 C-5.72766458 24.77374465 -5.72766458 24.77374465 -2.375 21.375 C-1.95331211 18.07177822 -2.03809004 16.06753713 -3.5 13.0625 C-7.26694373 9.67225064 -10.17552158 9.51450461 -14.25 12.4375 Z " fill="#646464" transform="translate(280.375,34.625)"/>
</svg>
