<svg width="51" height="50" viewBox="0 0 51 50" fill="none" xmlns="http://www.w3.org/2000/svg">
<g clip-path="url(#clip0_475_13733)">
<path d="M47.5774 41.445L46.3837 39.4644L45.1295 40.2203L46.3232 42.2008C47.977 44.9458 46.0581 48.6401 42.6468 48.5316C39.5159 48.4261 37.6515 44.9211 39.2908 42.2008L42.8066 36.3655L44.3505 38.9278L45.6047 38.172L42.8066 33.5283L38.0367 41.4452C36.988 43.1852 36.9427 45.2939 37.9156 47.0857C40.024 50.9694 45.5874 50.9733 47.6979 47.0866C48.6708 45.2946 48.6258 43.1856 47.5774 41.445Z" fill="#646464"/>
<path d="M38.6381 27.5515V31.9458H46.8633V24.1447L41.415 18.6963H37.2246V20.1605H40.8085L45.399 24.7512V30.4816H40.1024V26.9454L38.6155 25.4572H37.2246V26.9215H38.0086L38.6381 27.5515Z" fill="#646464"/>
<path d="M11.4873 30.767H18.1096V29.3028H12.9516V16.4213H33.5643V29.3028H19.5739V30.767H35.0286V14.957H11.4873V30.767Z" fill="#646464"/>
<path d="M20.5997 10.2527H18.9802L16.9911 12.2429L18.0268 13.278L19.587 11.717H26.9283L28.4896 13.2782L29.5249 12.2428L27.5347 10.2527H25.9159V8.38528H33.0643V3.21843H25.9159V1.36693L24.5488 0H21.9666L20.5997 1.36693V3.21843H13.4512V8.38528H20.5997V10.2527ZM24.4516 10.2527H22.0639V8.38528H24.4516V10.2527ZM22.0639 1.97342L22.5731 1.46425H23.9423L24.4515 1.97342V3.21843H22.0638V1.97342H22.0639ZM14.9154 6.92103V4.68268H31.6001V6.92103H14.9154Z" fill="#646464"/>
<path d="M2.60303 26.9215H9.29075V25.4572H4.06728V20.1605H9.29075V18.6963H2.60303V26.9215Z" fill="#646464"/>
<path d="M28.3592 23.5941H26.895V22.1299H28.3592V23.5941ZM23.9664 23.5941H22.5021V22.1299H23.9664V23.5941ZM19.5736 23.5941H18.1094V22.1299H19.5736V23.5941Z" fill="#646464"/>
<path d="M42.0815 44.1084H43.5458V45.5727H42.0815V44.1084Z" fill="#646464"/>
</g>
<defs>
<clipPath id="clip0_475_13733">
<rect width="50" height="50" fill="white" transform="translate(0.5)"/>
</clipPath>
</defs>
</svg>
