<?xml version="1.0" encoding="UTF-8"?>
<svg version="1.1" xmlns="http://www.w3.org/2000/svg" width="512" height="512">
<path d="M0 0 C1.63763604 -0.00679667 1.63763604 -0.00679667 3.30835563 -0.01373065 C6.9677238 -0.02639372 10.62694351 -0.02475301 14.28633118 -0.02310181 C16.90973095 -0.02908591 19.53312897 -0.03589119 22.15652466 -0.04345703 C28.54423941 -0.06005435 34.93191724 -0.06556604 41.31965175 -0.06668179 C46.51440464 -0.06763303 51.70914538 -0.07174713 56.90389442 -0.07808304 C71.64318702 -0.09569333 86.38245052 -0.10492244 101.12175371 -0.10342209 C102.31310237 -0.10330222 102.31310237 -0.10330222 103.52851868 -0.10317993 C104.72132818 -0.10305729 104.72132818 -0.10305729 105.93823484 -0.10293217 C118.81825971 -0.10211972 131.6981675 -0.12124768 144.57815852 -0.14945666 C157.81424517 -0.17821591 171.05027479 -0.19199523 184.28639346 -0.19026911 C191.71298944 -0.18960618 199.13946274 -0.19505586 206.5660305 -0.21662521 C212.89082307 -0.23487728 219.21543739 -0.23915162 225.54024496 -0.22560637 C228.76399199 -0.21909632 231.98732815 -0.22108056 235.21105576 -0.23631287 C238.71481827 -0.25179262 242.21769161 -0.24243787 245.72143555 -0.22705078 C247.2313958 -0.24248147 247.2313958 -0.24248147 248.7718603 -0.25822389 C260.7516456 -0.14245293 270.24107793 4.44389483 279.17817688 12.26742554 C286.54022371 20.14878688 291.42264138 30.31537715 291.43544579 41.14105415 C291.43895186 41.81128967 291.44245793 42.48152518 291.44607025 43.17207086 C291.45536807 45.41610738 291.45046518 47.65988346 291.44560242 49.90393066 C291.44933951 51.52985497 291.45394127 53.15577749 291.45933306 54.78169715 C291.47157148 59.24861595 291.47130159 63.7154599 291.46894431 68.18239164 C291.46853635 73.00056838 291.47957343 77.81872106 291.48905945 82.6368866 C291.50567582 92.07698491 291.51116931 101.51705825 291.5122842 110.95716996 C291.51323452 118.63189007 291.51734401 126.30660193 291.52368546 133.98131943 C291.54130079 155.74341048 291.55052405 177.50548181 291.54902451 199.26758005 C291.5489446 200.4408982 291.54886468 201.61421635 291.54878235 202.8230896 C291.54870059 203.9978417 291.54861883 205.1725938 291.54853459 206.38294445 C291.54772195 225.4151774 291.56685335 244.44733115 291.59505908 263.4795412 C291.62379591 283.02448922 291.63759889 302.56939864 291.63587153 322.11436832 C291.63520783 333.08616852 291.64069115 344.05788574 291.66222763 355.0296669 C291.68045006 364.37300001 291.68477812 373.71621253 291.67120878 383.05955572 C291.6646841 387.82459547 291.66454385 392.58940395 291.68191528 397.35442162 C291.69767345 401.72194957 291.69475444 406.08906343 291.67734702 410.45658146 C291.67428312 412.03130423 291.67788641 413.60605812 291.68906717 415.18074419 C291.78584877 429.78603184 289.04805676 441.15480531 279.17817688 452.26742554 C269.3947209 461.38727501 258.40437706 464.5751215 245.3187561 464.53485107 C244.23501699 464.53938219 243.15127788 464.5439133 242.03469819 464.54858172 C238.40840863 464.56122751 234.78226923 464.5596052 231.15596008 464.55795288 C228.55373949 464.56393806 225.95152068 464.57074358 223.3493042 464.57830811 C217.01687056 464.59489479 210.68447415 464.60041662 204.3520206 464.60153286 C199.20163657 464.60248458 194.05126478 464.60660105 188.90088463 464.61293411 C174.28324085 464.63054127 159.6656264 464.63977397 145.04797194 464.63827316 C144.26054162 464.63819325 143.4731113 464.63811334 142.66181946 464.63803101 C141.87342216 464.63794924 141.08502487 464.63786748 140.27273675 464.63778324 C127.50338154 464.63697081 114.73414441 464.65609909 101.96482334 464.68430774 C88.83831134 464.71307547 75.71185685 464.72684585 62.58531255 464.72512019 C55.22185635 464.72445756 47.85852391 464.72989373 40.49509621 464.75147629 C33.56671333 464.77165423 26.63859528 464.77097468 19.71019936 464.75644302 C17.17222715 464.75435524 14.63423857 464.75905392 12.0962944 464.77116394 C8.62139741 464.78666617 5.14739447 464.77727428 1.67251587 464.76190186 C0.1796209 464.77733254 0.1796209 464.77733254 -1.34343356 464.79307497 C-13.60067086 464.67392261 -23.70251404 460.36690913 -32.82182312 452.26742554 C-40.18638566 444.36698007 -45.06630418 434.21955373 -45.07909203 423.37538624 C-45.0825981 422.70316275 -45.08610417 422.03093927 -45.08971649 421.33834538 C-45.09901464 419.08755639 -45.09411134 416.83702705 -45.08924866 414.58622742 C-45.09298573 412.95546562 -45.09758748 411.32470561 -45.1029793 409.69394845 C-45.11521788 405.21369752 -45.11494782 400.73352122 -45.11259055 396.25325739 C-45.1121826 391.42078475 -45.12321956 386.58833611 -45.13270569 381.75587463 C-45.14932183 372.28803786 -45.15481553 362.82022598 -45.15593044 353.35237584 C-45.15688071 345.65571733 -45.16098996 337.95906703 -45.1673317 330.26241112 C-45.1849465 308.43991688 -45.1941703 286.61744232 -45.19267075 264.79494093 C-45.19259084 263.61837305 -45.19251092 262.44180518 -45.19242859 261.22958374 C-45.19234683 260.05157871 -45.19226507 258.87357369 -45.19218083 257.65987154 C-45.19136807 238.57199766 -45.21050265 219.48420272 -45.23870532 200.39635167 C-45.26743655 180.79603789 -45.28124545 161.19576259 -45.27951777 141.59542722 C-45.27885391 130.59180092 -45.2843445 119.58825736 -45.30587387 108.58465004 C-45.32408887 99.21493803 -45.32843041 89.84534624 -45.31485502 80.47562418 C-45.30832676 75.69653172 -45.30820307 70.91766989 -45.32556152 66.1385994 C-45.34130368 61.75940468 -45.33841696 57.38062323 -45.32099326 53.00143852 C-45.31792586 51.42135001 -45.32154594 49.84123056 -45.33271341 48.26117853 C-45.42802801 33.81282542 -42.46728774 23.28578476 -32.82182312 12.26742554 C-28.15099013 7.90436062 -22.70555982 4.728304 -16.82182312 2.26742554 C-16.01264529 1.92521658 -15.20346746 1.58300762 -14.3697691 1.2304287 C-9.53706825 -0.08128975 -4.98608891 -0.01517295 0 0 Z M-21.64604187 26.26351929 C-27.66316402 33.97068059 -28.94442296 41.25727052 -28.95045757 50.97295856 C-28.95368202 52.29048565 -28.95690647 53.60801274 -28.96022862 54.96546489 C-28.95875768 56.41575334 -28.95718998 57.8660417 -28.95553589 59.31632996 C-28.95740509 60.86616992 -28.95970623 62.4160094 -28.96240121 63.96584815 C-28.96851205 68.21772372 -28.96838646 72.4695796 -28.96720684 76.72145855 C-28.96700265 81.30984813 -28.97252329 85.89823141 -28.9772644 90.48661804 C-28.9855675 99.47337841 -28.98831909 108.46013223 -28.98887678 117.44689611 C-28.98935209 124.75213689 -28.99140755 132.0573755 -28.99457741 139.36261559 C-29.0033829 160.07751369 -29.00799693 180.79240662 -29.00724693 201.50730661 C-29.00720698 202.62383189 -29.00716702 203.74035717 -29.00712585 204.89071655 C-29.00708497 206.00860609 -29.00704409 207.12649563 -29.00700197 208.27826061 C-29.00659549 226.39674252 -29.01616589 244.51520365 -29.03026422 262.63367955 C-29.04462841 281.24073511 -29.05153439 299.84778054 -29.05067044 318.45484179 C-29.0503385 328.90004173 -29.05308455 339.34521987 -29.0638485 349.79041481 C-29.07295403 358.68323476 -29.07512828 367.57602305 -29.06833907 376.46884564 C-29.0650742 381.00472715 -29.06501604 385.54054791 -29.07369232 390.07642365 C-29.08155959 394.23213786 -29.08012356 398.38774316 -29.07140819 402.54345473 C-29.06987371 404.04341397 -29.07168739 405.54338136 -29.07726827 407.043331 C-29.11911858 419.09343645 -29.05384241 429.80512645 -20.82182312 439.26742554 C-12.74290498 446.65070298 -4.86154279 448.41507401 5.98677063 448.36508179 C7.84785461 448.3602478 7.84785461 448.3602478 9.74653625 448.35531616 C11.02335266 448.34693726 12.30016907 448.33855835 13.61567688 448.32992554 C14.9195636 448.32541382 16.22345032 448.3209021 17.56684875 448.31625366 C20.7706724 448.30451804 23.97440051 448.28809917 27.17817688 448.26742554 C27.18404312 447.15401794 27.18990936 446.04061035 27.19595337 444.89346313 C27.25336174 434.3603026 27.32621696 423.82734494 27.41389179 413.29439163 C27.45846965 407.88030763 27.49775311 402.4662967 27.52461243 397.05209351 C27.55077143 391.81941418 27.59126171 386.58701798 27.64136314 381.35451508 C27.65794708 379.36605116 27.66951378 377.37753836 27.67579079 375.3890152 C27.73432725 358.53759207 28.8567348 343.18048739 40.67817688 330.01742554 C51.40313266 320.01295623 64.9092474 316.95677888 79.10713196 316.99276733 C80.68952919 316.98510094 80.68952919 316.98510094 82.30389404 316.97727966 C85.76855752 316.96345439 89.23302046 316.96433529 92.69770813 316.96664429 C95.12232537 316.9627532 97.54694193 316.95841768 99.97155762 316.95365906 C105.04606844 316.9462118 110.12050968 316.9464771 115.19502258 316.95175171 C121.6742105 316.95754114 128.15311208 316.94062044 134.63225269 316.91740704 C139.6382105 316.90262155 144.64410013 316.90180461 149.65007591 316.90491676 C152.03770705 316.90440587 154.42534224 316.89921205 156.81295204 316.88910484 C160.16249924 316.87666574 163.51149873 316.88357724 166.86103821 316.89511108 C167.83233673 316.88746735 168.80363525 316.87982361 169.80436707 316.87194824 C184.03811744 316.97941324 195.48794064 321.08139809 205.84614563 330.77133179 C215.26337254 340.85107717 218.29025653 352.8661017 218.38349915 366.30209351 C218.39339874 367.19054459 218.40329834 368.07899567 218.41349792 368.99436951 C218.44495667 371.91609072 218.46980828 374.83782815 218.49458313 377.75961304 C218.51516616 379.79128428 218.53616298 381.82295138 218.55755615 383.85461426 C218.61263747 389.19089384 218.66210802 394.52721117 218.71040344 399.86355591 C218.76072048 405.31331729 218.8163532 410.76302414 218.87153625 416.21273804 C218.97894724 426.89758723 219.08042983 437.58248387 219.17817688 448.26742554 C223.63645378 448.32609895 228.09462961 448.36124688 232.55317688 448.39242554 C233.80485657 448.40918335 235.05653625 448.42594116 236.34614563 448.44320679 C247.75077277 448.50291688 257.30832401 447.98402794 266.17817688 440.26742554 C273.53353674 432.21905533 275.30010135 424.36491827 275.30681133 413.56189251 C275.31003578 412.24436542 275.31326023 410.92683833 275.31658238 409.56938618 C275.31511144 408.11909773 275.31354374 406.66880937 275.31188965 405.21852112 C275.31375885 403.66868116 275.31605999 402.11884167 275.31875497 400.56900293 C275.32486581 396.31712736 275.32474022 392.06527148 275.3235606 387.81339252 C275.32335641 383.22500295 275.32887705 378.63661967 275.33361816 374.04823303 C275.34192126 365.06147266 275.34467285 356.07471885 275.34523054 347.08795496 C275.34570585 339.78271419 275.34776131 332.47747558 275.35093117 325.17223549 C275.35973666 304.45733738 275.36435069 283.74244445 275.36360069 263.02754446 C275.36356074 261.91101918 275.36352078 260.7944939 275.36347961 259.64413452 C275.36343873 258.52624498 275.36339785 257.40835544 275.36335573 256.25659046 C275.36294925 238.13810855 275.37251965 220.01964743 275.38661798 201.90117153 C275.40098217 183.29411596 275.40788815 164.68707053 275.4070242 146.08000928 C275.40669226 135.63480935 275.40943831 125.1896312 275.42020226 114.74443626 C275.42930779 105.85161631 275.43148204 96.95882803 275.42469283 88.06600543 C275.42142796 83.53012392 275.4213698 78.99430316 275.43004608 74.45842743 C275.43791335 70.30271321 275.43647732 66.14710791 275.42776195 61.99139635 C275.42622747 60.4914371 275.42804115 58.99146972 275.43362202 57.49152007 C275.47547234 45.44141463 275.41019616 34.72972463 267.17817688 25.26742554 C258.03959323 16.9157258 248.87882103 16.11407719 236.98864746 16.13371277 C235.47117801 16.13031443 235.47117801 16.13031443 233.92305261 16.12684745 C230.54087857 16.12052882 227.15874483 16.12133544 223.77656555 16.12216187 C221.34843901 16.11916905 218.92031294 16.11576624 216.4921875 16.11198425 C210.58555031 16.10406966 204.67892254 16.10093015 198.77228113 16.10037187 C193.96894722 16.09989596 189.16561658 16.09783744 184.36228371 16.09467125 C170.73058867 16.08586918 157.09890148 16.08125119 143.46720358 16.08200172 C142.36591881 16.08206166 142.36591881 16.08206166 141.24238586 16.0821228 C140.13974959 16.08218412 140.13974959 16.08218412 139.01483784 16.08224668 C127.10421667 16.08265305 115.19362712 16.07308461 103.28301509 16.05898444 C91.0401886 16.04460585 78.79737751 16.03771506 66.55454236 16.03857821 C59.68638447 16.03890966 52.81825975 16.03618532 45.95010948 16.02540016 C39.4896431 16.01531983 33.02922859 16.01564566 26.56875801 16.02291679 C24.20087965 16.0239616 21.83299691 16.02160591 19.46512604 16.01555634 C16.22622122 16.00781889 12.987557 16.01249295 9.74865723 16.02018738 C8.8176053 16.01504381 7.88655338 16.00990025 6.92728776 16.00460082 C-4.23418488 16.06296438 -13.83641326 17.71807984 -21.64604187 26.26351929 Z M50.42036438 344.37680054 C45.03097299 351.92715562 43.87004461 359.27542994 43.9511261 368.34555054 C43.95088503 369.22869934 43.95064396 370.11184814 43.95039558 371.02175903 C43.95187712 373.85375376 43.96705621 376.68547849 43.98286438 379.51742554 C43.98580842 381.27653883 43.98784663 383.03565388 43.9889679 384.79476929 C43.99941343 391.28568159 44.02733598 397.77655627 44.05317688 404.26742554 C44.09442688 418.78742554 44.13567688 433.30742554 44.17817688 448.26742554 C96.31817688 448.26742554 148.45817688 448.26742554 202.17817688 448.26742554 C202.24005188 433.78867554 202.30192688 419.30992554 202.36567688 404.39242554 C202.39298889 399.83703979 202.4203009 395.28165405 202.44844055 390.58822632 C202.45847982 386.47029452 202.45847982 386.47029452 202.46450806 382.35235596 C202.46908567 380.53193964 202.47957592 378.71153186 202.49490356 376.89117432 C202.87353373 358.86134022 202.87353373 358.86134022 194.97505188 343.08773804 C187.43302067 335.4473325 179.05686007 333.06891015 168.56700134 332.98526001 C167.62029572 332.98773743 166.67359009 332.99021484 165.69819641 332.99276733 C164.67921265 332.9876564 163.66022888 332.98254547 162.61036682 332.97727966 C159.26051366 332.9634429 155.91086762 332.96433603 152.56098938 332.96664429 C150.2198326 332.96275407 147.87867653 332.95841873 145.53752136 332.95365906 C140.63695485 332.94620952 135.73646039 332.94647894 130.83589172 332.95175171 C124.57282778 332.95754407 118.31005979 332.94061453 112.04704475 332.91740704 C107.2135904 332.90263642 102.38020678 332.90180255 97.54673386 332.90491676 C95.238391 332.90440521 92.93004402 332.89919882 90.62172318 332.88910484 C87.38660499 332.87669359 84.15205628 332.88356053 80.91694641 332.89511108 C79.97428925 332.88746735 79.03163208 332.87982361 78.06040955 332.87194824 C67.11318199 332.95783182 57.60224484 335.75854399 50.42036438 344.37680054 Z " fill="#636363" transform="translate(132.8218231201172,23.732574462890625)"/>
<path d="M0 0 C1.11840271 -0.00571014 2.23680542 -0.01142029 3.38909912 -0.01730347 C4.60167389 -0.01842133 5.81424866 -0.01953918 7.06356812 -0.02069092 C8.35214722 -0.02565582 9.64072632 -0.03062073 10.96835327 -0.03573608 C14.49348418 -0.04880811 18.01859609 -0.05529518 21.54374743 -0.05974674 C23.75131894 -0.06268669 25.95888538 -0.06679327 28.16645432 -0.07125092 C35.08840427 -0.08491395 42.01034248 -0.09458568 48.93230498 -0.09845281 C56.89449099 -0.10292675 64.85650476 -0.12044868 72.81863844 -0.1494534 C78.99129855 -0.17115046 85.1639105 -0.18116139 91.33660829 -0.18249393 C95.01462023 -0.18353649 98.69247 -0.18932598 102.37044144 -0.20731354 C106.48179629 -0.22703038 110.59279598 -0.22247349 114.70419312 -0.21600342 C115.9046225 -0.2252182 117.10505188 -0.23443298 118.34185791 -0.243927 C132.83217675 -0.17284688 144.85814855 3.60838811 155.68222046 13.46466064 C166.55019393 24.92009214 167.88391386 38.5411114 167.76815796 53.58575439 C167.76831335 55.24858666 167.76980894 56.91141928 167.77256775 58.57424927 C167.77394327 62.03869883 167.76153462 65.50273012 167.73861694 68.96710205 C167.71019011 73.38273644 167.71299313 77.79767965 167.72570705 82.21336555 C167.73269716 85.64000236 167.72483787 89.06648244 167.71245003 92.49309921 C167.70797097 94.12040478 167.70756729 95.74772739 167.71151543 97.37503433 C167.73131519 112.70731163 165.31321523 124.9290455 154.45956421 136.45294189 C142.39945373 147.82521338 127.83117004 149.29205626 111.98788452 149.28570557 C110.77704193 149.28906418 109.56619934 149.29242279 108.31866455 149.29588318 C105.01676566 149.30372313 101.71492968 149.30705888 98.41302586 149.30769897 C96.34380643 149.30841285 94.27459348 149.31055355 92.20537567 149.31319618 C84.96848639 149.32243121 77.73161544 149.32653346 70.49472046 149.32574463 C63.77828645 149.32514463 57.06193296 149.33568593 50.3455193 149.35148829 C44.55498102 149.3646205 38.76446886 149.36992614 32.97391582 149.36928922 C29.52624469 149.36903586 26.07864519 149.37179655 22.63098907 149.38246727 C18.77853314 149.39232314 14.92628163 149.3893669 11.07382202 149.38336182 C9.95134064 149.38898132 8.82885925 149.39460083 7.67236328 149.40039062 C-8.30355019 149.33747668 -21.08970795 146.31288178 -32.82949829 135.14044189 C-41.23191813 126.32891547 -44.81381809 116.84593711 -44.90493774 104.78668213 C-44.91150894 104.06395615 -44.91808014 103.34123016 -44.92485046 102.59660339 C-44.94449428 100.21407954 -44.956229 97.83161861 -44.96621704 95.44903564 C-44.97029257 94.63012407 -44.9743681 93.8112125 -44.97856712 92.96748543 C-44.99939465 88.62889996 -45.01370802 84.29034576 -45.02310181 79.95172119 C-45.03413097 75.4990755 -45.06849963 71.04693439 -45.10827351 66.59446621 C-45.13458586 63.14633845 -45.14280673 59.69832801 -45.14638329 56.25010872 C-45.15121528 54.61046014 -45.16273098 52.97081558 -45.18142128 51.3312664 C-45.33975584 36.51551889 -43.05635723 24.40309241 -32.72793579 13.14044189 C-23.18677546 4.65465655 -12.80740137 0.03939597 0 0 Z M12.27206421 17.14044189 C12.27206421 28.03044189 12.27206421 38.92044189 12.27206421 50.14044189 C16.56206421 50.14044189 20.85206421 50.14044189 25.27206421 50.14044189 C25.27206421 39.25044189 25.27206421 28.36044189 25.27206421 17.14044189 C20.98206421 17.14044189 16.69206421 17.14044189 12.27206421 17.14044189 Z M42.27206421 17.14044189 C42.2346814 20.18649658 42.19729858 23.23255127 42.15878296 26.37091064 C42.11254961 29.32646803 42.06132248 32.28189968 42.00961304 35.23736572 C41.97639338 37.28872006 41.94835224 39.34016515 41.92562866 41.3916626 C41.89202851 44.34347138 41.83970945 47.29445075 41.78378296 50.24591064 C41.77739304 51.16067673 41.77100311 52.07544281 41.76441956 53.01792908 C41.65351552 57.8392783 41.45695211 61.25365839 38.27206421 65.14044189 C35.97576427 66.28859187 34.19508335 66.44813998 31.64706421 66.70294189 C30.82979858 66.78673096 30.01253296 66.87052002 29.17050171 66.95684814 C28.54401733 67.01743408 27.91753296 67.07802002 27.27206421 67.14044189 C27.1811853 68.80333252 27.1811853 68.80333252 27.08847046 70.49981689 C27.0040347 71.96337009 26.91938822 73.42691115 26.83456421 74.89044189 C26.7952478 75.62005127 26.7559314 76.34966064 26.71542358 77.10137939 C26.51059323 80.56773919 26.18686401 83.79377215 25.27206421 87.14044189 C23.85773214 87.3640756 22.44038803 87.56870665 21.02206421 87.76544189 C20.23315796 87.88145752 19.44425171 87.99747314 18.63143921 88.11700439 C15.91138631 88.14402479 14.53720582 87.61378622 12.27206421 86.14044189 C10.62226351 82.84084049 10.8894806 79.14916305 10.70956421 75.51544189 C10.66638062 74.71364502 10.62319702 73.91184814 10.57870483 73.08575439 C10.47254964 71.10419079 10.37179566 69.12233919 10.27206421 67.14044189 C9.62970825 67.11167969 8.98735229 67.08291748 8.32553101 67.05328369 C4.26187733 66.87132905 2.03839704 66.70601388 -1.33731079 64.21466064 C-4.68177317 59.9138569 -4.4577893 56.55455451 -4.43496704 51.24591064 C-4.45008835 50.29855545 -4.46520966 49.35120026 -4.48078918 48.37513733 C-4.52366326 45.35916334 -4.53250399 42.34419026 -4.54043579 39.32794189 C-4.56358029 37.27908717 -4.58894553 35.23025623 -4.61660767 33.18145752 C-4.67945738 28.16769717 -4.7117949 23.1545614 -4.72793579 18.14044189 C-13.2519489 19.22954911 -17.79833726 22.41612113 -23.10293579 29.14044189 C-27.0435061 34.42388812 -27.97786866 39.69557595 -28.01846313 46.1963501 C-28.02518036 46.87527313 -28.03189758 47.55419617 -28.03881836 48.25369263 C-28.0577094 50.48294534 -28.0617181 52.71189552 -28.06387329 54.94122314 C-28.07030783 56.50292582 -28.07703668 58.06462731 -28.08404541 59.62632751 C-28.09599625 62.89530225 -28.09972855 66.16417148 -28.09854126 69.4331665 C-28.09833829 73.60251968 -28.12562668 77.77118955 -28.16008568 81.94038105 C-28.18242856 85.16537016 -28.18637654 88.3901968 -28.18532181 91.61525536 C-28.18766719 93.15131164 -28.19643025 94.68737313 -28.21198654 96.22335243 C-28.31367063 107.30092919 -27.28784943 116.14040924 -19.56387329 124.57012939 C-10.68652409 132.16309616 -0.7231654 132.29010857 10.37680054 132.28570557 C11.59216995 132.28906418 12.80753937 132.29242279 14.05973816 132.29588318 C17.38221442 132.30373922 20.70462817 132.30705981 24.02710938 132.30769897 C26.10668023 132.30841153 28.1862446 132.31054977 30.26581383 132.31319618 C37.53165475 132.32243829 44.79747737 132.32653254 52.06332397 132.32574463 C58.81840225 132.32514431 65.57340056 132.3356901 72.32845861 132.35148829 C78.14268867 132.36459784 83.9568927 132.36992709 89.77113742 132.36928922 C93.23718659 132.36903521 96.70316464 132.37183227 100.16919899 132.38246727 C104.03921204 132.39401841 107.90911685 132.38938057 111.77914429 132.38336182 C113.48375824 132.39179108 113.48375824 132.39179108 115.22280884 132.40039062 C125.77502249 132.35878729 134.06552308 131.14376834 142.27206421 124.14044189 C148.19167356 117.79077545 150.51382028 111.80840689 150.54672241 103.06866455 C150.55183334 102.38813522 150.55694427 101.7076059 150.56221008 101.00645447 C150.5760305 98.77237988 150.57515492 96.53861647 150.57284546 94.30450439 C150.57673685 92.74040616 150.58107243 91.17630897 150.58583069 89.61221313 C150.59327689 86.33903575 150.59301349 83.06596625 150.58773804 79.79278564 C150.58194879 75.61447508 150.59886873 71.43660857 150.62208271 67.25837135 C150.63687175 64.02913871 150.63768469 60.8000117 150.63457298 57.57075119 C150.63508371 56.03109229 150.6402744 54.49142709 150.6503849 52.9518013 C150.71886037 41.0656499 149.85454229 33.08844431 141.46737671 24.12872314 C137.62521799 20.64890324 133.59012398 18.14044189 128.27206421 18.14044189 C128.23447998 20.06291748 128.23447998 20.06291748 128.19613647 22.02423096 C128.10194826 26.7803544 128.00175531 31.53633569 127.89974976 36.29229736 C127.85644411 38.35053176 127.81476592 40.40880107 127.77474976 42.46710205 C127.71694145 45.42603068 127.65327725 48.38478429 127.58847046 51.34356689 C127.57175797 52.26349426 127.55504547 53.18342163 127.53782654 54.13122559 C127.51788132 54.9918158 127.4979361 55.85240601 127.47738647 56.73907471 C127.46184219 57.49408264 127.44629791 58.24909058 127.43028259 59.02697754 C127.27206421 61.14044189 127.27206421 61.14044189 126.27206421 65.14044189 C121.98206421 65.80044189 117.69206421 66.46044189 113.27206421 67.14044189 C113.24628296 68.32122314 113.22050171 69.50200439 113.19393921 70.71856689 C113.13765024 72.27589513 113.08030307 73.83318536 113.02206421 75.39044189 C113.00788452 76.16774658 112.99370483 76.94505127 112.97909546 77.74591064 C112.81767577 81.5231313 112.70880977 83.55170522 110.40878296 86.65216064 C108.27206421 88.14044189 108.27206421 88.14044189 105.33456421 88.70294189 C101.15071983 87.93448068 99.89592329 86.45936298 97.27206421 83.14044189 C96.55410319 80.36609869 96.48253604 77.68410643 96.45956421 74.82794189 C96.43442749 74.08737549 96.40929077 73.34680908 96.38339233 72.58380127 C96.32487978 70.76991221 96.29552072 68.95512287 96.27206421 67.14044189 C95.66878296 67.11466064 95.06550171 67.08887939 94.44393921 67.06231689 C93.24511108 66.97723877 93.24511108 66.97723877 92.02206421 66.89044189 C91.23315796 66.84403564 90.44425171 66.79762939 89.63143921 66.74981689 C86.29839363 65.88896406 85.31519045 64.95185115 83.27206421 62.14044189 C82.64524302 58.73714772 82.66709197 55.35935029 82.66268921 51.90606689 C82.64615295 50.91290466 82.6296167 49.91974243 82.61257935 48.89648438 C82.56403652 45.72774104 82.54271409 42.55947783 82.52206421 39.39044189 C82.49390984 37.24067807 82.46398317 35.09093668 82.43222046 32.94122314 C82.35494182 27.67407385 82.31447973 22.40844899 82.27206421 17.14044189 C69.07206421 17.14044189 55.87206421 17.14044189 42.27206421 17.14044189 Z M99.27206421 17.14044189 C99.27206421 28.03044189 99.27206421 38.92044189 99.27206421 50.14044189 C103.23206421 50.14044189 107.19206421 50.14044189 111.27206421 50.14044189 C111.27206421 39.25044189 111.27206421 28.36044189 111.27206421 17.14044189 C107.31206421 17.14044189 103.35206421 17.14044189 99.27206421 17.14044189 Z " fill="#636363" transform="translate(194.72793579101563,157.85955810546875)"/>
<path d="M0 0 C8.90557669 6.50349862 15.58011817 14.38514003 17.40625 25.46484375 C18.80565025 36.80316624 16.38775246 46.72509361 9.5390625 55.97265625 C3.19270264 63.01556781 -6.13929108 67.45198638 -15.54296875 68.203125 C-27.25908035 68.41079611 -36.30782181 65.1499266 -44.9765625 57.18359375 C-51.92496188 49.86559866 -55.38623649 40.39781527 -55.21484375 30.3046875 C-54.21850433 19.61668276 -49.71551486 10.96955591 -42.03125 3.60546875 C-30.35028382 -5.62698721 -13.06279749 -7.41616965 0 0 Z M-34.375 20.375 C-37.42889861 25.30822083 -38.62081758 30.08357836 -37.671875 35.87890625 C-35.99674981 41.16723751 -32.76007394 45.65899129 -28.375 49 C-22.57858404 51.44059619 -17.45565962 51.80444022 -11.375 49.8125 C-6.16093603 47.01235453 -2.54947514 43.35389779 0 38 C1.6203658 31.98149846 0.59775982 27.50644842 -2 22 C-4.74027811 17.53615474 -8.0058457 14.6647181 -13 13 C-22.2345312 11.72529477 -27.87852689 13.87852689 -34.375 20.375 Z " fill="#636363" transform="translate(341,62)"/>
<path d="M0 0 C7.56894776 6.15752512 12.48046009 15.65618072 13.6875 25.3125 C14.48122368 34.2022052 12.0993851 43.45266853 6.875 50.75 C0.34010609 58.51018651 -7.1477487 63.67804535 -17.3125 65.3125 C-28.86211466 66.23504987 -38.29528139 63.68550409 -47.3125 56.3125 C-54.77512798 49.23214473 -58.65643479 40.56853988 -59.3125 30.3125 C-58.7638184 18.63543012 -55.14981291 9.11623828 -46.56640625 1.0703125 C-32.83238439 -9.6407964 -14.30545102 -9.68991871 0 0 Z M-37.87890625 17.1796875 C-40.75942955 21.39788971 -42.3125 25.12052681 -42.3125 30.3125 C-41.12939027 36.32145204 -39.16026525 40.3881186 -34.3125 44.3125 C-29.23731497 47.69595668 -25.43640431 48.72076029 -19.3125 48.3125 C-13.04075744 46.25796365 -9.4978953 43.20034378 -5.5625 38 C-3.20078314 32.92230875 -2.66428316 28.45677505 -4.4375 23.1875 C-6.61503679 18.17226822 -9.44235309 14.64831922 -13.9375 11.4375 C-23.12984098 8.37338634 -31.52241705 9.60262556 -37.87890625 17.1796875 Z " fill="#636363" transform="translate(212.3125,64.6875)"/>
</svg>
