<?xml version="1.0" encoding="UTF-8"?>
<svg version="1.1" xmlns="http://www.w3.org/2000/svg" width="512" height="512">
<path d="M0 0 C0.87650208 -0.00067474 1.75300415 -0.00134949 2.65606689 -0.00204468 C81.33267919 0.09345614 160.42439323 29.32198502 218.5234375 82.984375 C220.53594936 84.82547418 222.57712834 86.60867418 224.64453125 88.38671875 C229.73177239 92.82854589 234.52434631 97.55261585 239.3125 102.3125 C240.20517578 103.18455078 241.09785156 104.05660156 242.01757812 104.95507812 C242.87416016 105.80650391 243.73074219 106.65792969 244.61328125 107.53515625 C245.38454346 108.29707275 246.15580566 109.05898926 246.95043945 109.84399414 C251.24286592 114.88292956 252.57127934 119.319532 252.34765625 125.78515625 C251.61903511 130.95099824 249.23073699 134.05003144 245.5 137.6875 C240.43096129 139.95046371 235.46157732 140.21715432 230 139.25 C225.68943534 136.66704579 222.26696671 133.73609449 218.76953125 130.14453125 C218.05563484 129.41927498 218.05563484 129.41927498 217.32731628 128.67936707 C215.31930619 126.63918514 213.32331247 124.58741543 211.3269043 122.53588867 C204.56282043 115.60189227 197.61631463 109.26455171 190 103.25 C188.79103177 102.2499968 187.58484469 101.24661116 186.3828125 100.23828125 C171.44251746 87.89079932 155.15251367 77.26122068 138 68.25 C137.36320312 67.91307129 136.72640625 67.57614258 136.0703125 67.22900391 C103.64761055 50.19569186 68.4445374 39.17729073 32 35.25 C30.69736206 35.10860596 30.69736206 35.10860596 29.3684082 34.96435547 C20.23358554 34.08674683 11.10664526 34.00670974 1.9375 34 C1.10329529 33.99932526 0.26909058 33.99865051 -0.59039307 33.99795532 C-47.12504219 34.05734614 -92.91453945 45.21084443 -134 67.25 C-134.77649902 67.65831055 -135.55299805 68.06662109 -136.35302734 68.48730469 C-153.05418578 77.27944624 -168.23399149 87.52912165 -183 99.25 C-183.92167969 99.97703125 -184.84335938 100.7040625 -185.79296875 101.453125 C-194.81207454 108.68923296 -203.32166814 116.45270799 -211.39453125 124.7265625 C-212.14782715 125.49548828 -212.90112305 126.26441406 -213.67724609 127.05664062 C-215.15723329 128.57467459 -216.62802742 130.10173896 -218.08837891 131.63867188 C-222.48055597 136.1482646 -225.79584084 139.03979204 -232.34375 139.3671875 C-238.9169259 138.628896 -242.75019185 136.6182191 -247.375 131.75 C-249.72325726 126.69221514 -249.97097307 121.73314207 -249 116.25 C-246.37234392 111.86881716 -243.34611124 108.33936656 -239.74609375 104.73046875 C-239.24513687 104.22759842 -238.74417999 103.72472809 -238.2280426 103.20661926 C-237.17067861 102.147902 -236.11081568 101.09167513 -235.04858398 100.0378418 C-233.45911913 98.45897498 -231.88047628 96.86986796 -230.30273438 95.27929688 C-223.85639639 88.82457802 -217.15048383 82.92882566 -210 77.25 C-208.960469 76.37519125 -207.92534059 75.49506702 -206.8984375 74.60546875 C-150.01231381 25.73271542 -74.5140443 0.05195501 0 0 Z " fill="#636363" transform="translate(255,68.75)"/>
<path d="M0 0 C0.86289642 -0.00705963 1.72579285 -0.01411926 2.61483765 -0.02139282 C38.28098113 -0.24703912 38.28098113 -0.24703912 53.671875 3.203125 C54.5995166 3.40180176 55.5271582 3.60047852 56.48291016 3.80517578 C92.52735265 11.66395918 126.54767126 27.03025567 154.671875 51.203125 C155.74003627 52.08956589 156.80912102 52.97489464 157.87890625 53.859375 C164.22940822 59.1529378 170.34025546 64.65457731 176.234375 70.453125 C176.80575195 71.00693848 177.37712891 71.56075195 177.96582031 72.13134766 C182.63758796 76.8100385 186.94955819 81.76574675 188.3359375 88.36328125 C188.25874835 94.09843538 188.02937379 98.43045925 184.14453125 102.8671875 C179.56560702 107.02101267 175.2743158 107.55428498 169.33203125 107.69921875 C162.53181919 106.43104411 158.30339897 102.16435533 153.984375 97.140625 C140.3448354 81.90008979 124.44905776 69.33509159 106.671875 59.203125 C106.05296387 58.84653809 105.43405273 58.48995117 104.79638672 58.12255859 C61.29745454 33.27679565 9.94796502 27.06115715 -38.328125 40.203125 C-75.54926145 50.60483263 -110.4978346 72.19985094 -135.23046875 102.14453125 C-138.95475524 105.79946417 -142.98713413 107.63471856 -148.203125 107.703125 C-153.50864971 107.53507671 -157.44931733 105.83110908 -161.328125 102.203125 C-163.96009996 98.59025196 -164.80222684 95.90839231 -164.890625 91.453125 C-164.93316406 90.48890625 -164.97570312 89.5246875 -165.01953125 88.53125 C-163.23988662 79.96482499 -156.19601908 73.60964938 -150.140625 67.703125 C-149.38813477 66.96118896 -148.63564453 66.21925293 -147.86035156 65.45483398 C-142.26875193 59.99565436 -136.53528272 54.95676567 -130.328125 50.203125 C-129.33941406 49.4090625 -128.35070312 48.615 -127.33203125 47.796875 C-92.09560396 19.65690027 -45.47300224 0.2484118 0 0 Z " fill="#636363" transform="translate(244.328125,175.796875)"/>
<path d="M0 0 C1.02392861 0.86353058 2.04474048 1.73076952 3.0625 2.6015625 C3.58714844 3.04790039 4.11179687 3.49423828 4.65234375 3.95410156 C23.51823443 20.17922882 23.51823443 20.17922882 24.375 30.2890625 C24.29608418 35.0503171 22.85080186 38.75592294 20.0625 42.6015625 C14.78985246 46.79815952 10.76772285 48.04857736 4.0625 47.6015625 C-1.46694941 45.70575127 -4.20114827 43.6770416 -8 39.1015625 C-25.48306826 19.04565308 -49.15636186 8.27981099 -75.5390625 6.41796875 C-101.91717437 5.68763015 -125.62739049 17.40066683 -144.42236328 35.10498047 C-146.38742154 37.0459742 -148.17801157 39.09871791 -149.9375 41.2265625 C-153.76515215 45.85489698 -157.35671664 47.27309916 -163.375 48.0390625 C-169.44172394 47.29402623 -173.54781435 45.3475778 -177.375 40.5390625 C-179.80487665 35.9708944 -180.69311511 31.73794618 -179.9375 26.6015625 C-177.95218548 21.75370145 -175.06005196 18.12345415 -171.5 14.3515625 C-170.97067871 13.78727539 -170.44135742 13.22298828 -169.89599609 12.64160156 C-152.77264605 -5.28749357 -131.7864812 -17.08180856 -107.9375 -23.3984375 C-106.16439453 -23.87990234 -106.16439453 -23.87990234 -104.35546875 -24.37109375 C-68.6953372 -32.5360866 -28.29041178 -23.20304222 0 0 Z " fill="#636363" transform="translate(333.9375,310.3984375)"/>
<path d="M0 0 C3.88446678 2.58964452 6.69907021 5.64814041 8.8125 9.875 C9.40770744 15.47845293 9.93404174 21.08849855 6.6875 25.9375 C3.49455924 29.58403402 0.35074826 31.49532925 -4.51171875 32.22265625 C-10.13248446 32.55835282 -13.81056369 31.53832972 -18.49609375 28.45703125 C-21.49471499 25.65231623 -23.01256463 23.0459638 -23.62109375 18.97265625 C-23.62905637 12.78570231 -23.58727589 8.63151447 -19.1875 3.875 C-13.37010796 -1.37484159 -7.3959011 -2.61031804 0 0 Z " fill="#636363" transform="translate(263.1875,411.125)"/>
</svg>
